<?xml version="1.0" encoding="utf-8"?>
<!-- Generator: Adobe Illustrator 24.0.1, SVG Export Plug-In . SVG Version: 6.00 Build 0)  -->
<svg version="1.1" id="Layer_1" xmlns="http://www.w3.org/2000/svg" xmlns:xlink="http://www.w3.org/1999/xlink" x="0px" y="0px"
	 viewBox="0 0 800 800" style="enable-background:new 0 0 800 800;" xml:space="preserve">
<style type="text/css">
	.st0{fill:url(#SVGID_1_);}
	.st1{fill:none;stroke:#6DCFF6;stroke-width:20.0761;stroke-miterlimit:10;}
	.st2{fill:#6DCFF6;}
	.st3{fill:none;stroke:#FFFFFF;stroke-width:2.5095;stroke-linecap:round;stroke-miterlimit:10;}
	.st4{fill:none;stroke:#FFFFFF;stroke-width:2.5095;stroke-linecap:round;stroke-miterlimit:10;stroke-dasharray:4.1689,8.3379;}
	.st5{fill:url(#SVGID_2_);}
	.st6{fill:#D6219C;}
	.st7{fill:url(#SVGID_3_);}
	.st8{fill:#FFFFFF;}
	.st9{fill:#871FFF;}
	.st10{fill:url(#SVGID_4_);}
	.st11{fill:url(#SVGID_5_);}
	.st12{fill:url(#SVGID_6_);}
	.st13{fill:url(#SVGID_7_);}
	.st14{fill:url(#SVGID_8_);}
	.st15{enable-background:new    ;}
	.st16{fill:url(#SVGID_9_);}
	.st17{fill:url(#SVGID_10_);}
	.st18{fill:#DCDCDC;}
	.st19{fill:#4F6167;}
	.st20{fill:url(#SVGID_11_);}
	.st21{fill:url(#SVGID_12_);}
	.st22{fill:url(#SVGID_13_);}
	.st23{fill:url(#SVGID_14_);}
	.st24{fill:url(#SVGID_15_);}
	.st25{fill:url(#SVGID_16_);}
	.st26{fill:#C0D5EE;}
	.st27{fill:#010101;}
	.st28{fill:#CF1686;}
	.st29{fill:#6F54A3;}
</style>
<linearGradient id="SVGID_1_" gradientUnits="userSpaceOnUse" x1="390.787" y1="87.3173" x2="390.787" y2="792.8727">
	<stop  offset="8.011200e-04" style="stop-color:#871FFF"/>
	<stop  offset="1" style="stop-color:#80C7F5"/>
</linearGradient>
<path class="st0" d="M534.7,643L277.8,791.3c-5.4,3.1-12,3.1-17.3,0L25.7,652.8c-6.4-3.7-6.4-13,0-16.7l256.8-148.3
	c5.4-3.1,12-3.1,17.3,0l234.8,138.5C541.1,630,541.1,639.3,534.7,643z M755.7,397L549.6,278c-4.6-2.7-10.3-2.7-14.9,0L318,398.7
	c-6.7,3.9-6.7,13.5,0,17.4L524,535c4.7,2.7,10.4,2.7,15.1,0l216.6-120.6C762.4,410.5,762.4,400.9,755.7,397z M444.3,195.7
	L275.5,98.2c-4.7-2.7-10.4-2.7-15.1,0L62.1,213.4c-5.6,3.2-5.6,11.3,0,14.5l168.8,97.4c4.7,2.7,10.4,2.7,15.1,0l198.3-115.2
	C449.8,206.9,449.8,198.9,444.3,195.7z"/>
<polyline class="st1" points="606.2,444.6 541.7,481.8 482,447.4 "/>
<path class="st2" d="M487.6,438.4L457.2,456c-2.2,1.3-2.2,4.5,0,5.8l65.4,37.8c2.6,1.5,5.8,1.5,8.4,0l35.5-20.6L496,438.4
	C493.4,436.9,490.2,436.9,487.6,438.4z"/>
<g>
	<path class="st1" d="M223.5,166l26.4-15.2c5.2-3,11.5-3,16.7,0L526.8,301l151.5,87.5c5.6,3.2,5.6,11.3,0,14.5l-78.5,45.4
		c-5.2,3-11.6,3-16.7,0L375.9,328.9c-5.2-3-11.6-3-16.7,0L171.5,437.2c-5.6,3.2-5.6,11.3,0,14.5l182.1,104.9c0,0,10.6,6.9-3.7,14.4
		L321,583.8"/>
	<g>
		<line class="st3" x1="223.5" y1="166" x2="225.3" y2="165"/>
		<path class="st4" d="M232.5,160.8l17.4-10c5.2-3,11.5-3,16.7,0L526.8,301l151.5,87.5c5.6,3.2,5.6,11.3,0,14.5l-78.5,45.4
			c-5.2,3-11.6,3-16.7,0L375.9,328.9c-5.2-3-11.6-3-16.7,0L171.5,437.2c-5.6,3.2-5.6,11.3,0,14.5l182.1,104.9c0,0,10.6,6.9-3.7,14.4
			l-23.2,10.3"/>
		<line class="st3" x1="322.9" y1="583" x2="321" y2="583.8"/>
	</g>
</g>
<linearGradient id="SVGID_2_" gradientUnits="userSpaceOnUse" x1="368.148" y1="292.5918" x2="368.148" y2="449.047" gradientTransform="matrix(-1 0 0 1 802.9013 0)">
	<stop  offset="8.011200e-04" style="stop-color:#871FFF"/>
	<stop  offset="1" style="stop-color:#80C7F5"/>
</linearGradient>
<polygon class="st5" points="452.1,430.2 452.1,286.7 417.4,306.8 417.4,450.3 "/>
<path class="st6" d="M417.3,266.6l34.8,20.1l-34.7,20.1l-34.8-20.1L417.3,266.6z M382.6,430.2l0-143.5l34.8,20.1l0,143.5
	L382.6,430.2z"/>
<path class="st6" d="M591.3,194.9l34.8,20.1L591.3,235L556.5,215L591.3,194.9z M626.1,392.9l0-178L591.3,235l0.1,177.9L626.1,392.9z
	"/>
<linearGradient id="SVGID_3_" gradientUnits="userSpaceOnUse" x1="229.0079" y1="230.36" x2="229.0079" y2="410.1453" gradientTransform="matrix(-1 0 0 1 802.9013 0)">
	<stop  offset="8.011200e-04" style="stop-color:#871FFF"/>
	<stop  offset="1" style="stop-color:#80C7F5"/>
</linearGradient>
<polygon class="st7" points="556.5,392.9 556.5,215 591.3,235 591.3,413 "/>
<polygon class="st8" points="442.2,435.9 442.2,418.7 427.3,427.3 427.3,444.5 "/>
<polygon class="st8" points="442.2,413 437.2,415.8 437.2,392.9 442.2,390 "/>
<polygon class="st8" points="427.3,421.6 432.3,418.7 432.2,395.7 427.3,398.6 "/>
<polygon class="st8" points="432.3,390 427.3,392.9 427.3,369.9 432.3,367 "/>
<polygon class="st8" points="437.2,387.1 442.2,384.3 442.2,361.3 437.2,364.2 "/>
<path class="st8" d="M442.2,355.5c0,0-5,2.9-5,2.9l0-23l5-2.9V355.5z"/>
<polygon class="st8" points="427.3,364.2 427.3,341.2 432.2,338.3 432.3,361.3 "/>
<path class="st8" d="M442.2,326.8c0,0-5,2.9-5,2.9l0-23l5-2.9V326.8z"/>
<polygon class="st8" points="427.3,335.5 427.3,312.5 432.2,309.6 432.3,332.6 "/>
<polygon class="st8" points="581.4,376.6 576.4,373.8 576.5,362.3 581.4,365.2 "/>
<polygon class="st8" points="571.4,370.9 571.5,359.4 566.5,356.6 566.5,368 "/>
<polygon class="st8" points="581.4,393.9 576.4,391 576.5,379.5 581.4,382.4 "/>
<polygon class="st8" points="571.4,388.1 571.5,376.7 566.5,373.8 566.5,385.3 "/>
<polygon class="st8" points="581.4,359.4 576.4,356.6 576.5,345.1 581.4,348 "/>
<polygon class="st8" points="571.4,353.7 571.5,342.2 566.5,339.4 566.5,350.8 "/>
<polygon class="st8" points="581.4,342.2 576.4,339.4 576.5,327.9 581.4,330.8 "/>
<polygon class="st8" points="571.4,336.5 571.5,325 566.5,322.2 566.5,333.6 "/>
<polygon class="st8" points="581.4,325 576.4,322.2 576.5,310.7 581.4,313.6 "/>
<polygon class="st8" points="571.4,319.3 571.5,307.8 566.5,305 566.5,316.4 "/>
<polygon class="st8" points="581.4,307.8 576.4,304.9 576.5,293.4 581.4,296.3 "/>
<polygon class="st8" points="571.4,302 571.5,290.5 566.5,287.7 566.5,299.1 "/>
<polygon class="st8" points="581.4,290.6 576.4,287.7 576.5,276.2 581.4,279.1 "/>
<polygon class="st8" points="571.4,284.8 571.5,273.3 566.5,270.5 566.5,281.9 "/>
<polygon class="st8" points="581.4,273.3 576.4,270.5 576.5,259 581.4,261.9 "/>
<polygon class="st8" points="571.4,267.6 571.5,256.1 566.5,253.3 566.5,264.7 "/>
<polygon class="st8" points="581.4,256.1 576.4,253.3 576.5,241.8 581.4,244.7 "/>
<polygon class="st8" points="571.4,250.4 571.5,238.9 566.5,236.1 566.5,247.5 "/>
<polygon class="st2" points="278.1,249.4 293,258 203.5,309.6 213.5,315.3 312.9,257.9 288.1,243.6 "/>
<g>
	<path class="st2" d="M84.2,181.5c0,7.3-2.6,15.7,1.4,21.8c3.7,5.8,12.6,7.2,19,11.4c5.7,3.7,10.3,11.5,17.6,13.4
		c6.7,1.8,14.6-2.4,22.1-2.4c7.5,0,15.4,4.2,22.1,2.4c7.3-2,11.8-9.7,17.6-13.4c6.4-4.1,15.3-5.6,19-11.4c4-6.2,1.4-14.5,1.4-21.8
		c0-7.3,2.6-15.7-1.4-21.8c-3.7-5.8-12.6-7.2-19-11.4c-5.7-3.7-10.3-11.5-17.6-13.4c-6.7-1.8-14.6,2.4-22.1,2.4
		c-7.5,0-15.4-4.2-22.1-2.4c-7.3,2-11.8,9.7-17.6,13.4c-6.4,4.1-15.3,5.6-19,11.4C81.6,165.9,84.2,174.2,84.2,181.5z"/>
</g>
<g>
	<path class="st8" d="M138.8,248.7c1.7-5.7,2.6-11.4,3.2-17.1c0.7-5.7,0.8-11.4,1.1-17.1c0.3-5.7,0.4-11.4,0.6-17.1
		c0.1-5.7,0.2-11.4,0.1-17.1h0.9c-0.1,5.7,0,11.4,0.1,17.1c0.1,5.7,0.3,11.4,0.6,17.1c0.3,5.7,0.5,11.4,1.1,17.1
		c0.7,5.7,1.5,11.4,3.2,17.1H138.8z"/>
</g>
<path class="st9" d="M106.1,589.5l-80.3,46.6c-6.4,3.7-6.4,13,0,16.7l234.7,138.5c6,3.4,13.3,3.4,19.2,0l85.1-49.4L106.1,589.5z"/>
<g>
	
		<ellipse transform="matrix(0.9202 -0.3916 0.3916 0.9202 -146.1643 245.0151)" class="st8" cx="527.7" cy="480.9" rx="3.6" ry="6.4"/>
	
		<ellipse transform="matrix(0.9202 -0.3916 0.3916 0.9202 -139.7196 225.4766)" class="st8" cx="483" cy="455.3" rx="3.6" ry="6.4"/>
	
		<ellipse transform="matrix(0.9202 -0.3916 0.3916 0.9202 -140.2884 251.9881)" class="st8" cx="547.7" cy="470" rx="3.6" ry="6.4"/>
	<g>
		<polygon class="st8" points="492,458.8 491.9,453.1 531.7,476.1 551.6,464.6 551.6,470.3 531.7,481.9 		"/>
		<polygon class="st8" points="472,441.7 472,447.4 486.9,456 491.9,453.1 491.9,446.8 486.3,450 		"/>
		<path class="st6" d="M491.9,418.7l9.9,5.7l-10,5.7l0,5.7l-5,2.9l-14.9-8.6L491.9,418.7z M531.7,453.2l19.9-11.5l-39.8-23
			l-19.9,11.5L531.7,453.2z"/>
		
			<linearGradient id="SVGID_4_" gradientUnits="userSpaceOnUse" x1="291.1231" y1="421.342" x2="291.1231" y2="483.8996" gradientTransform="matrix(-1 0 0 1 802.9013 0)">
			<stop  offset="8.011200e-04" style="stop-color:#871FFF"/>
			<stop  offset="1" style="stop-color:#80C7F5"/>
		</linearGradient>
		<path class="st10" d="M487,438.8l5-2.9l0,10.8l-5.6,3.2l-14.3-8.3l0-11.5L487,438.8z M551.5,464.7v-23l-19.9,11.5l-39.8-23l0,23
			l39.8,23L551.5,464.7z"/>
	</g>
</g>
<g>
	<polygon class="st2" points="190.5,22.6 190.6,57.1 204.4,65.1 209.1,76.7 214.3,70.8 230.4,80.1 230.3,45.6 	"/>
	<g>
		<path class="st8" d="M206.4,59.5c0-2.4,1.5-3.5,3.3-2.5s3.3,3.8,3.3,6.3L206.4,59.5z"/>
		<g>
			<path class="st8" d="M209.7,48c3.1,1.8,5.8,5.2,7.7,9.2l-1.4,1.1c-1.5-3.3-3.7-6.2-6.3-7.6c-2.5-1.5-4.8-1.2-6.3,0.4l-1.4-2.7
				C203.9,46.5,206.6,46.2,209.7,48z"/>
			<path class="st8" d="M209.7,52.6c2.1,1.2,4,3.6,5.2,6.4l-1.2,0.9c-0.9-2.2-2.3-4.1-3.9-5c-1.6-0.9-3.1-0.7-3.9,0.5l-1.2-2.4
				C205.7,51.7,207.6,51.4,209.7,52.6z"/>
			<path class="st8" d="M209.7,42.1c4.3,2.5,8.1,7.2,10.8,12.7l-1.7,1.3c-2.2-4.7-5.5-8.7-9.1-10.8c-3.6-2.1-6.9-1.8-9.1,0.3
				l-1.7-3.3C201.6,39.9,205.4,39.6,209.7,42.1z"/>
		</g>
	</g>
	
		<linearGradient id="SVGID_5_" gradientUnits="userSpaceOnUse" x1="621.2088" y1="16.1148" x2="558.57" y2="78.7536" gradientTransform="matrix(-1 0 0 1 802.9013 0)">
		<stop  offset="8.011200e-04" style="stop-color:#871FFF"/>
		<stop  offset="1" style="stop-color:#80C7F5"/>
	</linearGradient>
	<path class="st11" d="M190.5,22.6l6.7-3.8c2.1-1.2,4.6-1.2,6.7,0L235.2,37c3.1,1.8,5,5.1,5,8.7l0.1,24.8c0,2.4-1.3,4.6-3.3,5.8
		l-6.6,3.8l-0.1-34.5L190.5,22.6z M209.1,76.7l8.1-4.2l-2.9-1.7L209.1,76.7z"/>
</g>
<g>
	<polygon class="st2" points="531.8,177.6 531.7,212 517.9,220 513.2,231.6 508,225.7 491.9,235 492,200.5 	"/>
	<g>
		<g>
			<polygon class="st8" points="498.4,208 528.3,190.8 528.3,189 498.4,206.2 			"/>
		</g>
		<g>
			<polygon class="st8" points="498.4,213.7 528.3,196.5 528.3,194.7 498.4,211.9 			"/>
		</g>
		<g>
			<polygon class="st8" points="498.4,219.5 528.3,202.2 528.3,200.4 498.4,217.7 			"/>
		</g>
		<g>
			<polygon class="st8" points="513.4,216.6 528.3,208 528.3,206.2 513.4,214.8 			"/>
		</g>
	</g>
	
		<linearGradient id="SVGID_6_" gradientUnits="userSpaceOnUse" x1="272.4236" y1="181.1281" x2="321.0739" y2="229.7785" gradientTransform="matrix(-1 0 0 1 802.9013 0)">
		<stop  offset="8.011200e-04" style="stop-color:#871FFF"/>
		<stop  offset="1" style="stop-color:#80C7F5"/>
	</linearGradient>
	<path class="st12" d="M492,200.5l-0.1,34.5l-6.6-3.8c-2.1-1.2-3.4-3.4-3.3-5.8l0.1-24.8c0-3.6,1.9-6.9,5-8.7l31.3-18.2
		c2.1-1.2,4.6-1.2,6.7,0l6.7,3.8L492,200.5z M513.2,231.6l-5.2-5.9l-3,1.8L513.2,231.6z"/>
</g>
<g>
	<polygon class="st2" points="322.8,453 322.9,487.5 336.7,495.5 341.4,507.1 346.6,501.2 362.7,510.5 362.6,476 	"/>
	<g>
		<g>
			<path class="st8" d="M351,483.4c0-3.1-1.9-6.7-4.2-8c-1.7-1-3.2-0.5-3.9,1.2c-0.6-2.4-2.1-4.6-3.9-5.6c-2.3-1.3-4.2,0.1-4.2,3.2
				c0,1.6,0.5,3.2,1.3,4.7l6.8,13.7l6.9-6l0,0C350.6,485.9,351,484.8,351,483.4z"/>
		</g>
	</g>
	
		<linearGradient id="SVGID_7_" gradientUnits="userSpaceOnUse" x1="488.9109" y1="446.534" x2="426.2721" y2="509.1728" gradientTransform="matrix(-1 0 0 1 802.9013 0)">
		<stop  offset="8.011200e-04" style="stop-color:#871FFF"/>
		<stop  offset="1" style="stop-color:#80C7F5"/>
	</linearGradient>
	<path class="st13" d="M322.8,453l6.7-3.8c2.1-1.2,4.6-1.2,6.7,0l31.3,18.2c3.1,1.8,5,5.1,5,8.7l0.1,24.8c0,2.4-1.3,4.6-3.3,5.8
		l-6.6,3.8l-0.1-34.5L322.8,453z M341.4,507.1l7.9-4.3l-2.7-1.5L341.4,507.1z"/>
</g>
<g>
	
		<linearGradient id="SVGID_8_" gradientUnits="userSpaceOnUse" x1="510.1945" y1="255.4916" x2="626.8596" y2="255.4916" gradientTransform="matrix(-1 0 0 1 802.9013 0)">
		<stop  offset="8.011200e-04" style="stop-color:#871FFF"/>
		<stop  offset="1" style="stop-color:#80C7F5"/>
	</linearGradient>
	<path class="st14" d="M234.2,274.8c-0.4-0.3-0.9-0.5-1.3-0.8c-14-8.2-28.1-16.3-42.1-24.5c-1.3-0.7-2.5-1.5-3.8-2.2
		c-3.6-2.1-7.3-4.2-10.9-6.3c0-1.6,0-3.2,0-4.8c14,8.2,28.1,16.3,42.1,24.5c0.4,0.3,0.9,0.5,1.3,0.8c4.9,2.8,9.8,5.7,14.7,8.5
		c0,0.1,0,0.3,0,0.4C234.2,271.9,234.2,273.3,234.2,274.8z M234.2,270l0,4.8l58.5-33.8l0-4.8L234.2,270z"/>
	<polygon class="st8" points="176,236.2 234.2,270 292.7,236.2 234.6,202.4 	"/>
	<g>
		<g class="st15">
			<g>
				<polygon class="st6" points="180.1,182.9 180.3,235.3 234.3,266.7 234.1,214.3 				"/>
			</g>
			<g>
				<polygon class="st6" points="234.1,214.3 234.3,266.7 288.6,235.3 288.5,182.9 				"/>
			</g>
			<g>
				
					<linearGradient id="SVGID_9_" gradientUnits="userSpaceOnUse" x1="514.4411" y1="182.9435" x2="622.7617" y2="182.9435" gradientTransform="matrix(-1 0 0 1 802.9013 0)">
					<stop  offset="8.011200e-04" style="stop-color:#871FFF"/>
					<stop  offset="1" style="stop-color:#80C7F5"/>
				</linearGradient>
				<polygon class="st16" points="180.1,182.9 234.1,214.3 288.5,182.9 234.5,151.6 				"/>
			</g>
		</g>
	</g>
	<g>
		<polygon class="st8" points="186.3,181 186.3,185.8 234.5,158 234.5,153.2 		"/>
	</g>
	<g>
		<polygon class="st8" points="234.5,153.2 234.5,158 282.5,185.8 282.5,181 		"/>
	</g>
	
		<linearGradient id="SVGID_10_" gradientUnits="userSpaceOnUse" x1="510.1929" y1="200.3221" x2="626.8613" y2="200.3221" gradientTransform="matrix(-1 0 0 1 802.9013 0)">
		<stop  offset="8.011200e-04" style="stop-color:#871FFF"/>
		<stop  offset="1" style="stop-color:#80C7F5"/>
	</linearGradient>
	<path class="st17" d="M292.7,181l0,4.8l-58.5,33.8l0-4.8L292.7,181z M176,181l0,4.8l58.1,33.8l0-4.8L176,181z"/>
	<g>
		<path class="st6" d="M292.7,181l-58.5,33.8L176,181l58.5-33.8L292.7,181z M234.2,208.9l48.3-27.9l-47.9-27.9L186.3,181
			L234.2,208.9L234.2,208.9z"/>
	</g>
	<g>
		<g class="st15">
			<g>
				<polygon class="st18" points="286.8,213.3 286.1,212.8 258.5,228.8 259.2,229.2 				"/>
			</g>
			<g>
				<path class="st8" d="M286.9,229.7l-27.6,15.9l0-16.5l27.6-15.9L286.9,229.7z M260,244.3l26.1-15l0-14.7l-26.1,15L260,244.3
					L260,244.3z"/>
			</g>
			<polygon class="st8" points="260,244.3 260,229.6 286.1,214.6 286.1,229.3 260,244.3 			"/>
		</g>
	</g>
	<g>
		<polygon class="st2" points="245.4,250.5 245.4,233.9 253.4,229.3 253.4,245.9 245.4,250.5 		"/>
		<g>
			<polygon class="st19" points="244,260.7 244.3,260.9 244.2,233.7 243.9,233.5 			"/>
		</g>
		<g>
			<g class="st15">
				<g>
					<polygon class="st8" points="253.4,245.9 252.9,245.6 244.9,250.2 245.4,250.5 					"/>
				</g>
				<g>
					<polygon class="st8" points="253.4,229.3 252.9,229 252.9,245.6 253.4,245.9 					"/>
				</g>
				<g>
					<polygon class="st8" points="244,233.9 243.5,233.6 243.6,260.8 244.1,261 					"/>
				</g>
				<g>
					<polygon class="st8" points="254.7,227.7 254.2,227.4 243.5,233.6 244,233.9 					"/>
				</g>
				<g>
					<path class="st8" d="M254.8,254.9l-10.6,6.1l-0.1-27.2l10.6-6.1L254.8,254.9z M245.4,250.5l8-4.6l0-16.6l-8,4.6L245.4,250.5
						L245.4,250.5z"/>
				</g>
			</g>
		</g>
	</g>
	<g>
		<polygon class="st8" points="257.4,224.1 256.5,223.6 241.4,232.3 242.3,232.9 		"/>
	</g>
	<g>
		<path class="st6" d="M246,217.1c4.4-5.1,10.1-9.9,16.3-13.5c0,0,0.1,0,0.1,0c-9.5,8.2-17,19.7-18.3,27.9c-0.4,1.5-1.9,1.1-2.3,0.9
			c-0.2-0.1-0.5-0.2-0.7-0.3c-0.4-0.2-1.6-1-1.9-2.4C239.7,226.2,242.1,221.8,246,217.1L246,217.1z"/>
		<path class="st8" d="M262.5,203.7c-6.7,9.1-12.1,21.3-13,29.6c-0.4,1.6-2,1.3-2.5,1.2c-0.3-0.1-0.5-0.2-0.8-0.3
			c-1.7-0.7-4.2-1.7,1.3-12.2C249.5,218.2,254.1,210.8,262.5,203.7C262.4,203.7,262.4,203.7,262.5,203.7L262.5,203.7z"/>
		<path class="st6" d="M262.6,203.7c-3.8,9.7-6.8,22.3-7.3,30.7c-0.3,1.6-2,1.5-2.6,1.5c-0.3-0.1-0.6-0.1-0.9-0.2
			c-2.1-0.6-3.7-1-0.5-10.6C252.8,220.8,256.2,212.2,262.6,203.7C262.5,203.7,262.5,203.7,262.6,203.7L262.6,203.7z"/>
		<path class="st8" d="M262.7,203.7c-0.8,9.9-1.3,22.7-1.4,31.1c-0.3,1.7-2.2,1.8-2.6,1.8c-0.3,0-0.6,0-0.9-0.1
			c-2.9-0.7-2.9-1.1-2-7.2C257,221,259.5,211.4,262.7,203.7C262.6,203.7,262.6,203.7,262.7,203.7L262.7,203.7z"/>
		<path class="st6" d="M262.8,203.7c2.3,9.8,4.2,22.5,4.5,31c-0.2,1.7-2.1,2-2.5,2c-0.3,0-0.6,0-0.9,0
			C260.7,236.3,260.2,236.2,262.8,203.7C262.7,203.7,262.7,203.7,262.8,203.7L262.8,203.7z"/>
		<path class="st8" d="M262.9,203.7c5.3,9.4,9.5,21.8,10.3,30.2c-0.1,1.7-2,2.2-2.4,2.3c-0.3,0-0.6,0.1-0.9,0.1
			c-2.5-0.1-2.6-1.1-2.6-2.3C267,227.4,265.3,214.5,262.9,203.7C262.8,203.7,262.8,203.7,262.9,203.7L262.9,203.7z"/>
		<path class="st6" d="M263,203.7c8.1,8.7,14.6,20.5,15.8,28.8c0,1.7-1.9,2.4-2.2,2.5c-0.3,0.1-0.6,0.1-0.8,0.2
			c-2.4,0.2-2.5-0.9-2.6-2C272.5,226.6,268.7,214,263,203.7C262.9,203.7,262.9,203.7,263,203.7L263,203.7z"/>
		<path class="st8" d="M263,203.6c10.8,7.6,19.4,18.6,20.9,26.8c0,1.7-1.7,2.6-2,2.8c-0.3,0.1-0.5,0.2-0.8,0.3
			c-2.2,0.4-2.3-0.5-2.5-1.7C277.7,225.3,271.9,213.2,263,203.6C263,203.6,263,203.6,263,203.6L263,203.6z"/>
		<path class="st6" d="M263.1,203.6C263.1,203.6,263.1,203.6,263.1,203.6c13,6.3,23.3,16.3,25.2,24.3c0.1,0.5,0.4,1.4-1.4,2.9
			c-0.2,0.1-0.3,0.2-0.5,0.3c-0.1,0-0.2,0.1-0.2,0.1c-1.9,0.9-2.2-0.6-2.3-1.4C282.6,223.3,274.9,212,263.1,203.6
			C263.1,203.6,263.1,203.6,263.1,203.6L263.1,203.6z"/>
		<path class="st8" d="M263.2,203.5c14.8,4.8,26.5,13.6,28.6,21.3c0.2,1.7-0.9,2.9-1.2,3.1c-0.2,0.2-0.4,0.3-0.6,0.5
			c-1.3,0.7-1.7-0.1-1.8-0.6C286.4,219.9,276.1,209.9,263.2,203.5C263.1,203.6,263.2,203.6,263.2,203.5L263.2,203.5z"/>
		<path class="st6" d="M263.2,203.5c16,3.2,28.8,10.6,31,18.1c0.3,1.6-0.5,2.9-0.7,3.2c-0.1,0.2-0.2,0.3-0.4,0.5
			c-0.3,0.3-1,0.9-1.4-0.4C289.7,217.1,277.9,208.3,263.2,203.5C263.2,203.5,263.2,203.5,263.2,203.5L263.2,203.5z"/>
		<path class="st8" d="M263.2,203.4c16.7,1.4,30,7.5,32.4,14.8c0.3,1.5,0,2.7-0.2,3.2l-0.2,0.5c-0.1,0.1-0.2,0.3-0.3,0.4
			c-0.3,0-0.4,0-0.6-0.7C291.9,214.1,279.2,206.6,263.2,203.4C263.2,203.5,263.2,203.4,263.2,203.4L263.2,203.4z"/>
		<path class="st6" d="M263.2,203.4c16.8-0.3,30.3,4.3,32.6,11.3c0.1,0.4,0.4,1.4,0.3,3.2c0,0.2,0,0.3,0,0.5c0,0.2-0.1,0.4-0.2,0.5
			c-0.2-0.2-0.2-0.2-0.3-0.7c-0.6-2.1-1.8-3.5-3.4-5c-0.9-0.8-3-2.5-7.1-4.5C281,206.8,273.9,204.3,263.2,203.4
			C263.2,203.4,263.2,203.4,263.2,203.4L263.2,203.4z"/>
		<path class="st8" d="M263.2,203.3c16.1-2,28.8,0.9,31.7,7.4l0,0.1c0.6,1.6,0.6,1.8,0.9,3.2c0.1,0.4,0.2,1,0.2,1.4
			C294.2,208,280.7,203,263.2,203.3C263.2,203.3,263.2,203.3,263.2,203.3L263.2,203.3z"/>
		<path class="st6" d="M263.2,203.3c13.6-3.3,25-2.3,29,2.7c0.4,0.5,0.8,1.2,1.2,1.7c0.9,1.5,1,1.7,1.5,3.1
			C292,204.2,279.2,201.3,263.2,203.3C263.2,203.3,263.2,203.3,263.2,203.3L263.2,203.3z"/>
		<path class="st8" d="M263.1,203.2c13.5-5.2,21.9-4.1,25.2-1.3c1.5,1.4,1.7,1.5,2.7,2.7c0.3,0.4,0.8,0.9,1.1,1.4
			C288.1,200.9,276.9,199.9,263.1,203.2C263.2,203.2,263.2,203.2,263.1,203.2L263.1,203.2z"/>
		<path class="st6" d="M263.1,203.2c6.2-3.6,11.9-5.5,16.3-5.4c1.8,0,3.2,0.4,4.4,1c1.8,1.1,2.3,1.4,4.2,2.9l0.3,0.3
			C283.8,198.4,274.2,198.9,263.1,203.2C263.1,203.2,263.1,203.2,263.1,203.2L263.1,203.2z"/>
	</g>
	<polygon class="st8" points="198.5,215.5 198.5,231.3 212.2,239.2 212.2,223.4 	"/>
</g>
<g>
	
		<linearGradient id="SVGID_11_" gradientUnits="userSpaceOnUse" x1="492.0843" y1="737.2309" x2="536.941" y2="737.2309" gradientTransform="matrix(-1 0 0 1 802.9013 0)">
		<stop  offset="1.617508e-03" style="stop-color:#FFA68C"/>
		<stop  offset="0.9992" style="stop-color:#871FFF"/>
	</linearGradient>
	<path class="st20" d="M266,719.2l5.8-3.4l13.5,5.5l-5.8,3.4L266,719.2z M297.5,763.7l5.8-3.4l-2.3-16.8l-5.8,3.4L297.5,763.7z
		 M291.5,731.6l5.8-3.4l-6-17.5l-5.8,3.4L291.5,731.6z M305,741.7l5.8-3.4l-13.5-10l-5.8,3.4L305,741.7z"/>
	<g>
		<polygon class="st8" points="285.5,714.1 279.4,724.7 266,719.2 275.7,735.7 273.3,749.8 285.4,749.5 297.5,763.7 295.2,747 
			305,741.7 291.5,731.6 		"/>
	</g>
</g>
<g>
	
		<linearGradient id="SVGID_12_" gradientUnits="userSpaceOnUse" x1="539.2303" y1="708.3932" x2="584.0871" y2="708.3932" gradientTransform="matrix(-1 0 0 1 802.9013 0)">
		<stop  offset="1.617508e-03" style="stop-color:#FFA68C"/>
		<stop  offset="0.9992" style="stop-color:#871FFF"/>
	</linearGradient>
	<path class="st21" d="M218.8,690.3l5.8-3.4l13.5,5.5l-5.8,3.4L218.8,690.3z M250.3,734.9l5.8-3.4l-2.3-16.8l-5.8,3.4L250.3,734.9z
		 M244.4,702.8l5.8-3.4l-6-17.5l-5.8,3.4L244.4,702.8z M257.8,712.8l5.8-3.4l-13.5-10l-5.8,3.4L257.8,712.8z"/>
	<g>
		<polygon class="st8" points="238.4,685.3 232.3,695.8 218.8,690.3 228.5,706.9 226.2,721 238.3,720.6 250.3,734.9 248,718.1 
			257.8,712.8 244.4,702.8 		"/>
	</g>
</g>
<g>
	
		<linearGradient id="SVGID_13_" gradientUnits="userSpaceOnUse" x1="586.8367" y1="679.8945" x2="631.6934" y2="679.8945" gradientTransform="matrix(-1 0 0 1 802.9013 0)">
		<stop  offset="1.617508e-03" style="stop-color:#FFA68C"/>
		<stop  offset="0.9992" style="stop-color:#871FFF"/>
	</linearGradient>
	<path class="st22" d="M171.2,661.8l5.8-3.4l13.5,5.5l-5.8,3.4L171.2,661.8z M202.7,706.4l5.8-3.4l-2.3-16.8l-5.8,3.4L202.7,706.4z
		 M196.8,674.3l5.8-3.4l-6-17.5l-5.8,3.4L196.8,674.3z M210.2,684.3l5.8-3.4l-13.5-10l-5.8,3.4L210.2,684.3z"/>
	<g>
		<polygon class="st8" points="190.8,656.8 184.7,667.3 171.2,661.8 180.9,678.4 178.6,692.5 190.7,692.1 202.7,706.4 200.4,689.6 
			210.2,684.3 196.8,674.3 		"/>
	</g>
</g>
<g>
	
		<linearGradient id="SVGID_14_" gradientUnits="userSpaceOnUse" x1="632.6622" y1="652.1959" x2="677.5189" y2="652.1959" gradientTransform="matrix(-1 0 0 1 802.9013 0)">
		<stop  offset="1.617508e-03" style="stop-color:#FFA68C"/>
		<stop  offset="0.9992" style="stop-color:#871FFF"/>
	</linearGradient>
	<path class="st23" d="M125.4,634.1l5.8-3.4l13.5,5.5l-5.8,3.4L125.4,634.1z M156.9,678.7l5.8-3.4l-2.3-16.8l-5.8,3.4L156.9,678.7z
		 M150.9,646.6l5.8-3.4l-6-17.5l-5.8,3.4L150.9,646.6z M164.4,656.6l5.8-3.4l-13.5-10l-5.8,3.4L164.4,656.6z"/>
	<g>
		<polygon class="st8" points="144.9,629.1 138.9,639.6 125.4,634.1 135.1,650.7 132.8,664.8 144.8,664.4 156.9,678.7 154.6,661.9 
			164.4,656.6 150.9,646.6 		"/>
	</g>
</g>
<g>
	
		<linearGradient id="SVGID_15_" gradientUnits="userSpaceOnUse" x1="678.1731" y1="627.1735" x2="723.0298" y2="627.1735" gradientTransform="matrix(-1 0 0 1 802.9013 0)">
		<stop  offset="1.617508e-03" style="stop-color:#FFA68C"/>
		<stop  offset="0.9992" style="stop-color:#871FFF"/>
	</linearGradient>
	<path class="st24" d="M79.9,609.1l5.8-3.4l13.5,5.5l-5.8,3.4L79.9,609.1z M111.4,653.7l5.8-3.4l-2.3-16.8l-5.8,3.4L111.4,653.7z
		 M105.4,621.6l5.8-3.4l-6-17.5l-5.8,3.4L105.4,621.6z M118.9,631.6l5.8-3.4l-13.5-10l-5.8,3.4L118.9,631.6z"/>
	<g>
		<polygon class="st8" points="99.4,604.1 93.4,614.6 79.9,609.1 89.6,625.7 87.2,639.7 99.3,639.4 111.4,653.7 109.1,636.9 
			118.9,631.6 105.4,621.6 		"/>
	</g>
</g>
<g>
	
		<linearGradient id="SVGID_16_" gradientUnits="userSpaceOnUse" x1="940.114" y1="328.4735" x2="975.0426" y2="394.8984" gradientTransform="matrix(-0.9999 -1.449850e-02 -1.449850e-02 0.9999 1142.557 13.6674)">
		<stop  offset="8.011200e-04" style="stop-color:#871FFF"/>
		<stop  offset="1" style="stop-color:#80C7F5"/>
	</linearGradient>
	<path class="st25" d="M192.1,381.5l-6.7-3.5l-0.2-3.8l6.7,3.5L192.1,381.5z M190.4,348.7l-6.7-3.5l0.2,3.1l6.7,3.5L190.4,348.7z
		 M207.1,338.2l-6.7-3.5l-16.6,10.6l6.7,3.5L207.1,338.2z M190.6,351.8l-6.7-3.5c-1.1,0.1-2-0.1-2.8-0.5l6.7,3.5
		C188.6,351.7,189.5,351.9,190.6,351.8z M177.7,332.5c-0.5-0.2-1.1-0.1-1.8,0.4c-1.9,1.2-4.2,4.4-5.1,8.1c-0.9,3.8-1.3,7.3-1,13.7
		l6.7,3.5c-0.3-6.4,0.1-9.9,1-13.7c0.9-3.6,3.2-6.9,5.1-8.1c0.7-0.5,1.4-0.6,1.8-0.4L177.7,332.5z M176.5,358.1l-6.7-3.5l-12.5,7.9
		l6.7,3.5L176.5,358.1z M167,393.3c0-1.1,0.3-2.2,0.9-3.3l-3.7-1.9c0,0,0,0,0,0c-0.1-1.2,0.3-2.6,1-3.8l-3.7-1.9c0-0.1,0-0.3,0-0.4
		c-0.1-1.6,0.6-3.5,1.7-5.1l-3.2-1.7c-0.1-0.4-0.2-0.9-0.2-1.5c0-2.8,1.9-6.2,4.3-7.7l-6.7-3.5c-2.4,1.5-4.3,4.9-4.3,7.7
		c0,1.5,0.6,2.6,1.4,3l1.5,0.8c-0.8,1.4-1.3,3-1.2,4.4c0.1,1.3,0.5,2.1,1.3,2.5l1.9,1c-0.3,0.9-0.5,1.8-0.5,2.6
		c0.1,1.1,0.5,1.9,1.2,2.3l1.9,1c-0.2,0.6-0.3,1.3-0.3,1.9c0,1.1,0.4,1.9,1.1,2.2l6.7,3.5C167.4,395.2,167,394.4,167,393.3z"/>
	<g>
		<polygon class="st6" points="207.1,338.2 208.7,370.9 192.1,381.5 191.9,377.7 190.6,351.8 190.4,348.7 		"/>
	</g>
	<g>
		<path class="st8" d="M182.5,336.3c1-0.6,1.9-0.7,2.3,0.2c0.6,1.1-0.5,3.6-0.4,5.7c0.2,6.4,1.8,10,6.1,9.7l1.3,25.9
			c-0.7,1.7-2.8,5.7-7.1,8.4l-14.3,9.1c-1.9,1.2-3.6,0.4-3.6-1.9c0-1.1,0.3-2.2,0.9-3.3c-1.9,1.2-3.6,0.3-3.7-2
			c-0.1-1.2,0.3-2.6,1-3.8c-2,1-3.6,0.1-3.7-2.3c-0.1-1.6,0.6-3.5,1.7-5.1c-1.9,0.6-3.4-0.6-3.4-3.1c0-2.8,1.9-6.2,4.3-7.7l12.5-7.9
			c-0.3-6.4,0.1-9.9,1-13.7C178.3,340.8,180.7,337.5,182.5,336.3z"/>
	</g>
</g>
<g>
	<g id="XMLID_70_">
		<polygon id="XMLID_71_" class="st8" points="256,593.7 255.9,599 223.1,618.1 223.1,612.8 		"/>
	</g>
	<g id="XMLID_66_">
		<polygon id="XMLID_67_" class="st9" points="256,593.7 223.1,612.8 207.7,604 240.6,584.8 		"/>
	</g>
	<path class="st2" d="M223.1,612.8l0,5.3l-15.3-8.8l0-5.3L223.1,612.8z M227.3,588l-8.7-5l0.1,17.9l8.7,5L227.3,588z"/>
	<g id="XMLID_87_">
		<polygon id="XMLID_88_" class="st26" points="242.2,579.4 233.5,574.4 218.7,583 227.3,588 		"/>
	</g>
	<g id="XMLID_85_">
		<polygon id="XMLID_86_" class="st8" points="227.3,588 227.4,605.9 242.3,597.3 242.2,579.4 		"/>
	</g>
	<path class="st9" d="M280.4,484.4l-5.6-3.2c-1.3-0.8-2.9-0.8-4.2,0l-97.3,56.2c-1.3,0.7-2.1,2.1-2.1,3.6l0.2,72.6
		c0,1.5,0.8,2.9,2.1,3.6l5.6,3.3l-0.2-77.4L280.4,484.4z"/>
	<polygon id="XMLID_120_" class="st8" points="280.6,561.9 257,575.5 241.5,584.5 179.1,620.5 178.9,543.1 280.4,484.4 	"/>
	<polygon id="XMLID_1333_" points="184.4,545.1 275,492.8 275.2,559.8 184.6,612.1 	"/>
</g>
<g>
	<g>
		<path class="st6" d="M307.3,560.8l28.3,17.8c0.8,0.5,1.3,1.4,1.3,2.4v42.9c0,1.4-1.1,2.5-2.5,2.5h-0.8c-1.4,0-2.5-1.1-2.5-2.5
			v-37.5l-54.6,27.3v45.5c0,1.4-1.1,2.5-2.5,2.5h-0.7c-1.4,0-2.5-1.1-2.5-2.5v-45.5l-24-13.5v38.1c0,1.4-1.1,2.5-2.5,2.5l0,0
			c-1.4,0-2.5-1.1-2.5-2.5v-40.8c0-1,0.5-1.9,1.4-2.4l61-34.3C305.4,560.3,306.5,560.3,307.3,560.8z"/>
		<polygon class="st8" points="268.6,590.2 268.6,588.7 310.4,579.8 281.2,597 		"/>
		<polygon class="st2" points="268.6,588.7 298.8,571 309.4,577.8 281.2,595.4 		"/>
		<g>
			<circle class="st27" cx="314.8" cy="556.6" r="6.2"/>
			<path class="st28" d="M317,562.3c3.4,0,4.4-4,4.7-5.3c1.2-5.5-7.8-11.2-12.8-4.4c0,0,2.6,2.6,6.5,1.4
				C315.2,554.1,316.1,562.3,317,562.3z"/>
			<path class="st27" d="M330.7,612l-7.6,9.9l15.2,15l-14.5,9.3c-1.3,0.8-3,0.6-4.1-0.5h0c-1.3-1.4-1.1-3.5,0.3-4.7l1.7-1.4
				l-21.2-19.1l0,0l5.6,23.4h-20.2c-1.5,0-2.7-1.2-2.7-2.7l0,0c0-1.5,1.2-2.7,2.7-2.7h3.8l-7.1-27.7L300,602l30.2,6.7L330.7,612"/>
			<path class="st8" d="M282.5,591.3l13.1,6.5l4.1-3.5l0.2,7.7c0,0,4.9,6.8,12.3,7.5c4.5,0.4,17.9-0.8,17.9-0.8l-6.7-41.6
				c-1.2-3.9-4.8-5.3-7.6-5.3c-3.1,0-5.5,0-9.4,3.4c-3.3,3-11.9,16.1-11.9,16.1l-7.8-3.3"/>
			<path class="st27" d="M284.4,576.8c-4.5-1.8-9.5,1.5-9.5,6.4v0c0,2.6,1.5,5,3.9,6.2l3.7,1.9l4.3-13.3L284.4,576.8z"/>
		</g>
		<path class="st9" d="M334,584.5h-19.6c-1.4,0-2.4,1.5-2.4,3.4v10.7c0,1.9,1.1,3.4,2.4,3.4h6.2c0.1,0.9,0.6,1.5,1.3,1.5h0.8
			l0.1,8.5h-7.3h-3.9h-16.6c-1,0-1.9,1.3-1.9,2.9c0,1.6,0.8,2.9,1.9,2.9h16.6l-0.3,11.7L293,639.8v3.7c-0.6,0.5-1,1.3-1,2.2
			c0,1.6,1.3,2.9,2.9,2.9c1.6,0,2.9-1.3,2.9-2.9c0-0.8-0.3-1.5-0.8-2v-2l14.4-7.6v9.6c-0.5,0.5-0.8,1.2-0.8,2c0,1.6,1.3,2.9,2.9,2.9
			c1.6,0,2.9-1.3,2.9-2.9c0-0.7-0.2-1.3-0.6-1.8v-9.8l14.2,7.5v2.1c-0.5,0.5-0.7,1.2-0.7,1.9c0,1.6,1.3,2.9,2.9,2.9
			c1.6,0,2.9-1.3,2.9-2.9c0-0.9-0.4-1.7-1.1-2.3v-3.6l-18.1-10.2l-0.3-11.7h17.9c1,0,1.9-1.3,1.9-2.9c0-1.6-0.8-2.9-1.9-2.9h-7.6
			l0.1-8.5h0.8c0.6,0,1.2-0.7,1.3-1.5h6.2c1.4,0,2.4-1.5,2.4-3.4v-10.7C336.4,586.1,335.3,584.5,334,584.5z"/>
	</g>
</g>
<path class="st29" d="M234.3,499.4"/>
<path class="st8" d="M316.4,553.5c0.1-0.7,0.1-1.3,0.1-1.8c0-1.4-0.2-3.4-1.9-3.6c-1.3-0.1-2.1,0.9-2.3,1.8c0,0,0.9-0.2,1.2-0.3
	c0,0,0.3-0.6,0.9-0.4c0.4,0.1,0.9,0.1,1,2.5c0,0.4,0,1-0.1,1.6c0,0-0.1,0-0.1,0c-1.9,0-3.4,1.5-3.4,3.4c0,0.9,0.4,1.7,1,2.4
	c-0.3,0.2-0.6,0.4-0.9,0.6c-0.8,0.4-2,0.3-2.7,0.3c-0.2-0.6-0.7-1-1.3-1c-0.7,0-1.3,0.6-1.3,1.3c0,0.7,0.6,1.3,1.3,1.3
	c0.5,0,0.9-0.2,1.1-0.6c0.3,0,0.6,0,0.9,0c0.8,0,1.7-0.1,2.4-0.4c0.5-0.2,1-0.5,1.3-0.9c0.5,0.2,1,0.4,1.6,0.4
	c1.9,0,3.4-1.5,3.4-3.4C318.7,555.2,317.7,553.9,316.4,553.5z"/>
<path class="st2" d="M275.4,598.1c0,1.5-2,1.7-4.2,1.3c-2.3-0.3-4.2-1.2-4.2-2.7c0-1.5,2-3.2,4.2-2.7
	C273.9,594.7,275.4,596.6,275.4,598.1z"/>
</svg>
