<?xml version="1.0" encoding="utf-8"?>
<!-- Generator: Adobe Illustrator 24.0.1, SVG Export Plug-In . SVG Version: 6.00 Build 0)  -->
<svg version="1.1" id="Layer_1" xmlns="http://www.w3.org/2000/svg" xmlns:xlink="http://www.w3.org/1999/xlink" x="0px" y="0px"
	 viewBox="0 0 800 800" style="enable-background:new 0 0 800 800;" xml:space="preserve">
<style type="text/css">
	.st0{fill:url(#SVGID_1_);}
	.st1{fill:url(#SVGID_2_);}
	.st2{fill:#FFFFFF;}
	.st3{fill:url(#SVGID_5_);}
	.st4{fill:#80C7F5;}
	.st5{fill:#DCDAED;}
	.st6{fill:none;stroke:#6DCFF6;stroke-width:7.2496;stroke-miterlimit:10;}
	.st7{fill:#CF3293;}
	.st8{clip-path:url(#SVGID_7_);}
	.st9{fill:url(#SVGID_8_);}
	.st10{fill:url(#SVGID_9_);}
	.st11{fill:#871FFF;}
	.st12{fill:url(#SVGID_10_);}
	.st13{fill:#020202;}
	.st14{fill:url(#SVGID_11_);}
	.st15{fill:url(#SVGID_12_);}
	.st16{fill:url(#SVGID_13_);}
	.st17{fill:url(#SVGID_14_);}
	.st18{fill:#362F8F;}
	.st19{fill:url(#SVGID_15_);}
	.st20{fill:url(#SVGID_16_);}
	.st21{fill:#2A3B8E;}
	.st22{fill:url(#SVGID_17_);}
	.st23{fill:url(#SVGID_18_);}
	.st24{fill:url(#SVGID_19_);}
	.st25{fill:url(#SVGID_20_);}
	.st26{fill:url(#SVGID_21_);}
	.st27{fill:url(#SVGID_22_);}
</style>
<linearGradient id="SVGID_1_" gradientUnits="userSpaceOnUse" x1="392.6552" y1="159.0562" x2="392.6552" y2="730.5418">
	<stop  offset="8.011200e-04" style="stop-color:#CD138C"/>
	<stop  offset="1" style="stop-color:#80C7F5"/>
</linearGradient>
<path class="st0" d="M7.2,328.9l307.4-177.4c6.4-3.7,14.3-3.7,20.7,0l307.4,177.4c7.7,4.4,7.7,15.5,0,19.9L335.3,526.2
	c-6.4,3.7-14.3,3.7-20.7,0L7.2,348.8C-0.4,344.4-0.4,333.3,7.2,328.9z M275,618l243.9,140.8c5.1,3,11.3,3,16.4,0L779.3,618
	c6.1-3.5,6.1-12.3,0-15.8L535.4,461.4c-5.1-3-11.3-3-16.4,0L275,602.2C268.9,605.7,268.9,614.4,275,618z"/>
<g>
	<g>
		<linearGradient id="SVGID_2_" gradientUnits="userSpaceOnUse" x1="129.4081" y1="199.1759" x2="416.3838" y2="199.1759">
			<stop  offset="8.011200e-04" style="stop-color:#CD138C"/>
			<stop  offset="1" style="stop-color:#80C7F5"/>
		</linearGradient>
		<path class="st1" d="M129.4,176.3C129.4,176.3,129.4,176.3,129.4,176.3C129.4,176.2,129.4,176.2,129.4,176.3c0-0.1,0-0.1,0-0.1
			c0-0.1,0-0.2,0-0.3c0-0.1,0-0.2,0-0.2c0,0,0,0,0,0c0,0,0,0,0,0c0-0.1,0-0.2,0-0.3c0-0.1,0-0.2,0-0.3c0,0,0,0,0,0c0,0,0,0,0,0
			c0-0.1,0-0.1,0-0.2c0-0.1,0-0.2,0.1-0.3c0,0,0-0.1,0-0.1c0,0,0,0,0-0.1c0,0,0-0.1,0-0.1c0-0.1,0.1-0.2,0.1-0.3
			c0-0.1,0.1-0.2,0.1-0.3c0,0,0,0,0,0c0,0,0,0,0,0c0-0.1,0.1-0.2,0.1-0.3c0-0.1,0.1-0.2,0.1-0.3c0,0,0,0,0-0.1c0,0,0,0,0-0.1
			c0,0,0-0.1,0.1-0.1c0-0.1,0.1-0.2,0.1-0.3c0-0.1,0.1-0.1,0.1-0.2c0,0,0,0,0,0c0,0,0,0,0,0c0-0.1,0.1-0.2,0.1-0.2
			c0-0.1,0.1-0.2,0.1-0.2c0,0,0-0.1,0.1-0.1c0,0,0,0,0,0c0,0,0-0.1,0.1-0.1c0-0.1,0.1-0.2,0.1-0.2c0-0.1,0.1-0.2,0.1-0.2
			c0,0,0,0,0,0c0,0,0,0,0,0c0.1-0.1,0.1-0.2,0.2-0.3c0.1-0.1,0.1-0.2,0.2-0.2c0-0.1,0.1-0.1,0.1-0.2c0,0,0,0,0.1-0.1
			c0.1-0.1,0.2-0.2,0.3-0.4c0,0,0.1-0.1,0.1-0.1c0,0,0,0,0,0c0.1-0.2,0.2-0.3,0.4-0.5c0,0,0,0,0.1-0.1c0,0,0,0,0-0.1
			c0-0.1,0.1-0.1,0.1-0.2c0.1-0.1,0.2-0.2,0.2-0.3c0,0,0.1-0.1,0.1-0.1c0,0,0,0,0,0c0,0,0.1-0.1,0.1-0.1c0.1-0.1,0.2-0.2,0.2-0.2
			c0.1-0.1,0.1-0.1,0.2-0.2c0,0,0,0,0,0c0,0,0,0,0,0c0.1-0.1,0.2-0.2,0.2-0.2c0.1-0.1,0.2-0.2,0.3-0.2c0,0,0,0,0,0c0,0,0,0,0,0
			c0.1-0.1,0.2-0.1,0.3-0.2c0.1-0.1,0.2-0.1,0.3-0.2c0,0,0,0,0,0c0,0,0,0,0,0c0.1,0,0.1-0.1,0.2-0.1c0.1-0.1,0.2-0.1,0.3-0.2
			c0,0,0.1,0,0.1,0c0,0,0,0,0,0c0,0,0,0,0,0c0.1,0,0.1-0.1,0.2-0.1c0.1-0.1,0.2-0.1,0.3-0.2c0,0,6.4-3.7,6.4-3.7l0,0L399.9,14
			c0,0,0,0,0,0l0.4-0.2c0,0,0,0,0,0c0.3-0.2,0.7-0.4,0.7-0.4c0.1,0,0.2-0.1,0.3-0.1c0.1,0,0.2-0.1,0.3-0.1c0.1,0,0.2-0.1,0.3-0.1
			c0.1,0,0.2-0.1,0.3-0.1c0.1,0,0.2-0.1,0.3-0.1c0.1,0,0.2-0.1,0.3-0.1c0,0,0,0,0,0c0,0,0,0,0,0c0,0,0,0,0,0c0.1,0,0.2,0,0.3-0.1
			c0,0,0.1,0,0.1,0c0,0,0.1,0,0.1,0c0,0,0.1,0,0.1,0c0.1,0,0.2,0,0.3,0c0,0,0,0,0,0c0,0,0,0,0,0c0.1,0,0.2,0,0.3,0c0,0,0,0,0,0
			c0.1,0,0.1,0,0.2,0c0.1,0,0.1,0,0.2,0c0,0,0,0,0.1,0c0.1,0,0.2,0,0.2,0c0,0,0.1,0,0.1,0c0,0,0,0,0,0c0.2,0,0.3,0.1,0.5,0.1
			c0,0,0,0,0,0c0,0,0,0,0,0c0.2,0.1,0.4,0.1,0.5,0.2c0,0,10.7,7.2,10.5,7.1c-0.1,0-263.6,149.4-263.6,149.4l0.2,0.1
			c0,0-6.7,3.6-6.8,3.6c-0.1,0.1-0.2,0.1-0.3,0.2c-0.1,0.1-0.2,0.1-0.3,0.2c-0.1,0.1-0.2,0.1-0.3,0.2c0,0-0.1,0.1-0.1,0.1
			c-0.1,0.1-0.3,0.2-0.4,0.3l0,0l0,0c-0.1,0.1-0.3,0.2-0.4,0.4c0,0,0,0-0.1,0c-0.1,0.1-0.3,0.2-0.4,0.4c0,0,0,0-0.1,0.1
			c-0.1,0.1-0.2,0.3-0.4,0.4c0,0,0,0-0.1,0.1c-0.1,0.1-0.2,0.3-0.3,0.4c-0.1,0.1-0.1,0.1-0.2,0.2c-0.1,0.1-0.1,0.2-0.2,0.3
			c-0.1,0.1-0.2,0.2-0.2,0.3c0,0.1-0.1,0.1-0.1,0.2c0,0.1-0.1,0.1-0.1,0.2c-0.1,0.1-0.1,0.2-0.2,0.3c0,0,0,0.1-0.1,0.1
			c-0.1,0.1-0.2,0.3-0.3,0.4c0,0,0,0,0,0c-0.1,0.2-0.2,0.3-0.3,0.5c0,0,0,0,0,0c-0.1,0.2-0.2,0.3-0.2,0.5c0,0,0,0,0,0.1
			c-0.1,0.2-0.1,0.3-0.2,0.5c0,0,0,0,0,0.1c-0.1,0.2-0.1,0.3-0.2,0.5c0,0,0,0,0,0.1c-0.1,0.2-0.1,0.3-0.2,0.5c0,0,0,0,0,0.1
			c0,0.2-0.1,0.3-0.1,0.5c0,0,0,0,0,0.1c0,0.2-0.1,0.3-0.1,0.5c0,0.1,0,0.2,0,0.2c0,0.1,0,0.2,0,0.3c0,0.1,0,0.2,0,0.3
			c0,0.1,0,0.2,0,0.3c0,0.1,0,0.2,0,0.3c0,0.1,0,0.2,0,0.2c0,0,0,0.2,0,0.4l0.6,23.4l4.1,2.2c0,0-0.1,0.1-0.2,0.1l4.5,2.4
			c0,0-1.9,1.1-2,1.2c-0.1,0.1-0.2,0.1-0.3,0.2c-0.1,0.1-0.2,0.1-0.3,0.2c-0.1,0.1-0.2,0.1-0.3,0.2c0,0-0.1,0.1-0.1,0.1
			c-0.1,0.1-0.3,0.2-0.4,0.3l0,0l0,0c-0.1,0.1-0.3,0.2-0.4,0.4c0,0,0,0-0.1,0c-0.1,0.1-0.3,0.2-0.4,0.4c0,0,0,0-0.1,0.1
			c-0.1,0.1-0.2,0.3-0.4,0.4c0,0,0,0-0.1,0.1c-0.1,0.1-0.2,0.3-0.3,0.4c-0.1,0.1-0.1,0.1-0.2,0.2c-0.1,0.1-0.1,0.2-0.2,0.3
			c-0.1,0.1-0.2,0.2-0.2,0.3c0,0.1-0.1,0.1-0.1,0.2c0,0.1-0.1,0.1-0.1,0.2c-0.1,0.1-0.1,0.2-0.2,0.3c0,0,0,0.1-0.1,0.1
			c-0.1,0.1-0.2,0.3-0.3,0.4c0,0,0,0,0,0c-0.1,0.2-0.2,0.3-0.3,0.5c0,0,0,0,0,0c-0.1,0.2-0.2,0.3-0.2,0.5c0,0,0,0,0,0.1
			c-0.1,0.2-0.1,0.3-0.2,0.5c0,0,0,0,0,0.1c-0.1,0.2-0.1,0.3-0.2,0.5c0,0,0,0,0,0.1c-0.1,0.2-0.1,0.3-0.2,0.5c0,0,0,0,0,0.1
			c0,0.2-0.1,0.3-0.1,0.5c0,0,0,0,0,0.1c0,0.2-0.1,0.3-0.1,0.5c0,0.1,0,0.2,0,0.2c0,0.1,0,0.1,0,0.2l3.2,119.5
			c0,0.7,2.3,5.4,1.7,5.1l-1.7-1.5l1,36.1c0,0.7,2.3,5.4,1.7,5.1l-2.3-3c0.4,1,0.4,3.2,0.1,3l-8.2-6c-1.3-1.2-2.6-2.4-2.6-4.3
			l-3.7-157.3c0-0.7-0.1-1.9-0.1-1.9c0-0.1,0-0.2,0-0.2c0-0.1,0-0.1,0-0.2c0,0,0,0,0,0c0,0,0,0,0,0c0,0,0,0,0-0.1c0-0.1,0-0.2,0-0.3
			c0-0.1,0-0.2,0-0.2c0,0,0,0,0,0c0,0,0,0,0,0c0,0,0-0.1,0-0.1l-1-36.6c0-0.7-0.1-1.9-0.1-1.9c0-0.1,0-0.2,0-0.2
			C129.4,176.4,129.4,176.3,129.4,176.3z"/>
	</g>
	<path class="st2" d="M140.4,220.1l-0.5-21.9l-0.4-14.5c-0.1-3.5,2.7-8.1,6.3-10.1L411,20.4c3.6-2.1,6.6-0.9,6.7,2.6l4,172.3
		c0,0,0,0,0,0l0.2,8.6c0,0.6-0.1,1.3-0.3,2l0.4,16.6c0.1,3.5-2.7,8.1-6.3,10.1L150.7,385.9c-3.6,2.1-6.6,0.9-6.7-2.6l-0.5-18.6v0v0
		l-3.8-141.3C139.7,222.4,140,221.2,140.4,220.1z"/>
	<g>
		<linearGradient id="SVGID_5_" gradientUnits="userSpaceOnUse" x1="149.5148" y1="357.3217" x2="560.0038" y2="357.3217">
			<stop  offset="8.011200e-04" style="stop-color:#CD138C"/>
			<stop  offset="1" style="stop-color:#80C7F5"/>
		</linearGradient>
		<path class="st3" d="M149.5,396.7l0.1-10.5l10.2,6.5l2.2-5l255.5-147.5c3.1-1.8,9.2-1.6,12.7,0.5l110.7,63.5v-1.8l16.8,8.2l2.4-1
			l-0.3,7.8c-0.3,1.7-0.9,2.4-2,3L291.9,474.3c-3.1,1.8-8.5,1.8-12.1-0.3l-127.4-73.4C150.5,399.5,149.5,398.1,149.5,396.7
			L149.5,396.7z"/>
	</g>
	<g>
		<path class="st4" d="M292,464l265.8-153.5c3.1-1.8,2.7-4.9-0.9-7L429.6,230c-3.6-2.1-9-2.3-12.1-0.5L151.7,383
			c-3.1,1.8-2.7,4.9,0.9,7L280,463.5C283.5,465.5,289,465.8,292,464z"/>
	</g>
	<g>
		<path class="st5" d="M377.1,142.8c0,0.1,0.1,0.2,0.2,0.1s0.2-0.2,0.2-0.4c0-0.1-0.1-0.2-0.2-0.1
			C377.1,142.5,377,142.6,377.1,142.8z"/>
	</g>
	<path class="st2" d="M422.7,251.4L200.1,378.7c-6.6,3.7-6.8,13.2-0.4,17.2l82.5,51.1c3.1,1.9,7,2,10.2,0.2l220.9-131.4
		c6.7-3.8,6.7-13.4,0-17.3l-80.9-47C429.5,249.7,425.7,249.7,422.7,251.4z"/>
</g>
<line class="st6" x1="208.1" y1="403.9" x2="460.1" y2="255.7"/>
<line class="st6" x1="234.7" y1="418.9" x2="480.2" y2="274.6"/>
<line class="st6" x1="257.8" y1="438.6" x2="509.8" y2="290.4"/>
<g>
	<g>
		<polygon id="SVGID_4_" points="151.6,182.4 155.1,364.5 411.7,217.3 405.9,32.1 		"/>
	</g>
</g>
<polygon points="360.5,61.4 360.5,113.8 405.6,87.8 405.6,35 "/>
<g>
	<path class="st4" d="M165.4,200.7c-0.1-2.5,2.2-5.9,5.2-7.6L388.6,71c3-1.7,5.4-1,5.5,1.6l3.4,132.4c0.1,2.5-3.3,7.2-6.2,8.8
		L175.9,334.5c-3,1.7-5.4,1-5.5-1.6l-0.6-16.6c-0.1-0.3-0.1-0.6-0.2-0.9L165.4,200.7z"/>
</g>
<g>
	<path class="st7" d="M166,217.5l-0.6-16.8c-0.1-2.5,2.2-5.9,5.2-7.6L388.8,63.3c3-1.7,5.4-1,5.5,1.6l0.7,17.6L166,217.5z"/>
</g>
<g>
	<path class="st5" d="M375.1,149.2c0,0.1,0.1,0.2,0.2,0.1c0.1-0.1,0.2-0.2,0.2-0.4c0-0.1-0.1-0.2-0.2-0.1
		C375.2,148.9,375.1,149,375.1,149.2z"/>
</g>
<g>
	<path class="st2" d="M252.8,182.4l73.7-44.8c0.1-0.1,0.2-0.1,0.3-0.1l55.2-31.9c1.4-0.8,2.6,0.1,2.6,1.9l2.2,96.4
		c0,1.9-1.1,4-2.5,4.8l-73.7,42.5c-0.1,0.1-0.2,0.1-0.3,0.1l-55.2,31.9c-1.4,0.8-2.6-0.1-2.6-1.9l-2.2-94
		C250.3,185.3,251.4,183.2,252.8,182.4z"/>
</g>
<g>
	<path class="st4" d="M316.7,190.7l23-13.3c1.3-0.8,2.4-2.9,2.4-4.6l-0.6-26.4c0-1.8-1.2-2.6-2.5-1.8l-23,13.3
		c-1.3,0.8-2.4,2.9-2.4,4.6l0.6,26.4C314.2,190.7,315.3,191.5,316.7,190.7z"/>
</g>
<g>
	<path class="st2" d="M350.9,170.3l23-13.3c1.3-0.8,2.4-2.9,2.4-4.6l-0.6-26.4c0-1.8-1.2-2.6-2.5-1.8l-23,13.3
		c-1.3,0.8-2.4,2.9-2.4,4.6l0.6,26.4C348.5,170.3,349.6,171.1,350.9,170.3z"/>
</g>
<g>
	<path class="st4" d="M319.3,236.8L376,204c1.4-0.8,2.5-3,2.5-4.8l-0.7-30.3c0-1.9-1.2-2.7-2.6-1.9l-56.8,32.7
		c-1.4,0.8-2.5,3-2.5,4.8l0.7,30.3C316.7,236.7,317.9,237.6,319.3,236.8z"/>
</g>
<g>
	<path class="st5" d="M379.4,150.1l2.8-1.7c0.3-0.2,0.5-0.6,0.4-0.9l0,0c-0.1-0.3-0.4-0.4-0.7-0.2l-2.8,1.7
		c-0.3,0.2-0.5,0.6-0.4,0.9l0,0C378.8,150.2,379.1,150.3,379.4,150.1z"/>
</g>
<g>
	<path class="st2" d="M177.4,324.9l62.5-33.6c1.1-0.7,2.1-2.4,2-3.9l-2.2-92.8c0-1.5-1-2.2-2.1-1.5l-62.5,33.6
		c-1.1,0.7-2.1,2.4-2,3.9l2.2,92.8C175.3,324.9,176.2,325.6,177.4,324.9z"/>
</g>
<g>
	<path class="st4" d="M269.3,265l33.8-19.5c3.2-1.8,5.8-6.8,5.7-10.9l-1.2-65.2c-0.1-4.2-2.8-6.1-6-4.2l-33.8,19.5
		c-3.2,1.8-5.8,6.8-5.7,10.9l1.2,65.2C263.4,265,266.1,266.9,269.3,265z"/>
</g>
<g>
	<g>
		<polygon id="SVGID_3_" points="381.1,154.5 347.9,173.7 347.9,134.9 381.1,115.7 		"/>
	</g>
	<g>
		<defs>
			<polygon id="SVGID_6_" points="381.1,154.5 347.9,173.7 347.9,134.9 381.1,115.7 			"/>
		</defs>
		<clipPath id="SVGID_7_">
			<use xlink:href="#SVGID_6_"  style="overflow:visible;"/>
		</clipPath>
		<g class="st8">
			
				<linearGradient id="SVGID_8_" gradientUnits="userSpaceOnUse" x1="118.6573" y1="1378.9247" x2="118.6573" y2="1411.6111" gradientTransform="matrix(0.866 -0.5 0 -1.1547 262.1576 1827.8329)">
				<stop  offset="0" style="stop-color:#CE3191"/>
				<stop  offset="0.9984" style="stop-color:#F7A48B"/>
			</linearGradient>
			<path class="st9" d="M371.1,148.5c3.2,5.9,6.5,13.8,6.5,21.2l-25.4,14.6c0-6.8,3.1-18.5,6.3-28.3
				C361.1,147.6,368.4,143.4,371.1,148.5z"/>
			
				<ellipse transform="matrix(0.3916 -0.9201 0.9201 0.3916 91.0256 422.2599)" class="st2" cx="364.8" cy="142.3" rx="10.1" ry="5.7"/>
			
				<linearGradient id="SVGID_9_" gradientUnits="userSpaceOnUse" x1="118.5058" y1="1378.9261" x2="118.5058" y2="1415.7197" gradientTransform="matrix(0.866 -0.5 0 -1.1547 262.1576 1827.8329)">
				<stop  offset="0" style="stop-color:#CE3191"/>
				<stop  offset="0.9984" style="stop-color:#F7A48B"/>
			</linearGradient>
			<path class="st10" d="M358.9,141.7l11.7-6.8c-1.1-2.2-3.3-2.9-5.9-1.4C362.2,135,360,138.2,358.9,141.7z"/>
		</g>
	</g>
</g>
<g>
	<path class="st4" d="M273.7,220.3c-0.6-0.4-1-1.1-1-2.1l-0.5-20c-0.1-1.9,1.3-4.3,3.1-5.3L303,177c0.9-0.5,1.8-0.6,2.5-0.2
		c0.6,0.4,1,1.1,1,2.1l0.5,20c0.1,1.9-1.3,4.3-3.1,5.3l-27.9,15.9l0,0c-0.5,0.3-1,0.5-1.5,0.5C274.3,220.5,273.9,220.4,273.7,220.3z
		 M303.7,203.7c1.6-0.9,2.8-3,2.8-4.8l-0.5-20c0-0.7-0.3-1.3-0.7-1.6c-0.5-0.3-1.1-0.2-1.9,0.2l-27.9,15.9c-1.6,0.9-2.8,3-2.8,4.8
		l0.5,20c0,0.7,0.3,1.3,0.7,1.6c0.5,0.3,1.1,0.2,1.9-0.2L303.7,203.7z"/>
</g>
<g>
	<g>
		<path class="st7" d="M269.7,216.8l27.9-15.9c1.7-0.9,3-3.2,2.9-5l-0.5-20c0-1.8-1.4-2.5-3-1.6l-27.9,15.9c-1.7,0.9-3,3.2-2.9,5
			l0.5,20C266.7,217,268.1,217.7,269.7,216.8z"/>
	</g>
	<g>
		<path class="st11" d="M297.7,200.9c1.3-0.7,2-2.7,1.3-3.5l-5.9-6.7c-0.7-0.8-2.3,0-3.1,1.6l-6.8,14.7l-5-3.1
			c-1-0.6-2.5,0.2-3.5,1.8l-6,9.7c-0.7,1.1-0.2,2.1,0.7,1.5L297.7,200.9z"/>
	</g>
	<g>
		<path class="st2" d="M271.3,194c0,1.2,0.9,1.6,2,1c1.1-0.6,1.9-2,1.9-3.2c0-1.2-0.9-1.6-2-1C272.1,191.4,271.2,192.8,271.3,194z"
			/>
	</g>
	<g>
		<g>
			<path class="st2" d="M293,193.2c0,0-2.8,1.9-3,2.2c-0.1,0.1-1,0.7-2,1.2l2-4.3c0.8-1.6,2.4-2.5,3.1-1.6l1.9,2.2
				C293.8,193.1,293,193.2,293,193.2z"/>
		</g>
		<g>
			<path class="st2" d="M274.6,205.7c1-1.6,2.6-2.4,3.5-1.8l1.6,1l-2.2,2.6l-5.3,2.2L274.6,205.7z"/>
		</g>
	</g>
</g>
<linearGradient id="SVGID_10_" gradientUnits="userSpaceOnUse" x1="250.9478" y1="215.6247" x2="112.2365" y2="313.2927">
	<stop  offset="8.011200e-04" style="stop-color:#CD138C"/>
	<stop  offset="1" style="stop-color:#80C7F5"/>
</linearGradient>
<path class="st12" d="M194.7,236.4c0-6.5-12.3-10.1-18.8-6.3l-54.5,31.5c-6.5,3.8-11.8,12.1-11.8,18.7v56.8
	c-0.1,5.9,11.7,13.5,18.5,10.5l47.8-36.9c6.5-3.8,11.8-12.1,11.8-18.7L194.7,236.4z M132,283.8c-3.3,1.9-5.9,0.8-5.9-2.5
	s2.7-7.5,5.9-9.3s5.9-0.8,5.9,2.5S135.3,281.9,132,283.8z M222.8,220.8c-1.9-0.4-4.6,0.3-6.4,1.9l-20.1,21.5v32l5.3,5.3
	c1.2,0,21.4-6.7,22-8.2c0.2-0.4,0.3-0.9,0.3-1.3l3.4-48.3C228.2,221.4,224.7,221.1,222.8,220.8z"/>
<path class="st7" d="M196.2,239.5c0-6.5-5.3-8.8-11.8-5l-54.5,31.5c-6.5,3.8-11.8,12.1-11.8,18.7v56.8c0,6.5,5.3,8.8,11.8,5
	l54.5-31.5c6.5-3.8,11.8-12.1,11.8-18.7V239.5z M140.6,288.2c-3.3,1.9-5.9,0.8-5.9-2.5s2.7-7.5,5.9-9.3c3.3-1.9,5.9-0.8,5.9,2.5
	S143.9,286.3,140.6,288.2z M225.9,222.7c-0.7,0-1.6,0.5-2.3,1.3L201,249.2v32l22.6-0.9c1.2,0,2.6-1.3,3.2-2.8
	c0.2-0.4,0.3-0.9,0.3-1.3v-52.1C227,223.3,226.6,222.7,225.9,222.7z"/>
<g>
	<path class="st13" d="M158.8,265.2c2.6-1.5,4-0.5,4,1.7c0,1.8-1,4-2.5,5.5l2.5,3.6l-2.6,1.5l-2.3-3.4l-2.8,1.6v4.7l-2.3,1.3v-13.1
		L158.8,265.2z M155.1,273.6l3.1-1.8c1.3-0.8,2.2-2.1,2.2-3.4c0-1.2-0.8-1.5-2.1-0.7l-3.3,1.9V273.6z"/>
	<path class="st13" d="M168,262.1v3.1l5.8-3.4v2.2l-5.8,3.4v3.4l6.4-3.7v2.2l-8.7,5v-13.1l8.7-5v2.2L168,262.1z"/>
	<path class="st13" d="M185.7,254c-0.2-1.5-1.4-1.7-3.1-0.7c-2.5,1.5-3.8,4-3.8,6.9c0,2.9,1.4,3.9,3.8,2.5c1.8-1,3-2.7,3.3-4.7
		l2.3-0.8c-0.5,3-2.5,5.9-5.6,7.7c-3.8,2.2-6,0.9-6-3.2c0-4.2,2.3-8.2,6.2-10.5c2.9-1.7,4.9-1.3,5.4,1.1L185.7,254z"/>
</g>
<g>
	<g>
		<g>
			<polygon class="st7" points="453.4,528.3 519.7,490.1 453.8,452.1 386.9,490.2 			"/>
		</g>
		<g>
			<g>
				<linearGradient id="SVGID_11_" gradientUnits="userSpaceOnUse" x1="519.5908" y1="490.0187" x2="519.5908" y2="490.0187">
					<stop  offset="0" style="stop-color:#CF3293"/>
					<stop  offset="0" style="stop-color:#871FFF"/>
					<stop  offset="1" style="stop-color:#80C7F5"/>
				</linearGradient>
				<path class="st14" d="M519.6,490"/>
			</g>
			<g>
				<linearGradient id="SVGID_12_" gradientUnits="userSpaceOnUse" x1="379.6257" y1="499.9871" x2="516.5201" y2="560.5554">
					<stop  offset="8.011200e-04" style="stop-color:#CD138C"/>
					<stop  offset="1" style="stop-color:#80C7F5"/>
				</linearGradient>
				<polygon class="st15" points="453.4,528.3 453.3,528.3 453.3,604.4 519.6,566.1 519.6,490.1 				"/>
			</g>
		</g>
		<g>
			<g>
				<linearGradient id="SVGID_13_" gradientUnits="userSpaceOnUse" x1="368.8202" y1="524.4094" x2="505.7146" y2="584.9777">
					<stop  offset="8.011200e-04" style="stop-color:#CD138C"/>
					<stop  offset="1" style="stop-color:#80C7F5"/>
				</linearGradient>
				<polygon class="st16" points="453.4,528.3 386.9,490.2 386.9,564 454.6,604.5 454.6,527.7 				"/>
			</g>
			<g>
				<linearGradient id="SVGID_14_" gradientUnits="userSpaceOnUse" x1="386.9258" y1="490.2346" x2="386.9258" y2="490.2346">
					<stop  offset="0" style="stop-color:#CF3293"/>
					<stop  offset="0" style="stop-color:#871FFF"/>
					<stop  offset="1" style="stop-color:#80C7F5"/>
				</linearGradient>
				<path class="st17" d="M386.9,490.2"/>
			</g>
		</g>
	</g>
</g>
<g>
	<path class="st18" d="M511.4,506.2c0,0-19.5,26.9-34.9,19.8l23.1-27.9L511.4,506.2z"/>
</g>
<g>
	<g>
		<path d="M475.2,449.7c0,0-2.2,12,0.5,21.2c2.7,9.2,15.4,17.8,15.4,17.8l14-8.6l-18.3-16.5l-6.8-31.4L475.2,449.7z"/>
	</g>
</g>
<g>
	<path d="M503.4,554.9c1-7.8,1.9-18.9,2.2-26c0.4-7.9-0.8-15.8-5.2-22.5c-6.5-10-18-18.8-28.8-23.7c-6.9-3.1-13,7.1-6,10.3l0,0
		c9.4,4.3,21.1,12.2,25.9,21.7l-7.8,40.1"/>
	<path class="st11" d="M483.7,554.7l-1.6,8.3h25.5c2.3,0,4.1-1.8,4.1-4.1l0,0c0-2.3-1.8-4.1-4.1-4.1h-4.2"/>
</g>
<g>
	<path class="st11" d="M517.1,540.3c2.4,4.2,4,7.1,4,7.1l18.3-9.8c2.3-1.3,3.1-4.3,1.6-6.5l0,0c-1.2-1.8-3.6-2.5-5.6-1.5l-3.5,1.7"
		/>
	<path d="M531.9,531.2c-5.5-7.8-14.3-19.6-20.5-25c-6-5.3-10.3-6.4-18.1-4.1c-9.4,2.7-17.2,3.2-25.7-2.5c-6.4-4.3-12.3,6-6,10.3
		c8,5.3,16.9,7.4,26.4,5.8c3.2-0.5,6.2-1.7,9.4-2.4c1.3-0.3,1.2-0.4,1.9-0.3c2,0.3,12.1,17.3,17.8,27.3"/>
</g>
<g>
	<path class="st4" d="M478.2,476.6c20.4,12.9,35.1,19.8,33.2,29.6c0,0-9.5-6.8-17.5-2.3c-4.2,2.3-6.6,8.1-7.3,10.9
		c-1.8,7.7-8,12.8-10.1,11.2c-7.5-5.7-29.8-9.6-30.4-27.4c-0.5-15.1,1.6-16.9,1.6-16.9S467.2,491.1,478.2,476.6z"/>
</g>
<g>
	<g>
		<linearGradient id="SVGID_15_" gradientUnits="userSpaceOnUse" x1="464.1499" y1="482.7616" x2="494.4341" y2="499.9349">
			<stop  offset="0" style="stop-color:#CF3293"/>
			<stop  offset="0" style="stop-color:#D03392"/>
			<stop  offset="0.9797" style="stop-color:#FFA68C"/>
		</linearGradient>
		<path class="st19" d="M457.7,497.8l0-0.9l1.2,0.5l0.3-0.6l30.3-17.5c0.4-0.2,1-0.2,1.4,0.1l13.1,7.5v-0.2l2.4,1v1h0
			c0,0.1-0.1,0.2-0.2,0.3l-31.6,18.2c-0.4,0.2-1,0.2-1.4-0.1l-15.1-8.7C457.8,498.1,457.7,498,457.7,497.8L457.7,497.8z"/>
	</g>
	<g>
		<path class="st4" d="M474.6,506.1l31.6-18.2c0.4-0.2,0.3-0.6-0.1-0.8l-15.1-8.7c-0.4-0.2-1.1-0.3-1.4-0.1l-31.6,18.2
			c-0.4,0.2-0.3,0.6,0.1,0.8l15.1,8.7C473.6,506.3,474.2,506.3,474.6,506.1z"/>
	</g>
	<g>
		<path class="st2" d="M472.4,494.3l7.6-4.4c0.1-0.1,0.1-0.1,0-0.2l-3.7-2.1c-0.1-0.1-0.3-0.1-0.3,0l-7.6,4.4
			c-0.1,0.1-0.1,0.1,0,0.2l3.7,2.1C472.2,494.4,472.4,494.4,472.4,494.3z"/>
	</g>
	<g>
		<linearGradient id="SVGID_16_" gradientUnits="userSpaceOnUse" x1="469.4149" y1="473.4771" x2="499.6991" y2="490.6504">
			<stop  offset="0" style="stop-color:#CF3293"/>
			<stop  offset="0" style="stop-color:#D03392"/>
			<stop  offset="0.9797" style="stop-color:#FFA68C"/>
		</linearGradient>
		<path class="st20" d="M475.4,485.6c0.1-0.8,0.8-1.8,1.5-2.2l31.3-17.8c0.3-0.2,0.5-0.2,0.7-0.1l0,0l0,0c0.1,0,0.1,0.1,0.2,0.1
			l1,1.1l-0.9-0.1l-3,19.3c-0.1,0.8-0.8,1.8-1.5,2.2l-29.6,16.8l-1,1.1l-0.1,0.3c-0.6,0.1-2-0.9-2-0.9L475.4,485.6z"/>
	</g>
	<g>
		<path class="st7" d="M474.5,507l31.3-17.8c0.7-0.4,1.3-1.4,1.5-2.2l3-19.5c0.1-0.8-0.3-1.2-1-0.8L478,484.5
			c-0.7,0.4-1.3,1.4-1.5,2.2l-3,19.5C473.4,507,473.8,507.4,474.5,507z"/>
	</g>
	<g>
		<path class="st2" d="M491.1,488.1c-0.2,1,0.8,1.3,2.1,0.5c1.3-0.7,2.5-2.2,2.7-3.2c0.2-1-0.8-1.3-2.1-0.5
			C492.5,485.7,491.3,487.1,491.1,488.1z"/>
	</g>
</g>
<g>
	<g>
		<path d="M431.6,461.6c0,0-2.7,14.5-2,21.1c0.6,6.5,14.2,20.2,22.8,27.1c4.1,3.3,10.2,2,12.6-2.6l0,0c2.1-3.9,0.8-8.8-3-11.1
			c-7.4-4.5-18.5-13.9-18.7-15.6c-0.7-6,0.2-13.4,0.2-13.4L431.6,461.6z"/>
	</g>
</g>
<g>
	<polygon class="st21" points="478.5,463.5 472.8,463.7 478.4,467.3 	"/>
</g>
<path class="st2" d="M486.5,453.9c-1.3-9.2-2.4-15.4-7-24.7c-1.7-3.5-6-5.1-13.5-2.6c-7.4,2.4-32.2,10.6-32.7,13.8
	c-2.1,12.6-3.4,23.1-5.2,37.7c-0.3,2.8,15.9,3.3,15.9,1c0-3.8,0-4.1,0-4.1l3.7,6.7c1,0.6,2,1.1,2.9,1.6c0.3,0.2,0.7,0.3,1,0.5
	c0.1,0.1,0.3,0.1,0.4,0.2c0.5,0.2,1.1,0.5,1.6,0.6c0.1,0,0.2,0.1,0.3,0.1c0.5,0.2,1,0.4,1.5,0.5c0.1,0,0.2,0.1,0.2,0.1l0,0
	c15.5,4.5,22.6-8.7,22.6-8.7c0.2-1.2,0.3-6.7,0.4-12.7C479.3,463.2,487.1,458.1,486.5,453.9z"/>
<g>
	<linearGradient id="SVGID_17_" gradientUnits="userSpaceOnUse" x1="443.9725" y1="418.6568" x2="477.5658" y2="418.6568">
		<stop  offset="0" style="stop-color:#871FFF"/>
		<stop  offset="0.9821" style="stop-color:#80C7F5"/>
	</linearGradient>
	<path class="st22" d="M476.6,411.4c1.2,3.2,1.5,7.1-0.6,9.8c-0.4,0.5-0.8,0.9-1.3,1.4c-1.1,1.2-1.8,1.8-2.5,3.3
		c-0.4,0.8,0.3,3.8-1.3,3.8c-0.7,0-1.7-3.4-3.1-3.6c0,0-22.6,10.7-23.7,9.1c-1.5-2.2,3.8-26.8,4.3-29.4c0.7-3.3,17,0.9,19.6-1.1
		c0.5-0.4,1.1-0.7,1.6-1.2l0,0c0.7-0.7,1.3-2.1,2.4-1.6c0.9,0.4,1.2,2,1.5,2.8C474.6,407,475.8,409.1,476.6,411.4z"/>
</g>
<circle class="st2" cx="462.4" cy="415" r="10.4"/>
<linearGradient id="SVGID_18_" gradientUnits="userSpaceOnUse" x1="438.2153" y1="422.9549" x2="475.1546" y2="422.9549">
	<stop  offset="0" style="stop-color:#871FFF"/>
	<stop  offset="0.9821" style="stop-color:#80C7F5"/>
</linearGradient>
<path class="st23" d="M472.8,401.9L472.8,401.9c-0.4-0.8-1-1.6-1.6-2.4c-1.4-1.6-3.1-3-6.5-4.2c-7.4-2.7-14.8-0.8-17.8,5.2l0,0
	c0,0,0,0,0,0.1c-0.4,0.8-0.7,1.7-1,2.7c-2.3,6.4-8,22.2-7.6,29.7c0.2,3.4,4.9,7.8,11.3,12.1c2.6,1.8,4.8,4.1,6.5,6.2
	c1.3,1.7,4.1,0.5,3.8-1.6c-1.4-10.2-8.7-14.4-9.5-21.1c-0.9-7.9,7.9-19.9,8.4-20.6c1.8-1.7,4.2-1.4,6.6-0.8c8.2,5.3,8.4,9.2,8.4,9.2
	C477.5,407.1,472.8,401.9,472.8,401.9z"/>
<g>
	<g>
		<g>
			<g>
				<g>
					<path class="st11" d="M370.2,594.1c0.1,0,0.1,0.1,0.2,0.1l0,0l18,12.6c5,3.5,12.4,2.6,16.5-2.1c4.1-4.7,3.3-11.3-1.7-14.9
						l-18-12.6l0,0c-0.1,0-0.1-0.1-0.2-0.1c-5-3.5-12.4-2.6-16.5,2.1C364.4,584,365.2,590.6,370.2,594.1z"/>
				</g>
			</g>
		</g>
		<g>
			<g>
				<g>
					<polygon class="st4" points="393.7,582.9 474.4,639.8 467.8,650.7 379,588.6 					"/>
				</g>
			</g>
		</g>
		<g>
			<g>
				<g>
					<path class="st4" d="M467.8,650.7c-4.3,3.7,0.9,5.1-5.9,7.9l-78.5-55c-5.3-6.6-7.7-12.5-4.5-15.1L467.8,650.7z"/>
				</g>
			</g>
		</g>
		<g>
			<g>
				<g>
					<path class="st2" d="M378.6,600.3c0.1,0,0.1,0.1,0.2,0.1l0,0l8.1,5.6c-6.2-4.8,6.3-22.9,16-16.7c0.1,0,0.1,0.1,0.2,0.1l0,0
						l-9.2-6.5l0,0c-0.1,0-0.1-0.1-0.2-0.1C384.2,576.6,369.1,593.9,378.6,600.3z"/>
				</g>
			</g>
		</g>
		<g>
			<g>
				<g>
					<path class="st2" d="M462.5,659.2l28.4,3.3l-15.1-21.9C468,638.1,456.9,655.8,462.5,659.2z"/>
				</g>
			</g>
		</g>
		<g>
			<g>
				<g>
					<path class="st7" d="M492.2,663.4l-13.7-2.4c0,0-1.6-0.5-0.1-3c1.5-2.5-0.6-2.3,1.4-4.9c2-2.6,3-2.6,3-2.6L492.2,663.4z"/>
				</g>
			</g>
		</g>
	</g>
</g>
<g>
	<g>
		<linearGradient id="SVGID_19_" gradientUnits="userSpaceOnUse" x1="511.0143" y1="618.9911" x2="693.3326" y2="618.9911">
			<stop  offset="8.011200e-04" style="stop-color:#CD138C"/>
			<stop  offset="1" style="stop-color:#80C7F5"/>
		</linearGradient>
		<path class="st24" d="M692.6,606.9c0.1-0.1,0.2-0.3,0.3-0.4c0,0,0-0.1,0.1-0.1c0.1-0.2,0.2-0.4,0.2-0.6c0,0,0,0,0,0
			c0.1-0.4,0.2-0.8,0.1-1.2c0,0,0,0,0,0l0-9.3l-11.2,1L633,567.8c-3.5-2-9.5-1.8-13.6,0.5L518,626.7c0.9-2.5,1.8-5.1,1.8-5.1
			l-8.9,2.1l0.2,8.7c-0.4,1.6,0.3,3.1,2.2,4.2l57.9,33.6c1.7,1,4.1,1.4,6.6,1.3v0c1.8-0.1,3.7-0.5,5.4-1.1c0.6-0.2,1.1-0.5,1.6-0.8
			L690,609.2c0.3-0.2,0.5-0.3,0.8-0.5c0.1-0.1,0.1-0.1,0.2-0.2c0.2-0.1,0.3-0.2,0.5-0.4c0.1-0.1,0.1-0.1,0.2-0.2
			c0.1-0.1,0.3-0.2,0.4-0.4c0.1-0.1,0.1-0.1,0.2-0.2c0.1-0.1,0.2-0.3,0.3-0.4C692.5,607,692.6,607,692.6,606.9z"/>
		<path class="st2" d="M571.4,660.4l-57.9-33.6c-3.5-2-3-5.5,1-7.8l105.1-60.5c4-2.3,10.1-2.6,13.6-0.5l57.9,33.6c3.5,2,3,5.5-1,7.8
			l-105.1,60.5C580.9,662.2,574.8,662.5,571.4,660.4z"/>
		<path class="st7" d="M571.4,658.6L513.4,625c-3.5-2-3-5.5,1-7.8l105.1-60.5c4-2.3,10.1-2.6,13.6-0.5l57.9,33.6c3.5,2,3,5.5-1,7.8
			L584.9,658C580.9,660.3,574.8,660.6,571.4,658.6z"/>
		<path class="st2" d="M622.8,562.1l-88.4,50.8c-2.1,1.2-2.1,4.2,0,5.3l53.6,31c1,0.6,2.1,0.6,3.1,0l88.4-50.8
			c2.1-1.2,2.1-4.2,0-5.3l-53.6-31C624.9,561.5,623.7,561.5,622.8,562.1z"/>
	</g>
	<g>
		<g>
			<polygon class="st7" points="630.7,543.6 648,533.6 630.8,523.7 613.4,533.6 			"/>
			<linearGradient id="SVGID_20_" gradientUnits="userSpaceOnUse" x1="650.8506" y1="593.4304" x2="612.1985" y2="534.6793">
				<stop  offset="0" style="stop-color:#CF3293"/>
				<stop  offset="0" style="stop-color:#D03392"/>
				<stop  offset="0.9797" style="stop-color:#FFA68C"/>
			</linearGradient>
			<polygon class="st25" points="648,533.6 630.7,543.6 613.4,533.6 613.4,592.1 630.7,602 648,592.1 648,555.4 			"/>
			<polygon class="st11" points="608.7,579.1 625.9,569.1 608.8,559.2 591.5,569.2 			"/>
			<linearGradient id="SVGID_21_" gradientUnits="userSpaceOnUse" x1="625.4161" y1="609.1541" x2="592.6907" y2="566.6369">
				<stop  offset="0" style="stop-color:#CF3293"/>
				<stop  offset="0" style="stop-color:#871FFF"/>
				<stop  offset="1" style="stop-color:#80C7F5"/>
			</linearGradient>
			<polygon class="st26" points="608.7,579.1 591.6,569.2 591.6,605.8 608.7,615.8 625.8,605.8 625.8,569.2 			"/>
			<polygon class="st4" points="585.6,606.7 602.9,596.8 585.7,586.9 568.3,596.8 			"/>
			<linearGradient id="SVGID_22_" gradientUnits="userSpaceOnUse" x1="604.5767" y1="622.4296" x2="569.0168" y2="595.6309">
				<stop  offset="8.011200e-04" style="stop-color:#CD138C"/>
				<stop  offset="1" style="stop-color:#80C7F5"/>
			</linearGradient>
			<polygon class="st27" points="585.9,629.8 602.9,620 602.9,596.8 585.7,606.7 568.3,596.8 568.3,619.5 585.6,629.8 585.6,630 
				585.7,629.9 585.9,630 			"/>
		</g>
	</g>
</g>
</svg>
