<?xml version="1.0" encoding="utf-8"?>
<!-- Generator: Adobe Illustrator 24.0.1, SVG Export Plug-In . SVG Version: 6.00 Build 0)  -->
<svg version="1.1" id="Layer_1" xmlns="http://www.w3.org/2000/svg" xmlns:xlink="http://www.w3.org/1999/xlink" x="0px" y="0px"
	 viewBox="0 0 600 600" style="enable-background:new 0 0 600 600;" xml:space="preserve">
<style type="text/css">
	.st0{fill:url(#SVGID_1_);}
	.st1{fill:#871FFF;}
	.st2{fill:url(#SVGID_2_);}
	.st3{fill:#FFFFFF;}
	.st4{fill:url(#SVGID_3_);}
	.st5{fill:#80C7F5;}
	.st6{fill:url(#SVGID_4_);}
	.st7{fill:url(#SVGID_5_);}
	.st8{fill:url(#SVGID_6_);}
	.st9{fill:url(#SVGID_7_);}
	.st10{fill:url(#SVGID_8_);}
	.st11{fill:#FFA68C;}
	.st12{fill:url(#SVGID_9_);}
	.st13{fill:url(#SVGID_10_);}
	.st14{fill:url(#SVGID_11_);}
	.st15{fill:none;stroke:#FFFFFF;stroke-width:0.5;stroke-miterlimit:10;}
</style>
<linearGradient id="SVGID_1_" gradientUnits="userSpaceOnUse" x1="296.3292" y1="79.2453" x2="296.3292" y2="584.9056">
	<stop  offset="0.1242" style="stop-color:#871FFF"/>
	<stop  offset="1" style="stop-color:#FFA68C"/>
</linearGradient>
<path class="st0" d="M19.6,299.5l183.4-105.9c4.1-2.4,9.1-2.4,13.2,0l183.4,105.9c5.9,3.4,5.9,11.9,0,15.3L216.3,420.7
	c-4.1,2.4-9.1,2.4-13.2,0L19.6,314.8C13.8,311.4,13.8,302.9,19.6,299.5z M192.9,477.5l183.4,105.9c4.1,2.4,9.1,2.4,13.2,0L573,477.5
	c5.9-3.4,5.9-11.9,0-15.3L389.6,356.3c-4.1-2.4-9.1-2.4-13.2,0L192.9,462.2C187,465.6,187,474.1,192.9,477.5z"/>
<polygon points="267.9,44.5 143.3,111.7 149,337.2 264.2,285.2 "/>
<path class="st1" d="M155.7,106.4l-0.1,249.5L272,288.7l0.1-249.5L155.7,106.4z M164,331.9l0.1-220.7l8.3-4.8v9.6l83.1-48v-9.6
	l8.3-4.8l-0.1,220.7L164,331.9z"/>
<linearGradient id="SVGID_2_" gradientUnits="userSpaceOnUse" x1="1613.3079" y1="250.5045" x2="1613.3079" y2="572.4509" gradientTransform="matrix(1 0 0 -1 -1407.7347 602)">
	<stop  offset="8.011200e-04" style="stop-color:#871FFF"/>
	<stop  offset="1" style="stop-color:#80C7F5"/>
</linearGradient>
<path class="st2" d="M272.1,39.1l-13.8-8c-1.7-1-3.9-1-5.6,0l-108,62.4c-3.5,2-5.6,5.7-5.6,9.7v243l16.6,9.6l0.1-249.5L272.1,39.1z"
	/>
<g>
	<g>
		<polygon class="st3" points="260.6,126.2 260.7,154.6 248.3,176 211.2,197.4 198.9,190.3 198.8,161.9 		"/>
		<path class="st1" d="M248.3,143.1l0,24.2c0,1.2-0.7,2.4-1.7,3l-33.3,19.3c-0.9,0.5-2-0.1-2-1.2l0-24.2c0-1.2,0.7-2.4,1.7-3
			l33.3-19.3C247.2,141.4,248.3,142.1,248.3,143.1z"/>
		<ellipse transform="matrix(0.3916 -0.9202 0.9202 0.3916 -1.6782 317.5447)" class="st3" cx="239.3" cy="160" rx="6.3" ry="3.6"/>
		
			<ellipse transform="matrix(0.3916 -0.9202 0.9202 0.3916 -20.8743 307.6617)" class="st3" cx="222.2" cy="169.6" rx="6.3" ry="3.6"/>
		
			<linearGradient id="SVGID_3_" gradientUnits="userSpaceOnUse" x1="-142.767" y1="273.3426" x2="-142.767" y2="234.2878" gradientTransform="matrix(-1 0 0 1 73.5963 0)">
			<stop  offset="8.011200e-04" style="stop-color:#871FFF"/>
			<stop  offset="1" style="stop-color:#FFA68C"/>
		</linearGradient>
		<path class="st4" d="M190.7,245.8c-3.5,2.1,35.3-20.5,35.3-20.5c2.2-1.8,5.4-2,8.9,0c6.8,3.9,12.3,14.4,12.3,23.4
			c0,5.5-2,9.2-5.1,10.3l-35.3,20.5c-2.2,1.8-5.4,2-8.9,0c-6.8-3.9-12.3-14.4-12.3-23.4C185.6,250.7,187.6,247,190.7,245.8z"/>
		<path class="st5" d="M239.2,190.4c0.2,0,0.3,0,0.5-0.1c21.2-5.3,29.5-19.1,32.3-23.6c0.6-1,0.3-2.3-0.7-2.9
			c-1-0.6-2.3-0.3-2.9,0.7c-9.1,15.1-21.3,19.6-29.7,21.7c-1.1,0.3-1.8,1.4-1.5,2.5C237.4,189.7,238.2,190.4,239.2,190.4z"/>
		<path class="st5" d="M273.5,168.7c0.6,0,1.1-0.1,1.7-0.2c3.8-0.9,6.1-4.8,5.1-8.5c-0.3-1.1-1.4-1.8-2.5-1.5
			c-1.1,0.3-1.8,1.4-1.5,2.5c0.4,1.5-0.6,3.1-2.1,3.5c-1.5,0.4-3.1-0.6-3.5-2.1c-0.4-1.5,0.6-3.1,2.1-3.5c1.1-0.3,1.8-1.4,1.5-2.5
			c-0.3-1.1-1.4-1.8-2.5-1.5c-3.8,0.9-6.1,4.8-5.1,8.5C267.5,166.6,270.3,168.7,273.5,168.7z"/>
		<polygon class="st3" points="248.3,176 248.3,218.9 211.2,240.1 211.2,197.4 		"/>
		<polygon class="st1" points="186.9,183.4 186.5,226 211.2,240.1 211.2,197.4 		"/>
		<path class="st1" d="M186.5,226l0,9.4c0,3,1.6,5.7,4.2,7.2l16.4,9.5c2.6,1.5,5.7,1.5,8.3,0l28.8-16.6c2.6-1.5,4.2-4.2,4.2-7.2
			l0-9.4l-37.1,21.2L186.5,226z"/>
		<path class="st5" d="M225.6,235.4c0.8,0,1.6-0.5,2-1.4c0.4-1.1-0.1-2.3-1.2-2.7c-16.5-6.2-23.2-17.3-26.8-25.2
			c-0.5-1-1.7-1.5-2.8-1c-1,0.5-1.5,1.7-1,2.8c2.2,4.9,9.1,19.9,29.1,27.4C225.1,235.4,225.4,235.4,225.6,235.4z"/>
		<path class="st5" d="M230.6,242.7c1,0,2-0.2,2.9-0.6c1-0.5,1.5-1.7,1-2.8c-0.5-1-1.7-1.5-2.8-1c-1.4,0.7-3.2,0-3.8-1.4
			c-0.7-1.4,0-3.2,1.4-3.8c0.7-0.3,1.5-0.3,2.2-0.1c0.7,0.3,1.3,0.8,1.6,1.5c0.5,1,1.7,1.5,2.8,1c1-0.5,1.5-1.7,1-2.8
			c-0.8-1.7-2.2-3-3.9-3.7c-1.8-0.7-3.7-0.6-5.4,0.2c-3.5,1.6-5.1,5.8-3.5,9.3C225.4,241.2,227.9,242.7,230.6,242.7z"/>
		
			<ellipse transform="matrix(0.9202 -0.3916 0.3916 0.9202 -87.252 98.4832)" class="st5" cx="197.9" cy="263.2" rx="10.7" ry="18.8"/>
		
			<linearGradient id="SVGID_4_" gradientUnits="userSpaceOnUse" x1="-171.4818" y1="111.315" x2="-105.2479" y2="177.549" gradientTransform="matrix(-1 0 0 1 73.5963 0)">
			<stop  offset="8.011200e-04" style="stop-color:#871FFF"/>
			<stop  offset="1" style="stop-color:#FFA68C"/>
		</linearGradient>
		<path class="st6" d="M260.6,126.2L240,114.3c-2.6-1.5-5.7-1.5-8.3,0l-51.3,29.6c-3.9,2.2-6.3,6.4-6.3,10.8l0,16.5
			c0,3,1.6,5.7,4.2,7.2l20.6,11.9l-0.1-23.6c0-3,1.6-5.7,4.2-7.2L260.6,126.2z"/>
		<path class="st5" d="M217.6,138.3L217.6,138.3c2.2,0,4-1.8,4-4v-16.7c0-2.2-1.8-4-4-4h0c-2.2,0-4,1.8-4,4v16.7
			C213.6,136.5,215.4,138.3,217.6,138.3z"/>
	</g>
</g>
<g id="shape_2">
	<g>
		<g>
			<linearGradient id="SVGID_5_" gradientUnits="userSpaceOnUse" x1="294.3092" y1="25.4909" x2="294.3092" y2="106.7389">
				<stop  offset="0" style="stop-color:#F9F9F9"/>
				<stop  offset="1" style="stop-color:#FFFFFF"/>
			</linearGradient>
			<path class="st7" d="M323,37.3c-7.6-7.6-17.7-11.8-28.5-11.8c-22.2,0-40.2,18.1-40.2,40.3c0,7.1,1.8,14,5.4,20.1l-5.7,20.8
				l21.4-5.6c5.9,3.2,12.5,4.9,19.2,4.9c22.2,0,40.3-18.1,40.3-40.3C334.8,55,330.6,44.9,323,37.3z"/>
		</g>
	</g>
</g>
<linearGradient id="SVGID_6_" gradientUnits="userSpaceOnUse" x1="289.5521" y1="34.3574" x2="289.5521" y2="113.5103">
	<stop  offset="0" style="stop-color:#F9F9F9"/>
	<stop  offset="1" style="stop-color:#FFFFFF"/>
</linearGradient>
<polygon class="st8" points="253.9,106.7 262.9,113.5 325.3,38.7 319.7,34.4 "/>
<g>
	<g id="shape_2_1_">
		<g>
			<g>
				<linearGradient id="SVGID_7_" gradientUnits="userSpaceOnUse" x1="262.8694" y1="72.8862" x2="343.7859" y2="72.8862">
					<stop  offset="0" style="stop-color:#20B038"/>
					<stop  offset="1" style="stop-color:#20B038"/>
				</linearGradient>
				<path class="st9" d="M332,44.1c-7.6-7.6-17.7-11.8-28.5-11.8c-22.2,0-40.2,18.1-40.2,40.3c0,7.1,1.8,14,5.4,20.1l-5.7,20.8
					l21.4-5.6c5.9,3.2,12.5,4.9,19.2,4.9c22.2,0,40.3-18.1,40.3-40.3C343.8,61.8,339.6,51.7,332,44.1z"/>
			</g>
		</g>
	</g>
	<g>
		<path class="st3" d="M293.3,55.2c-0.8-1.7-1.5-1.7-2.3-1.7c-0.6,0-1.3,0-1.9,0s-1.8,0.3-2.7,1.3c-0.9,1-3.5,3.4-3.5,8.4
			s3.6,9.7,4.1,10.4c0.5,0.7,7,11.2,17.2,15.2c8.5,3.4,10.2,2.7,12.1,2.5c1.8-0.2,6-2.4,6.8-4.8c0.8-2.4,0.8-4.4,0.6-4.8
			c-0.3-0.4-0.9-0.7-1.9-1.2s-6-2.9-6.9-3.3c-0.9-0.3-1.6-0.5-2.3,0.5c-0.7,1-2.6,3.3-3.2,3.9c-0.6,0.7-1.2,0.8-2.2,0.3
			s-4.3-1.5-8.1-5c-3-2.8-5-6-5.6-7.1c-0.6-1-0.1-1.5,0.4-2c0.4-0.4,1-1.2,1.5-1.8s0.7-1,1-1.7c0.3-0.7,0.2-1.3-0.1-1.8
			C296.2,62.2,294.2,57.2,293.3,55.2z"/>
	</g>
</g>
<g>
	<path class="st3" d="M260.7,398.8h50.4c-0.7-39.2-7.5-60.5-21.1-74.1c-5-5-13.7-4.6-17,0.3C262.5,340.4,259.8,368.5,260.7,398.8z"
		/>
	
		<linearGradient id="SVGID_8_" gradientUnits="userSpaceOnUse" x1="430.7314" y1="370.047" x2="488.8775" y2="300.9984" gradientTransform="matrix(-1 0 0 1 773.601 0)">
		<stop  offset="0.3604" style="stop-color:#871FFF"/>
		<stop  offset="1" style="stop-color:#FFA68C"/>
	</linearGradient>
	<path class="st10" d="M321.2,367l-0.8-23.3c-0.1-2.2,1.7-4.1,3.9-4.2l10.7-0.4c2.2-0.1,4.1,1.7,4.2,3.9l0.8,23.3
		c0.1,2.2-1.7,4.1-3.9,4.2l-10.7,0.4C323.1,371,321.2,369.2,321.2,367z"/>
	<circle cx="282.3" cy="311.8" r="6.9"/>
	<path d="M287.1,375.5l43.9-13.8c4.4-1.4,6.9-6.1,5.5-10.5l0,0c-1.4-4.4-6.1-6.9-10.5-5.5l-36.7,11.5l-1.7-6.3l-14.5,5.8l2.5,12
		C276.6,374,282,377.1,287.1,375.5z"/>
	<g>
		<g>
			<path class="st1" d="M358.1,483c-1.2-2.8-4.5-4.1-7.3-3l-10.1,4.2l-29.4-85.4h-50.4l-0.9,35.5l-30.1,42.5l25.7,19.9
				c2.5,1.9,6.1,1.6,8.2-0.9h0c2.2-2.5,1.8-6.4-0.8-8.5l-5.7-4.7l30.2-39.1l1.5-25l32.2,86.2l34-14.3
				C358,489.2,359.3,485.9,358.1,483z"/>
		</g>
	</g>
	<g>
		<path class="st11" d="M282.6,304.2c-4.1,0-7.5,3.3-7.5,7.5c0,1.1,0.2,2.1,0.6,3c2.3-1,4.2-2.7,5.5-4.8c0.9,0.2,1.9,0.3,2.9,0.3
			c1.9,0,3.8-0.5,5.4-1.2C288.4,306.1,285.7,304.2,282.6,304.2z"/>
	</g>
</g>
<g>
	
		<linearGradient id="SVGID_9_" gradientUnits="userSpaceOnUse" x1="236.1898" y1="285.1348" x2="302.5836" y2="348.3437" gradientTransform="matrix(-1 0 0 1 773.601 0)">
		<stop  offset="0" style="stop-color:#871FFF"/>
		<stop  offset="0.9984" style="stop-color:#80C7F5"/>
	</linearGradient>
	<circle class="st12" cx="529.3" cy="292.9" r="7.4"/>
	<g>
		<path d="M464.7,347.3l4.6,9.6c0.8,1.6,2.6,2.2,4.2,1.5l46.7-22.6l-7.4-15.3l-46.7,22.6C464.6,343.9,464,345.7,464.7,347.3z"/>
		<path class="st5" d="M549,384.6v99.5h-36.3c-3.8,0-6.9-3.1-6.9-6.9v0c0-3.8,3.1-6.9,6.9-6.9h8v-85.6H549z M517.7,384.6v81.9h-36.3
			c-3.8,0-6.9-3.1-6.9-6.9l0,0c0-3.8,3.1-6.9,6.9-6.9h8v-68.1H517.7z"/>
		<path class="st3" d="M549,384.6c0-40.1-10.7-66.3-20.5-76.1c-4.2-4.3-14.6-4.9-19.2,1.1c-8.7,11.2-19.1,32.6-19.9,75.1H549z"/>
		<path d="M500.7,385.9L500.7,385.9c3.8,2.3,8.8,1.2,11.3-2.6l15.2-22.9c0.9-1.4,1.6-2.9,1.9-4.6l3.7-19l-16.4-6.8l-3.4,21.5
			L498,374.1C495.4,378.1,496.6,383.5,500.7,385.9z"/>
	</g>
	
		<linearGradient id="SVGID_10_" gradientUnits="userSpaceOnUse" x1="236.0727" y1="286.3625" x2="304.7741" y2="351.7682" gradientTransform="matrix(-1 0 0 1 773.601 0)">
		<stop  offset="0" style="stop-color:#871FFF"/>
		<stop  offset="0.9984" style="stop-color:#80C7F5"/>
	</linearGradient>
	<path class="st13" d="M465.5,368.6l-11-28c-0.6-1.4,0.1-3,1.6-3.6l14.8-5.8c1.4-0.6,3,0.1,3.6,1.6l11,28c0.6,1.4-0.1,3-1.6,3.6
		l-14.8,5.8C467.7,370.7,466.1,370,465.5,368.6z"/>
	<circle cx="519.2" cy="294.1" r="7.8"/>
	
		<linearGradient id="SVGID_11_" gradientUnits="userSpaceOnUse" x1="240.7688" y1="280.3251" x2="307.1626" y2="343.534" gradientTransform="matrix(-1 0 0 1 773.601 0)">
		<stop  offset="0" style="stop-color:#871FFF"/>
		<stop  offset="0.9984" style="stop-color:#80C7F5"/>
	</linearGradient>
	<path class="st14" d="M510.8,292.2c0.8-3.9,4.2-6.8,8.3-6.8c4.7,0,8.5,3.8,8.5,8.5c0,1.1-0.2,2.2-0.6,3.2c-1.5-1.2-2.7-3-3.1-5
		H510.8z"/>
</g>
<path class="st3" d="M514.2,296l4.5,3.1l-2.2,2.3c0,0-4.1-1.1-5.2-5.8L514.2,296z"/>
<line class="st15" x1="524.5" y1="294.1" x2="517.6" y2="299.7"/>
<line class="st15" x1="524.3" y1="293.4" x2="513.5" y2="296.5"/>
<path class="st3" d="M286.7,312.8l-4.2,3.5l2.4,2.1c0,0,3.9-1.5,4.6-6.3L286.7,312.8z"/>
<polygon class="st3" points="283.5,317 283.8,316.6 278.4,312.9 278,313.3 "/>
<polygon class="st3" points="287.4,313.5 287.6,313 280.2,311.2 279.7,311.7 "/>
<g>
	<g>
		<path class="st3" d="M349.4,446.3c-3.2,0-4.9,1.4-5.3,3.5c0.5-0.8,1.7-1.3,3-1.3c2.3,0,3.6,1.5,3.6,3.5c0,2.4-1.9,3.8-4.1,3.8
			c-2.5,0-4.4-1.6-4.4-4.9c0-3.7,2.4-6.3,7.1-6.4L349.4,446.3z M348.8,452c0-1.2-0.8-2-2.1-2c-1.3,0-2.4,0.7-2.4,2
			c0,1.2,0.9,2,2.3,2C347.8,454,348.8,453.3,348.8,452z"/>
		<path class="st3" d="M365,446.4h-5.4v2.8h5v1.9h-5v4.5h-2v-11.1h7.4V446.4z"/>
		<path class="st3" d="M374,452.1h-5.7c0.1,1.1,0.7,2,2.1,2c1,0,1.6-0.5,1.9-1.1l1.7,0.6c-0.6,1.2-1.8,2.1-3.6,2.1
			c-2.5,0-3.9-1.7-3.9-4.2c0-2.7,1.5-4.3,3.9-4.3c2.3,0,3.7,1.5,3.7,3.8V452.1z M368.3,450.7h3.8c0-1.4-0.7-1.9-1.8-1.9
			C369.1,448.8,368.5,449.6,368.3,450.7z"/>
		<path class="st3" d="M383.6,452.1h-5.7c0.1,1.1,0.7,2,2.1,2c1,0,1.6-0.5,1.9-1.1l1.7,0.6c-0.6,1.2-1.8,2.1-3.6,2.1
			c-2.5,0-3.9-1.7-3.9-4.2c0-2.7,1.5-4.3,3.9-4.3c2.3,0,3.7,1.5,3.7,3.8V452.1z M377.9,450.7h3.8c0-1.4-0.7-1.9-1.8-1.9
			C378.7,448.8,378,449.6,377.9,450.7z"/>
		<path class="st3" d="M390.5,449h-2v3.9c0,0.4,0,1.1,1.2,1.1c0.2,0,0.6,0,0.9-0.1l0.1,1.6c-0.5,0.1-1.1,0.2-1.6,0.2
			c-1.5,0-2.5-0.5-2.5-2.3V449h-1.5v-1.7h1.5v-1.9l1.9-0.5v2.4h2V449z"/>
		<path class="st3" d="M408.7,444.5v11.1h-1.9v-8.4l-2.6,7.6h-2.2l-2.6-7.6v8.4h-1.9v-11.1h2.9l2.8,8.2l2.8-8.2H408.7z"/>
		<path class="st3" d="M413.9,446.1h-2.1v-1.9h2.1V446.1z M413.8,455.6h-1.9v-8.3h1.9V455.6z"/>
		<path class="st3" d="M418.7,447.3v1.3c0.4-0.8,1.2-1.4,2.5-1.4c1.8,0,2.8,1.1,2.8,2.8v5.6h-1.9v-5c0-1.1-0.5-1.8-1.5-1.8
			c-1.2,0-1.9,0.9-1.9,2v4.7h-1.9v-8.3H418.7z"/>
		<path class="st3" d="M428.9,446.1h-2.1v-1.9h2.1V446.1z M428.8,455.6h-1.9v-8.3h1.9V455.6z"/>
		<path class="st3" d="M433.7,447.3v1.3c0.4-0.8,1.1-1.4,2.3-1.4c1.3,0,2,0.6,2.3,1.7c0.5-1,1.3-1.7,2.7-1.7c1.8,0,2.7,1.1,2.7,2.8
			v5.7h-1.9v-5c0-1.1-0.5-1.7-1.5-1.7c-1.1,0-1.7,0.8-1.7,1.9v4.8h-1.9v-5c0-1.1-0.5-1.7-1.4-1.7c-1.1,0-1.7,0.8-1.7,1.9v4.8h-1.9
			v-8.3H433.7z"/>
		<path class="st3" d="M451.8,455.6v-1.3c-0.4,0.8-1.2,1.4-2.5,1.4c-1.7,0-2.7-1.1-2.7-2.8v-5.6h1.9v4.9c0,1.1,0.5,1.8,1.4,1.8
			c1.1,0,1.8-0.9,1.8-2v-4.7h1.9v8.3H451.8z"/>
		<path class="st3" d="M458.6,447.3v1.3c0.4-0.8,1.1-1.4,2.3-1.4c1.3,0,2,0.6,2.3,1.7c0.5-1,1.3-1.7,2.7-1.7c1.8,0,2.7,1.1,2.7,2.8
			v5.7h-1.9v-5c0-1.1-0.5-1.7-1.5-1.7c-1.1,0-1.7,0.8-1.7,1.9v4.8h-1.9v-5c0-1.1-0.5-1.7-1.4-1.7c-1.1,0-1.7,0.8-1.7,1.9v4.8h-1.9
			v-8.3H458.6z"/>
	</g>
</g>
<g>
	<rect x="354.5" y="403.3" width="88.7" height="8.8"/>
	<rect x="340.2" y="385.6" width="7.8" height="44"/>
	<rect x="460.2" y="385.6" width="7.8" height="44"/>
	<polygon points="367.4,419 348,407.8 367.3,396.5 	"/>
	<polygon points="438.4,396.5 457.9,407.7 438.5,419 	"/>
</g>
</svg>
