<?xml version="1.0" encoding="utf-8"?>
<!-- Generator: Adobe Illustrator 24.1.0, SVG Export Plug-In . SVG Version: 6.00 Build 0)  -->
<svg version="1.1" id="Layer_1" xmlns="http://www.w3.org/2000/svg" xmlns:xlink="http://www.w3.org/1999/xlink" x="0px" y="0px"
	 viewBox="0 0 800 800" style="enable-background:new 0 0 800 800;" xml:space="preserve">
<style type="text/css">
	.st0{display:none;}
	.st1{display:inline;fill:#871FFF;}
	.st2{fill:url(#SVGID_1_);}
	.st3{fill:#FFFFFF;}
	.st4{fill:#80C7F5;}
	.st5{clip-path:url(#SVGID_4_);}
	.st6{fill:#D6219C;}
	.st7{fill:#FFA68C;}
	.st8{fill:none;stroke:#FFFFFF;stroke-width:2;stroke-linecap:round;stroke-linejoin:round;stroke-miterlimit:10;}
	.st9{fill:url(#SVGID_5_);}
	.st10{clip-path:url(#SVGID_7_);fill:#FFFFFF;}
</style>
<g id="Layer_1_1_" class="st0">
	<rect x="-7.2" y="-7.2" class="st1" width="814.5" height="814.5"/>
</g>
<g id="Layer_2_1_">
</g>
<g>
	<path d="M636.3,503.2v-268c0-8.6-7-15.6-15.6-15.6H191.2c-8.6,0-15.6,7-15.6,15.6v268.1L636.3,503.2L636.3,503.2z"/>
</g>
<linearGradient id="SVGID_1_" gradientUnits="userSpaceOnUse" x1="-686.7" y1="-742.15" x2="-436.9" y2="-742.15" gradientTransform="matrix(0 1 -1 0 -335.5 924.5)">
	<stop  offset="0" style="stop-color:#D6219C"/>
	<stop  offset="1" style="stop-color:#FFA68C"/>
</linearGradient>
<polygon class="st2" points="192.6,487.6 192.6,237.8 620.7,237.8 620.7,487.6 "/>
<path class="st3" d="M537.4,456.4H277.1c-5.7,0-10.4-4.7-10.4-10.4V287.2c0-5.7,4.7-10.4,10.4-10.4h260.2c5.7,0,10.4,4.7,10.4,10.4
	V446C547.8,451.7,543.1,456.4,537.4,456.4z"/>
<path d="M547.8,292.4v-5.2c0-5.7-4.7-10.4-10.4-10.4H277.1c-5.7,0-10.4,4.7-10.4,10.4v5.2H547.8z"/>
<circle class="st3" cx="278.4" cy="285.9" r="3.9"/>
<circle class="st3" cx="288.8" cy="285.9" r="3.9"/>
<circle class="st3" cx="299.3" cy="285.9" r="3.9"/>
<polygon class="st4" points="537.4,302.8 537.4,446 275.8,446 275.8,302.8 "/>
<g>
	<path d="M311.6,594.3H61.8c-10.2,0-18.8-7.3-20.9-16.9c-0.3,1.5-0.5,3-0.5,4.5v1.4c0,11.8,9.6,21.4,21.4,21.4H307L311.6,594.3z"/>
	<path d="M771.4,577.4c-2.1,9.6-10.7,16.9-20.9,16.9H501.3l4.2,10.4h245c11.8,0,21.4-9.6,21.4-21.4v-1.4
		C771.9,580.3,771.7,578.8,771.4,577.4z"/>
</g>
<polygon points="102.8,568.3 102.8,573.5 154.8,573.5 191.2,547.5 191.2,542.3 154.8,568.3 "/>
<polygon points="180.8,568.3 180.8,573.5 232.9,573.5 258.9,547.5 258.9,542.3 232.9,568.3 "/>
<polygon points="319,573.5 261.5,573.5 261.5,568.3 322,568.3 "/>
<polygon points="162.6,532.9 162.6,537.1 204.3,537.1 227.7,518.8 227.7,514.7 204.3,532.9 "/>
<polygon points="225.1,532.9 225.1,537.1 266.7,537.1 282.3,521.4 282.3,517.3 266.7,532.9 "/>
<polygon points="290.1,532.9 290.1,537.1 331.8,537.1 339.6,521.4 339.6,517.3 331.8,532.9 "/>
<polygon points="711.7,568.3 711.7,573.5 659.7,573.5 623.3,547.5 623.3,542.3 659.7,568.3 "/>
<polygon points="633.7,568.3 633.7,573.5 581.6,573.5 555.6,547.5 555.6,542.3 581.6,568.3 "/>
<polygon points="494.5,573.5 553,573.5 553,568.3 492.5,568.3 "/>
<polygon points="651.9,532.9 651.9,537.1 610.2,537.1 586.8,518.8 586.8,514.7 610.2,532.9 "/>
<polygon points="589.4,532.9 589.4,537.1 547.8,537.1 532.2,521.4 532.2,517.3 547.8,532.9 "/>
<polygon points="524.4,532.9 524.4,537.1 482.7,537.1 474.9,521.4 474.9,517.3 482.7,532.9 "/>
<g>
	<g>
		<rect id="SVGID_3_" x="275.8" y="302.4" width="261.6" height="11"/>
	</g>
	<g>
		<g>
			<defs>
				<rect id="SVGID_2_" x="275.8" y="302.4" width="261.6" height="11"/>
			</defs>
			<clipPath id="SVGID_4_">
				<use xlink:href="#SVGID_2_"  style="overflow:visible;"/>
			</clipPath>
			<rect x="245.5" y="283.1" class="st5" width="322.3" height="49.6"/>
		</g>
	</g>
</g>
<g>
	<rect x="291.2" y="330" class="st6" width="143.5" height="88.7"/>
	<rect x="291.2" y="330" class="st7" width="143.5" height="82.9"/>
	<line class="st8" x1="301" y1="345.4" x2="329.8" y2="345.4"/>
	<line class="st8" x1="334.6" y1="345.4" x2="346.1" y2="345.4"/>
	<line class="st8" x1="351.5" y1="345.4" x2="363" y2="345.4"/>
	<line class="st8" x1="368.6" y1="345.4" x2="393.6" y2="345.4"/>
	<line class="st8" x1="301" y1="353.4" x2="329.8" y2="353.4"/>
	<line class="st8" x1="334.6" y1="353.4" x2="346.1" y2="353.4"/>
	<line class="st8" x1="351.5" y1="353.4" x2="381.1" y2="353.4"/>
	<line class="st8" x1="301" y1="374.2" x2="310.6" y2="374.2"/>
	<line class="st8" x1="315.4" y1="374.2" x2="346.1" y2="374.2"/>
	<line class="st8" x1="351.5" y1="374.2" x2="363" y2="374.2"/>
	<line class="st8" x1="345.7" y1="381.4" x2="357.2" y2="381.4"/>
	<line class="st8" x1="301" y1="381.4" x2="340.3" y2="381.4"/>
	<path class="st3" d="M326.1,412.9h-22.4v-2.1c0-1.9,1.5-3.4,3.4-3.4h15.6c1.9,0,3.4,1.5,3.4,3.4V412.9z"/>
	<path class="st3" d="M352.3,412.4h-20.2c-0.4,0-0.8-0.4-0.8-0.8l0,0c0-0.4,0.4-0.8,0.8-0.8h20.2c0.4,0,0.8,0.4,0.8,0.8l0,0
		C353.1,412,352.7,412.4,352.3,412.4z"/>
	<path class="st3" d="M341.9,410.8l-19.8-3.8c-0.4-0.1-0.7-0.5-0.6-1v0c0.1-0.4,0.5-0.7,1-0.6l19.8,3.8c0.4,0.1,0.7,0.5,0.6,1l0,0
		C342.8,410.6,342.3,410.8,341.9,410.8z"/>
</g>
<path d="M453,609.4h36.2c0-38.7-32.2-77.1-69.9-84.7c8.5-4.8,14.3-14,14.3-24.5c0-15.5-12.6-28.1-28.1-28.1
	c-15.5,0-28.1,12.6-28.1,28.1c0,10.6,5.9,19.8,14.5,24.6c-37.8,7.9-71.3,46.2-71.3,84.6h37.8c0,0,2.4-26.3,17.7-42.8
	c-6.4,12-10.4,27.5-10.4,42.8H444c0-16.1-4.3-32.3-11.3-44.5C449.1,581.2,453,609.4,453,609.4z"/>
<g>
	<linearGradient id="SVGID_5_" gradientUnits="userSpaceOnUse" x1="482.8936" y1="423.8968" x2="458.1335" y2="375.2453">
		<stop  offset="0" style="stop-color:#D6219C"/>
		<stop  offset="1" style="stop-color:#FFA68C"/>
	</linearGradient>
	<path class="st9" d="M491.1,390.4c0-11.9-5.5-21.5-20-21.6v0c-14.5,0-20,9.7-20,21.6c0,6.2-0.9,11.4-2.2,15.6
		c-2.4,7.7,3.2,15.6,11.2,15.6l22.1,0c8,0,13.6-7.9,11.2-15.6C492,401.8,491.1,396.7,491.1,390.4z"/>
	<path class="st3" d="M479.6,386.4l-1-3.3l-0.5,3.4h-4.7l-0.5-1.9l-0.8,1.9h-2.5l-0.4-2.6l-1.1,2.6h-6.4c-1.5,2-2.5,4.6-2.5,7.4
		c0,6.7,5.4,12.2,12,12.2c6.6,0,12-5.4,12-12.2c0-2.6-0.8-5-2.1-6.9C480.8,386.8,479.6,386.4,479.6,386.4z"/>
	<path class="st3" d="M533.1,445.8c-4.6-18.7-21.2-34.5-40.2-34.5l-40.9,0c-15.7,0-29,5.3-36,19l13.2,15.6"/>
	<g>
		<defs>
			<rect id="SVGID_6_" x="352.8" y="314.2" width="238.6" height="131.6"/>
		</defs>
		<clipPath id="SVGID_7_">
			<use xlink:href="#SVGID_6_"  style="overflow:visible;"/>
		</clipPath>
		<path class="st10" d="M419.5,376.4l36.3,43.5L425,439.8l-34.7-37.9c-7.9-8.6-6.5-22.1,3-28.9l0,0
			C401.5,367.1,413,368.6,419.5,376.4z"/>
	</g>
</g>
</svg>
