<?xml version="1.0" encoding="utf-8"?>
<!-- Generator: Adobe Illustrator 24.0.1, SVG Export Plug-In . SVG Version: 6.00 Build 0)  -->
<svg version="1.1" id="Layer_1" xmlns="http://www.w3.org/2000/svg" xmlns:xlink="http://www.w3.org/1999/xlink" x="0px" y="0px"
	 viewBox="0 0 500 500" style="enable-background:new 0 0 500 500;" xml:space="preserve">
<style type="text/css">
	.st0{fill:url(#SVGID_1_);}
	.st1{fill:#F8A58D;}
	.st2{fill:url(#SVGID_2_);}
	.st3{fill-rule:evenodd;clip-rule:evenodd;fill:#F79CA6;}
	.st4{fill-rule:evenodd;clip-rule:evenodd;fill:url(#SVGID_3_);}
	.st5{fill:#FFFFFF;}
	.st6{opacity:0.3;fill:#FFFFFF;}
	.st7{fill:#231F20;}
	.st8{fill:#6DCFF6;}
	.st9{fill-rule:evenodd;clip-rule:evenodd;fill:url(#SVGID_4_);}
	.st10{fill:#CD138C;}
	.st11{fill-rule:evenodd;clip-rule:evenodd;fill:url(#SVGID_5_);}
	.st12{fill-rule:evenodd;clip-rule:evenodd;fill:url(#SVGID_6_);}
</style>
<linearGradient id="SVGID_1_" gradientUnits="userSpaceOnUse" x1="27.9039" y1="365.1498" x2="490.5223" y2="365.1498">
	<stop  offset="0" style="stop-color:#D6219C"/>
	<stop  offset="1" style="stop-color:#80C7F5"/>
</linearGradient>
<path class="st0" d="M217.4,468.2c-6.1,1.5-10.8,5.3-10.8,5.3c-10.5,10.6-18.4,7-18.4,7c-9.8-3.6-15.9-0.5-15.9-0.5
	c-16.5,2.2-19.7-3.8-19.7-3.8c-2.5-5.7-8.3-6.4-8.3-6.4c-17.2-6.1-14-15.8-14-15.8c1.9-7-2.9-10.5-2.9-10.5
	c-3.8-8.6,2.9-13.3,2.9-13.3c7.6-3.2,7.9-8.6,7.9-8.6c4.8-12.4,17.5-10.8,17.5-10.8c7.6,0,12.4-3.5,12.4-3.5c13-5.4,21.3,0,21.3,0
	c3.2,3.2,11.1,4.1,11.1,4.1c12.2-0.5,15.9,5.1,16.9,7.2V468.2z M14.6,500.7V363.8c0-11.8,9.6-21.4,21.4-21.4h59
	c11.8,0,21.4,9.6,21.4,21.4v136.9H14.6z M217.4,501.1l-0.9-249.4c0-12.3,10.1-22.4,22.4-22.4h61.8c12.3,0,22.4,10.1,22.4,22.4
	l0.9,249.4H217.4z M339.5,446.6c-5.6-2.8-10.4-4.6-10.7-3.9c-0.4,0.7,3.9,3.6,9.4,6.4c5.6,2.8,10.4,4.6,10.7,3.9
	C349.3,452.3,345.1,449.4,339.5,446.6z M339.5,451.1c-5.6-2.8-10.4-4.6-10.7-3.9c-0.4,0.7,3.9,3.6,9.4,6.4
	c5.6,2.8,10.4,4.6,10.7,3.9C349.3,456.8,345.1,453.9,339.5,451.1z M339.5,455.8c-5.6-2.8-10.4-4.6-10.7-3.9
	c-0.4,0.7,3.9,3.6,9.4,6.4c5.6,2.8,10.4,4.6,10.7,3.9C349.3,461.5,345.1,458.6,339.5,455.8z M339.5,460.9
	c-5.6-2.8-10.4-4.6-10.7-3.9c-0.4,0.7,3.9,3.6,9.4,6.4c5.6,2.8,10.4,4.6,10.7,3.9C349.3,466.6,345.1,463.7,339.5,460.9z
	 M340.1,466.2c-5.6-2.8-10.4-4.6-10.7-3.9c-0.4,0.7,3.9,3.6,9.4,6.4c5.6,2.8,10.4,4.6,10.7,3.9C349.9,471.8,345.6,469,340.1,466.2z
	 M340.1,470.9c-5.6-2.8-10.4-4.6-10.7-3.9c-0.4,0.7,3.9,3.6,9.4,6.4c5.6,2.8,10.4,4.6,10.7,3.9C349.9,476.6,345.6,473.7,340.1,470.9
	z M340.1,475.9c-5.6-2.8-10.4-4.6-10.7-3.9c-0.4,0.7,3.9,3.6,9.4,6.4c5.6,2.8,10.4,4.6,10.7,3.9
	C349.9,481.6,345.6,478.8,340.1,475.9z M348.8,452.8c0.4,0.7,5.1-1,10.7-3.9c5.6-2.8,9.8-5.7,9.4-6.4c-0.4-0.7-5.1,1-10.7,3.9
	C352.7,449.3,348.4,452.1,348.8,452.8z M348.8,457.3c0.4,0.7,5.1-1,10.7-3.9c5.6-2.8,9.8-5.7,9.4-6.4c-0.4-0.7-5.1,1-10.7,3.9
	C352.7,453.8,348.4,456.6,348.8,457.3z M348.8,462.1c0.4,0.7,5.1-1,10.7-3.9c5.6-2.8,9.8-5.7,9.4-6.4c-0.4-0.7-5.1,1-10.7,3.9
	C352.7,458.5,348.4,461.4,348.8,462.1z M348.8,467.1c0.4,0.7,5.1-1,10.7-3.9c5.6-2.8,9.8-5.7,9.4-6.4c-0.4-0.7-5.1,1-10.7,3.9
	C352.7,463.6,348.4,466.4,348.8,467.1z M348.3,472.4c0.4,0.7,5.1-1,10.7-3.9c5.6-2.8,9.8-5.7,9.4-6.4c-0.4-0.7-5.1,1-10.7,3.9
	C352.1,468.9,347.9,471.7,348.3,472.4z M348.3,477.1c0.4,0.7,5.1-1,10.7-3.9c5.6-2.8,9.8-5.7,9.4-6.4c-0.4-0.7-5.1,1-10.7,3.9
	C352.1,473.6,347.9,476.5,348.3,477.1z M348.3,482.2c0.4,0.7,5.1-1,10.7-3.9c5.6-2.8,9.8-5.7,9.4-6.4c-0.4-0.7-5.1,1-10.7,3.9
	C352.1,478.6,347.9,481.5,348.3,482.2z M378.6,501.1V311.6c0-12.3,10.1-22.4,22.4-22.4h61.8c12.3,0,22.4,10.1,22.4,22.4v189.4H378.6
	z"/>
<path class="st1" d="M55.1,282.7l-8.4,31.6c9,2.2,18.8,2.2,26.3-3.1l-8.3-29.8L55.1,282.7z"/>
<circle cx="59" cy="265.4" r="3.3"/>
<path d="M87.8,261.8c0,0-1-0.8-3-0.1c0,0-0.3,0.1-1.1,0.6c-0.7,0.5-1.3,1.3-1.3,1.3l-4.4,8.3l-3.9,0.1l-1.1,7.2l5.5-0.4
	c3.2,0.4,4.7-3,4.7-3l5.1-10C89.1,264.5,88.9,262.8,87.8,261.8z"/>
<linearGradient id="SVGID_2_" gradientUnits="userSpaceOnUse" x1="31.6598" y1="271.7052" x2="95.5148" y2="241.0809">
	<stop  offset="0" style="stop-color:#F8A58D"/>
	<stop  offset="1" style="stop-color:#CD138C"/>
</linearGradient>
<path class="st2" d="M60.6,261.8c-1.2-0.7-3.1-0.6-4,0.4c-0.2-1.3-0.8-2.5-2.2-2.8c-1-0.2-2,0.4-2.2,1.3c-0.9,0.2-1.6-0.6-2.5-0.8
	c-0.7-0.2-1.5-0.2-2.2,0c-1.2,0.3-2.5,1.4-2.9,2.6c-1.7-1.6-4.8-1.7-6.8-0.8c-1.8,0.8-4.4,3.1-3.7,5.4c0,2.5,3.1,4.1,5.4,4.3
	c3.3,0.2,6.4-1.6,7.8-4.6c1.1,1,3,1.1,4.3,0.5c0.7-0.3,1.3-0.8,1.7-1.3c0.5-0.6,1.2-2.8,2.2-2.5c-0.6,0.6-0.3,2.6,0.1,3.2
	c0.5,1,0.5-1.8,1.6-1.8c0.6,0.2,4.2,0.3,5-1.3C62.2,263.7,61.8,262.5,60.6,261.8z"/>
<rect x="44.3" y="277.8" transform="matrix(0.8404 0.542 -0.542 0.8404 159.8056 19.5048)" width="4.9" height="6.4"/>
<path class="st1" d="M72.9,340.4L72.9,340.4c0,1.1-0.9,2-2.1,2l-9.4-0.1l-1.7-36.1l-4.6,33.9l1.9,0c1,0,1.8,0.8,1.8,1.8l0,0
	c0,1-0.8,1.8-1.8,1.8l-10.3-0.1l5.4-46.3l16.1,0.2l0.2,40.7l2.7,0.1C72.1,338.3,72.9,339.3,72.9,340.4z"/>
<path class="st3" d="M82.7,265.8l4.7-2.6c1.1-0.6,1.5-1.9,0.9-3l-0.5-1c-0.1-0.2-0.4-0.3-0.6-0.2c-0.2,0.1-0.3,0.4-0.2,0.6l0.5,1
	c0.3,0.7,0.1,1.5-0.5,1.8l-4.7,2.6c-0.6,0.4-1.5,0.1-1.8-0.5l-1.5-2.8c-0.1-0.2-0.4-0.3-0.6-0.2c-0.2,0.1-0.3,0.4-0.2,0.6l1.5,2.8
	C80.3,266,81.6,266.4,82.7,265.8z"/>
<g>
	<linearGradient id="SVGID_3_" gradientUnits="userSpaceOnUse" x1="65.361" y1="254.0216" x2="100.1573" y2="254.0216">
		<stop  offset="0" style="stop-color:#F8A58D"/>
		<stop  offset="1" style="stop-color:#CD138C"/>
	</linearGradient>
	<path class="st4" d="M66.5,267l33.7-9.9l-8.5-16l-26.3,23.2L66.5,267z"/>
</g>
<path d="M87,261.7c0,0,1,2.3-1.5,3.6c0,0-1.8,1-3.7-0.4L87,261.7z"/>
<rect x="35.9" y="371.9" class="st5" width="10.8" height="10.8"/>
<rect x="60.1" y="371.9" class="st5" width="10.8" height="10.8"/>
<rect x="84.2" y="371.9" class="st5" width="10.8" height="10.8"/>
<rect x="35.9" y="394.8" class="st5" width="10.8" height="10.8"/>
<rect x="60.1" y="394.8" class="st5" width="10.8" height="10.8"/>
<rect x="84.2" y="394.8" class="st5" width="10.8" height="10.8"/>
<rect x="35.9" y="417.1" class="st5" width="10.8" height="10.8"/>
<rect x="60.1" y="417.1" class="st5" width="10.8" height="10.8"/>
<rect x="84.2" y="417.1" class="st5" width="10.8" height="10.8"/>
<rect x="49.2" y="457.8" class="st5" width="32.4" height="41.7"/>
<path class="st6" d="M226.9,186.6c0-7.9-6.4-14.2-14.2-14.2c-3.5,0-6.6,1.3-9,3.3c-4-7-11.4-11.7-20-11.7c-4,0-7.7,1-11,2.8
	c-7.2-13.7-21.5-23.1-38.1-23.1c-23.7,0-43,19.2-43,43L226.9,186.6z M111.8,111.6c0-17.3-13.9-31.3-31.1-31.3
	c-12.1,0-22.6,7-27.7,17.2c-2-1-4.2-1.5-6.6-1.5c-8.6,0-15.6,7-15.6,15.6H111.8z M431.9,73.2c0-10.7-8.7-19.3-19.3-19.3
	c-4.7,0-8.9,1.7-12.3,4.5c-5.4-9.5-15.5-15.8-27.2-15.8c-5.4,0-10.5,1.4-15,3.8c-9.8-18.7-29.3-31.4-51.8-31.4
	c-32.3,0-58.4,26.1-58.4,58.4 M485.9,147.9c0-14.5-11.7-26.2-26.2-26.2c-10.2,0-19,5.9-23.4,14.4c-1.7-0.8-3.6-1.3-5.6-1.3
	c-7.2,0-13.1,5.9-13.1,13.1H485.9z"/>
<rect x="239.7" y="367.1" class="st5" width="11.3" height="11.3"/>
<rect x="265" y="367.1" class="st5" width="11.3" height="11.3"/>
<rect x="290.3" y="367.1" class="st5" width="11.3" height="11.3"/>
<rect x="239.7" y="391.1" class="st5" width="11.3" height="11.3"/>
<rect x="265" y="391.1" class="st5" width="11.3" height="11.3"/>
<rect x="290.3" y="391.1" class="st5" width="11.3" height="11.3"/>
<rect x="239.7" y="414.5" class="st5" width="11.3" height="11.3"/>
<rect x="265" y="414.5" class="st5" width="11.3" height="11.3"/>
<rect x="290.3" y="414.5" class="st5" width="11.3" height="11.3"/>
<rect x="253.7" y="457.1" class="st5" width="34" height="43.6"/>
<rect x="239.7" y="295.8" class="st5" width="11.3" height="11.3"/>
<rect x="265" y="295.8" class="st5" width="11.3" height="11.3"/>
<rect x="290.3" y="295.8" class="st5" width="11.3" height="11.3"/>
<rect x="239.7" y="319.8" class="st5" width="11.3" height="11.3"/>
<rect x="265" y="319.8" class="st5" width="11.3" height="11.3"/>
<rect x="290.3" y="319.8" class="st5" width="11.3" height="11.3"/>
<rect x="239.7" y="343.1" class="st5" width="11.3" height="11.3"/>
<rect x="265" y="343.1" class="st5" width="11.3" height="11.3"/>
<rect x="290.3" y="343.1" class="st5" width="11.3" height="11.3"/>
<rect x="239.7" y="271.8" class="st5" width="11.3" height="11.3"/>
<rect x="265" y="271.8" class="st5" width="11.3" height="11.3"/>
<rect x="290.3" y="271.8" class="st5" width="11.3" height="11.3"/>
<path class="st7" d="M349.6,450.9c0,0-0.8,47.3,3.6,51.7h-8.4c0,0,4.6-23,3.4-51.7H349.6z"/>
<rect x="400.9" y="367.1" class="st5" width="11.3" height="11.3"/>
<rect x="426.2" y="367.1" class="st5" width="11.3" height="11.3"/>
<rect x="451.5" y="367.1" class="st5" width="11.3" height="11.3"/>
<rect x="400.9" y="391.1" class="st5" width="11.3" height="11.3"/>
<rect x="426.2" y="391.1" class="st5" width="11.3" height="11.3"/>
<rect x="451.5" y="391.1" class="st5" width="11.3" height="11.3"/>
<rect x="400.9" y="414.5" class="st5" width="11.3" height="11.3"/>
<rect x="426.2" y="414.5" class="st5" width="11.3" height="11.3"/>
<rect x="451.5" y="414.5" class="st5" width="11.3" height="11.3"/>
<rect x="414.8" y="457.1" class="st5" width="34" height="43.6"/>
<rect x="400.9" y="319.8" class="st5" width="11.3" height="11.3"/>
<rect x="426.2" y="319.8" class="st5" width="11.3" height="11.3"/>
<rect x="451.5" y="319.8" class="st5" width="11.3" height="11.3"/>
<rect x="400.9" y="343.1" class="st5" width="11.3" height="11.3"/>
<rect x="426.2" y="343.1" class="st5" width="11.3" height="11.3"/>
<rect x="451.5" y="343.1" class="st5" width="11.3" height="11.3"/>
<path class="st7" d="M151.3,462.4c0,0-0.6,35.5,2.7,38.8h-6.3c0,0,3.5-17.3,2.6-38.8H151.3z"/>
<circle class="st5" cx="150.9" cy="458" r="8.4"/>
<path class="st7" d="M181.2,449.8c0,0-0.8,46.9,3.6,51.3h-8.3c0,0,4.6-22.9,3.4-51.3H181.2z"/>
<path class="st5" d="M73,279.1l1.1-7.2c0,0-10.9-4.9-11-4.7c-1.5,4.4-5.8,3.5-7.5,1.5c-0.2-0.3-10.2,8-10.2,8s5.1,2.7,4.9,2.9
	c0,0,1.1-0.8,1.1-0.8c2,3.5-0.6,18.4-0.6,18.4c9.5,2.4,17.4-2.6,17.4-2.6s-3.4-10.9-2.5-12.2c2.1-2.9,0.4-6.6,0.4-7
	C66.8,276.7,73,279.1,73,279.1z"/>
<path d="M55.5,293.4l-11.9-7c-1.3-0.8-1.7-2.4-0.9-3.7h0c0.8-1.3,2.4-1.7,3.7-0.9l11.9,7c1.3,0.8,1.7,2.4,0.9,3.7h0
	C58.5,293.8,56.8,294.2,55.5,293.4z"/>
<circle cx="278" cy="152.4" r="3.3"/>
<path d="M252,173.1c0,0-0.1-1.3,1.6-2.5c0,0,0.3-0.2,1.2-0.6c0.8-0.3,1.8-0.3,1.8-0.3l9.3,1.1l2.2-3.1l6.5,3.2l-3.4,4.3
	c-1.5,2.8-5.1,2.2-5.1,2.2l-11.1-1.5C253.5,175.8,252.2,174.6,252,173.1z"/>
<rect x="289" y="164.8" transform="matrix(-0.8404 0.542 -0.542 -0.8404 627.4464 151.1622)" width="4.9" height="6.4"/>
<path class="st8" d="M265.3,227.3L265.3,227.3c0,1.1,0.9,2,2.1,2l9.4-0.1l1.7-36.1l4.6,33.9l-1.9,0c-1,0-1.8,0.8-1.8,1.8l0,0
	c0,1,0.8,1.8,1.8,1.8l10.3-0.1l-5.4-46.3l-16.1,0.2l-0.2,40.7l-2.7,0.1C266.2,225.3,265.3,226.2,265.3,227.3z"/>
<path class="st3" d="M258.2,171.2l-4.8,2.4c-1.1,0.5-2.4,0.1-3-1l-0.5-1c-0.1-0.2,0-0.5,0.2-0.6s0.5,0,0.6,0.2l0.5,1
	c0.3,0.7,1.1,0.9,1.8,0.6l4.8-2.4c0.7-0.3,0.9-1.1,0.6-1.8l-1.4-2.8c-0.1-0.2,0-0.5,0.2-0.6c0.2-0.1,0.5,0,0.6,0.2l1.4,2.8
	C259.7,169.3,259.3,170.6,258.2,171.2z"/>
<g>
	<linearGradient id="SVGID_4_" gradientUnits="userSpaceOnUse" x1="232.7951" y1="168.3291" x2="268.4428" y2="168.3291">
		<stop  offset="0" style="stop-color:#D6219C"/>
		<stop  offset="1" style="stop-color:#80C7F5"/>
	</linearGradient>
	<path class="st9" d="M268.4,158.6l-27.3,22l-8.3-16.1l34.1-8.4L268.4,158.6z"/>
</g>
<path d="M252.4,172.4c0,0,1.3,2.1,3.8,0.8c0,0,1.8-1,1.7-3.3L252.4,172.4z"/>
<path class="st5" d="M272,171.8l-3.8-4.2c0,0,5.8-10.6,5.9-10.4c3.3,2.3,6.8,0.5,8.5-1.5c0.2-0.3,10.2,8,10.2,8s-5.1,2.7-4.9,2.9
	c0,0-1.1-0.8-1.1-0.8c-0.2,0,1.7,21.1,1.7,21.1c-6.9,1.9-19.8-0.6-19.8-0.6s3.2-20.9,3.1-22C271.3,165.4,272,171.8,272,171.8z"/>
<path d="M282.7,180.4l11.9-7c1.3-0.8,1.7-2.4,0.9-3.7v0c-0.8-1.3-2.4-1.7-3.7-0.9l-11.9,7c-1.3,0.8-1.7,2.4-0.9,3.7l0,0
	C279.8,180.7,281.5,181.1,282.7,180.4z"/>
<circle cx="439.9" cy="211.7" r="3.3"/>
<path d="M411.1,208c0,0,1-0.8,3-0.1c0,0,0.3,0.1,1.1,0.6c0.7,0.5,1.3,1.3,1.3,1.3l4.4,8.3l3.9,0.1l0.8,5.5l-5.2,1.3
	c-3.2,0.4-4.7-3-4.7-3l-5.1-10C409.8,210.7,410,209,411.1,208z"/>
<polygon points="451.9,231 456.2,228.9 452.2,223.3 448.7,225.5 "/>
<path class="st10" d="M426,286.6L426,286.6c0,1.1,0.9,2,2.1,2l9.4-0.1l1.7-36.1l4.6,33.9l-1.9,0c-1,0-1.8,0.8-1.8,1.8l0,0
	c0,1,0.8,1.8,1.8,1.8l10.3-0.1l-5.4-46.3l-16.1,0.2l-0.2,40.7l-2.7,0.1C426.8,284.6,426,285.5,426,286.6z"/>
<path class="st3" d="M416.2,212l-4.7-2.6c-1.1-0.6-1.5-1.9-0.9-3l0.5-1c0.1-0.2,0.4-0.3,0.6-0.2s0.3,0.4,0.2,0.6l-0.5,1
	c-0.3,0.7-0.1,1.5,0.5,1.8l4.7,2.6c0.6,0.4,1.5,0.1,1.8-0.5l1.5-2.8c0.1-0.2,0.4-0.3,0.6-0.2c0.2,0.1,0.3,0.4,0.2,0.6l-1.5,2.8
	C418.6,212.2,417.3,212.6,416.2,212z"/>
<path d="M411.9,207.9c0,0-1,2.3,1.5,3.6c0,0,1.8,1,3.7-0.4L411.9,207.9z"/>
<path class="st5" d="M425.7,224.3l-0.9-6.2c0,0,10.9-4.9,11-4.7c1.5,4.4,5.8,3.5,7.5,1.5c0.2-0.3,9.3,8.2,9.3,8.2s-4.3,2.5-4.1,2.7
	c0,0-1.1-0.8-1.1-0.8c-0.2,0,0.6,18.4,0.6,18.4c-8,2.6-17.9,0.7-17.9,0.7s3.7-11.9,1.9-16.3c-1.4-3.6,0.8-5.7,0.7-6.2L425.7,224.3z"
	/>
<path d="M443.4,239.7l11.9-7c1.3-0.8,1.7-2.4,0.9-3.7l0,0c-0.8-1.3-2.4-1.7-3.7-0.9l-11.9,7c-1.3,0.8-1.7,2.4-0.9,3.7v0
	C440.5,240,442.1,240.4,443.4,239.7z"/>
<linearGradient id="SVGID_5_" gradientUnits="userSpaceOnUse" x1="235.616" y1="171.8669" x2="287.4167" y2="147.4325">
	<stop  offset="0" style="stop-color:#D6219C"/>
	<stop  offset="1" style="stop-color:#80C7F5"/>
</linearGradient>
<path class="st11" d="M274.3,152.4c0,0,2,0.3,3.3-1.3c0,0,1.1,2.2,3.5,2.8c0,0,1.9-3.1-2.1-4.9C278.9,149,274.6,148.2,274.3,152.4z"
	/>
<linearGradient id="SVGID_6_" gradientUnits="userSpaceOnUse" x1="398.7632" y1="200.2395" x2="444.9469" y2="200.2395">
	<stop  offset="1.617508e-03" style="stop-color:#FFA68C"/>
	<stop  offset="1" style="stop-color:#D6219C"/>
</linearGradient>
<path class="st12" d="M432.4,213.2l-33.7-9.9l8.5-16l26.3,23.2L432.4,213.2z M439.5,210.2c-0.9,0-1.8-0.2-2.5-0.6
	c0.5-1.3,1.8-2.2,3.2-2.2c0.4,0,0.8,0.1,1.2,0.2c-0.4-0.4-0.6-0.9-0.6-1.5c0-1.2,0.9-2.1,2.1-2.1c1.2,0,2.1,0.9,2.1,2.1
	c0,1.2-0.9,2.1-2.1,2.1c-0.2,0-0.3,0-0.5-0.1c0.8,0.6,1.3,1.6,1.3,2.7c0,0.5-0.1,1-0.3,1.4c-1-0.5-1.9-1.3-2.5-2.2
	C440.4,210.1,440,210.2,439.5,210.2z"/>
</svg>
