<?xml version="1.0" encoding="iso-8859-1"?>
<!-- Generator: Adobe Illustrator 24.0.0, SVG Export Plug-In . SVG Version: 6.00 Build 0)  -->
<svg version="1.1" id="Layer_1" xmlns="http://www.w3.org/2000/svg" xmlns:xlink="http://www.w3.org/1999/xlink" x="0px" y="0px"
	 viewBox="0 0 500 940.253" style="enable-background:new 0 0 500 940.253;" xml:space="preserve">
<ellipse cx="272.638" cy="36.486" rx="34.555" ry="36.486"/>
<path d="M168.941,239.919c0,0-2.696,62.647-7.383,124.553l-43.296,75.793c0,0-12.771,21.96-43.054,5.371
	c0,0-13.143-17.656-4.14-37.002L168.941,239.919z"/>
<linearGradient id="SVGID_1_" gradientUnits="userSpaceOnUse" x1="171.3895" y1="234.5373" x2="319.0167" y2="18.0174">
	<stop  offset="0" style="stop-color:#D6219C"/>
	<stop  offset="1" style="stop-color:#80C7F5"/>
</linearGradient>
<path style="fill:url(#SVGID_1_);" d="M288.087,69.518l20.926,29.442c6.522,9.176,4.476,22.51-4.546,29.63l-74.076,58.464
	c-9.022,7.12-21.74,5.439-28.262-3.737l-20.926-29.442c-6.522-9.176-4.476-22.51,4.546-29.63l74.076-58.464
	C268.847,58.66,281.565,60.342,288.087,69.518z"/>
<path d="M273.208,140.529l24.013,55.654l24.506-16.677l26.735,54.644l-50.389,38.48c-39.018,17.305-49.393-22.725-49.393-22.725
	l-37.552-92.034c-4.154-15.737,4.077-32.102,19.187-38.151l0,0C247.95,112.661,267.836,122.308,273.208,140.529z"/>
<path style="fill:#D6219C;" d="M263.634,653.703l118.372,198.823l-55.515,54.542c-7.058,25.549,7.058,29.807,7.058,29.807
	c12.099,9.581,28.23-4.258,28.23-4.258L500,829.388L387.063,592.674l-10.114-163.742l-215.508-5.339L68.478,809.81l-38.295-19.589
	c-17.812-7.097-27.558,7.807-27.558,7.807c-8.402,22.71,6.049,33.356,6.049,33.356l137.118,62.453l113.162-383.034"/>
<linearGradient id="SVGID_2_" gradientUnits="userSpaceOnUse" x1="148.0135" y1="218.5991" x2="295.6407" y2="2.0792">
	<stop  offset="0" style="stop-color:#D6219C"/>
	<stop  offset="1" style="stop-color:#80C7F5"/>
</linearGradient>
<path style="fill:url(#SVGID_2_);" d="M239.557,26.01c12.436,4.066,22.533,7.474,41.242,5.774
	c2.856,9.349,18.012,16.738,23.594,19.179c1.793-4.418,2.8-9.277,2.8-14.389c0-20.2-15.509-36.575-34.64-36.575
	C256.927,0,243.872,10.998,239.557,26.01z"/>
</svg>
