<?xml version="1.0" encoding="iso-8859-1"?>
<!-- Generator: Adobe Illustrator 24.0.0, SVG Export Plug-In . SVG Version: 6.00 Build 0)  -->
<svg version="1.1" id="Layer_1" xmlns="http://www.w3.org/2000/svg" xmlns:xlink="http://www.w3.org/1999/xlink" x="0px" y="0px"
	 viewBox="0 0 500 286.641" style="enable-background:new 0 0 500 286.641;" xml:space="preserve">
<polygon style="fill:#E5E5E5;" points="250.412,170.159 249.543,170.159 0,286.641 500,286.641 "/>
<circle style="fill:#D5209C;" cx="388.522" cy="179.87" r="3.281"/>
<circle style="fill:#D5209C;" cx="395.39" cy="176.64" r="6.511"/>
<circle style="fill:#D5209C;" cx="401.408" cy="179.87" r="3.281"/>
<circle cx="395.39" cy="180.835" r="6.024"/>
<polygon style="fill:#D5209C;" points="389.707,177.182 401.408,177.182 399.613,174.83 396.022,173.839 391.317,174.83 "/>
<polygon points="374.329,250.428 416.654,250.428 399.538,183.582 391.245,183.582 "/>
<path style="fill:#FFFFFF;" d="M402.167,215.747l-4.589-29.019c-0.386-2.444,1.281-4.738,3.725-5.124
	c1.957-0.309,3.82,0.705,4.682,2.373l13.452,26.119c2.327,4.518,0.551,10.067-3.967,12.394c-4.518,2.327-10.067,0.551-12.394-3.967
	C402.621,217.64,402.319,216.677,402.167,215.747z"/>
<polygon style="fill:#FFFFFF;" points="393.534,182.831 393.534,183.252 390.207,183.252 390.207,184.039 393.534,184.039 
	393.534,184.46 396.504,184.46 396.504,182.831 "/>
<path style="fill:#FFFFFF;" d="M371.522,209.05l12.782-25.028c1.127-2.206,3.828-3.081,6.034-1.954
	c1.746,0.892,2.655,2.777,2.402,4.615l-3.889,27.832c-0.704,5.039-5.36,8.554-10.399,7.85c-5.039-0.704-8.554-5.36-7.85-10.399
	C370.747,210.933,371.077,209.931,371.522,209.05z"/>
<g>
	<path d="M99.764,198.585l-4.497-7.502l-0.03,0.018c0.029-0.018,2.914-1.838,5.802-5.892c3.857-5.414,5.917-12.08,6.124-19.811
		c0.065-2.414,2.073-4.323,4.489-4.255c2.414,0.065,4.319,2.074,4.255,4.489C115.28,189.019,100.397,198.205,99.764,198.585z"/>
</g>
<path style="fill:#FFFFFF;" d="M112.228,196.807l24.944,32.226c5.088,6.573,3.883,16.025-2.689,21.113
	c-5.67,4.389-13.489,4.087-18.794-0.296l-31.425-25.946c-8.343-6.888-9.522-19.236-2.634-27.579
	c6.888-8.343,19.236-9.522,27.579-2.634C110.324,194.612,111.371,195.715,112.228,196.807z"/>
<path d="M116.236,240.84l-12.476-49.764c-0.497-1.981-2.953-5.508-7.5-5.459c-4.547,0.049-6.365,3.949-6.775,6.038l-10.629,54.153
	c-0.599,3.049,2.031,5.759,5.097,5.252l28.689-4.742C115.21,245.893,116.869,243.366,116.236,240.84z"/>
<polygon points="290.174,230.823 209.397,230.823 218.433,213.792 281.234,213.792 "/>
<path style="fill:#FFFFFF;" d="M100.893,196.975l1.282,16.885l-0.895-2.412l6.546,10.304c0.982,1.546,0.525,3.595-1.021,4.577
	c-1.379,0.876-3.158,0.606-4.224-0.559l-8.244-9.003c-0.562-0.614-0.855-1.38-0.885-2.151l-0.01-0.261l-0.637-16.921
	c-0.084-2.236,1.66-4.116,3.896-4.2C98.883,193.151,100.726,194.818,100.893,196.975z"/>
<polygon points="89.7,207.411 103.998,202.201 100.324,190.5 92.093,193.41 "/>
<g>
	<path style="fill:#231F20;" d="M235.101,159.823c-3.885,0-7.317-2.801-7.986-6.759l-4.436-26.256
		c-0.746-4.416,2.229-8.601,6.645-9.347c4.416-0.746,8.601,2.229,9.347,6.645l4.436,26.256c0.746,4.416-2.229,8.601-6.645,9.347
		C236.005,159.786,235.55,159.823,235.101,159.823z"/>
</g>
<polygon style="fill:#FFFFFF;" points="227.207,156.285 242.907,147.974 245.285,153.429 249.941,153.429 249.941,168.036 
	230.522,168.036 "/>
<g>
	<path style="fill:#231F20;" d="M264.778,159.824c-0.607,0-1.222-0.068-1.838-0.211c-4.363-1.011-7.08-5.368-6.069-9.731
		l5.775-24.919c1.011-4.363,5.368-7.08,9.731-6.069c4.363,1.011,7.08,5.368,6.069,9.731l-5.775,24.919
		C271.802,157.29,268.466,159.824,264.778,159.824z"/>
</g>
<polygon style="fill:#FFFFFF;" points="272.674,156.285 256.975,147.974 254.596,153.429 249.941,153.429 249.941,168.036 
	269.36,168.036 "/>
<polygon style="fill:#FFFFFF;" points="272.674,156.285 256.975,147.974 254.596,153.429 249.941,153.429 249.941,168.036 
	269.36,168.036 "/>
<polygon points="250,154.188 247.508,175.826 250,178.318 252.492,175.826 "/>
<linearGradient id="SVGID_1_" gradientUnits="userSpaceOnUse" x1="354.516" y1="259.6619" x2="354.516" y2="174.5235">
	<stop  offset="0" style="stop-color:#881FFF"/>
	<stop  offset="0.2415" style="stop-color:#A13BE7"/>
	<stop  offset="0.7609" style="stop-color:#E084AA"/>
	<stop  offset="1" style="stop-color:#FFA78C"/>
</linearGradient>
<polygon style="fill:url(#SVGID_1_);" points="323.729,217.416 385.303,255.877 385.303,184.528 323.729,178.537 "/>
<rect x="162.737" y="144.048" transform="matrix(0.9267 -0.3757 0.3757 0.9267 -43.8885 74.1605)" style="fill:#FFA78C;" width="10.951" height="11.135"/>
<rect x="96.283" y="134.243" transform="matrix(0.8104 -0.5858 0.5858 0.8104 -62.5447 86.1544)" style="fill:#FFA78C;" width="11.135" height="10.951"/>
<rect x="297.047" y="151.196" transform="matrix(0.7747 -0.6323 0.6323 0.7747 -30.309 226.43)" style="fill:#D5209C;" width="11.135" height="9.109"/>
<rect x="232.326" y="2.494" transform="matrix(0.7747 -0.6323 0.6323 0.7747 49.1408 152.0161)" style="fill:#D5209C;" width="11.135" height="9.11"/>
<rect x="370.681" y="79.966" transform="matrix(0.7747 -0.6323 0.6323 0.7747 31.3174 256.9423)" style="fill:#D5209C;" width="11.135" height="9.109"/>
<rect x="282.807" y="264.778" transform="matrix(0.3413 -0.9399 0.9399 0.3413 -64.8309 448.1765)" style="fill:#D5209C;" width="9.11" height="11.136"/>
<rect x="178.52" y="260.449" transform="matrix(0.7747 -0.6323 0.6323 0.7747 -126.0916 176.0977)" style="fill:#D5209C;" width="11.134" height="9.109"/>
<rect x="188.82" y="110.716" transform="matrix(0.7747 -0.6323 0.6323 0.7747 -29.0951 148.8806)" style="fill:#D5209C;" width="11.134" height="9.11"/>
<rect x="120.69" y="119.288" transform="matrix(0.9773 -0.2119 0.2119 0.9773 -23.3744 29.5652)" style="fill:#D5209C;" width="11.135" height="9.109"/>
<rect x="418.14" y="122.747" transform="matrix(0.7747 -0.6323 0.6323 0.7747 14.9527 296.5743)" style="fill:#D5209C;" width="11.135" height="9.11"/>
<rect x="362.208" y="127.992" transform="matrix(0.378 -0.9258 0.9258 0.378 104.4751 422.6236)" style="fill:#D5209C;" width="9.109" height="11.135"/>
<rect x="336.935" y="252.61" transform="matrix(0.3781 -0.9258 0.9258 0.3781 -26.6343 476.7078)" style="fill:#D5209C;" width="9.109" height="11.135"/>
<rect x="188.047" y="173.292" transform="matrix(0.3706 -0.9288 0.9288 0.3706 -44.9666 291.3646)" style="fill:#7FC8F5;" width="8.88" height="11.134"/>
<rect x="171.826" y="42.296" transform="matrix(0.3706 -0.9288 0.9288 0.3706 66.4812 193.8362)" style="fill:#7FC8F5;" width="8.881" height="11.135"/>
<rect x="277.392" y="52.421" transform="matrix(0.3707 -0.9287 0.9287 0.3707 123.4979 298.243)" style="fill:#7FC8F5;" width="8.881" height="11.135"/>
<rect x="282.027" y="23.158" transform="matrix(0.8712 -0.4909 0.4909 0.8712 23.5935 144.7167)" style="fill:#D5209C;" width="11.135" height="8.472"/>
<rect x="383.078" y="123.095" transform="matrix(0.7363 -0.6767 0.6767 0.7363 15.0495 295.9383)" style="fill:#FFA78C;" width="8.196" height="11.135"/>
<rect x="200.454" y="41.55" transform="matrix(0.7363 -0.6767 0.6767 0.7363 22.0587 150.8367)" style="fill:#FFA78C;" width="8.196" height="11.134"/>
<rect x="204.272" y="72.845" transform="matrix(0.7363 -0.6767 0.6767 0.7363 1.8947 161.6858)" style="fill:#FFA78C;" width="8.196" height="11.135"/>
<rect x="358.868" y="158.363" transform="matrix(0.4554 -0.8903 0.8903 0.4554 52.3723 413.8289)" style="fill:#7FC8F5;" width="11.135" height="11.489"/>
<rect x="311.599" y="126.102" transform="matrix(0.4554 -0.8903 0.8903 0.4554 55.3501 354.1766)" style="fill:#7FC8F5;" width="11.135" height="11.49"/>
<rect x="323.185" y="46.569" transform="matrix(0.4554 -0.8903 0.8903 0.4554 132.4782 321.1841)" style="fill:#7FC8F5;" width="11.135" height="11.49"/>
<rect x="268.684" y="81.883" transform="matrix(0.4554 -0.8903 0.8903 0.4554 71.3541 291.8949)" style="fill:#7FC8F5;" width="11.135" height="11.49"/>
<rect x="188.964" y="10.443" transform="matrix(0.4554 -0.8903 0.8903 0.4554 91.5348 182.0078)" style="fill:#7FC8F5;" width="11.135" height="11.489"/>
<rect x="124.505" y="65.834" transform="matrix(0.7424 -0.67 0.67 0.7424 -14.076 106.1952)" style="fill:#D5209C;" width="13.101" height="11.135"/>
<rect x="188.674" y="219.496" transform="matrix(0.7455 -0.6665 0.6665 0.7455 -100.7964 186.1445)" style="fill:#FFA78C;" width="9.362" height="11.134"/>
<rect x="170.615" y="246.358" transform="matrix(0.0688 -0.9976 0.9976 0.0688 -88.7333 408.7919)" style="fill:#FFA78C;" width="7.973" height="11.135"/>
<rect x="88.489" y="234.221" transform="matrix(0.3782 -0.9257 0.9257 0.3782 -164.7166 236.9811)" style="fill:#FFA78C;" width="11.135" height="13.778"/>
<rect x="393.016" y="261.965" transform="matrix(0.2308 -0.973 0.973 0.2308 45.455 592.566)" style="fill:#FFA78C;" width="9.021" height="11.135"/>
<rect x="311.308" y="194.885" transform="matrix(0.7836 -0.6213 0.6213 0.7836 -55.7472 240.8735)" style="fill:#7FC8F5;" width="13.103" height="11.135"/>
<rect x="249.086" y="28.542" transform="matrix(0.6692 -0.7431 0.7431 0.6692 59.8292 200.0901)" style="fill:#FFA78C;" width="11.134" height="8.607"/>
<rect x="397.122" y="155.971" transform="matrix(0.6692 -0.7431 0.7431 0.6692 14.1248 352.2749)" style="fill:#FFA78C;" width="11.135" height="8.608"/>
<rect x="321.588" y="79.825" transform="matrix(0.9984 -0.0557 0.0557 0.9984 -4.1784 18.355)" style="fill:#FFA78C;" width="11.134" height="8.608"/>
<rect x="337.601" y="112.114" transform="matrix(0.9984 -0.0557 0.0557 0.9984 -5.9523 19.2972)" style="fill:#FFA78C;" width="11.134" height="8.608"/>
<rect x="298.677" y="100.323" transform="matrix(0.6692 -0.743 0.743 0.6692 22.8895 260.6731)" style="fill:#FFA78C;" width="11.134" height="8.607"/>
<rect x="240.453" y="89.216" transform="matrix(0.6692 -0.7431 0.7431 0.6692 11.898 213.7643)" style="fill:#FFA78C;" width="11.135" height="8.607"/>
<rect x="151.567" y="96.412" transform="matrix(0.2027 -0.9792 0.9792 0.2027 24.415 233.9445)" style="fill:#FFA78C;" width="8.608" height="11.134"/>
<rect x="128.459" y="158.484" style="fill:#7FC8F5;" width="11.135" height="8.607"/>
<path style="fill:#FFA78C;" d="M100.735,181.359c0-2.262-1.056-4.102-3.863-4.105v0c-2.812,0-3.87,1.841-3.87,4.105
	c0,2.516-0.787,4.104-1.455,4.998c-0.29,0.389-0.013,0.94,0.471,0.94l9.699,0c0.485,0,0.761-0.551,0.472-0.94
	C101.522,185.463,100.735,183.875,100.735,181.359z"/>
<circle style="fill:#FFFFFF;" cx="96.865" cy="181.907" r="3.258"/>
<polygon style="fill:#FFA78C;" points="93.792,179.932 100.119,179.932 99.148,178.66 97.207,178.124 94.662,178.66 "/>
<rect x="324.834" y="160.108" transform="matrix(0.597 -0.8023 0.8023 0.597 -0.6882 332.3008)" style="fill:#FFA78C;" width="11.134" height="13.455"/>
<rect x="359.148" y="205.23" transform="matrix(0.3662 -0.9305 0.9305 0.3662 35.7249 474.0475)" style="fill:#FFA78C;" width="13.455" height="11.135"/>
<rect x="407.538" y="199.658" transform="matrix(0.8465 -0.5324 0.5324 0.8465 -45.866 251.3756)" style="fill:#7FC8F5;" width="10.886" height="11.134"/>
<rect x="116.266" y="263.067" transform="matrix(0.9106 -0.4132 0.4132 0.9106 -100.6023 74.4621)" style="fill:#FFA78C;" width="11.135" height="13.455"/>
<path d="M249.228,150.558v0.208h-1.656c-0.277,0-0.502-0.225-0.502-0.502v-2.301h-0.405v2.301c0,0.5,0.407,0.907,0.907,0.907h1.656
	v0.227h1.531v-0.84H249.228z"/>
<path style="fill:#881FFF;" d="M250.318,144.455h-0.636c-1.814,0-3.284,1.47-3.284,3.284l0,0c0,0.769,0.34,1.457,0.875,1.927
	c-0.001-0.023-0.003-0.045-0.003-0.068c0-0.516,0.146-0.996,0.395-1.408c0.214,0.083,0.47,0.126,0.774,0.126h2.152
	c0.543,0,1.032-0.224,1.383-0.584c0.459,0.488,0.743,1.143,0.743,1.865c0,0.027-0.003,0.054-0.004,0.081
	c0.544-0.471,0.89-1.165,0.89-1.941l0,0C253.602,145.926,252.132,144.455,250.318,144.455z"/>
<path d="M95.893,183.83v0.208h-1.656c-0.277,0-0.502-0.225-0.502-0.502v-2.301h-0.405v2.301c0,0.5,0.407,0.907,0.907,0.907h1.656
	v0.227h1.531v-0.84H95.893z"/>
<polygon style="fill:#FFFFFF;" points="144.103,241.887 136.818,241.887 144.103,237.435 "/>
<rect x="81.506" y="195.853" transform="matrix(0.321 -0.9471 0.9471 0.321 -130.7206 218.5832)" style="fill:#D5209C;" width="11.135" height="9.2"/>
<rect x="141.826" y="193.832" transform="matrix(0.3706 -0.9288 0.9288 0.3706 -93.1433 261.3445)" style="fill:#7FC8F5;" width="8.881" height="11.135"/>
<path d="M286.859,235.59h-74.147c-1.831,0-3.315-1.484-3.315-3.315l0,0h80.777l0,0C290.174,234.105,288.69,235.59,286.859,235.59z"
	/>
<path style="fill:#FFFFFF;" d="M286.413,234.584h-73.254c-2.078,0-3.762-1.684-3.762-3.762l0,0h80.777l0,0
	C290.174,232.9,288.49,234.584,286.413,234.584z"/>
<polygon style="fill:#FFFFFF;" points="355.773,241.887 363.058,241.887 355.773,237.435 "/>
<rect x="241.799" y="57.723" transform="matrix(0.9773 -0.2119 0.2119 0.9773 -7.5791 53.8264)" style="fill:#7FC8F5;" width="11.134" height="9.11"/>
<polygon style="fill:#FFFFFF;" points="170.662,178.537 176.144,178.537 114.538,184.804 104.484,184.804 "/>
<rect x="308.16" y="226.845" transform="matrix(0.7363 -0.6767 0.6767 0.7363 -74.9183 272.6047)" style="fill:#FFA78C;" width="8.196" height="11.135"/>
<linearGradient id="SVGID_2_" gradientUnits="userSpaceOnUse" x1="254.926" y1="260.5365" x2="254.926" y2="155.7258">
	<stop  offset="0" style="stop-color:#881FFF"/>
	<stop  offset="0.2415" style="stop-color:#A13BE7"/>
	<stop  offset="0.7609" style="stop-color:#E084AA"/>
	<stop  offset="1" style="stop-color:#FFA78C"/>
</linearGradient>
<path style="fill:url(#SVGID_2_);" d="M292.017,208.35h-84.034v-47.683h84.034V208.35z M176.147,178.537l-61.574,5.991v71.349
	l61.574-38.461V178.537z M329.101,178.537h-5.482l61.606,6.266h10.055L329.101,178.537z"/>
<path style="fill:#231F20;" d="M350.168,249.501h31.777v3.811h-31.149c-0.406,0-0.8-0.141-1.114-0.398l-20.58-16.856
	c-0.439-0.36-0.693-0.897-0.693-1.464v-2.089L350.168,249.501z"/>
<path style="fill:#231F20;" d="M149.534,249.501h-31.777v3.811h31.149c0.406,0,0.8-0.141,1.114-0.398l20.58-16.856
	c0.439-0.36,0.693-0.897,0.693-1.464v-2.089L149.534,249.501z"/>
<rect x="243.839" y="187.94" style="fill:#FFFFFF;" width="12.321" height="33.066"/>
<rect x="104.484" y="184.804" width="10.089" height="71.073"/>
<polygon style="fill:#FFFFFF;" points="343.45,233.787 355.599,241.887 355.599,207.608 343.45,203.445 "/>
<polygon style="fill:#FFFFFF;" points="156.252,233.787 144.103,241.887 144.103,207.608 156.252,203.445 "/>
<rect x="385.191" y="184.804" transform="matrix(-1 -1.224647e-16 1.224647e-16 -1 780.47 440.6803)" width="10.089" height="71.073"/>
</svg>
