<?xml version="1.0" encoding="iso-8859-1"?>
<!-- Generator: Adobe Illustrator 24.2.1, SVG Export Plug-In . SVG Version: 6.00 Build 0)  -->
<svg version="1.1" id="&#x56FE;&#x5C42;_1" xmlns="http://www.w3.org/2000/svg" xmlns:xlink="http://www.w3.org/1999/xlink" x="0px"
	 y="0px" viewBox="0 0 501.732 107.717" style="enable-background:new 0 0 501.732 107.717;" xml:space="preserve">
<g>
	<path style="fill:#173365;" d="M393.945,46.962c-0.285,1.146-0.931,2.101-1.61,3.023c-3.665,4.98-8.648,8.231-14.442,10.404
		c-1.177,0.442-2.367,0.849-3.59,1.156c-0.438,0.11-0.459,0.253-0.131,0.546c2.904,2.591,6.127,4.724,9.634,6.461
		c0.44,0.218,0.767,0.071,1.12-0.11c3.212-1.657,5.898-3.91,8.039-6.777c1.677-2.245,2.858-4.722,3.632-7.39
		c0.056-0.194,0.131-0.383,0.231-0.675c-0.768,9.3-8.901,19.734-21.62,21.31c-14.817,1.835-27.473-8.806-28.399-22.643
		c-0.979-14.624,10.431-24.917,21.991-25.996c-0.65,0.204-1.302,0.402-1.949,0.614c-5.149,1.686-9.2,4.763-12.188,9.179
		c-0.469,0.693-0.43,0.759,0.364,0.983c2.296,0.65,4.653,0.877,7.028,1.006c0.595,0.032,0.898-0.144,1.102-0.72
		c1.267-3.567,3.054-6.876,5.327-9.933c0.158-0.212,0.327-0.415,0.571-0.725c0.016,0.367-0.132,0.543-0.225,0.73
		c-1.499,2.996-2.669,6.104-3.364,9.375c-0.009,0.04-0.023,0.079-0.031,0.119c-0.193,0.976-0.15,0.996,0.883,0.854
		c3.371-0.462,6.524-1.538,9.495-3.141c0.092-0.049,0.184-0.099,0.281-0.137c0.03-0.012,0.075,0.01,0.161,0.025
		c-0.42,0.673-1.034,1.132-1.624,1.602c-2.678,2.134-5.77,3.407-9.13,4.094c-0.438,0.089-0.597,0.271-0.611,0.691
		c-0.075,2.22,0.037,4.423,0.471,6.611c0.114,0.575,0.283,0.765,0.931,0.68c5.412-0.711,10.55-2.201,15.261-4.956
		c1.029-0.602,2.001-1.284,2.947-2.003c0.262-0.199,0.526-0.394,0.867-0.649c0.018,0.381-0.144,0.59-0.278,0.802
		c-1.847,2.936-4.497,5.005-7.561,6.611c-3.237,1.696-6.718,2.685-10.325,3.27c-0.566,0.092-0.649,0.255-0.429,0.754
		c1.004,2.273,2.27,4.388,3.848,6.328c0.254,0.313,0.497,0.413,0.914,0.324c7.136-1.533,13.624-4.39,19.293-8.933
		c0.552-0.442,1.087-0.905,1.616-1.374C392.954,47.899,393.446,47.426,393.945,46.962z M359.426,59.877
		c1.661-0.001,3.321-0.023,4.977-0.167c0.785-0.068,0.834-0.164,0.418-0.826c-1.273-2.025-2.228-4.181-2.778-6.498
		c-0.113-0.475-0.328-0.612-0.828-0.578c-3.027,0.21-6.049,0.063-9.064-0.227c-0.888-0.085-1.016,0.021-0.839,0.886
		c0.471,2.306,1.249,4.506,2.361,6.596c0.233,0.438,0.538,0.613,1.029,0.658C356.273,59.868,357.849,59.863,359.426,59.877z
		 M360.148,63.346c-0.862,0-1.723-0.004-2.585,0.003c-0.18,0.001-0.418-0.07-0.508,0.139c-0.075,0.176,0.122,0.284,0.23,0.402
		c1.036,1.143,2.221,2.125,3.503,2.988c5.002,3.367,10.521,4.686,16.555,3.916c0.18-0.023,0.435,0.028,0.485-0.188
		c0.052-0.224-0.213-0.273-0.364-0.361c-3.397-1.961-6.558-4.215-9.259-7.045c-0.253-0.265-0.53-0.36-0.898-0.313
		C364.93,63.188,362.546,63.372,360.148,63.346z M358.627,48.633c0.673,0,1.347-0.021,2.018,0.006
		c0.562,0.023,0.804-0.165,0.762-0.746c-0.16-2.225,0.116-4.42,0.583-6.592c0.123-0.571-0.056-0.644-0.584-0.633
		c-2.721,0.055-5.414-0.203-8.054-0.866c-0.526-0.132-0.728,0.063-0.891,0.487c-0.88,2.283-1.381,4.635-1.481,7.076
		c-0.025,0.608,0.189,0.846,0.792,0.898C354.053,48.461,356.333,48.665,358.627,48.633z"/>
	<path style="fill:#173365;" d="M79.496,50.654c0,3.319-0.472,6.467-1.416,9.442c-0.944,2.976-2.275,5.723-3.991,8.24l5.408,5.493
		v14.592L48.252,57.178V42.586l18.369,18.283c1.717-3.09,2.575-6.494,2.575-10.214c0-2.803-0.515-5.464-1.545-7.983
		c-1.03-2.517-2.547-4.777-4.549-6.781c-2.004-2.002-4.264-3.533-6.781-4.592c-2.519-1.058-5.208-1.588-8.068-1.588
		c-2.804,0-5.465,0.53-7.983,1.588c-2.519,1.059-4.779,2.59-6.781,4.592c-2.004,2.004-3.519,4.264-4.549,6.781
		c-1.03,2.519-1.545,5.18-1.545,7.983c0,2.804,0.515,5.48,1.545,8.026c1.03,2.547,2.545,4.821,4.549,6.824
		c2.002,2.004,4.262,3.519,6.781,4.549c2.517,1.03,5.178,1.545,7.983,1.545c0.743,0,1.473-0.043,2.189-0.129
		c0.715-0.086,1.416-0.185,2.103-0.3l8.154,8.154c-1.888,0.802-3.877,1.431-5.966,1.888c-2.09,0.457-4.249,0.687-6.48,0.687
		c-4.292,0-8.341-0.815-12.146-2.446c-3.806-1.631-7.111-3.863-9.914-6.695c-2.804-2.833-5.021-6.151-6.652-9.957
		c-1.631-3.805-2.446-7.854-2.446-12.146c0-4.292,0.815-8.339,2.446-12.146c1.631-3.805,3.848-7.124,6.652-9.957
		c2.803-2.833,6.108-5.064,9.914-6.695c3.805-1.631,7.854-2.446,12.146-2.446c4.348,0,8.412,0.815,12.189,2.446
		c3.777,1.631,7.081,3.863,9.914,6.695c2.833,2.833,5.064,6.152,6.695,9.957C78.681,42.315,79.496,46.362,79.496,50.654z"/>
	<path style="fill:#173365;" d="M139.407,20.698v36.05c0,3.491-0.659,6.768-1.974,9.828c-1.317,3.062-3.12,5.737-5.408,8.025
		c-2.289,2.289-4.965,4.092-8.025,5.408c-3.062,1.316-6.338,1.974-9.828,1.974c-3.491,0-6.767-0.659-9.828-1.974
		c-3.062-1.316-5.737-3.118-8.026-5.408c-2.289-2.288-4.092-4.964-5.408-8.025c-1.317-3.061-1.974-6.337-1.974-9.828v-36.05h10.3
		v36.05c0,2.004,0.372,3.905,1.116,5.708c0.743,1.803,1.831,3.42,3.262,4.85c1.43,1.431,3.047,2.519,4.85,3.262
		c1.803,0.744,3.704,1.116,5.708,1.116c4.12,0,7.639-1.459,10.558-4.378c1.43-1.43,2.517-3.047,3.262-4.85
		c0.743-1.803,1.116-3.704,1.116-5.708v-36.05H139.407z"/>
	<path style="fill:#173365;" d="M159.148,80.782h-10.3V20.784h10.3V80.782z"/>
	<path style="fill:#173365;" d="M220.261,72.714c-2.862,2.862-6.18,5.107-9.957,6.738s-7.84,2.446-12.189,2.446
		c-4.292,0-8.341-0.815-12.146-2.446c-3.806-1.631-7.124-3.863-9.957-6.695c-2.832-2.833-5.064-6.151-6.695-9.957
		c-1.631-3.805-2.446-7.854-2.446-12.146c0-4.292,0.815-8.339,2.446-12.146c1.631-3.805,3.863-7.124,6.695-9.957
		c2.833-2.833,6.151-5.064,9.957-6.695c3.805-1.631,7.854-2.446,12.146-2.446c4.348,0,8.412,0.815,12.189,2.446
		c3.777,1.631,7.095,3.877,9.957,6.738l-7.296,7.296c-2.004-2.002-4.264-3.533-6.781-4.592c-2.519-1.058-5.208-1.588-8.069-1.588
		c-2.804,0-5.465,0.53-7.982,1.588c-2.519,1.059-4.779,2.59-6.781,4.592c-2.004,2.004-3.534,4.264-4.592,6.781
		c-1.059,2.519-1.588,5.18-1.588,7.983c0,2.804,0.528,5.48,1.588,8.026c1.058,2.547,2.589,4.821,4.592,6.824
		c2.002,2.004,4.262,3.519,6.781,4.549c2.517,1.03,5.178,1.545,7.982,1.545c2.861,0,5.55-0.515,8.069-1.545
		c2.517-1.03,4.777-2.545,6.781-4.549L220.261,72.714z"/>
	<path style="fill:#173365;" d="M261.118,80.954l-22.832-22.832v22.66h-10.3V20.784h10.3V43.53l22.66-22.66h14.592l-29.956,29.956
		l30.128,30.128H261.118z"/>
	<path style="fill:#A32227;" d="M335.106,72.714c-2.862,2.862-6.18,5.107-9.957,6.738c-3.777,1.631-7.84,2.446-12.189,2.446
		c-4.292,0-8.341-0.815-12.146-2.446c-3.806-1.631-7.124-3.863-9.957-6.695c-2.832-2.833-5.064-6.151-6.695-9.957
		c-1.631-3.805-2.446-7.854-2.446-12.146c0-4.292,0.815-8.339,2.446-12.146c1.631-3.805,3.863-7.124,6.695-9.957
		c2.833-2.833,6.151-5.064,9.957-6.695c3.805-1.631,7.854-2.446,12.146-2.446c4.348,0,8.412,0.815,12.189,2.446
		c3.777,1.631,7.095,3.877,9.957,6.738l-7.296,7.296c-2.004-2.002-4.264-3.533-6.781-4.592c-2.519-1.058-5.208-1.588-8.069-1.588
		c-2.804,0-5.465,0.53-7.982,1.588c-2.519,1.059-4.779,2.59-6.781,4.592c-2.004,2.004-3.534,4.264-4.592,6.781
		c-1.059,2.519-1.588,5.18-1.588,7.983c0,2.804,0.528,5.48,1.588,8.026c1.058,2.547,2.589,4.821,4.592,6.824
		c2.002,2.004,4.262,3.519,6.781,4.549c2.517,1.03,5.178,1.545,7.982,1.545c2.861,0,5.55-0.515,8.069-1.545
		c2.517-1.03,4.777-2.545,6.781-4.549L335.106,72.714z"/>
	<path style="fill:#A32227;" d="M470.638,20.612v60.084h-10.3V38.122L440.51,68.765l-19.742-30.643v42.574h-10.3V20.612h11.244
		l18.798,29.184l18.884-29.184H470.638z"/>
	<path style="fill:#173365;" d="M371.842,79.329c-15.731,0-28.529-12.798-28.529-28.529c0-6.142,1.958-11.833,5.273-16.493
		l-2.03-2.274c-3.903,5.246-6.217,11.741-6.217,18.767c0,17.372,14.133,31.504,31.504,31.504c5.753,0,11.146-1.558,15.793-4.262
		l-2.023-2.266C381.527,78.037,376.833,79.329,371.842,79.329z"/>
	<path style="fill:#173365;" d="M371.842,22.27c15.731,0,28.529,12.798,28.529,28.529c0,8.049-3.356,15.325-8.736,20.517
		l1.981,2.218c5.989-5.738,9.73-13.806,9.73-22.736c0-17.372-14.133-31.504-31.504-31.504c-7.652,0-14.674,2.745-20.138,7.299
		l1.98,2.218C358.621,24.727,364.95,22.27,371.842,22.27z"/>
</g>
</svg>
