<?xml version="1.0" encoding="utf-8"?>
<!-- Generator: Adobe Illustrator 24.0.1, SVG Export Plug-In . SVG Version: 6.00 Build 0)  -->
<svg version="1.1" id="Layer_1" xmlns="http://www.w3.org/2000/svg" xmlns:xlink="http://www.w3.org/1999/xlink" x="0px" y="0px"
	 viewBox="0 0 840 562" style="enable-background:new 0 0 840 562;" xml:space="preserve">
<style type="text/css">
	.st0{clip-path:url(#SVGID_2_);}
	.st1{fill:#FFFFFF;}
	.st2{fill:url(#SVGID_3_);}
	.st3{fill:#F1F2F2;}
	.st4{fill:#E6E7E8;}
	.st5{fill:url(#SVGID_4_);}
	.st6{fill:#878787;}
	.st7{fill:#231F20;}
	.st8{fill:#2B2B2B;}
	.st9{fill:url(#SVGID_5_);}
	.st10{fill:none;stroke:#CD138C;stroke-width:9.56;stroke-miterlimit:10;}
	.st11{fill:#CD138C;}
</style>
<g>
	<defs>
		<rect id="SVGID_1_" x="-0.6" y="-0.2" width="840" height="562"/>
	</defs>
	<clipPath id="SVGID_2_">
		<use xlink:href="#SVGID_1_"  style="overflow:visible;"/>
	</clipPath>
	<g class="st0">
		<rect x="-0.8" y="-2.5" width="840.6" height="566.3"/>
		<path class="st1" d="M270.3,563.4H46.7l143.8-202c29.2-41,86-50.6,127-21.4l11.3-41.1c41,29.2,39.3,127.2,10.1,168.2L270.3,563.4z
			"/>
		<linearGradient id="SVGID_3_" gradientUnits="userSpaceOnUse" x1="195.2201" y1="290.666" x2="659.6668" y2="290.666">
			<stop  offset="0" style="stop-color:#7FC8F5"/>
			<stop  offset="0.3755" style="stop-color:#8384F9"/>
			<stop  offset="0.8016" style="stop-color:#863BFD"/>
			<stop  offset="1" style="stop-color:#881FFF"/>
		</linearGradient>
		<path class="st2" d="M636.8,450.8H218.1c-12.6,0-22.8-10.2-22.8-22.8V153.3c0-12.6,10.2-22.8,22.8-22.8h418.8
			c12.6,0,22.8,10.2,22.8,22.8V428C659.7,440.6,649.4,450.8,636.8,450.8z"/>
		<rect x="220.9" y="156.2" class="st3" width="413.1" height="269"/>
		<rect x="242.5" y="197.8" class="st4" width="246.2" height="137.2"/>
		<linearGradient id="SVGID_4_" gradientUnits="userSpaceOnUse" x1="303.7721" y1="315.8235" x2="358.01" y2="238.7141">
			<stop  offset="0" style="stop-color:#7FC8F5"/>
			<stop  offset="0.3755" style="stop-color:#8384F9"/>
			<stop  offset="0.8016" style="stop-color:#863BFD"/>
			<stop  offset="1" style="stop-color:#881FFF"/>
		</linearGradient>
		<path class="st5" d="M347.5,229c-1.9,0-3.9,0.1-5.8,0.3c-8.6,0.7-16.1,4.8-19.8,12.9c-1.9,4.3-2,9.2-4.8,13.1
			c-2.2,3-5.6,4.9-8.8,6.7c-3.6,2.1-7.2,4.5-10.1,7.6c-2.8,3.1-4.9,7.2-4.8,11.4c0,2.9,1,5.8,0.8,8.7c-0.2,3.2-1.8,6.1-2.4,9.2
			c-0.8,5,1.2,10,4.3,14c5.2,6.8,13.2,11,21.6,12.6c3.7,0.7,7.5,0.8,11.1-0.1c4.3-1.1,8-3.8,10.7-7.4c2.3-3,5.6-5.5,7.1-9
			c1.3-3.2,1.4-6.7,2.2-10c0.6-2.6,1.8-5.1,3.3-7.3c3.8-5.4,10-9.1,12.1-15.3c1.9-5.5,0-11.6,0.8-17.4c0.4-2.7,1.3-5.3,1.8-8
			c0.8-4.7,0.2-9.6-2.2-13.8C360.8,230.3,354.6,229,347.5,229z"/>
		<rect x="504.9" y="196.8" class="st4" width="103.1" height="58"/>
		<rect x="504.9" y="270.4" class="st6" width="103.1" height="58"/>
		<rect x="504.9" y="348.9" class="st4" width="103.1" height="58"/>
		<rect x="242.5" y="348.5" class="st6" width="69.9" height="6.4"/>
		<rect x="242.5" y="360.1" class="st6" width="48.1" height="6.4"/>
		<rect x="242.5" y="374.8" class="st6" width="189.8" height="35.9"/>
		<path class="st7" d="M432.3,289c0,0-6.3,22.2-15.1,45.4l-35,0.4c-8.2-12.6-13.6-27.2-13.6-27.2s1.6-34,10.4-33.3l0,0
			c0.6,0.1,1.4,0.1,2.1,0.6c0,0,0.1-0.1,0.1-0.1c0.2,0.1,1.8,0.3,1.9,0.4c0,0,11.6,29.8,23.1,53.5c1.2,2.5,11.9-30.4,17.7-43.1
			L432.3,289z"/>
		<path class="st1" d="M383.3,324.4c-1,2.8-2.2,5.4-3.6,7.2c-0.1,0.5-0.2,1.5-0.3,3.4h-66.5c-0.2-1.9-0.4-3.4-0.5-4.9
			c-1-8-1.8-16-2.6-24c-0.8-8.5-2.3-17,0.4-25.3c0.4-1,0.7-2.1,1.2-3.1c0.9-2,2.2-3.7,4.3-4.5c2.9-1,6.2-1.4,9.2-1.9
			c7.4-1.2,15.8-1.9,23.3-1.3c23.7,1.9,36.8,4.6,36.8,5.3c0,0,0,0,0,0.1c0,0.8,0,1.6,0,2.5v0c0,6.9-1.9,14.6-0.4,21.2
			C386.8,310.5,385.3,318.7,383.3,324.4z"/>
		<g>
			<path class="st7" d="M560.5,212.8c-4.4-1.7-9.2-0.5-13,2.1c-1.6,1.1-3.1,3.1-4.1,5.6c-1.5,3.5-1.5,7.9,0.3,11.8
				c4.3,9.5,17,9.4,23.1,2.4C574.5,226.1,568.8,216,560.5,212.8z"/>
			<path class="st1" d="M553.3,220.1c-0.6,0.6-0.8,11.2,0.7,11.2c0.7,0,7.7-4.4,8-5.2C562.3,224.6,554.2,219.1,553.3,220.1z"/>
		</g>
		<g>
			<path class="st7" d="M560.5,286.4c-4.4-1.7-9.2-0.5-13,2.1c-1.6,1.1-3.1,3.1-4.1,5.6c-1.5,3.5-1.5,7.9,0.3,11.8
				c4.3,9.5,17,9.4,23.1,2.4C574.5,299.6,568.8,289.5,560.5,286.4z"/>
			<path class="st1" d="M553.3,293.7c-0.6,0.6-0.8,11.2,0.7,11.2c0.7,0,7.7-4.4,8-5.2C562.3,298.2,554.2,292.6,553.3,293.7z"/>
		</g>
		<g>
			<path class="st7" d="M560.5,364.9c-4.4-1.7-9.2-0.5-13,2.1c-1.6,1.1-3.1,3.1-4.1,5.6c-1.5,3.5-1.5,7.9,0.3,11.8
				c4.3,9.5,17,9.4,23.1,2.4C574.5,378.1,568.8,368.1,560.5,364.9z"/>
			<path class="st1" d="M553.3,372.2c-0.6,0.6-0.8,11.2,0.7,11.2c0.7,0,7.7-4.4,8-5.2C562.3,376.7,554.2,371.1,553.3,372.2z"/>
		</g>
		<path class="st1" d="M249.4,331.9c-0.7,0-1.3-0.6-1.3-1.3v-7.2c0-0.7,0.6-1.3,1.3-1.3c0.7,0,1.3,0.6,1.3,1.3v7.2
			C250.8,331.3,250.2,331.9,249.4,331.9z"/>
		<path class="st1" d="M254.3,331.9c-0.7,0-1.3-0.6-1.3-1.3v-7.2c0-0.7,0.6-1.3,1.3-1.3c0.7,0,1.3,0.6,1.3,1.3v7.2
			C255.7,331.3,255.1,331.9,254.3,331.9z"/>
		<rect x="266.3" y="173.4" class="st6" width="30.6" height="5.1"/>
		<rect x="266.3" y="181.8" class="st6" width="64.6" height="5.1"/>
		<circle class="st8" cx="251.1" cy="180.1" r="8.3"/>
		<path class="st1" d="M191.3,446.2l-68.9,11.4l59-97.7c7.8-14.7,26.4-25.7,42.1-16.9l0,0c13.4,8.8,14.9,30,5.5,43.1L191.3,446.2z"
			/>
		<path class="st1" d="M602.4,563.4h59.2l-80.5-141.6c-7.8-14.7-26.4-25.7-42.1-16.9l0,0c-13.4,8.8-14.9,30-5.5,43.1L602.4,563.4z"
			/>
		<path class="st1" d="M632,563.4h51l-76.3-253.9c-3.6-14.3-17.3-27.9-32.7-23.6v0c-13.5,4.7-19.3,22.7-14,36L632,563.4z"/>
		<path class="st1" d="M673.9,565.3l57,24.6l-53.6-183.2c-3.6-14.3-17.3-27.9-32.7-23.6l0,0c-13.5,4.7-19.3,22.7-14,36L673.9,565.3z
			"/>
		<path class="st1" d="M706.7,570.6l55.9,27.1l-45.2-185.5c-2.9-14.5-16-28.6-31.6-25h0c-13.7,4.1-20.3,21.8-15.6,35.3L706.7,570.6z
			"/>
		<path class="st1" d="M736.1,581.9l54.7,29.4l-37.5-187.2c-2.3-14.6-14.8-29.3-30.6-26.3h0c-13.8,3.6-21.2,21-17.1,34.7
			L736.1,581.9z"/>
		<circle class="st7" cx="353.8" cy="255.4" r="16"/>
		<linearGradient id="SVGID_5_" gradientUnits="userSpaceOnUse" x1="297.166" y1="311.1769" x2="351.4039" y2="234.0675">
			<stop  offset="0" style="stop-color:#7FC8F5"/>
			<stop  offset="0.3755" style="stop-color:#8384F9"/>
			<stop  offset="0.8016" style="stop-color:#863BFD"/>
			<stop  offset="1" style="stop-color:#881FFF"/>
		</linearGradient>
		<path class="st9" d="M353.8,234.9c0,0-3.6,33-21.1,27.9C315.3,257.8,341.2,231.7,353.8,234.9z"/>
		<path class="st7" d="M329.2,334.8l-2.4-47.9c1.1-5.8-2.8-11.4-8.6-12.5c-5.8-1.1-11.4,2.8-12.5,8.6l1.7,51.9H329.2z"/>
		<line class="st10" x1="351.6" y1="304.8" x2="416.6" y2="287.1"/>
		<path class="st7" d="M423.8,334.8l11.3-47.9c1.1-5.8-4.2-5.6-10-6.7c-5.8-1.1-8.5-0.6-11.1,2.7L402,334.8H423.8z"/>
		<path class="st7" d="M346.7,336.4l7.9-27c1.1-5.8-2.8-11.4-8.6-12.5c-5.8-1.1-11.4,2.8-12.5,8.6l-8.6,30.9H346.7z"/>
		<g>
			<g>
				<path class="st1" d="M485.1,327.1c0,0.7-0.6,1.3-1.3,1.3H261.2c-0.7,0-1.3-0.6-1.3-1.3c0-0.7,0.6-1.3,1.3-1.3h222.6
					C484.5,325.8,485.1,326.4,485.1,327.1z"/>
			</g>
			<path class="st7" d="M368.5,327.1c0,2.2-1.8,4-4,4s-4-1.8-4-4s1.8-4,4-4S368.5,324.9,368.5,327.1z"/>
			<path class="st11" d="M361.8,325.8v2.6H261.2c-0.7,0-1.3-0.6-1.3-1.3c0-0.7,0.6-1.3,1.3-1.3H361.8z"/>
		</g>
		<polyline class="st11" points="414,283.3 426.6,290.2 423.3,313.9 417.7,314.7 420,297.6 411.1,294.1 		"/>
		<path class="st7" d="M416.5,291.4L416.5,291.4c-1.4-0.5-2.1-2.1-1.6-3.4l3.2-8.9c0.5-1.4,2.1-2.1,3.4-1.6h0
			c1.4,0.5,2.1,2.1,1.6,3.4l-3.2,8.9C419.4,291.2,417.9,291.9,416.5,291.4z"/>
		<path class="st7" d="M419.7,294L419.7,294c-1.4-0.5-2.1-2.1-1.6-3.5l3.8-10.4c0.5-1.4,2.1-2.1,3.5-1.6l0,0
			c1.4,0.5,2.1,2.1,1.6,3.5l-3.8,10.4C422.7,293.8,421.1,294.5,419.7,294z"/>
		<path class="st7" d="M424.1,295.5L424.1,295.5c-1.4-0.5-2.1-2.1-1.6-3.5l3.8-10.4c0.5-1.4,2.1-2.1,3.5-1.6h0
			c1.4,0.5,2.1,2.1,1.6,3.5l-3.8,10.4C427,295.3,425.5,296,424.1,295.5z"/>
		<path class="st7" d="M428.5,294.6L428.5,294.6c-1.2-0.4-1.8-1.8-1.4-2.9l3.2-8.8c0.4-1.2,1.8-1.8,2.9-1.4l0,0
			c1.2,0.4,1.8,1.8,1.4,2.9l-3.2,8.8C431,294.4,429.7,295,428.5,294.6z"/>
	</g>
</g>
</svg>
