<?xml version="1.0" encoding="utf-8"?>
<!-- Generator: Adobe Illustrator 21.1.0, SVG Export Plug-In . SVG Version: 6.00 Build 0)  -->
<svg version="1.0" id="图层_1" xmlns="http://www.w3.org/2000/svg" xmlns:xlink="http://www.w3.org/1999/xlink" x="0px" y="0px"
	 width="40px" height="40px" xml:space="preserve">
<style type="text/css">
	.st0{fill:#8A8A8A;}
</style>
<path class="st0" d="M14.1,26.1l6,6.3l6-6.3c1.2-0.9,2.1-2.1,2.8-3.4c0.7-1.4,1.1-2.9,1.1-4.5c0-2.6-1-5.1-2.9-7s-4.4-2.9-7-2.9
	c-2.7,0-5.1,1-7,2.9s-2.9,4.4-2.9,7c0,1.6,0.4,3.1,1.1,4.5C11.9,24,12.9,25.2,14.1,26.1z M20.1,10.7c4.2,0,7.5,3.4,7.5,7.5
	c0,1.2-0.3,2.3-0.8,3.4c-0.5,1-1.3,1.9-2.2,2.6l-0.1,0.1l-4.4,4.6l-4.4-4.6l-0.1-0.1c-0.9-0.7-1.7-1.6-2.2-2.6
	c-0.5-1.1-0.8-2.2-0.8-3.4C12.6,14.1,16,10.7,20.1,10.7z M20.1,23.1c2.9,0,5.2-2.3,5.2-5.2s-2.3-5.2-5.2-5.2s-5.2,2.3-5.2,5.2
	C14.9,20.8,17.2,23.1,20.1,23.1z M20.1,14c2.2,0,4,1.8,4,3.9c0,2.2-1.8,3.9-4,3.9s-4-1.8-4-3.9C16.2,15.7,17.9,14,20.1,14z
	 M29.8,25.1C29.6,25,29.4,25,29.2,25c-0.7,0-1.2,0.6-1.2,1.2c0,0.7,0.5,1.2,1.2,1.2c2.5,1.1,4,2.7,4,4.2c0,1.4-1.3,2.9-3.5,4
	c-2.5,1.3-5.9,2-9.5,2s-7-0.7-9.5-2c-2.2-1.1-3.5-2.6-3.5-4c0-0.7,0.3-1.4,1-2.1c0.7-0.8,1.7-1.5,3-2.1c0.4-0.2,0.8-0.6,0.8-1.1
	c0-0.7-0.5-1.2-1.2-1.2c-0.2,0-0.4,0-0.5,0.1l0,0c-1.6,0.7-2.9,1.6-3.8,2.6c-1,1.1-1.6,2.4-1.6,3.8c0,2.4,1.7,4.6,4.8,6.1
	c2.8,1.4,6.6,2.2,10.6,2.2s7.7-0.8,10.6-2.2c3.1-1.6,4.8-3.7,4.8-6.1C35.5,29.1,33.5,26.7,29.8,25.1z"/>
</svg>
