<?xml version="1.0" encoding="utf-8"?>
<!-- Generator: Adobe Illustrator 21.1.0, SVG Export Plug-In . SVG Version: 6.00 Build 0)  -->
<svg version="1.0" id="图层_1" xmlns="http://www.w3.org/2000/svg" xmlns:xlink="http://www.w3.org/1999/xlink" x="0px" y="0px"
	 width="40px" height="40px" xml:space="preserve">
<style type="text/css">
	.st0{fill:#8A8A8A;}
</style>
<path class="st0" d="M35.2,39l0.8-0.8H7.3c-1.4,0-2.5-1.1-2.5-2.6V11.8l-0.9,0.8h28.8c1.4,0,2.5,1.1,2.5,2.6v2.1
	c0,0.5,0.4,0.8,0.8,0.8c0.5,0,0.8-0.4,0.8-0.8v-2.1c0-2.4-1.9-4.2-4.2-4.2H3.1v24.7c0,2.4,1.9,4.2,4.2,4.2h29.6V23.2
	c0-0.5-0.4-0.8-0.8-0.8c-0.5,0-0.8,0.4-0.8,0.8L35.2,39L35.2,39z M20,26.9c0.3,0.2,0.6,0.2,0.9,0.1l15.3-8.4
	c0.4-0.2,0.6-0.7,0.3-1.2c-0.2-0.4-0.7-0.6-1.2-0.3L20,25.5l0.9,0.1L9.5,17.2c-0.4-0.3-0.9-0.2-1.2,0.2s-0.2,0.9,0.2,1.2L20,26.9
	L20,26.9z"/>
</svg>
