<?xml version="1.0" encoding="utf-8"?>
<!-- Generator: Adobe Illustrator 21.1.0, SVG Export Plug-In . SVG Version: 6.00 Build 0)  -->
<svg version="1.0" id="图层_1" xmlns="http://www.w3.org/2000/svg" xmlns:xlink="http://www.w3.org/1999/xlink" x="0px" y="0px"
	 width="40px" height="40px" xml:space="preserve">
<style type="text/css">
	.st0{fill:#8A8A8A;}
</style>
<path class="st0" d="M36.4,20.5c-2.7,3.8-5.7,0.2-6.4-0.9c-0.7-1.1-5-5.3-10-5.3c-5.9,0-9.4,4.4-10,5.5c-0.7,1.1-3.7,4.8-6.4,0.9
	C2.6,19.4,0.8,8.8,20,8.8S37.4,19.3,36.4,20.5L36.4,20.5L36.4,20.5z M20,10.6c-17.5,0-15.4,8.2-14.6,9.1c1.3,1.6,2.5-0.2,3.7-1.8
	c0.9-1.2,4.8-5.5,11-5.5l0,0c5.2,0,10.1,4.4,10.9,5.4c1.1,1.3,2.7,3.4,3.6,1.8C35.3,18.6,37.4,10.6,20,10.6L20,10.6L20,10.6z
	 M20,16.1c7.9,0,13.7,12.2,13.7,18.3c0,5.4-1.8,5.5-13.7,5.5S6.3,39.8,6.3,34.4C6.3,28.5,12.1,16.1,20,16.1L20,16.1z M20,38
	c10.3,0,11.9-0.1,11.9-4.6c0-4.1-5-15.5-11.9-15.5S8.1,29.3,8.1,33.4C8.2,37.9,9.7,38,20,38L20,38z M20,21.6c2.5,0,4.6,2,4.6,4.6
	c0,2.5-2,4.6-4.6,4.6s-4.6-2-4.6-4.6C15.5,23.6,17.5,21.6,20,21.6L20,21.6z M20,28.9c1.5,0,2.7-1.2,2.7-2.7s-1.2-2.7-2.7-2.7
	s-2.7,1.2-2.7,2.7C17.3,27.6,18.5,28.9,20,28.9z"/>
</svg>
