<?xml version="1.0" encoding="UTF-8"?>
<svg xmlns="http://www.w3.org/2000/svg" xmlns:xlink="http://www.w3.org/1999/xlink" width="1240pt" height="1240pt" viewBox="0 0 1240 1240" version="1.1">
<defs>
<linearGradient id="linear0" gradientUnits="userSpaceOnUse" x1="311.8392" y1="333.3831" x2="407.6357" y2="333.3831" gradientTransform="matrix(11.81968,3.74976,-3.74976,11.81968,-2325.88784,-4657.533)">
<stop offset="0" style="stop-color:rgb(53.333333%,12.156863%,100%);stop-opacity:1;"/>
<stop offset="0.2415" style="stop-color:rgb(63.137255%,23.137255%,90.588235%);stop-opacity:1;"/>
<stop offset="0.7609" style="stop-color:rgb(87.843137%,51.764706%,66.666667%);stop-opacity:1;"/>
<stop offset="1" style="stop-color:rgb(100%,65.490196%,54.901961%);stop-opacity:1;"/>
</linearGradient>
</defs>
<g id="surface1">
<path style=" stroke:none;fill-rule:nonzero;fill:url(#linear0);" d="M 677.289062 184.882812 C 677.410156 185.007812 677.410156 185.007812 677.535156 185.132812 C 677.660156 185.257812 677.90625 185.503906 678.03125 185.628906 C 678.15625 185.753906 678.402344 186 678.527344 186.125 C 678.652344 186.246094 678.898438 186.496094 679.023438 186.621094 C 679.148438 186.742188 679.394531 186.992188 679.519531 187.117188 C 679.644531 187.238281 679.890625 187.488281 680.015625 187.613281 C 680.140625 187.734375 680.386719 187.984375 680.511719 188.109375 C 680.636719 188.230469 680.882812 188.480469 681.007812 188.605469 C 681.132812 188.726562 681.378906 188.976562 681.503906 189.101562 C 681.628906 189.222656 681.875 189.472656 682 189.597656 C 682.125 189.71875 682.371094 189.96875 682.496094 190.09375 C 682.621094 190.214844 682.867188 190.464844 682.992188 190.589844 C 683.117188 190.710938 683.363281 190.960938 683.488281 191.085938 C 683.613281 191.207031 683.859375 191.457031 683.984375 191.578125 C 684.109375 191.703125 684.355469 191.953125 684.480469 192.074219 C 684.605469 192.199219 684.851562 192.449219 684.976562 192.570312 C 685.101562 192.695312 685.347656 192.945312 685.472656 193.066406 C 685.597656 193.191406 685.84375 193.441406 686.09375 193.5625 C 686.214844 193.6875 686.464844 193.9375 686.589844 194.058594 C 686.835938 194.183594 686.960938 194.433594 687.207031 194.679688 C 687.332031 194.804688 687.578125 195.050781 687.703125 195.175781 C 687.953125 195.425781 688.074219 195.546875 688.324219 195.796875 C 688.449219 195.921875 688.695312 196.167969 688.820312 196.292969 C 688.945312 196.414062 689.191406 196.664062 689.316406 196.789062 C 689.441406 196.910156 689.6875 197.160156 689.8125 197.285156 C 689.9375 197.53125 690.183594 197.65625 690.433594 197.902344 C 690.554688 198.027344 690.804688 198.277344 690.929688 198.398438 C 691.050781 198.523438 691.300781 198.773438 691.546875 198.894531 C 691.671875 199.019531 691.921875 199.269531 692.042969 199.390625 C 692.292969 199.515625 692.414062 199.765625 692.664062 200.011719 C 692.789062 200.136719 693.035156 200.382812 693.160156 200.507812 C 693.40625 200.757812 693.53125 200.878906 693.78125 201.128906 C 693.902344 201.253906 694.152344 201.5 694.277344 201.625 C 694.398438 201.746094 694.648438 201.996094 694.773438 202.121094 C 694.894531 202.242188 695.144531 202.492188 695.269531 202.617188 C 695.390625 202.863281 695.640625 202.988281 695.886719 203.234375 C 696.011719 203.359375 696.261719 203.609375 696.382812 203.730469 C 696.507812 203.980469 696.757812 204.105469 697.003906 204.351562 C 697.128906 204.476562 697.375 204.722656 697.5 204.847656 C 697.625 204.972656 697.871094 205.21875 698.121094 205.46875 C 698.242188 205.59375 698.492188 205.839844 698.617188 205.964844 C 698.863281 206.210938 698.988281 206.335938 699.234375 206.585938 C 699.359375 206.707031 699.609375 206.957031 699.730469 207.078125 C 699.980469 207.328125 700.105469 207.453125 700.351562 207.699219 C 700.476562 207.824219 700.722656 208.070312 700.847656 208.195312 C 700.972656 208.320312 701.21875 208.566406 701.46875 208.816406 C 701.59375 208.941406 701.839844 209.1875 701.964844 209.3125 C 702.089844 209.558594 702.335938 209.683594 702.585938 209.933594 C 702.707031 210.054688 702.957031 210.304688 703.078125 210.429688 C 703.203125 210.550781 703.453125 210.800781 703.699219 210.925781 C 703.824219 211.046875 704.070312 211.296875 704.195312 211.421875 C 704.320312 211.542969 704.566406 211.792969 704.691406 211.914062 C 704.816406 212.039062 705.0625 212.289062 705.1875 212.410156 C 705.3125 212.535156 705.558594 212.785156 705.683594 212.90625 C 705.808594 213.03125 706.054688 213.28125 706.179688 213.402344 C 706.304688 213.527344 706.550781 213.777344 706.675781 213.898438 C 706.800781 214.023438 707.046875 214.273438 707.171875 214.394531 C 707.296875 214.519531 707.542969 214.769531 707.667969 214.890625 C 707.792969 215.015625 708.039062 215.265625 708.164062 215.386719 C 708.289062 215.511719 708.535156 215.761719 708.660156 215.882812 C 708.785156 216.007812 709.03125 216.257812 709.15625 216.378906 C 709.28125 216.503906 709.527344 216.753906 709.652344 216.875 C 709.777344 217 710.023438 217.246094 710.148438 217.371094 C 710.273438 217.496094 710.519531 217.742188 710.644531 217.867188 C 710.769531 217.992188 711.015625 218.238281 711.140625 218.363281 C 711.265625 218.488281 711.511719 218.734375 711.636719 218.859375 C 711.761719 218.984375 712.007812 219.230469 712.132812 219.355469 C 712.257812 219.480469 712.503906 219.726562 712.628906 219.851562 C 712.753906 219.976562 713 220.222656 713.125 220.347656 C 713.246094 220.472656 713.496094 220.71875 713.621094 220.84375 C 713.742188 220.96875 713.992188 221.214844 714.117188 221.339844 C 714.238281 221.464844 714.488281 221.710938 714.613281 221.835938 C 714.734375 221.960938 714.984375 222.207031 715.109375 222.332031 C 715.230469 222.457031 715.480469 222.703125 715.605469 222.828125 C 715.726562 222.953125 715.976562 223.199219 716.101562 223.324219 C 716.222656 223.449219 716.472656 223.695312 716.597656 223.820312 C 716.71875 223.945312 716.96875 224.191406 717.09375 224.316406 C 717.214844 224.441406 717.464844 224.6875 717.589844 224.8125 C 717.710938 224.9375 717.960938 225.183594 718.085938 225.308594 C 718.207031 225.433594 718.457031 225.679688 718.578125 225.804688 C 718.703125 225.929688 718.953125 226.175781 719.074219 226.300781 C 719.199219 226.425781 719.449219 226.671875 719.570312 226.796875 C 719.695312 226.921875 719.945312 227.167969 720.066406 227.292969 C 720.191406 227.414062 720.441406 227.664062 720.5625 227.789062 C 720.6875 227.910156 720.9375 228.160156 721.058594 228.285156 C 721.183594 228.40625 721.433594 228.65625 721.554688 228.78125 C 721.679688 228.902344 721.929688 229.152344 722.175781 229.277344 C 722.300781 229.398438 722.546875 229.648438 722.671875 229.773438 C 722.921875 229.894531 723.042969 230.144531 723.292969 230.390625 C 723.414062 230.515625 723.664062 230.765625 723.789062 230.886719 C 724.035156 231.136719 724.160156 231.261719 724.40625 231.507812 C 724.53125 231.632812 724.78125 231.878906 724.902344 232.003906 C 725.027344 232.128906 725.277344 232.375 725.398438 232.5 C 725.523438 232.625 725.773438 232.871094 725.894531 232.996094 C 726.019531 233.242188 726.269531 233.367188 726.515625 233.617188 C 726.640625 233.738281 726.886719 233.988281 727.011719 234.113281 C 727.136719 234.234375 727.382812 234.484375 727.632812 234.609375 C 727.757812 234.730469 728.003906 234.980469 728.128906 235.105469 C 728.375 235.226562 728.5 235.476562 728.746094 235.722656 C 728.871094 235.847656 729.121094 236.097656 729.242188 236.21875 C 729.492188 236.46875 729.617188 236.59375 729.863281 236.839844 C 729.988281 236.964844 730.234375 237.210938 730.359375 237.335938 C 730.484375 237.460938 730.730469 237.707031 730.855469 237.832031 C 730.980469 237.957031 731.226562 238.203125 731.351562 238.328125 C 731.476562 238.574219 731.722656 238.699219 731.972656 238.949219 C 732.097656 239.070312 732.34375 239.320312 732.46875 239.445312 C 732.59375 239.691406 732.839844 239.816406 733.089844 240.0625 C 733.210938 240.1875 733.460938 240.4375 733.585938 240.558594 C 733.707031 240.683594 733.957031 240.933594 734.203125 241.179688 C 734.328125 241.304688 734.574219 241.550781 734.699219 241.675781 C 734.949219 241.925781 735.070312 242.046875 735.320312 242.296875 C 735.445312 242.421875 735.691406 242.667969 735.816406 242.792969 C 736.0625 243.039062 736.1875 243.164062 736.4375 243.410156 C 736.558594 243.535156 736.808594 243.785156 736.933594 243.90625 C 737.054688 244.03125 737.304688 244.28125 737.550781 244.527344 C 737.675781 244.652344 737.925781 244.898438 738.046875 245.023438 C 738.171875 245.273438 738.421875 245.394531 738.667969 245.644531 C 738.792969 245.769531 739.039062 246.015625 739.164062 246.140625 C 739.289062 246.265625 739.535156 246.511719 739.785156 246.636719 C 739.90625 246.761719 740.15625 247.007812 740.28125 247.132812 C 740.402344 247.257812 740.652344 247.503906 740.777344 247.628906 C 740.898438 247.753906 741.148438 248 741.273438 248.125 C 741.394531 248.246094 741.644531 248.496094 741.769531 248.621094 C 741.890625 248.742188 742.140625 248.992188 742.265625 249.117188 C 742.386719 249.238281 742.636719 249.488281 742.761719 249.613281 C 742.882812 249.734375 743.132812 249.984375 743.257812 250.109375 C 743.378906 250.230469 743.628906 250.480469 743.753906 250.605469 C 743.875 250.726562 744.125 250.976562 744.246094 251.101562 C 744.371094 251.222656 744.621094 251.472656 744.742188 251.597656 C 744.867188 251.71875 745.117188 251.96875 745.238281 252.09375 C 745.363281 252.214844 745.613281 252.464844 745.734375 252.589844 C 745.859375 252.710938 746.109375 252.960938 746.230469 253.085938 C 746.355469 253.207031 746.605469 253.457031 746.726562 253.578125 C 746.851562 253.703125 747.101562 253.953125 747.222656 254.074219 C 747.347656 254.199219 747.597656 254.449219 747.71875 254.570312 C 747.84375 254.695312 748.09375 254.945312 748.214844 255.066406 C 748.339844 255.191406 748.589844 255.441406 748.710938 255.5625 C 748.835938 255.6875 749.085938 255.9375 749.207031 256.058594 C 749.332031 256.183594 749.578125 256.433594 749.703125 256.554688 C 749.828125 256.679688 750.074219 256.929688 750.199219 257.050781 C 750.324219 257.175781 750.570312 257.425781 750.695312 257.546875 C 750.820312 257.671875 751.066406 257.921875 751.191406 258.042969 C 751.316406 258.167969 751.5625 258.414062 751.6875 258.539062 C 751.8125 258.664062 752.058594 258.910156 752.183594 259.035156 C 752.308594 259.160156 752.554688 259.40625 752.679688 259.53125 C 752.804688 259.65625 753.050781 259.902344 753.175781 260.027344 C 753.300781 260.152344 753.546875 260.398438 753.671875 260.523438 C 753.796875 260.648438 754.042969 260.894531 754.167969 261.019531 C 754.292969 261.144531 754.539062 261.390625 754.664062 261.515625 C 754.789062 261.640625 755.035156 261.886719 755.160156 262.011719 C 755.285156 262.136719 755.53125 262.382812 755.65625 262.507812 C 755.78125 262.632812 756.027344 262.878906 756.152344 263.003906 C 756.277344 263.128906 756.523438 263.375 756.648438 263.5 C 756.773438 263.625 757.019531 263.871094 757.144531 263.996094 C 757.269531 264.121094 757.515625 264.367188 757.640625 264.492188 C 757.765625 264.617188 758.011719 264.863281 758.261719 264.988281 C 758.382812 265.113281 758.632812 265.359375 758.757812 265.484375 C 759.003906 265.609375 759.128906 265.855469 759.375 266.105469 C 759.5 266.226562 759.746094 266.476562 759.871094 266.601562 C 760.121094 266.847656 760.242188 266.972656 760.492188 267.21875 C 760.617188 267.34375 760.863281 267.59375 760.988281 267.714844 C 761.113281 267.839844 761.359375 268.089844 761.484375 268.210938 C 761.609375 268.335938 761.855469 268.585938 761.980469 268.707031 C 762.105469 268.957031 762.351562 269.078125 762.601562 269.328125 C 762.722656 269.453125 762.972656 269.699219 763.097656 269.824219 C 763.21875 269.949219 763.46875 270.195312 763.714844 270.320312 C 799.925781 306.402344 822.367188 356.375 822.367188 411.433594 C 822.367188 473.554688 793.847656 528.859375 749.332031 565.441406 C 707.667969 542.871094 660.050781 530.101562 609.585938 530.101562 L 464.007812 530.101562 C 463.882812 529.976562 463.761719 529.851562 463.511719 529.605469 C 463.386719 529.480469 463.140625 529.230469 463.015625 529.109375 C 462.890625 528.984375 462.644531 528.734375 462.519531 528.613281 C 462.394531 528.488281 462.148438 528.238281 462.023438 528.117188 C 461.898438 527.992188 461.652344 527.742188 461.527344 527.621094 C 461.402344 527.496094 461.15625 527.246094 461.03125 527.125 C 460.90625 526.875 460.660156 526.753906 460.410156 526.628906 C 460.289062 526.503906 460.039062 526.257812 459.914062 526.132812 C 459.792969 526.007812 459.542969 525.761719 459.296875 525.636719 C 459.171875 525.511719 458.925781 525.265625 458.800781 525.140625 C 458.675781 525.015625 458.429688 524.769531 458.179688 524.519531 C 458.054688 524.394531 457.808594 524.148438 457.683594 524.023438 C 457.4375 523.777344 457.3125 523.652344 457.0625 523.402344 C 456.941406 523.28125 456.691406 523.03125 456.566406 522.90625 C 456.320312 522.785156 456.195312 522.535156 455.949219 522.410156 C 455.824219 522.289062 455.574219 522.039062 455.453125 521.914062 C 455.328125 521.667969 455.078125 521.542969 454.957031 521.296875 C 454.832031 521.171875 454.585938 520.925781 454.460938 520.800781 C 454.335938 520.675781 454.089844 520.429688 453.839844 520.304688 C 453.714844 520.179688 453.46875 519.933594 453.34375 519.808594 C 453.21875 519.683594 452.972656 519.4375 452.722656 519.1875 C 452.601562 519.0625 452.351562 518.816406 452.226562 518.691406 C 451.980469 518.445312 451.855469 518.320312 451.609375 518.070312 C 451.484375 517.949219 451.234375 517.699219 451.113281 517.574219 C 450.863281 517.453125 450.738281 517.203125 450.492188 517.078125 C 450.367188 516.957031 450.121094 516.707031 449.996094 516.585938 C 449.871094 516.335938 449.625 516.210938 449.5 515.964844 C 449.375 515.839844 449.128906 515.59375 449.003906 515.46875 C 448.878906 515.21875 448.632812 515.097656 448.382812 514.847656 C 448.261719 514.722656 448.011719 514.476562 447.886719 514.351562 C 447.765625 514.226562 447.515625 513.980469 447.269531 513.730469 C 447.144531 513.609375 446.894531 513.359375 446.773438 513.234375 C 446.523438 512.988281 446.398438 512.863281 446.152344 512.617188 C 446.027344 512.492188 445.78125 512.242188 445.65625 512.121094 C 445.40625 511.871094 445.285156 511.746094 445.035156 511.5 C 444.910156 511.375 444.664062 511.128906 444.539062 511.003906 C 444.414062 510.878906 444.167969 510.632812 444.042969 510.382812 C 443.921875 510.261719 443.671875 510.011719 443.546875 509.886719 C 443.425781 509.640625 443.175781 509.515625 442.929688 509.269531 C 442.804688 509.144531 442.554688 508.894531 442.433594 508.773438 C 442.308594 508.648438 442.058594 508.398438 441.9375 508.277344 C 441.8125 508.152344 441.5625 507.902344 441.441406 507.78125 C 441.316406 507.65625 441.066406 507.40625 440.945312 507.285156 C 440.820312 507.160156 440.570312 506.910156 440.449219 506.789062 C 440.324219 506.664062 440.074219 506.414062 439.953125 506.292969 C 439.828125 506.167969 439.578125 505.921875 439.457031 505.796875 C 439.332031 505.671875 439.085938 505.425781 438.960938 505.300781 C 438.835938 505.175781 438.589844 504.929688 438.464844 504.804688 C 438.339844 504.679688 438.09375 504.433594 437.96875 504.308594 C 437.84375 504.183594 437.597656 503.9375 437.472656 503.8125 C 437.347656 503.6875 437.101562 503.441406 436.976562 503.316406 C 436.851562 503.191406 436.605469 502.945312 436.480469 502.820312 C 436.355469 502.695312 436.109375 502.449219 435.984375 502.324219 C 435.859375 502.199219 435.613281 501.953125 435.488281 501.828125 C 435.363281 501.703125 435.117188 501.457031 434.992188 501.332031 C 434.867188 501.207031 434.621094 500.960938 434.496094 500.835938 C 434.371094 500.710938 434.125 500.464844 434 500.339844 C 433.875 500.214844 433.628906 499.96875 433.503906 499.84375 C 433.378906 499.71875 433.132812 499.472656 433.007812 499.347656 C 432.882812 499.222656 432.636719 498.976562 432.511719 498.851562 C 432.386719 498.726562 432.140625 498.480469 432.015625 498.355469 C 431.890625 498.230469 431.644531 497.984375 431.519531 497.859375 C 431.394531 497.734375 431.148438 497.488281 431.023438 497.363281 C 430.898438 497.238281 430.652344 496.992188 430.527344 496.867188 C 430.402344 496.742188 430.15625 496.496094 430.03125 496.371094 C 429.90625 496.246094 429.660156 496 429.535156 495.875 C 429.410156 495.753906 429.164062 495.503906 429.039062 495.378906 C 428.914062 495.257812 428.667969 495.007812 428.542969 494.882812 C 428.421875 494.761719 428.171875 494.511719 428.046875 494.386719 C 427.925781 494.265625 427.675781 494.015625 427.550781 493.890625 C 427.429688 493.769531 427.179688 493.519531 427.054688 493.394531 C 426.933594 493.273438 426.683594 493.023438 426.558594 492.898438 C 426.4375 492.777344 426.1875 492.527344 426.0625 492.402344 C 425.941406 492.28125 425.691406 492.03125 425.566406 491.90625 C 425.445312 491.785156 425.195312 491.535156 425.070312 491.410156 C 424.949219 491.164062 424.699219 491.039062 424.453125 490.914062 C 424.328125 490.792969 424.078125 490.542969 423.957031 490.421875 C 423.832031 490.296875 423.585938 490.046875 423.335938 489.925781 C 423.210938 489.800781 422.964844 489.550781 422.839844 489.429688 C 422.714844 489.304688 422.46875 489.054688 422.21875 488.808594 C 422.097656 488.683594 421.847656 488.4375 421.722656 488.3125 C 421.476562 488.0625 421.351562 487.941406 421.105469 487.691406 C 420.980469 487.566406 420.730469 487.320312 420.609375 487.195312 C 420.359375 487.070312 420.234375 486.824219 419.988281 486.699219 C 419.863281 486.574219 419.617188 486.328125 419.492188 486.203125 C 419.367188 485.957031 419.121094 485.832031 418.996094 485.585938 C 418.871094 485.460938 418.625 485.210938 418.5 485.089844 C 418.375 484.964844 418.128906 484.714844 417.878906 484.59375 C 417.757812 484.46875 417.507812 484.21875 417.382812 484.097656 C 417.261719 483.972656 417.011719 483.722656 416.765625 483.476562 C 416.640625 483.351562 416.390625 483.105469 416.269531 482.980469 C 416.019531 482.730469 415.894531 482.609375 415.648438 482.359375 C 415.523438 482.234375 415.277344 481.988281 415.152344 481.863281 C 414.902344 481.738281 414.78125 481.492188 414.53125 481.367188 C 414.40625 481.242188 414.160156 480.996094 414.035156 480.871094 C 413.910156 480.625 413.664062 480.5 413.539062 480.253906 C 413.414062 480.128906 413.167969 479.878906 413.042969 479.757812 C 412.921875 479.507812 412.671875 479.382812 412.425781 479.136719 C 412.300781 479.011719 412.050781 478.765625 411.929688 478.640625 C 411.804688 478.515625 411.554688 478.269531 411.308594 478.019531 C 411.183594 477.894531 410.9375 477.648438 410.8125 477.523438 C 410.5625 477.277344 410.441406 477.152344 410.191406 476.902344 C 410.066406 476.78125 409.820312 476.53125 409.695312 476.40625 C 409.449219 476.160156 409.324219 476.035156 409.074219 475.789062 C 408.953125 475.664062 408.703125 475.414062 408.578125 475.292969 C 408.457031 475.167969 408.207031 474.921875 408.085938 474.671875 C 407.960938 474.546875 407.710938 474.300781 407.589844 474.175781 C 407.464844 473.929688 407.214844 473.804688 406.96875 473.554688 C 406.84375 473.433594 406.597656 473.183594 406.472656 473.058594 C 406.347656 472.9375 406.101562 472.6875 405.976562 472.5625 C 405.851562 472.441406 405.605469 472.191406 405.480469 472.066406 C 405.355469 471.945312 405.109375 471.695312 404.984375 471.570312 C 404.859375 471.449219 404.613281 471.199219 404.488281 471.074219 C 404.363281 470.953125 404.117188 470.703125 403.992188 470.578125 C 403.867188 470.457031 403.621094 470.207031 403.496094 470.085938 C 403.371094 469.960938 403.125 469.710938 403 469.589844 C 402.875 469.464844 402.628906 469.214844 402.503906 469.09375 C 402.378906 468.96875 402.132812 468.71875 402.007812 468.597656 C 401.882812 468.472656 401.636719 468.222656 401.511719 468.101562 C 401.386719 467.976562 401.140625 467.726562 401.015625 467.605469 C 400.890625 467.480469 400.644531 467.230469 400.519531 467.109375 C 400.394531 466.984375 400.148438 466.734375 400.023438 466.613281 C 399.898438 466.488281 399.652344 466.238281 399.527344 466.117188 C 399.402344 465.992188 399.15625 465.742188 399.03125 465.621094 C 398.90625 465.496094 398.660156 465.246094 398.535156 465.125 C 398.410156 465 398.410156 465 398.289062 464.875 C 430.402344 486.078125 468.84375 498.480469 510.136719 498.480469 C 622.355469 498.480469 713.621094 407.214844 713.621094 294.996094 C 710.890625 255.441406 698.492188 217 677.289062 184.882812 Z M 1067.886719 259.40625 C 1067.765625 259.285156 1067.515625 259.035156 1067.390625 258.910156 C 1067.269531 258.789062 1067.144531 258.664062 1066.894531 258.414062 C 1066.773438 258.292969 1066.523438 258.042969 1066.398438 257.921875 C 1066.277344 257.796875 1066.152344 257.671875 1065.902344 257.425781 C 1065.78125 257.300781 1065.53125 257.050781 1065.40625 256.929688 C 1065.285156 256.804688 1065.160156 256.679688 1064.910156 256.433594 C 1064.789062 256.308594 1064.539062 256.058594 1064.414062 255.9375 C 1064.292969 255.8125 1064.167969 255.6875 1063.921875 255.441406 C 1063.796875 255.316406 1063.546875 255.066406 1063.425781 254.945312 C 1063.300781 254.820312 1063.175781 254.695312 1062.929688 254.449219 C 1062.804688 254.324219 1062.554688 254.074219 1062.433594 253.953125 C 1062.308594 253.828125 1062.183594 253.703125 1061.9375 253.457031 C 1061.8125 253.332031 1061.5625 253.085938 1061.441406 252.960938 C 1061.316406 252.835938 1061.191406 252.710938 1060.945312 252.464844 C 1060.820312 252.339844 1060.570312 252.09375 1060.449219 251.96875 C 1060.324219 251.84375 1060.199219 251.71875 1059.953125 251.472656 C 1059.828125 251.347656 1059.578125 251.101562 1059.457031 250.976562 C 1059.332031 250.851562 1059.085938 250.605469 1058.960938 250.480469 C 1058.835938 250.355469 1058.710938 250.109375 1058.464844 249.984375 C 1058.339844 249.859375 1058.09375 249.734375 1057.96875 249.488281 C 1057.84375 249.363281 1057.71875 249.117188 1057.472656 248.992188 C 1057.347656 248.867188 1057.101562 248.742188 1056.976562 248.496094 C 1056.851562 248.371094 1056.605469 248.125 1056.480469 248 C 1056.355469 247.875 1056.109375 247.628906 1055.984375 247.503906 C 1055.859375 247.378906 1055.613281 247.132812 1055.488281 247.007812 C 1055.363281 246.882812 1055.238281 246.761719 1054.992188 246.511719 C 1054.867188 246.386719 1054.621094 246.140625 1054.496094 246.015625 C 1054.371094 245.890625 1054.125 245.644531 1054 245.519531 C 1053.875 245.394531 1053.628906 245.148438 1053.503906 245.023438 C 1053.378906 244.898438 1053.132812 244.652344 1053.007812 244.527344 C 1052.882812 244.402344 1052.761719 244.15625 1052.511719 244.03125 C 1052.386719 243.90625 1052.140625 243.785156 1052.015625 243.535156 C 1051.890625 243.410156 1051.769531 243.164062 1051.519531 243.039062 C 1051.394531 242.914062 1051.148438 242.667969 1051.023438 242.542969 C 1050.898438 242.421875 1050.652344 242.171875 1050.527344 242.046875 C 1050.402344 241.925781 1050.28125 241.675781 1050.03125 241.550781 C 1049.90625 241.429688 1049.660156 241.179688 1049.535156 241.054688 C 1049.410156 240.933594 1049.289062 240.808594 1049.039062 240.558594 C 1048.914062 240.4375 1048.667969 240.1875 1048.542969 240.0625 C 1048.421875 239.941406 1048.171875 239.691406 1048.046875 239.566406 C 1047.925781 239.445312 1047.800781 239.195312 1047.550781 239.070312 C 1047.429688 238.949219 1047.179688 238.699219 1047.054688 238.574219 C 1046.933594 238.453125 1046.808594 238.203125 1046.558594 238.078125 C 1046.4375 237.957031 1046.1875 237.832031 1046.0625 237.585938 C 1045.941406 237.460938 1045.691406 237.210938 1045.566406 237.089844 C 1045.445312 236.964844 1045.320312 236.839844 1045.070312 236.59375 C 1044.949219 236.46875 1044.824219 236.34375 1044.574219 236.097656 C 1044.453125 235.972656 1044.203125 235.722656 1044.078125 235.601562 C 1043.957031 235.476562 1043.832031 235.351562 1043.585938 235.105469 C 1043.460938 234.980469 1043.210938 234.730469 1043.089844 234.609375 C 1042.964844 234.484375 1042.839844 234.359375 1042.59375 234.113281 C 1042.46875 233.988281 1042.21875 233.738281 1042.097656 233.617188 C 1041.972656 233.492188 1041.847656 233.367188 1041.601562 233.121094 C 1041.476562 232.996094 1041.226562 232.746094 1041.105469 232.625 C 1040.980469 232.5 1040.855469 232.375 1040.609375 232.128906 C 1040.484375 232.003906 1040.234375 231.757812 1040.113281 231.632812 C 1039.988281 231.507812 1039.863281 231.382812 1039.617188 231.136719 C 1039.492188 231.011719 1039.242188 230.765625 1039.121094 230.640625 C 1038.996094 230.515625 1038.871094 230.390625 1038.625 230.144531 C 1038.5 230.019531 1038.253906 229.773438 1038.128906 229.648438 C 1038.003906 229.523438 1037.878906 229.398438 1037.632812 229.152344 C 1037.507812 229.027344 1037.261719 228.78125 1037.136719 228.65625 C 1037.011719 228.53125 1036.886719 228.40625 1036.640625 228.160156 C 1036.515625 228.035156 1036.269531 227.789062 1036.144531 227.664062 C 1036.019531 227.539062 1035.894531 227.414062 1035.648438 227.167969 C 1035.523438 227.042969 1035.277344 226.796875 1035.152344 226.671875 C 1035.027344 226.546875 1034.902344 226.425781 1034.65625 226.175781 C 1034.53125 226.050781 1034.285156 225.804688 1034.160156 225.679688 C 1034.035156 225.554688 1033.910156 225.433594 1033.664062 225.183594 C 1033.539062 225.058594 1033.292969 224.8125 1033.167969 224.6875 C 1033.042969 224.5625 1032.921875 224.316406 1032.671875 224.191406 C 1032.546875 224.066406 1032.300781 223.820312 1032.175781 223.695312 C 1032.050781 223.570312 1031.929688 223.449219 1031.679688 223.199219 C 1031.554688 223.074219 1031.308594 222.828125 1031.183594 222.703125 C 1031.058594 222.578125 1030.9375 222.457031 1030.6875 222.207031 C 1030.5625 222.085938 1030.316406 221.835938 1030.191406 221.710938 C 1030.066406 221.589844 1029.945312 221.464844 1029.695312 221.214844 C 1029.570312 221.09375 1029.324219 220.84375 1029.199219 220.71875 C 1029.074219 220.597656 1028.953125 220.472656 1028.703125 220.222656 C 1028.578125 220.101562 1028.332031 219.851562 1028.207031 219.726562 C 1028.085938 219.605469 1027.960938 219.480469 1027.710938 219.230469 C 1027.589844 219.109375 1027.339844 218.859375 1027.214844 218.734375 C 1027.09375 218.613281 1026.96875 218.363281 1026.71875 218.238281 C 1026.597656 218.117188 1026.347656 217.992188 1026.222656 217.742188 C 1026.101562 217.621094 1025.976562 217.496094 1025.726562 217.246094 C 1025.605469 217.125 1025.355469 216.875 1025.230469 216.753906 C 1025.109375 216.628906 1024.859375 216.378906 1024.734375 216.257812 C 1024.613281 216.132812 1024.488281 215.882812 1024.238281 215.761719 C 1024.117188 215.636719 1023.867188 215.386719 1023.742188 215.265625 C 1023.621094 215.140625 1023.496094 215.015625 1023.246094 214.769531 C 1023.125 214.644531 1022.875 214.519531 1022.753906 214.273438 C 1022.628906 214.148438 1022.378906 213.898438 1022.257812 213.777344 C 1022.132812 213.652344 1021.882812 213.402344 1021.761719 213.28125 C 1021.636719 213.15625 1021.386719 212.90625 1021.265625 212.785156 C 1021.140625 212.660156 1021.015625 212.410156 1020.769531 212.289062 C 1020.644531 212.164062 1020.394531 212.039062 1020.273438 211.792969 C 1020.148438 211.667969 1019.898438 211.421875 1019.777344 211.296875 C 1019.652344 211.171875 1019.402344 210.925781 1019.28125 210.800781 C 1019.15625 210.675781 1018.90625 210.429688 1018.785156 210.304688 C 1018.660156 210.179688 1018.535156 209.933594 1018.289062 209.808594 C 1018.164062 209.683594 1017.914062 209.4375 1017.792969 209.3125 C 1017.667969 209.1875 1017.542969 208.941406 1017.296875 208.816406 C 1017.171875 208.691406 1016.925781 208.445312 1016.800781 208.320312 C 1016.675781 208.195312 1016.429688 207.949219 1016.304688 207.824219 C 1016.179688 207.699219 1016.054688 207.574219 1015.808594 207.328125 C 1015.683594 207.203125 1015.4375 206.957031 1015.3125 206.832031 C 1015.1875 206.707031 1015.0625 206.460938 1014.816406 206.335938 C 1014.691406 206.210938 1014.445312 205.964844 1014.320312 205.839844 C 1014.195312 205.714844 1013.949219 205.46875 1013.824219 205.34375 C 1013.699219 205.21875 1013.574219 205.097656 1013.328125 204.847656 C 1013.203125 204.722656 1012.957031 204.476562 1012.832031 204.351562 C 1012.707031 204.226562 1012.585938 203.980469 1012.335938 203.855469 C 1012.210938 203.730469 1011.964844 203.484375 1011.839844 203.359375 C 1011.714844 203.234375 1011.46875 202.988281 1011.34375 202.863281 C 1011.21875 202.738281 1011.097656 202.492188 1010.847656 202.367188 C 1010.722656 202.242188 1010.601562 202.121094 1010.351562 201.871094 C 1010.226562 201.746094 1009.980469 201.5 1009.855469 201.375 C 1009.730469 201.253906 1009.609375 201.003906 1009.359375 200.878906 C 1009.234375 200.757812 1008.988281 200.507812 1008.863281 200.382812 C 1008.738281 200.261719 1008.617188 200.136719 1008.367188 199.886719 C 1008.242188 199.765625 1007.996094 199.515625 1007.871094 199.390625 C 1007.746094 199.269531 1007.625 199.144531 1007.375 198.894531 C 1007.253906 198.773438 1007.003906 198.523438 1006.878906 198.398438 C 1006.757812 198.277344 1006.632812 198.152344 1006.382812 197.902344 C 1006.261719 197.78125 1006.011719 197.53125 1005.886719 197.40625 C 1005.765625 197.285156 1005.640625 197.160156 1005.390625 196.910156 C 1005.269531 196.789062 1005.019531 196.539062 1004.894531 196.414062 C 1004.773438 196.292969 1004.648438 196.167969 1004.398438 195.921875 C 1004.277344 195.796875 1004.027344 195.546875 1003.902344 195.425781 C 1003.78125 195.300781 1003.65625 195.175781 1003.40625 194.929688 C 1003.285156 194.804688 1003.035156 194.554688 1002.910156 194.433594 C 1002.789062 194.308594 1002.664062 194.183594 1002.414062 193.9375 C 1002.292969 193.8125 1002.042969 193.5625 1001.921875 193.441406 C 1001.796875 193.316406 1001.671875 193.191406 1001.425781 192.945312 C 1001.300781 192.820312 1001.050781 192.570312 1000.929688 192.449219 C 1000.804688 192.324219 1000.679688 192.199219 1000.433594 191.953125 C 1000.308594 191.828125 1000.058594 191.578125 999.9375 191.457031 C 999.8125 191.332031 999.6875 191.207031 999.441406 190.960938 C 999.316406 190.835938 999.066406 190.589844 998.945312 190.464844 C 998.820312 190.339844 998.695312 190.214844 998.449219 189.96875 C 998.324219 189.84375 998.074219 189.597656 997.953125 189.472656 C 997.828125 189.347656 997.703125 189.222656 997.457031 188.976562 C 997.332031 188.851562 997.085938 188.605469 996.960938 188.480469 C 996.835938 188.355469 996.710938 188.230469 996.464844 187.984375 C 996.339844 187.859375 996.09375 187.613281 995.96875 187.488281 C 995.84375 187.363281 995.71875 187.238281 995.472656 186.992188 C 995.347656 186.867188 995.101562 186.621094 994.976562 186.496094 C 994.851562 186.371094 994.726562 186.246094 994.480469 186 C 994.355469 185.875 994.109375 185.628906 993.984375 185.503906 C 993.859375 185.378906 993.734375 185.132812 993.488281 185.007812 C 993.363281 184.882812 993.117188 184.636719 992.992188 184.511719 C 992.867188 184.386719 992.742188 184.140625 992.496094 184.015625 C 992.371094 183.890625 992.125 183.769531 992 183.519531 C 991.875 183.394531 991.753906 183.148438 991.503906 183.023438 C 991.378906 182.898438 991.132812 182.652344 991.007812 182.527344 C 990.882812 182.402344 990.636719 182.15625 990.511719 182.03125 C 990.386719 181.90625 990.265625 181.660156 990.015625 181.535156 C 989.890625 181.410156 989.644531 181.164062 989.519531 181.039062 C 989.394531 180.914062 989.273438 180.792969 989.023438 180.542969 C 988.898438 180.421875 988.652344 180.171875 988.527344 180.046875 C 988.402344 179.925781 988.15625 179.675781 988.03125 179.550781 C 987.90625 179.429688 987.660156 179.179688 987.535156 179.054688 C 987.410156 178.933594 987.164062 178.683594 987.039062 178.558594 C 986.914062 178.4375 986.792969 178.1875 986.542969 178.0625 C 986.421875 177.941406 986.171875 177.816406 986.046875 177.566406 C 985.925781 177.445312 985.925781 177.445312 985.800781 177.320312 C 1003.78125 204.601562 1014.320312 237.210938 1014.320312 272.304688 C 1014.320312 367.535156 936.820312 445.035156 841.589844 445.035156 C 834.519531 445.035156 827.699219 444.292969 820.757812 443.425781 C 819.019531 454.089844 816.539062 464.503906 813.191406 474.546875 L 931.613281 474.546875 C 974.515625 474.546875 1014.941406 485.460938 1050.28125 504.554688 C 1088.101562 473.554688 1112.28125 426.558594 1112.28125 373.859375 C 1117.734375 332.445312 1098.640625 290.035156 1067.886719 259.40625 Z M 898.503906 760.367188 C 898.378906 760.242188 898.132812 759.996094 898.007812 759.871094 C 897.882812 759.746094 897.636719 759.5 897.511719 759.375 C 897.386719 759.253906 897.140625 759.003906 897.015625 758.878906 C 896.890625 758.757812 896.644531 758.507812 896.519531 758.382812 C 896.394531 758.261719 896.148438 758.011719 896.023438 757.886719 C 895.898438 757.765625 895.652344 757.515625 895.527344 757.390625 C 895.402344 757.269531 895.15625 757.019531 895.03125 756.894531 C 894.90625 756.773438 894.660156 756.523438 894.535156 756.398438 C 894.410156 756.277344 894.164062 756.027344 894.039062 755.902344 C 893.914062 755.78125 893.667969 755.53125 893.542969 755.40625 C 893.421875 755.285156 893.171875 755.035156 893.046875 754.910156 C 892.925781 754.789062 892.675781 754.539062 892.429688 754.414062 C 892.304688 754.292969 892.054688 754.042969 891.933594 753.921875 C 891.808594 753.671875 891.558594 753.546875 891.3125 753.300781 C 891.1875 753.175781 890.941406 752.929688 890.816406 752.804688 C 890.691406 752.554688 890.445312 752.433594 890.195312 752.183594 C 890.070312 752.058594 889.824219 751.8125 889.699219 751.6875 C 889.453125 751.441406 889.328125 751.316406 889.078125 751.066406 C 888.957031 750.945312 888.707031 750.695312 888.585938 750.570312 C 888.460938 750.324219 888.210938 750.199219 888.089844 749.953125 C 887.964844 749.828125 887.714844 749.578125 887.59375 749.457031 C 887.46875 749.332031 887.21875 749.085938 886.972656 748.960938 C 886.847656 748.835938 886.601562 748.589844 886.476562 748.464844 C 886.351562 748.214844 886.105469 748.09375 885.855469 747.84375 C 885.730469 747.71875 885.484375 747.472656 885.359375 747.347656 C 885.234375 747.101562 884.988281 746.976562 884.738281 746.726562 C 884.617188 746.605469 884.367188 746.355469 884.242188 746.230469 C 884.121094 746.109375 883.871094 745.859375 883.625 745.734375 C 883.5 745.613281 883.253906 745.363281 883.128906 745.238281 C 882.878906 744.992188 882.757812 744.867188 882.507812 744.621094 C 882.382812 744.496094 882.136719 744.246094 882.011719 744.125 C 881.886719 744 881.640625 743.753906 881.390625 743.628906 C 881.269531 743.503906 881.019531 743.257812 880.894531 743.132812 C 880.773438 743.007812 880.523438 742.761719 880.277344 742.511719 C 880.152344 742.386719 879.902344 742.140625 879.78125 742.015625 C 879.65625 741.769531 879.40625 741.644531 879.160156 741.394531 C 879.035156 741.273438 878.789062 741.023438 878.664062 740.898438 C 878.539062 740.777344 878.292969 740.527344 878.042969 740.402344 C 877.921875 740.28125 877.671875 740.03125 877.546875 739.90625 C 877.300781 739.660156 877.175781 739.535156 876.929688 739.289062 C 876.804688 739.164062 876.554688 738.914062 876.433594 738.792969 C 876.308594 738.542969 876.058594 738.421875 875.9375 738.296875 C 875.8125 738.171875 875.5625 737.925781 875.441406 737.800781 C 875.316406 737.675781 875.066406 737.429688 874.945312 737.304688 C 874.820312 737.179688 874.570312 736.933594 874.449219 736.808594 C 874.324219 736.683594 874.074219 736.4375 873.953125 736.3125 C 873.828125 736.1875 873.578125 735.941406 873.457031 735.816406 C 873.332031 735.691406 873.085938 735.445312 872.960938 735.320312 C 872.835938 735.195312 872.589844 734.949219 872.464844 734.824219 C 872.339844 734.699219 872.09375 734.453125 871.96875 734.328125 C 871.84375 734.203125 871.597656 733.957031 871.472656 733.832031 C 871.347656 733.707031 871.101562 733.460938 870.976562 733.335938 C 870.851562 733.210938 870.605469 732.964844 870.480469 732.839844 C 870.355469 732.714844 870.109375 732.46875 869.984375 732.34375 C 869.859375 732.21875 869.613281 731.972656 869.488281 731.847656 C 869.363281 731.722656 869.117188 731.476562 868.992188 731.351562 C 868.867188 731.226562 868.621094 730.980469 868.496094 730.855469 C 868.371094 730.730469 868.125 730.484375 868 730.359375 C 867.875 730.234375 867.628906 729.988281 867.503906 729.863281 C 867.378906 729.738281 867.132812 729.492188 867.007812 729.367188 C 866.882812 729.242188 866.636719 728.996094 866.511719 728.871094 C 866.386719 728.746094 866.140625 728.5 866.015625 728.375 C 865.890625 728.253906 865.644531 728.003906 865.519531 727.878906 C 865.394531 727.757812 865.148438 727.507812 865.023438 727.382812 C 864.898438 727.261719 864.652344 727.011719 864.527344 726.886719 C 864.402344 726.765625 864.15625 726.515625 864.03125 726.390625 C 863.90625 726.269531 863.660156 726.019531 863.535156 725.894531 C 863.410156 725.773438 863.164062 725.523438 863.039062 725.398438 C 862.914062 725.277344 862.667969 725.027344 862.542969 724.902344 C 862.421875 724.78125 862.171875 724.53125 862.046875 724.40625 C 861.925781 724.285156 861.675781 724.035156 861.550781 723.910156 C 861.429688 723.789062 861.179688 723.539062 861.054688 723.414062 C 860.933594 723.292969 860.683594 723.042969 860.558594 722.921875 C 860.4375 722.796875 860.1875 722.546875 860.0625 722.425781 C 859.941406 722.300781 859.691406 722.050781 859.566406 721.929688 C 859.445312 721.804688 859.195312 721.554688 859.070312 721.433594 C 858.949219 721.308594 858.699219 721.058594 858.574219 720.9375 C 858.453125 720.8125 858.203125 720.5625 858.078125 720.441406 C 857.957031 720.316406 857.707031 720.066406 857.585938 719.945312 C 857.460938 719.820312 857.210938 719.570312 857.089844 719.449219 C 856.964844 719.324219 856.714844 719.074219 856.46875 718.953125 C 856.34375 718.828125 856.097656 718.578125 855.972656 718.457031 C 855.847656 718.207031 855.601562 718.085938 855.351562 717.835938 C 855.226562 717.710938 854.980469 717.464844 854.855469 717.339844 C 854.730469 717.09375 854.484375 716.96875 854.234375 716.71875 C 854.113281 716.597656 853.863281 716.347656 853.738281 716.222656 C 853.492188 715.976562 853.367188 715.851562 853.121094 715.605469 C 852.996094 715.480469 852.746094 715.230469 852.625 715.109375 C 852.5 714.859375 852.253906 714.734375 852.128906 714.488281 C 852.003906 714.363281 851.757812 714.117188 851.632812 713.992188 C 851.507812 713.867188 851.261719 713.621094 851.011719 713.496094 C 850.886719 713.371094 850.640625 713.125 850.515625 713 C 850.390625 712.753906 850.144531 712.628906 849.894531 712.378906 C 849.773438 712.257812 849.523438 712.007812 849.398438 711.882812 C 849.277344 711.636719 849.027344 711.511719 848.78125 711.265625 C 848.65625 711.140625 848.40625 710.890625 848.285156 710.769531 C 848.160156 710.644531 847.910156 710.394531 847.664062 710.273438 C 847.539062 710.148438 847.292969 709.898438 847.167969 709.777344 C 846.921875 709.527344 846.796875 709.402344 846.546875 709.15625 C 846.425781 709.03125 846.175781 708.785156 846.050781 708.660156 C 845.929688 708.535156 845.679688 708.289062 845.433594 708.164062 C 845.308594 708.039062 845.058594 707.792969 844.9375 707.667969 C 844.8125 707.542969 844.5625 707.296875 844.316406 707.046875 C 844.191406 706.925781 843.945312 706.675781 843.820312 706.550781 C 843.695312 706.304688 843.449219 706.179688 843.199219 705.933594 C 843.074219 705.808594 842.828125 705.558594 842.703125 705.4375 C 842.578125 705.3125 842.332031 705.0625 842.085938 704.941406 C 841.960938 704.816406 841.710938 704.566406 841.589844 704.445312 C 841.339844 704.195312 841.214844 704.070312 840.96875 703.824219 C 840.84375 703.699219 840.597656 703.453125 840.472656 703.328125 C 840.347656 703.078125 840.101562 702.957031 839.976562 702.832031 C 839.851562 702.707031 839.605469 702.460938 839.480469 702.335938 C 839.355469 702.210938 839.109375 701.964844 838.984375 701.839844 C 838.859375 701.714844 838.613281 701.46875 838.488281 701.34375 C 838.363281 701.21875 838.117188 700.972656 837.992188 700.847656 C 837.867188 700.722656 837.621094 700.476562 837.496094 700.351562 C 837.371094 700.226562 837.125 699.980469 837 699.855469 C 836.875 699.730469 836.628906 699.484375 836.503906 699.359375 C 836.378906 699.234375 836.132812 698.988281 836.007812 698.863281 C 835.882812 698.738281 835.636719 698.492188 835.511719 698.367188 C 835.386719 698.242188 835.140625 697.996094 835.015625 697.871094 C 834.890625 697.746094 834.644531 697.5 834.519531 697.375 C 834.394531 697.253906 834.148438 697.003906 834.023438 696.878906 C 833.898438 696.757812 833.652344 696.507812 833.527344 696.382812 C 833.402344 696.261719 833.15625 696.011719 833.03125 695.886719 C 832.90625 695.765625 832.660156 695.515625 832.535156 695.390625 C 832.410156 695.269531 832.164062 695.019531 832.039062 694.894531 C 831.914062 694.773438 831.667969 694.523438 831.542969 694.398438 C 831.421875 694.277344 831.171875 694.027344 831.046875 693.902344 C 830.925781 693.78125 830.675781 693.53125 830.550781 693.40625 C 830.429688 693.285156 830.179688 693.035156 830.054688 692.910156 C 829.933594 692.789062 829.683594 692.539062 829.558594 692.414062 C 829.4375 692.292969 829.1875 692.042969 829.0625 691.921875 C 828.941406 691.796875 828.691406 691.546875 828.566406 691.425781 C 828.445312 691.300781 828.195312 691.050781 828.070312 690.929688 C 827.949219 690.804688 827.699219 690.554688 827.574219 690.433594 C 827.453125 690.308594 827.203125 690.058594 827.078125 689.9375 C 826.957031 689.8125 826.707031 689.5625 826.585938 689.441406 C 826.460938 689.316406 826.210938 689.066406 826.089844 688.945312 C 825.964844 688.820312 825.714844 688.570312 825.59375 688.449219 C 825.46875 688.324219 825.21875 688.074219 825.097656 687.953125 C 824.972656 687.828125 824.722656 687.578125 824.601562 687.457031 C 824.476562 687.332031 824.226562 687.085938 824.105469 686.960938 C 823.980469 686.835938 823.730469 686.589844 823.609375 686.464844 C 823.484375 686.339844 823.234375 686.09375 823.113281 685.96875 C 822.988281 685.84375 822.738281 685.597656 822.617188 685.472656 C 822.492188 685.347656 822.242188 685.101562 822.121094 684.976562 C 821.996094 684.851562 821.746094 684.605469 821.625 684.480469 C 821.5 684.355469 821.253906 684.109375 821.128906 683.984375 C 821.003906 683.859375 820.757812 683.613281 820.507812 683.488281 C 820.382812 683.363281 820.136719 683.117188 820.011719 682.992188 C 819.886719 682.742188 819.640625 682.621094 819.390625 682.371094 C 819.269531 682.246094 819.019531 682 818.894531 681.875 C 818.773438 681.628906 818.523438 681.503906 818.277344 681.257812 C 818.152344 681.132812 817.902344 680.882812 817.78125 680.761719 C 817.78125 680.761719 817.65625 680.636719 817.65625 680.636719 C 852.003906 728.746094 852.5 787.648438 852.5 851.261719 C 852.5 916.359375 799.550781 969.308594 734.453125 969.308594 L 323.886719 969.308594 C 302.558594 969.308594 282.71875 963.605469 265.484375 953.683594 C 265.484375 953.683594 265.609375 953.808594 265.609375 953.808594 C 265.730469 953.933594 265.980469 954.179688 266.105469 954.304688 C 266.226562 954.550781 266.476562 954.675781 266.601562 954.800781 C 266.722656 954.925781 266.972656 955.171875 267.097656 955.296875 C 267.21875 955.421875 267.46875 955.667969 267.59375 955.792969 C 267.714844 955.914062 267.964844 956.164062 268.089844 956.289062 C 268.210938 956.410156 268.460938 956.660156 268.707031 956.785156 C 268.832031 956.90625 269.078125 957.15625 269.203125 957.28125 C 269.328125 957.527344 269.574219 957.652344 269.699219 957.777344 C 269.824219 957.898438 270.070312 958.148438 270.195312 958.273438 C 270.320312 958.394531 270.566406 958.644531 270.691406 958.769531 C 270.816406 958.890625 271.0625 959.140625 271.1875 959.265625 C 271.3125 959.386719 271.558594 959.636719 271.683594 959.761719 C 271.808594 959.882812 272.054688 960.132812 272.179688 960.257812 C 272.304688 960.503906 272.550781 960.628906 272.675781 960.753906 C 272.800781 960.875 273.046875 961.125 273.171875 961.246094 C 273.296875 961.371094 273.542969 961.621094 273.667969 961.742188 C 273.792969 961.867188 274.039062 962.117188 274.164062 962.238281 C 274.410156 962.363281 274.535156 962.613281 274.785156 962.734375 C 274.90625 962.859375 275.15625 963.109375 275.28125 963.230469 C 275.402344 963.480469 275.652344 963.605469 275.777344 963.726562 C 275.898438 963.851562 276.148438 964.101562 276.273438 964.222656 C 276.394531 964.347656 276.644531 964.597656 276.769531 964.71875 C 276.890625 964.84375 277.140625 965.09375 277.265625 965.214844 C 277.386719 965.339844 277.636719 965.589844 277.761719 965.710938 C 277.882812 965.835938 278.132812 966.085938 278.257812 966.207031 C 278.378906 966.332031 278.628906 966.578125 278.753906 966.703125 C 278.875 966.828125 279.125 967.074219 279.246094 967.199219 C 279.371094 967.324219 279.621094 967.570312 279.742188 967.695312 C 279.867188 967.820312 280.117188 968.066406 280.238281 968.191406 C 280.363281 968.316406 280.613281 968.5625 280.734375 968.6875 C 280.859375 968.8125 281.109375 969.058594 281.230469 969.183594 C 281.355469 969.308594 281.605469 969.554688 281.726562 969.679688 C 281.851562 969.804688 282.101562 970.050781 282.222656 970.175781 C 282.347656 970.300781 282.597656 970.546875 282.71875 970.671875 C 282.84375 970.796875 283.09375 971.042969 283.214844 971.167969 C 283.339844 971.292969 283.589844 971.539062 283.710938 971.664062 C 283.835938 971.789062 284.085938 972.035156 284.207031 972.160156 C 284.332031 972.285156 284.578125 972.53125 284.703125 972.65625 C 284.828125 972.78125 285.074219 973.027344 285.199219 973.152344 C 285.324219 973.277344 285.570312 973.523438 285.695312 973.648438 C 285.820312 973.773438 286.066406 974.019531 286.191406 974.144531 C 286.316406 974.269531 286.5625 974.515625 286.6875 974.640625 C 286.8125 974.765625 287.058594 975.011719 287.183594 975.136719 C 287.308594 975.261719 287.554688 975.507812 287.679688 975.632812 C 287.804688 975.757812 288.050781 976.003906 288.175781 976.128906 C 288.300781 976.253906 288.546875 976.5 288.671875 976.625 C 288.796875 976.746094 289.042969 976.996094 289.167969 977.121094 C 289.292969 977.242188 289.539062 977.492188 289.664062 977.617188 C 289.789062 977.738281 290.035156 977.988281 290.160156 978.113281 C 290.285156 978.234375 290.53125 978.484375 290.65625 978.609375 C 290.78125 978.730469 291.027344 978.980469 291.152344 979.105469 C 291.277344 979.226562 291.523438 979.476562 291.648438 979.601562 C 291.773438 979.722656 292.019531 979.972656 292.144531 980.097656 C 292.269531 980.21875 292.515625 980.46875 292.640625 980.59375 C 292.765625 980.714844 293.011719 980.964844 293.136719 981.089844 C 293.261719 981.210938 293.507812 981.460938 293.632812 981.585938 C 293.757812 981.707031 294.003906 981.957031 294.128906 982.078125 C 294.253906 982.203125 294.5 982.453125 294.625 982.574219 C 294.746094 982.699219 294.996094 982.949219 295.121094 983.070312 C 295.242188 983.195312 295.492188 983.445312 295.617188 983.566406 C 295.738281 983.816406 295.988281 983.941406 296.113281 984.0625 C 296.234375 984.1875 296.484375 984.4375 296.609375 984.558594 C 296.730469 984.683594 296.980469 984.933594 297.105469 985.054688 C 297.226562 985.179688 297.476562 985.429688 297.601562 985.550781 C 297.722656 985.675781 297.972656 985.925781 298.21875 986.046875 C 298.34375 986.171875 298.59375 986.421875 298.714844 986.542969 C 298.839844 986.792969 299.089844 986.914062 299.210938 987.039062 C 299.335938 987.164062 299.585938 987.410156 299.707031 987.535156 C 299.832031 987.660156 300.078125 987.90625 300.203125 988.03125 C 300.328125 988.15625 300.574219 988.402344 300.699219 988.527344 C 300.824219 988.777344 301.070312 988.898438 301.195312 989.023438 C 301.320312 989.148438 301.566406 989.394531 301.691406 989.519531 C 301.816406 989.644531 302.0625 989.890625 302.1875 990.015625 C 302.3125 990.140625 302.558594 990.386719 302.683594 990.511719 C 302.808594 990.636719 303.054688 990.882812 303.304688 991.007812 C 303.429688 991.132812 303.675781 991.378906 303.800781 991.503906 C 303.925781 991.753906 304.171875 991.875 304.296875 992 C 304.421875 992.125 304.667969 992.371094 304.792969 992.496094 C 304.914062 992.621094 305.164062 992.867188 305.289062 992.992188 C 305.410156 993.117188 305.660156 993.363281 305.785156 993.488281 C 305.90625 993.613281 306.15625 993.859375 306.28125 993.984375 C 306.402344 994.109375 306.652344 994.355469 306.777344 994.480469 C 306.898438 994.726562 307.148438 994.851562 307.273438 994.976562 C 307.394531 995.101562 307.644531 995.347656 307.769531 995.472656 C 307.890625 995.597656 308.140625 995.84375 308.265625 995.96875 C 308.386719 996.09375 308.636719 996.339844 308.761719 996.464844 C 309.007812 996.589844 309.132812 996.835938 309.378906 996.960938 C 309.503906 997.085938 309.753906 997.332031 309.875 997.457031 C 310 997.703125 310.246094 997.828125 310.371094 997.953125 C 310.496094 998.074219 310.742188 998.324219 310.867188 998.449219 C 310.992188 998.570312 311.238281 998.820312 311.363281 998.945312 C 311.488281 999.066406 311.734375 999.316406 311.859375 999.441406 C 311.984375 999.5625 312.230469 999.8125 312.355469 999.9375 C 312.480469 1000.058594 312.726562 1000.308594 312.851562 1000.433594 C 312.976562 1000.554688 313.222656 1000.804688 313.347656 1000.929688 C 313.472656 1001.050781 313.71875 1001.300781 313.84375 1001.425781 C 313.96875 1001.546875 314.214844 1001.796875 314.339844 1001.921875 C 314.464844 1002.042969 314.710938 1002.292969 314.835938 1002.414062 C 314.960938 1002.539062 315.207031 1002.789062 315.332031 1002.910156 C 315.457031 1003.035156 315.703125 1003.285156 315.828125 1003.40625 C 315.953125 1003.53125 316.199219 1003.78125 316.324219 1003.902344 C 316.449219 1004.027344 316.695312 1004.277344 316.820312 1004.398438 C 316.945312 1004.523438 317.191406 1004.773438 317.316406 1004.894531 C 317.441406 1005.019531 317.6875 1005.269531 317.8125 1005.390625 C 317.9375 1005.515625 318.183594 1005.765625 318.308594 1005.886719 C 318.433594 1006.011719 318.679688 1006.261719 318.804688 1006.382812 C 318.929688 1006.507812 319.175781 1006.757812 319.300781 1006.878906 C 319.425781 1007.003906 319.671875 1007.253906 319.796875 1007.375 C 319.921875 1007.5 320.167969 1007.746094 320.292969 1007.871094 C 320.414062 1007.996094 320.664062 1008.242188 320.789062 1008.367188 C 320.910156 1008.492188 321.160156 1008.738281 321.285156 1008.863281 C 321.40625 1008.988281 321.65625 1009.234375 321.78125 1009.359375 C 321.902344 1009.484375 322.152344 1009.730469 322.277344 1009.855469 C 322.398438 1009.980469 322.648438 1010.226562 322.773438 1010.351562 C 322.894531 1010.476562 323.144531 1010.722656 323.269531 1010.847656 C 323.390625 1010.972656 323.640625 1011.21875 323.765625 1011.34375 C 323.886719 1011.46875 324.136719 1011.714844 324.261719 1011.839844 C 324.382812 1011.964844 324.632812 1012.210938 324.757812 1012.335938 C 324.878906 1012.460938 325.128906 1012.707031 325.253906 1012.832031 C 325.375 1012.957031 325.625 1013.203125 325.746094 1013.328125 C 325.871094 1013.453125 326.121094 1013.699219 326.242188 1013.824219 C 326.367188 1013.949219 326.617188 1014.195312 326.738281 1014.320312 C 326.863281 1014.445312 327.113281 1014.691406 327.234375 1014.816406 C 327.359375 1014.941406 327.609375 1015.1875 327.730469 1015.3125 C 327.855469 1015.4375 328.105469 1015.683594 328.226562 1015.808594 C 328.351562 1015.933594 328.601562 1016.179688 328.722656 1016.304688 C 328.847656 1016.429688 329.097656 1016.675781 329.21875 1016.800781 C 329.34375 1016.925781 329.59375 1017.171875 329.714844 1017.296875 C 329.839844 1017.421875 330.089844 1017.667969 330.210938 1017.792969 C 330.335938 1018.039062 330.585938 1018.164062 330.707031 1018.289062 C 330.832031 1018.410156 331.078125 1018.660156 331.203125 1018.785156 C 331.328125 1018.90625 331.574219 1019.15625 331.699219 1019.28125 C 331.824219 1019.402344 332.070312 1019.652344 332.195312 1019.777344 C 332.320312 1019.898438 332.566406 1020.148438 332.816406 1020.273438 C 332.941406 1020.394531 333.1875 1020.644531 333.3125 1020.769531 C 333.4375 1021.015625 333.683594 1021.140625 333.808594 1021.265625 C 333.933594 1021.386719 334.179688 1021.636719 334.304688 1021.761719 C 334.429688 1021.882812 334.675781 1022.132812 334.800781 1022.257812 C 334.925781 1022.378906 335.171875 1022.628906 335.296875 1022.753906 C 335.421875 1023 335.667969 1023.125 335.792969 1023.246094 C 335.914062 1023.371094 336.164062 1023.621094 336.289062 1023.742188 C 336.410156 1023.867188 336.660156 1024.117188 336.785156 1024.238281 C 336.90625 1024.363281 337.15625 1024.613281 337.28125 1024.734375 C 337.402344 1024.859375 337.652344 1025.109375 337.898438 1025.230469 C 338.023438 1025.355469 338.273438 1025.605469 338.394531 1025.726562 C 338.519531 1025.976562 338.769531 1026.101562 338.890625 1026.222656 C 339.015625 1026.347656 339.265625 1026.597656 339.386719 1026.71875 C 339.511719 1026.84375 339.761719 1027.09375 339.882812 1027.214844 C 340.007812 1027.339844 340.257812 1027.589844 340.378906 1027.710938 C 340.503906 1027.835938 340.753906 1028.085938 340.875 1028.207031 C 341 1028.332031 341.246094 1028.578125 341.371094 1028.703125 C 341.496094 1028.953125 341.742188 1029.074219 341.867188 1029.199219 C 341.992188 1029.324219 342.238281 1029.570312 342.363281 1029.695312 C 342.488281 1029.820312 342.734375 1030.066406 342.859375 1030.191406 C 342.984375 1030.316406 343.230469 1030.5625 343.355469 1030.6875 C 343.605469 1030.8125 343.726562 1031.058594 343.976562 1031.183594 C 344.101562 1031.308594 344.347656 1031.554688 344.472656 1031.679688 C 344.597656 1031.929688 344.84375 1032.050781 344.96875 1032.175781 C 345.09375 1032.300781 345.339844 1032.546875 345.464844 1032.671875 C 345.589844 1032.796875 345.835938 1033.042969 345.960938 1033.167969 C 346.085938 1033.292969 346.332031 1033.539062 346.457031 1033.664062 C 346.578125 1033.789062 346.828125 1034.035156 346.953125 1034.160156 C 347.074219 1034.285156 347.324219 1034.53125 347.449219 1034.65625 C 347.570312 1034.78125 347.820312 1035.027344 347.945312 1035.152344 C 348.066406 1035.277344 348.316406 1035.523438 348.441406 1035.648438 C 348.5625 1035.773438 348.8125 1036.019531 348.9375 1036.144531 C 349.058594 1036.269531 349.308594 1036.515625 349.433594 1036.640625 C 349.554688 1036.765625 349.804688 1037.011719 349.929688 1037.136719 C 350.050781 1037.261719 350.300781 1037.507812 350.425781 1037.632812 C 350.546875 1037.757812 350.796875 1038.003906 350.921875 1038.128906 C 351.042969 1038.253906 351.292969 1038.5 351.414062 1038.625 C 351.539062 1038.746094 351.789062 1038.996094 351.910156 1039.121094 C 352.035156 1039.242188 352.285156 1039.492188 352.40625 1039.617188 C 352.53125 1039.738281 352.78125 1039.988281 352.902344 1040.113281 C 353.027344 1040.234375 353.277344 1040.484375 353.398438 1040.609375 C 353.523438 1040.730469 353.773438 1040.980469 353.894531 1041.105469 C 354.019531 1041.226562 354.269531 1041.476562 354.390625 1041.601562 C 354.515625 1041.722656 354.765625 1041.972656 354.886719 1042.097656 C 375.472656 1062.804688 403.992188 1101.242188 435.613281 1101.242188 L 842.085938 1101.242188 C 904.953125 1101.242188 944.507812 1015.558594 955.914062 961.992188 C 979.226562 893.421875 951.203125 812.820312 898.503906 760.367188 Z M 1174.28125 652.984375 C 1174.15625 652.859375 1174.03125 652.613281 1173.785156 652.488281 C 1173.660156 652.363281 1173.410156 652.117188 1173.289062 651.992188 C 1173.164062 651.867188 1172.914062 651.621094 1172.792969 651.496094 C 1172.667969 651.371094 1172.542969 651.125 1172.296875 651 C 1172.171875 650.875 1171.925781 650.753906 1171.800781 650.503906 C 1171.675781 650.378906 1171.550781 650.132812 1171.304688 650.007812 C 1171.179688 649.882812 1171.054688 649.636719 1170.808594 649.511719 C 1170.683594 649.386719 1170.558594 649.140625 1170.3125 649.015625 C 1170.1875 648.890625 1170.0625 648.769531 1169.816406 648.519531 C 1169.691406 648.394531 1169.445312 648.148438 1169.320312 648.023438 C 1169.195312 647.898438 1168.949219 647.777344 1168.824219 647.527344 C 1168.699219 647.402344 1168.453125 647.15625 1168.328125 647.03125 C 1168.203125 646.90625 1168.078125 646.785156 1167.832031 646.535156 C 1167.707031 646.410156 1167.460938 646.164062 1167.335938 646.039062 C 1167.210938 645.914062 1167.089844 645.792969 1166.839844 645.542969 C 1166.714844 645.421875 1166.46875 645.171875 1166.34375 645.046875 C 1166.21875 644.925781 1166.097656 644.800781 1165.847656 644.550781 C 1165.722656 644.429688 1165.476562 644.179688 1165.351562 644.054688 C 1165.226562 643.933594 1165.105469 643.808594 1164.855469 643.558594 C 1164.730469 643.4375 1164.484375 643.1875 1164.359375 643.0625 C 1164.234375 642.941406 1164.113281 642.816406 1163.863281 642.566406 C 1163.738281 642.445312 1163.492188 642.195312 1163.367188 642.070312 C 1163.242188 641.949219 1163.121094 641.824219 1162.871094 641.574219 C 1162.746094 641.453125 1162.5 641.203125 1162.375 641.078125 C 1162.253906 640.957031 1162.128906 640.707031 1161.878906 640.585938 C 1161.757812 640.460938 1161.507812 640.210938 1161.382812 640.089844 C 1161.261719 639.964844 1161.136719 639.839844 1160.886719 639.59375 C 1160.765625 639.46875 1160.515625 639.21875 1160.390625 639.097656 C 1160.269531 638.972656 1160.144531 638.847656 1159.894531 638.601562 C 1159.773438 638.476562 1159.523438 638.226562 1159.398438 638.105469 C 1159.277344 637.980469 1159.152344 637.855469 1158.902344 637.609375 C 1158.78125 637.484375 1158.53125 637.234375 1158.40625 637.113281 C 1158.285156 636.988281 1158.160156 636.863281 1157.910156 636.617188 C 1157.789062 636.492188 1157.664062 636.242188 1157.414062 636.121094 C 1157.292969 635.996094 1157.167969 635.871094 1156.921875 635.625 C 1156.796875 635.5 1156.546875 635.253906 1156.425781 635.128906 C 1156.300781 635.003906 1156.175781 634.757812 1155.929688 634.632812 C 1155.804688 634.507812 1155.554688 634.261719 1155.433594 634.136719 C 1155.308594 634.011719 1155.183594 633.886719 1154.9375 633.640625 C 1154.8125 633.515625 1154.5625 633.269531 1154.441406 633.144531 C 1154.316406 633.019531 1154.191406 632.894531 1153.945312 632.648438 C 1153.820312 632.523438 1153.695312 632.277344 1153.449219 632.152344 C 1153.324219 632.027344 1153.199219 631.78125 1152.953125 631.65625 C 1152.828125 631.53125 1152.578125 631.285156 1152.457031 631.160156 C 1152.332031 631.035156 1152.085938 630.789062 1151.960938 630.664062 C 1151.835938 630.539062 1151.710938 630.414062 1151.464844 630.167969 C 1151.339844 630.042969 1151.09375 629.921875 1150.96875 629.671875 C 1150.84375 629.546875 1150.71875 629.300781 1150.472656 629.175781 C 1150.347656 629.050781 1150.101562 628.804688 1149.976562 628.679688 C 1149.851562 628.554688 1149.605469 628.433594 1149.480469 628.183594 C 1149.355469 628.058594 1149.230469 627.9375 1148.984375 627.6875 C 1148.859375 627.5625 1148.613281 627.441406 1148.488281 627.191406 C 1148.363281 627.066406 1148.238281 626.945312 1147.992188 626.695312 C 1147.867188 626.570312 1147.621094 626.324219 1147.496094 626.199219 C 1147.371094 626.074219 1147.125 625.828125 1147 625.703125 C 1146.875 625.578125 1146.753906 625.332031 1146.503906 625.207031 C 1146.378906 625.085938 1146.132812 624.835938 1146.007812 624.710938 C 1145.882812 624.589844 1145.761719 624.464844 1145.511719 624.214844 C 1145.386719 624.09375 1145.140625 623.84375 1145.015625 623.71875 C 1144.890625 623.597656 1144.644531 623.347656 1144.519531 623.222656 C 1144.394531 623.101562 1144.273438 622.851562 1144.023438 622.726562 C 1143.898438 622.605469 1143.777344 622.355469 1143.527344 622.230469 C 1143.402344 622.109375 1143.28125 621.859375 1143.03125 621.734375 C 1142.90625 621.613281 1142.785156 621.363281 1142.535156 621.238281 C 1142.410156 621.117188 1142.289062 620.867188 1142.039062 620.742188 C 1141.914062 620.621094 1141.667969 620.371094 1141.542969 620.246094 C 1141.421875 620.125 1141.171875 619.875 1141.046875 619.753906 C 1140.925781 619.628906 1140.800781 619.503906 1140.550781 619.257812 C 1140.429688 619.132812 1140.304688 619.007812 1140.054688 618.761719 C 1139.933594 618.636719 1139.683594 618.511719 1139.558594 618.265625 C 1139.4375 618.140625 1139.1875 617.890625 1139.0625 617.769531 C 1138.941406 617.644531 1138.816406 617.394531 1138.566406 617.273438 C 1138.445312 617.148438 1138.320312 617.023438 1138.070312 616.777344 C 1137.949219 616.652344 1137.699219 616.527344 1137.574219 616.28125 C 1137.453125 616.15625 1137.328125 615.90625 1137.078125 615.785156 C 1136.957031 615.660156 1136.707031 615.410156 1136.585938 615.289062 C 1136.460938 615.164062 1136.335938 614.914062 1136.089844 614.792969 C 1135.964844 614.667969 1135.839844 614.421875 1135.59375 614.296875 C 1135.46875 614.171875 1135.21875 614.046875 1135.097656 613.800781 C 1134.972656 613.675781 1134.847656 613.550781 1134.601562 613.304688 C 1134.476562 613.179688 1134.226562 612.933594 1134.105469 612.808594 C 1133.980469 612.683594 1133.855469 612.558594 1133.609375 612.3125 C 1133.484375 612.1875 1133.234375 611.941406 1133.113281 611.816406 C 1132.988281 611.691406 1132.863281 611.566406 1132.617188 611.320312 C 1132.492188 611.195312 1132.242188 610.949219 1132.121094 610.824219 C 1131.996094 610.699219 1131.871094 610.574219 1131.625 610.328125 C 1131.5 610.203125 1131.253906 609.957031 1131.128906 609.832031 C 1131.003906 609.707031 1130.878906 609.585938 1130.632812 609.335938 C 1130.507812 609.210938 1130.261719 608.964844 1130.136719 608.839844 C 1130.011719 608.714844 1129.886719 608.59375 1129.640625 608.34375 C 1129.515625 608.21875 1129.390625 607.972656 1129.144531 607.847656 C 1129.019531 607.722656 1128.894531 607.601562 1128.648438 607.351562 C 1128.523438 607.226562 1128.277344 606.980469 1128.152344 606.855469 C 1128.027344 606.730469 1127.902344 606.609375 1127.65625 606.359375 C 1127.53125 606.234375 1127.285156 605.988281 1127.160156 605.863281 C 1127.035156 605.738281 1126.910156 605.617188 1126.664062 605.367188 C 1126.539062 605.242188 1126.292969 604.996094 1126.167969 604.871094 C 1126.042969 604.746094 1125.921875 604.625 1125.671875 604.375 C 1125.546875 604.253906 1125.300781 604.003906 1125.175781 603.878906 C 1125.050781 603.757812 1124.929688 603.632812 1124.679688 603.382812 C 1124.554688 603.261719 1124.308594 603.011719 1124.183594 602.886719 C 1124.058594 602.765625 1123.9375 602.515625 1123.6875 602.390625 C 1123.5625 602.269531 1123.441406 602.019531 1123.191406 601.894531 C 1123.066406 601.773438 1122.945312 601.648438 1122.695312 601.398438 C 1122.570312 601.277344 1122.324219 601.027344 1122.199219 600.902344 C 1122.074219 600.78125 1121.953125 600.65625 1121.703125 600.40625 C 1121.578125 600.285156 1121.332031 600.035156 1121.207031 599.910156 C 1121.085938 599.789062 1120.960938 599.664062 1120.710938 599.414062 C 1120.589844 599.292969 1120.339844 599.042969 1120.214844 598.921875 C 1120.09375 598.796875 1119.96875 598.671875 1119.71875 598.425781 C 1119.597656 598.300781 1119.347656 598.050781 1119.222656 597.929688 C 1119.101562 597.804688 1118.976562 597.554688 1118.726562 597.433594 C 1118.605469 597.308594 1118.355469 597.058594 1118.230469 596.9375 C 1118.109375 596.8125 1117.859375 596.5625 1117.734375 596.441406 C 1117.613281 596.316406 1117.488281 596.191406 1117.238281 595.945312 C 1117.117188 595.820312 1116.867188 595.570312 1116.742188 595.449219 C 1116.621094 595.324219 1116.496094 595.199219 1116.246094 594.953125 C 1116.125 594.828125 1115.875 594.578125 1115.753906 594.457031 C 1115.628906 594.332031 1115.378906 594.085938 1115.257812 593.960938 C 1115.132812 593.835938 1115.007812 593.589844 1114.761719 593.464844 C 1114.636719 593.339844 1114.386719 593.09375 1114.265625 592.96875 C 1114.140625 592.84375 1114.015625 592.597656 1113.769531 592.472656 C 1113.644531 592.347656 1113.394531 592.222656 1113.273438 591.976562 C 1113.148438 591.851562 1112.898438 591.605469 1112.777344 591.480469 C 1112.652344 591.355469 1112.527344 591.109375 1112.28125 590.984375 C 1112.15625 590.859375 1112.03125 590.613281 1111.785156 590.488281 C 1111.660156 590.363281 1111.535156 590.238281 1111.289062 589.992188 C 1111.164062 589.867188 1110.914062 589.742188 1110.792969 589.496094 C 1110.667969 589.371094 1110.421875 589.125 1110.296875 589 C 1110.171875 588.875 1110.046875 588.628906 1109.800781 588.503906 C 1109.675781 588.378906 1109.429688 588.132812 1109.304688 588.007812 C 1109.179688 587.882812 1109.054688 587.761719 1108.808594 587.511719 C 1108.683594 587.386719 1108.558594 587.140625 1108.3125 587.015625 C 1108.1875 586.890625 1108.0625 586.644531 1107.816406 586.519531 C 1107.691406 586.394531 1107.445312 586.148438 1107.320312 586.023438 C 1107.195312 585.898438 1106.949219 585.652344 1106.824219 585.527344 C 1106.699219 585.402344 1106.574219 585.15625 1106.328125 585.03125 C 1106.203125 584.90625 1106.078125 584.785156 1105.832031 584.535156 C 1105.707031 584.410156 1105.460938 584.164062 1105.335938 584.039062 C 1105.210938 583.914062 1104.964844 583.667969 1104.839844 583.542969 C 1104.714844 583.421875 1104.59375 583.171875 1104.34375 583.046875 C 1104.21875 582.925781 1104.097656 582.800781 1103.847656 582.550781 C 1103.722656 582.429688 1103.476562 582.179688 1103.351562 582.054688 C 1103.226562 581.933594 1103.105469 581.683594 1102.855469 581.558594 C 1102.730469 581.4375 1102.484375 581.3125 1102.359375 581.0625 C 1102.234375 580.941406 1101.988281 580.816406 1101.863281 580.566406 C 1101.738281 580.445312 1101.617188 580.320312 1101.367188 580.070312 C 1101.242188 579.949219 1100.996094 579.824219 1100.871094 579.574219 C 1100.746094 579.453125 1100.5 579.203125 1100.375 579.078125 C 1100.253906 578.957031 1100.003906 578.707031 1099.878906 578.585938 C 1099.757812 578.460938 1099.632812 578.335938 1099.382812 578.089844 C 1099.261719 577.964844 1099.011719 577.714844 1098.886719 577.59375 C 1098.765625 577.46875 1098.640625 577.34375 1098.390625 577.097656 C 1098.269531 576.972656 1098.019531 576.722656 1097.894531 576.601562 C 1097.773438 576.476562 1097.648438 576.351562 1097.398438 576.105469 C 1097.398438 576.105469 1097.277344 575.980469 1097.277344 575.980469 C 1126.414062 616.898438 1126.910156 666.746094 1126.910156 720.6875 C 1126.910156 775.992188 1082.023438 820.878906 1026.71875 820.878906 L 940.292969 820.878906 C 940.414062 821.253906 940.539062 821.746094 940.664062 821.996094 C 959.015625 860.1875 967.324219 902.96875 962.488281 944.261719 L 1128.277344 944.261719 C 1198.335938 931.613281 1224.253906 875.5625 1224.871094 822.242188 C 1230.328125 778.96875 1223.632812 704.195312 1174.28125 652.984375 Z M 269.328125 642.566406 C 287.433594 567.425781 288.050781 476.285156 261.765625 418.253906 L 261.515625 417.757812 C 250.109375 394.566406 173.722656 381.546875 172.980469 381.425781 C 164.425781 380.058594 156.734375 381.425781 150.660156 384.523438 C 142.226562 388.617188 136.648438 396.054688 135.53125 403.621094 C 134.292969 411.554688 122.882812 497.488281 122.015625 507.902344 C 121.644531 512.367188 122.636719 517.078125 124.867188 521.667969 C 127.71875 527.621094 132.679688 533.324219 139.253906 538.035156 C 145.574219 542.625 165.664062 556.140625 175.460938 562.835938 C 176.328125 577.46875 185.132812 606.359375 169.757812 651.371094 C 154.503906 696.011719 130.449219 712.378906 120.402344 723.789062 C 108.5 723.042969 84.320312 721.679688 76.507812 721.433594 C 68.199219 721.183594 60.882812 722.671875 55.054688 725.523438 C 50.34375 727.757812 46.625 730.980469 44.269531 734.949219 C 39.183594 743.378906 -4.214844 817.902344 -8.183594 825.34375 C -11.902344 832.410156 -11.40625 841.339844 -7.316406 849.523438 C -4.214844 855.972656 1.117188 861.800781 8.058594 865.644531 C 8.679688 866.015625 76.382812 902.472656 99.945312 890.816406 C 100.066406 890.691406 100.191406 890.566406 100.441406 890.566406 C 129.457031 875.191406 158.71875 846.921875 184.636719 813.316406 C 218.363281 754.292969 249.734375 718.457031 269.328125 642.566406 Z M 269.328125 642.566406 "/>
</g>
</svg>
