<?xml version="1.0" encoding="utf-8"?>
<!-- Generator: Adobe Illustrator 24.0.2, SVG Export Plug-In . SVG Version: 6.00 Build 0)  -->
<svg version="1.1" id="Layer_1" xmlns="http://www.w3.org/2000/svg" xmlns:xlink="http://www.w3.org/1999/xlink" x="0px" y="0px"
	 viewBox="0 0 1240 1240" style="enable-background:new 0 0 1240 1240;" xml:space="preserve">
<style type="text/css">
	.st0{fill:url(#SVGID_1_);}
</style>
<g id="surface1">
	
		<linearGradient id="SVGID_1_" gradientUnits="userSpaceOnUse" x1="-4781.0591" y1="227.8481" x2="-4696.1748" y2="227.8481" gradientTransform="matrix(12.4 0 0 12.4 59382.5977 -2209.9998)">
		<stop  offset="0" style="stop-color:#881FFF"/>
		<stop  offset="0.2415" style="stop-color:#A13BE7"/>
		<stop  offset="0.7609" style="stop-color:#E084AA"/>
		<stop  offset="1" style="stop-color:#FFA78C"/>
	</linearGradient>
	<path class="st0" d="M805.6,225.9C748.5,282.3,692,339.1,635.3,396c-23.1,23.1-46.3,45.8-69,69.2c-42.7,43.6-50.6,105.4-17.4,156.8
		c9.4,14.5,6.5,7.2,19.3,19.5c3.2,3.1,7.5,5,12.6,8.4c-15.4,15.4-30.1,30.1-44.7,44.7c-14.9,14.9-29.5,29.7-45.8,46.1
		c-14.7-13.2-12.6-6.3-24.8-20.8c-17.6-20.7-34.3-59.4-30.7-56.2c16.2-16.2,31.1-31.3,45.8-46.1c14.7-14.7,29.4-29.4,44.7-44.7
		c-5.3-3.4-9.6-5.3-12.6-8.4c-12.8-12.1-28.2-23.1-37.4-37.4c-33-51.4-25.3-113.2,17.4-156.8c22.7-23.2,45.9-46.1,69-69.2
		c56.7-56.7,113.2-113.6,170.3-170.1c33.3-33,73.8-45.3,119.4-34.7c48.3,11.1,80.6,41.5,94.3,89c1.4,4.6,2.2,9.4,3.2,14
		c-7.5-3.2-15.4-6-23.7-7.9C879.3,180.6,838.9,192.9,805.6,225.9z M1143.2,262.8c-11.3-57.9-44.2-108.8-89.3-144.8
		c7,15.7,12.5,32.4,15.7,49.7c2.6,13,4.6,26,6.8,38.9c0,9.1,0,18.3,0,27.3c-2.9,16.1-5.1,32.3-9.1,48.2
		c-10.2,42.7-30.6,80.4-61.1,111.9c-41,42.2-82.3,83.9-123.7,125.7c18.1,42.7,25.4,87.6,24.4,133.9c-0.2,2.9,0.3,5.8,0.5,9.4
		c1.9-1.4,2.7-1.9,3.4-2.7c56.4-57,113.1-113.9,168.9-171.3c30.7-31.4,50.9-69.2,61.1-111.9c3.8-15.9,6-32.1,9.1-48.2
		c0-9.1,0-18.3,0-27.3C1147.8,288.7,1145.8,275.8,1143.2,262.8z M162,695.9c-34.7,35.9-46.1,78.7-32.3,126.6
		c11.8,40.5,36.9,68.3,74,82.8c-7.5-41.3,4.8-78.9,35.5-110.7c32.4-33.5,108.6-106.6,141.9-139.2c6.7-6.5,10.1-13.3,3.9-20
		c-53.1-56.7-43.9-104.4-43.9-118c-2.7,2.2-4.1,3.2-5.1,4.3C320.3,537.6,194.6,662.3,162,695.9z M771.1,494.2
		c-12.3-16.2-26.1-30.2-40.8-42c14,35.7,18.8,74,15.4,114.3c-5.5,62.7-32.8,116.5-76.3,160.9C590,808.1,509.7,887.7,429.5,967.5
		c-43,42.7-95.3,66.4-155.9,71.7c-3.1,0.3-6,1.5-9.1,2.4c-9.2,0-18.3,0-27.5,0c-8.9-1.5-17.8-3.2-26.8-4.6
		c-41.7-6.3-80.1-23.2-112.7-47.8c34.2,75.7,105.7,131.8,189.6,144.3c8.9,1.4,17.8,3.1,26.6,4.6c9.1,0,18.3,0,27.3,0
		c2.9-0.9,6-2,9.1-2.4c60.1-5.1,112.2-28.9,154.9-71.4C584.7,985,664.7,906,743.4,825.7c43.4-44.2,70.5-97.5,76-159.9
		C824.3,603.2,809.8,545.4,771.1,494.2z"/>
</g>
</svg>
