<?xml version="1.0" encoding="UTF-8"?>
<svg xmlns="http://www.w3.org/2000/svg" xmlns:xlink="http://www.w3.org/1999/xlink" width="1240pt" height="1240pt" viewBox="0 0 1240 1240" version="1.1">
<defs>
<linearGradient id="linear0" gradientUnits="userSpaceOnUse" x1="-1.0564" y1="42.1316" x2="142.9616" y2="42.1316" gradientTransform="matrix(12.4,0,0,12.4,0,0)">
<stop offset="0" style="stop-color:rgb(53.333333%,12.156863%,100%);stop-opacity:1;"/>
<stop offset="0.2415" style="stop-color:rgb(63.137255%,23.137255%,90.588235%);stop-opacity:1;"/>
<stop offset="0.7609" style="stop-color:rgb(87.843137%,51.764706%,66.666667%);stop-opacity:1;"/>
<stop offset="1" style="stop-color:rgb(100%,65.490196%,54.901961%);stop-opacity:1;"/>
</linearGradient>
<linearGradient id="linear1" gradientUnits="userSpaceOnUse" x1="12.1259" y1="50.1516" x2="99.0011" y2="50.1516" gradientTransform="matrix(12.4,0,0,12.4,0,0)">
<stop offset="0" style="stop-color:rgb(53.333333%,12.156863%,100%);stop-opacity:1;"/>
<stop offset="0.2415" style="stop-color:rgb(63.137255%,23.137255%,90.588235%);stop-opacity:1;"/>
<stop offset="0.7609" style="stop-color:rgb(87.843137%,51.764706%,66.666667%);stop-opacity:1;"/>
<stop offset="1" style="stop-color:rgb(100%,65.490196%,54.901961%);stop-opacity:1;"/>
</linearGradient>
</defs>
<g id="surface1">
<path style=" stroke:none;fill-rule:nonzero;fill:url(#linear0);" d="M 324.261719 203.855469 C 189.597656 259.65625 92.875 375.222656 78.367188 511.746094 C 115.566406 520.550781 142.972656 550.4375 142.972656 585.898438 L 142.972656 738.914062 C 142.972656 781.324219 103.789062 815.796875 55.675781 815.796875 L -2.109375 815.796875 L 64.230469 829.1875 L 142.226562 841.09375 C 190.214844 841.09375 229.277344 802.15625 229.277344 754.414062 L 229.277344 581.683594 C 229.277344 541.632812 201.996094 508.027344 164.921875 498.109375 C 175.957031 379.191406 235.847656 274.410156 324.261719 203.855469 Z M 324.261719 203.855469 "/>
<path style=" stroke:none;fill-rule:nonzero;fill:url(#linear1);" d="M 1167.460938 497.238281 C 1165.847656 469.09375 1139.558594 438.09375 1130.136719 407.710938 C 1022.875 63.238281 730.730469 18.476562 696.261719 14.136719 C 661.789062 7.191406 626.324219 3.71875 590.859375 3.71875 C 455.949219 3.71875 332.566406 54.0625 238.453125 136.894531 C 317.316406 96.597656 408.703125 73.53125 506.167969 73.53125 C 541.757812 73.53125 577.34375 76.632812 611.941406 82.707031 C 646.535156 86.550781 919.089844 126.230469 1026.597656 431.519531 C 1036.019531 458.429688 1040.113281 485.957031 1041.722656 510.878906 C 1080.410156 518.691406 1109.429688 549.320312 1109.429688 585.652344 L 1109.429688 738.667969 C 1109.429688 778.71875 1074.460938 811.578125 1029.945312 815.175781 C 962.238281 947.855469 828.070312 1047.675781 667.738281 1084.753906 C 647.402344 1130.136719 619.875 1163.121094 551.550781 1163.121094 C 490.296875 1163.121094 468.347656 1136.585938 452.351562 1098.515625 C 452.226562 1100.5 451.730469 1102.484375 451.980469 1104.59375 C 455.949219 1132.988281 515.097656 1207.882812 551.925781 1224.871094 C 608.839844 1251.285156 700.722656 1248.804688 743.628906 1166.964844 C 903.464844 1125.175781 1088.347656 990.140625 1155.679688 840.472656 C 1199.949219 836.503906 1234.792969 799.304688 1234.792969 754.167969 L 1234.792969 581.683594 C 1234.914062 540.515625 1206.023438 506.167969 1167.460938 497.238281 Z M 1167.460938 497.238281 "/>
</g>
</svg>
