<?xml version="1.0" encoding="UTF-8"?>
<svg xmlns="http://www.w3.org/2000/svg" xmlns:xlink="http://www.w3.org/1999/xlink" width="1240pt" height="1240pt" viewBox="0 0 1240 1240" version="1.1">
<defs>
<linearGradient id="linear0" gradientUnits="userSpaceOnUse" x1="0.7632" y1="60.4291" x2="99.7332" y2="60.4291" gradientTransform="matrix(12.4,0,0,12.4,0,0)">
<stop offset="0" style="stop-color:rgb(53.333333%,12.156863%,100%);stop-opacity:1;"/>
<stop offset="0.2415" style="stop-color:rgb(63.137255%,23.137255%,90.588235%);stop-opacity:1;"/>
<stop offset="0.7609" style="stop-color:rgb(87.843137%,51.764706%,66.666667%);stop-opacity:1;"/>
<stop offset="1" style="stop-color:rgb(100%,65.490196%,54.901961%);stop-opacity:1;"/>
</linearGradient>
<linearGradient id="linear1" gradientUnits="userSpaceOnUse" x1="61.0292" y1="20.6916" x2="76.2279" y2="20.6916" gradientTransform="matrix(12.4,0,0,12.4,0,0)">
<stop offset="0" style="stop-color:rgb(53.333333%,12.156863%,100%);stop-opacity:1;"/>
<stop offset="0.2415" style="stop-color:rgb(63.137255%,23.137255%,90.588235%);stop-opacity:1;"/>
<stop offset="0.7609" style="stop-color:rgb(87.843137%,51.764706%,66.666667%);stop-opacity:1;"/>
<stop offset="1" style="stop-color:rgb(100%,65.490196%,54.901961%);stop-opacity:1;"/>
</linearGradient>
</defs>
<g id="surface1">
<path style=" stroke:none;fill-rule:nonzero;fill:url(#linear0);" d="M 9.425781 849.027344 C 56.046875 885.234375 114.699219 906.9375 178.1875 906.9375 L 831.667969 906.9375 C 983.691406 906.9375 1107.445312 783.183594 1107.445312 631.160156 C 1107.445312 567.671875 1085.742188 509.144531 1049.535156 462.394531 L 1155.679688 568.539062 C 1205.652344 618.015625 1236.652344 686.710938 1236.652344 762.722656 C 1236.652344 913.757812 1114.265625 1036.144531 963.230469 1036.144531 L 309.753906 1036.144531 C 233.863281 1036.144531 165.167969 1005.144531 115.566406 955.171875 Z M 9.425781 849.027344 "/>
<path style=" stroke:none;fill-rule:nonzero;fill:url(#linear1);" d="M 756.773438 133.175781 C 801.785156 189.71875 828.691406 261.144531 828.691406 338.769531 C 828.691406 343.976562 828.566406 349.433594 828.195312 355.507812 L 831.667969 355.507812 C 872.09375 355.507812 910.53125 364.3125 945.128906 380.058594 C 929.503906 325.253906 906.441406 282.71875 859.320312 232.996094 C 812.324219 183.273438 756.773438 133.175781 756.773438 133.175781 Z M 756.773438 133.175781 "/>
</g>
</svg>
