<?xml version="1.0" encoding="iso-8859-1"?>
<!-- Generator: Adobe Illustrator 24.0.0, SVG Export Plug-In . SVG Version: 6.00 Build 0)  -->
<svg version="1.1" id="Layer_1" xmlns="http://www.w3.org/2000/svg" xmlns:xlink="http://www.w3.org/1999/xlink" x="0px" y="0px"
	 viewBox="0 0 500 802.711" style="enable-background:new 0 0 500 802.711;" xml:space="preserve">
<linearGradient id="SVGID_1_" gradientUnits="userSpaceOnUse" x1="213.6262" y1="299.611" x2="213.6262" y2="46.239">
	<stop  offset="0.0025" style="stop-color:#871FFF"/>
	<stop  offset="1" style="stop-color:#F8A79A"/>
</linearGradient>
<path style="fill:url(#SVGID_1_);" d="M4.849,164.539L206.375,48.188c4.501-2.599,10.047-2.599,14.548,0l201.481,116.325
	c6.466,3.733,6.466,13.065,0,16.798L220.878,297.662c-4.501,2.599-10.047,2.599-14.548,0L4.849,181.337
	C-1.616,177.604-1.616,168.272,4.849,164.539z"/>
<linearGradient id="SVGID_2_" gradientUnits="userSpaceOnUse" x1="328.0955" y1="564.6987" x2="328.0955" y2="360.8107">
	<stop  offset="0.0025" style="stop-color:#871FFF"/>
	<stop  offset="1" style="stop-color:#F8A79A"/>
</linearGradient>
<path style="fill:url(#SVGID_2_);" d="M160.093,456.006l162.167-93.627c3.622-2.091,8.085-2.091,11.707,0l162.131,93.606
	c5.203,3.004,5.203,10.514,0,13.518L333.931,563.13c-3.622,2.091-8.085,2.091-11.707,0l-162.131-93.606
	C154.89,466.52,154.89,459.01,160.093,456.006z"/>
<linearGradient id="SVGID_3_" gradientUnits="userSpaceOnUse" x1="219.8073" y1="802.7115" x2="219.8073" y2="613.3766">
	<stop  offset="0.0025" style="stop-color:#871FFF"/>
	<stop  offset="1" style="stop-color:#F8A79A"/>
</linearGradient>
<path style="fill:url(#SVGID_3_);" d="M63.797,701.777l150.592-86.944c3.363-1.942,7.507-1.942,10.871,0l150.558,86.925
	c4.832,2.789,4.832,9.763,0,12.553l-150.592,86.944c-3.363,1.942-7.507,1.942-10.871,0L63.797,714.33
	C58.965,711.541,58.965,704.567,63.797,701.777z"/>
<linearGradient id="SVGID_4_" gradientUnits="userSpaceOnUse" x1="330.2413" y1="412.1066" x2="330.2413" y2="528.4362">
	<stop  offset="0" style="stop-color:#D6219C"/>
	<stop  offset="0.9984" style="stop-color:#FFA68C"/>
</linearGradient>
<path style="fill:url(#SVGID_4_);" d="M338.065,526.519l115.84-66.715c1.92-1.106,3.101-3.154,3.096-5.37l-0.106-47.417
	l-125.006,72.166l-128.346-74.25l-0.061,47.355c-0.003,2.21,1.174,4.253,3.088,5.359l119.14,68.863
	C329.531,528.718,334.24,528.722,338.065,526.519z"/>
<polygon style="fill:#FFFFFF;" points="456.895,407.016 331.888,479.182 203.542,404.932 327.105,332.294 "/>
<g>
	<linearGradient id="SVGID_5_" gradientUnits="userSpaceOnUse" x1="337.128" y1="442.5626" x2="337.128" y2="359.9245">
		<stop  offset="0" style="stop-color:#D6219C"/>
		<stop  offset="0.9984" style="stop-color:#FFA68C"/>
	</linearGradient>
	<path style="fill:url(#SVGID_5_);" d="M320.103,445.258l88.064-50.888c1.529-0.884,2.471-2.515,2.471-4.281v-5.604l-95.555,55.111
		l-51.465-29.667l0.052,5.614c0.016,1.749,0.955,3.359,2.469,4.235l44.064,25.479C313.265,447.027,317.04,447.028,320.103,445.258z"
		/>
	<polygon style="fill:#FFFFFF;" points="274.752,407.786 319.187,433.482 403.461,384.569 399.663,382.378 395.895,384.456 
		359.235,363.249 362.971,361.171 359.235,359.017 	"/>
	<polygon style="fill:#80C7F5;" points="304.135,395.064 293.082,401.446 322.462,418.406 333.515,412.025 	"/>
	<polygon style="fill:#FA7554;" points="344.505,388.718 337.158,392.959 359.193,405.681 366.54,401.44 	"/>
	<polygon style="fill:#FA7554;" points="326.334,390.735 318.988,394.976 348.37,411.94 355.716,407.698 	"/>
	<polygon style="fill:#FA7554;" points="289.446,403.543 282.099,407.785 318.825,428.99 326.172,424.749 	"/>
	<polygon style="fill:#80C7F5;" points="344.534,371.739 337.188,375.98 366.541,392.957 373.888,388.716 	"/>
	<polygon style="fill:#FA7554;" points="366.508,367.527 359.162,371.769 388.515,388.746 395.862,384.504 	"/>
	<path style="fill:#871FFF;" d="M359.242,354.808l-95.505,55.14l51.346,29.647l95.555-55.111L359.242,354.808z M274.752,407.786
		l84.483-48.769l3.736,2.154l-3.736,2.078l36.659,21.207l3.768-2.078l3.799,2.191l-84.274,48.913L274.752,407.786z"/>
</g>
<g>
	<linearGradient id="SVGID_6_" gradientUnits="userSpaceOnUse" x1="300.1671" y1="313.6307" x2="329.6153" y2="313.6307">
		<stop  offset="0" style="stop-color:#83BFE8"/>
		<stop  offset="1" style="stop-color:#80C7F5"/>
	</linearGradient>
	<polygon style="fill:url(#SVGID_6_);" points="300.167,292.408 300.229,317.888 310.428,323.776 313.89,332.335 317.741,327.998 
		329.615,334.854 329.547,309.37 	"/>
	<g>
		<g>
			<polygon style="fill:#FFFFFF;" points="324.781,314.889 302.747,302.167 302.742,300.835 324.777,313.557 			"/>
		</g>
		<g>
			<polygon style="fill:#FFFFFF;" points="324.781,319.154 302.747,306.432 302.742,305.1 324.777,317.822 			"/>
		</g>
		<g>
			<polygon style="fill:#FFFFFF;" points="324.781,323.374 302.747,310.652 302.742,309.319 324.777,322.041 			"/>
		</g>
		<g>
			<polygon style="fill:#FFFFFF;" points="313.762,321.252 302.747,314.897 302.742,313.565 313.757,319.919 			"/>
		</g>
	</g>
	<linearGradient id="SVGID_7_" gradientUnits="userSpaceOnUse" x1="301.1107" y1="295.0513" x2="337.0577" y2="330.9984">
		<stop  offset="8.011200e-04" style="stop-color:#871FFF"/>
		<stop  offset="0.9984" style="stop-color:#80C7F5"/>
	</linearGradient>
	<path style="fill:url(#SVGID_7_);" d="M300.167,292.408l4.935-2.837c1.531-0.88,3.415-0.877,4.942,0.008l23.16,13.414
		c2.283,1.323,3.692,3.759,3.699,6.398l0.05,18.358c0.005,1.772-0.939,3.411-2.473,4.296l-4.866,2.808l-0.068-25.483
		L300.167,292.408z M319.955,329.304l-2.214-1.306l-3.851,4.337L319.955,329.304z"/>
</g>
<path style="fill:#FFFFFF;" d="M237.064,601.817c22.471,12.974,40.632,44.43,40.559,70.25c-0.001,0.528-0.022,1.053-0.036,1.574
	c1.107,0.46,2.232,1.017,3.381,1.68c13.466,7.775,24.343,26.614,24.299,42.088c-0.042,14.952-10.275,21.283-23.122,14.667
	l-90.448-52.549c-15.194-8.694-27.427-29.94-27.378-47.391c0.05-17.616,12.37-24.808,27.7-15.957
	c1.566,0.904,3.094,1.944,4.585,3.091C199.244,597.77,216.365,589.866,237.064,601.817z"/>
<linearGradient id="SVGID_8_" gradientUnits="userSpaceOnUse" x1="172.4174" y1="654.675" x2="340.467" y2="654.675">
	<stop  offset="8.011200e-04" style="stop-color:#6F54A3"/>
	<stop  offset="1" style="stop-color:#80C7F5"/>
</linearGradient>
<path style="fill:url(#SVGID_8_);" d="M340.467,697.414c0,0.024,0,0.653,0,0.653h-0.449c-0.002,0-0.462,0.532-0.478,0.918
	c-0.001,0.03-0.004-0.2-0.006-0.169c-0.006,0.127-0.016,0.251-0.023,0.377c-0.013,0.229-0.024,0.461-0.042,0.686
	c-0.006,0.068-0.015,0.133-0.021,0.201c-0.015,0.17-0.034,0.336-0.052,0.503c-0.017,0.155-0.029,0.313-0.048,0.466
	c-0.012,0.092-0.028,0.179-0.04,0.27c-0.025,0.181-0.052,0.36-0.08,0.537c-0.019,0.12-0.033,0.244-0.054,0.363
	c-0.018,0.103-0.042,0.2-0.061,0.302c-0.036,0.192-0.074,0.382-0.114,0.57c-0.022,0.102-0.039,0.208-0.062,0.309
	c-0.021,0.094-0.049,0.182-0.072,0.275c-0.055,0.228-0.114,0.451-0.175,0.673c-0.027,0.099-0.05,0.204-0.078,0.302
	c-0.02,0.07-0.047,0.135-0.068,0.205c-0.082,0.269-0.171,0.532-0.263,0.791c-0.035,0.098-0.063,0.203-0.1,0.3
	c-0.013,0.035-0.03,0.067-0.043,0.103c-0.164,0.43-0.339,0.847-0.528,1.248c-0.008,0.017-0.014,0.036-0.022,0.053
	c-0.016,0.034-0.037,0.063-0.054,0.097c-0.256,0.528-0.534,1.031-0.834,1.504c-0.013,0.02-0.023,0.044-0.035,0.064
	c-0.005,0.008-0.011,0.015-0.017,0.023c-0.249,0.387-0.516,0.75-0.793,1.099c-0.068,0.085-0.136,0.168-0.206,0.251
	c-0.272,0.326-0.553,0.64-0.849,0.931c-0.017,0.017-0.033,0.035-0.05,0.052c-0.311,0.302-0.64,0.579-0.977,0.842
	c-0.083,0.065-0.167,0.128-0.251,0.19c-0.344,0.255-0.697,0.497-1.066,0.711l-34.299,19.932c0.069-0.04,0.131-0.091,0.198-0.133
	c0.148-0.09,0.288-0.191,0.432-0.288c0.144-0.099,0.295-0.187,0.435-0.291c0.084-0.062,0.168-0.125,0.251-0.19
	c0.094-0.074,0.181-0.16,0.273-0.236c0.144-0.12,0.286-0.239,0.425-0.366c0.091-0.082,0.189-0.154,0.278-0.24
	c0.017-0.017,0.033-0.035,0.05-0.052c0.207-0.203,0.399-0.428,0.593-0.65c0.102-0.116,0.209-0.224,0.308-0.345
	c0.051-0.062,0.103-0.124,0.153-0.188c0.277-0.349,0.543-0.712,0.792-1.098c0.018-0.029,0.035-0.06,0.053-0.089
	c0.006-0.009,0.011-0.02,0.017-0.03c0.126-0.2,0.233-0.424,0.351-0.633c0.156-0.278,0.322-0.545,0.465-0.84
	c0.025-0.051,0.052-0.099,0.076-0.15c0.024-0.051,0.043-0.107,0.067-0.159c0.063-0.137,0.119-0.283,0.179-0.424
	c0.094-0.221,0.194-0.436,0.281-0.665c0.05-0.132,0.095-0.268,0.143-0.402c0.057-0.161,0.109-0.327,0.163-0.491
	c0.035-0.11,0.074-0.216,0.108-0.327c0.048-0.158,0.094-0.318,0.139-0.48c0.061-0.221,0.12-0.445,0.175-0.673
	c0.047-0.193,0.091-0.387,0.134-0.584c0.019-0.087,0.035-0.176,0.053-0.264c0.019-0.094,0.039-0.186,0.056-0.281
	c0.002-0.008,0.003-0.016,0.005-0.025c0.041-0.219,0.08-0.441,0.115-0.666c0.028-0.177,0.056-0.355,0.08-0.535
	c0.033-0.243,0.063-0.49,0.09-0.74c0.012-0.112,0.024-0.224,0.036-0.336c0.003-0.034,0.008-0.066,0.011-0.1
	c0.002-0.021,0.005-0.042,0.007-0.063c0.026-0.291,0.049-0.588,0.066-0.887c0.007-0.126,0.024-0.249,0.029-0.377
	c0.019-0.418,0.042-0.843,0.044-1.276l0.01,0.008c0-0.023,0-0.047,0-0.07c0-0.257-0.037-0.559-0.062-0.719
	c-0.001-0.038-0.004-0.078-0.005-0.116h0.012c-0.002,0-0.001-0.271-0.004-0.34c-0.005-0.148-0.014-0.431-0.021-0.58
	c-0.015-0.308-0.034-0.618-0.057-0.928c-0.003-0.044-0.007-0.088-0.01-0.132c-0.006-0.08-0.012-0.159-0.019-0.238
	c-0.003-0.033-0.005-0.067-0.008-0.1c-0.029-0.328-0.062-0.656-0.1-0.986c-0.015-0.13-0.027-0.26-0.043-0.391
	c-0.057-0.459-0.12-0.919-0.193-1.381c0-0.003-0.001-0.005-0.001-0.008c-0.002-0.015-0.005-0.029-0.008-0.044
	c-0.007-0.04-0.014-0.08-0.021-0.12c-0.066-0.405-0.138-0.811-0.216-1.218c-0.031-0.163-0.066-0.326-0.099-0.49
	c-0.063-0.31-0.129-0.62-0.199-0.93c-0.008-0.038-0.018-0.075-0.026-0.113c-0.021-0.091-0.042-0.182-0.064-0.273
	c-0.012-0.049-0.022-0.098-0.034-0.147c-0.072-0.302-0.148-0.604-0.226-0.906c-0.046-0.178-0.092-0.356-0.14-0.534
	c-0.088-0.323-0.181-0.646-0.275-0.969c-0.023-0.079-0.046-0.157-0.069-0.236c-0.018-0.059-0.034-0.117-0.051-0.176
	c-0.004-0.014-0.008-0.028-0.012-0.042c-0.143-0.469-0.291-0.938-0.448-1.407c-0.01-0.03-0.021-0.061-0.032-0.091
	c-0.148-0.438-0.302-0.875-0.462-1.311c-0.006-0.017-0.013-0.035-0.019-0.052c-0.023-0.063-0.047-0.125-0.071-0.188
	c-0.022-0.059-0.044-0.117-0.066-0.176c-0.123-0.328-0.249-0.656-0.379-0.983c-0.061-0.155-0.124-0.309-0.187-0.464
	c-0.138-0.337-0.279-0.674-0.424-1.01c-0.025-0.058-0.05-0.116-0.075-0.175c-0.022-0.051-0.044-0.103-0.066-0.154
	c-0.005-0.012-0.01-0.024-0.016-0.036c-0.199-0.454-0.404-0.906-0.615-1.356c-0.05-0.106-0.103-0.212-0.154-0.318
	c-0.169-0.354-0.34-0.707-0.517-1.058c-0.009-0.017-0.018-0.034-0.027-0.052c-0.042-0.083-0.086-0.166-0.129-0.249
	c-0.073-0.141-0.145-0.282-0.218-0.422c-0.122-0.235-0.243-0.471-0.368-0.704c-0.206-0.384-0.425-0.76-0.639-1.139
	c-0.122-0.215-0.238-0.432-0.362-0.646c-0.017-0.03-0.033-0.06-0.051-0.09c-0.066-0.113-0.133-0.223-0.2-0.335
	c-0.178-0.299-0.372-0.588-0.555-0.884c-0.325-0.527-0.646-1.057-0.987-1.573c-0.024-0.036-0.045-0.073-0.068-0.109
	c-0.081-0.123-0.164-0.244-0.247-0.366c-0.445-0.66-0.899-1.312-1.369-1.95c-0.006-0.008-0.011-0.016-0.017-0.023
	c-0.001-0.001-0.001-0.002-0.002-0.003c-0.338-0.459-0.684-0.911-1.034-1.357c-0.276-0.352-0.557-0.699-0.84-1.043
	c-0.039-0.047-0.077-0.096-0.116-0.144c-0.005-0.006-0.01-0.012-0.015-0.018c-0.001-0.001-0.002-0.003-0.003-0.004
	c-0.329-0.396-0.663-0.785-1.001-1.169c-0.095-0.108-0.193-0.213-0.29-0.321c-0.241-0.269-0.482-0.537-0.727-0.799
	c-0.014-0.015-0.028-0.029-0.042-0.044c-0.055-0.059-0.111-0.115-0.166-0.173c-0.07-0.073-0.14-0.147-0.21-0.22
	c-0.211-0.221-0.422-0.441-0.636-0.657c-0.152-0.153-0.305-0.303-0.458-0.453c-0.207-0.203-0.415-0.405-0.624-0.604
	c-0.032-0.03-0.063-0.059-0.095-0.088c-0.08-0.075-0.16-0.149-0.24-0.223c-0.054-0.05-0.107-0.1-0.161-0.149
	c-0.206-0.19-0.414-0.378-0.622-0.563c-0.167-0.148-0.334-0.294-0.503-0.439c-0.213-0.183-0.427-0.363-0.642-0.541
	c-0.048-0.04-0.097-0.079-0.145-0.118c-0.081-0.067-0.162-0.133-0.244-0.199c-0.035-0.028-0.069-0.057-0.104-0.085
	c-0.225-0.18-0.451-0.356-0.678-0.531c-0.154-0.118-0.307-0.237-0.462-0.352c-0.25-0.186-0.501-0.366-0.753-0.545
	c-0.072-0.051-0.144-0.102-0.216-0.154c-0.048-0.034-0.096-0.069-0.144-0.102c-0.012-0.008-0.023-0.017-0.034-0.024
	c-0.379-0.262-0.76-0.517-1.145-0.761c-0.025-0.016-0.051-0.031-0.076-0.046c-0.393-0.249-0.789-0.49-1.187-0.72
	c-1.15-0.664-2.275-1.22-3.381-1.68c0.014-0.521,0.034-1.046,0.036-1.575c0.005-1.731-0.078-3.488-0.233-5.263v0
	c-0.034-0.385-0.076-0.771-0.117-1.158c-0.13-1.233-0.29-2.471-0.492-3.717c-0.002-0.009-0.003-0.018-0.005-0.027
	c-0.109-0.671-0.228-1.342-0.358-2.016c0-0.002-0.001-0.003-0.001-0.005c-0.052-0.271-0.11-0.542-0.165-0.813
	c0-0.001,0-0.002-0.001-0.003c-0.064-0.313-0.134-0.627-0.201-0.941c-0.108-0.499-0.218-0.998-0.337-1.498
	c0-0.001,0-0.002-0.001-0.002c-0.12-0.502-0.246-1.005-0.376-1.508c-0.001-0.004-0.002-0.007-0.003-0.011
	c-0.137-0.528-0.283-1.056-0.432-1.585c-0.087-0.307-0.171-0.614-0.261-0.92c-0.001-0.005-0.003-0.009-0.004-0.014
	c-0.072-0.244-0.14-0.488-0.214-0.732c-0.001-0.002-0.001-0.004-0.002-0.006c-0.238-0.782-0.485-1.564-0.747-2.345
	c0,0,0-0.001,0-0.001c-0.017-0.051-0.036-0.102-0.053-0.154c-0.005-0.015-0.011-0.03-0.016-0.046
	c-0.241-0.714-0.493-1.428-0.754-2.141c-0.001-0.001-0.001-0.003-0.002-0.004c-0.431-1.175-0.893-2.346-1.375-3.512
	c-0.178-0.429-0.356-0.858-0.54-1.286c-0.003-0.006-0.005-0.013-0.008-0.019c-0.083-0.193-0.164-0.386-0.248-0.579
	c-0.001-0.001-0.001-0.003-0.002-0.004c-0.332-0.756-0.673-1.51-1.026-2.26c0-0.001-0.001-0.001-0.001-0.002
	c-0.117-0.249-0.242-0.496-0.361-0.744c-0.249-0.519-0.499-1.037-0.758-1.552c-0.001-0.002-0.002-0.004-0.003-0.006
	c-0.201-0.4-0.41-0.796-0.616-1.193c-0.004-0.008-0.008-0.016-0.012-0.024c-0.202-0.388-0.401-0.776-0.608-1.162
	c0,0-0.001-0.001-0.001-0.001c-0.566-1.054-1.153-2.098-1.757-3.132c0,0,0-0.001-0.001-0.001c-0.205-0.351-0.414-0.698-0.623-1.046
	c-0.001-0.002-0.003-0.004-0.004-0.007c-0.253-0.421-0.506-0.842-0.765-1.259c0,0,0-0.001-0.001-0.001
	c-0.232-0.374-0.47-0.745-0.707-1.115c0,0-0.001-0.001-0.001-0.001c-0.263-0.411-0.526-0.821-0.795-1.227
	c-0.002-0.003-0.004-0.006-0.006-0.009c-0.175-0.264-0.353-0.525-0.53-0.787c-0.002-0.003-0.005-0.006-0.007-0.01
	c-0.749-1.11-1.512-2.208-2.303-3.28c-0.001-0.001-0.001-0.002-0.002-0.003c-0.02-0.026-0.04-0.052-0.06-0.078
	c-0.547-0.74-1.103-1.47-1.668-2.19c-0.002-0.002-0.003-0.004-0.005-0.006c-0.451-0.574-0.909-1.139-1.371-1.7
	c-0.024-0.029-0.048-0.059-0.072-0.088c-0.062-0.075-0.122-0.153-0.185-0.228c-0.001-0.001-0.002-0.002-0.002-0.003
	c-0.548-0.659-1.105-1.308-1.668-1.948c-0.001-0.002-0.003-0.003-0.004-0.005c-0.158-0.18-0.321-0.354-0.48-0.532
	c-0.003-0.004-0.007-0.007-0.01-0.011c-0.398-0.444-0.797-0.887-1.202-1.32c-0.001-0.001-0.002-0.002-0.002-0.002
	c-0.228-0.244-0.46-0.482-0.69-0.723c-0.004-0.004-0.008-0.009-0.013-0.013c-0.313-0.328-0.628-0.654-0.946-0.975
	c-0.899-0.909-1.813-1.79-2.74-2.644c-0.003-0.003-0.006-0.006-0.009-0.008c-0.343-0.315-0.688-0.628-1.035-0.936
	c-0.002-0.001-0.003-0.003-0.005-0.004c-0.278-0.246-0.557-0.489-0.837-0.73c0,0,0,0,0,0c-0.354-0.304-0.71-0.604-1.067-0.9
	c-0.002-0.001-0.003-0.003-0.005-0.004c-0.271-0.224-0.542-0.447-0.815-0.666c-0.002-0.001-0.003-0.003-0.005-0.004
	c-0.375-0.301-0.753-0.595-1.131-0.886c-0.001,0-0.001-0.001-0.002-0.001c-0.254-0.195-0.507-0.392-0.763-0.582
	c-0.001-0.001-0.003-0.002-0.004-0.003c-0.418-0.312-0.84-0.614-1.262-0.914c-0.008-0.006-0.017-0.012-0.025-0.018
	c-0.204-0.145-0.407-0.294-0.613-0.436c-0.005-0.003-0.009-0.007-0.014-0.01c-0.633-0.437-1.269-0.863-1.91-1.271
	c-0.043-0.027-0.086-0.053-0.129-0.08c-0.656-0.415-1.314-0.819-1.978-1.202c-0.597-0.345-1.19-0.669-1.781-0.981
	c-0.223-0.118-0.445-0.242-0.667-0.355c-0.445-0.227-0.888-0.462-1.33-0.67c-0.196-0.092-0.393-0.226-0.588-0.315
	c-0.283-0.129-1.149-0.455-2.033-0.781c-17.74-7.017-31.699,1.321-34.06,20.56c-0.722-0.555-1.453-1.083-2.193-1.584
	c-0.001,0-0.001-0.001-0.002-0.001c-0.067-0.045-0.134-0.088-0.201-0.132h0c-0.008-0.006-0.017-0.01-0.026-0.016
	c-0.714-0.478-1.434-0.935-2.164-1.356c-0.003-0.001-0.005-0.003-0.008-0.004c-0.404-0.233-0.804-0.449-1.203-0.66
	c-0.151-0.08-0.302-0.158-0.452-0.234c-0.302-0.154-0.602-0.3-0.901-0.441c-0.054-0.026-0.109-0.051-0.163-0.077
	c-0.062-0.029-0.124-0.059-0.186-0.087c-0.018-0.008-0.037-0.018-0.055-0.026c-0.407-0.185-0.811-0.36-1.212-0.522
	c-0.019-0.008-0.039-0.017-0.058-0.025c-0.422-0.169-0.84-0.322-1.255-0.466c-0.012-0.004-0.024-0.008-0.035-0.012
	c-0.054-0.019-0.107-0.034-0.161-0.053c-0.065-0.021-0.13-0.042-0.195-0.064c-0.284-0.093-0.566-0.182-0.847-0.263
	c-0.162-0.047-0.324-0.091-0.485-0.134c-0.256-0.068-0.51-0.132-0.763-0.19c-0.046-0.011-0.091-0.02-0.137-0.031
	c-0.081-0.018-0.161-0.036-0.241-0.054c-0.036-0.008-0.072-0.017-0.108-0.024c-0.237-0.049-0.473-0.091-0.707-0.132
	c-0.186-0.032-0.373-0.065-0.557-0.092c-0.221-0.032-0.438-0.056-0.656-0.08c-0.081-0.009-0.161-0.016-0.242-0.025
	c-0.088-0.009-0.177-0.02-0.265-0.027c-0.027-0.002-0.055-0.006-0.082-0.008c-0.193-0.015-0.382-0.022-0.572-0.031
	c-0.235-0.011-0.47-0.021-0.702-0.023c-0.168-0.001-0.333,0.004-0.499,0.008c-0.078,0.002-0.154,0.008-0.232,0.011
	c-0.145,0.005-0.289,0.011-0.432,0.02c-0.065,0.004-0.132,0.005-0.196,0.009c-0.151,0.011-0.302,0.024-0.452,0.04
	c-0.438,0.046-0.869,0.106-1.291,0.188c-0.039,0.008-0.078,0.012-0.117,0.019c-0.016,0.003-0.031,0.007-0.046,0.01
	c-0.075,0.016-0.148,0.036-0.222,0.053c-0.263,0.059-0.525,0.12-0.782,0.192c-0.124,0.035-0.245,0.077-0.367,0.116
	c-0.206,0.064-0.411,0.13-0.612,0.204c-0.013,0.005-0.024,0.01-0.037,0.015c-0.08,0.029-0.156,0.065-0.236,0.096
	c-0.151,0.061-0.304,0.12-0.454,0.185c-0.117,0.051-0.236,0.096-0.351,0.15c-0.332,0.156-0.656,0.325-0.973,0.507
	c-0.01,0.006-0.021,0.009-0.031,0.014l34.275-19.919c0.334-0.194,0.678-0.371,1.028-0.535c0.115-0.054,0.234-0.099,0.351-0.149
	c0.24-0.104,0.48-0.206,0.727-0.296c0.04-0.015,0.078-0.034,0.118-0.048c0.162-0.057,0.329-0.104,0.494-0.155
	c0.123-0.038,0.243-0.081,0.368-0.116c0.256-0.072,0.518-0.134,0.78-0.192c0.086-0.019,0.169-0.043,0.255-0.06
	c0.009-0.002,0.018-0.005,0.028-0.007c0.034-0.007,0.07-0.008,0.104-0.015c0.422-0.082,0.853-0.142,1.291-0.188
	c0.063-0.006,0.123-0.021,0.187-0.027c0.087-0.008,0.178-0.006,0.265-0.013c0.284-0.021,0.57-0.035,0.86-0.041
	c0.101-0.002,0.197-0.014,0.298-0.014c0.066,0,0.134,0.006,0.201,0.006c0.231,0.002,0.465,0.012,0.699,0.023
	c0.132,0.006,0.261,0.004,0.395,0.013c0.059,0.004,0.12,0.014,0.18,0.018c0.194,0.015,0.391,0.038,0.587,0.06
	c0.152,0.016,0.301,0.026,0.454,0.046c0.067,0.009,0.136,0.024,0.204,0.034c0.184,0.027,0.371,0.06,0.557,0.092
	c0.148,0.026,0.294,0.044,0.443,0.073c0.087,0.017,0.177,0.04,0.264,0.059c0.162,0.033,0.324,0.07,0.487,0.108
	c0.024,0.005,0.048,0.011,0.072,0.016l24.015-13.956c0.495-0.287,1.005-0.549,1.524-0.793c0.17-0.08,0.347-0.146,0.519-0.221
	c0.356-0.154,0.713-0.305,1.079-0.439c0.062-0.023,0.12-0.052,0.182-0.074c0.228-0.081,0.464-0.145,0.696-0.218
	c0.192-0.06,0.38-0.125,0.575-0.18c0.346-0.097,0.701-0.179,1.055-0.259c0.161-0.036,0.319-0.081,0.482-0.114
	c0.023-0.004,0.045-0.011,0.067-0.016c0.455-0.09,0.919-0.162,1.387-0.224c0.126-0.017,0.253-0.03,0.38-0.044
	c0.185-0.021,0.367-0.048,0.553-0.065c0.127-0.011,0.26-0.009,0.388-0.018c0.404-0.03,0.812-0.048,1.224-0.058
	c0.151-0.004,0.297-0.021,0.45-0.021c0.098,0,0.2,0.009,0.298,0.01c0.348,0.002,0.7,0.018,1.053,0.034
	c0.193,0.009,0.381,0.005,0.576,0.019c0.085,0.006,0.172,0.02,0.257,0.026c0.305,0.024,0.614,0.06,0.923,0.095
	c0.223,0.025,0.442,0.038,0.667,0.068c0.092,0.013,0.187,0.033,0.279,0.046c0.252,0.037,0.508,0.082,0.763,0.126
	c0.227,0.039,0.451,0.068,0.679,0.112c0.128,0.025,0.26,0.06,0.388,0.086c0.248,0.051,0.497,0.108,0.747,0.166
	c0.189,0.044,0.376,0.078,0.567,0.126c0.183,0.046,0.37,0.104,0.554,0.153c0.234,0.062,0.468,0.126,0.703,0.194
	c0.137,0.04,0.271,0.071,0.408,0.113c0.275,0.083,0.554,0.181,0.832,0.272c0.198,0.065,0.395,0.125,0.594,0.194
	c0.071,0.024,0.14,0.044,0.211,0.069c0.542,0.191,1.089,0.396,1.639,0.617c0.539,0.216,1.082,0.446,1.628,0.691
	c0.08,0.036,0.161,0.077,0.241,0.114c0.195,0.089,0.391,0.185,0.587,0.277c0.272,0.128,0.542,0.249,0.816,0.384
	c0.171,0.085,0.344,0.18,0.516,0.267c0.221,0.113,0.442,0.227,0.664,0.345c0.163,0.086,0.324,0.164,0.488,0.252
	c0.43,0.233,0.861,0.474,1.294,0.724c0.133,0.077,0.267,0.155,0.4,0.233c0.529,0.311,1.054,0.635,1.578,0.966
	c0.043,0.027,0.086,0.052,0.129,0.079c0.005,0.003,0.01,0.006,0.015,0.009c0.579,0.369,1.156,0.75,1.728,1.142
	c0.056,0.039,0.112,0.081,0.168,0.12c0.218,0.15,0.433,0.308,0.649,0.462c0.317,0.225,0.636,0.444,0.951,0.676
	c0.105,0.077,0.208,0.161,0.313,0.239c0.257,0.192,0.512,0.389,0.768,0.585c0.235,0.18,0.472,0.353,0.705,0.538
	c0.144,0.114,0.285,0.235,0.429,0.35c0.275,0.221,0.548,0.445,0.821,0.671c0.186,0.154,0.374,0.301,0.559,0.457
	c0.172,0.145,0.34,0.299,0.511,0.446c0.28,0.241,0.56,0.484,0.838,0.731c0.152,0.135,0.307,0.264,0.459,0.401
	c0.195,0.176,0.386,0.361,0.579,0.539c0.277,0.255,0.554,0.51,0.828,0.77c0.126,0.119,0.255,0.234,0.381,0.354
	c0.222,0.213,0.44,0.436,0.66,0.653c0.256,0.251,0.512,0.501,0.765,0.757c0.096,0.097,0.195,0.19,0.29,0.287
	c0.259,0.264,0.513,0.538,0.769,0.806c0.234,0.245,0.47,0.487,0.702,0.736c0.064,0.069,0.129,0.134,0.193,0.203
	c0.341,0.368,0.675,0.746,1.011,1.121c0.163,0.183,0.329,0.361,0.491,0.545c0.026,0.03,0.052,0.058,0.078,0.088
	c0.531,0.604,1.052,1.218,1.569,1.84c0.006,0.007,0.005,0.014,0.011,0.021c0.081,0.098,0.146,0.199,0.227,0.297
	c0.441,0.535,0.855,1.074,1.286,1.622c0.026,0.033-0.001,0.068,0.025,0.101c0.58,0.739,1.047,1.488,1.607,2.247
	c0.006,0.009-0.189,0.017-0.189,0.026c0,0,0,0,0,0.001c0.678,1.076,1.768,2.178,2.52,3.292c0.086,0.128,0.389,0.25,0.475,0.378
	c0.09,0.135,0.175,0.274,0.265,0.409c0.27,0.409,0.535,0.821,0.799,1.234c0.238,0.373,0.477,0.744,0.71,1.12
	c0.259,0.418,0.513,0.839,0.766,1.261c0.157,0.262,0.321,0.52,0.476,0.784c0.051,0.088,0.098,0.178,0.149,0.266
	c0.604,1.035,1.192,2.079,1.758,3.134c0.032,0.059,0.067,0.117,0.099,0.177c0.174,0.326,0.338,0.657,0.509,0.985
	c0.212,0.407,0.426,0.813,0.632,1.223c0.039,0.079,0.082,0.156,0.121,0.235c0.248,0.497,0.486,0.998,0.725,1.498
	c0.091,0.19,0.185,0.377,0.275,0.567c0.013,0.028,0.027,0.055,0.04,0.082c0.306,0.653,0.604,1.308,0.894,1.965
	c0.031,0.07,0.06,0.141,0.091,0.211c0.088,0.202,0.173,0.404,0.26,0.606c0.161,0.374,0.325,0.747,0.481,1.123
	c0.078,0.187,0.15,0.376,0.227,0.564c0.105,0.259,0.209,0.518,0.312,0.777c0.085,0.212,0.173,0.423,0.256,0.636
	c0.13,0.333,0.251,0.667,0.376,1c0.087,0.233,0.177,0.465,0.262,0.698c0.036,0.098,0.075,0.196,0.111,0.295
	c0.223,0.616,0.436,1.232,0.645,1.849c0.022,0.067,0.047,0.133,0.069,0.199c0.003,0.008,0.006,0.017,0.009,0.025
	c0.234,0.701,0.459,1.402,0.675,2.104c0.022,0.071,0.041,0.142,0.062,0.214c0.077,0.253,0.148,0.507,0.222,0.76
	c0.115,0.392,0.235,0.784,0.343,1.176c0.041,0.146,0.076,0.292,0.115,0.439c0.081,0.299,0.158,0.598,0.236,0.897
	c0.071,0.275,0.148,0.549,0.216,0.824c0.056,0.227,0.105,0.454,0.159,0.681c0.071,0.298,0.141,0.597,0.209,0.895
	c0.042,0.185,0.089,0.37,0.129,0.555c0.072,0.332,0.134,0.663,0.202,0.994c0.056,0.274,0.114,0.548,0.167,0.821
	c0.02,0.102,0.043,0.205,0.062,0.308c0.107,0.571,0.203,1.139,0.295,1.708c0.016,0.101,0.036,0.202,0.052,0.303
	c0.002,0.015,0.006,0.03,0.008,0.045c0.108,0.683,0.205,1.365,0.292,2.044c0.009,0.071,0.017,0.142,0.025,0.213
	c0.027,0.219,0.051,0.437,0.076,0.655c0.042,0.375,0.096,0.75,0.131,1.124c0.017,0.173,0.039,0.345,0.054,0.518
	c0.023,0.262,0.068,0.523,0.088,0.784c0.017,0.225,0.09,0.452,0.104,0.676c0.019,0.293,0.128,0.584,0.142,0.877
	c0.012,0.247,0.228,0.495,0.236,0.742c0.004,0.116,0.42,0.233,0.42,0.349v0.006c0,0.032-0.257,0.063-0.256,0.095l-0.066-0.101
	c0.018,0.614,0.322,1.226,0.322,1.835c0,0.016,0,0.032,0,0.049l-0.413,0.639c-0.002,0.241-0.074,0.62-0.147,0.998
	c0.135,0.058,0.27,0.115,0.406,0.175c0.323,0.144,0.647,0.297,0.973,0.458c0.008,0.004,0.016,0.008,0.024,0.012
	c0.02,0.01,0.041,0.021,0.061,0.032c0.297,0.148,0.594,0.301,0.894,0.463c0.254,0.138,0.509,0.28,0.766,0.428
	c0.08,0.046,0.16,0.093,0.24,0.14c0.319,0.188,0.637,0.384,0.953,0.584c0.023,0.015,0.046,0.028,0.069,0.042
	c0.003,0.002,0.007,0.004,0.01,0.006c0.347,0.221,0.693,0.449,1.036,0.685c0.033,0.023,0.066,0.048,0.1,0.071
	c0.13,0.09,0.259,0.185,0.389,0.277c0.19,0.135,0.382,0.266,0.571,0.406c0.063,0.046,0.124,0.096,0.187,0.143
	c0.154,0.115,0.307,0.233,0.46,0.351c0.141,0.108,0.283,0.212,0.424,0.323c0.086,0.068,0.17,0.14,0.256,0.209
	c0.164,0.132,0.328,0.266,0.491,0.401c0.112,0.093,0.226,0.182,0.338,0.276c0.103,0.087,0.204,0.179,0.307,0.268
	c0.167,0.144,0.334,0.289,0.5,0.436c0.092,0.082,0.186,0.16,0.278,0.243c0.116,0.105,0.23,0.215,0.345,0.321
	c0.166,0.153,0.332,0.306,0.497,0.462c0.076,0.072,0.154,0.141,0.23,0.214c0.133,0.127,0.262,0.26,0.394,0.39
	c0.153,0.15,0.306,0.299,0.457,0.452c0.058,0.059,0.118,0.115,0.176,0.174c0.156,0.159,0.308,0.323,0.463,0.485
	c0.139,0.145,0.279,0.289,0.416,0.436c0.039,0.042,0.079,0.082,0.118,0.124c0.206,0.222,0.408,0.45,0.61,0.676
	c0.096,0.107,0.193,0.212,0.289,0.32c0.016,0.018,0.033,0.036,0.049,0.054c0.318,0.362,0.632,0.729,0.942,1.102
	c0.003,0.004,0.007,0.009,0.01,0.013c0.045,0.055,0.089,0.111,0.134,0.166c0.268,0.325,0.534,0.651,0.795,0.983
	c0.015,0.019,0.03,0.04,0.045,0.059c0.35,0.446,0.696,0.898,1.034,1.357c0.001,0.002,0.003,0.003,0.004,0.005v0
	c0.475,0.644,0.933,1.304,1.383,1.97c0.052,0.077,0.109,0.151,0.161,0.229c0.031,0.046,0.057,0.094,0.088,0.14
	c0.558,0.839,1.094,1.695,1.609,2.564c0.035,0.06,0.075,0.116,0.111,0.176c0.031,0.053,0.059,0.107,0.089,0.159
	c0.362,0.62,0.714,1.245,1.053,1.877c0.019,0.035,0.04,0.07,0.059,0.105c0.105,0.196,0.203,0.395,0.306,0.592
	c0.126,0.242,0.254,0.484,0.376,0.728c0.023,0.046,0.048,0.092,0.071,0.139c0.154,0.309,0.302,0.62,0.451,0.931
	c0.049,0.102,0.1,0.203,0.148,0.305c0.007,0.015,0.015,0.029,0.021,0.044c0.184,0.392,0.364,0.786,0.538,1.181
	c0.019,0.044,0.037,0.089,0.057,0.132c0.053,0.121,0.104,0.243,0.157,0.365c0.096,0.223,0.194,0.445,0.287,0.669
	c0.047,0.113,0.09,0.226,0.137,0.339c0.064,0.156,0.126,0.311,0.188,0.467c0.05,0.126,0.103,0.252,0.152,0.378
	c0.077,0.198,0.149,0.398,0.224,0.596c0.053,0.141,0.107,0.283,0.159,0.424c0.021,0.058,0.044,0.115,0.065,0.173
	c0.135,0.372,0.264,0.745,0.39,1.119c0.012,0.036,0.026,0.073,0.038,0.109c0.002,0.005,0.003,0.009,0.005,0.014
	c0.141,0.42,0.275,0.84,0.404,1.26c0.013,0.043,0.025,0.087,0.038,0.13c0.046,0.152,0.089,0.305,0.133,0.457
	c0.068,0.234,0.14,0.467,0.204,0.701c0.025,0.088,0.045,0.176,0.069,0.263c0.049,0.18,0.095,0.359,0.141,0.538
	c0.043,0.164,0.089,0.328,0.129,0.492c0.034,0.137,0.063,0.275,0.096,0.413c0.042,0.178,0.084,0.355,0.124,0.533
	c0.025,0.11,0.053,0.221,0.077,0.331c0.044,0.2,0.081,0.399,0.122,0.599c0.033,0.163,0.068,0.327,0.1,0.49
	c0.012,0.061,0.026,0.122,0.037,0.183c0.065,0.345,0.123,0.69,0.179,1.034c0.009,0.057,0.021,0.115,0.03,0.172
	c0.001,0.009,0.003,0.017,0.005,0.026c0.064,0.409,0.123,0.818,0.175,1.225c0.006,0.043,0.009,0.086,0.015,0.13
	c0.016,0.131,0.03,0.262,0.045,0.394c0.025,0.224,0.055,0.448,0.076,0.671c0.01,0.104,0.019,0.206,0.028,0.31
	c0.014,0.158,0.033,0.315,0.045,0.473c0.01,0.134,0.038,0.268,0.046,0.402c0.011,0.175,0.044,0.347,0.053,0.522
	c0.007,0.149,0.072,0.295,0.077,0.443c0.002,0.069,0.12,0.131,0.122,0.2l0.219-0.013
	C340.007,696.716,340.467,697.05,340.467,697.414z M172.432,614.239c0.003-0.002,0.005-0.004,0.008-0.005l-0.022,0.013
	C172.422,614.243,172.427,614.241,172.432,614.239z"/>
<circle cx="98.833" cy="20.421" r="5.773"/>
<path d="M145.587,59.429c0-3.872-3.139-7.011-7.011-7.011c-0.065,0-0.126,0.017-0.191,0.019c-1.921-0.105-3.512,0.512-3.512,0.512
	l-4.93,1.574l-1.583,15.521l11.384-3.723C143.058,65.763,145.587,62.9,145.587,59.429z"/>
<path d="M73.251,77.4l-5.427,6.505c-2.143,2.735-6.112,3.179-8.806,0.986l0,0c-2.628-2.139-3.055-5.99-0.96-8.654l2.87-3.621
	L73.251,77.4z"/>
<path style="fill:#FA7554;" d="M177.745,193.322c-0.098,0-0.19,0.023-0.287,0.029c-0.581,0.005-1.209,0.106-1.891,0.363
	l-8.516,4.126l-35.692-82.3l-5.146-0.948l-7.36-16.54h-16.822l-7.184,15.488l-13.968,4.217l-0.376,7.648l-37.442,22.196
	l17.585,29.026c0.944,1.806,2.582,3.564,4.867,3.564c2.838,0,5.139-2.301,5.139-5.139c0-1.09-0.344-2.097-0.923-2.928l-5.144-10.398
	l36.994-23.093l2.242-31.168l46.037,108.071l29.409-12.686c0.28-0.092,0.546-0.207,0.801-0.346l0.282-0.122
	c0,0,0.044-0.034,0.111-0.092c1.314-0.878,2.181-2.373,2.181-4.073C182.642,195.514,180.45,193.322,177.745,193.322z"/>
<linearGradient id="SVGID_9_" gradientUnits="userSpaceOnUse" x1="97.6753" y1="6.9169" x2="146.6187" y2="69.3979">
	<stop  offset="0.2998" style="stop-color:#871FFF"/>
	<stop  offset="0.3275" style="stop-color:#8C25FA"/>
	<stop  offset="0.791" style="stop-color:#DE81AB"/>
	<stop  offset="1" style="stop-color:#FFA68C"/>
</linearGradient>
<path style="fill:url(#SVGID_9_);" d="M104.36,18.763c-2.078,0.643-8.692-1.423-8.692-1.423s-1.208,4.985-2.141,5.371
	c-0.3-0.699-0.468-1.468-0.468-2.277c0-3.196,2.591-5.787,5.787-5.787C101.458,14.648,103.639,16.388,104.36,18.763z
	 M146.971,70.581l2.086-16.782c0.339-2.727-1.615-5.236-4.342-5.575l-5.509-0.685c-2.727-0.339-5.236,1.615-5.575,4.342
	l-2.086,16.782c-0.339,2.727,1.615,5.236,4.342,5.575l5.509,0.685C144.123,75.262,146.632,73.308,146.971,70.581z"/>
<g>
	<ellipse cx="266.392" cy="6.64" rx="6.289" ry="6.64"/>
	<path d="M247.521,43.662c0,0-0.491,11.401-1.344,22.667l-7.879,13.793c0,0-2.324,3.996-7.835,0.977c0,0-2.392-3.213-0.753-6.734
		L247.521,43.662z"/>
	<path d="M257.631,33.195l8.205,7.372l2.782-4.622l8.578,6.998l-5.401,10.196c-5.133,5.83-9.895,0.003-9.895,0.003l-13.212-12.356
		c-1.884-2.285-1.769-5.617,0.268-7.767l0,0C251.335,30.511,255.356,30.592,257.631,33.195z"/>
	<path style="fill:#80C7F5;" d="M262.272,106.184l24.023,48.963l-9.705,0.131c-2.337,0.031-4.198,1.966-4.139,4.303l0,0
		c0.058,2.276,1.919,4.091,4.196,4.091h37.197l-22.238-46.61L262.272,106.184l-24.847,7.176l-9.987,41.492l-8.854-0.174
		c-2.275-0.045-4.144,1.787-4.144,4.063v0c0,2.253,1.833,4.076,4.086,4.064l24.781-0.139L262.272,106.184z"/>
	<linearGradient id="SVGID_10_" gradientUnits="userSpaceOnUse" x1="268.5909" y1="-5.3435" x2="266.4984" y2="6.1654">
		<stop  offset="0" style="stop-color:#D6219C"/>
		<stop  offset="1" style="stop-color:#80C7F5"/>
	</linearGradient>
	<path style="fill:url(#SVGID_10_);" d="M260.372,4.733c2.263,0.74,4.101,1.36,7.505,1.051c0.52,1.701,3.278,3.046,4.294,3.49
		c0.326-0.804,0.51-1.688,0.51-2.619c0-3.676-2.822-6.656-6.304-6.656C263.533,0,261.157,2.001,260.372,4.733z"/>
</g>
<polygon points="96.703,31.461 106.828,49.666 105.546,31.395 102.558,34.016 "/>
<g>
	<path d="M96.072,59.867l-3.3-6.9c-0.623-1.303-0.7-2.771-0.219-4.132c0.481-1.362,1.464-2.454,2.767-3.077
		c1.304-0.624,2.771-0.701,4.132-0.22c1.361,0.481,2.454,1.463,3.077,2.767l3.3,6.899l-1.456,0.696l-3.3-6.9
		c-0.902-1.888-3.172-2.69-5.058-1.787c-0.914,0.437-1.603,1.203-1.941,2.159c-0.338,0.955-0.283,1.985,0.154,2.899l3.3,6.899
		L96.072,59.867z"/>
	<path d="M95.12,47.078c-0.184-0.17-4.507-4.248-4.628-10.93c-0.094-5.207,3.785-8.278,3.95-8.406l0.991,1.274
		c-0.034,0.027-3.407,2.722-3.328,7.103c0.108,5.973,4.072,9.739,4.112,9.776L95.12,47.078z"/>
	<g>
		<path d="M112.44,35.987c-1.703-4.964-4.309-7.545-8.199-8.123l0.237-1.596c4.49,0.667,7.594,3.675,9.488,9.195L112.44,35.987z"/>
		<circle cx="113.203" cy="35.725" r="1.708"/>
		<circle cx="105.101" cy="55.553" r="1.708"/>
		<circle cx="96.793" cy="59.519" r="1.708"/>
	</g>
</g>
<polygon style="fill:#FFFFFF;" points="125.345,79.896 142.085,114.423 126.214,114.592 114.882,84.081 "/>
<polygon style="fill:#FFFFFF;" points="248.689,40.787 246.177,66.328 237.425,113.359 262.272,106.184 299.024,120.7 
	278.099,54.786 265.544,74.665 "/>
<g>
	<circle cx="332.223" cy="21.951" r="6.406"/>
	<linearGradient id="SVGID_11_" gradientUnits="userSpaceOnUse" x1="288.2133" y1="84.9481" x2="343.4846" y2="26.398">
		<stop  offset="0" style="stop-color:#D6219C"/>
		<stop  offset="1" style="stop-color:#FFA68C"/>
	</linearGradient>
	<path style="fill:url(#SVGID_11_);" d="M285.889,65.889l5.761-2.182c2.852-1.08,6.069,0.369,7.149,3.221l6.647,17.549
		c1.08,2.852-0.369,6.069-3.221,7.149l-5.761,2.182c-2.852,1.08-6.069-0.37-7.149-3.221l-6.647-17.549
		C281.588,70.186,283.037,66.969,285.889,65.889z"/>
	
		<linearGradient id="SVGID_12_" gradientUnits="userSpaceOnUse" x1="-86.4983" y1="277.9031" x2="-151.8826" y2="161.3484" gradientTransform="matrix(-0.9712 0.2381 0.2381 0.9712 168.9385 -28.9213)">
		<stop  offset="0" style="stop-color:#D6219C"/>
		<stop  offset="1" style="stop-color:#D6219C"/>
	</linearGradient>
	<path style="fill:url(#SVGID_12_);" d="M337.286,142.828l38.847,33.834l-7.936,3.55c-6.057,2.506-2.506,7.936-2.506,7.936
		c3.342,4.595,10.174,1.072,10.174,1.072l29.926-12.977l-48.175-45.683l-1.493-30.353h-46.525L273.239,180l-9.45-4.578
		c-4.654-1.935-6.8,1.825-6.8,1.825c-2.907,4.868,1.493,7.796,1.493,7.796l33.232,15.847l40.026-90.235"/>
	<linearGradient id="SVGID_13_" gradientUnits="userSpaceOnUse" x1="282.4736" y1="79.8358" x2="339.1897" y2="19.7553">
		<stop  offset="0" style="stop-color:#D6219C"/>
		<stop  offset="1" style="stop-color:#FFA68C"/>
	</linearGradient>
	<path style="fill:url(#SVGID_13_);" d="M334.137,11.478c-7.809,0.011-9.061,5.354-9.291,9.013l4.595-3.051l8.33,7.703
		c2.591,0,3.488-5.751,3.488-5.751s1.537-0.529,1.947-0.259c1.227,0.809,0.397,4.791,1.581,5.662
		c1.47,1.081,6.287,1.298,7.294-0.223c1.683-2.545-1.599-10.238-4.432-11.372c-1.773-0.709-6.917,3.238-6.917,3.238
		S338.629,11.472,334.137,11.478z"/>
	<path d="M304.486,83.086c-3.503,1.275-7.512-0.102-9.413-3.452c-2.121-3.737-0.811-8.485,2.926-10.606
		c0.063-0.036,0.131-0.052,0.195-0.086c1.797-1.154,3.67-1.429,3.67-1.429l6.051,14.825L304.486,83.086z"/>
	<g>
		<path d="M319.881,51.442l-0.964-1.102l5.104-4.465c0.923-1.602,0.41-3.666-1.173-4.644c-1.597-0.986-3.69-0.505-4.7,1.066
			l-2.377,6.115l-1.364-0.53l2.461-6.3c1.419-2.299,4.447-3.017,6.747-1.596c2.3,1.42,3.017,4.447,1.597,6.748l-0.141,0.167
			L319.881,51.442z"/>
		<path d="M323.953,40.738l-1.441-0.256c0.04-0.224,1.026-5.523,6.063-8.895l0.813,1.216
			C324.886,35.817,323.961,40.689,323.953,40.738z"/>
		<g>
			<path d="M342.443,42.094l-1.367-0.521c1.691-4.448,1.373-7.758-1.004-10.418l1.091-0.975
				C343.906,33.25,344.325,37.147,342.443,42.094z"/>
			<circle cx="341.595" cy="41.834" r="1.549"/>
			<circle cx="319.399" cy="50.891" r="1.549"/>
			<circle cx="315.09" cy="47.865" r="1.549"/>
		</g>
	</g>
</g>
<g>
	<g>
		<linearGradient id="SVGID_14_" gradientUnits="userSpaceOnUse" x1="402.9727" y1="314.6802" x2="469.3329" y2="314.6802">
			<stop  offset="8.011200e-04" style="stop-color:#871FFF"/>
			<stop  offset="0.9984" style="stop-color:#80C7F5"/>
		</linearGradient>
		<path style="fill:url(#SVGID_14_);" d="M461.695,357.536l2.255-48.71c0.04-0.867-0.618-1.954-1.469-2.428l-58.435-32.52
			c-0.409-0.228-0.786-0.268-1.074-0.157l5.323-2.664l0.002,0.002c0.294-0.139,0.694-0.107,1.13,0.135l58.435,32.52
			c0.852,0.474,1.509,1.561,1.469,2.428l-2.255,48.71c-0.019,0.403-0.189,0.682-0.448,0.823l0.002,0.007l-0.041,0.017
			c-0.013,0.006-0.026,0.012-0.039,0.017l-5.34,2.666C461.492,358.25,461.676,357.96,461.695,357.536z"/>
		<path style="fill:#80C7F5;" d="M402.432,274.59c0.019-0.407,0.192-0.688,0.455-0.828l0.012-0.009
			c0.029-0.014,0.051-0.023,0.074-0.032c0.288-0.111,0.665-0.07,1.074,0.157l58.435,32.52c0.851,0.474,1.509,1.561,1.469,2.428
			l-2.255,48.71c-0.02,0.423-0.204,0.713-0.484,0.847c0,0-0.029,0.013-0.043,0.019c-0.012,0.005-0.026,0.006-0.038,0.01
			c-0.285,0.099-0.651,0.057-1.048-0.164l-58.435-32.52c-0.852-0.474-1.509-1.561-1.469-2.428L402.432,274.59z"/>
	</g>
	<g>
		<g>
			<linearGradient id="SVGID_15_" gradientUnits="userSpaceOnUse" x1="399.7992" y1="316.4805" x2="463.5961" y2="316.4805">
				<stop  offset="8.011200e-04" style="stop-color:#871FFF"/>
				<stop  offset="0.9984" style="stop-color:#80C7F5"/>
			</linearGradient>
			<path style="fill:url(#SVGID_15_);" d="M459.317,350.812l1.536-33.155c0.035-0.764-0.544-1.722-1.294-2.14l-58.801-32.724
				c-0.366-0.203-0.703-0.238-0.958-0.135l2.714-1.174l0,0.001c0.258-0.117,0.607-0.085,0.986,0.126l58.801,32.724
				c0.75,0.418,1.33,1.376,1.295,2.139l-1.536,33.155c-0.017,0.367-0.175,0.619-0.416,0.739l0.001,0.004l-0.022,0.009l-0.01,0.004
				l-2.692,1.159l0-0.005C459.15,351.415,459.301,351.169,459.317,350.812z"/>
			<path style="fill:#FFFFFF;" d="M399.334,283.421c0.017-0.367,0.175-0.618,0.415-0.739l0.012-0.007
				c0.013-0.006,0.025-0.011,0.025-0.011c0.268-0.108,0.606-0.073,0.971,0.13l58.801,32.724c0.75,0.418,1.33,1.376,1.294,2.14
				l-1.536,33.155c-0.017,0.357-0.168,0.603-0.397,0.727c-0.261,0.142-0.626,0.123-1.026-0.1l-58.801-32.724
				c-0.75-0.418-1.33-1.376-1.294-2.14L399.334,283.421z"/>
		</g>
		<g>
			<linearGradient id="SVGID_16_" gradientUnits="userSpaceOnUse" x1="430.9692" y1="319.4826" x2="437.206" y2="319.4826">
				<stop  offset="0" style="stop-color:#83BFE8"/>
				<stop  offset="1" style="stop-color:#80C7F5"/>
			</linearGradient>
			<polygon style="fill:url(#SVGID_16_);" points="430.969,320.858 436.925,324.172 437.206,318.107 431.25,314.793 			"/>
			<linearGradient id="SVGID_17_" gradientUnits="userSpaceOnUse" x1="421.8432" y1="314.404" x2="428.0803" y2="314.404">
				<stop  offset="0" style="stop-color:#83BFE8"/>
				<stop  offset="1" style="stop-color:#80C7F5"/>
			</linearGradient>
			<polygon style="fill:url(#SVGID_17_);" points="421.843,315.779 427.8,319.094 428.08,313.029 422.124,309.714 			"/>
			<linearGradient id="SVGID_18_" gradientUnits="userSpaceOnUse" x1="448.79" y1="338.9324" x2="455.0272" y2="338.9324">
				<stop  offset="0" style="stop-color:#83BFE8"/>
				<stop  offset="1" style="stop-color:#80C7F5"/>
			</linearGradient>
			<polygon style="fill:url(#SVGID_18_);" points="448.79,340.308 454.746,343.622 455.027,337.557 449.071,334.242 			"/>
			<linearGradient id="SVGID_19_" gradientUnits="userSpaceOnUse" x1="439.6642" y1="333.8537" x2="445.9015" y2="333.8537">
				<stop  offset="0" style="stop-color:#83BFE8"/>
				<stop  offset="1" style="stop-color:#80C7F5"/>
			</linearGradient>
			<polygon style="fill:url(#SVGID_19_);" points="439.664,335.229 445.62,338.544 445.901,332.479 439.945,329.164 			"/>
			<linearGradient id="SVGID_20_" gradientUnits="userSpaceOnUse" x1="430.5385" y1="328.7751" x2="436.7758" y2="328.7751">
				<stop  offset="0" style="stop-color:#83BFE8"/>
				<stop  offset="1" style="stop-color:#80C7F5"/>
			</linearGradient>
			<polygon style="fill:url(#SVGID_20_);" points="430.539,330.15 436.495,333.465 436.776,327.4 430.82,324.085 			"/>
			<linearGradient id="SVGID_21_" gradientUnits="userSpaceOnUse" x1="440.5251" y1="315.2687" x2="446.7622" y2="315.2687">
				<stop  offset="0" style="stop-color:#83BFE8"/>
				<stop  offset="1" style="stop-color:#80C7F5"/>
			</linearGradient>
			<polygon style="fill:url(#SVGID_21_);" points="440.525,316.644 446.481,319.958 446.762,313.894 440.806,310.579 			"/>
			<linearGradient id="SVGID_22_" gradientUnits="userSpaceOnUse" x1="431.3994" y1="310.1902" x2="437.6363" y2="310.1902">
				<stop  offset="0" style="stop-color:#83BFE8"/>
				<stop  offset="1" style="stop-color:#80C7F5"/>
			</linearGradient>
			<polygon style="fill:url(#SVGID_22_);" points="431.399,311.565 437.355,314.88 437.636,308.815 431.68,305.5 			"/>
			<linearGradient id="SVGID_23_" gradientUnits="userSpaceOnUse" x1="422.2737" y1="305.1115" x2="428.5106" y2="305.1115">
				<stop  offset="0" style="stop-color:#83BFE8"/>
				<stop  offset="1" style="stop-color:#80C7F5"/>
			</linearGradient>
			<polygon style="fill:url(#SVGID_23_);" points="422.274,306.487 428.23,309.801 428.511,303.736 422.554,300.422 			"/>
			<linearGradient id="SVGID_24_" gradientUnits="userSpaceOnUse" x1="449.2205" y1="329.64" x2="455.4574" y2="329.64">
				<stop  offset="0" style="stop-color:#83BFE8"/>
				<stop  offset="1" style="stop-color:#80C7F5"/>
			</linearGradient>
			<polygon style="fill:url(#SVGID_24_);" points="449.221,331.015 455.177,334.33 455.457,328.265 449.501,324.95 			"/>
			<linearGradient id="SVGID_25_" gradientUnits="userSpaceOnUse" x1="440.0948" y1="324.5612" x2="446.3317" y2="324.5612">
				<stop  offset="0" style="stop-color:#83BFE8"/>
				<stop  offset="1" style="stop-color:#80C7F5"/>
			</linearGradient>
			<polygon style="fill:url(#SVGID_25_);" points="440.095,325.936 446.051,329.251 446.332,323.186 440.376,319.871 			"/>
			<linearGradient id="SVGID_26_" gradientUnits="userSpaceOnUse" x1="449.6508" y1="320.3474" x2="455.8879" y2="320.3474">
				<stop  offset="0" style="stop-color:#83BFE8"/>
				<stop  offset="1" style="stop-color:#80C7F5"/>
			</linearGradient>
			<polygon style="fill:url(#SVGID_26_);" points="449.651,321.722 455.607,325.037 455.888,318.972 449.932,315.658 			"/>
		</g>
		<g>
			<linearGradient id="SVGID_27_" gradientUnits="userSpaceOnUse" x1="413.148" y1="300.033" x2="419.3849" y2="300.033">
				<stop  offset="0" style="stop-color:#83BFE8"/>
				<stop  offset="1" style="stop-color:#80C7F5"/>
			</linearGradient>
			<polygon style="fill:url(#SVGID_27_);" points="413.148,301.408 419.104,304.723 419.385,298.658 413.429,295.343 			"/>
			<polygon style="fill:#F05D26;" points="412.718,310.701 418.674,314.015 418.955,307.95 412.999,304.635 			"/>
			<linearGradient id="SVGID_28_" gradientUnits="userSpaceOnUse" x1="403.5918" y1="304.2467" x2="409.829" y2="304.2467">
				<stop  offset="0" style="stop-color:#83BFE8"/>
				<stop  offset="1" style="stop-color:#80C7F5"/>
			</linearGradient>
			<polygon style="fill:url(#SVGID_28_);" points="403.592,305.622 409.548,308.937 409.829,302.871 403.873,299.557 			"/>
			<linearGradient id="SVGID_29_" gradientUnits="userSpaceOnUse" x1="404.0223" y1="294.9543" x2="410.2592" y2="294.9543">
				<stop  offset="0" style="stop-color:#83BFE8"/>
				<stop  offset="1" style="stop-color:#80C7F5"/>
			</linearGradient>
			<polygon style="fill:url(#SVGID_29_);" points="404.022,296.329 409.978,299.644 410.259,293.579 404.303,290.264 			"/>
		</g>
	</g>
	<g>
		<path style="fill:#59449B;" d="M448.407,303.067c-0.035,1.863,1.442,4.157,3.297,5.124c1.856,0.966,3.388,0.239,3.423-1.624
			c0.035-1.863-1.442-4.157-3.297-5.124C449.974,300.477,448.441,301.204,448.407,303.067z"/>
		<path style="fill:#59449B;" d="M411.256,283.889c-0.035,1.863,1.441,4.157,3.297,5.123c1.856,0.967,3.388,0.239,3.423-1.624
			c0.035-1.863-1.442-4.157-3.297-5.124C412.823,281.298,411.29,282.025,411.256,283.889z"/>
		<g>
			<path style="fill:#FFFFFF;" d="M448.878,304.204l-0.035-0.019c-0.465-0.242-0.888-0.275-1.207-0.141l-0.002-0.003l2.622-1.216
				l0.003,0.003c0.326-0.182,0.784-0.167,1.292,0.097l0.035,0.018c0.965,0.503,1.732,1.695,1.714,2.664l-0.055,2.938l-2.708,1.259
				l0.055-2.938C450.61,305.899,449.843,304.706,448.878,304.204z"/>
			<path style="fill:#59449B;" d="M447.063,305.029c0.009-0.502,0.23-0.841,0.573-0.985c0.319-0.134,0.742-0.101,1.207,0.141
				l0.035,0.019c0.965,0.502,1.732,1.695,1.714,2.663l-0.062,3.33l-0.021,1.135c-0.018,0.969-0.815,1.347-1.779,0.844l-0.036-0.018
				c-0.965-0.503-1.732-1.695-1.714-2.664L447.063,305.029z"/>
		</g>
		<g>
			<path style="fill:#FFFFFF;" d="M411.827,284.907l-0.035-0.019c-0.476-0.248-0.911-0.28-1.232-0.133l2.69-1.252
				c0,0,0.008-0.003,0.012-0.005l0.006-0.003l0,0.001c0.321-0.146,0.755-0.114,1.232,0.134l0.035,0.018
				c0.965,0.503,1.732,1.695,1.714,2.664l-0.055,2.938l-2.708,1.259l0.055-2.938C413.559,286.602,412.791,285.41,411.827,284.907z"
				/>
			<path style="fill:#59449B;" d="M410.012,285.733c0.009-0.471,0.204-0.799,0.51-0.957l0.015-0.01
				c0.007-0.004,0.015-0.007,0.015-0.007c0.328-0.15,0.763-0.118,1.239,0.13l0.035,0.019c0.965,0.502,1.732,1.695,1.714,2.663
				l-0.083,4.465c-0.018,0.969-0.815,1.347-1.779,0.844l-0.035-0.018c-0.965-0.503-1.732-1.695-1.714-2.664L410.012,285.733z"/>
		</g>
	</g>
</g>
<g>
	<path style="fill:#80C7F5;" d="M208.096,714.718c-10.875-6.32-27.249-7.085-36.562-1.71c-9.325,5.387-8.044,14.868,2.831,21.184
		c10.868,6.319,27.233,7.094,36.56,1.705C220.236,730.521,218.964,721.037,208.096,714.718z"/>
	<path style="fill:#80C7F5;" d="M253.234,734.22l-45.325,26.165l-78.66-45.714l45.321-26.165L253.234,734.22z M200.591,751.435
		c4.624-2.67,11.72-2.875,15.848-0.483l20.476-11.828c-4.122-2.397-3.724-6.494,0.872-9.164l-55.363-32.174
		c-4.609,2.659-11.695,2.874-15.822,0.477c-0.182-0.104-0.349-0.229-0.511-0.353l-20.584,11.891c0.204,0.093,0.418,0.172,0.613,0.29
		c4.13,2.397,3.743,6.512-0.914,9.184L200.591,751.435L200.591,751.435z"/>
	<path style="fill:#FFFFFF;" d="M146.12,710.091c-0.195-0.117-0.409-0.197-0.613-0.29l20.584-11.891
		c0.162,0.123,0.329,0.249,0.511,0.353c4.127,2.397,11.213,2.182,15.822-0.477l55.363,32.174c-4.595,2.67-4.994,6.767-0.872,9.164
		l-20.476,11.828c-4.128-2.392-11.224-2.188-15.869,0.497l-55.325-32.18C149.863,716.603,150.25,712.488,146.12,710.091z
		 M210.925,735.896c9.311-5.375,8.039-14.859-2.829-21.178c-10.875-6.32-27.249-7.085-36.562-1.71
		c-9.325,5.387-8.044,14.868,2.831,21.184C185.232,740.51,201.598,741.285,210.925,735.896L210.925,735.896z"/>
	<linearGradient id="SVGID_30_" gradientUnits="userSpaceOnUse" x1="207.9095" y1="749.5489" x2="253.2465" y2="749.5489">
		<stop  offset="8.011200e-04" style="stop-color:#6F54A3"/>
		<stop  offset="1" style="stop-color:#80C7F5"/>
	</linearGradient>
	<polygon style="fill:url(#SVGID_30_);" points="207.909,760.385 207.923,764.878 253.246,738.716 253.234,734.22 	"/>
	<linearGradient id="SVGID_31_" gradientUnits="userSpaceOnUse" x1="129.2491" y1="739.7744" x2="207.9228" y2="739.7744">
		<stop  offset="8.011200e-04" style="stop-color:#6F54A3"/>
		<stop  offset="1" style="stop-color:#80C7F5"/>
	</linearGradient>
	<polygon style="fill:url(#SVGID_31_);" points="129.249,714.671 129.266,719.166 207.923,764.878 207.909,760.385 	"/>
	<path style="fill:#FFFFFF;" d="M187.722,729.344h1.939l0.705-0.41l1.15-0.813c0,0,0.142-1.078-0.803-1.951
		c-1.644-1.517-5.082-4.011-5.169-5.466c-0.034-0.564,1.054-2.001,1.054-2.001s2.773-1.948,3.847-2.238
		c1.753-0.473,5.662-0.856,7.264,0c1.191,0.636,1.945,1.124,1.945,1.124l1.991-1.157l3.987,2.299l-1.994,1.16
		c0,0,1.223,0.675,1.613,0.93c2.044,1.339,2.725,3.198,2.725,3.198l-5.31,1.522c0,0-0.707-2.442-2.741-3.597
		c-1.236-0.702-2.6-1.652-3.793-2.045c-0.648-0.213-2.727-0.006-2.727-0.006l-0.714,0.414l-0.397,0.668c0,0,4.996,5.273,5.221,7.559
		c0.056,0.563-0.682,1.578-1.056,2.002c-0.735,0.835-2.776,2.329-3.85,2.619c-1.749,0.472-5.514,0.162-7.243-0.381
		c-0.538-0.169-1.953-1.128-1.953-1.128l-1.993,1.156l-3.986-2.299l1.62-0.942c0,0-0.894-0.858-1.256-1.158
		c-0.81-0.673-2.743-3.198-2.743-3.198l5.31-1.522c0,0,1.689,2.211,2.399,2.8c0.716,0.594,2.773,2.127,2.773,2.127L187.722,729.344z
		"/>
</g>
</svg>
