<?xml version="1.0" encoding="iso-8859-1"?>
<!-- Generator: Adobe Illustrator 24.0.0, SVG Export Plug-In . SVG Version: 6.00 Build 0)  -->
<svg version="1.1" id="Layer_1" xmlns="http://www.w3.org/2000/svg" xmlns:xlink="http://www.w3.org/1999/xlink" x="0px" y="0px"
	 viewBox="0 0 500 332.259" style="enable-background:new 0 0 500 332.259;" xml:space="preserve">
<linearGradient id="SVGID_1_" gradientUnits="userSpaceOnUse" x1="250" y1="332.259" x2="250" y2="35.7457">
	<stop  offset="0.0025" style="stop-color:#871FFF"/>
	<stop  offset="1" style="stop-color:#FFA68C"/>
</linearGradient>
<path style="fill:url(#SVGID_1_);" d="M5.675,174.188L241.514,38.027c5.267-3.041,11.757-3.041,17.025,0l235.786,136.131
	c7.567,4.369,7.567,15.29,0,19.658L258.486,329.978c-5.267,3.041-11.757,3.041-17.025,0L5.675,193.847
	C-1.892,189.478-1.892,178.557,5.675,174.188z"/>
<path style="fill:#D6219C;" d="M354.057,114.112l22.582,69.047h-40.554c-3.524,0-6.413-2.796-6.529-6.319v0
	c-0.119-3.625,2.738-6.652,6.364-6.743l7.513-0.19l-17.475-60.594"/>
<path style="fill:#D6219C;" d="M308.705,93.295l22.582,69.047h-40.554c-3.524,0-6.413-2.796-6.529-6.319l0,0
	c-0.119-3.625,2.738-6.652,6.364-6.743l7.513-0.19l-17.475-60.594"/>
<path style="fill:#80C7F5;" d="M409.713,40.609l-19.199-11.105c-4.801-2.777-10.756-0.3-12.898,5.365l-5.894,15.59
	c-1.395-1.127-3.626-1.056-6.138,0.482l-25.983,15.908c-4.208,2.577-7.655,8.307-7.659,12.735l0.491,7.209
	c-0.002,2.286,0.844,4.066,2.238,4.906c0.245,0.462,0.878,1.572,1.864,2.777l-5.472,36.893c-0.233,1.574,0.853,3.039,2.427,3.272
	l0.337,0.05c1.574,0.233,3.039-0.853,3.272-2.427l4.975-33.542l28.341,16.363l-5.443,36.699c-0.247,1.667,0.904,3.219,2.571,3.466h0
	c1.667,0.247,3.219-0.904,3.466-2.571l5.254-35.428c1.041-0.103,2.245-0.534,3.541-1.328l16.032-9.816l4.152,27.989
	c0.218,1.471,1.587,2.486,3.058,2.268l0.71-0.105c1.471-0.218,2.487-1.588,2.269-3.059l-4.533-30.556l4.294-2.629
	c4.208-2.577,7.842-8.002,8.074-12.057l0.224-3.895c0.149-2.604-1.143-4.026-3.198-4.034l3.663-28.797
	C415.107,46.859,413.172,42.61,409.713,40.609z"/>
<path style="fill:#FFFFFF;" d="M341.961,34.914l7.269,10.381c0,0,8.756-22.583,14.404-28.328c3.53-3.59,6.934-4.267,11.856-3.207
	c5.508,1.186,10.954,4.556,13.588,7.387c9.776,10.507,30.549,48.646,30.549,48.646l-15.31,3.714l-10.843-16.68l4.372,35.747
	l-22.645,16.658l-37.579-20.218l5.823-20.826l-14.933-22.892L341.961,34.914z"/>
<circle cx="375.49" cy="6.88" r="6.88"/>
<path d="M323.508,28.492c2.751-3.704,7.984-4.477,11.689-1.726c0.063,0.046,0.108,0.106,0.169,0.154
	c1.913,1.265,2.996,2.986,2.996,2.986l3.598,5.009l-13.449,10.381l-4.312-6.058C321.482,35.542,321.042,31.813,323.508,28.492z"/>
<path d="M404.317,73.507l5.388,8.537c2.101,3.567,6.72,4.716,10.248,2.55l0,0c3.441-2.114,4.552-6.596,2.495-10.072l-2.821-4.729
	L404.317,73.507z"/>
<linearGradient id="SVGID_2_" gradientUnits="userSpaceOnUse" x1="368.9188" y1="8.1102" x2="382.2984" y2="3.2625">
	<stop  offset="0" style="stop-color:#D6219C"/>
	<stop  offset="0.0261" style="stop-color:#D7259C"/>
	<stop  offset="0.6973" style="stop-color:#F48190"/>
	<stop  offset="1" style="stop-color:#FFA68C"/>
</linearGradient>
<path style="fill:url(#SVGID_2_);" d="M375.473,0c3.809,0,6.897,3.088,6.897,6.897c0,0.964-0.201,1.88-0.558,2.713
	c-1.111-0.46-2.551-6.401-2.551-6.401s-7.882,2.463-10.358,1.696C369.762,2.074,372.362,0,375.473,0z"/>
<polygon points="378.028,20.037 365.962,41.732 367.49,19.958 371.05,23.082 "/>
<g>
	<path d="M378.78,53.89l-1.735-0.83l3.932-8.223c0.52-1.089,0.586-2.316,0.183-3.454c-0.402-1.138-1.224-2.052-2.313-2.573
		c-1.09-0.52-2.317-0.586-3.455-0.183c-1.138,0.402-2.052,1.224-2.572,2.313l-3.933,8.223l-1.735-0.83l3.933-8.223
		c0.742-1.553,2.044-2.723,3.666-3.297c1.623-0.573,3.372-0.481,4.925,0.262c1.553,0.742,2.724,2.044,3.297,3.667
		c0.573,1.623,0.48,3.372-0.262,4.925L378.78,53.89z"/>
	<path d="M379.915,38.649l-1.306-1.411c0.047-0.043,4.771-4.531,4.899-11.65c0.095-5.22-3.925-8.433-3.965-8.465l1.181-1.518
		c0.197,0.153,4.82,3.812,4.707,10.018C385.287,33.586,380.135,38.446,379.915,38.649z"/>
	<g>
		<path d="M359.273,25.43l-1.819-0.624c2.257-6.578,5.956-10.163,11.308-10.958l0.282,1.902
			C364.408,16.439,361.303,19.515,359.273,25.43z"/>
		<circle cx="358.364" cy="25.118" r="2.036"/>
		<circle cx="368.02" cy="48.749" r="2.036"/>
		<circle cx="377.921" cy="53.475" r="2.036"/>
	</g>
</g>
<polygon style="fill:#80C7F5;" points="444.727,203.039 432.425,211.402 432.425,132.84 444.727,132.84 "/>
<polygon style="fill:#80C7F5;" points="384.907,236.118 372.604,244.48 372.604,165.919 384.907,165.919 "/>
<polygon style="fill:#FFFFFF;" points="360.406,236.082 372.709,244.445 372.709,165.884 360.406,165.884 "/>
<polygon style="fill:#FFFFFF;" points="420.388,204.039 432.691,212.401 432.691,133.84 420.388,133.84 "/>
<polygon style="fill:#80C7F5;" points="233.322,149.555 221.019,157.918 221.019,79.357 233.322,79.357 "/>
<polygon style="fill:#FFFFFF;" points="208.822,149.52 221.125,157.883 221.125,79.321 208.822,79.321 "/>
<polygon style="fill:#80C7F5;" points="372.684,173.83 209.051,79.356 281.088,38.536 444.721,133.01 "/>
<path d="M371.962,102.974l-45.679-25.269c-0.255-0.18-0.612-0.203-0.935-0.058l-17.217,7.73c-0.685,0.308-0.864,1.162-0.323,1.546
	l0.218,0.154l-0.25,0.118c-0.599,0.282-0.672,1.106-0.132,1.489l45.529,25.162c0.252,0.179,0.581,0.209,0.862,0.08l15.214-6.991
	c0.585-0.269,0.671-1.048,0.187-1.448l2.195-0.963C372.321,104.22,372.506,103.359,371.962,102.974z"/>
<path d="M325.203,127.343l2.054-44.181l0.007-0.118c0.02-0.503-0.43-0.998-0.821-1.286l-0.309,0.047l-52.081-30.408l-0.478-0.419
	c-0.391-0.288-0.631-0.16-1.283,0.273l-1.962,1.293c-0.261-0.054-0.454,0.122-0.467,0.48l-1.473,39.419
	c-0.006,0.167,0.038,0.352,0.102,0.535l-0.239,6.011c-0.02,0.506,0.315,1.175,0.744,1.486l12.135,7.403l-3.75,5.134
	c-0.287,1.117,0.144,2.296,1.084,2.964l8.882,4.779c0.415,0.295,0.88,0.424,1.34,0.439c0.727,0.173,1.545,0.133,2.132-0.157
	l7.125-3.155l23.711,13.008c0.257,0.186,0.49,0.201,0.641,0.077c0.826,0.221,1.598-0.296,2.098-0.771
	c0.37-0.352,0.583-0.842,0.607-1.376l0.067-1.516C325.153,127.343,325.202,127.359,325.203,127.343z"/>
<path style="fill:#80C7F5;" d="M205.425,112.492L172.674,92.44c-3.166-1.938-5.978-2.027-7.737-0.607l-7.429-19.651
	c-2.699-7.14-10.206-10.262-16.257-6.762l-24.2,13.997c-4.36,2.522-6.799,7.878-6.098,13.392l4.617,36.298
	c-2.591,0.01-4.219,1.803-4.031,5.085l0.282,4.91c0.293,5.111,4.873,11.949,10.177,15.197l5.412,3.314l-5.929,39.971
	c-0.156,1.051,0.57,2.029,1.62,2.185c1.051,0.156,2.029-0.57,2.184-1.62l5.689-38.353l23.774,14.556
	c2.034,1.246,3.888,1.783,5.388,1.692l6.872,46.34c0.161,1.088,1.174,1.839,2.261,1.677c1.088-0.161,1.839-1.174,1.677-2.262
	l-6.97-47l40.955-23.645c3.792-2.19,6.123-6.235,6.707-7.337c1.757-1.058,2.824-3.301,2.821-6.183l0.619-9.086
	C215.074,122.963,210.73,115.74,205.425,112.492z"/>
<g>
	<path style="fill:#221F1F;" d="M199.848,115.253l-19.485-6.426L169.85,66.175h10.949l7.279,31.55l15.782,4.582
		c2.722,0.79,4.665,3.191,4.871,6.018v0C209.081,113.137,204.431,116.764,199.848,115.253z"/>
	<path style="fill:#FA7554;" d="M180.332,174.715l-39.135-44.052c0,0,36.105,1.791,47.966-9.174l50.142,20.444l1.364,51.303
		l4.011,0.75c3.163,0.316,5.579,2.966,5.601,6.145v0c0.026,3.753-3.254,6.674-6.979,6.215l-21.343-0.96l-4.135-49.551
		l-31.487-14.716l19.963,29.968l-10.129,47.071l6.365,1.01c3.314,0.526,5.63,3.562,5.261,6.897v0
		c-0.393,3.555-3.67,6.065-7.204,5.52l-28.62,0.069L180.332,174.715"/>
	<path style="fill:#FFFFFF;" d="M136.613,88.229c0,0,2.179-13.828,5.176-17.38c2.429-2.879,17.265-10.49,29.312-13.315
		c1.491-0.35,6.14-1.36,9.683,4.406c4.391,7.147,7.638,21.421,7.638,21.421l-6.03,3.357l6.908,34.574
		c-4.263,7.135-40.539,12.381-40.539,12.381l-12.148-11.686l12.818-25.303L136.613,88.229z"/>
	<path style="fill:#221F1F;" d="M149.051,144.554l-19.659-14.845l7.084-41.283l12.818,8.454l-5.734,27.287l13.463,9.425
		c2.322,1.625,3.387,4.524,2.671,7.266v0C158.473,145.528,152.903,147.462,149.051,144.554z"/>
	<circle style="fill:#221F1F;" cx="159.151" cy="51.357" r="7.157"/>
	<linearGradient id="SVGID_3_" gradientUnits="userSpaceOnUse" x1="156.1717" y1="57.2909" x2="156.7602" y2="39.0495">
		<stop  offset="0" style="stop-color:#FFA68C"/>
		<stop  offset="0.9975" style="stop-color:#871FFF"/>
	</linearGradient>
	<path style="fill:url(#SVGID_3_);" d="M158.029,48.14c2.191,0.629,3.415,0.354,5.531-0.882c2.296-1.341,3.177-6.324-3.71-7.918
		c-5.693-1.318-12.077,1.853-12.054,9.994c0.021,7.222,8.488,8.683,8.488,8.683s-2.974-2.227-1.873-3.745
		c0.303-0.417,0.763-0.91,1.444-1.489c0.738-0.627,0.4-1.6,0.132-2.779C155.718,48.812,156.853,47.803,158.029,48.14z"/>
	<path style="fill:#221F1F;" d="M156.046,63.416c0.108,3.988,5.728,7.288,10.227,5.386c2.834-1.198,3.652-7.183,1.271-9.132
		L156.046,63.416z"/>
</g>
</svg>
