<?xml version="1.0" encoding="iso-8859-1"?>
<!-- Generator: Adobe Illustrator 24.0.0, SVG Export Plug-In . SVG Version: 6.00 Build 0)  -->
<svg version="1.1" id="Layer_1" xmlns="http://www.w3.org/2000/svg" xmlns:xlink="http://www.w3.org/1999/xlink" x="0px" y="0px"
	 viewBox="0 0 500 401.26" style="enable-background:new 0 0 500 401.26;" xml:space="preserve">
<linearGradient id="SVGID_1_" gradientUnits="userSpaceOnUse" x1="250" y1="401.2603" x2="250" y2="104.7469">
	<stop  offset="8.011200e-04" style="stop-color:#871FFF"/>
	<stop  offset="1" style="stop-color:#FFA68C"/>
</linearGradient>
<path style="fill:url(#SVGID_1_);" d="M5.675,243.19l235.839-136.162c5.267-3.041,11.757-3.041,17.025,0l235.786,136.131
	c7.567,4.369,7.567,15.29,0,19.658L258.486,398.979c-5.267,3.041-11.757,3.041-17.025,0L5.675,262.848
	C-1.892,258.479-1.892,247.558,5.675,243.19z"/>
<path style="fill:#FFA68C;" d="M158.431,279.874l52.854,30.515l131.967-76.191c0,0-52.662-30.46-52.705-30.484L158.431,279.874z"/>
<path style="fill:#FFFFFF;" d="M343.251,234.198l0.06,10.098c0.019,3.195-1.679,6.154-4.446,7.75l-118.7,68.462
	c-5.497,3.171-12.268,3.169-17.764-0.004l-39.528-22.821c-2.749-1.587-4.443-4.521-4.443-7.695v-10.114l52.854,30.515
	L343.251,234.198z"/>
<polygon style="fill:#FFA68C;" points="237.73,188.492 237.73,218.973 184.989,249.428 184.989,218.942 "/>
<polygon style="fill:#FFFFFF;" points="105.782,264.672 290.634,157.984 290.536,5.54 105.851,112.225 "/>
<path style="fill:#871FFF;" d="M105.782,264.672l-8.694-5.019c-2.748-1.586-4.441-4.518-4.443-7.69l-0.074-139.656
	c-0.003-4.765,2.539-9.169,6.667-11.551L270.75,1.784c4.135-2.386,9.231-2.378,13.359,0.021l6.427,3.735L105.851,112.225
	L105.782,264.672z"/>
<linearGradient id="SVGID_2_" gradientUnits="userSpaceOnUse" x1="198.1718" y1="33.5615" x2="198.1718" y2="247.5958">
	<stop  offset="0" style="stop-color:#D6219C"/>
	<stop  offset="0.9984" style="stop-color:#FFA68C"/>
</linearGradient>
<path style="fill:url(#SVGID_2_);" d="M128.912,236.054l139.628-80.593c5.504-3.177,8.892-9.051,8.887-15.406l-0.083-100.162
	c-0.004-5.129-5.558-8.331-9.999-5.764l-139.551,80.662c-5.494,3.176-8.878,9.04-8.878,15.386v100.106
	C118.917,235.412,124.469,238.618,128.912,236.054z"/>
<g>
	<defs>
		<path id="SVGID_3_" d="M127.761,236.462l139.628-80.593c5.504-3.177,8.892-9.051,8.887-15.406l-0.083-100.162
			c-0.004-5.129-5.558-8.331-9.999-5.764l-139.551,80.662c-5.494,3.176-8.878,9.04-8.878,15.386V230.69
			C117.765,235.82,123.318,239.026,127.761,236.462z"/>
	</defs>
	<clipPath id="SVGID_4_">
		<use xlink:href="#SVGID_3_"  style="overflow:visible;"/>
	</clipPath>
	<g style="clip-path:url(#SVGID_4_);">
		<path style="fill:#871FFF;" d="M135.407,154.332l36.24-20.962c9.062-5.242,20.304-0.566,24.346,10.127l11.125,29.429
			c2.634-2.127,6.845-1.994,11.587,0.909l49.046,30.029c7.944,4.864,14.449,15.681,14.457,24.039l-0.927,13.607
			c0.004,4.316-1.593,7.675-4.224,9.26c-0.462,0.872-1.658,2.967-3.519,5.242l10.329,69.642c0.44,2.971-1.611,5.736-4.582,6.177
			l-0.637,0.095c-2.971,0.441-5.737-1.611-6.177-4.582l-9.39-63.316l-53.498,30.887l10.274,69.275
			c0.467,3.147-1.706,6.076-4.853,6.543h0c-3.147,0.467-6.076-1.706-6.543-4.853l-9.918-66.875
			c-1.965-0.194-4.238-1.009-6.684-2.507l-30.263-18.529l-7.837,52.833c-0.412,2.777-2.997,4.694-5.773,4.282l-1.34-0.199
			c-2.777-0.412-4.694-2.997-4.282-5.774l8.556-57.679l-8.106-4.963c-7.944-4.864-14.802-15.105-15.241-22.758l-0.422-7.352
			c-0.282-4.915,2.157-7.6,6.037-7.615l-6.914-54.358C125.225,166.131,128.878,158.109,135.407,154.332z"/>
		<g>
			<path style="fill:#FFFFFF;" d="M247.562,143.077l-11.336,16.191c0,0-13.656-35.22-22.465-44.18
				c-5.505-5.6-10.815-6.654-18.491-5.002c-8.59,1.849-17.084,7.106-21.192,11.52c-15.247,16.386-47.644,75.868-47.644,75.868
				l23.878,5.792l16.911-26.014l-6.819,55.752l35.317,25.979l58.607-31.532l-9.082-32.48l23.29-35.702L247.562,143.077z"/>
			<circle cx="195.27" cy="99.356" r="10.73"/>
			<path d="M276.34,133.061c-4.291-5.777-12.453-6.982-18.23-2.692c-0.098,0.072-0.169,0.166-0.263,0.24
				c-2.983,1.972-4.673,4.656-4.673,4.656l-5.612,7.811l20.975,16.191l6.725-9.448C279.501,144.056,280.187,138.241,276.34,133.061z
				"/>
			<path d="M150.312,203.266l-8.403,13.315c-3.277,5.564-10.481,7.356-15.983,3.976l0,0c-5.367-3.296-7.099-10.287-3.892-15.708
				l4.399-7.375L150.312,203.266z"/>
			<path style="fill:#871FFF;" d="M195.296,88.625c-5.941,0-10.757,4.816-10.757,10.757c0,1.503,0.313,2.932,0.87,4.232
				c1.733-0.718,3.978-9.984,3.978-9.984s12.293,3.841,16.155,2.645C204.203,91.86,200.149,88.625,195.296,88.625z"/>
			
				<linearGradient id="SVGID_5_" gradientUnits="userSpaceOnUse" x1="-1238.7557" y1="357.559" x2="-1159.7155" y2="357.559" gradientTransform="matrix(-1 0 0 1 -959.8865 0)">
				<stop  offset="0" style="stop-color:#D6219C"/>
				<stop  offset="1" style="stop-color:#D6219C"/>
			</linearGradient>
			<path style="fill:url(#SVGID_5_);" d="M235.047,307.458l-35.218,107.685h63.247c5.497,0,10.002-4.361,10.182-9.854l0,0
				c0.185-5.653-4.271-10.374-9.925-10.517l-11.718-0.296l27.254-94.502"/>
			
				<linearGradient id="SVGID_6_" gradientUnits="userSpaceOnUse" x1="-1309.4869" y1="325.0935" x2="-1230.4465" y2="325.0935" gradientTransform="matrix(-1 0 0 1 -959.8865 0)">
				<stop  offset="0" style="stop-color:#D6219C"/>
				<stop  offset="1" style="stop-color:#D6219C"/>
			</linearGradient>
			<path style="fill:url(#SVGID_6_);" d="M305.778,274.993L270.56,382.678h63.247c5.497,0,10.002-4.361,10.182-9.854v0
				c0.185-5.653-4.271-10.374-9.925-10.517l-11.718-0.296l27.254-94.502"/>
			<polygon points="191.311,119.875 210.13,153.711 207.747,119.752 202.194,124.624 			"/>
			<g>
				<path d="M188.989,173.222l-6.133-12.824c-2.692-5.635-0.299-12.408,5.335-15.1c5.633-2.692,12.408-0.3,15.1,5.335l6.133,12.823
					l-5.007,2.395l-6.133-12.824c-0.665-1.393-1.833-2.442-3.287-2.956c-1.454-0.513-3.021-0.431-4.414,0.234
					c-1.392,0.665-2.441,1.833-2.955,3.287c-0.514,1.454-0.431,3.021,0.234,4.413l6.133,12.823L188.989,173.222z"/>
				<path d="M187.502,149.838c-0.358-0.332-8.776-8.271-9.011-21.228c-0.187-10.309,7.507-16.4,7.835-16.654l3.413,4.376
					c-0.059,0.046-5.834,4.705-5.699,12.177c0.19,10.522,7.169,17.196,7.24,17.263L187.502,149.838z"/>
				<g>
					<path d="M219.355,128.699c-2.994-8.725-7.512-13.252-14.221-14.25l0.816-5.489c8.863,1.317,14.964,7.185,18.654,17.938
						L219.355,128.699z"/>
					<circle cx="221.98" cy="127.799" r="3.175"/>
					<circle cx="206.92" cy="164.653" r="3.175"/>
					<circle cx="191.479" cy="172.025" r="3.175"/>
				</g>
			</g>
		</g>
		
			<linearGradient id="SVGID_7_" gradientUnits="userSpaceOnUse" x1="-1439.3378" y1="314.3289" x2="-1047.6372" y2="314.3289" gradientTransform="matrix(-1 0 0 1 -959.8865 0)">
			<stop  offset="0" style="stop-color:#83C0E9"/>
			<stop  offset="1" style="stop-color:#80C7F5"/>
		</linearGradient>
		<path style="fill:url(#SVGID_7_);" d="M87.779,376.673l10.357-86.64l-4.334-1.508c-2.588-1.494-3.87-3.42-3.782-5.227h-0.006
			v-11.895h0.068c0.228-1.209,1.087-2.341,2.609-3.22l249.47-111.392c3.966-2.29,10.893-2.002,15.472,0.641l118.04,68.15
			c2.206,1.274,3.455,2.862,3.723,4.423l0,0v0c0.073,0.426,0.075,0.85,0,1.265v10.145c0.289,1.678-0.558,3.323-2.613,4.51
			l-15.609,9.012l15.187,102.395c0.254,1.714-0.801,3.441-2.5,3.784c-1.812,0.366-3.538-0.862-3.805-2.666l-14.842-100.072
			l-217.659,93.025l1.496,18.844l-0.027,0.018l8.504,98.735c0.179,2.084-1.22,4.086-3.291,4.374
			c-2.209,0.307-4.197-1.299-4.386-3.493l-8.149-94.61l-1.997-19.336l-2.392,1.381c-3.966,2.29-10.893,2.002-15.472-0.641
			l-106.443-62.449l-9.882,83.368c-0.259,2.181-2.268,3.718-4.441,3.396h0C88.99,380.68,87.528,378.767,87.779,376.673z"/>
		
			<linearGradient id="SVGID_8_" gradientUnits="userSpaceOnUse" x1="-1268.1068" y1="236.4786" x2="-1164.8988" y2="236.4786" gradientTransform="matrix(-1 0 0 1 -959.8865 0)">
			<stop  offset="0" style="stop-color:#6F54A2"/>
			<stop  offset="1" style="stop-color:#871FFF"/>
		</linearGradient>
		<path style="fill:url(#SVGID_8_);" d="M205.6,242.99l74.589-32.633c0.422-0.243,0.979-0.226,1.46,0.046l25.618,14.494
			c1.02,0.577,1.174,1.93,0.279,2.447l-0.36,0.208l0.371,0.219c0.89,0.525,0.884,1.815-0.011,2.332l-74.339,32.488
			c-0.418,0.241-0.932,0.241-1.35,0l-22.615-13.057c-0.869-0.502-0.891-1.725-0.081-2.276l-3.269-1.814
			C204.862,244.873,204.7,243.51,205.6,242.99z"/>
		
			<linearGradient id="SVGID_9_" gradientUnits="userSpaceOnUse" x1="-1346.4363" y1="238.8138" x2="-1249.748" y2="238.8138" gradientTransform="matrix(-1 0 0 1 -959.8865 0)">
			<stop  offset="0" style="stop-color:#6F54A2"/>
			<stop  offset="1" style="stop-color:#871FFF"/>
		</linearGradient>
		<path style="fill:url(#SVGID_9_);" d="M289.862,291.36l3.2-68.905l0.007-0.184c0.042-0.783,0.811-1.487,1.461-1.878l0.474,0.118
			l85.273-39.688l0.802-0.582c0.649-0.39,1.003-0.158,1.953,0.61l2.86,2.291c0.414-0.046,0.687,0.256,0.656,0.813l-3.413,61.425
			c-0.014,0.261-0.11,0.541-0.236,0.816l-0.499,9.369c-0.042,0.789-0.658,1.779-1.37,2.2l-19.915,9.741l5.081,8.514
			c0.284,1.777-0.556,3.544-2.112,4.446l-14.484,6.137c-0.687,0.398-1.427,0.531-2.144,0.488c-1.154,0.164-2.418-0.016-3.288-0.552
			l-10.608-5.93l-38.701,16.77c-0.426,0.252-0.79,0.242-1.007,0.027c-1.315,0.223-2.439-0.691-3.147-1.501
			c-0.523-0.599-0.784-1.392-0.743-2.225l0.115-2.363C289.939,291.368,289.86,291.385,289.862,291.36z"/>
	</g>
</g>
<g>
	<ellipse cx="359.903" cy="162.905" rx="6.551" ry="6.917"/>
	<path d="M342.677,197.465v25.218l-12.931,14.068c-2.204,2.398-5.891,2.673-8.426,0.629h0c-2.548-2.054-3.052-5.738-1.15-8.401
		L342.677,197.465z"/>
	<path d="M351.575,257.575l10.829,64.479l-10.11,0.136c-2.435,0.033-4.374,2.048-4.312,4.483v0c0.06,2.371,1.999,4.262,4.371,4.262
		h27.071l-4.039-56.996l-19.774-7.332h-21.939l-7.602,50.982l-9.224-0.181c-2.37-0.047-4.317,1.862-4.317,4.233l0,0
		c0,2.347,1.91,4.246,4.257,4.233l25.816-0.145L351.575,257.575z"/>
	<path style="fill:#FFFFFF;" d="M363.048,174.895c6.191,2.095,7.369,2.164,9.225,11.021c2.352,11.224,0,36.767,0,36.767
		l22.905,57.024c0,0-29.717,6.743-39.566,7.521c-9.022,0.713-35.401-7.561-35.401-7.561s6.767-51.795,6.697-55.891
		c-0.216-12.588,12.257-17.25,12.257-17.25s-2.32-9.38,2.216-18.046c2.007-3.834,8.231-10.327,11.971-12.504
		C355.46,174.749,360.737,174.114,363.048,174.895z"/>
	<path d="M340.086,200.178l10.4,4.887l4.087-8.562l10.66,4.402l-5.025,14.909c-3.367,7.358-9.869,2.977-9.869,2.977l-16.892-8.353
		c-2.566-1.713-3.453-5.071-2.067-7.828v0C332.998,199.394,337.034,198.266,340.086,200.178z"/>
	<path style="fill:#871FFF;" d="M362.302,169.725c0.218,0.512,0.324,1.005,0.079,1.739c-0.187,0.56-0.643,1.089-0.864,1.662
		c0,0,2.49-1.521,2.351-2.761c-0.037-0.335-0.135-0.644-0.26-0.943c1.769-0.738,2.944-2.635,3.673-4.324
		c0.031-0.004,0.061-0.014,0.091-0.02c0.054,0.003,0.107,0.011,0.162,0.012c2.551,0.065,4.671-1.949,4.737-4.5
		c0.065-2.551-1.949-4.671-4.5-4.737c-0.288-0.007-0.569,0.015-0.843,0.059c-1.594-1.76-4.241-2.624-7.194-2.312
		c-1.934,0.205-3.002,0.689-3.917,1.356c-1.705,1.242-2.863,3.029-1.152,4.262c1.578,1.136,5.506-0.6,6.696,2.03
		c0.055,0.121-0.348,3.692-0.168,5.336c0.096,0.879,0.374,1.561,0.743,2.36c0.018,0.038,0.035,0.072,0.052,0.109"/>
</g>
<polygon style="fill:#871FFF;" points="184.989,249.428 168.693,240.916 168.693,228.605 184.989,218.942 "/>
</svg>
