<?xml version="1.0" encoding="utf-8"?>
<!-- Generator: Adobe Illustrator 21.0.0, SVG Export Plug-In . SVG Version: 6.00 Build 0)  -->
<svg version="1.1" id="图层_1" xmlns="http://www.w3.org/2000/svg" xmlns:xlink="http://www.w3.org/1999/xlink" x="0px" y="0px"
	 viewBox="0 0 195.3 46.9" style="enable-background:new 0 0 195.3 46.9;" xml:space="preserve">
<style type="text/css">
	.st0{fill:#06B9D1;}
	.st1{fill:#F08D1D;}
	.st2{fill:#B6CD42;}
</style>
<path class="st0" d="M14.5,15.3c-1,0-1.7,0.8-1.7,1.7s0.8,1.7,1.7,1.7s1.7-0.8,1.7-1.7S15.5,15.3,14.5,15.3z M28.9,8.9H7.2v22.6
	c0,0,0.2,5.5,4.5,9.1V21.8c-1-0.1-1.8-1-1.8-2.1s0.8-1.9,1.8-2.1v-4.2h17.2c0,0,11.5,0.5,12.4,13.1c0,0,1.4,14.4-13.1,16
	c0,0-4.3,0-7.5-1.6v-5c1.6,1.1,3.6,1.8,5.7,1.8c5.6,0,10.2-4.7,10.2-10.4s-4.6-10-10.2-10c-5.5,0-10,4.1-10.2,9.6l0,0v16.5
	c0,0,4.3,4,12.5,3.5c0,0,16.6,0,17-19.8C45.7,27.1,45.4,11,28.9,8.9z M17.1,12.3c-0.8,0-1.4-0.6-1.4-1.4c0-0.7,0.6-1.4,1.4-1.4
	s1.4,0.6,1.4,1.4S17.9,12.3,17.1,12.3z M26.3,21.6c3.4,0,6.1,2.7,6.1,6s-2.7,6-6.1,6s-6.1-2.7-6.1-6S22.9,21.6,26.3,21.6z"/>
<circle class="st1" cx="2.7" cy="14.3" r="2.7"/>
<circle class="st2" cx="6.8" cy="2.4" r="2.4"/>
<circle class="st1" cx="13.5" cy="3.3" r="1.2"/>
<circle class="st2" cx="16.9" cy="6.2" r="1.1"/>
<circle class="st0" cx="2" cy="7.1" r="1.4"/>
<g>
	<path class="st0" d="M58.9,33.5c-0.9,1.5-2.6,2.3-4.8,2.3s-3.9-0.7-5.2-2.2s-2-3.5-2-6.1c0-2.5,0.7-4.5,2-6
		c1.4-1.5,3.2-2.2,5.5-2.2c2,0,3.5,0.7,4.5,2.1v-0.6c0-1,0.7-1.4,2-1.4c0.7,0,1.1,0.1,1.4,0.3c0.3,0.2,0.4,0.6,0.4,1.1v13.6
		c0,0.5-0.1,0.9-0.4,1.1c-0.3,0.2-0.8,0.3-1.6,0.3c-1.3,0-1.9-0.4-1.9-1.3L58.9,33.5L58.9,33.5z M58.9,26.3c0-1.1-0.4-2-1.1-2.8
		c-0.7-0.7-1.6-1.1-2.8-1.1c-1.3,0-2.4,0.5-3.1,1.4c-0.7,0.9-1.1,2.2-1.1,3.7c0,1.6,0.4,2.9,1.1,3.8c0.7,0.9,1.8,1.4,3.1,1.4
		c1.2,0,2.1-0.4,2.8-1.1c0.7-0.7,1-1.7,1-2.8L58.9,26.3L58.9,26.3z"/>
	<path class="st0" d="M71.4,35.8c-1.5,0-2.7-0.2-3.7-0.5s-1.7-0.6-2.2-1c-0.5-0.3-0.7-0.7-0.7-1.2c0-0.3,0.2-0.7,0.5-1
		s0.7-0.5,1.2-0.5c0.3,0,0.7,0.1,1.3,0.4c0.5,0.2,1.1,0.4,1.8,0.6c0.7,0.2,1.3,0.3,1.9,0.3c0.9,0,1.5-0.2,2-0.5s0.7-0.8,0.7-1.5
		c0-0.4-0.2-0.7-0.7-1s-1.3-0.5-2.4-0.8c-1.2-0.2-2.1-0.5-2.8-0.7c-0.7-0.2-1.3-0.5-1.8-0.9s-0.9-0.9-1.2-1.4
		c-0.3-0.6-0.4-1.2-0.4-1.9c0-1.5,0.6-2.8,1.9-3.7c1.2-0.9,2.9-1.4,5-1.4c1.6,0,3,0.3,4.2,0.8s1.8,1,1.8,1.6c0,0.4-0.2,0.8-0.5,1.2
		c-0.3,0.3-0.7,0.5-1.2,0.5c-0.4,0-0.8-0.1-1.2-0.4c-0.7-0.3-1.3-0.6-1.7-0.7c-0.5-0.1-1-0.2-1.8-0.2s-1.4,0.2-1.9,0.6
		s-0.7,0.8-0.7,1.4c0,0.4,0.1,0.7,0.4,1c0.2,0.3,0.5,0.5,0.9,0.6s1.1,0.3,2.1,0.5c2.4,0.5,4,1.1,4.8,1.9c0.7,0.8,1.1,1.7,1.1,2.9
		c0,1.4-0.6,2.6-1.9,3.6C75,35.4,73.4,35.8,71.4,35.8z"/>
	<path class="st0" d="M85.8,35.8c-1.5,0-2.7-0.2-3.7-0.5s-1.7-0.6-2.2-1c-0.5-0.3-0.7-0.7-0.7-1.2c0-0.3,0.2-0.7,0.5-1
		s0.7-0.5,1.2-0.5c0.3,0,0.7,0.1,1.3,0.4c0.5,0.2,1.1,0.4,1.8,0.6c0.7,0.2,1.3,0.3,1.9,0.3c0.9,0,1.5-0.2,2-0.5s0.7-0.8,0.7-1.5
		c0-0.4-0.2-0.7-0.7-1s-1.3-0.5-2.4-0.8c-1.1-0.2-2.1-0.5-2.8-0.7c-0.7-0.2-1.3-0.5-1.8-0.9s-0.9-0.9-1.2-1.4
		c-0.1-0.5-0.3-1.1-0.3-1.8c0-1.5,0.6-2.8,1.9-3.7c1.2-0.9,2.9-1.4,5-1.4c1.6,0,3,0.3,4.2,0.8s1.8,1,1.8,1.6c0,0.4-0.2,0.8-0.5,1.2
		c-0.3,0.3-0.7,0.5-1.2,0.5c-0.4,0-0.8-0.1-1.2-0.4c-0.7-0.3-1.3-0.6-1.7-0.7c-0.5-0.1-1-0.2-1.8-0.2s-1.4,0.2-1.9,0.6
		c-0.4,0.4-0.6,0.9-0.6,1.4c0,0.4,0.1,0.7,0.4,1c0.2,0.3,0.5,0.5,0.9,0.6s1.1,0.3,2.1,0.5c2.4,0.5,4,1.1,4.8,1.9
		c0.7,0.8,1.1,1.7,1.1,2.9c0,1.4-0.6,2.6-1.9,3.6C89.4,35.4,87.8,35.8,85.8,35.8z"/>
	<path class="st0" d="M99.6,22.5v8.4c0,0.5,0.1,1,0.4,1.3s0.6,0.5,1.2,0.5c0.3,0,0.7-0.1,1.1-0.2c0.6-0.2,1-0.3,1.2-0.3
		c0.4,0,0.7,0.2,1,0.5c0.3,0.4,0.4,0.7,0.4,1.2s-0.2,0.8-0.7,1.1c-0.4,0.3-1,0.5-1.6,0.6c-0.6,0.2-1.3,0.2-2,0.2
		c-1.7,0-2.9-0.4-3.7-1.2c-0.8-0.8-1.2-2-1.2-3.7v-8.4h-1.2c-0.6,0-1.1-0.1-1.3-0.3c-0.3-0.2-0.4-0.6-0.4-1.2s0.1-1,0.4-1.2
		c0.2-0.2,0.7-0.3,1.3-0.3h1.2v-3.2c0-0.5,0.1-0.9,0.4-1.1c0.3-0.2,0.8-0.3,1.5-0.3s1.3,0.1,1.6,0.3c0.3,0.2,0.4,0.6,0.4,1.1v3.2
		h3.2c0.6,0,1,0.1,1.2,0.3c0.2,0.2,0.3,0.6,0.3,1.1s-0.1,0.9-0.3,1.1c-0.2,0.2-0.6,0.3-1.2,0.3h-3.2V22.5z"/>
	<path class="st0" d="M113.4,35.8c-2.6,0-4.6-0.8-6.1-2.3s-2.3-3.5-2.3-6s0.7-4.5,2.2-6s3.5-2.3,6.1-2.3s4.7,0.8,6.2,2.3
		s2.2,3.5,2.2,6s-0.8,4.5-2.3,6C118,35.1,116,35.8,113.4,35.8z M113.4,22.4c-1.4,0-2.5,0.5-3.3,1.4S109,26,109,27.5s0.4,2.8,1.2,3.7
		c0.8,1,1.9,1.4,3.3,1.4c1.5,0,2.6-0.5,3.3-1.4c0.8-0.9,1.1-2.2,1.1-3.8c0-1.7-0.4-3-1.1-3.8C116,22.8,114.8,22.4,113.4,22.4z"/>
	<path class="st0" d="M138.8,34.3c0,0.5-0.2,0.8-0.5,1.1c-0.3,0.2-0.8,0.4-1.4,0.4c-0.7,0-1.2-0.1-1.5-0.4c-0.3-0.2-0.4-0.6-0.4-1.1
		v-8.6c0-1-0.3-1.8-0.8-2.4s-1.4-0.9-2.4-0.9c-1.3,0-2.3,0.4-3,1.1c-0.7,0.8-1.1,1.9-1.1,3.3v7.4c0,0.5-0.2,0.8-0.5,1.1
		c-0.3,0.2-0.8,0.4-1.5,0.4c-0.6,0-1.1-0.1-1.4-0.4c-0.3-0.2-0.5-0.6-0.5-1.1V20.7c0-0.5,0.1-0.8,0.4-1s0.8-0.3,1.5-0.3
		s1.2,0.1,1.5,0.3c0.3,0.2,0.4,0.6,0.4,1v1c1.2-1.6,2.9-2.5,5.2-2.5c1.8,0,3.3,0.5,4.3,1.6c1.1,1.1,1.6,2.5,1.6,4.3L138.8,34.3
		L138.8,34.3z"/>
</g>
<path class="st0" d="M142.7,24.8l0.1,0.1c0.1,0.1,0.4,0.4,0.9,0.8c0.3,0.3,0.4,0.4,0.5,0.5l0.1,0.1l0,0c0.2,0.2,0.4,0.3,0.6,0.3
	c0.2,0,0.4-0.1,0.6-0.3l0,0l0,0c0.2-0.2,0.3-0.4,0.2-0.6c0-0.2-0.1-0.4-0.2-0.6l0,0l0,0c-0.6-0.6-0.9-0.8-1.7-1.4l0,0
	c-0.2-0.1-0.4-0.2-0.5-0.2c-0.3,0-0.5,0.1-0.7,0.3l0,0l0,0c-0.1,0.2-0.2,0.3-0.2,0.5C142.4,24.5,142.5,24.7,142.7,24.8z M143.6,20.8
	L143.6,20.8c0.6,0.4,1.2,0.9,1.8,1.5l0,0c0.1,0.1,0.3,0.2,0.5,0.2s0.4-0.1,0.6-0.3l0,0l0,0c0.1-0.2,0.2-0.4,0.2-0.6
	s-0.1-0.5-0.3-0.7l0,0l0,0c-0.4-0.4-0.9-0.9-1.6-1.4l0,0l0,0c-0.2-0.1-0.4-0.2-0.5-0.2c-0.3,0-0.5,0.1-0.7,0.3l0,0
	c-0.2,0.2-0.3,0.4-0.3,0.6C143.3,20.5,143.4,20.7,143.6,20.8z M149.2,22.7L149.2,22.7L149.2,22.7v-0.1c0-0.2,0-0.3,0.1-0.3
	c0.1-0.1,0.2-0.1,0.4-0.2c0.2,0,0.7,0,1.3-0.1l0,0c3.2-0.3,5.1-0.5,5.9-0.8l0,0c0.2-0.1,0.5-0.2,0.6-0.3c0.1-0.2,0.2-0.4,0.2-0.7
	l0,0l0,0c-0.1-0.3-0.2-0.5-0.3-0.6c-0.2-0.1-0.4-0.2-0.6-0.2h-0.1l0,0l0,0c-1.9,0.4-4.4,0.7-7.5,0.9l0,0c-0.5,0-0.9,0.2-1.2,0.4
	c-0.3,0.3-0.4,0.6-0.4,1.1c0,0.1,0,0.2,0,0.3c0,3.6-0.2,6.3-0.5,8s-1,3.1-1.9,4.2l0,0c-0.1,0.2-0.2,0.4-0.2,0.6
	c0,0.3,0.1,0.5,0.4,0.7l0,0l0,0c0.2,0.1,0.4,0.2,0.6,0.2c0.3,0,0.5-0.1,0.8-0.3l0,0c1.8-1.7,2.6-5.4,2.6-11.3
	C149.2,23.6,149.2,23.1,149.2,22.7z M159.4,33.9L159.4,33.9L159.4,33.9c-2-1.3-3.3-3.2-3.8-5.4c0.1,0,0.3-0.1,0.5-0.1l0,0
	c1.3-0.5,2.2-0.9,2.8-1.2l0,0l0,0l0,0l0,0c0.3-0.1,0.5-0.4,0.5-0.7c0-0.2,0-0.3-0.1-0.5l0,0l0,0c-0.2-0.3-0.5-0.6-0.8-0.6
	c-0.1,0-0.2,0-0.3,0.1l0,0l0,0c-1.1,0.5-2.1,1-3,1.3c-0.2-0.5-0.3-1.2-0.3-2.1c0.5-0.1,0.9-0.2,1.3-0.3l0,0c1-0.2,1.6-0.4,2-0.6l0,0
	c0.2-0.1,0.3-0.2,0.4-0.3c0.1-0.1,0.1-0.3,0.1-0.5c0-0.1,0-0.2-0.1-0.4l0,0l0,0c-0.2-0.3-0.5-0.5-0.8-0.5c-0.1,0-0.3,0-0.4,0.1l0,0
	c-1.4,0.6-3.2,1-5.5,1.4l0,0c-0.5,0-0.9,0.2-1.2,0.4c-0.3,0.3-0.4,0.6-0.4,1.1c0,0.1,0,0.1,0,0.2v8.3c-0.4,0-0.7,0.1-1.1,0.2
	c-0.3,0-0.5,0.1-0.7,0.2c-0.2,0.2-0.3,0.4-0.3,0.7l0,0l0,0c0.1,0.3,0.2,0.5,0.4,0.6s0.5,0.2,0.8,0.2l0,0l0,0c2.3-0.2,4-0.7,5.4-1.3
	l0,0l0,0c0.2-0.1,0.3-0.2,0.4-0.4c0.1-0.1,0.2-0.3,0.2-0.5c0-0.1,0-0.2-0.1-0.3l0,0l0,0c-0.2-0.3-0.5-0.5-0.9-0.5
	c-0.1,0-0.3,0-0.4,0.1l0,0l0,0c-0.6,0.3-1.3,0.5-1.9,0.6v-7.6c0-0.1,0-0.2,0.1-0.3c0.1-0.1,0.2-0.1,0.3-0.1l0,0c0.1,0,0.2,0,0.4-0.1
	l0,0l0,0l0,0l0,0c0.1,0,0.1,0,0.2-0.1c0.5,4.8,2.1,8.3,5.1,10.3l0,0c0.3,0.2,0.6,0.3,0.9,0.3c0.2,0,0.5-0.1,0.7-0.2l0,0l0,0
	c0.1-0.2,0.2-0.4,0.2-0.6C159.8,34.5,159.7,34.2,159.4,33.9z M146.2,28.7L146.2,28.7c0-0.3-0.1-0.5-0.2-0.7
	c-0.1-0.2-0.3-0.3-0.6-0.3l0,0l0,0h-0.2c-0.2,0-0.4,0.1-0.6,0.2c-0.2,0.1-0.3,0.3-0.3,0.5l0,0c-0.5,2.3-1.2,4.1-2.2,5.6l0,0l0,0
	c-0.1,0.2-0.1,0.3-0.1,0.5c0,0.3,0.2,0.6,0.4,0.8l0,0l0,0c0.1,0,0.2,0.1,0.4,0.1c0.3,0,0.6-0.2,0.9-0.5l0,0l0,0
	C145.1,32.9,145.9,30.8,146.2,28.7L146.2,28.7z"/>
<path class="st0" d="M178.1,24.9c0-0.2-0.1-0.4-0.2-0.5c-0.1-0.1-0.3-0.2-0.4-0.3l0,0h-5.2v-2l0,0V22c0,0,0-0.1,0.1-0.1
	s0.2-0.1,0.4-0.1c2-0.1,3.3-0.3,4.1-0.6l0,0c0.2-0.1,0.3-0.2,0.5-0.3c0.1-0.1,0.2-0.3,0.2-0.5c0-0.1,0-0.2,0-0.2l0,0l0,0
	c-0.1-0.2-0.2-0.3-0.3-0.4s-0.3-0.1-0.5-0.1c-0.1,0-0.2,0-0.3,0l0,0c-1.3,0.3-2.7,0.5-4.2,0.6l0,0c-0.5,0-0.9,0.1-1.2,0.3
	c-0.3,0.2-0.4,0.5-0.4,0.9c0,0.1,0,0.1,0,0.2v5.6c-0.1,2.5-0.6,5.1-1.8,6.9l0,0c-0.2,0.2-0.3,0.4-0.3,0.7s0.1,0.5,0.4,0.7l0,0l0,0
	c0.1,0.1,0.3,0.1,0.4,0.1c0.3,0,0.6-0.2,0.9-0.5l0,0l0,0c1.5-2,2-4.9,2-7.8v-1.6h1.8v9.1c0,0.2,0.1,0.5,0.2,0.6
	c0.2,0.2,0.4,0.2,0.6,0.3l0,0l0,0c0.2,0,0.4-0.1,0.6-0.3c0.1-0.1,0.2-0.4,0.3-0.6l0,0v-9.1h1.7c0.2,0,0.4-0.1,0.5-0.2
	C178.1,25.3,178.1,25.2,178.1,24.9L178.1,24.9L178.1,24.9z M161.1,30.6L161.1,30.6h8.6l0,0c0.3-0.2,0.5-0.5,0.5-0.8
	s-0.2-0.6-0.5-0.8l0,0h-0.5v-6.7h0.6c0.2,0,0.4-0.1,0.6-0.2c0.1-0.1,0.2-0.3,0.2-0.6l0,0l0,0c0-0.2-0.1-0.4-0.2-0.6
	c-0.1-0.1-0.3-0.2-0.5-0.3l0,0h-0.6v-0.7l0,0l0,0c0-0.2-0.1-0.4-0.3-0.6c-0.2-0.1-0.4-0.2-0.6-0.2c-0.2,0-0.4,0.1-0.6,0.2
	c-0.1,0.1-0.2,0.4-0.2,0.6v0.7h-3.4v-0.8l0,0l0,0c0-0.2-0.1-0.4-0.3-0.5c-0.1-0.1-0.3-0.2-0.6-0.2l0,0l0,0c-0.3,0-0.5,0.1-0.6,0.2
	c-0.2,0.1-0.2,0.3-0.2,0.6v0.8h-0.7l0,0l0,0c-0.2,0-0.4,0.1-0.6,0.3c-0.1,0.2-0.2,0.4-0.2,0.6s0.1,0.4,0.2,0.6
	c0.1,0.1,0.4,0.2,0.6,0.2h0.7v6.7h-1.2l0,0c-0.2,0.1-0.3,0.2-0.5,0.4c-0.1,0.1-0.2,0.3-0.2,0.4C160.6,30.1,160.8,30.3,161.1,30.6z
	 M164.2,22.2h3.4v1l-3.4,1V22.2z M164.2,25.6l3.4-0.9V25l0,0v0.8l-3.4,1V25.6z M164.2,28.3l3.4-0.9v1.5h-3.4V28.3z M164.4,31
	L164.4,31c-0.2-0.1-0.3-0.1-0.5-0.1c-0.3,0-0.6,0.2-0.8,0.4l0,0l0,0c-0.6,1-1.4,1.8-2.3,2.3l0,0l0,0c-0.3,0.2-0.4,0.4-0.4,0.7
	c0,0.2,0.1,0.3,0.2,0.5l0,0l0,0c0.2,0.2,0.4,0.3,0.6,0.3c0.2,0,0.4-0.1,0.6-0.2l0,0l0,0c1.1-0.8,2-1.7,2.6-2.6l0,0
	c0.1-0.2,0.2-0.4,0.2-0.5C164.8,31.5,164.6,31.2,164.4,31L164.4,31z M168.9,33c0-0.2-0.1-0.3-0.2-0.5l0,0l0,0
	c-0.3-0.4-0.6-0.8-0.9-1.2l0,0c-0.2-0.2-0.4-0.3-0.7-0.3c-0.2,0-0.4,0.1-0.5,0.2l0,0c-0.2,0.1-0.3,0.3-0.3,0.6
	c0,0.2,0.1,0.3,0.2,0.5l0,0c0.2,0.4,0.4,0.7,0.6,0.9c0.1,0.2,0.2,0.3,0.3,0.4l0,0l0,0l0,0l0,0c0.2,0.2,0.4,0.4,0.6,0.4
	c0.1,0,0.3,0,0.5-0.1l0,0l0,0C168.7,33.5,168.9,33.3,168.9,33z"/>
<path class="st0" d="M195.2,22.3c-0.1-0.2-0.3-0.2-0.6-0.3l0,0h-5.9v-1.1c0.8,0,1.8,0,2.9-0.1c1.2-0.1,2.1-0.2,2.8-0.4l0,0l0,0
	c0.2-0.1,0.3-0.2,0.5-0.3c0.1-0.1,0.2-0.3,0.2-0.5c0-0.1,0-0.2,0-0.3l0,0c0-0.2-0.1-0.4-0.3-0.5s-0.3-0.2-0.6-0.2H194l0,0
	c-2.7,0.4-6.1,0.6-10.2,0.6c-0.7,0-1.5,0-2.3,0l0,0c-0.6,0-1.1,0.2-1.5,0.5s-0.5,0.7-0.6,1.2v4.5c0,0.1,0,0.3,0,0.4
	c0,3-0.5,6.4-1.4,8.3l0,0l0,0c-0.1,0.2-0.1,0.3-0.1,0.4c0,0.3,0.1,0.5,0.4,0.7l0,0l0,0c0.1,0.1,0.3,0.1,0.4,0.1
	c0.3,0,0.6-0.2,0.8-0.5l0,0c0.5-0.9,0.9-2.3,1.2-3.9c0.3-1.7,0.4-3.6,0.4-5.6v-1.8h5.7v0.9h-3l0,0c-0.5,0-0.9,0.2-1.2,0.4
	c-0.3,0.2-0.5,0.6-0.5,1v8c0,0.5,0.2,0.8,0.5,1.1s0.8,0.4,1.4,0.4h8.3c0.6,0,1.1-0.2,1.4-0.4c0.3-0.3,0.5-0.7,0.6-1.2v-7.5
	c0-0.5-0.1-1-0.4-1.3c-0.3-0.3-0.7-0.4-1.3-0.4h-4v-0.9h5.9c0.2,0,0.5-0.1,0.6-0.2c0.1-0.2,0.2-0.4,0.2-0.6
	C195.4,22.7,195.3,22.5,195.2,22.3z M181.3,22.1v-0.7c0-0.1,0-0.1,0.1-0.1s0.2-0.1,0.3-0.1c0.9,0,1.7,0,2.3,0c1.3,0,2.2,0,2.9-0.1v1
	C186.9,22.1,181.3,22.1,181.3,22.1z M184,30.6V30l8.7-1.1V30l-8.7,1.2V30.6L184,30.6z M192.5,33.9h-8.1c-0.2,0-0.3,0-0.4,0l0,0l0,0
	l0,0v-1.1l8.7-1.1V33v0.9C192.7,33.8,192.6,33.8,192.5,33.9z M192.4,26.4c0.1,0,0.2,0.1,0.3,0.1c0,0.1,0.1,0.1,0.1,0.3v0.5l-8.7,1.2
	v-1.9c0-0.1,0-0.1,0.1-0.2c0,0,0.1-0.1,0.3-0.1h7.9V26.4z"/>
</svg>
