<?xml version="1.0" encoding="utf-8"?>
<!-- Generator: Adobe Illustrator 16.0.0, SVG Export Plug-In . SVG Version: 6.00 Build 0)  -->
<!DOCTYPE svg PUBLIC "-//W3C//DTD SVG 1.1//EN" "http://www.w3.org/Graphics/SVG/1.1/DTD/svg11.dtd">
<svg version="1.1" id="图层_1" xmlns="http://www.w3.org/2000/svg" xmlns:xlink="http://www.w3.org/1999/xlink" x="0px" y="0px"
	 width="500px" height="500px" viewBox="0 0 500 500" enable-background="new 0 0 500 500" xml:space="preserve">
<g>
	<path fill="#FFFFFF" d="M258.236,485.05c115.553,7.146,150.269,1.692,149.352-9.213c-1.249-8.741-15.741-19.934-45.955-26.5
		c24.978-18.983,47.121-57.623,48.953-93.672c4.494,7.992,30.22,44.696,41.459,46.695c13.984-47.952-19.98-130.378-45.955-188.818
		C410.086,6.748,258.236,11.736,258.236,11.736h-0.473c0,0-151.85-4.993-147.853,201.803
		C83.935,271.98,49.97,354.401,63.956,402.354c11.238-2,36.964-38.713,41.458-46.704c1.832,36.049,23.976,74.677,48.952,93.658
		c-30.214,6.569-44.705,17.788-45.955,26.527c-0.916,10.907,33.8,16.36,149.353,9.215H258.236z"/>
</g>
</svg>
