<svg width="16" height="16" viewBox="0 0 16 16" fill="none" xmlns="http://www.w3.org/2000/svg">
<path fill-rule="evenodd" clip-rule="evenodd" d="M3.47521 1.23266C3.7158 1.17252 3.9633 1.1845 4.19813 1.28512C4.45696 1.39602 4.64177 1.60858 4.77648 1.83108C4.88788 2.00436 5.18666 2.47035 5.67248 3.22853C5.93309 3.63524 6.12624 4.02029 6.23411 4.37976C6.34114 4.73642 6.37293 5.09803 6.27135 5.4364C6.14226 5.89821 5.92735 6.33153 5.54086 6.559C5.53554 6.58853 5.53137 6.65963 5.56004 6.79067L5.56263 6.80248C5.61117 7.05324 5.78951 7.4073 6.17603 7.87328C6.58214 8.36288 6.88165 8.70157 7.08016 8.90004C7.28972 9.10955 7.63371 9.41149 8.12235 9.81064C8.58819 10.1912 8.94814 10.3787 9.20984 10.4382C9.33996 10.4665 9.41064 10.4623 9.44006 10.457C9.66527 10.0744 10.0945 9.85177 10.5563 9.71069L10.5685 9.70695C11.2233 9.52512 11.9889 9.8216 12.7687 10.3149C13.5098 10.7838 13.986 11.0913 14.1792 11.2275C14.3979 11.3616 14.6057 11.5446 14.7149 11.7994C14.8156 12.0343 14.8275 12.2818 14.7674 12.5224L14.7606 12.5497L14.4989 13.2505C14.2761 13.847 13.82 14.2842 13.2024 14.5789L13.1958 14.5821C12.6176 14.8477 11.9404 14.8577 11.209 14.6865C10.4953 14.5193 9.76303 14.2358 9.01283 13.842C8.26989 13.452 7.54691 12.9978 6.84386 12.4799C6.14484 11.965 5.54312 11.4572 5.0419 10.9561C4.54068 10.455 4.03283 9.85345 3.51777 9.1546C2.99972 8.4517 2.54539 7.72889 2.15534 6.98612C1.76148 6.23607 1.47783 5.50392 1.31066 4.79039C1.13933 4.05911 1.14942 3.38205 1.41512 2.80389L1.41817 2.79726C1.71298 2.1797 2.1504 1.72377 2.74699 1.50109L3.44794 1.23947L3.47521 1.23266Z" fill="#131415"/>
</svg>
