<?xml version="1.0" encoding="utf-8"?>
<!-- Generator: Adobe Illustrator 24.0.1, SVG Export Plug-In . SVG Version: 6.00 Build 0)  -->
<svg version="1.1" id="laptop-integration" xmlns="http://www.w3.org/2000/svg" xmlns:xlink="http://www.w3.org/1999/xlink" x="0px"
	 y="0px" viewBox="0 0 820 593" style="enable-background:new 0 0 820 593;" xml:space="preserve">
<style type="text/css">
	.st0{opacity:0.7;fill:#FFFFFF;enable-background:new    ;}
	.st1{fill:#FFFFFF;}
	.st2{fill:url(#SVGID_1_);}
	.st3{fill:url(#SVGID_2_);}
	.st4{fill:url(#SVGID_3_);}
	.st5{fill:url(#SVGID_4_);}
	.st6{fill:url(#SVGID_5_);}
	.st7{fill:url(#SVGID_6_);}
	.st8{fill:url(#SVGID_7_);}
	.st9{fill:url(#SVGID_8_);}
	.st10{fill:url(#SVGID_9_);}
	.st11{fill:#D03192;}
	.st12{fill:#80C7F5;}
	.st13{fill:#AFC6D2;}
	.st14{fill:#6F54A3;}
</style>
<g id="clouds">
	<path class="st0" d="M101.2,261.4c-31.3,0-58.5,17.9-71.8,44c-4.3-1.6-9-2.5-13.9-2.5c-21.5,0-39,17.5-39,39h44.1h33.8h127.1
		C181.6,297.6,145.6,261.4,101.2,261.4z"/>
	<path class="st0" d="M751.2,242.3c-28.3,0-52.8,16.2-64.8,39.8c-3.9-1.5-8.1-2.3-12.5-2.3c-19.4,0-35.2,15.8-35.2,35.2h39.8h30.6
		h114.8C824,274.7,791.4,242.3,751.2,242.3z"/>
	<path class="st0" d="M155.8,52.4c-17.8,0-32.9,10.1-39.1,24.4c-2.8-1.6-6.1-2.5-9.6-2.5c-10,0-18.2,7.5-18.2,16.7h24.9h11.4h72.5
		C197.8,69.6,179,52.4,155.8,52.4z"/>
	<path class="st0" d="M566.3,47.6c-2.5,0-4.9,0.7-6.9,1.8c-5.1-18-21.3-31.2-40.5-31.2c-16.9,0-31.4,10.2-38.2,24.9
		c-4.2-3.5-9.5-5.5-15.4-5.5c-13.3,0-24.1,10.8-24.1,24.1h35.4h12.8h62.8h8.9h19.3C580.4,53.9,574.1,47.6,566.3,47.6z"/>
	<path class="st0" d="M764.2,150.9c-10.8,0-20,6.2-23.8,14.8c-1.7-1-3.7-1.5-5.9-1.5c-6.1,0-11,4.5-11,10.1h15.1h7h44.1
		C789.8,161.4,778.3,150.9,764.2,150.9z"/>
</g>
<path class="st1" d="M642.2,455.2V184.7c0-8.7-7.1-15.8-15.8-15.8H193.1c-8.7,0-15.8,7.1-15.8,15.8v270.5H642.2z"/>
<linearGradient id="SVGID_1_" gradientUnits="userSpaceOnUse" x1="-79.135" y1="-465.9368" x2="172.9502" y2="-465.9368" gradientTransform="matrix(0 1 -1 0 -55.5 266.5)">
	<stop  offset="0" style="stop-color:#CD138C"/>
	<stop  offset="0.2236" style="stop-color:#D72F8C"/>
	<stop  offset="0.7046" style="stop-color:#EF788C"/>
	<stop  offset="1" style="stop-color:#FFA78C"/>
</linearGradient>
<polygon class="st2" points="194.5,439.5 194.5,187.4 626.4,187.4 626.4,439.5 "/>
<path class="st1" d="M411.1,463.1c8.6,0,16.6,1.6,23.2,4.4c1.9-3.7,3-7.8,3-12.3c0-14.5-11.8-26.3-26.3-26.3
	c-14.5,0-26.3,11.8-26.3,26.3c0,4.4,1.1,8.6,3,12.3C394.5,464.7,402.5,463.1,411.1,463.1z"/>
<g>
	<path class="st1" d="M461.2,547.1h-8.1v10.5h11.2C463.4,553.5,462.3,550,461.2,547.1z"/>
	<polygon class="st1" points="362.6,557.6 362,547.1 355.6,547.1 351.1,557.6 	"/>
	<path class="st1" d="M316.6,547.1H62.5c-10.3,0-19-7.3-21.1-17.1c-0.3,1.5-0.5,3-0.5,4.5v1.4c0,11.9,9.7,21.6,21.6,21.6h251.4
		C314.8,554,315.7,550.5,316.6,547.1z"/>
	<path class="st1" d="M778.5,530c-2.1,9.7-10.8,17.1-21.1,17.1H494.9c1.2,3.6,2.3,7.1,3.2,10.5h259.4c11.9,0,21.6-9.7,21.6-21.6
		v-1.4C779,533,778.9,531.5,778.5,530z"/>
</g>
<polygon class="st1" points="103.9,520.9 103.9,526.1 156.4,526.1 193.1,499.8 193.1,494.6 156.4,520.9 "/>
<polygon class="st1" points="182.6,520.9 182.6,526.1 235.2,526.1 261.4,499.8 261.4,494.6 235.2,520.9 "/>
<rect x="264" y="520.9" class="st1" width="63" height="5.3"/>
<polygon class="st1" points="164.3,485.1 164.3,489.3 206.3,489.3 229.9,471 229.9,466.8 206.3,485.1 "/>
<polygon class="st1" points="227.3,485.1 227.3,489.3 269.3,489.3 285.1,473.6 285.1,469.4 269.3,485.1 "/>
<polygon class="st1" points="292.9,485.1 292.9,489.3 334.9,489.3 342.8,473.6 342.8,469.4 334.9,485.1 "/>
<polygon class="st1" points="718.3,520.9 718.3,526.1 665.8,526.1 629,499.8 629,494.6 665.8,520.9 "/>
<polygon class="st1" points="639.5,520.9 639.5,526.1 587,526.1 560.8,499.8 560.8,494.6 587,520.9 "/>
<rect x="495.1" y="520.9" transform="matrix(-1 -4.493973e-11 4.493973e-11 -1 1053.2646 1046.9572)" class="st1" width="63" height="5.3"/>
<polygon class="st1" points="657.9,485.1 657.9,489.3 615.9,489.3 592.3,471 592.3,466.8 615.9,485.1 "/>
<polygon class="st1" points="594.9,485.1 594.9,489.3 552.9,489.3 537.1,473.6 537.1,469.4 552.9,485.1 "/>
<polygon class="st1" points="529.3,485.1 529.3,489.3 487.2,489.3 479.4,473.6 479.4,469.4 487.2,485.1 "/>
<rect x="118.8" y="224" class="st1" width="258.3" height="191.1"/>
<linearGradient id="SVGID_2_" gradientUnits="userSpaceOnUse" x1="186.9594" y1="395.7344" x2="186.9594" y2="330.459">
	<stop  offset="0" style="stop-color:#CD138C"/>
	<stop  offset="0.1802" style="stop-color:#BE309C"/>
	<stop  offset="0.5711" style="stop-color:#9978C5"/>
	<stop  offset="1" style="stop-color:#6DCFF6"/>
</linearGradient>
<rect x="177.1" y="350.4" class="st3" width="19.7" height="44.8"/>
<linearGradient id="SVGID_3_" gradientUnits="userSpaceOnUse" x1="217.7686" y1="395.7344" x2="217.7686" y2="282.0898">
	<stop  offset="0" style="stop-color:#CD138C"/>
	<stop  offset="0.2236" style="stop-color:#D72F8C"/>
	<stop  offset="0.7046" style="stop-color:#EF788C"/>
	<stop  offset="1" style="stop-color:#FFA78C"/>
</linearGradient>
<rect x="207.9" y="324.6" class="st4" width="19.7" height="70.5"/>
<linearGradient id="SVGID_4_" gradientUnits="userSpaceOnUse" x1="248.6582" y1="395.7344" x2="248.6582" y2="330.459">
	<stop  offset="0" style="stop-color:#CD138C"/>
	<stop  offset="0.1802" style="stop-color:#BE309C"/>
	<stop  offset="0.5711" style="stop-color:#9978C5"/>
	<stop  offset="1" style="stop-color:#6DCFF6"/>
</linearGradient>
<rect x="238.8" y="339.7" class="st5" width="19.7" height="55.5"/>
<linearGradient id="SVGID_5_" gradientUnits="userSpaceOnUse" x1="279.3872" y1="395.7344" x2="279.3872" y2="282.0898">
	<stop  offset="0" style="stop-color:#CD138C"/>
	<stop  offset="0.2236" style="stop-color:#D72F8C"/>
	<stop  offset="0.7046" style="stop-color:#EF788C"/>
	<stop  offset="1" style="stop-color:#FFA78C"/>
</linearGradient>
<rect x="269.5" y="304.5" class="st6" width="19.7" height="90.7"/>
<linearGradient id="SVGID_6_" gradientUnits="userSpaceOnUse" x1="310.2768" y1="395.7344" x2="310.2768" y2="330.459">
	<stop  offset="0" style="stop-color:#CD138C"/>
	<stop  offset="0.1802" style="stop-color:#BE309C"/>
	<stop  offset="0.5711" style="stop-color:#9978C5"/>
	<stop  offset="1" style="stop-color:#6DCFF6"/>
</linearGradient>
<rect x="300.4" y="329.1" class="st7" width="19.7" height="66.1"/>
<linearGradient id="SVGID_7_" gradientUnits="userSpaceOnUse" x1="341.0861" y1="395.7344" x2="341.0861" y2="282.0898">
	<stop  offset="0" style="stop-color:#CD138C"/>
	<stop  offset="0.2236" style="stop-color:#D72F8C"/>
	<stop  offset="0.7046" style="stop-color:#EF788C"/>
	<stop  offset="1" style="stop-color:#FFA78C"/>
</linearGradient>
<rect x="331.2" y="284.8" class="st8" width="19.7" height="110.4"/>
<polygon points="172.5,336.5 171.6,335.1 217.4,301.7 217.9,301.9 248.1,319.6 276.1,286 313.6,301 346.8,254.7 348.2,255.5 
	314.2,303.2 276.6,288 248.4,321.9 217.5,303.8 "/>
<linearGradient id="SVGID_8_" gradientUnits="userSpaceOnUse" x1="149.1297" y1="268.9554" x2="149.1297" y2="250.4125">
	<stop  offset="9.520089e-02" style="stop-color:#CD138C"/>
	<stop  offset="0.2582" style="stop-color:#BE309C"/>
	<stop  offset="0.6119" style="stop-color:#9978C5"/>
	<stop  offset="1" style="stop-color:#6DCFF6"/>
</linearGradient>
<rect x="140.5" y="249.9" class="st9" width="17.2" height="17.2"/>
<linearGradient id="SVGID_9_" gradientUnits="userSpaceOnUse" x1="149.1297" y1="387.1335" x2="149.1297" y2="273.4889">
	<stop  offset="0.8592" style="stop-color:#CD138C"/>
	<stop  offset="1" style="stop-color:#FFA78C"/>
</linearGradient>
<rect x="140.5" y="271.7" class="st10" width="17.2" height="17.2"/>
<path class="st11" d="M212.4,303.2c0-3.2,2.6-5.6,5.5-5.6c3.2,0,5.6,2.6,5.6,5.5c0,3.2-2.6,5.6-5.5,5.6l0,0
	C215,309,212.4,306.4,212.4,303.2z"/>
<path class="st12" d="M241.6,320.2c0-3.2,2.6-5.5,5.5-5.5c3.2,0,5.5,2.6,5.5,5.5c0,3.2-2.6,5.5-5.5,5.5l0,0
	C244.1,325.7,241.6,323.2,241.6,320.2z"/>
<path class="st11" d="M270.2,287.1c0-3.2,2.6-5.6,5.5-5.6c3,0,5.6,2.6,5.6,5.5c0,3.2-2.6,5.6-5.5,5.6l0,0
	C272.7,292.6,270.2,290.1,270.2,287.1z"/>
<path class="st12" d="M307.7,301.5c0-3.2,2.6-5.5,5.5-5.5c3.2,0,5.5,2.6,5.5,5.5s-2.6,5.5-5.5,5.5l0,0
	C310.3,307.3,307.7,304.7,307.7,301.5L307.7,301.5z"/>
<path class="st11" d="M341.9,255.1c0-3.2,2.6-5.6,5.5-5.6c3.2,0,5.6,2.6,5.6,5.5c0,3.2-2.6,5.6-5.5,5.6l0,0
	C344.3,260.6,341.9,258.2,341.9,255.1z"/>
<rect x="140.5" y="399.6" class="st13" width="210.6" height="3.4"/>
<g id="line_chart">
	<rect x="537.4" y="302.6" class="st1" width="175.3" height="112.5"/>
	<polygon class="st11" points="549.2,409.7 548,408 566.7,391.9 578.6,395 594.5,384.4 611.6,397.3 634.2,373.9 653.5,381.4 
		678.8,364.3 694.7,332.1 696.4,333.2 680.3,365.8 653.7,383.7 634.7,376.3 611.8,400.1 594.5,386.9 578.9,397.4 567.1,394.2 	"/>
	<polygon class="st12" points="604.5,399.4 591.9,393.1 577.4,391.6 563.2,387.9 547.2,397.1 546.3,395.2 562.9,385.6 577.7,389.5 
		592.6,391.1 604.7,397.2 626.7,392.7 642.8,395.4 654.4,371.6 671.6,357.6 696.6,349.9 697.1,352 672.4,359.6 656,373.1 644,397.8 
		626.8,394.9 	"/>
	<path class="st11" d="M692.1,332.1c0-2.6,1.9-4.5,4.1-4.5c2.2,0,4.1,2.1,4.1,4.5c0,2.6-1.9,4.5-4.1,4.5l0,0
		C693.9,336.7,692.1,334.6,692.1,332.1z"/>
	<path class="st14" d="M692.1,315.4c0-2.6,1.9-4.5,4.1-4.5c2.2,0,4.1,2.1,4.1,4.5c0,2.6-1.9,4.5-4.1,4.5l0,0
		C693.9,320.1,692.1,318,692.1,315.4z"/>
	<ellipse class="st12" cx="696.3" cy="350.6" rx="4.1" ry="4.5"/>
	<polygon class="st14" points="548.5,388.9 547.4,387.1 563.9,375.1 594.5,374.1 594.7,374.1 615.3,379.9 632.2,360.2 652.1,355.4 
		666.8,322.2 696.3,314.2 696.8,316.3 668.1,324 653.5,357.3 633.2,362.2 615.9,382.2 594.3,376.2 564.4,377.3 	"/>
	<rect x="545.3" y="310" class="st14" width="24" height="2.6"/>
	<rect x="545.3" y="315.8" class="st11" width="24" height="2.6"/>
	<rect x="545.3" y="321.5" class="st12" width="24" height="2.6"/>
</g>
<g id="gant_chart">
	<rect x="233.9" y="96" class="st1" width="160.2" height="97.9"/>
	<g>
		<path class="st11" d="M346.9,110.1c-11.8,0-22.2,5.8-28.5,14.6c7.2,4.2,12.1,12.1,12.1,21.1c0,8.8-4.7,16.5-11.6,20.8
			c6.4,8.5,16.6,13.9,28,13.9c19.5,0,35.2-15.7,35.2-35.2S366.3,110.1,346.9,110.1z"/>
		<path class="st12" d="M318.3,124.7c-3.6-2.1-7.8-3.3-12.2-3.3c-13.5,0-24.4,10.9-24.4,24.4c0,13.5,10.9,24.4,24.4,24.4
			c4.7,0,9-1.3,12.7-3.6c-4.5-5.9-7.2-13.2-7.2-21.3C311.7,137.5,314.2,130.5,318.3,124.7z"/>
		<path class="st14" d="M330.5,145.7c0-9-4.9-16.8-12.1-21.1c-4.2,5.8-6.7,12.9-6.7,20.6c0,8,2.6,15.4,7.2,21.3
			C325.8,162.3,330.5,154.5,330.5,145.7z"/>
	</g>
	<ellipse class="st13" cx="259.5" cy="146" rx="11.3" ry="11.3"/>
</g>
<g id="pie_chart">
	<rect x="477.5" y="131.7" class="st1" width="175.9" height="127.8"/>
	<path class="st12" d="M543.2,196.1c0-25.2,20.4-45.5,45.5-45.5c25.2,0,45.5,20.4,45.5,45.5s-20.4,45.5-45.5,45.5
		C563.6,241.7,543.2,221.3,543.2,196.1L543.2,196.1z M588.8,211.9c8.7,0,15.7-7.1,15.7-15.7c0-8.7-7.1-15.7-15.7-15.7
		s-15.7,7.1-15.7,15.7l0,0C573.1,204.8,580.1,211.9,588.8,211.9L588.8,211.9z"/>
	<path class="st11" d="M552.9,196.1c0-19.9,16.1-36,36-36c19.9,0,36,16.1,36,36s-16.1,36-36,36l0,0C569,232.1,552.9,216,552.9,196.1
		L552.9,196.1z M588.8,211.9c8.7,0,15.7-7.1,15.7-15.7c0-8.7-7.1-15.7-15.7-15.7s-15.7,7.1-15.7,15.7l0,0
		C573.1,204.8,580.1,211.9,588.8,211.9L588.8,211.9z"/>
	<path class="st11" d="M588.8,180.4v-29.8c-8,0-15.9,2.1-22.8,6.1l15,25.9C583.4,181.2,586,180.4,588.8,180.4z"/>
	<path class="st12" d="M580.9,182.5l-15-25.9c-14.1,8.1-22.8,23.1-22.8,39.5H573C573.1,190.5,576,185.4,580.9,182.5z"/>
	<path class="st11" d="M573.1,196.1h-29.8c0,23.6,18.1,43.3,41.6,45.5l2.6-29.7C579.3,211.1,573.1,204.3,573.1,196.1z"/>
	<path class="st14" d="M588.8,180.4v-20.3c-6.2,0-12.6,1.6-17.9,4.8l10.2,17.6C583.4,181.2,586,180.4,588.8,180.4z"/>
	<path class="st11" d="M580.9,182.5L570.8,165c-11.1,6.5-17.9,18.3-17.9,31.2h20.3C573.1,190.5,576.1,185.4,580.9,182.5z"/>
	<path class="st14" d="M573.1,196.1h-20.3c0,18.6,14.3,34.2,32.8,35.8l1.7-20.2C579.3,211.1,573.1,204.3,573.1,196.1z"/>
	<path class="st12" d="M512.6,154.9c4.3-0.1,7.9,3.4,7.9,7.7c0,0.9-0.1,1.7-0.4,2.5l5.2,1.6c2.2-7.1-1.6-14.5-8.7-16.7
		c-1.4-0.4-2.8-0.7-4.1-0.5L512.6,154.9z"/>
	<path class="st11" d="M512.8,170.7c-4.3,0.2-8-3.2-8.2-7.6c-0.1-4.4,3.2-8,7.6-8.2c0.2,0,0.3,0,0.5,0l0,0l-0.1-5.4l0,0
		c-7.3,0.1-13.3,6.2-13.1,13.5c0.1,7.3,6.2,13.3,13.5,13.1c5.7-0.1,10.8-3.8,12.6-9.3l-5.2-1.6C519.2,168.3,516.2,170.5,512.8,170.7
		z"/>
	<path class="st12" d="M512.5,182.6L512.5,182.6v5.4l0,0c4.3-0.2,8,3.3,8.1,7.6c0.2,4.3-3.3,8-7.6,8.1c-0.2,0-0.4,0-0.5,0
		c-1.6,0-3.3-0.5-4.6-1.5l-3.2,4.5c5.9,4.3,14.3,3,18.6-2.9c4.3-5.9,3-14.3-2.9-18.6C518.1,183.5,515.3,182.6,512.5,182.6
		L512.5,182.6z"/>
	<path class="st11" d="M504.7,195.9c0-4.3,3.5-7.8,7.8-7.8v-5.4c-7.3,0-13.3,6-13.3,13.3c0,4.3,2.1,8.2,5.5,10.7l3.2-4.5
		C505.8,200.7,504.7,198.3,504.7,195.9z"/>
	<path class="st12" d="M512.7,216L512.7,216v5.4l0,0c4.3,0,7.9,3.5,7.9,7.8c0,4.3-3.5,7.9-7.8,7.9c-4.3,0-7.9-3.5-7.9-7.8
		c0-0.8,0.1-1.6,0.4-2.4l-5.2-1.6c-0.5,1.4-0.7,2.7-0.7,4.1c0,7.3,6,13.3,13.3,13.3c7.3,0,13.3-6,13.3-13.3
		C526,221.9,520.1,216,512.7,216L512.7,216z"/>
	<path class="st11" d="M512.7,221.4V216c-5.8,0-10.9,3.6-12.6,9.2l5.2,1.6C506.2,223.7,509.3,221.4,512.7,221.4z"/>
</g>
</svg>
