<?xml version="1.0" encoding="iso-8859-1"?>
<!-- Generator: Adobe Illustrator 24.0.0, SVG Export Plug-In . SVG Version: 6.00 Build 0)  -->
<svg version="1.1" id="Layer_1" xmlns="http://www.w3.org/2000/svg" xmlns:xlink="http://www.w3.org/1999/xlink" x="0px" y="0px"
	 viewBox="0 0 500 433.565" style="enable-background:new 0 0 500 433.565;" xml:space="preserve">
<linearGradient id="SVGID_1_" gradientUnits="userSpaceOnUse" x1="197.5069" y1="210.0568" x2="233.651" y2="210.0568" gradientTransform="matrix(1 0 0 -1 0 333.9997)">
	<stop  offset="8.011200e-04" style="stop-color:#59449B"/>
	<stop  offset="1" style="stop-color:#6DCFF6"/>
</linearGradient>
<path style="fill:none;stroke:url(#SVGID_1_);stroke-width:0.5488;stroke-miterlimit:10;" d="M233.487,52.012
	c0,0-60.86,45.23-23.668,143.985"/>
<linearGradient id="SVGID_2_" gradientUnits="userSpaceOnUse" x1="1388.3265" y1="-328.2167" x2="1424.4967" y2="-328.2167" gradientTransform="matrix(-1.0369 0.2031 0.2031 1.0369 1867.7992 179.4582)">
	<stop  offset="8.011200e-04" style="stop-color:#59449B"/>
	<stop  offset="1" style="stop-color:#6DCFF6"/>
</linearGradient>
<path style="fill:none;stroke:url(#SVGID_2_);stroke-width:0.5799;stroke-miterlimit:10;" d="M338.866,202.994
	c0,0,53.921-59.26-4.702-154.109"/>
<linearGradient id="SVGID_3_" gradientUnits="userSpaceOnUse" x1="250" y1="-100.3668" x2="250" y2="189.3119" gradientTransform="matrix(1 0 0 -1 0 333.9997)">
	<stop  offset="8.011200e-04" style="stop-color:#59449B"/>
	<stop  offset="1" style="stop-color:#6DCFF6"/>
</linearGradient>
<path style="fill:url(#SVGID_3_);" d="M5.794,295.814L239.545,430.77c6.453,3.727,14.404,3.727,20.859,0l233.803-134.986
	c7.725-4.461,7.725-15.611,0-20.071L260.455,140.757c-6.453-3.727-14.404-3.727-20.859,0L5.794,275.743
	C-1.931,280.203-1.931,291.353,5.794,295.814z"/>
<g>
	
		<linearGradient id="SVGID_4_" gradientUnits="userSpaceOnUse" x1="247.52" y1="160.0986" x2="247.52" y2="-59.5386" gradientTransform="matrix(1 0 0 -1 0 333.9997)">
		<stop  offset="8.011200e-04" style="stop-color:#59449B"/>
		<stop  offset="1" style="stop-color:#6DCFF6"/>
	</linearGradient>
	<path style="fill:none;stroke:url(#SVGID_4_);stroke-width:1.0976;stroke-miterlimit:10;stroke-dasharray:1.6453,1.6453;" d="
		M428.062,276.289L255.25,176.516c-4.771-2.755-10.649-2.755-15.421,0L66.978,276.312c-5.711,3.297-5.711,11.542,0,14.839
		l172.812,99.772c4.771,2.755,10.649,2.755,15.421,0l172.851-99.796C433.773,287.83,433.773,279.586,428.062,276.289z"/>
</g>
<g>
	<path style="fill:#F8A79A;" d="M289.556,123.142c0,4.497-4.361,7.872-6.816,11.666c-2.291,3.54-3.273,8.919-7.199,11.472
		c-3.536,2.298-8.946,1.196-13.435,2.415c-4.105,1.114-8.111,4.911-12.731,4.911c-4.619,0-8.624-3.797-12.73-4.911
		c-4.491-1.219-9.901-0.117-13.438-2.415c-3.926-2.553-4.91-7.932-7.199-11.472c-2.454-3.794-6.815-7.169-6.815-11.665
		c0-4.497,4.361-7.872,6.816-11.666c2.291-3.54,3.273-8.919,7.199-11.472c3.536-2.298,8.946-1.196,13.435-2.415
		c4.105-1.114,8.111-4.911,12.731-4.911c4.619,0,8.624,3.797,12.73,4.911c4.491,1.219,9.901,0.117,13.438,2.415
		c3.926,2.553,4.91,7.932,7.199,11.472C285.195,115.27,289.556,118.645,289.556,123.142z"/>
</g>
<g>
	<path style="fill:#FFFFFF;" d="M246.074,164.484c1.033-3.507,1.541-7.015,1.973-10.523c0.402-3.507,0.52-7.015,0.691-10.523
		c0.31-7.015,0.495-14.031,0.393-21.045h0.54c-0.102,7.015,0.083,14.031,0.393,21.045c0.171,3.507,0.289,7.015,0.691,10.523
		c0.432,3.507,0.94,7.015,1.973,10.523H246.074z"/>
</g>
<path style="fill:#010101;" d="M444.894,282.962v7.57c-0.294,0.379-0.471,0.854-0.471,1.371c0,1.237,1.003,2.24,2.24,2.24
	c1.237,0,2.24-1.003,2.24-2.24c0-0.601-0.237-1.144-0.621-1.546v-7.475l11.15,5.868v1.571c-0.405,0.405-0.654,0.964-0.654,1.582
	c0,1.237,1.003,2.24,2.24,2.24s2.24-1.003,2.24-2.24c0-0.673-0.298-1.275-0.769-1.686v-2.891l-14.207-7.91h-3.387v0.083
	l-14.057,7.827v2.82c-0.52,0.41-0.855,1.044-0.855,1.758c0,1.237,1.003,2.24,2.24,2.24c1.237,0,2.24-1.003,2.24-2.24
	c0-0.572-0.215-1.092-0.568-1.488v-1.665L444.894,282.962z"/>
<polyline style="fill:#010101;" points="434.996,273.895 434.996,288.104 432.091,288.104 432.091,273.895 "/>
<path style="fill:#010101;" d="M418.482,273.895c-0.811,0-1.467-1-1.467-2.234l0,0c0-1.234,0.656-2.234,1.467-2.234h29.678
	c0.811,0,1.467,1,1.467,2.234l0,0c0,1.234-0.656,2.234-1.467,2.234H418.482z"/>
<g>
	
		<linearGradient id="SVGID_5_" gradientUnits="userSpaceOnUse" x1="428.8572" y1="25.2873" x2="431.7252" y2="92.6845" gradientTransform="matrix(1 0 0 -1 0 333.9997)">
		<stop  offset="0" style="stop-color:#CD138C"/>
		<stop  offset="1" style="stop-color:#F8A79A"/>
	</linearGradient>
	<path style="fill:url(#SVGID_5_);" d="M430.948,225.286c0,0,2.212,2.599,6.104,3.222c0,0,0.438-3.446-2.78-4.624
		c0.061-0.196,0.095-0.403,0.095-0.619c0-1.139-0.924-2.061-2.061-2.061c-1.138,0-2.061,0.924-2.061,2.061
		c0,0.217,0.034,0.424,0.095,0.62c-3.245,0.999-2.798,4.191-2.798,4.191C428.708,225.33,430.948,225.286,430.948,225.286z"/>
	
		<linearGradient id="SVGID_6_" gradientUnits="userSpaceOnUse" x1="429.9543" y1="25.2406" x2="432.8222" y2="92.6378" gradientTransform="matrix(1 0 0 -1 0 333.9997)">
		<stop  offset="0" style="stop-color:#CD138C"/>
		<stop  offset="1" style="stop-color:#F8A79A"/>
	</linearGradient>
	<path style="fill:url(#SVGID_6_);" d="M447.699,234.713c-4.642-2.471-8.723-3.501-11.462-3.909c0,0-1.21,1.787-3.763,1.831
		c-3.139,0.054-3.982-1.831-3.982-1.831c-6.762,0.793-9.528,9.211-15.138,9.509c-1.726,0.092-2.147-1.939-2.106-4.117
		c0.051-2.784-2.148-5.085-4.933-5.085l0,0c-3.23,0-5.572,3.046-4.779,6.175c1.247,4.908,4.064,10.954,10.382,10.954
		c7.247,0,11.591-9.601,14.579-10.08l-6.279,22.466l-9.982,15.634l-0.274,22.829l-1.846-0.109c0,0-1.678-0.099-1.612,1.646
		c0,0,0.019,1.573,1.642,1.668l13.201-0.179l-1.625-23.951l5.886-8.811h5.794l-6.93,13.566l7.997,21.384l-1.76,0.566
		c0,0-1.601,0.515-0.908,2.117c0,0,0.588,1.459,2.134,0.961l12.245-4.938l-10.172-21.745l10.623-11.913h3.567l-0.953-2.93
		l0.263-0.296l-0.34,0.062l-9.436-28.985c14.459,2.749,14.675,19.897,14.891,24.285c0.149,3.043,2.737,5.391,5.78,5.239
		c3.043-0.149,5.388-2.737,5.239-5.78C462.899,245.885,454.563,238.367,447.699,234.713z"/>
</g>
<path style="fill:#FFFFFF;" d="M467.647,256.922v2.535h-0.008v42.353h-2.535v-42.353l-13.862,1.634h-75.007l12.59-1.634v42.353
	h-2.535v-42.353v-2.535H467.647z"/>
<path style="fill:#FFFFFF;" d="M453.785,258.556v2.535h-0.008v48.183h-2.535v-48.183h-75.007v48.183h-2.535v-48.183v-2.535
	l12.59-1.634L453.785,258.556z"/>
<g>
	<rect x="392.56" y="254.981" style="fill:#010101;" width="22.235" height="1.001"/>
	<path style="fill:#010101;" d="M392.241,256.289c0,0.35,0.384,0.633,0.857,0.633h31.098c0.473,0,0.857-0.284,0.857-0.633v-0.418
		h-32.813V256.289z"/>
	<path style="fill:#010101;" d="M414.428,241.641h-21.329c-0.473,0-0.857,0.355-0.857,0.795v12.189c0,0.438,0.384,0.795,0.857,0.795
		h21.329c0.473,0,0.857-0.355,0.857-0.795v-12.189C415.285,241.996,414.902,241.641,414.428,241.641z"/>
</g>
<ellipse style="fill:#FFFFFF;" cx="437.013" cy="228.776" rx="1.292" ry="1.702"/>
<path style="fill:none;stroke:#FFFFFF;stroke-width:0.4417;stroke-miterlimit:10;" d="M428.05,225.226c0,0,1.328-1.673,4.016-1.673
	c4.441,0,5.216,4.152,5.216,4.152"/>
<path style="fill:none;stroke:#FFFFFF;stroke-width:0.4242;stroke-miterlimit:10;" d="M436.484,229.296c0,0-1.224,1.673-3.704,1.673
	"/>
<ellipse style="fill:#FFFFFF;" cx="432.382" cy="230.969" rx="1.324" ry="0.68"/>
<linearGradient id="SVGID_7_" gradientUnits="userSpaceOnUse" x1="78.7092" y1="61.2072" x2="76.0595" y2="108.9015" gradientTransform="matrix(1 0 0 -1 0 333.9997)">
	<stop  offset="0" style="stop-color:#CD138C"/>
	<stop  offset="1" style="stop-color:#F8A79A"/>
</linearGradient>
<path style="fill:url(#SVGID_7_);" d="M79.015,222.144c-0.638-0.363-2.135,0.712-4.491,1.075c-2.588,1.175-2.205,4.707-2.205,4.707
	c1.266-0.911,1.742-2.771,1.742-2.771h5.62c0.493,1.826,1.86,2.771,1.86,2.771C81.564,224.973,80.268,222.66,79.015,222.144z
	 M106.043,271.345c-3.418,0.17-6.325-2.467-6.492-5.885c-0.243-4.929-1.507-9.121-3.76-12.46c-1.776-2.633-4.216-4.817-7.252-6.495
	c-1.139-0.629-2.283-1.143-3.383-1.563l9.425,29.349H60.416l8.269-29.758c-2.295,0.879-4.243,2.164-5.869,3.872
	c-6.111,6.419-5.773,16.861-5.768,16.965c0.169,3.418-2.464,6.326-5.882,6.495c-0.104,0.005-0.208,0.008-0.311,0.008
	c-3.282,0-6.02-2.576-6.183-5.89c-0.031-0.639-0.663-15.792,9.169-26.121c4.768-5.009,11.014-7.98,18.608-8.87l0.374-1.344h0.001
	c0.77,1.477,2.317,2.487,4.099,2.487c1.442,0,2.729-0.66,3.576-1.695l0.185,0.579c3.077,0.459,8.125,1.59,13.339,4.366
	c7.709,4.104,17.074,12.548,17.905,29.47C112.095,268.271,109.46,271.178,106.043,271.345z"/>
<path style="fill:#010101;" d="M76.34,298.927v7.63c-0.297,0.383-0.475,0.861-0.475,1.381c0,1.246,1.01,2.257,2.257,2.257
	c1.247,0,2.257-1.01,2.257-2.257c0-0.604-0.239-1.153-0.626-1.558v-7.532l11.235,5.913v1.582c-0.407,0.409-0.659,0.972-0.659,1.594
	c0,1.246,1.01,2.257,2.257,2.257s2.257-1.01,2.257-2.257c0-0.678-0.301-1.285-0.774-1.699v-2.915l-14.317-7.971h-3.414v0.084
	l-14.166,7.886v2.842c-0.524,0.414-0.861,1.052-0.861,1.772c0,1.246,1.01,2.257,2.257,2.257s2.257-1.01,2.257-2.257
	c0-0.576-0.218-1.1-0.573-1.499v-1.678L76.34,298.927z"/>
<polyline style="fill:#010101;" points="79.754,279.395 79.754,295.353 76.492,295.353 76.492,279.395 "/>
<path style="fill:#010101;" d="M61.205,279.395c-0.911,0-1.647-1.123-1.647-2.509l0,0c0-1.385,0.738-2.509,1.647-2.509h33.334
	c0.911,0,1.647,1.123,1.647,2.509l0,0c0,1.385-0.738,2.509-1.647,2.509H61.205z"/>
<path style="fill:#CD138C;" d="M66.891,268.096l-10.762,19.259l1.196,25.616h-2.077c0,0-1.889,0-1.699,1.951
	c0,0,0.126,1.763,1.951,1.763l14.791-1.07l-3.398-26.749l11.18-19.071"/>
<path style="fill:#CD138C;" d="M91.114,271.875L98.32,287.8l-10.11,23.567l1.944,0.729c0,0,1.768,0.663,0.907,2.423
	c0,0-0.737,1.606-2.445,0.965l-13.474-6.192l12.57-23.855l-11.639-14.369"/>
<path style="fill:#FFFFFF;" d="M50.683,254.822v0.625c-1.092,0-1.982,0.889-1.982,1.982c0,1.092,0.889,1.982,1.982,1.982v0.92h5.676
	v-5.507h-5.676V254.822z M49.233,257.429c0-0.8,0.651-1.45,1.45-1.45v2.902C49.884,258.879,49.233,258.229,49.233,257.429z"/>
<path style="fill:#FFFFFF;" d="M125.286,260.329v2.847h-0.008v47.571h-2.847v-47.571H36.753v47.571h-2.847v-47.571v-2.847H125.286z"
	/>
<rect x="65.109" y="257.826" style="fill:#010101;" width="24.976" height="1.125"/>
<path style="fill:#010101;" d="M64.751,259.293c0,0.393,0.431,0.711,0.962,0.711h23.957c0.532,0,0.962-0.319,0.962-0.711v-0.47
	H64.751V259.293z"/>
<path style="fill:#010101;" d="M89.671,242.84H65.713c-0.532,0-0.962,0.4-0.962,0.892v13.691c0,0.493,0.431,0.892,0.962,0.892
	h23.957c0.532,0,0.962-0.4,0.962-0.892v-13.691C90.634,243.24,90.203,242.84,89.671,242.84z"/>
<g>
	<polygon style="fill:#010101;" points="103.354,260.246 108.887,253.737 115.51,253.737 116.086,254.601 120.897,254.702 
		120.897,256.281 119.129,258.341 120.897,260.26 	"/>
	<polygon style="fill:#010101;" points="116.078,254.601 118.104,253.304 116.971,251.763 119.807,251.763 120.97,253.304 
		119.321,254.601 	"/>
	<line style="fill:none;" x1="118.104" y1="253.304" x2="120.97" y2="253.304"/>
	<polygon style="fill:#010101;" points="114.022,253.737 116.971,251.763 119.807,251.763 119.051,250.952 115.916,250.952 
		111.935,253.737 	"/>
	<polyline style="fill:#010101;" points="105.849,260.276 109.943,255.561 115.496,255.561 115.496,256.137 120.897,256.107 	"/>
	<polyline style="fill:#010101;" points="119.129,258.341 110.855,258.341 109.223,260.276 	"/>
</g>
<circle style="fill:#010101;" cx="43.447" cy="256.756" r="3.573"/>
<ellipse transform="matrix(0.5502 -0.835 0.835 0.5502 -192.2452 147.147)" style="fill:#CD138C;" cx="40.466" cy="252.025" rx="0.717" ry="3.824"/>
<ellipse transform="matrix(0.866 -0.5 0.5 0.866 -119.8623 54.5867)" style="fill:#CD138C;" cx="41.926" cy="250.954" rx="0.717" ry="3.824"/>
<ellipse transform="matrix(0.8026 -0.5965 0.5965 0.8026 -141.0948 77.6404)" style="fill:#CD138C;" cx="46.765" cy="252.01" rx="3.546" ry="0.691"/>
<ellipse transform="matrix(0.456 -0.89 0.89 0.456 -198.6263 176.991)" style="fill:#CD138C;" cx="45.463" cy="250.969" rx="3.727" ry="0.658"/>
<circle style="fill:#FFFFFF;" cx="175.553" cy="140.069" r="2.476"/>
<linearGradient id="SVGID_8_" gradientUnits="userSpaceOnUse" x1="816.1948" y1="173.7387" x2="838.2358" y2="195.2549" gradientTransform="matrix(-1 0 0 -1 1010.9464 333.9997)">
	<stop  offset="0" style="stop-color:#59449B"/>
	<stop  offset="1" style="stop-color:#6DCFF6"/>
</linearGradient>
<path style="fill:url(#SVGID_8_);" d="M174.968,139.75c-0.205,0.634-0.769,3.893-3.199,3.274c-0.128-0.3,1.333-0.763,1.096-2.191
	c-0.161-0.961,0.21-2.052,0.831-2.381c-0.907-0.001-1.641-0.737-1.641-1.643c0-0.908,0.735-1.643,1.643-1.643
	s1.643,0.735,1.643,1.643c0,0.305-0.088,0.586-0.233,0.83c0.147-0.027,0.296-0.045,0.45-0.045c1.119,0,2.055,0.746,2.365,1.765
	C177.033,139.635,176.309,139.865,174.968,139.75z"/>
<linearGradient id="SVGID_9_" gradientUnits="userSpaceOnUse" x1="815.5888" y1="174.3595" x2="837.6298" y2="195.8757" gradientTransform="matrix(-1 0 0 -1 1010.9464 333.9997)">
	<stop  offset="0" style="stop-color:#59449B"/>
	<stop  offset="1" style="stop-color:#6DCFF6"/>
</linearGradient>
<path style="fill:url(#SVGID_9_);" d="M193.14,159.41c-0.162,0.96-1.079,1.614-2.04,1.453l-3.082-0.519
	c-0.96-0.162-1.614-1.079-1.453-2.04l1.327-7.886c0.162-0.96,1.079-1.614,2.04-1.453l3.082,0.519c0.96,0.162,1.614,1.079,1.453,2.04
	L193.14,159.41z"/>
<path style="fill:#6DCFF6;" d="M165.739,182.046l0.577-11.731h17.982l14.051,30.838l3.653-1.769
	c1.799-0.748,2.628,0.706,2.628,0.706c1.123,1.881-0.577,3.013-0.577,3.013l-12.844,6.125l-15.469-34.875l-0.961,13.368
	l-15.866,9.905l2.383,4.649c0.921,1.905-0.73,2.953-0.73,2.953c-2.108,1.149-3.366-0.508-3.366-0.508l-7.518-13.151L165.739,182.046
	z"/>
<path style="fill:#FFFFFF;" d="M193.652,153.75c0-1.66-1.346-3.007-3.007-3.007c-0.029,0-0.054,0.008-0.082,0.008
	c-0.824-0.045-1.506,0.219-1.506,0.219l-12.789,3.894l-0.673-2.212l-5.432,2.068l0.913,4.327c0.865,3.798,4.519,2.5,4.519,2.5
	l15.551-4.842C192.567,156.467,193.652,155.239,193.652,153.75z"/>
<circle style="fill:#FFFFFF;" cx="299.434" cy="128.315" r="2.44"/>
<linearGradient id="SVGID_10_" gradientUnits="userSpaceOnUse" x1="297.7919" y1="149.3943" x2="297.8066" y2="203.9662" gradientTransform="matrix(1 0.0079 0.0079 -1 -0.1975 326.8581)">
	<stop  offset="0" style="stop-color:#59449B"/>
	<stop  offset="1" style="stop-color:#6DCFF6"/>
</linearGradient>
<path style="fill:url(#SVGID_10_);" d="M285.737,142.496l3.06-0.349c0.953-0.109,1.822,0.582,1.931,1.536l0.894,7.829
	c0.109,0.953-0.582,1.822-1.536,1.931l-3.06,0.349c-0.953,0.109-1.822-0.582-1.931-1.536l-0.894-7.829
	C284.092,143.474,284.784,142.605,285.737,142.496z M301.254,173.947l14.692,13.002l-3.033,1.328
	c-2.314,0.936-0.978,3.014-0.978,3.014c1.259,1.76,3.872,0.438,3.872,0.438l11.435-4.852l-18.21-17.542l-0.477-11.564l-17.718-0.14
	l-14.086,30.278l-3.585-1.772c-1.767-0.751-2.595,0.674-2.595,0.674c-1.122,1.846,0.545,2.973,0.545,2.973l12.609,6.135
	l15.515-34.245 M299.922,124.684c-0.003,0.3,0.083,0.578,0.223,0.821c-0.144-0.027-0.291-0.047-0.442-0.048
	c-1.104-0.009-2.031,0.72-2.344,1.721c0.876,0.279,1.588,0.512,2.909,0.409c0.197,0.626-1.258,3.19,1.598,5.519
	c0.128-0.294,3.951-2.358,1.889-3.843c-1.898-1.367-1.573-2.16-0.733-2.376C303.497,126.675,299.93,123.791,299.922,124.684z"/>
<path style="fill:#FFFFFF;" d="M285.285,149.86c-0.808-1.423-0.309-3.231,1.114-4.039c0.025-0.014,0.049-0.019,0.074-0.032
	c0.684-0.44,1.398-0.545,1.398-0.545l12.854-2.882l-0.499-2.223l5.662-0.87l1.322,4.153c1.105,3.676-2.658,4.341-2.658,4.341
	l-15.683,3.414C287.536,151.66,286.009,151.136,285.285,149.86z"/>
<g>
	
		<linearGradient id="SVGID_11_" gradientUnits="userSpaceOnUse" x1="226.0282" y1="203.7236" x2="226.0282" y2="142.1713" gradientTransform="matrix(1 0 0 -1 0 333.9997)">
		<stop  offset="0" style="stop-color:#CD138C"/>
		<stop  offset="0.5729" style="stop-color:#F8A79A"/>
	</linearGradient>
	<path style="fill:url(#SVGID_11_);" d="M239.687,148.054l-0.296-8.471c-0.027-0.795-0.694-1.416-1.489-1.388l-3.939,0.137
		c-0.795,0.027-1.416,0.694-1.388,1.489l0.296,8.471c0.027,0.795,0.694,1.416,1.489,1.388l3.939-0.137
		C239.093,149.515,239.715,148.848,239.687,148.054z M221.382,159.065v27.279h2.55c1.218,0,2.205,0.987,2.205,2.205l0,0
		c0,1.218-0.987,2.205-2.205,2.205h-11.564v-31.691h9.013V159.065z M231.363,159.065v21.694h2.55c1.218,0,2.205,0.987,2.205,2.205
		l0,0c0,1.218-0.987,2.205-2.205,2.205h-11.564v-26.105h9.013V159.065z"/>
	<path style="fill:#010101;" d="M232.302,155.582L232.302,155.582c-1.342,0.647-2.956,0.084-3.603-1.258l-6.445-13.356l4.862-2.346
		l6.445,13.356C234.207,153.32,233.644,154.934,232.302,155.582z"/>
	<path style="fill:#FFFFFF;" d="M212.368,159.065c0-12.788,3.799-20.421,6.53-24.258c1.397-1.963,4.315-2.009,5.789-0.102
		c2.76,3.573,6.427,10.833,6.67,24.361H212.368z"/>
	<circle style="fill:#010101;" cx="221.852" cy="132.1" r="2.497"/>
	<path style="fill:#010101;" d="M221.881,150.646l13.313-3.122c1.773-0.416,2.842-2.226,2.35-3.979l0,0
		c-0.467-1.667-2.177-2.66-3.856-2.241l-11.028,2.75l-0.62-2.28l-5.221,2.088l0.9,4.341
		C218.11,150.087,220.044,151.222,221.881,150.646z"/>
	
		<linearGradient id="SVGID_12_" gradientUnits="userSpaceOnUse" x1="221.8245" y1="205.1166" x2="221.8245" y2="144.5098" gradientTransform="matrix(1 0 0 -1 0 333.9997)">
		<stop  offset="0" style="stop-color:#CD138C"/>
		<stop  offset="0.9984" style="stop-color:#F8A79A"/>
	</linearGradient>
	<path style="fill:url(#SVGID_12_);" d="M224.295,131.589c-0.236-1.134-1.24-1.985-2.444-1.985c-1.379,0-2.497,1.118-2.497,2.497
		c0,0.335,0.069,0.652,0.188,0.943c0.451-0.359,0.78-0.868,0.899-1.455H224.295z"/>
</g>
<g>
	<polygon style="fill:#F8A79A;" points="268.034,4.333 267.963,33.679 256.216,40.46 252.229,50.319 247.794,45.323 234.118,53.218 
		234.197,23.869 	"/>
	<g>
		<g>
			<path style="fill:#FFFFFF;" d="M257.707,22.245c0-2.619-1.593-3.824-3.557-2.689c-1.472,0.85-2.736,2.773-3.276,4.786
				c-0.541-1.389-1.804-1.852-3.276-1.003c-1.965,1.134-3.557,4.177-3.557,6.797c0,1.232,0.362,2.135,0.939,2.645l-0.012,0.013
				l5.906,5.121l5.768-11.676C257.298,24.999,257.707,23.568,257.707,22.245z"/>
		</g>
	</g>
	
		<linearGradient id="SVGID_13_" gradientUnits="userSpaceOnUse" x1="275.5338" y1="335.2074" x2="222.2292" y2="281.9028" gradientTransform="matrix(1 0 0 -1 0 333.9997)">
		<stop  offset="0" style="stop-color:#CD138C"/>
		<stop  offset="0.9984" style="stop-color:#F8A79A"/>
	</linearGradient>
	<path style="fill:url(#SVGID_13_);" d="M234.197,23.869l-0.078,29.349l-5.603-3.234c-1.767-1.02-2.854-2.908-2.848-4.948
		l0.058-21.143c0.008-3.039,1.63-5.845,4.261-7.369l26.673-15.45c1.76-1.02,3.929-1.023,5.693-0.009l5.684,3.267L234.197,23.869z
		 M247.794,45.323l-2.321,1.317l6.755,3.68L247.794,45.323z"/>
</g>
<path style="fill:#010101;" d="M149.692,278.949l89.257,51.532c2.464,1.423,5.501,1.423,7.964,0l89.276-51.544
	c2.95-1.703,2.95-5.961,0-7.665l-89.257-51.532c-2.464-1.423-5.501-1.423-7.964,0l-89.276,51.544
	C146.743,272.988,146.743,277.246,149.692,278.949z"/>
<g>
	
		<linearGradient id="SVGID_14_" gradientUnits="userSpaceOnUse" x1="216.3513" y1="-26.244" x2="267.5036" y2="-26.244" gradientTransform="matrix(1 0 0 -1 0 333.9997)">
		<stop  offset="0" style="stop-color:#CD138C"/>
		<stop  offset="1" style="stop-color:#F8A79A"/>
	</linearGradient>
	<path style="fill:url(#SVGID_14_);" d="M267.504,324.088c-0.726-1.451-24.545-12.282-24.545-12.282v0.048
		c-0.516-0.448-1.179-0.728-1.911-0.728l-21.445,10.451c-2.276,0.844-2.937,2.272-2.937,3.887l-0.265,61.118
		c0,1.615-0.712,4.983,3.2,7.969l24.562,14.81c1.992-0.785-0.595-3.208-0.595-4.823l0.316-69.109L267.504,324.088z"/>
	<path style="fill:#FFFFFF;" d="M265.382,400.703l-19.765,9.218c-1.598,0-2.906-1.307-2.906-2.905v-69.677
		c0-1.598,0.654-3.011,2.906-3.846l19.765-10.34c1.051-0.519,2.905,1.307,2.905,2.906v70.798
		C268.286,398.454,267.352,399.928,265.382,400.703z"/>
	<polygon style="fill:#010101;" points="250.399,395.721 250.399,408.18 262.857,401.95 262.857,389.592 	"/>
	<polygon style="fill:#010101;" points="253.666,388.368 250.399,389.592 250.399,377.337 253.666,376.113 	"/>
	<polygon style="fill:#010101;" points="263.047,383.474 259.779,384.7 259.779,372.445 263.047,371.219 	"/>
	<polygon style="fill:#010101;" points="253.572,369.993 250.304,371.219 250.304,358.964 253.572,357.738 	"/>
	<polygon style="fill:#010101;" points="262.952,365.101 259.685,366.325 259.685,354.07 262.952,352.846 	"/>
	<polygon style="fill:#010101;" points="253.572,350.777 250.304,352.003 250.304,339.748 253.572,338.522 	"/>
	<polygon style="fill:#010101;" points="262.952,345.883 259.685,347.109 259.685,334.854 262.952,333.628 	"/>
</g>
<linearGradient id="SVGID_15_" gradientUnits="userSpaceOnUse" x1="1468.5588" y1="85.8462" x2="1471.8582" y2="85.8462" gradientTransform="matrix(-1 0 0 -1 1711.639 333.9997)">
	<stop  offset="8.011200e-04" style="stop-color:#59449B"/>
	<stop  offset="1" style="stop-color:#6DCFF6"/>
</linearGradient>
<path style="fill:none;stroke:url(#SVGID_15_);stroke-width:0.2027;stroke-miterlimit:10;" d="M242.982,253.347
	c-0.904-3.515-1.94-6.977-3.105-10.379"/>
<g>
	<g>
		<polygon style="fill:#FFFFFF;" points="249.861,210.663 249.915,232.938 258.83,238.087 261.857,245.57 265.223,241.777 
			275.605,247.771 275.546,225.493 		"/>
		
			<linearGradient id="SVGID_16_" gradientUnits="userSpaceOnUse" x1="1911.7697" y1="127.5432" x2="1871.3074" y2="87.0809" gradientTransform="matrix(-1 0 0 -1 2155.9373 333.9997)">
			<stop  offset="0" style="stop-color:#CD138C"/>
			<stop  offset="0.9984" style="stop-color:#F8A79A"/>
		</linearGradient>
		<path style="fill:url(#SVGID_16_);" d="M275.546,225.493l0.06,22.279l4.253-2.455c1.341-0.774,2.166-2.206,2.162-3.756
			l-0.044-16.049c-0.007-2.308-1.237-4.437-3.234-5.593l-20.248-11.727c-1.336-0.773-2.982-0.777-4.321-0.008l-4.314,2.48
			L275.546,225.493z M261.857,245.57l3.367-3.791l1.759,1.021L261.857,245.57z"/>
	</g>
	
		<ellipse transform="matrix(0.6753 -0.7375 0.7375 0.6753 -80.3067 266.5798)" style="fill:#CD138C;" cx="262.621" cy="224.5" rx="3.091" ry="3.686"/>
	<path style="fill:#CD138C;" d="M257.148,233.717l8.045,3.4c1.096,0.463,2.218-0.003,2.494-1.035l0.025-0.09
		c0.49-1.833-0.961-5.1-4.772-6.974l-0.327-0.137c-2.867-1.165-6.279-0.416-6.956,2.118
		C255.381,232.03,256.052,233.254,257.148,233.717z"/>
</g>
<g>
	<polygon style="fill:#6DCFF6;" points="198.78,226.812 198.723,250.462 189.256,255.928 186.042,263.873 182.467,259.847 
		171.446,266.21 171.51,242.556 	"/>
	
		<ellipse transform="matrix(0.3916 -0.9201 0.9201 0.3916 -120.4452 317.7488)" style="fill:#FFFFFF;" cx="180.05" cy="249.952" rx="2.567" ry="1.452"/>
	
		<ellipse transform="matrix(0.3916 -0.9201 0.9201 0.3916 -113.4573 321.2097)" style="fill:#FFFFFF;" cx="186.161" cy="246.398" rx="2.567" ry="1.452"/>
	
		<ellipse transform="matrix(0.3916 -0.9201 0.9201 0.3916 -106.4932 324.6874)" style="fill:#FFFFFF;" cx="192.273" cy="242.871" rx="2.567" ry="1.452"/>
	
		<linearGradient id="SVGID_17_" gradientUnits="userSpaceOnUse" x1="164.6337" y1="89.1102" x2="198.7797" y2="89.1102" gradientTransform="matrix(1 0 0 -1 0 333.9997)">
		<stop  offset="8.011200e-04" style="stop-color:#59449B"/>
		<stop  offset="1" style="stop-color:#6DCFF6"/>
	</linearGradient>
	<path style="fill:url(#SVGID_17_);" d="M198.78,226.812l-4.581-2.633c-1.42-0.817-3.17-0.813-4.588,0.008l-21.497,12.452
		c-2.119,1.228-3.427,3.489-3.433,5.938l-0.047,17.04c-0.004,1.645,0.872,3.166,2.296,3.987l4.516,2.606l0.064-23.654
		L198.78,226.812z M180.61,260.94l1.859-1.093l3.575,4.026L180.61,260.94z"/>
</g>
<g>
	<g>
		<polygon style="fill:#F8A79A;" points="315.28,268.104 315.221,291.793 305.739,297.268 302.521,305.225 298.941,301.193 
			287.9,307.567 287.964,283.874 		"/>
		
			<linearGradient id="SVGID_18_" gradientUnits="userSpaceOnUse" x1="1215.9136" y1="70.3686" x2="1172.8838" y2="27.3391" gradientTransform="matrix(1 0 0 -1 -894.5803 333.9997)">
			<stop  offset="0" style="stop-color:#CD138C"/>
			<stop  offset="1" style="stop-color:#F8A79A"/>
		</linearGradient>
		<path style="fill:url(#SVGID_18_);" d="M315.28,268.104l-4.588-2.637c-1.423-0.818-3.174-0.815-4.596,0.008l-21.532,12.472
			c-2.123,1.23-3.432,3.494-3.44,5.948l-0.047,17.067c-0.004,1.647,0.873,3.171,2.3,3.994l4.523,2.611l0.064-23.691L315.28,268.104z
			 M297.071,302.279l1.87-1.086l3.58,4.033L297.071,302.279z"/>
	</g>
	<path style="fill:#FFFFFF;" d="M290.815,292.305c-0.004,2.352-0.006,5.805,0.001,8.15c0.001,0.603,0.318,0.838,0.856,0.781
		c0.104-0.01,0.214-0.04,0.32-0.06c0.087-0.051,0.174-0.1,0.261-0.15c0.137-0.169,0.287-0.329,0.412-0.506
		c0.882-1.239,1.759-2.48,2.638-3.72c0.042-0.058,0.088-0.113,0.153-0.193c0.008,0.079,0.014,0.131,0.018,0.184
		c0.1,1.055,0.817,1.502,1.889,1.175c0.152-0.047,0.307-0.105,0.46-0.157c3.265-1.885,6.53-3.769,9.794-5.655
		c0.054-0.047,0.108-0.096,0.163-0.139c0.457-0.345,0.878-0.754,1.24-1.259c0.671-0.939,0.936-1.832,0.942-2.677
		c0.009-1.397-0.01-2.778,0.008-4.182c0.013-0.969-0.253-1.64-1.038-1.793c1.73-2.877,1.08-5.089-0.47-5.327
		c-0.809-0.125-1.721,0.17-2.708,0.838c-1.339,0.907-2.254,2.196-2.896,3.737c-0.03-0.069-0.049-0.112-0.067-0.153
		c-0.528-1.252-1.593-1.616-3.179-1.119c-0.174,0.055-0.352,0.13-0.528,0.196c-0.291,0.167-0.58,0.335-0.87,0.503
		c-0.048,0.042-0.096,0.087-0.145,0.123c-1.737,1.274-2.959,2.928-3.526,4.912c-0.566,1.978-0.204,3.275,0.996,3.868
		c0.167,0.083,0.362,0.123,0.518,0.174c-0.202,0.527-0.398,1.038-0.599,1.566c-0.042-0.003-0.108-0.007-0.173-0.012
		c-0.881-0.078-1.763-1.256-2.64-1.341c-0.244-0.023-0.498,0.057-0.782,0.293C291.265,290.861,290.816,291.68,290.815,292.305z
		 M304.144,282.279c-0.01-1.105,0.926-2.582,2.049-3.235c1.135-0.659,2.061-0.279,2.06,0.843c-0.001,1.152-0.888,2.566-2.027,3.231
		C305.087,283.786,304.154,283.408,304.144,282.279z M295.998,286.39c0.004-1.438,1.197-3.323,2.634-4.161
		c1.445-0.843,2.645-0.335,2.643,1.117c-0.001,1.472-1.18,3.321-2.662,4.175C297.173,288.352,295.993,287.841,295.998,286.39z"/>
</g>
<g>
	<polygon style="fill:#FFFFFF;" points="192.232,281.413 192.286,303.522 201.135,308.632 204.139,316.059 207.482,312.296 
		217.785,318.244 217.726,296.132 	"/>
	<g>
		<g>
			<polygon style="fill:#6DCFF6;" points="213.59,300.92 194.471,289.881 194.467,288.725 213.587,299.765 			"/>
		</g>
		<g>
			<polygon style="fill:#6DCFF6;" points="213.59,304.621 194.471,293.583 194.467,292.426 213.587,303.465 			"/>
		</g>
		<g>
			<polygon style="fill:#6DCFF6;" points="213.59,308.283 194.471,297.243 194.467,296.087 213.587,307.127 			"/>
		</g>
		<g>
			<polygon style="fill:#6DCFF6;" points="204.028,306.441 194.471,300.928 194.467,299.771 204.025,305.285 			"/>
		</g>
	</g>
	
		<linearGradient id="SVGID_19_" gradientUnits="userSpaceOnUse" x1="193.0508" y1="50.293" x2="224.243" y2="19.1008" gradientTransform="matrix(1 0 0 -1 0 333.9997)">
		<stop  offset="8.011200e-04" style="stop-color:#59449B"/>
		<stop  offset="1" style="stop-color:#6DCFF6"/>
	</linearGradient>
	<path style="fill:url(#SVGID_19_);" d="M192.232,281.413l4.282-2.462c1.328-0.764,2.963-0.761,4.288,0.007l20.096,11.64
		c1.982,1.148,3.204,3.262,3.21,5.552l0.044,15.93c0.004,1.537-0.815,2.96-2.145,3.728l-4.222,2.437l-0.06-22.113L192.232,281.413z
		 M209.403,313.428l-1.921-1.134l-3.341,3.764L209.403,313.428z"/>
</g>
<g>
	
		<linearGradient id="SVGID_20_" gradientUnits="userSpaceOnUse" x1="305.6355" y1="307.7696" x2="345.927" y2="307.7696" gradientTransform="matrix(0.9997 -0.0231 -0.0231 -0.9997 5.5771 345.5501)">
		<stop  offset="8.011200e-04" style="stop-color:#59449B"/>
		<stop  offset="1" style="stop-color:#6DCFF6"/>
	</linearGradient>
	<path style="fill:url(#SVGID_20_);" d="M307.858,16.536l26.261-16.005c1.079-0.656,2.069-0.682,2.804-0.202l0.012-0.004
		l6.772,4.275c0,0-1.76,2.697-2.982,5.85l0.555,24.007c0.07,3.046-1.667,6.626-3.92,7.998l-21.335,12.999
		c-1.942,3.446-4.334,5.26-4.334,5.26l-5.041-3.217c-1.676-1.243-2.043-2.925-2.113-3.912l-0.672-29.048
		C303.798,21.49,305.603,17.907,307.858,16.536z"/>
	<path style="fill:#6DCFF6;" d="M311.666,60.757l30.378-15.735c2.254-1.372,4.024-4.952,3.954-7.999l-0.672-29.048
		c-0.07-3.046-1.955-4.402-4.209-3.031L314.818,20.95c-2.254,1.372-4.024,4.952-3.954,7.999l0.642,27.745l0.03,1.304
		c0.005-0.03,0.069,2.688,0.069,2.688C311.576,60.701,311.666,60.757,311.666,60.757z"/>
	<path style="fill:#FFFFFF;" d="M315.569,40.697l0.021,0.873c0.039,1.695,1.253,2.35,2.711,1.463l0,0
		c1.288-0.783,1.974,0.634,1.088,2.248l0,0c-1.003,1.826-0.959,3.771,0.101,4.341l0.545,0.294c1.058,0.572,2.73-0.446,3.733-2.273
		c0.886-1.614,2.461-1.811,2.496-0.313c0.039,1.695,1.253,2.35,2.711,1.463l0.751-0.457c1.458-0.887,2.608-2.981,2.568-4.677l0,0
		c-0.035-1.498,1.505-3.196,2.44-2.691l0,0c1.058,0.572,2.73-0.446,3.733-2.273l0.516-0.94c1.003-1.826,0.959-3.771-0.1-4.341l0,0
		c-0.935-0.505-0.332-2.708,0.956-3.492c1.458-0.887,2.608-2.981,2.568-4.676l-0.021-0.873c-0.039-1.695-1.253-2.35-2.711-1.463l0,0
		c-1.288,0.783-1.974-0.634-1.088-2.248l0,0c1.003-1.826,0.959-3.771-0.1-4.341l-0.545-0.294c-1.058-0.572-2.73,0.446-3.733,2.273
		l0,0c-0.886,1.614-2.461,1.811-2.496,0.313l0,0c-0.039-1.695-1.253-2.35-2.711-1.463l-0.75,0.457
		c-1.458,0.887-2.608,2.981-2.568,4.676l0,0c0.035,1.498-1.505,3.196-2.44,2.69l0,0c-1.058-0.572-2.73,0.446-3.733,2.273
		l-0.516,0.94c-1.003,1.826-0.959,3.771,0.101,4.341l0,0c0.935,0.505,0.332,2.708-0.956,3.492l0,0
		C316.68,36.909,315.53,39.002,315.569,40.697z M322.437,36.96c-0.097-4.208,2.756-9.404,6.375-11.606
		c3.618-2.202,6.631-0.576,6.728,3.632s-2.756,9.404-6.375,11.606C325.546,42.795,322.534,41.168,322.437,36.96z"/>
</g>
<path style="fill:#6DCFF6;" d="M154.925,347.736c0.189,0.659,0.878,1.04,1.537,0.85s1.04-0.878,0.85-1.537l-0.774-2.69l7.846,4.339
	c0.601,0.332,1.357,0.114,1.689-0.486c0.166-0.3,0.195-0.639,0.106-0.944c-0.088-0.306-0.292-0.577-0.593-0.743l-7.798-4.312
	l2.615-0.752c0.659-0.189,1.04-0.878,0.85-1.537c-0.189-0.659-0.878-1.04-1.537-0.85l-6.729,1.937L154.925,347.736z"/>
<path style="fill:#6DCFF6;" d="M353.533,340.453c0.665,0.169,1.341-0.233,1.51-0.899c0.169-0.665-0.233-1.341-0.899-1.51
	l-2.714-0.689l7.705-4.584c0.59-0.352,0.783-1.113,0.432-1.703c-0.175-0.294-0.454-0.49-0.761-0.569
	c-0.309-0.078-0.646-0.039-0.94,0.136l-7.658,4.555l0.671-2.638c0.169-0.665-0.233-1.341-0.899-1.51
	c-0.665-0.169-1.341,0.233-1.51,0.899l-1.724,6.786L353.533,340.453z"/>
<path style="fill:#59449B;" d="M165.296,213.762c-0.665-0.169-1.341,0.233-1.51,0.899c-0.169,0.665,0.233,1.341,0.899,1.51
	l2.714,0.689l-7.705,4.584c-0.59,0.352-0.783,1.113-0.432,1.703c0.175,0.294,0.454,0.49,0.761,0.569
	c0.309,0.078,0.646,0.039,0.94-0.136l7.658-4.555l-0.669,2.638c-0.169,0.665,0.233,1.341,0.899,1.51
	c0.665,0.169,1.341-0.233,1.51-0.899l1.724-6.786L165.296,213.762z"/>
<path style="fill:#59449B;" d="M341.915,220.847c-0.172-0.664-0.85-1.064-1.514-0.891c-0.664,0.173-1.064,0.85-0.891,1.514
	l0.703,2.71l-7.727-4.546c-0.591-0.348-1.353-0.15-1.701,0.441c-0.174,0.296-0.211,0.634-0.132,0.942
	c0.08,0.307,0.278,0.585,0.572,0.759l7.68,4.518l-2.634,0.682c-0.664,0.173-1.064,0.85-0.891,1.514
	c0.173,0.664,0.85,1.064,1.514,0.891l6.779-1.756L341.915,220.847z"/>
<g>
	
		<linearGradient id="SVGID_21_" gradientUnits="userSpaceOnUse" x1="139.705" y1="312.0838" x2="179.9937" y2="312.0838" gradientTransform="matrix(1 -0.0079 -0.0079 -1 8.7345 344.3938)">
		<stop  offset="8.011200e-04" style="stop-color:#59449B"/>
		<stop  offset="1" style="stop-color:#6DCFF6"/>
	</linearGradient>
	<path style="fill:url(#SVGID_21_);" d="M150.035,16.99l26.502-15.603c1.088-0.639,2.079-0.651,2.807-0.16l0.012-0.004l6.707,4.378
		c0,0-1.802,2.669-3.07,5.803l0.191,24.012c0.025,3.047-1.767,6.6-4.042,7.937l-21.53,12.674c-1.994,3.417-4.413,5.192-4.413,5.192
		l-4.991-3.293c-1.658-1.267-1.999-2.956-2.053-3.944l-0.23-29.055C145.9,21.882,147.761,18.328,150.035,16.99z"/>
	<path style="fill:#6DCFF6;" d="M153.17,61.265l30.614-15.271c2.274-1.337,4.099-4.891,4.074-7.937l-0.23-29.055
		c-0.025-3.047-1.887-4.432-4.162-3.095l-26.539,15.604c-2.275,1.337-4.099,4.891-4.074,7.937l0.219,27.751l0.01,1.304
		c0.005-0.03,0.027,2.689,0.027,2.689C153.082,61.207,153.17,61.265,153.17,61.265z"/>
	
		<polyline style="fill:none;stroke:#FFFFFF;stroke-width:1.6464;stroke-linecap:round;stroke-linejoin:round;stroke-miterlimit:10;" points="
		176.183,16.775 182.591,13.216 182.591,20.334 	"/>
	
		<polyline style="fill:none;stroke:#FFFFFF;stroke-width:1.6464;stroke-linecap:round;stroke-linejoin:round;stroke-miterlimit:10;" points="
		155.54,45.249 166.93,27.453 170.489,35.283 181.879,14.639 	"/>
	<path style="fill:#FFFFFF;" d="M167.997,50.934v-9.956c0-1.566-1.282-2.847-2.847-2.847s-2.847,1.282-2.847,2.847v12.741
		L167.997,50.934z"/>
	<path style="fill:#FFFFFF;" d="M175.828,46.664V41.69c0-1.566-1.282-2.847-2.847-2.847s-2.847,1.282-2.847,2.847v7.759
		L175.828,46.664z"/>
	<path style="fill:#FFFFFF;" d="M182.946,43.105v-9.956c0-1.566-1.282-2.847-2.847-2.847c-1.566,0-2.847,1.282-2.847,2.847V45.89
		L182.946,43.105z"/>
</g>
<linearGradient id="SVGID_22_" gradientUnits="userSpaceOnUse" x1="118.4919" y1="203.6505" x2="154.6359" y2="203.6505" gradientTransform="matrix(1 0 0 -1 0 333.9997)">
	<stop  offset="8.011200e-04" style="stop-color:#59449B"/>
	<stop  offset="1" style="stop-color:#6DCFF6"/>
</linearGradient>
<path style="fill:none;stroke:url(#SVGID_22_);stroke-width:0.5488;stroke-miterlimit:10;" d="M154.472,58.418
	c0,0-60.86,45.23-23.668,143.985"/>
</svg>
