<?xml version="1.0" encoding="utf-8"?>
<!-- Generator: Adobe Illustrator 24.0.3, SVG Export Plug-In . SVG Version: 6.00 Build 0)  -->
<svg version="1.1" id="Layer_1" xmlns="http://www.w3.org/2000/svg" xmlns:xlink="http://www.w3.org/1999/xlink" x="0px" y="0px"
	 viewBox="0 0 16 16" style="enable-background:new 0 0 16 16;" xml:space="preserve">
<style type="text/css">
	.st0{fill:#760BFC;}
</style>
<path class="st0" d="M13.9,2.8L14,2.2h-1.1l0.3-1.8c0-0.1,0-0.2-0.1-0.3C13.1,0,12.9,0,12.8,0h-0.6l-0.4,2.2h-1.1L11.1,0h-0.6
	c-0.1,0-0.3,0-0.4,0.1C10,0.2,9.9,0.3,9.9,0.5L9.5,2.2H8.9c-0.2,0-0.3,0-0.4,0.1C8.4,2.4,8.4,2.5,8.3,2.6L8.2,3.2h1.2L9.1,4.7h-1
	L8,5.1c0,0.2,0,0.3,0,0.4c0.1,0.1,0.2,0.1,0.3,0.1H9L8.6,7.9h0.6c0.1,0,0.3,0,0.4-0.1c0.1-0.1,0.2-0.2,0.2-0.4l0.3-1.7h1.1l-0.3,1.7
	c0,0.1,0,0.1,0,0.2s0,0.1,0.1,0.2c0,0.1,0.1,0.1,0.1,0.1c0.1,0,0.1,0,0.2,0h0.6l0.4-2.2h1.2l0.1-0.4c0-0.2,0-0.3,0-0.4
	s-0.2-0.1-0.3-0.1h-0.8l0.3-1.5h0.5c0.2,0,0.3,0,0.4-0.1S13.9,2.9,13.9,2.8z M10.5,3.2h1.1l-0.3,1.5h-1.1L10.5,3.2z"/>
<path class="st0" d="M3.6,2c0.3,0,0.5,0.2,0.6,0.3c0.3,0.4,1.4,2,1.4,2.7S5.3,6.1,4.7,6.5c0,0,0.2,1.2,1.9,2.9
	c1.5,1.6,2.9,1.9,2.9,1.9s0.3-0.8,1.1-0.9c0.1,0,0.2,0,0.3,0c0.7,0,1.4,0.4,2.8,1.5c0.5,0.4-0.1,2.2-1.6,2.5c-0.1,0-0.2,0-0.3,0
	c-1.6,0-4.3-1.5-6.3-3.6c-1.8-1.9-3.3-4-3.7-6.2C1.3,2.5,3.1,2.1,3.4,2C3.5,2,3.5,2,3.6,2 M3.6,1C3.4,1,3.3,1,3.2,1
	C1.3,1.5,0.4,2.9,0.8,4.8c0.4,2.1,1.7,4.3,3.9,6.7c2.1,2.2,5.1,3.9,7,3.9c0.2,0,0.3,0,0.4,0c1.4-0.2,2.3-1.3,2.6-2.4
	c0.2-0.8,0-1.5-0.5-1.9c-1.5-1.2-2.4-1.7-3.4-1.7c-0.2,0-0.3,0-0.5,0c-0.6,0.1-1,0.4-1.3,0.7C8.7,9.9,8,9.5,7.3,8.7
	C6.5,7.9,6.1,7.3,5.9,6.8c0.4-0.4,0.8-1,0.7-1.9C6.6,4,5.7,2.7,5,1.7C4.7,1.3,4.2,1,3.6,1L3.6,1z"/>
</svg>
