<?xml version="1.0" encoding="UTF-8"?>
<svg xmlns="http://www.w3.org/2000/svg" xmlns:xlink="http://www.w3.org/1999/xlink" width="1240pt" height="1240pt" viewBox="0 0 1240 1240" version="1.1">
<defs>
<linearGradient id="linear0" gradientUnits="userSpaceOnUse" x1="0.0017934" y1="45.8483" x2="99.5061" y2="45.8483" gradientTransform="matrix(12.4,0,0,12.4,0,0)">
<stop offset="0" style="stop-color:rgb(53.333333%,12.156863%,100%);stop-opacity:1;"/>
<stop offset="0.2415" style="stop-color:rgb(63.137255%,23.137255%,90.588235%);stop-opacity:1;"/>
<stop offset="0.7609" style="stop-color:rgb(87.843137%,51.764706%,66.666667%);stop-opacity:1;"/>
<stop offset="1" style="stop-color:rgb(100%,65.490196%,54.901961%);stop-opacity:1;"/>
</linearGradient>
</defs>
<g id="surface1">
<path style=" stroke:none;fill-rule:nonzero;fill:url(#linear0);" d="M 779.835938 74.027344 L 729.863281 124 C 736.683594 119.410156 744.867188 116.683594 753.671875 116.683594 L 786.78125 116.683594 C 810.214844 116.683594 829.3125 135.78125 829.3125 159.214844 L 829.3125 861.304688 C 829.3125 870.109375 826.585938 878.292969 821.996094 885.113281 L 871.96875 835.140625 C 879.53125 827.574219 884.242188 817.160156 884.242188 805.628906 L 884.242188 109.863281 C 884.242188 83.328125 862.792969 61.875 836.257812 61.875 L 809.472656 61.875 C 797.941406 61.875 787.398438 66.464844 779.835938 74.027344 Z M 232.871094 185.257812 L 182.898438 235.226562 C 189.71875 230.640625 197.902344 227.910156 206.707031 227.910156 L 239.816406 227.910156 C 263.253906 227.910156 282.347656 247.007812 282.347656 270.445312 L 282.347656 972.53125 C 282.347656 981.335938 279.621094 989.519531 275.03125 996.339844 L 325.003906 946.367188 C 332.566406 938.804688 337.28125 928.386719 337.28125 916.855469 L 337.28125 220.96875 C 337.28125 194.433594 315.828125 172.980469 289.292969 172.980469 L 262.507812 172.980469 C 250.976562 172.980469 240.4375 177.691406 232.871094 185.257812 Z M 591.230469 277.511719 L 562.09375 306.652344 C 568.910156 302.0625 577.097656 299.335938 585.898438 299.335938 L 619.007812 299.335938 C 642.445312 299.335938 661.539062 318.433594 661.539062 341.867188 L 661.539062 1051.519531 C 661.539062 1060.324219 658.8125 1068.507812 654.222656 1075.328125 L 683.363281 1046.1875 C 690.929688 1038.625 695.640625 1028.207031 695.640625 1016.675781 L 695.640625 313.222656 C 695.640625 286.6875 674.1875 265.234375 647.652344 265.234375 L 620.867188 265.234375 C 609.210938 265.234375 598.796875 269.949219 591.230469 277.511719 Z M 968.5625 277.511719 L 939.425781 306.652344 C 946.242188 302.0625 954.429688 299.335938 963.230469 299.335938 L 996.339844 299.335938 C 1019.777344 299.335938 1038.871094 318.433594 1038.871094 341.867188 L 1038.871094 966.578125 C 1038.871094 975.382812 1036.144531 983.566406 1031.554688 990.386719 L 1060.695312 961.246094 C 1068.261719 953.683594 1072.972656 943.269531 1072.972656 931.734375 L 1072.972656 313.222656 C 1072.972656 286.6875 1051.519531 265.234375 1024.984375 265.234375 L 998.199219 265.234375 C 986.542969 265.234375 976.128906 269.949219 968.5625 277.511719 Z M 402.503906 396.550781 L 384.773438 414.285156 C 391.59375 409.695312 399.777344 406.96875 408.578125 406.96875 L 441.6875 406.96875 C 465.125 406.96875 484.21875 426.0625 484.21875 449.5 L 484.21875 829.0625 C 484.21875 837.867188 481.492188 846.050781 476.902344 852.871094 L 494.636719 835.140625 C 502.199219 827.574219 506.910156 817.160156 506.910156 805.628906 L 506.910156 432.265625 C 506.910156 405.726562 485.460938 384.277344 458.925781 384.277344 L 432.140625 384.277344 C 420.484375 384.277344 410.066406 388.988281 402.503906 396.550781 Z M 17.730469 396.550781 L 0 414.285156 C 6.820312 409.695312 15.003906 406.96875 23.808594 406.96875 L 56.914062 406.96875 C 80.351562 406.96875 99.449219 426.0625 99.449219 449.5 L 99.449219 829.0625 C 99.449219 837.867188 96.71875 846.050781 92.132812 852.871094 L 109.863281 835.140625 C 117.429688 827.574219 122.140625 817.160156 122.140625 805.628906 L 122.140625 432.265625 C 122.140625 405.726562 100.6875 384.277344 74.152344 384.277344 L 47.242188 384.277344 C 35.710938 384.277344 25.296875 388.988281 17.730469 396.550781 Z M 1129.515625 396.550781 L 1111.785156 414.285156 C 1118.605469 409.695312 1126.789062 406.96875 1135.59375 406.96875 L 1168.699219 406.96875 C 1192.136719 406.96875 1211.230469 426.0625 1211.230469 449.5 L 1211.230469 761.234375 C 1211.230469 770.039062 1208.503906 778.222656 1203.914062 785.042969 L 1221.648438 767.3125 C 1229.210938 759.746094 1233.925781 749.332031 1233.925781 737.800781 L 1233.925781 432.265625 C 1233.925781 405.726562 1212.472656 384.277344 1185.9375 384.277344 L 1159.152344 384.277344 C 1147.496094 384.277344 1137.078125 388.988281 1129.515625 396.550781 Z M 1129.515625 396.550781 "/>
</g>
</svg>
