<?xml version="1.0" encoding="UTF-8"?>
<svg xmlns="http://www.w3.org/2000/svg" xmlns:xlink="http://www.w3.org/1999/xlink" width="1240pt" height="1240pt" viewBox="0 0 1240 1240" version="1.1">
<defs>
<linearGradient id="linear0" gradientUnits="userSpaceOnUse" x1="-7.9519" y1="55.3161" x2="91.9822" y2="63.8818" gradientTransform="matrix(12.4,0,0,12.4,0,0)">
<stop offset="0" style="stop-color:rgb(53.333333%,12.156863%,100%);stop-opacity:1;"/>
<stop offset="0.2415" style="stop-color:rgb(63.137255%,23.137255%,90.588235%);stop-opacity:1;"/>
<stop offset="0.7609" style="stop-color:rgb(87.843137%,51.764706%,66.666667%);stop-opacity:1;"/>
<stop offset="1" style="stop-color:rgb(100%,65.490196%,54.901961%);stop-opacity:1;"/>
</linearGradient>
<linearGradient id="linear1" gradientUnits="userSpaceOnUse" x1="-8.3655" y1="60.1414" x2="91.5686" y2="68.7071" gradientTransform="matrix(12.4,0,0,12.4,0,0)">
<stop offset="0" style="stop-color:rgb(53.333333%,12.156863%,100%);stop-opacity:1;"/>
<stop offset="0.2415" style="stop-color:rgb(63.137255%,23.137255%,90.588235%);stop-opacity:1;"/>
<stop offset="0.7609" style="stop-color:rgb(87.843137%,51.764706%,66.666667%);stop-opacity:1;"/>
<stop offset="1" style="stop-color:rgb(100%,65.490196%,54.901961%);stop-opacity:1;"/>
</linearGradient>
<linearGradient id="linear2" gradientUnits="userSpaceOnUse" x1="-6.7881" y1="41.739" x2="93.1459" y2="50.3048" gradientTransform="matrix(12.4,0,0,12.4,0,0)">
<stop offset="0" style="stop-color:rgb(53.333333%,12.156863%,100%);stop-opacity:1;"/>
<stop offset="0.2415" style="stop-color:rgb(63.137255%,23.137255%,90.588235%);stop-opacity:1;"/>
<stop offset="0.7609" style="stop-color:rgb(87.843137%,51.764706%,66.666667%);stop-opacity:1;"/>
<stop offset="1" style="stop-color:rgb(100%,65.490196%,54.901961%);stop-opacity:1;"/>
</linearGradient>
<linearGradient id="linear3" gradientUnits="userSpaceOnUse" x1="-4.4103" y1="17.3135" x2="100.1701" y2="26.2775" gradientTransform="matrix(12.4,0,0,12.4,0,0)">
<stop offset="0" style="stop-color:rgb(53.333333%,12.156863%,100%);stop-opacity:1;"/>
<stop offset="0.2415" style="stop-color:rgb(63.137255%,23.137255%,90.588235%);stop-opacity:1;"/>
<stop offset="0.7609" style="stop-color:rgb(87.843137%,51.764706%,66.666667%);stop-opacity:1;"/>
<stop offset="1" style="stop-color:rgb(100%,65.490196%,54.901961%);stop-opacity:1;"/>
</linearGradient>
<linearGradient id="linear4" gradientUnits="userSpaceOnUse" x1="-0.039" y1="35.4198" x2="139.8627" y2="35.4198" gradientTransform="matrix(12.4,0,0,12.4,0,0)">
<stop offset="0" style="stop-color:rgb(53.333333%,12.156863%,100%);stop-opacity:1;"/>
<stop offset="0.2415" style="stop-color:rgb(63.137255%,23.137255%,90.588235%);stop-opacity:1;"/>
<stop offset="0.7609" style="stop-color:rgb(87.843137%,51.764706%,66.666667%);stop-opacity:1;"/>
<stop offset="1" style="stop-color:rgb(100%,65.490196%,54.901961%);stop-opacity:1;"/>
</linearGradient>
<linearGradient id="linear5" gradientUnits="userSpaceOnUse" x1="-0.039" y1="35.4198" x2="139.8627" y2="35.4198" gradientTransform="matrix(12.4,0,0,12.4,0,0)">
<stop offset="0" style="stop-color:rgb(53.333333%,12.156863%,100%);stop-opacity:1;"/>
<stop offset="0.2415" style="stop-color:rgb(63.137255%,23.137255%,90.588235%);stop-opacity:1;"/>
<stop offset="0.7609" style="stop-color:rgb(87.843137%,51.764706%,66.666667%);stop-opacity:1;"/>
<stop offset="1" style="stop-color:rgb(100%,65.490196%,54.901961%);stop-opacity:1;"/>
</linearGradient>
<linearGradient id="linear6" gradientUnits="userSpaceOnUse" x1="-0.039" y1="35.4198" x2="139.8627" y2="35.4198" gradientTransform="matrix(12.4,0,0,12.4,0,0)">
<stop offset="0" style="stop-color:rgb(53.333333%,12.156863%,100%);stop-opacity:1;"/>
<stop offset="0.2415" style="stop-color:rgb(63.137255%,23.137255%,90.588235%);stop-opacity:1;"/>
<stop offset="0.7609" style="stop-color:rgb(87.843137%,51.764706%,66.666667%);stop-opacity:1;"/>
<stop offset="1" style="stop-color:rgb(100%,65.490196%,54.901961%);stop-opacity:1;"/>
</linearGradient>
</defs>
<g id="surface1">
<path style=" stroke:none;fill-rule:nonzero;fill:url(#linear0);" d="M 1197.46875 399.527344 L 1116.246094 318.308594 C 1131.128906 341.742188 1139.808594 369.644531 1139.808594 399.402344 L 1139.808594 767.933594 C 1139.808594 851.757812 1071.609375 919.957031 987.785156 919.957031 L 813.191406 919.957031 L 575.855469 1121.207031 L 679.148438 1224.5 L 917.722656 1022.007812 L 1053.378906 1022.007812 C 1157.539062 1022.007812 1241.984375 937.5625 1241.984375 833.402344 L 1241.984375 505.300781 C 1241.984375 463.761719 1224.871094 426.3125 1197.46875 399.527344 Z M 1197.46875 399.527344 "/>
<path style=" stroke:none;fill-rule:nonzero;fill:url(#linear1);" d="M 146.941406 712.132812 L 228.285156 793.476562 C 255.191406 820.878906 292.640625 837.867188 334.054688 837.867188 L 400.394531 837.867188 L 400.394531 735.691406 L 228.035156 735.691406 C 198.277344 735.691406 170.5 727.011719 146.941406 712.132812 Z M 146.941406 712.132812 "/>
<path style=" stroke:none;fill-rule:nonzero;fill:url(#linear2);" d="M 884.242188 837.867188 C 988.402344 837.867188 1072.847656 753.425781 1072.847656 649.265625 L 1072.847656 321.160156 C 1072.847656 279.742188 1055.859375 242.296875 1028.332031 215.386719 L 947.113281 134.167969 C 961.992188 157.605469 970.671875 185.503906 970.671875 215.265625 L 970.671875 583.792969 C 970.671875 667.617188 902.472656 735.816406 818.648438 735.816406 L 644.054688 735.816406 L 406.84375 937.066406 L 510.136719 1040.359375 L 748.710938 837.867188 Z M 884.242188 837.867188 "/>
<path style=" stroke:none;fill-rule:nonzero;fill:url(#linear3);" d="M 146.941406 394.195312 C 146.941406 382.539062 148.179688 371.257812 150.164062 360.21875 C 126.230469 348.066406 105.773438 328.601562 93.125 302.683594 C 62 239.320312 88.289062 162.441406 151.652344 131.316406 C 194.804688 110.113281 244.03125 115.691406 280.859375 141.234375 L 239.070312 182.777344 L 380.804688 205.59375 C 393.078125 205.714844 403.125 195.921875 403.246094 183.644531 L 383.160156 41.414062 L 337.28125 86.179688 C 276.890625 37.449219 191.332031 24.925781 117.179688 61.257812 C 15.253906 111.351562 -27.03125 235.105469 23.0625 337.03125 C 48.980469 389.855469 94.734375 426.4375 146.941406 442.679688 Z M 146.941406 394.195312 "/>
<path style=" stroke:none;fill-rule:nonzero;fill:url(#linear4);" d="M 309.875 499.71875 C 343.355469 499.71875 370.386719 472.5625 370.386719 439.207031 C 370.386719 405.726562 343.230469 378.695312 309.875 378.695312 C 276.519531 378.695312 249.363281 405.851562 249.363281 439.207031 C 249.363281 472.6875 276.519531 499.71875 309.875 499.71875 Z M 309.875 499.71875 "/>
<path style=" stroke:none;fill-rule:nonzero;fill:url(#linear5);" d="M 794.21875 499.71875 C 827.699219 499.71875 854.730469 472.5625 854.730469 439.207031 C 854.730469 405.726562 827.574219 378.695312 794.21875 378.695312 C 760.738281 378.695312 733.707031 405.851562 733.707031 439.207031 C 733.707031 472.6875 760.738281 499.71875 794.21875 499.71875 Z M 794.21875 499.71875 "/>
<path style=" stroke:none;fill-rule:nonzero;fill:url(#linear6);" d="M 552.046875 499.71875 C 585.527344 499.71875 612.558594 472.5625 612.558594 439.207031 C 612.558594 405.726562 585.402344 378.695312 552.046875 378.695312 C 518.691406 378.695312 491.535156 405.851562 491.535156 439.207031 C 491.535156 472.6875 518.566406 499.71875 552.046875 499.71875 Z M 552.046875 499.71875 "/>
</g>
</svg>
