<?xml version="1.0" encoding="UTF-8"?>
<svg xmlns="http://www.w3.org/2000/svg" xmlns:xlink="http://www.w3.org/1999/xlink" width="1240pt" height="1240pt" viewBox="0 0 1240 1240" version="1.1">
<defs>
<linearGradient id="linear0" gradientUnits="userSpaceOnUse" x1="2.7418" y1="42.4029" x2="96.3435" y2="44.6859" gradientTransform="matrix(12.4,0,0,12.4,0,0)">
<stop offset="0" style="stop-color:rgb(53.333333%,12.156863%,100%);stop-opacity:1;"/>
<stop offset="0.24" style="stop-color:rgb(63.137255%,23.137255%,90.588235%);stop-opacity:1;"/>
<stop offset="0.7563" style="stop-color:rgb(87.843137%,51.764706%,66.666667%);stop-opacity:1;"/>
<stop offset="0.994" style="stop-color:rgb(100%,65.490196%,54.901961%);stop-opacity:1;"/>
</linearGradient>
</defs>
<g id="surface1">
<path style=" stroke:none;fill-rule:nonzero;fill:url(#linear0);" d="M 1229.460938 496.867188 C 1229.460938 578.460938 1207.882812 631.40625 1169.320312 700.601562 C 1157.664062 721.433594 1144.769531 743.257812 1130.757812 765.699219 C 1108.808594 800.667969 1085.371094 835.636719 1061.9375 868.867188 C 1053.753906 880.523438 1040.730469 898.132812 1040.730469 898.132812 C 1040.730469 898.132812 1004.027344 854.359375 995.84375 842.703125 C 991.257812 836.257812 986.792969 829.683594 982.203125 823.113281 C 985.800781 818.152344 990.386719 811.828125 993.984375 806.867188 C 1013.699219 778.96875 1033.539062 749.457031 1051.890625 720.066406 C 1063.671875 701.097656 1074.585938 682.867188 1084.378906 665.261719 C 1116.742188 606.980469 1135.097656 560.480469 1135.097656 531.589844 C 1135.097656 443.796875 1063.921875 372.621094 976.128906 372.621094 C 964.101562 372.621094 952.320312 373.984375 941.035156 376.589844 C 941.53125 384.152344 941.902344 391.839844 941.902344 399.652344 C 941.902344 424.574219 938.183594 456.070312 928.761719 493.023438 C 940.539062 479.757812 957.527344 471.199219 976.625 471.199219 C 1012.089844 471.199219 1040.730469 499.84375 1040.730469 535.308594 C 1040.730469 570.648438 1012.089844 599.414062 976.625 599.414062 C 944.136719 599.414062 917.476562 575.113281 913.382812 543.617188 C 900.238281 580.816406 882.011719 621.984375 857.210938 666.746094 C 837.621094 701.839844 815.921875 738.542969 792.234375 776.238281 C 755.40625 835.140625 715.851562 893.914062 676.421875 949.839844 C 662.65625 969.433594 640.832031 998.945312 640.832031 998.945312 C 640.832031 998.945312 619.007812 969.308594 605.121094 949.839844 C 597.433594 939.050781 589.867188 928.015625 582.179688 916.980469 C 588.257812 908.546875 595.945312 898.007812 601.894531 889.574219 C 635.128906 842.578125 668.359375 792.980469 699.359375 743.503906 C 719.199219 711.636719 737.550781 680.882812 754.042969 651.246094 C 808.605469 553.289062 839.230469 475.042969 839.230469 426.4375 C 839.230469 278.753906 719.449219 159.09375 571.886719 159.09375 C 475.292969 159.09375 390.847656 210.550781 343.851562 287.433594 C 389.234375 167.398438 578.089844 81.964844 624.339844 81.964844 C 776.488281 81.964844 903.589844 188.976562 934.710938 331.699219 C 969.058594 313.96875 1004.894531 306.28125 1027.835938 306.28125 C 1131.996094 306.28125 1229.460938 392.089844 1229.460938 496.867188 Z M 680.636719 432.636719 C 680.636719 373.117188 632.398438 324.878906 572.757812 324.878906 C 513.234375 324.878906 465 373.117188 465 432.636719 C 465 492.15625 513.234375 540.390625 572.757812 540.390625 C 632.277344 540.390625 680.636719 492.15625 680.636719 432.636719 Z M 202.121094 535.308594 C 202.121094 499.96875 173.476562 471.199219 138.011719 471.199219 C 102.671875 471.199219 73.902344 499.84375 73.902344 535.308594 C 73.902344 570.648438 102.546875 599.414062 138.011719 599.414062 C 173.351562 599.292969 202.121094 570.648438 202.121094 535.308594 Z M 320.910156 355.382812 C 284.457031 325.003906 237.585938 306.28125 189.101562 306.28125 C 138.011719 306.28125 22.691406 343.726562 1.984375 448.878906 C 29.882812 403.246094 80.105469 372.621094 137.515625 372.621094 C 225.308594 372.621094 296.484375 443.796875 296.484375 531.589844 C 296.484375 560.480469 278.257812 606.980469 245.890625 665.261719 C 236.097656 682.867188 225.183594 701.097656 213.402344 720.066406 C 194.929688 749.457031 175.210938 778.96875 155.496094 806.867188 C 151.898438 811.828125 147.4375 818.152344 143.714844 823.113281 C 148.304688 829.683594 152.769531 836.257812 157.355469 842.703125 C 165.539062 854.359375 202.242188 898.132812 202.242188 898.132812 C 202.242188 898.132812 215.265625 880.523438 223.449219 868.867188 C 246.882812 835.636719 270.445312 800.667969 292.269531 765.699219 C 306.28125 743.257812 319.300781 721.433594 330.832031 700.601562 C 349.679688 666.746094 364.4375 636.617188 374.605469 605.242188 C 332.566406 515.21875 318.308594 442.554688 318.308594 394.445312 C 318.308594 381.175781 319.300781 368.28125 320.910156 355.382812 Z M 320.910156 355.382812 "/>
</g>
</svg>
