<?xml version="1.0" encoding="UTF-8"?>
<svg xmlns="http://www.w3.org/2000/svg" xmlns:xlink="http://www.w3.org/1999/xlink" width="1240pt" height="1240pt" viewBox="0 0 1240 1240" version="1.1">
<defs>
<linearGradient id="linear0" gradientUnits="userSpaceOnUse" x1="0.7067" y1="41.9942" x2="100.1106" y2="41.9942" gradientTransform="matrix(12.4,0,0,12.4,0,0)">
<stop offset="0" style="stop-color:rgb(53.333333%,12.156863%,100%);stop-opacity:1;"/>
<stop offset="0.2415" style="stop-color:rgb(63.137255%,23.137255%,90.588235%);stop-opacity:1;"/>
<stop offset="0.7609" style="stop-color:rgb(87.843137%,51.764706%,66.666667%);stop-opacity:1;"/>
<stop offset="1" style="stop-color:rgb(100%,65.490196%,54.901961%);stop-opacity:1;"/>
</linearGradient>
</defs>
<g id="surface1">
<path style=" stroke:none;fill-rule:nonzero;fill:url(#linear0);" d="M 1241.363281 743.007812 C 1241.363281 894.660156 1118.480469 1017.542969 966.828125 1017.542969 L 310.371094 1017.542969 C 234.113281 1017.542969 165.167969 986.421875 115.445312 936.199219 L 8.804688 829.558594 C 55.675781 866.015625 114.453125 887.714844 178.3125 887.714844 L 834.644531 887.714844 C 987.410156 887.714844 1111.535156 763.46875 1111.535156 610.824219 C 1111.535156 546.964844 1089.835938 488.1875 1053.378906 441.316406 L 1160.019531 547.957031 C 1210.238281 597.804688 1241.363281 666.746094 1241.363281 743.007812 Z M 831.171875 333.933594 L 834.644531 333.933594 C 875.316406 333.933594 913.878906 342.859375 948.601562 358.609375 C 932.851562 303.550781 909.789062 260.773438 862.421875 210.925781 C 815.050781 160.953125 759.253906 110.730469 759.253906 110.730469 C 804.386719 167.523438 831.542969 239.195312 831.542969 317.316406 C 831.542969 322.398438 831.421875 327.855469 831.171875 333.933594 Z M 130.074219 343.355469 C 117.304688 318.308594 110.855469 291.648438 110.855469 263.871094 C 110.855469 166.902344 189.84375 88.039062 286.8125 88.039062 C 383.902344 88.039062 462.890625 167.027344 462.890625 264.121094 C 462.890625 339.761719 415.648438 405.851562 344.597656 430.402344 C 329.839844 418.375 308.015625 411.679688 283.214844 411.679688 C 237.707031 411.679688 203.359375 434.867188 203.359375 465.621094 C 203.359375 496.371094 237.707031 519.558594 283.214844 519.558594 C 311.859375 519.558594 336.660156 510.382812 350.796875 494.882812 C 418.003906 476.160156 474.671875 428.296875 504.183594 365.304688 L 511.5 365.304688 C 544.234375 365.304688 571.019531 341.125 571.019531 311.488281 L 571.019531 227.042969 C 571.019531 197.285156 544.359375 173.226562 511.5 173.226562 L 508.523438 173.226562 C 471.695312 83.453125 383.65625 23.933594 286.8125 23.933594 C 191.085938 23.933594 105.773438 79.980469 67.332031 167.523438 C 34.96875 167.894531 8.679688 191.953125 8.679688 221.339844 L 8.679688 305.785156 C 8.679688 335.421875 35.339844 359.601562 68.199219 359.601562 L 138.382812 359.601562 Z M 130.074219 343.355469 "/>
</g>
</svg>
