<?xml version="1.0" encoding="utf-8"?>
<!-- Generator: Adobe Illustrator 24.0.1, SVG Export Plug-In . SVG Version: 6.00 Build 0)  -->
<svg version="1.1" id="Layer_1" xmlns="http://www.w3.org/2000/svg" xmlns:xlink="http://www.w3.org/1999/xlink" x="0px" y="0px"
	 viewBox="0 0 193 73.7" style="enable-background:new 0 0 193 73.7;" xml:space="preserve">
<style type="text/css">
	.st0{fill:#2174B6;}
</style>
<title>logo-frost-sullivan</title>
<path class="st0" d="M53.9,14.2c0-0.9-0.5-1.2-1.4-1.2v-0.5h8.7v2.3h-0.5c-0.2-1.4-0.7-1.6-2.5-1.6h-2.3v4.1H58c0.9,0,1.4,0,1.4-1.4
	h0.7v3.4h-0.7c0-1.4-0.2-1.4-1.4-1.4h-2.1v3.2c0,1.1,0.5,1.4,1.4,1.4h0.4V23h-5.3v-0.5c0.9,0,1.6-0.2,1.6-0.9L53.9,14.2z"/>
<path class="st0" d="M75.6,13.2h1.5c1.6,0,2.3,0.5,2.3,2c0,1.6-0.9,2.3-2.8,2.3h-0.9L75.6,13.2z M73.9,21.8c0,0.7-0.5,0.9-1.6,0.9
	v0.5h5v-0.5c-0.9,0-1.6-0.2-1.6-0.9v-3.7h1.6c1.2,1.8,2.3,4.1,3.2,5.2h2.8v-0.5c-1.4-0.5-2.1-0.9-4.4-5.2c1.6-0.5,2.3-1.1,2.3-2.5
	c0-1.6-1.4-2.5-3.2-2.5h-5.7V13c1.1,0,1.6,0.2,1.6,1.1L73.9,21.8L73.9,21.8z"/>
<path class="st0" d="M96.7,17.7c0-2.3,0.9-4.6,3.7-4.6c2.1,0,3.9,2.1,3.9,5.2c0,2.3-0.9,4.6-3.7,4.6C98.3,22.7,96.7,20.7,96.7,17.7z
	 M94.4,17.9c0,3.2,2.5,5.5,6.1,5.5c3.2,0.1,5.9-2.4,6.1-5.5c0-3.2-2.3-5.5-5.9-5.5C97.4,12.4,94.4,14.4,94.4,17.9L94.4,17.9z"/>
<path class="st0" d="M118.4,20.7h0.7c0,1.3,1,2.3,2.3,2.3c0.1,0,0.1,0,0.2,0c1.8,0,2.1-1.1,2.1-1.8c0-0.9-0.5-1.4-1.8-2.3
	c-2.5-1.2-3-2.1-3-3.7c0-1.6,1.3-2.8,2.9-2.8c0,0,0.1,0,0.1,0c0.9,0,1.8,0.2,2.8,0.2v2.1h-0.5c-0.1-1.1-1.1-1.9-2.2-1.8
	c-0.9-0.1-1.7,0.6-1.8,1.6c0,0.1,0,0.1,0,0.2c0,0.9,0.2,1.4,2.3,2.5c2.3,0.9,2.8,1.8,2.8,3.2c0,1.8-1.6,3-3.7,3c-1,0-2-0.1-2.8-0.5
	L118.4,20.7L118.4,20.7z"/>
<path class="st0" d="M139.1,13.2c-1.4,0-1.6,0.2-1.8,1.6h-0.7l0.5-2.9h0.5c0,0.5,0.5,0.5,0.9,0.5h6.9c0.5,0.1,1-0.1,1.3-0.5h0.5
	l-0.5,2.9H146c0-1.4-0.2-1.6-1.2-1.6h-2.3v8.5c0,0.7,0.7,0.9,1.8,0.9v0.5h-5.3v-0.5c1.2,0,1.6-0.2,1.6-0.9v-8.5"/>
<path class="st0" d="M93.5,35.3c0.5,0,0.9,0.2,0.9,0.5v0.5l-2.1,2.1c-0.6,0.7-1.2,1.4-1.8,2.1c-0.1-0.2-0.2-0.5-0.2-0.7
	C90.3,37.6,91.7,35.3,93.5,35.3z M99.9,39.1c0-1.1-1.4-0.2-1.4-1.6c0-0.8,0.6-1.4,1.3-1.5c0,0,0.1,0,0.1,0c0.8,0.1,1.5,0.4,2.1,0.9
	c0,1.9-0.7,3.7-1.8,5.2c-1.3,1.5-3.3,2.5-5.3,2.5c-1.2,0-2.4-0.5-3.2-1.4c-0.2-0.5-0.7-0.9-0.7-1.6c-0.1-0.6,0.2-1.2,0.7-1.6
	l1.2-1.4l0.9-0.9l4.4-4.1c0.7-0.7,2.1-2.1,2.1-2.9c0-0.5-0.4-1-0.9-1.1c-0.5,0-0.7,0.5-0.7,0.9v0.9c0,0.9-1.8,2.5-2.3,3.2
	c-0.3-0.4-0.9-0.7-1.4-0.7c-3,0-5.7,3.7-5.7,6.4c0,3.6,2.3,5.9,5.5,5.9c2.9,0,5.5-1.6,6.8-4.1c0.8-1.4,1.1-3,1.1-4.6
	c0.5,0.5,1.1,1.2,1.8,1.2c1.6-0.1,2.8-1.3,3-2.8c0-0.5-0.2-1.1-0.9-1.1c-0.3,0.1-0.6,0.4-0.7,0.7c0,0.7,0.7,0.9,0.7,1.4
	c0,0.5-0.4,0.8-0.9,0.9c-1.4,0.1-1.7-2.8-4.1-2.8c-1.6,0-3.9,1.6-3.9,3.4c0,0.8,0.6,1.5,1.4,1.6C99.6,39.9,99.9,39.5,99.9,39.1
	L99.9,39.1z"/>
<path class="st0" d="M24,60.5h0.5c0.5,1.4,1.2,2.3,2.8,2.3c1,0.1,2-0.6,2.1-1.6c0,0,0-0.1,0-0.1c0-0.9-0.7-1.4-2.1-2.3
	c-2.3-1.2-3-2.1-3-3.7c0.2-1.6,1.6-2.9,3.2-2.8c0.7,0,1.8,0.2,2.5,0.2l0.2,2.3h-0.6c-0.2-1.1-1.2-1.9-2.3-1.8
	c-0.9,0.1-1.7,0.8-1.8,1.8c0,0.9,0.5,1.4,2.5,2.5c2.3,0.9,2.9,1.8,2.9,3.2c0,1.8-1.6,3-3.9,3c-1,0-1.9-0.2-2.9-0.5L24,60.5z"/>
<path class="st0" d="M43.3,53.8c0-0.9-0.7-0.9-1.5-0.9v-0.5h4.8V53c-0.7,0-1.4,0-1.4,0.9v5.7c0,2.1,1.1,2.8,3,2.8c3,0,3-2.3,3-4.5
	v-2.5c0-2.3-0.2-2.5-1.8-2.5v-0.5h4.1V53c-0.9,0-1.4,0.2-1.4,1.6V59c0,2.5-1.1,4.5-4.5,4.5c-2.8,0-4.5-0.9-4.5-3.4L43.3,53.8z"/>
<path class="st0" d="M66,54c0-0.9-0.5-1.1-1.6-1.1v-0.5h5V53c-0.9,0-1.6,0.2-1.6,1.1v7.1c0,0.9,0.5,1.1,2.1,1.1
	c1.8,0,2.3-0.2,3.2-2.1h0.5L73.2,63h-8.7v-0.5c1.2,0,1.6-0.2,1.6-0.9L66,54L66,54z"/>
<path class="st0" d="M86,54c0-0.9-0.7-1.1-1.6-1.1v-0.5h5V53c-0.9,0-1.6,0.2-1.6,1.1v7.1c0,0.9,0.2,1.1,2.1,1.1
	c1.8,0,2.3-0.2,3.2-2.1h0.5L93,63h-8.6v-0.5c0.9,0,1.6-0.2,1.6-0.9L86,54L86,54z"/>
<path class="st0" d="M105.4,54c0-0.9-0.5-1.1-1.6-1.1v-0.5h5V53c-0.9,0-1.6,0.2-1.6,1.1v7.6c0,0.7,0.7,0.9,1.6,0.9v0.5h-5v-0.5
	c1.1,0,1.6-0.2,1.6-0.9V54z"/>
<path class="st0" d="M120.7,54c-0.3-0.9-0.5-1.1-1.4-1.1v-0.5h4.6V53h-0.4c-1.1,0-0.8,0.9-0.7,1.2l3,7l2.5-6.4
	c0.3-1-0.5-1.6-1.4-1.6v-0.5h3.9v0.5c-0.7,0-0.9,0-1.6,1.4l-3.7,9.1h-0.9L120.7,54z"/>
<path class="st0" d="M147.3,58.5h-3.2l1.6-4.5l0,0L147.3,58.5L147.3,58.5z M147.1,63.1h4.8v-0.5c-1.2,0-1.4-0.5-1.8-1.4l-3.2-9.3
	l-1.6,0.7c0,0.3-0.1,0.6-0.2,0.9l-3,8.2c-0.2,0.5-0.7,0.9-1.6,0.9v0.5h3.9v-0.5h-0.2c-0.5,0-1.1-0.2-1.1-0.7c0.2-1,0.4-1.9,0.7-2.9
	h3.6c0,0,1,2.7,1,2.9c0,0.5-0.7,0.7-1.2,0.7h-0.2L147.1,63.1L147.1,63.1z"/>
<path class="st0" d="M163.5,54c0-0.9-1.4-1.1-1.6-1.1v-0.5h2.9l6.8,7.8v-5.7c0-1.4-0.5-1.6-1.6-1.6v-0.5h3.9V53
	c-0.9,0-1.4,0.2-1.4,1.1v9.2h-0.5l-7.3-8.5v5.9c0,1.6,0.2,2.1,1.8,2.1v0.5h-4.6v-0.5c1.8,0,1.8-0.9,1.8-2.5L163.5,54L163.5,54z"/>
</svg>
