<?xml version="1.0" encoding="UTF-8"?>
<svg xmlns="http://www.w3.org/2000/svg" xmlns:xlink="http://www.w3.org/1999/xlink" width="1240pt" height="1240pt" viewBox="0 0 1240 1240" version="1.1">
<defs>
<linearGradient id="linear0" gradientUnits="userSpaceOnUse" x1="4.3946" y1="7.3182" x2="87.7971" y2="6.0151" gradientTransform="matrix(12.4,0,0,12.4,0,0)">
<stop offset="0" style="stop-color:rgb(53.333333%,12.156863%,100%);stop-opacity:1;"/>
<stop offset="0.2415" style="stop-color:rgb(63.137255%,23.137255%,90.588235%);stop-opacity:1;"/>
<stop offset="0.7609" style="stop-color:rgb(87.843137%,51.764706%,66.666667%);stop-opacity:1;"/>
<stop offset="1" style="stop-color:rgb(100%,65.490196%,54.901961%);stop-opacity:1;"/>
</linearGradient>
<linearGradient id="linear1" gradientUnits="userSpaceOnUse" x1="4.4063" y1="8.0662" x2="87.8088" y2="6.763" gradientTransform="matrix(12.4,0,0,12.4,0,0)">
<stop offset="0" style="stop-color:rgb(53.333333%,12.156863%,100%);stop-opacity:1;"/>
<stop offset="0.2415" style="stop-color:rgb(63.137255%,23.137255%,90.588235%);stop-opacity:1;"/>
<stop offset="0.7609" style="stop-color:rgb(87.843137%,51.764706%,66.666667%);stop-opacity:1;"/>
<stop offset="1" style="stop-color:rgb(100%,65.490196%,54.901961%);stop-opacity:1;"/>
</linearGradient>
<linearGradient id="linear2" gradientUnits="userSpaceOnUse" x1="5.2868" y1="64.4187" x2="88.6893" y2="63.1155" gradientTransform="matrix(12.4,0,0,12.4,0,0)">
<stop offset="0" style="stop-color:rgb(53.333333%,12.156863%,100%);stop-opacity:1;"/>
<stop offset="0.2415" style="stop-color:rgb(63.137255%,23.137255%,90.588235%);stop-opacity:1;"/>
<stop offset="0.7609" style="stop-color:rgb(87.843137%,51.764706%,66.666667%);stop-opacity:1;"/>
<stop offset="1" style="stop-color:rgb(100%,65.490196%,54.901961%);stop-opacity:1;"/>
</linearGradient>
<linearGradient id="linear3" gradientUnits="userSpaceOnUse" x1="4.9926" y1="45.5914" x2="88.3952" y2="44.2883" gradientTransform="matrix(12.4,0,0,12.4,0,0)">
<stop offset="0" style="stop-color:rgb(53.333333%,12.156863%,100%);stop-opacity:1;"/>
<stop offset="0.2415" style="stop-color:rgb(63.137255%,23.137255%,90.588235%);stop-opacity:1;"/>
<stop offset="0.7609" style="stop-color:rgb(87.843137%,51.764706%,66.666667%);stop-opacity:1;"/>
<stop offset="1" style="stop-color:rgb(100%,65.490196%,54.901961%);stop-opacity:1;"/>
</linearGradient>
<linearGradient id="linear4" gradientUnits="userSpaceOnUse" x1="4.669" y1="24.8793" x2="88.0715" y2="23.5762" gradientTransform="matrix(12.4,0,0,12.4,0,0)">
<stop offset="0" style="stop-color:rgb(53.333333%,12.156863%,100%);stop-opacity:1;"/>
<stop offset="0.2415" style="stop-color:rgb(63.137255%,23.137255%,90.588235%);stop-opacity:1;"/>
<stop offset="0.7609" style="stop-color:rgb(87.843137%,51.764706%,66.666667%);stop-opacity:1;"/>
<stop offset="1" style="stop-color:rgb(100%,65.490196%,54.901961%);stop-opacity:1;"/>
</linearGradient>
<linearGradient id="linear5" gradientUnits="userSpaceOnUse" x1="5.3533" y1="68.6756" x2="88.7559" y2="67.3725" gradientTransform="matrix(12.4,0,0,12.4,0,0)">
<stop offset="0" style="stop-color:rgb(53.333333%,12.156863%,100%);stop-opacity:1;"/>
<stop offset="0.2415" style="stop-color:rgb(63.137255%,23.137255%,90.588235%);stop-opacity:1;"/>
<stop offset="0.7609" style="stop-color:rgb(87.843137%,51.764706%,66.666667%);stop-opacity:1;"/>
<stop offset="1" style="stop-color:rgb(100%,65.490196%,54.901961%);stop-opacity:1;"/>
</linearGradient>
</defs>
<g id="surface1">
<path style=" stroke:none;fill-rule:nonzero;fill:url(#linear0);" d="M 353.894531 171.617188 L 370.636719 171.738281 C 389.234375 171.863281 404.488281 156.859375 404.613281 138.382812 L 405.605469 34.222656 C 405.851562 15.625 390.722656 0.371094 372.246094 0.246094 L 355.507812 0.125 C 337.03125 0 321.65625 15.003906 321.53125 33.480469 L 320.539062 137.640625 C 320.414062 156.117188 335.421875 171.492188 353.894531 171.617188 Z M 353.894531 171.617188 "/>
<path style=" stroke:none;fill-rule:nonzero;fill:url(#linear1);" d="M 695.640625 175.585938 L 712.378906 175.707031 C 730.855469 175.832031 746.230469 160.828125 746.355469 142.351562 L 747.347656 38.191406 C 747.472656 19.59375 732.46875 4.339844 713.992188 4.214844 L 697.253906 4.09375 C 678.777344 3.96875 663.398438 18.972656 663.277344 37.449219 L 662.285156 141.609375 C 662.035156 160.085938 677.039062 175.335938 695.640625 175.585938 Z M 695.640625 175.585938 "/>
<path style=" stroke:none;fill-rule:nonzero;fill:url(#linear2);" d="M 373.859375 644.179688 C 315.828125 640.707031 288.921875 674.3125 288.921875 674.3125 L 288.796875 674.3125 C 288.796875 674.3125 264.367188 642.195312 210.054688 642.195312 C 208.320312 642.195312 206.460938 642.195312 204.601562 642.320312 C 145.824219 644.550781 121.890625 685.71875 119.164062 722.175781 C 116.3125 761.113281 117.675781 842.332031 285.820312 949.46875 L 285.945312 949.46875 C 456.445312 845.929688 459.421875 764.707031 457.4375 725.773438 C 455.699219 689.316406 432.511719 647.777344 373.859375 644.179688 Z M 373.859375 644.179688 "/>
<path style=" stroke:none;fill-rule:nonzero;fill:url(#linear3);" d="M 666.5 1084.378906 C 663.523438 1081.652344 660.546875 1079.046875 657.695312 1076.070312 C 574.367188 988.777344 570.523438 815.300781 573.003906 741.148438 C 781.199219 717.835938 901.605469 550.3125 904.207031 278.257812 L 905.820312 118.914062 C 906.066406 95.605469 895.527344 73.65625 877.175781 59.273438 L 833.527344 24.800781 L 831.914062 238.078125 C 829.4375 504.679688 716.597656 662.285156 520.925781 676.296875 C 517.699219 734.203125 513.484375 940.042969 605.367188 1041.105469 C 623.222656 1060.820312 643.558594 1075.078125 666.5 1084.378906 Z M 666.5 1084.378906 "/>
<path style=" stroke:none;fill-rule:nonzero;fill:url(#linear4);" d="M 339.265625 576.972656 C 328.847656 566.929688 318.929688 556.265625 310.246094 543.988281 C 264.988281 480.5 241.675781 386.261719 242.792969 271.4375 L 243.90625 161.199219 L 268.585938 161.324219 C 279.867188 161.449219 289.042969 152.273438 289.042969 141.113281 L 289.414062 85.808594 C 289.414062 79.113281 287.058594 72.789062 282.84375 67.703125 L 252.960938 32.613281 L 252.835938 85.808594 C 252.835938 94.613281 245.644531 101.679688 236.964844 101.554688 L 210.550781 101.433594 L 209.3125 231.382812 C 208.195312 349.308594 231.507812 446.773438 276.519531 513.113281 C 294.128906 539.152344 315.085938 560.480469 339.265625 576.972656 Z M 339.265625 576.972656 "/>
<path style=" stroke:none;fill-rule:nonzero;fill:url(#linear5);" d="M 1160.640625 573.871094 C 1161.011719 542.128906 1148.613281 511.871094 1125.921875 488.808594 C 1101.863281 464.378906 1069.375 450.738281 1034.40625 450.367188 C 1058.214844 468.84375 1073.59375 497.734375 1073.34375 530.222656 C 1072.972656 574.242188 1044.203125 611.195312 1004.523438 624.09375 C 1013.328125 699.113281 1032.175781 944.382812 921.816406 1073.46875 C 876.058594 1127.035156 814.183594 1154.191406 737.925781 1154.191406 C 667.121094 1154.191406 608.34375 1129.019531 563.207031 1079.296875 C 513.730469 1024.734375 487.941406 947.980469 474.921875 874.820312 C 485.460938 966.703125 513.359375 1072.105469 582.054688 1144.148438 C 634.136719 1198.832031 701.714844 1226.484375 783.058594 1226.484375 C 870.355469 1226.484375 941.40625 1196.601562 994.230469 1137.699219 C 1109.925781 1008.863281 1098.765625 774.132812 1089.214844 682.496094 C 1132.242188 662.40625 1160.269531 620.621094 1160.640625 573.871094 Z M 1160.640625 573.871094 "/>
</g>
</svg>
