<?xml version="1.0" encoding="UTF-8"?>
<svg xmlns="http://www.w3.org/2000/svg" xmlns:xlink="http://www.w3.org/1999/xlink" width="1240pt" height="1240pt" viewBox="0 0 1240 1240" version="1.1">
<defs>
<linearGradient id="linear0" gradientUnits="userSpaceOnUse" x1="0.8885" y1="49.0322" x2="99.8646" y2="49.0322" gradientTransform="matrix(12.4,0,0,12.4,0,0)">
<stop offset="0" style="stop-color:rgb(53.333333%,12.156863%,100%);stop-opacity:1;"/>
<stop offset="0.2415" style="stop-color:rgb(63.137255%,23.137255%,90.588235%);stop-opacity:1;"/>
<stop offset="0.7609" style="stop-color:rgb(87.843137%,51.764706%,66.666667%);stop-opacity:1;"/>
<stop offset="1" style="stop-color:rgb(100%,65.490196%,54.901961%);stop-opacity:1;"/>
</linearGradient>
</defs>
<g id="surface1">
<path style=" stroke:none;fill-rule:nonzero;fill:url(#linear0);" d="M 252.960938 401.636719 C 237.335938 401.636719 221.710938 401.636719 206.210938 401.636719 C 206.460938 400.394531 206.832031 399.28125 207.078125 398.039062 C 224.191406 322.398438 241.179688 246.761719 258.539062 171.242188 C 265.980469 138.757812 290.53125 113.832031 321.902344 111.847656 C 357.738281 109.492188 393.824219 111.351562 429.785156 111.351562 C 435.117188 136.398438 448.011719 148.304688 470.085938 148.429688 C 544.234375 148.550781 618.386719 148.550781 692.414062 148.429688 C 712.875 148.429688 727.136719 136.398438 731.476562 116.3125 C 731.847656 114.574219 732.21875 112.839844 732.714844 110.855469 C 764.585938 110.855469 795.460938 110.855469 826.460938 110.855469 C 866.140625 110.855469 894.785156 132.929688 903.835938 171.367188 C 905.199219 177.070312 906.441406 182.898438 907.804688 188.726562 C 894.535156 178.933594 878.042969 173.601562 858.824219 173.601562 C 827.824219 173.601562 796.949219 173.601562 765.078125 173.601562 C 764.585938 175.585938 764.210938 177.320312 763.839844 179.054688 C 759.5 199.144531 745.238281 211.171875 724.78125 211.171875 C 650.628906 211.296875 576.601562 211.296875 502.449219 211.171875 C 480.375 211.171875 467.605469 199.144531 462.148438 174.097656 C 426.3125 174.097656 390.105469 172.359375 354.269531 174.59375 C 322.773438 176.574219 298.34375 201.5 290.902344 233.988281 C 278.132812 289.910156 265.484375 345.835938 252.960938 401.636719 Z M 694.398438 552.296875 C 672.699219 552.171875 656.457031 569.285156 656.332031 592.84375 C 656.207031 672.453125 656.207031 752.058594 656.332031 831.667969 C 656.332031 853.121094 670.097656 869.238281 688.820312 871.84375 C 688.695312 799.800781 688.695312 727.757812 688.820312 655.710938 C 688.820312 632.152344 705.1875 615.039062 726.886719 615.164062 C 728.5 615.164062 730.113281 615.410156 731.601562 615.660156 C 731.601562 608.21875 731.601562 600.902344 731.601562 593.464844 C 731.601562 569.65625 715.976562 552.421875 694.398438 552.296875 Z M 996.464844 239.566406 C 1008.863281 293.632812 1021.265625 347.695312 1033.664062 401.761719 C 1039.738281 401.761719 1071.234375 401.761719 1077.1875 401.761719 C 1069.625 368.652344 1062.058594 335.542969 1054.371094 302.4375 C 1047.675781 273.046875 1040.855469 243.660156 1034.160156 214.273438 C 1028.457031 189.347656 991.257812 167.152344 975.382812 149.046875 C 975.632812 149.914062 976.003906 150.660156 976.128906 151.402344 C 983.070312 180.792969 989.769531 210.179688 996.464844 239.566406 Z M 882.011719 592.71875 C 879.53125 628.308594 876.433594 663.773438 873.703125 699.359375 C 870.230469 743.503906 866.511719 787.648438 863.660156 831.792969 C 862.296875 852.996094 877.921875 870.355469 897.761719 871.96875 C 900.363281 835.386719 903.339844 798.683594 906.066406 762.105469 C 908.796875 726.515625 911.894531 691.050781 914.375 655.464844 C 916.234375 630.042969 932.355469 613.675781 955.046875 615.039062 C 955.296875 615.039062 955.542969 615.164062 955.914062 615.164062 C 956.410156 608.59375 956.90625 602.144531 957.402344 595.570312 C 958.273438 571.515625 943.765625 553.410156 922.558594 552.171875 C 899.867188 550.933594 883.746094 567.300781 882.011719 592.71875 Z M 1234.421875 539.523438 C 1228.34375 527.621094 1183.332031 478.019531 1183.332031 478.019531 C 1182.339844 514.972656 1157.789062 544.730469 1120.835938 551.304688 C 1114.015625 552.542969 1085.125 552.421875 1078.304688 553.039062 C 1077.808594 554.652344 1077.1875 555.644531 1077.0625 556.761719 C 1054.992188 683.238281 1032.921875 809.71875 1011.21875 936.324219 C 1005.390625 970.300781 989.519531 985.925781 914.003906 984.4375 L 154.503906 984.4375 C 130.945312 984.4375 108.746094 978.113281 89.652344 967.074219 L 188.976562 1066.398438 C 211.792969 1090.457031 244.15625 1105.460938 279.867188 1105.460938 L 983.566406 1105.460938 C 1075.328125 1105.460938 1081.28125 1033.042969 1087.109375 999.191406 C 1108.808594 872.589844 1131.003906 746.109375 1152.953125 619.628906 C 1153.199219 618.511719 1153.695312 617.519531 1154.191406 615.90625 C 1161.136719 615.410156 1168.203125 615.410156 1175.023438 614.171875 C 1215.449219 606.980469 1250.292969 570.773438 1234.421875 539.523438 Z M 11.035156 539.027344 C 11.035156 543.988281 11.035156 548.949219 11.035156 553.90625 C 15.375 563.457031 18.601562 573.746094 24.304688 582.179688 C 36.578125 600.285156 53.195312 610.453125 73.285156 613.925781 C 69.6875 593.464844 66.214844 573.003906 62.496094 552.296875 C 42.53125 553.289062 25.296875 548.949219 11.035156 539.027344 Z M 468.347656 552.296875 C 446.277344 552.171875 430.402344 569.53125 430.402344 594.085938 C 430.402344 672.949219 430.402344 751.6875 430.402344 830.550781 C 430.402344 852.996094 443.796875 869.363281 462.890625 871.84375 C 462.890625 800.171875 462.890625 728.625 462.890625 656.953125 C 462.890625 632.398438 478.765625 615.039062 500.835938 615.164062 C 502.449219 615.164062 504.058594 615.410156 505.671875 615.660156 C 505.671875 608.714844 505.671875 601.648438 505.671875 594.703125 C 505.671875 569.78125 490.296875 552.421875 468.347656 552.296875 Z M 223.074219 833.898438 C 224.5625 853.738281 236.59375 868.125 253.578125 871.472656 C 248.246094 802.898438 242.914062 734.453125 237.585938 665.878906 C 236.59375 653.605469 236.097656 641.699219 244.03125 631.035156 C 253.207031 618.761719 267.839844 612.933594 281.976562 615.90625 C 281.230469 606.113281 280.488281 596.316406 279.742188 586.644531 C 278.503906 570.773438 266.351562 557.132812 250.851562 553.289062 C 236.34375 549.566406 220.96875 555.644531 211.542969 568.292969 C 203.609375 578.957031 204.105469 590.984375 205.097656 603.136719 C 211.171875 680.015625 217.125 756.894531 223.074219 833.898438 Z M 223.074219 833.898438 "/>
</g>
</svg>
