<?xml version="1.0" encoding="UTF-8"?>
<svg xmlns="http://www.w3.org/2000/svg" xmlns:xlink="http://www.w3.org/1999/xlink" width="1240pt" height="1240pt" viewBox="0 0 1240 1240" version="1.1">
<defs>
<linearGradient id="linear0" gradientUnits="userSpaceOnUse" x1="0" y1="49.887" x2="99.0327" y2="49.887" gradientTransform="matrix(12.4,0,0,12.4,0,0)">
<stop offset="0" style="stop-color:rgb(53.333333%,12.156863%,100%);stop-opacity:1;"/>
<stop offset="0.2415" style="stop-color:rgb(63.137255%,23.137255%,90.588235%);stop-opacity:1;"/>
<stop offset="0.7609" style="stop-color:rgb(87.843137%,51.764706%,66.666667%);stop-opacity:1;"/>
<stop offset="1" style="stop-color:rgb(100%,65.490196%,54.901961%);stop-opacity:1;"/>
</linearGradient>
</defs>
<g id="surface1">
<path style=" stroke:none;fill-rule:nonzero;fill:url(#linear0);" d="M 139.871094 205.34375 C 210.675781 244.777344 281.480469 284.332031 352.035156 324.261719 C 367.660156 333.1875 382.292969 344.84375 395.4375 357.121094 C 420.234375 380.058594 443.671875 404.488281 467.726562 428.421875 C 465.867188 430.777344 465 432.140625 463.882812 433.257812 C 462.148438 435.117188 443.671875 445.40625 441.9375 447.269531 C 433.257812 440.324219 424.203125 433.753906 414.65625 428.421875 C 320.789062 375.222656 250.230469 336.164062 156.117188 283.589844 C 128.589844 268.089844 118.542969 227.789062 139.871094 205.34375 Z M 719.449219 681.753906 C 688.820312 651.621094 663.648438 627.191406 632.523438 596.9375 C 604.003906 623.101562 575.359375 650.753906 545.105469 676.667969 C 489.429688 724.40625 433.007812 771.15625 376.589844 818.027344 C 370.882812 822.738281 369.273438 826.957031 369.890625 834.148438 C 376.960938 908.300781 383.40625 982.574219 390.476562 1056.726562 C 392.335938 1075.699219 387.128906 1091.199219 372.742188 1103.722656 C 366.792969 1108.933594 361.460938 1115.007812 355.757812 1120.589844 C 352.902344 1123.316406 349.929688 1125.300781 346.953125 1126.910156 C 359.722656 1153.820312 372.371094 1180.605469 385.269531 1207.386719 C 395.683594 1229.089844 418.003906 1232.683594 435.363281 1216.066406 C 441.066406 1210.488281 446.398438 1204.410156 452.351562 1199.203125 C 466.734375 1186.679688 471.945312 1171.304688 470.085938 1152.207031 C 463.015625 1078.054688 456.566406 1003.78125 449.5 929.628906 C 448.757812 922.4375 450.492188 918.21875 456.195312 913.507812 C 512.617188 866.636719 569.035156 819.886719 624.710938 772.148438 C 654.84375 746.355469 722.425781 684.726562 719.449219 681.753906 Z M 338.148438 84.445312 C 333.683594 89.03125 328.847656 93.125 322.773438 98.703125 C 350.671875 106.515625 375.96875 113.957031 401.636719 120.527344 C 404.488281 121.273438 409.074219 118.914062 411.804688 116.4375 C 410.191406 113.335938 408.085938 110.359375 405.230469 107.507812 C 393.078125 94.859375 380.554688 82.585938 368.03125 70.308594 C 361.957031 64.355469 355.382812 61.257812 348.6875 60.636719 C 349.183594 68.695312 345.710938 76.878906 338.148438 84.445312 Z M 551.429688 139.128906 C 545.722656 144.957031 539.523438 150.289062 531.710938 157.480469 C 553.289062 163.679688 571.886719 169.382812 590.859375 174.097656 C 593.710938 174.839844 598.546875 171.367188 601.277344 168.640625 C 605.121094 164.921875 608.964844 161.199219 612.933594 157.355469 C 602.640625 146.941406 592.347656 136.648438 581.933594 126.480469 C 575.234375 119.90625 568.414062 116.4375 561.597656 115.691406 C 562.09375 123.628906 558.742188 131.5625 551.429688 139.128906 Z M 1082.023438 331.203125 C 1131.746094 281.726562 1174.777344 227.042969 1203.914062 162.5625 C 1217.308594 132.929688 1227.722656 102.425781 1227.972656 69.5625 C 1228.34375 30.628906 1207.882812 9.300781 1169.195312 10.789062 C 1160.640625 11.160156 1151.960938 12.152344 1143.402344 13.515625 C 1139.0625 31.867188 1132.242188 49.601562 1124.308594 66.960938 C 1095.167969 131.441406 1052.265625 186.125 1002.414062 235.601562 C 955.171875 282.472656 906.9375 328.476562 858.824219 374.355469 C 852.128906 380.679688 850.640625 385.765625 853.242188 394.816406 C 905.199219 566.804688 956.535156 738.914062 1008.242188 910.78125 C 1014.195312 930.621094 1010.847656 946.367188 995.71875 960.503906 C 980.59375 974.640625 966.332031 989.769531 951.574219 1004.277344 C 946.121094 1009.609375 940.414062 1012.957031 934.835938 1014.816406 C 949.21875 1040.609375 963.726562 1066.523438 978.113281 1092.316406 C 991.007812 1115.503906 1012.089844 1118.480469 1031.058594 1099.878906 C 1045.816406 1085.371094 1060.074219 1070.242188 1075.203125 1056.109375 C 1090.332031 1041.972656 1093.679688 1026.101562 1087.726562 1006.382812 C 1088.347656 1005.886719 1088.597656 1005.640625 1088.84375 1005.390625 C 1088.472656 1005.640625 1088.101562 1005.886719 1087.605469 1006.136719 C 1075.699219 966.703125 1063.921875 927.273438 1052.140625 887.839844 C 1049.410156 877.425781 1046.1875 865.023438 1041.972656 849.152344 C 1040.234375 842.578125 1041.105469 838.363281 1046.0625 833.527344 C 1062.804688 817.40625 1079.046875 800.914062 1095.292969 784.425781 C 1107.320312 772.273438 1107.566406 757.144531 1095.539062 744.742188 C 1084.132812 732.839844 1072.351562 721.058594 1060.449219 709.652344 C 1054.867188 704.195312 1048.792969 701.34375 1042.839844 700.847656 C 1043.210938 708.164062 1040.234375 715.480469 1033.789062 722.050781 C 1025.726562 730.113281 1017.667969 738.046875 1009.609375 746.109375 C 1000.058594 714.363281 990.511719 682.621094 980.964844 650.875 C 986.296875 645.542969 992 639.839844 992.371094 639.46875 C 1009.855469 622.355469 1027.214844 604.996094 1044.453125 587.511719 C 1055.859375 575.855469 1056.605469 560.851562 1045.691406 549.320312 C 1033.414062 536.300781 1020.769531 523.652344 1007.746094 511.375 C 1002.789062 506.789062 997.332031 504.308594 991.753906 503.8125 C 992.125 511.128906 989.273438 518.691406 982.949219 525.015625 C 972.902344 535.308594 962.613281 545.351562 952.445312 555.519531 C 945.871094 533.820312 939.425781 512.121094 932.851562 490.421875 C 930.125 481.367188 931.734375 476.285156 938.433594 469.960938 C 986.542969 424.078125 1034.78125 378.199219 1082.023438 331.203125 Z M 1088.96875 1005.390625 C 1089.835938 1004.773438 1089.835938 1004.648438 1088.96875 1005.390625 Z M 219.605469 918.59375 C 218.238281 919.460938 158.347656 1013.824219 137.144531 1066.398438 C 184.636719 1047.179688 226.671875 1022.753906 268.089844 997.207031 C 251.96875 971.042969 235.847656 944.878906 219.605469 918.59375 Z M 0 756.894531 L 0 815.796875 C 44.019531 842.085938 79.980469 860.4375 125.859375 888.707031 C 129.828125 882.382812 147.1875 856.46875 151.15625 850.019531 C 100.8125 819.144531 50.46875 788.144531 0 756.894531 Z M 0 756.894531 "/>
</g>
</svg>
