<?xml version="1.0" encoding="UTF-8"?>
<svg xmlns="http://www.w3.org/2000/svg" xmlns:xlink="http://www.w3.org/1999/xlink" width="1240pt" height="1240pt" viewBox="0 0 1240 1240" version="1.1">
<defs>
<linearGradient id="linear0" gradientUnits="userSpaceOnUse" x1="2.0528" y1="42.4552" x2="104.6156" y2="44.3904" gradientTransform="matrix(12.4,0,0,12.4,0,0)">
<stop offset="0" style="stop-color:rgb(53.333333%,12.156863%,100%);stop-opacity:1;"/>
<stop offset="0.2415" style="stop-color:rgb(63.137255%,23.137255%,90.588235%);stop-opacity:1;"/>
<stop offset="0.7609" style="stop-color:rgb(87.843137%,51.764706%,66.666667%);stop-opacity:1;"/>
<stop offset="1" style="stop-color:rgb(100%,65.490196%,54.901961%);stop-opacity:1;"/>
</linearGradient>
</defs>
<g id="surface1">
<path style=" stroke:none;fill-rule:nonzero;fill:url(#linear0);" d="M 936.449219 740.402344 L 160.457031 740.402344 C 129.953125 740.402344 102.546875 727.632812 83.078125 707.171875 L -1.363281 622.726562 C 14.878906 632.152344 33.726562 637.484375 53.816406 637.484375 L 861.800781 637.484375 C 922.683594 637.484375 972.285156 587.882812 972.285156 527 L 972.285156 211.296875 C 972.285156 191.207031 966.828125 172.359375 957.527344 156.117188 L 1041.972656 240.558594 C 1062.433594 260.027344 1075.203125 287.433594 1075.203125 317.9375 L 1075.203125 601.523438 C 1075.203125 678.28125 1013.078125 740.402344 936.449219 740.402344 Z M 379.8125 392.089844 C 379.8125 302.683594 452.226562 230.269531 541.632812 230.269531 C 631.035156 230.269531 703.453125 302.683594 703.453125 392.089844 C 703.453125 481.492188 631.035156 553.90625 541.632812 553.90625 C 452.226562 553.90625 379.8125 481.492188 379.8125 392.089844 Z M 574.738281 429.410156 C 574.738281 443.050781 563.578125 451.359375 545.847656 451.359375 C 525.265625 451.359375 510.507812 440.199219 508.152344 420.730469 L 480.5 425.566406 C 483.722656 451.730469 504.433594 470.207031 532.085938 474.671875 L 532.085938 499.222656 L 553.164062 499.222656 L 553.164062 475.539062 C 583.421875 472.8125 602.640625 453.59375 602.640625 425.566406 C 602.640625 390.972656 573.128906 386.136719 547.585938 381.546875 C 527.867188 378.074219 510.136719 374.605469 510.136719 357.367188 C 510.136719 343.480469 521.542969 336.535156 538.78125 336.535156 C 559.984375 336.535156 570.648438 346.953125 572.632812 363.070312 L 600.160156 358.359375 C 596.6875 334.179688 580.566406 317.066406 553.164062 313.101562 L 553.164062 289.042969 L 532.085938 289.042969 L 532.085938 312.480469 C 502.324219 314.960938 482.113281 331.699219 482.113281 360.21875 C 482.113281 394.691406 511.128906 400.023438 536.546875 404.859375 C 556.761719 408.828125 574.738281 412.300781 574.738281 429.410156 Z M 1208.378906 420.234375 L 1123.9375 335.792969 C 1133.359375 352.035156 1138.691406 370.882812 1138.691406 390.972656 L 1138.691406 706.550781 C 1138.691406 767.4375 1089.09375 817.035156 1028.207031 817.035156 L 220.222656 817.035156 C 200.136719 817.035156 181.289062 811.578125 165.042969 802.28125 L 249.488281 886.722656 C 268.957031 907.183594 296.359375 919.957031 326.863281 919.957031 L 1102.855469 919.957031 C 1179.488281 919.957031 1241.613281 857.832031 1241.613281 781.199219 L 1241.613281 497.613281 C 1241.734375 467.230469 1228.839844 439.703125 1208.378906 420.234375 Z M 1208.378906 420.234375 "/>
</g>
</svg>
