<?xml version="1.0" encoding="UTF-8"?>
<svg xmlns="http://www.w3.org/2000/svg" xmlns:xlink="http://www.w3.org/1999/xlink" width="1240pt" height="1240pt" viewBox="0 0 1240 1240" version="1.1">
<defs>
<linearGradient id="linear0" gradientUnits="userSpaceOnUse" x1="1.0264" y1="47.3313" x2="99.7845" y2="47.3313" gradientTransform="matrix(12.4,0,0,12.4,0,0)">
<stop offset="0" style="stop-color:rgb(53.333333%,12.156863%,100%);stop-opacity:1;"/>
<stop offset="0.2415" style="stop-color:rgb(63.137255%,23.137255%,90.588235%);stop-opacity:1;"/>
<stop offset="0.7609" style="stop-color:rgb(87.843137%,51.764706%,66.666667%);stop-opacity:1;"/>
<stop offset="1" style="stop-color:rgb(100%,65.490196%,54.901961%);stop-opacity:1;"/>
</linearGradient>
</defs>
<g id="surface1">
<path style=" stroke:none;fill-rule:nonzero;fill:url(#linear0);" d="M 1198.707031 247.503906 C 1222.515625 269.949219 1237.394531 301.816406 1237.394531 337.15625 L 1237.394531 926.527344 C 1237.394531 1015.1875 1165.601562 1086.984375 1076.941406 1086.984375 L 487.691406 1086.984375 C 452.351562 1086.984375 420.484375 1072.105469 398.039062 1048.296875 L 300.949219 951.203125 C 319.671875 961.992188 341.371094 968.191406 364.558594 968.191406 L 990.761719 968.191406 C 1061.316406 968.191406 1118.605469 910.78125 1118.605469 840.347656 L 1118.605469 214.148438 C 1118.605469 190.960938 1112.402344 169.261719 1101.617188 150.535156 Z M 326.367188 858.824219 C 342.488281 875.9375 365.179688 886.601562 390.476562 886.601562 L 485.707031 886.601562 C 549.070312 886.601562 600.285156 835.265625 600.285156 772.023438 L 600.285156 230.515625 C 600.285156 205.21875 589.621094 182.527344 572.507812 166.40625 L 502.570312 96.472656 C 509.144531 109.121094 512.863281 123.503906 512.863281 138.757812 L 512.863281 706.675781 C 512.863281 757.765625 471.324219 799.304688 420.234375 799.304688 L 298.59375 799.304688 C 283.339844 799.304688 269.078125 795.585938 256.308594 789.011719 Z M 990.015625 220.84375 L 706.550781 220.84375 L 706.550781 333.933594 L 990.015625 333.933594 Z M 848.285156 444.664062 C 831.542969 444.664062 818.027344 458.179688 818.027344 474.921875 C 818.027344 491.660156 831.542969 505.175781 848.285156 505.175781 C 865.023438 505.175781 878.539062 491.660156 878.539062 474.921875 C 878.664062 458.179688 865.023438 444.664062 848.285156 444.664062 Z M 958.273438 444.664062 C 941.53125 444.664062 928.015625 458.179688 928.015625 474.921875 C 928.015625 491.660156 941.53125 505.175781 958.273438 505.175781 C 975.011719 505.175781 988.527344 491.660156 988.527344 474.921875 C 988.652344 458.179688 975.011719 444.664062 958.273438 444.664062 Z M 738.296875 444.664062 C 721.554688 444.664062 708.039062 458.179688 708.039062 474.921875 C 708.039062 491.660156 721.554688 505.175781 738.296875 505.175781 C 755.035156 505.175781 768.550781 491.660156 768.550781 474.921875 C 768.675781 458.179688 755.035156 444.664062 738.296875 444.664062 Z M 848.285156 565.9375 C 831.542969 565.9375 818.027344 579.453125 818.027344 596.191406 C 818.027344 612.933594 831.542969 626.449219 848.285156 626.449219 C 865.023438 626.449219 878.539062 612.933594 878.539062 596.191406 C 878.664062 579.453125 865.023438 565.9375 848.285156 565.9375 Z M 958.273438 565.9375 C 941.53125 565.9375 928.015625 579.453125 928.015625 596.191406 C 928.015625 612.933594 941.53125 626.449219 958.273438 626.449219 C 975.011719 626.449219 988.527344 612.933594 988.527344 596.191406 C 988.652344 579.453125 975.011719 565.9375 958.273438 565.9375 Z M 738.296875 565.9375 C 721.554688 565.9375 708.039062 579.453125 708.039062 596.191406 C 708.039062 612.933594 721.554688 626.449219 738.296875 626.449219 C 755.035156 626.449219 768.550781 612.933594 768.550781 596.191406 C 768.675781 579.453125 755.035156 565.9375 738.296875 565.9375 Z M 848.285156 687.085938 C 831.542969 687.085938 818.027344 700.601562 818.027344 717.339844 C 818.027344 734.078125 831.542969 747.597656 848.285156 747.597656 C 865.023438 747.597656 878.539062 734.078125 878.539062 717.339844 C 878.664062 700.722656 865.023438 687.085938 848.285156 687.085938 Z M 958.273438 687.085938 C 941.53125 687.085938 928.015625 700.601562 928.015625 717.339844 C 928.015625 734.078125 941.53125 747.597656 958.273438 747.597656 C 975.011719 747.597656 988.527344 734.078125 988.527344 717.339844 C 988.652344 700.722656 975.011719 687.085938 958.273438 687.085938 Z M 738.296875 687.085938 C 721.554688 687.085938 708.039062 700.601562 708.039062 717.339844 C 708.039062 734.078125 721.554688 747.597656 738.296875 747.597656 C 755.035156 747.597656 768.550781 734.078125 768.550781 717.339844 C 768.675781 700.722656 755.035156 687.085938 738.296875 687.085938 Z M 93.371094 86.800781 L 12.773438 86.800781 L 127.71875 348.066406 C 128.589844 350.050781 131.441406 350.050781 132.308594 348.066406 L 170.5 258.167969 Z M 420.855469 86.800781 L 338.890625 86.800781 C 338.890625 86.800781 215.386719 369.769531 198.773438 395.808594 C 179.550781 426.1875 166.78125 437.71875 143.21875 441.441406 C 142.972656 441.441406 142.847656 441.6875 142.847656 441.9375 C 142.847656 442.183594 143.097656 442.433594 143.34375 442.433594 L 217.125 442.433594 C 249.117188 442.433594 272.179688 415.773438 284.953125 392.089844 C 287.058594 388.121094 291.648438 378.449219 297.847656 365.054688 Z M 420.855469 86.800781 "/>
</g>
</svg>
