<?xml version="1.0" encoding="UTF-8"?>
<svg xmlns="http://www.w3.org/2000/svg" xmlns:xlink="http://www.w3.org/1999/xlink" width="1240pt" height="1240pt" viewBox="0 0 1240 1240" version="1.1">
<defs>
<linearGradient id="linear0" gradientUnits="userSpaceOnUse" x1="41.4768" y1="18.885" x2="79.1112" y2="18.885" gradientTransform="matrix(12.4,0,0,12.4,0,0)">
<stop offset="0" style="stop-color:rgb(53.333333%,12.156863%,100%);stop-opacity:1;"/>
<stop offset="0.2415" style="stop-color:rgb(63.137255%,23.137255%,90.588235%);stop-opacity:1;"/>
<stop offset="0.7609" style="stop-color:rgb(87.843137%,51.764706%,66.666667%);stop-opacity:1;"/>
<stop offset="1" style="stop-color:rgb(100%,65.490196%,54.901961%);stop-opacity:1;"/>
</linearGradient>
<linearGradient id="linear1" gradientUnits="userSpaceOnUse" x1="1" y1="51.6841" x2="99.1476" y2="51.6841" gradientTransform="matrix(12.4,0,0,12.4,0,0)">
<stop offset="0" style="stop-color:rgb(53.333333%,12.156863%,100%);stop-opacity:1;"/>
<stop offset="0.2415" style="stop-color:rgb(63.137255%,23.137255%,90.588235%);stop-opacity:1;"/>
<stop offset="0.7609" style="stop-color:rgb(87.843137%,51.764706%,66.666667%);stop-opacity:1;"/>
<stop offset="1" style="stop-color:rgb(100%,65.490196%,54.901961%);stop-opacity:1;"/>
</linearGradient>
</defs>
<g id="surface1">
<path style=" stroke:none;fill-rule:nonzero;fill:url(#linear0);" d="M 598.546875 448.507812 C 581.4375 415.152344 571.390625 377.457031 571.640625 337.652344 C 572.382812 202.738281 681.753906 93.742188 817.035156 93.992188 C 879.65625 94.117188 937.191406 117.925781 980.964844 156.488281 C 940.664062 76.261719 856.21875 20.089844 759.625 19.839844 C 624.339844 19.59375 514.972656 128.464844 514.226562 263.5 C 513.980469 337.03125 548.203125 403.371094 598.546875 448.507812 Z M 598.546875 448.507812 "/>
<path style=" stroke:none;fill-rule:nonzero;fill:url(#linear1);" d="M 1104.714844 72.539062 C 1186.183594 213.898438 1166.21875 385.765625 1086.859375 494.265625 C 1021.636719 583.542969 935.457031 639.714844 826.335938 656.332031 C 719.074219 672.699219 619.007812 651.496094 529.230469 583.914062 C 511.5 602.269531 494.015625 617.890625 479.757812 636.121094 C 473.433594 644.179688 470.953125 657.695312 471.570312 668.359375 C 473.929688 712.875 457.558594 748.589844 426.683594 779.464844 C 340.132812 865.890625 253.703125 952.320312 168.019531 1039.492188 C 139.5 1068.507812 105.027344 1082.769531 66.214844 1089.464844 C 59.023438 1089.464844 51.832031 1089.464844 44.640625 1089.464844 C 32.984375 1087.480469 22.195312 1084.132812 12.398438 1079.792969 C 12.398438 1082.273438 12.398438 1084.628906 12.398438 1087.109375 C 27.402344 1135.46875 82.707031 1200.070312 132.433594 1209.246094 C 139.625 1209.246094 146.816406 1209.246094 154.007812 1209.246094 C 192.820312 1202.675781 227.292969 1188.292969 255.8125 1159.277344 C 341.496094 1072.105469 427.925781 985.675781 514.476562 899.246094 C 545.351562 868.371094 561.84375 832.535156 559.363281 788.144531 C 558.742188 777.355469 561.222656 763.964844 567.546875 755.902344 C 581.808594 737.675781 585.898438 735.445312 603.632812 717.09375 C 693.285156 784.671875 797.195312 796.699219 904.457031 780.332031 C 1013.699219 763.714844 1099.878906 694.152344 1164.980469 604.871094 C 1260.957031 473.554688 1256.738281 223.199219 1104.714844 72.539062 Z M 1104.714844 72.539062 "/>
</g>
</svg>
