<?xml version="1.0" encoding="utf-8"?>
<!-- Generator: Adobe Illustrator 24.0.3, SVG Export Plug-In . SVG Version: 6.00 Build 0)  -->
<svg version="1.1" id="Layer_1" xmlns="http://www.w3.org/2000/svg" xmlns:xlink="http://www.w3.org/1999/xlink" x="0px" y="0px"
	 viewBox="0 0 1440 415" style="enable-background:new 0 0 1440 415;" xml:space="preserve">
<style type="text/css">
	.st0{opacity:0.3;fill:#FFFFFF;enable-background:new    ;}
	.st1{opacity:0.4;fill:#FFFFFF;enable-background:new    ;}
	.st2{opacity:0.2;fill:#FFFFFF;enable-background:new    ;}
	.st3{opacity:0.1;fill:#FFFFFF;enable-background:new    ;}
</style>
<path class="st0" d="M269.6,160.6c0-9-7.3-16.3-16.3-16.3c-3.8,0-7.4,1.3-10.4,3.7c-4.7-8.3-13.4-13.4-22.9-13.3
	c-4.4,0-8.8,1.1-12.7,3.2c-12.6-24.1-42.3-33.5-66.5-20.9c-16.3,8.5-26.5,25.3-26.5,43.7L269.6,160.6z"/>
<path class="st1" d="M1300.4,262.9c0-12.6-10.3-22.9-22.9-22.9c-5.3,0-10.5,1.9-14.6,5.3c-6.6-11.6-18.9-18.8-32.2-18.7
	c-6.2,0-12.4,1.5-17.8,4.6c-17.7-33.9-59.5-47.1-93.5-29.4c-22.9,11.9-37.2,35.6-37.2,61.4L1300.4,262.9z"/>
<path class="st0" d="M1170.2,109.5c0-8.9-7.2-16.1-16.1-16.1c-3.7,0-7.4,1.3-10.3,3.7c-4.6-8.2-13.3-13.2-22.7-13.2
	c-4.4,0-8.7,1.1-12.5,3.2c-12.5-23.9-41.9-33.1-65.8-20.7c-16.1,8.4-26.2,25-26.2,43.2L1170.2,109.5z"/>
<path class="st2" d="M118.3,238.6c-0.1-15.7-12.9-28.3-28.5-28.2c-10.5,0.1-20,5.9-24.9,15.2c-2.2-1.2-4.7-1.9-7.3-1.9
	c-5.4,0-10.5,2.9-13.2,7.6c-4-3.3-9.9-2.7-13.2,1.3c-1.4,1.7-2.1,3.7-2.1,5.9L118.3,238.6z"/>
<path class="st2" d="M466.1,174.7c0-5.2-4.2-9.3-9.4-9.3c-2.2,0-4.2,0.8-5.9,2.1c-2.7-4.7-7.7-7.6-13.2-7.6c-2.5,0-5.1,0.6-7.3,1.9
	c-7.3-13.9-24.4-19.2-38.3-11.9c-9.3,4.9-15.1,14.4-15.2,24.9L466.1,174.7z"/>
<path class="st3" d="M472.9,234.2h-16c0-7.3,5.9-13.3,13.3-13.3l0,0c1.9,0,3.9,0.5,5.6,1.2c6.6-13.1,22.6-18.3,35.7-11.7
	c8.9,4.5,14.5,13.7,14.5,23.7L472.9,234.2L472.9,234.2z"/>
<path class="st3" d="M76.2,60.1H61.8c-0.1-6.6,5.3-12,11.9-12.1l0,0c1.7,0,3.5,0.4,5.1,1.1C82.8,41,91,35.9,100,35.9
	c13.3,0.1,23.9,11,23.8,24.2l0,0H76.2z"/>
<path class="st3" d="M1279.3,193.9h-53.1c0-14.7,11.9-26.5,26.6-26.5c10,0,19.1,5.6,23.6,14.5c1.8-0.8,3.7-1.2,5.6-1.3
	c7.3,0,13.3,5.9,13.3,13.3l0,0H1279.3z"/>
</svg>
