<?xml version="1.0" encoding="iso-8859-1"?>
<!-- Generator: Adobe Illustrator 24.0.0, SVG Export Plug-In . SVG Version: 6.00 Build 0)  -->
<svg version="1.1" id="Layer_1" xmlns="http://www.w3.org/2000/svg" xmlns:xlink="http://www.w3.org/1999/xlink" x="0px" y="0px"
	 viewBox="0 0 500 809.488" style="enable-background:new 0 0 500 809.488;" xml:space="preserve">
<linearGradient id="SVGID_1_" gradientUnits="userSpaceOnUse" x1="320.617" y1="304.6838" x2="459.1862" y2="304.6838">
	<stop  offset="8.011200e-04" style="stop-color:#6F54A3"/>
	<stop  offset="1" style="stop-color:#86C5EC"/>
</linearGradient>
<path style="fill:url(#SVGID_1_);" d="M436.867,440.525l-1.958-0.751c28.606-74.65,29.545-137,2.788-185.318
	c-19.445-35.114-50.247-55.963-72.662-67.271c-24.303-12.259-44.219-16.246-44.417-16.285l0.403-2.058
	c0.201,0.039,20.401,4.083,44.958,16.471c22.679,11.44,53.849,32.546,73.553,68.127
	C466.602,302.325,465.706,365.269,436.867,440.525z"/>
<rect x="284.878" y="307.782" transform="matrix(0.9697 -0.2442 0.2442 0.9697 -69.0831 80.56)" style="fill:#FFFFFF;" width="10.933" height="22.197"/>
<linearGradient id="SVGID_2_" gradientUnits="userSpaceOnUse" x1="220.6675" y1="233.2599" x2="220.6675" y2="48.1547">
	<stop  offset="0" style="stop-color:#D6219C"/>
	<stop  offset="1" style="stop-color:#FFA68C"/>
</linearGradient>
<path style="fill:url(#SVGID_2_);" d="M64.619,144.725l149.367,86.237c4.124,2.381,9.205,2.381,13.329,0l149.401-86.257
	c4.936-2.85,4.936-9.975,0-12.825L227.349,45.643c-4.124-2.381-9.205-2.381-13.329,0L64.619,131.899
	C59.683,134.749,59.683,141.874,64.619,144.725z"/>
<g>
	
		<linearGradient id="SVGID_3_" gradientUnits="userSpaceOnUse" x1="143.4216" y1="78.2581" x2="284.8755" y2="78.2581" gradientTransform="matrix(0.9978 -0.0662 0.0662 0.9978 -34.6735 12.7633)">
		<stop  offset="8.011200e-04" style="stop-color:#871FFF"/>
		<stop  offset="1" style="stop-color:#80C7F5"/>
	</linearGradient>
	<path style="fill:url(#SVGID_3_);" d="M115.606,73.705l2.511,75.537l9.785,4.108l115.075-77.808l7.278-71.434L240.469,0
		L115.606,73.705z"/>
	<path style="fill:#80C7F5;" d="M188.147,50.64c-17.263,10.189-30.844,31.043-30.331,46.564
		c0.521,15.545,14.943,19.848,32.199,9.656c17.255-10.18,30.845-31.017,30.322-46.565C219.823,44.776,205.403,40.459,188.147,50.64z
		"/>
	<path style="fill:#80C7F5;" d="M250.254,4.108l2.507,75.543l-124.859,73.7l-2.51-75.537L250.254,4.108z M234.484,83.548
		c-0.257-7.707,4.869-17.083,11.411-20.954l-1.143-34.132c-6.545,3.861-12.05,0.761-12.329-6.909l-87.878,51.872
		c0.252,7.68-4.851,17.049-11.399,20.917c-0.286,0.172-0.592,0.311-0.89,0.444l1.15,34.311c0.288-0.207,0.564-0.436,0.879-0.617
		c6.551-3.872,12.09-0.775,12.325,6.976L234.484,83.548L234.484,83.548z"/>
	<path style="fill:#FFFFFF;" d="M134.284,128.482c-0.315,0.18-0.591,0.409-0.879,0.617l-1.15-34.311
		c0.298-0.133,0.604-0.272,0.89-0.444c6.549-3.867,11.652-13.237,11.399-20.917l87.878-51.872c0.279,7.67,5.785,10.77,12.329,6.909
		l1.143,34.132c-6.543,3.872-11.668,13.247-11.408,20.991l-87.857,51.819C146.374,127.707,140.835,124.61,134.284,128.482z
		 M220.337,60.295c-0.514-15.518-14.934-19.836-32.19-9.655c-17.263,10.189-30.844,31.043-30.331,46.564
		c0.521,15.545,14.943,19.848,32.199,9.656C207.27,96.68,220.86,75.843,220.337,60.295L220.337,60.295z"/>
	<path style="fill:#FFFFFF;" d="M193.336,86.402l1.48-2.526l-0.043-1.177l-0.274-2.011c0,0-1.42-0.865-3.379-0.182
		c-3.405,1.186-9.566,4.095-11.697,3.292c-0.826-0.311-2.034-2.634-2.034-2.634s-0.646-4.84-0.236-6.423
		c0.668-2.583,3.108-7.917,5.544-9.465c1.811-1.151,3.079-1.827,3.079-1.827l-0.12-3.323l6.303-3.747l0.123,3.329
		c0,0,1.89-1.169,2.549-1.516c3.459-1.82,6.614-1.537,6.614-1.537l-1.895,7.878c0,0-4.003-0.616-7.193,1.305
		c-1.938,1.168-4.327,2.347-5.795,3.654c-0.797,0.709-2.09,3.549-2.09,3.549l0.042,1.191l0.644,0.938c0,0,11.29-3.188,14.703-2.042
		c0.841,0.282,1.716,1.882,2.034,2.637c0.623,1.484,1.184,5.085,0.775,6.667c-0.666,2.577-3.979,7.287-6.068,9.197
		c-0.65,0.594-3.09,1.835-3.09,1.835l0.119,3.325l-6.302,3.745l-0.099-2.704c0,0-1.899,0.625-2.601,0.907
		c-1.572,0.632-6.627,1.559-6.627,1.559l1.895-7.877c0,0,4.425-0.808,5.801-1.362c1.389-0.559,5.132-2.274,5.132-2.274
		L193.336,86.402z"/>
</g>
<g>
	
		<linearGradient id="SVGID_4_" gradientUnits="userSpaceOnUse" x1="184.5992" y1="91.5021" x2="326.0531" y2="91.5021" gradientTransform="matrix(0.9978 -0.0662 0.0662 0.9978 -34.6735 12.7633)">
		<stop  offset="8.011200e-04" style="stop-color:#871FFF"/>
		<stop  offset="1" style="stop-color:#80C7F5"/>
	</linearGradient>
	<path style="fill:url(#SVGID_4_);" d="M157.57,84.195l2.511,75.537l9.785,4.108L284.94,86.032l7.278-71.434l-9.785-4.108
		L157.57,84.195z"/>
	<path style="fill:#80C7F5;" d="M230.111,61.129c-17.263,10.189-30.844,31.043-30.331,46.564
		c0.521,15.545,14.943,19.848,32.199,9.656c17.255-10.18,30.845-31.017,30.322-46.565C261.787,55.266,247.367,50.948,230.111,61.129
		z"/>
	<path style="fill:#80C7F5;" d="M292.218,14.598l2.507,75.543l-124.859,73.7l-2.51-75.537L292.218,14.598z M276.448,94.038
		c-0.257-7.707,4.869-17.083,11.411-20.954l-1.143-34.132c-6.545,3.861-12.05,0.761-12.329-6.909l-87.878,51.872
		c0.252,7.68-4.851,17.049-11.399,20.917c-0.286,0.172-0.592,0.311-0.89,0.444l1.15,34.311c0.288-0.207,0.564-0.436,0.879-0.617
		c6.551-3.872,12.09-0.775,12.325,6.976L276.448,94.038L276.448,94.038z"/>
	<path style="fill:#FFFFFF;" d="M176.248,138.971c-0.315,0.18-0.591,0.409-0.879,0.617l-1.15-34.311
		c0.298-0.133,0.604-0.272,0.89-0.444c6.549-3.867,11.652-13.237,11.399-20.917l87.878-51.872c0.279,7.67,5.785,10.77,12.329,6.909
		l1.143,34.132c-6.543,3.872-11.668,13.247-11.408,20.991l-87.857,51.819C188.338,138.196,182.799,135.1,176.248,138.971z
		 M262.301,70.784c-0.514-15.518-14.934-19.836-32.19-9.655c-17.263,10.189-30.844,31.043-30.331,46.564
		c0.521,15.545,14.943,19.848,32.199,9.656C249.234,107.169,262.824,86.333,262.301,70.784L262.301,70.784z"/>
	<path style="fill:#FFFFFF;" d="M235.3,96.891l1.48-2.526l-0.043-1.177l-0.274-2.011c0,0-1.42-0.865-3.379-0.182
		c-3.405,1.186-9.566,4.095-11.697,3.292c-0.826-0.311-2.034-2.634-2.034-2.634s-0.646-4.84-0.236-6.423
		c0.668-2.583,3.108-7.917,5.544-9.465c1.811-1.151,3.079-1.827,3.079-1.827l-0.12-3.323l6.303-3.747l0.123,3.329
		c0,0,1.89-1.169,2.549-1.516c3.459-1.82,6.614-1.537,6.614-1.537l-1.895,7.878c0,0-4.003-0.616-7.193,1.305
		c-1.938,1.168-4.327,2.347-5.795,3.654c-0.797,0.709-2.09,3.549-2.09,3.549l0.042,1.191l0.644,0.938c0,0,11.29-3.188,14.703-2.042
		c0.841,0.282,1.716,1.882,2.034,2.637c0.623,1.484,1.184,5.085,0.775,6.667c-0.666,2.577-3.979,7.287-6.068,9.197
		c-0.65,0.594-3.09,1.835-3.09,1.835l0.119,3.325l-6.302,3.745l-0.099-2.704c0,0-1.899,0.625-2.601,0.907
		c-1.572,0.632-6.627,1.559-6.627,1.559l1.895-7.877c0,0,4.425-0.808,5.801-1.362c1.389-0.559,5.132-2.274,5.132-2.274L235.3,96.891
		z"/>
</g>
<g>
	
		<linearGradient id="SVGID_5_" gradientUnits="userSpaceOnUse" x1="222.6859" y1="99.0855" x2="364.1398" y2="99.0855" gradientTransform="matrix(0.9978 -0.0662 0.0662 0.9978 -34.6735 12.7633)">
		<stop  offset="8.011200e-04" style="stop-color:#871FFF"/>
		<stop  offset="1" style="stop-color:#80C7F5"/>
	</linearGradient>
	<path style="fill:url(#SVGID_5_);" d="M196.075,89.24l2.511,75.537l9.785,4.108l115.075-77.808l7.278-71.434l-9.785-4.108
		L196.075,89.24z"/>
	<path style="fill:#80C7F5;" d="M268.616,66.175c-17.263,10.189-30.844,31.043-30.331,46.564
		c0.521,15.545,14.943,19.848,32.199,9.656c17.255-10.18,30.845-31.017,30.322-46.565C300.292,60.312,285.872,55.994,268.616,66.175
		z"/>
	<path style="fill:#80C7F5;" d="M330.723,19.643l2.507,75.543l-124.859,73.7l-2.51-75.537L330.723,19.643z M314.953,99.084
		c-0.257-7.707,4.869-17.083,11.411-20.954l-1.143-34.132c-6.545,3.861-12.05,0.761-12.329-6.909l-87.878,51.872
		c0.252,7.68-4.851,17.049-11.399,20.917c-0.286,0.172-0.592,0.311-0.89,0.444l1.15,34.311c0.288-0.207,0.564-0.436,0.879-0.617
		c6.551-3.872,12.09-0.775,12.325,6.976L314.953,99.084L314.953,99.084z"/>
	<path style="fill:#FFFFFF;" d="M214.753,144.017c-0.315,0.18-0.591,0.409-0.879,0.617l-1.15-34.311
		c0.298-0.133,0.604-0.272,0.89-0.444c6.549-3.867,11.652-13.237,11.399-20.917l87.878-51.872c0.279,7.67,5.785,10.77,12.329,6.909
		l1.143,34.132c-6.543,3.872-11.668,13.247-11.408,20.991L227.1,150.94C226.843,143.242,221.304,140.145,214.753,144.017z
		 M300.806,75.83c-0.514-15.518-14.934-19.836-32.19-9.655c-17.263,10.189-30.844,31.043-30.331,46.564
		c0.521,15.545,14.943,19.848,32.199,9.656C287.739,112.215,301.329,91.378,300.806,75.83L300.806,75.83z"/>
	<path style="fill:#FFFFFF;" d="M273.805,101.937l1.48-2.526l-0.043-1.177l-0.274-2.011c0,0-1.42-0.865-3.379-0.182
		c-3.405,1.186-9.566,4.095-11.697,3.292c-0.826-0.311-2.034-2.634-2.034-2.634s-0.646-4.84-0.236-6.423
		c0.668-2.583,3.108-7.917,5.544-9.465c1.811-1.151,3.079-1.827,3.079-1.827l-0.12-3.323l6.303-3.747l0.123,3.329
		c0,0,1.89-1.169,2.549-1.516c3.459-1.82,6.614-1.537,6.614-1.537l-1.895,7.878c0,0-4.003-0.616-7.193,1.305
		c-1.938,1.168-4.327,2.347-5.795,3.654c-0.797,0.709-2.09,3.549-2.09,3.549l0.042,1.191l0.644,0.938c0,0,11.29-3.188,14.703-2.042
		c0.841,0.282,1.716,1.882,2.034,2.637c0.623,1.484,1.184,5.085,0.775,6.667c-0.666,2.577-3.979,7.287-6.068,9.197
		c-0.65,0.594-3.09,1.835-3.09,1.835l0.119,3.325l-6.302,3.745l-0.099-2.704c0,0-1.899,0.625-2.601,0.907
		c-1.572,0.632-6.628,1.559-6.628,1.559l1.895-7.877c0,0,4.425-0.808,5.801-1.362c1.389-0.559,5.132-2.274,5.132-2.274
		L273.805,101.937z"/>
</g>
<linearGradient id="SVGID_6_" gradientUnits="userSpaceOnUse" x1="229.6304" y1="589.7283" x2="229.6304" y2="323.6524">
	<stop  offset="0" style="stop-color:#D6219C"/>
	<stop  offset="1" style="stop-color:#FFA68C"/>
</linearGradient>
<path style="fill:url(#SVGID_6_);" d="M5.322,462.465l214.705,123.96c5.928,3.422,13.231,3.422,19.159,0l214.753-123.988
	c7.096-4.097,7.096-14.339,0-18.436l-214.705-123.96c-5.928-3.422-13.231-3.422-19.159,0L5.322,444.029
	C-1.774,448.126-1.774,458.368,5.322,462.465z"/>
<path style="fill:none;" d="M328.403,325.078c0-3.948-3.281-7.149-7.328-7.149c-0.068,0-0.132,0.018-0.2,0.02
	c-2.008-0.107-5.846-0.384-5.846-0.384l-27.173-1.136l1.634,15.827l32.805-0.149C325.759,331.537,328.403,328.618,328.403,325.078z"
	/>
<linearGradient id="SVGID_7_" gradientUnits="userSpaceOnUse" x1="413.0291" y1="314.7569" x2="391.475" y2="283.719">
	<stop  offset="0.2998" style="stop-color:#871FFF"/>
	<stop  offset="0.3275" style="stop-color:#8C25FA"/>
	<stop  offset="0.791" style="stop-color:#DE81AB"/>
	<stop  offset="1" style="stop-color:#FFA68C"/>
</linearGradient>
<path style="fill:url(#SVGID_7_);" d="M386.758,283.218l-1.112,9.464c0,0,4.89-1.732,5.029-3.257l3.414,0.041
	c0,0,5.569,4.728,8.85,6.146c2.373,1.026,4.267,1.634,4.267,1.634s-2.059-21.013-13.488-20.126
	C388.51,277.525,387.478,280.848,386.758,283.218z"/>
<circle style="fill:#FFFFFF;" cx="392.274" cy="284.873" r="5.762"/>
<path style="fill:#FFFFFF;" d="M323.315,325.23c0-3.865,3.133-6.997,6.997-6.997c0.065,0,0.126,0.017,0.19,0.019
	c1.917-0.105,3.506,0.511,3.506,0.511l4.921,1.571l1.58,15.491l-11.363-3.715C325.839,331.552,323.315,328.695,323.315,325.23z"/>
<path style="fill:#FFFFFF;" d="M411.012,357.897l3.183,7.833c1.206,3.251,4.845,4.879,8.073,3.613h0
	c3.148-1.235,4.725-4.767,3.543-7.935l-1.628-4.315L411.012,357.897z"/>
<linearGradient id="SVGID_8_" gradientUnits="userSpaceOnUse" x1="414.5027" y1="313.7336" x2="392.9486" y2="282.6957">
	<stop  offset="0.2998" style="stop-color:#59449B"/>
	<stop  offset="0.4214" style="stop-color:#76569B"/>
	<stop  offset="0.82" style="stop-color:#D3909A"/>
	<stop  offset="1" style="stop-color:#F8A79A"/>
</linearGradient>
<path style="fill:url(#SVGID_8_);" d="M386.918,282.819c1.3-2.951,3.837-2.667,3.837-2.667s4.078,8.395,8.155,10.154
	c0.299-0.698,2.718-11.598-6.49-11.595C389.814,278.712,387.637,280.448,386.918,282.819z"/>
<path style="fill:#871FFF;" d="M340.668,473.854L340.668,473.854c0,2.962,2.401,5.363,5.363,5.363h24.695l14.317-107.758
	l10.991,98.147l-4.994,0.061c-2.583,0.032-4.673,2.112-4.716,4.694l0,0c-0.045,2.668,2.106,4.856,4.774,4.856h27.145l-10.078-117.26
	c0,0-14.998,4.306-28.71,3.986c-9.732-0.227-16.125-3.986-16.125-3.986l-10.293,106.381l-7.121,0.154
	C343,468.555,340.668,470.937,340.668,473.854z"/>
<rect x="407.84" y="371.029" transform="matrix(0.9224 -0.3862 0.3862 0.9224 -115.6784 195.6334)" style="fill:#FFFFFF;" width="42.585" height="29.47"/>
<polygon style="fill:#FFFFFF;" points="415.726,377.54 412.895,369.457 428.868,362.698 432.759,370.127 431.454,370.81 
	428.192,364.583 414.742,370.274 417.115,377.053 "/>
<path style="fill:#231F20;" d="M240.142,312.312c0,0,5.282-17.734,8.34-21.359c2.479-2.937,14.558-7.079,26.85-9.961
	c1.522-0.357,6.265-1.387,9.88,4.495c4.481,7.293,7.794,21.857,7.794,21.857l-6.152,3.426l7.048,35.277
	c-4.35,7.28-32.444,9.909-32.444,9.909s-8.854-13.704-9.773-18.222c-1.277-6.284,2.766-22.65,2.766-22.65L240.142,312.312z"/>
<path style="fill:#D6219C;" d="M298.853,458.235l-21.778-0.98l-6.57-78.722l-19.744,91.754l6.495,1.031
	c3.381,0.537,5.744,3.635,5.368,7.037l0,0c-0.401,3.627-3.744,6.189-7.351,5.632l-29.203,0.071l18.888-128.649
	c0,0,36.84,1.828,48.943-9.361l2.265,98.811l4.093,0.765c3.228,0.322,5.693,3.026,5.715,6.27l0,0
	C306,455.723,302.654,458.703,298.853,458.235z"/>
<circle style="fill:#FFFFFF;" cx="265.271" cy="273.232" r="8.559"/>
<linearGradient id="SVGID_9_" gradientUnits="userSpaceOnUse" x1="263.9949" y1="255.326" x2="260.3151" y2="278.631">
	<stop  offset="0" style="stop-color:#80C7F5"/>
	<stop  offset="1" style="stop-color:#D6219C"/>
</linearGradient>
<path style="fill:url(#SVGID_9_);" d="M263.93,269.386c2.621,0.752,4.084,0.423,6.615-1.055c2.746-1.604,3.8-7.563-4.437-9.469
	c-6.808-1.576-14.443,2.216-14.415,11.952c0.025,8.637,10.15,10.384,10.15,10.384s-3.557-2.663-2.239-4.479
	c0.362-0.499,0.912-1.088,1.727-1.78c0.883-0.749,0.479-1.913,0.158-3.323C261.165,270.189,262.523,268.982,263.93,269.386z"/>
<path style="fill:#FFFFFF;" d="M260.11,285.42c0.11,4.069,6.8,7.012,10.435,5.496c2.897-1.209,3.726-7.329,1.297-9.318
	L260.11,285.42z"/>
<polygon style="fill:#D6219C;" points="327.233,312.898 326.149,312.927 325.714,305.074 327.457,305.027 "/>
<polygon style="fill:#D6219C;" points="322.477,313.401 321.731,314.188 315.87,308.943 317.069,307.677 "/>
<polygon style="fill:#D6219C;" points="331.594,314.188 330.806,313.442 336.052,307.581 337.317,308.781 "/>
<path style="fill:#FFFFFF;" d="M251.693,335.647c0.187-5.042,2.759-20.563,2.759-20.563l-14.309-2.772c0,0-6.334,20.23-5.05,26.811
	c1.405,7.197,23.586,31.119,23.586,31.119c2.219,2.057,5.685,1.925,7.742-0.294C272.66,364.276,251.388,343.86,251.693,335.647z"/>
<g>
	<linearGradient id="SVGID_10_" gradientUnits="userSpaceOnUse" x1="21.7344" y1="347.5355" x2="162.2599" y2="347.5355">
		<stop  offset="8.011200e-04" style="stop-color:#871FFF"/>
		<stop  offset="1" style="stop-color:#80C7F5"/>
	</linearGradient>
	<path style="fill:url(#SVGID_10_);" d="M162.26,246.817c-2.006-4.013-67.849-33.949-67.849-33.949V213
		c-1.425-1.236-3.259-2.013-5.283-2.013l-59.278,28.888c-6.291,2.335-8.117,6.282-8.117,10.746V439.01
		c0,4.464,0,12.068,8.117,14.391l71.906,30.682c5.508-2.168-5.656-10.417-5.656-14.881l0.874-191.035L162.26,246.817z"/>
	<path style="fill:#FFFFFF;" d="M156.391,458.6l-54.635,25.483c-4.417,0-8.031-3.614-8.031-8.031V283.45
		c0-4.417,1.806-8.322,8.031-10.632l54.635-28.582c2.905-1.434,8.031,3.614,8.031,8.031v195.702
		C164.422,452.385,161.84,456.455,156.391,458.6z"/>
	<polygon points="114.976,444.827 114.976,479.267 149.416,462.047 149.416,427.889 	"/>
	<polygon points="124.009,424.502 114.976,427.889 114.976,394.013 124.009,390.626 	"/>
	<polygon points="149.94,410.975 140.906,414.362 140.906,380.487 149.94,377.099 	"/>
	<polygon points="123.748,373.712 114.714,377.099 114.714,343.224 123.748,339.836 	"/>
	<polygon points="149.678,360.185 140.644,363.573 140.644,329.697 149.678,326.309 	"/>
	<polygon points="123.748,320.593 114.714,323.98 114.714,290.105 123.748,286.717 	"/>
	<polygon points="149.678,307.066 140.644,310.454 140.644,276.578 149.678,273.19 	"/>
</g>
<linearGradient id="SVGID_11_" gradientUnits="userSpaceOnUse" x1="340.2494" y1="810.0006" x2="340.2494" y2="624.8954">
	<stop  offset="0" style="stop-color:#D6219C"/>
	<stop  offset="1" style="stop-color:#FFA68C"/>
</linearGradient>
<path style="fill:url(#SVGID_11_);" d="M184.201,721.465l149.367,86.237c4.124,2.381,9.205,2.381,13.329,0l149.401-86.257
	c4.936-2.85,4.936-9.975,0-12.825L346.93,622.383c-4.124-2.381-9.205-2.381-13.329,0L184.201,708.64
	C179.265,711.49,179.265,718.615,184.201,721.465z"/>
<path style="fill-rule:evenodd;clip-rule:evenodd;fill:#FFFFFF;" d="M300.645,746.197c1.875,2.301,4.199,4.689,6.728,6.466
	l99.018-57.093c4.086-2.357,7.465-8.156,7.465-12.92l0.039-107.979l-27.424-21.104l-2.12-0.418l-29.745-0.495l-50.12,28.752
	c-1.4,0.804-2.679,1.883-3.841,3.226V746.197z"/>
<path style="fill-rule:evenodd;clip-rule:evenodd;fill:#FFFFFF;" d="M396.593,594.305l13.808-7.972
	c6.813-3.716,10.574-6.994,3.72-12.34l-29.159-22.723l11.643,17.72L396.593,594.305z"/>
<path style="fill-rule:evenodd;clip-rule:evenodd;fill:#80C7F5;" d="M387.407,646.356l2.768,1.642l3.672-3.781l1.388,3.46
	l3.938-2.068l-0.23,4.678l3.524,0.008l-1.815,5.089l2.502,2.075l-3.078,4.617l1.045,3.785l-3.814,3.354l-0.592,4.839l-3.89,1.505
	l-2.124,5.06l-3.293-0.604l-3.29,4.407l-2.128-2.607l-3.885,2.984l-0.594-4.156l-3.813,1.053l1.045-4.992l-3.078-1.063l2.497-4.962
	l-1.81-2.995l3.523-4.075l-0.23-4.409l3.936-2.483l1.388-5.063l3.671-0.461L387.407,646.356L387.407,646.356z M387.407,651.49
	c-6.282,3.63-11.375,12.451-11.375,19.706s5.093,10.198,11.375,6.568c6.285-3.625,11.378-12.449,11.378-19.704
	C398.785,650.804,393.691,647.865,387.407,651.49L387.407,651.49z M387.407,653.483c-5.332,3.078-9.65,10.563-9.65,16.716
	c0,6.158,4.319,8.651,9.65,5.573c5.33-3.074,9.654-10.56,9.654-16.716C397.061,652.903,392.737,650.404,387.407,653.483z"/>
<polygon style="fill-rule:evenodd;clip-rule:evenodd;fill:#80C7F5;" points="322.165,638.819 384.958,602.567 384.958,605.469 
	322.165,641.72 "/>
<polygon style="fill-rule:evenodd;clip-rule:evenodd;fill:#80C7F5;" points="322.165,654.415 390.082,615.206 390.082,618.11 
	322.165,657.324 "/>
<polygon style="fill-rule:evenodd;clip-rule:evenodd;fill:#80C7F5;" points="322.165,670.992 375.651,640.109 375.651,643.01 
	322.165,673.894 "/>
<linearGradient id="SVGID_12_" gradientUnits="userSpaceOnUse" x1="296.3107" y1="649.2087" x2="396.6046" y2="649.2087">
	<stop  offset="8.011200e-04" style="stop-color:#871FFF"/>
	<stop  offset="1" style="stop-color:#80C7F5"/>
</linearGradient>
<path style="fill-rule:evenodd;clip-rule:evenodd;fill:url(#SVGID_12_);" d="M396.605,568.99c-0.426-2.355-1.176-4.601-2.182-6.703
	c-3.018-6.306-8.338-11.315-14.113-14.08c-0.51-0.241-1.003-0.463-1.487-0.671v0.008c-8.463-3.601-12.851-1.341-20.448,2.935
	l-54.319,31.354l-0.785,0.499l-0.761,0.574l-0.736,0.644l-0.705,0.705l-0.675,0.763l-0.635,0.81l-0.592,0.857l-0.547,0.89
	l-0.498,0.917l-0.442,0.938l-0.389,0.958l-0.323,0.963l-0.261,0.966l-0.189,0.958l-0.117,0.95l-0.041,0.929l-0.049,147.451
	l0.156,1.698l0.449,1.407l0.709,1.098l0.944,0.773l8.805,5.085l-0.015-0.013l0.015,0.009l-0.462-0.378l-0.477-0.395l-0.713-1.098
	l-0.444-1.407l-0.16-1.698l0.025-73.723l0.025-73.723l0.043-0.932l0.116-0.948l0.193-0.962l0.245-0.917l-0.001,0l0.013-0.047
	l0.327-0.962l0.385-0.954l0.442-0.94l0.498-0.921l0.547-0.89l0.592-0.853l0.638-0.81l0.672-0.763l0.705-0.708l0.736-0.641
	l0.761-0.578l0.785-0.498l51.384-29.661c5.745-2.908,10.81-2.542,14.712-0.507c0.543,0.283,1.062,0.601,1.558,0.945
	c0.065,0.045,0.137,0.08,0.2,0.126c0.564,0.404,1.093,0.846,1.591,1.317c0.109,0.103,0.204,0.219,0.309,0.325
	c0.368,0.369,0.724,0.749,1.051,1.149c0.145,0.178,0.275,0.365,0.412,0.548c0.26,0.348,0.512,0.7,0.741,1.064
	c0.133,0.212,0.256,0.427,0.378,0.644c0.2,0.354,0.387,0.713,0.558,1.077c0.106,0.227,0.209,0.454,0.304,0.684
	c0.152,0.37,0.283,0.743,0.403,1.118c0.073,0.226,0.15,0.451,0.211,0.678c0.109,0.406,0.187,0.812,0.257,1.218
	c0.034,0.194,0.081,0.389,0.106,0.582c0.076,0.597,0.116,1.192,0.103,1.775l-0.003,5.682l-0.004,13.175l0,0v0.004l5.859,3.373
	l3.598,2.074v-0.002l0.004,0.002L396.605,568.99z"/>
<linearGradient id="SVGID_13_" gradientUnits="userSpaceOnUse" x1="65.2493" y1="637.0982" x2="240.5684" y2="637.0982">
	<stop  offset="8.011200e-04" style="stop-color:#6F54A3"/>
	<stop  offset="1" style="stop-color:#86C5EC"/>
</linearGradient>
<path style="fill:url(#SVGID_13_);" d="M240.507,756.969c-83.356-2.428-137.727-25.429-161.605-68.365
	c-11.268-20.261-21.341-56.208-5.34-112.388c9.546-33.516,24.094-58.738,24.24-58.988l1.813,1.053
	c-0.145,0.249-14.58,25.282-24.05,58.557c-8.713,30.616-14.889,74.682,5.173,110.751c23.494,42.241,77.269,64.878,159.83,67.282
	L240.507,756.969z"/>
</svg>
