<?xml version="1.0" encoding="utf-8"?>
<!-- Generator: Adobe Illustrator 24.0.3, SVG Export Plug-In . SVG Version: 6.00 Build 0)  -->
<svg version="1.1" id="Layer_1" xmlns="http://www.w3.org/2000/svg" xmlns:xlink="http://www.w3.org/1999/xlink" x="0px" y="0px"
	 viewBox="0 0 16 16" style="enable-background:new 0 0 16 16;" xml:space="preserve">
<style type="text/css">
	.st0{fill:#760BFC;}
</style>
<path class="st0" d="M8,0C3.6,0,0,3.6,0,8s3.6,8,8,8s8-3.6,8-8S12.4,0,8,0z M14.9,7.5h-3.2c-0.1-1.9-0.4-3.6-1-4.9
	c-0.2-0.4-0.3-0.7-0.5-1.1C12.8,2.2,14.7,4.6,14.9,7.5z M7.1,1.5C7.5,1.2,7.8,1.1,8,1.1s0.5,0.1,0.9,0.4c0.3,0.3,0.6,0.7,0.9,1.4
	c0.5,1.2,0.9,2.8,1,4.6H5.3c0.1-1.8,0.4-3.4,0.9-4.6C6.5,2.3,6.8,1.8,7.1,1.5z M5.9,1.4C5.7,1.7,5.4,2.1,5.2,2.6
	c-0.5,1.3-0.9,3-1,4.9H1.1C1.3,4.6,3.2,2.2,5.9,1.4z M1.1,8.5h3.2c0.1,1.9,0.4,3.6,1,4.9c0.2,0.4,0.3,0.7,0.5,1.1
	C3.2,13.8,1.3,11.4,1.1,8.5z M8.9,14.5c-0.3,0.3-0.6,0.4-0.9,0.4s-0.5-0.1-0.9-0.4c-0.3-0.3-0.6-0.7-0.9-1.4c-0.5-1.2-0.9-2.8-1-4.6
	h5.3c-0.1,1.8-0.4,3.4-0.9,4.6C9.5,13.7,9.2,14.2,8.9,14.5z M10.1,14.6c0.2-0.3,0.4-0.7,0.5-1.1c0.5-1.3,1-3.1,1-4.9h3.2
	C14.7,11.4,12.8,13.8,10.1,14.6z"/>
</svg>
