<?xml version="1.0" encoding="utf-8"?>
<!-- Generator: Adobe Illustrator 21.1.0, SVG Export Plug-In . SVG Version: 6.00 Build 0)  -->
<svg version="1.1" id="Layer_1" xmlns="http://www.w3.org/2000/svg" xmlns:xlink="http://www.w3.org/1999/xlink" x="0px" y="0px"
	 viewBox="0 0 16 16" style="enable-background:new 0 0 16 16;" xml:space="preserve">
<style type="text/css">
	.st0{fill:#131415;}
</style>
<g>
	<path class="st0" d="M8.7,0.2l7,6c0.4,0.4,0.5,1,0.1,1.4C15.6,7.9,15.3,8,15,8c-0.2,0-0.5-0.1-0.7-0.2L14,7.5V15c0,0.6-0.4,1-1,1H3
		c-0.6,0-1-0.4-1-1V7.5L1.7,7.8C1.2,8.1,0.6,8.1,0.2,7.6c-0.4-0.4-0.3-1,0.1-1.4L2,4.8V2c0-0.6,0.4-1,1-1s1,0.4,1,1v1.1l3.3-2.9
		C7.7-0.1,8.3-0.1,8.7,0.2z M10,14h2V5.7L8,2.3L4,5.7V14h2v-4h4V14z M6,6h4v2H6V6z"/>
</g>
</svg>
