<?xml version="1.0" encoding="utf-8"?>
<!-- Generator: Adobe Illustrator 24.0.3, SVG Export Plug-In . SVG Version: 6.00 Build 0)  -->
<svg version="1.1" id="Layer_1" xmlns="http://www.w3.org/2000/svg" xmlns:xlink="http://www.w3.org/1999/xlink" x="0px" y="0px"
	 viewBox="0 0 16 16" style="enable-background:new 0 0 16 16;" xml:space="preserve">
<style type="text/css">
	.st0{fill:#760BFC;}
</style>
<g>
	<path class="st0" d="M10.7,1C11,1.1,11.1,1.4,11,1.6l-5,13c-0.1,0.3-0.4,0.4-0.6,0.3c-0.3-0.1-0.4-0.4-0.3-0.6l5-13
		C10.1,1.1,10.4,0.9,10.7,1z M3.9,4.1C4,4.3,4,4.7,3.9,4.9L1.2,7.5l2.6,2.6c0.2,0.2,0.2,0.5,0,0.7s-0.5,0.2-0.7,0l-3-3
		C0,7.7,0,7.3,0.1,7.1l3-3C3.3,4,3.7,4,3.9,4.1z M12.9,4.1c-0.2-0.2-0.5-0.2-0.7,0c-0.2,0.2-0.2,0.5,0,0.7l2.6,2.6L12.2,10
		c-0.2,0.2-0.2,0.5,0,0.7s0.5,0.2,0.7,0l3-3c0.2-0.2,0.2-0.5,0-0.7L12.9,4.1z"/>
</g>
</svg>
