<?xml version="1.0" encoding="utf-8"?>
<!-- Generator: Adobe Illustrator 24.0.2, SVG Export Plug-In . SVG Version: 6.00 Build 0)  -->
<svg version="1.1" id="Layer_1" xmlns="http://www.w3.org/2000/svg" xmlns:xlink="http://www.w3.org/1999/xlink" x="0px" y="0px"
	 viewBox="0 0 16 16" style="enable-background:new 0 0 16 16;" xml:space="preserve">
<style type="text/css">
	.st0{fill:#760BFC;}
</style>
<path class="st0" d="M14.5,6H12V1.5c0-0.4-0.2-0.8-0.4-1.1C11.3,0.2,10.9,0,10.5,0h-9C1.1,0,0.7,0.2,0.4,0.4S0,1.1,0,1.5v12
	c0,0.4,0.2,0.8,0.4,1.1C0.7,14.8,1.1,15,1.5,15h4C5.8,15,6,14.8,6,14.5S5.8,14,5.5,14h-4c-0.1,0-0.3-0.1-0.4-0.1
	c0-0.1-0.1-0.3-0.1-0.4v-12c0-0.1,0.1-0.3,0.1-0.4C1.2,1.1,1.4,1,1.5,1h9c0.1,0,0.3,0.1,0.4,0.1c0,0.1,0.1,0.3,0.1,0.4V6H9.5
	C8.7,6,8,6.7,8,7.5v7C8,15.3,8.7,16,9.5,16h5c0.8,0,1.5-0.7,1.5-1.5v-7C16,6.7,15.3,6,14.5,6z M15,14.5c0,0.3-0.2,0.5-0.5,0.5h-5
	C9.2,15,9,14.8,9,14.5v-7C9,7.2,9.2,7,9.5,7h2h3C14.8,7,15,7.2,15,7.5V14.5z"/>
</svg>
