<?xml version="1.0" encoding="utf-8"?>
<!-- Generator: Adobe Illustrator 24.0.1, SVG Export Plug-In . SVG Version: 6.00 Build 0)  -->
<svg version="1.1" id="Layer_1" xmlns="http://www.w3.org/2000/svg" xmlns:xlink="http://www.w3.org/1999/xlink" x="0px" y="0px"
	 viewBox="0 0 840 562" style="enable-background:new 0 0 840 562;" xml:space="preserve">
<style type="text/css">
	.st0{fill:url(#SVGID_1_);}
	.st1{fill:url(#SVGID_2_);}
	.st2{fill:#FFFFFF;}
	.st3{fill:url(#SVGID_5_);}
	.st4{fill:#FFA68C;}
	.st5{fill:#DCDAED;}
	.st6{fill:none;stroke:#FFA68C;stroke-width:7.2496;stroke-miterlimit:10;}
	.st7{fill:#D6219C;}
	.st8{fill:#80C7F5;}
	.st9{clip-path:url(#SVGID_7_);}
	.st10{fill:url(#SVGID_8_);}
	.st11{fill:url(#SVGID_9_);}
	.st12{fill:#871FFF;}
	.st13{fill:url(#SVGID_10_);}
	.st14{fill:#020202;}
	.st15{fill:url(#SVGID_11_);}
	.st16{fill:url(#SVGID_12_);}
	.st17{fill:url(#SVGID_13_);}
	.st18{fill:url(#SVGID_14_);}
	.st19{fill:#362F8F;}
	.st20{fill:url(#SVGID_15_);}
	.st21{fill:url(#SVGID_16_);}
	.st22{fill:#2A3B8E;}
	.st23{fill:url(#SVGID_17_);}
	.st24{fill:url(#SVGID_18_);}
</style>
<linearGradient id="SVGID_1_" gradientUnits="userSpaceOnUse" x1="414.6472" y1="230.353" x2="414.6472" y2="487.7209">
	<stop  offset="0" style="stop-color:#80C7F5"/>
	<stop  offset="0.9992" style="stop-color:#871FFF"/>
</linearGradient>
<path class="st0" d="M15.3,275.9l224-129.3c4.7-2.7,10.4-2.7,15.1,0l223.9,129.3c5.6,3.2,5.6,11.3,0,14.5l-224,129.3
	c-4.7,2.7-10.4,2.7-15.1,0L15.3,290.4C9.7,287.2,9.7,279.2,15.3,275.9z M403.1,381.3L602,496.2c4.2,2.4,9.2,2.4,13.4,0l199-114.9
	c5-2.9,5-10,0-12.9L615.5,253.6c-4.2-2.4-9.2-2.4-13.4,0l-199,114.9C398.1,371.3,398.1,378.5,403.1,381.3z"/>
<g>
	<g>
		<linearGradient id="SVGID_2_" gradientUnits="userSpaceOnUse" x1="97.5326" y1="170.0647" x2="287.6722" y2="170.0647">
			<stop  offset="0" style="stop-color:#D6219C"/>
			<stop  offset="0" style="stop-color:#D03392"/>
			<stop  offset="0.9797" style="stop-color:#FFA68C"/>
		</linearGradient>
		<path class="st1" d="M97.5,154.9C97.5,154.9,97.5,154.9,97.5,154.9C97.5,154.9,97.5,154.9,97.5,154.9
			C97.5,154.8,97.5,154.8,97.5,154.9c0-0.1,0-0.2,0-0.3c0,0,0-0.1,0-0.2c0,0,0,0,0,0c0,0,0,0,0,0c0-0.1,0-0.1,0-0.2
			c0-0.1,0-0.1,0-0.2c0,0,0,0,0,0c0,0,0,0,0,0c0,0,0-0.1,0-0.1c0-0.1,0-0.1,0-0.2c0,0,0-0.1,0-0.1c0,0,0,0,0,0c0,0,0,0,0-0.1
			c0-0.1,0-0.1,0.1-0.2c0-0.1,0-0.1,0.1-0.2c0,0,0,0,0,0c0,0,0,0,0,0c0-0.1,0-0.1,0.1-0.2c0-0.1,0-0.1,0.1-0.2c0,0,0,0,0,0
			c0,0,0,0,0,0c0,0,0-0.1,0-0.1c0-0.1,0.1-0.1,0.1-0.2c0,0,0-0.1,0.1-0.1c0,0,0,0,0,0c0,0,0,0,0,0c0-0.1,0.1-0.1,0.1-0.2
			c0-0.1,0.1-0.1,0.1-0.2c0,0,0,0,0-0.1c0,0,0,0,0,0c0,0,0,0,0-0.1c0-0.1,0.1-0.1,0.1-0.2c0-0.1,0.1-0.1,0.1-0.2c0,0,0,0,0,0
			c0,0,0,0,0,0c0-0.1,0.1-0.1,0.1-0.2c0-0.1,0.1-0.1,0.1-0.2c0,0,0-0.1,0.1-0.1c0,0,0,0,0,0c0.1-0.1,0.1-0.2,0.2-0.2
			c0,0,0-0.1,0.1-0.1c0,0,0,0,0,0c0.1-0.1,0.2-0.2,0.2-0.3c0,0,0,0,0,0c0,0,0,0,0,0c0,0,0.1-0.1,0.1-0.1c0-0.1,0.1-0.1,0.2-0.2
			c0,0,0,0,0.1-0.1c0,0,0,0,0,0c0,0,0,0,0.1-0.1c0-0.1,0.1-0.1,0.1-0.2c0,0,0.1-0.1,0.1-0.1c0,0,0,0,0,0c0,0,0,0,0,0
			c0.1-0.1,0.1-0.1,0.2-0.1c0.1-0.1,0.1-0.1,0.2-0.1c0,0,0,0,0,0c0,0,0,0,0,0c0.1,0,0.1-0.1,0.2-0.1c0.1,0,0.1-0.1,0.2-0.1
			c0,0,0,0,0,0c0,0,0,0,0,0c0,0,0.1-0.1,0.1-0.1c0.1,0,0.1-0.1,0.2-0.1c0,0,0,0,0.1,0c0,0,0,0,0,0c0,0,0,0,0,0c0,0,0.1,0,0.1-0.1
			c0.1,0,0.1-0.1,0.2-0.1c0,0,4.2-2.4,4.3-2.5l0,0l170.8-98.7c0,0,0,0,0,0l0.3-0.1c0,0,0,0,0,0c0.2-0.1,0.4-0.2,0.5-0.3
			c0.1,0,0.1-0.1,0.2-0.1c0.1,0,0.1-0.1,0.2-0.1c0.1,0,0.1-0.1,0.2-0.1c0.1,0,0.1-0.1,0.2-0.1c0.1,0,0.1,0,0.2-0.1
			c0.1,0,0.1,0,0.2-0.1c0,0,0,0,0,0c0,0,0,0,0,0c0,0,0,0,0,0c0.1,0,0.1,0,0.2,0c0,0,0.1,0,0.1,0c0,0,0,0,0.1,0c0,0,0,0,0.1,0
			c0.1,0,0.1,0,0.2,0c0,0,0,0,0,0c0,0,0,0,0,0c0.1,0,0.2,0,0.2,0c0,0,0,0,0,0c0,0,0.1,0,0.1,0c0,0,0.1,0,0.1,0c0,0,0,0,0,0
			c0.1,0,0.1,0,0.2,0c0,0,0.1,0,0.1,0c0,0,0,0,0,0c0.1,0,0.2,0,0.3,0.1c0,0,0,0,0,0c0,0,0,0,0,0c0.1,0,0.2,0.1,0.4,0.2
			c0,0,7.1,4.8,7,4.7c0,0-174.6,99-174.6,99l0.2,0.1c0,0-4.5,2.4-4.5,2.4c-0.1,0-0.1,0.1-0.2,0.1c-0.1,0-0.1,0.1-0.2,0.1
			c-0.1,0-0.1,0.1-0.2,0.1c0,0,0,0-0.1,0.1c-0.1,0.1-0.2,0.1-0.3,0.2l0,0l0,0c-0.1,0.1-0.2,0.2-0.3,0.2c0,0,0,0,0,0
			c-0.1,0.1-0.2,0.2-0.3,0.2c0,0,0,0,0,0c-0.1,0.1-0.2,0.2-0.2,0.3c0,0,0,0,0,0c-0.1,0.1-0.2,0.2-0.2,0.3c0,0-0.1,0.1-0.1,0.1
			c0,0.1-0.1,0.1-0.1,0.2c-0.1,0.1-0.1,0.1-0.1,0.2c0,0-0.1,0.1-0.1,0.1c0,0-0.1,0.1-0.1,0.1c0,0.1-0.1,0.1-0.1,0.2c0,0,0,0,0,0.1
			c-0.1,0.1-0.1,0.2-0.2,0.3c0,0,0,0,0,0c-0.1,0.1-0.1,0.2-0.2,0.3c0,0,0,0,0,0c-0.1,0.1-0.1,0.2-0.2,0.3c0,0,0,0,0,0
			c0,0.1-0.1,0.2-0.1,0.3c0,0,0,0,0,0c0,0.1-0.1,0.2-0.1,0.3c0,0,0,0,0,0c0,0.1-0.1,0.2-0.1,0.3c0,0,0,0,0,0c0,0.1-0.1,0.2-0.1,0.3
			c0,0,0,0,0,0c0,0.1,0,0.2-0.1,0.3c0,0.1,0,0.1,0,0.2c0,0.1,0,0.1,0,0.2c0,0.1,0,0.1,0,0.2c0,0.1,0,0.1,0,0.2c0,0.1,0,0.1,0,0.2
			c0,0.1,0,0.1,0,0.2c0,0,0,0.1,0,0.3l0.4,15.5l2.7,1.5c0,0-0.1,0-0.2,0.1l3,1.6c0,0-1.3,0.7-1.3,0.8c-0.1,0-0.1,0.1-0.2,0.1
			c-0.1,0-0.1,0.1-0.2,0.1c-0.1,0-0.1,0.1-0.2,0.1c0,0,0,0-0.1,0.1c-0.1,0.1-0.2,0.1-0.3,0.2l0,0l0,0c-0.1,0.1-0.2,0.2-0.3,0.2
			c0,0,0,0,0,0c-0.1,0.1-0.2,0.2-0.3,0.2c0,0,0,0,0,0c-0.1,0.1-0.2,0.2-0.2,0.3c0,0,0,0,0,0c-0.1,0.1-0.2,0.2-0.2,0.3
			c0,0-0.1,0.1-0.1,0.1c0,0.1-0.1,0.1-0.1,0.2c-0.1,0.1-0.1,0.1-0.1,0.2c0,0-0.1,0.1-0.1,0.1c0,0-0.1,0.1-0.1,0.1
			c0,0.1-0.1,0.1-0.1,0.2c0,0,0,0,0,0.1c-0.1,0.1-0.1,0.2-0.2,0.3c0,0,0,0,0,0c-0.1,0.1-0.1,0.2-0.2,0.3c0,0,0,0,0,0
			c-0.1,0.1-0.1,0.2-0.2,0.3c0,0,0,0,0,0c0,0.1-0.1,0.2-0.1,0.3c0,0,0,0,0,0c0,0.1-0.1,0.2-0.1,0.3c0,0,0,0,0,0
			c0,0.1-0.1,0.2-0.1,0.3c0,0,0,0,0,0c0,0.1-0.1,0.2-0.1,0.3c0,0,0,0,0,0c0,0.1,0,0.2-0.1,0.3c0,0.1,0,0.1,0,0.2c0,0,0,0.1,0,0.1
			l2.1,79.2c0,0.5,1.5,3.6,1.1,3.4l-1.1-1l0.6,23.9c0,0.5,1.5,3.6,1.1,3.4l-1.5-2c0.3,0.7,0.2,2.1,0.1,2l-5.4-4
			c-0.9-0.8-1.7-1.6-1.7-2.9l-2.4-104.2c0-0.5,0-1.2,0-1.2c0-0.1,0-0.1,0-0.2c0,0,0-0.1,0-0.1c0,0,0,0,0,0c0,0,0,0,0,0c0,0,0,0,0,0
			c0-0.1,0-0.1,0-0.2c0,0,0-0.1,0-0.2c0,0,0,0,0,0c0,0,0,0,0,0c0,0,0,0,0-0.1l-0.6-24.2c0-0.5,0-1.2,0-1.2c0-0.1,0-0.1,0-0.2
			C97.5,155,97.5,154.9,97.5,154.9z"/>
	</g>
	<path class="st2" d="M104.8,183.9l-0.3-14.5l-0.2-9.6c-0.1-2.3,1.8-5.3,4.2-6.7L284.1,51.6c2.4-1.4,4.4-0.6,4.4,1.7l2.7,114.1
		c0,0,0,0,0,0l0.2,5.7c0,0.4-0.1,0.9-0.2,1.3l0.3,11c0.1,2.3-1.8,5.3-4.2,6.7L111.6,293.8c-2.4,1.4-4.4,0.6-4.4-1.7l-0.3-12.3v0v0
		l-2.5-93.6C104.4,185.4,104.5,184.7,104.8,183.9z"/>
	<g>
		<linearGradient id="SVGID_5_" gradientUnits="userSpaceOnUse" x1="110.8546" y1="274.8464" x2="382.8296" y2="274.8464">
			<stop  offset="0" style="stop-color:#D6219C"/>
			<stop  offset="0" style="stop-color:#D03392"/>
			<stop  offset="0.9797" style="stop-color:#FFA68C"/>
		</linearGradient>
		<path class="st3" d="M110.9,301l0.1-7l6.8,4.3l1.4-3.3l169.3-97.7c2-1.2,6.1-1,8.4,0.3l73.3,42.1v-1.2l11.1,5.4l1.6-0.6l-0.2,5.1
			c-0.2,1.1-0.6,1.6-1.3,2l-176.1,102c-2,1.2-5.6,1.2-8-0.2l-84.4-48.7C111.5,302.8,110.9,301.8,110.9,301L110.9,301z"/>
	</g>
	<g>
		<path class="st4" d="M205.3,345.5l176.1-101.7c2-1.2,1.8-3.3-0.6-4.6l-84.4-48.7c-2.4-1.4-5.9-1.5-8-0.3L112.3,291.9
			c-2,1.2-1.8,3.3,0.6,4.6l84.4,48.7C199.7,346.6,203.2,346.7,205.3,345.5z"/>
	</g>
	<g>
		<path class="st5" d="M261.6,132.7c0,0.1,0.1,0.1,0.1,0.1c0.1,0,0.1-0.2,0.1-0.2c0-0.1-0.1-0.1-0.1-0.1
			C261.7,132.5,261.6,132.6,261.6,132.7z"/>
	</g>
	<path class="st2" d="M291.8,204.7L144.4,289c-4.4,2.5-4.5,8.7-0.3,11.4l54.7,33.9c2.1,1.3,4.7,1.3,6.8,0.1L352,247.3
		c4.4-2.5,4.4-8.9,0-11.4l-53.6-31.1C296.3,203.6,293.9,203.5,291.8,204.7z"/>
</g>
<line class="st6" x1="149.7" y1="305.7" x2="316.6" y2="207.5"/>
<line class="st6" x1="182.8" y1="328.8" x2="349.7" y2="230.6"/>
<line class="st6" x1="163.4" y1="318.6" x2="330.4" y2="220.4"/>
<g>
	<g>
		<polygon id="SVGID_4_" points="112.2,159 114.6,279.6 284.6,182 280.7,59.3 		"/>
	</g>
</g>
<polygon points="250.6,78.8 250.6,113.5 280.6,96.2 280.6,61.3 "/>
<g>
	<path class="st4" d="M121.4,171.1c-0.1-1.7,1.5-3.9,3.4-5l144.4-80.9c2-1.1,3.6-0.6,3.7,1l2.2,87.7c0.1,1.7-2.2,4.8-4.1,5.8
		l-142.7,80c-2,1.1-3.6,0.6-3.7-1l-0.4-11c-0.1-0.2-0.1-0.4-0.1-0.6L121.4,171.1z"/>
</g>
<g>
	<path class="st7" d="M121.8,182.2l-0.4-11.1c-0.1-1.7,1.5-3.9,3.4-5l144.6-86c2-1.1,3.6-0.6,3.7,1l0.4,11.7L121.8,182.2z"/>
</g>
<g>
	<path class="st5" d="M260.3,136.9c0,0.1,0.1,0.1,0.1,0.1s0.1-0.2,0.1-0.2c0-0.1-0.1-0.1-0.1-0.1
		C260.4,136.7,260.3,136.8,260.3,136.9z"/>
</g>
<g>
	<path class="st2" d="M179.3,158.9l48.8-29.7c0.1,0,0.1-0.1,0.2-0.1l36.6-21.1c0.9-0.5,1.7,0,1.7,1.3l1.5,63.8
		c0,1.2-0.7,2.7-1.6,3.2l-48.8,28.2c-0.1,0-0.1,0.1-0.2,0.1l-36.6,21.1c-0.9,0.5-1.7,0-1.7-1.3l-1.5-62.3
		C177.6,160.9,178.4,159.5,179.3,158.9z"/>
</g>
<g>
	<path class="st8" d="M221.6,164.5l15.3-8.8c0.9-0.5,1.6-1.9,1.6-3.1l-0.4-17.5c0-1.2-0.8-1.7-1.7-1.2l-15.3,8.8
		c-0.9,0.5-1.6,1.9-1.6,3.1l0.4,17.5C220,164.4,220.7,165,221.6,164.5z"/>
</g>
<g>
	<path class="st2" d="M244.3,150.9l15.3-8.8c0.9-0.5,1.6-1.9,1.6-3.1l-0.4-17.5c0-1.2-0.8-1.7-1.7-1.2l-15.3,8.8
		c-0.9,0.5-1.6,1.9-1.6,3.1l0.4,17.5C242.7,150.9,243.4,151.4,244.3,150.9z"/>
</g>
<g>
	<path class="st8" d="M223.3,195l37.6-21.7c0.9-0.5,1.7-2,1.6-3.2l-0.5-20.1c0-1.2-0.8-1.8-1.7-1.3l-37.6,21.7
		c-0.9,0.5-1.7,2-1.6,3.2l0.5,20.1C221.6,194.9,222.4,195.5,223.3,195z"/>
</g>
<g>
	<path class="st5" d="M263.2,137.6l1.9-1.1c0.2-0.1,0.3-0.4,0.3-0.6l0,0c0-0.2-0.2-0.3-0.4-0.2l-1.9,1.1c-0.2,0.1-0.3,0.4-0.3,0.6
		l0,0C262.8,137.6,263,137.7,263.2,137.6z"/>
</g>
<g>
	<path class="st2" d="M129.3,253.4l41.4-22.3c0.8-0.4,1.4-1.6,1.3-2.6l-1.4-61.5c0-1-0.7-1.5-1.4-1l-41.4,22.3
		c-0.8,0.4-1.4,1.6-1.3,2.6l1.4,61.5C127.9,253.4,128.6,253.8,129.3,253.4z"/>
</g>
<g>
	<path class="st8" d="M190.2,213.7l22.4-12.9c2.1-1.2,3.8-4.5,3.8-7.2l-0.8-43.2c-0.1-2.8-1.8-4-4-2.8l-22.4,12.9
		c-2.1,1.2-3.8,4.5-3.8,7.2l0.8,43.2C186.3,213.7,188.1,214.9,190.2,213.7z"/>
</g>
<g>
	<g>
		<polygon id="SVGID_3_" points="264.3,140.5 242.3,153.2 242.3,127.5 264.3,114.7 		"/>
	</g>
	<g>
		<defs>
			<polygon id="SVGID_6_" points="264.3,140.5 242.3,153.2 242.3,127.5 264.3,114.7 			"/>
		</defs>
		<clipPath id="SVGID_7_">
			<use xlink:href="#SVGID_6_"  style="overflow:visible;"/>
		</clipPath>
		<g class="st9">
			
				<linearGradient id="SVGID_8_" gradientUnits="userSpaceOnUse" x1="-13.0102" y1="1241.0559" x2="-13.0102" y2="1262.7128" gradientTransform="matrix(0.866 -0.5 0 -1.1547 264.8376 1581.4236)">
				<stop  offset="0" style="stop-color:#CE3191"/>
				<stop  offset="0.9984" style="stop-color:#F7A48B"/>
			</linearGradient>
			<path class="st10" d="M257.7,136.5c2.1,3.9,4.3,9.1,4.3,14.1l-16.8,9.7c0-4.5,2.1-12.3,4.1-18.8
				C251.1,135.9,255.9,133.1,257.7,136.5z"/>
			
				<ellipse transform="matrix(0.3916 -0.9201 0.9201 0.3916 32.4287 313.8036)" class="st2" cx="253.5" cy="132.4" rx="6.7" ry="3.8"/>
			
				<linearGradient id="SVGID_9_" gradientUnits="userSpaceOnUse" x1="-13.1106" y1="1241.0569" x2="-13.1106" y2="1265.4349" gradientTransform="matrix(0.866 -0.5 0 -1.1547 264.8376 1581.4236)">
				<stop  offset="0" style="stop-color:#CE3191"/>
				<stop  offset="0.9984" style="stop-color:#F7A48B"/>
			</linearGradient>
			<path class="st11" d="M249.6,132l7.8-4.5c-0.7-1.5-2.2-1.9-3.9-0.9C251.8,127.5,250.3,129.7,249.6,132z"/>
		</g>
	</g>
</g>
<g>
	<path class="st8" d="M193.1,184.1c-0.4-0.2-0.7-0.7-0.7-1.4l-0.4-13.3c0-1.3,0.9-2.9,2-3.5l18.5-10.5c0.6-0.3,1.2-0.4,1.6-0.1
		c0.4,0.2,0.7,0.7,0.7,1.4l0.4,13.3c0,1.3-0.9,2.9-2,3.5l-18.5,10.5l0,0c-0.3,0.2-0.7,0.3-1,0.3
		C193.5,184.2,193.3,184.2,193.1,184.1z M213,173.1c1-0.6,1.9-2,1.8-3.2l-0.4-13.3c0-0.5-0.2-0.9-0.5-1c-0.3-0.2-0.8-0.1-1.2,0.1
		l-18.5,10.5c-1,0.6-1.9,2-1.8,3.2l0.4,13.3c0,0.5,0.2,0.9,0.5,1c0.3,0.2,0.8,0.1,1.2-0.1L213,173.1z"/>
</g>
<g>
	<g>
		<path class="st7" d="M190.5,181.7l18.5-10.5c1.1-0.6,2-2.1,1.9-3.3l-0.4-13.3c0-1.2-0.9-1.7-2-1.1l-18.5,10.5
			c-1.1,0.6-2,2.1-1.9,3.3l0.4,13.3C188.5,181.9,189.4,182.4,190.5,181.7z"/>
	</g>
	<g>
		<path class="st12" d="M209,171.2c0.8-0.5,1.3-1.8,0.9-2.3l-3.9-4.4c-0.5-0.6-1.6,0-2.1,1.1l-4.5,9.7l-3.3-2
			c-0.6-0.4-1.7,0.2-2.3,1.2l-4,6.4c-0.4,0.7-0.1,1.4,0.5,1L209,171.2z"/>
	</g>
	<g>
		<path class="st2" d="M191.5,166.6c0,0.8,0.6,1.1,1.3,0.7c0.7-0.4,1.2-1.3,1.2-2.1c0-0.8-0.6-1.1-1.3-0.7
			C192,164.9,191.5,165.8,191.5,166.6z"/>
	</g>
	<g>
		<g>
			<path class="st2" d="M205.9,166.1c0,0-1.9,1.2-2,1.4c-0.1,0.1-0.7,0.4-1.3,0.8l1.3-2.8c0.5-1.1,1.6-1.6,2.1-1.1l1.3,1.4
				C206.5,166,205.9,166.1,205.9,166.1z"/>
		</g>
		<g>
			<path class="st2" d="M193.7,174.4c0.7-1.1,1.7-1.6,2.3-1.2l1.1,0.6l-1.5,1.7l-3.5,1.4L193.7,174.4z"/>
		</g>
	</g>
</g>
<linearGradient id="SVGID_10_" gradientUnits="userSpaceOnUse" x1="178.0604" y1="180.9632" x2="86.1553" y2="245.6744">
	<stop  offset="0" style="stop-color:#871FFF"/>
	<stop  offset="1" style="stop-color:#80C7F5"/>
</linearGradient>
<path class="st13" d="M140.8,194.7c0-4.3-8.1-6.7-12.5-4.2l-36.1,20.8c-4.3,2.5-7.8,8-7.8,12.4v37.7c-0.1,3.9,7.7,8.9,12.3,6.9
	l31.7-24.5c4.3-2.5,7.8-8,7.8-12.4L140.8,194.7z M99.3,226.1c-2.2,1.3-3.9,0.5-3.9-1.7s1.8-4.9,3.9-6.2s3.9-0.5,3.9,1.7
	S101.4,224.9,99.3,226.1z M159.4,184.4c-1.3-0.3-3,0.2-4.3,1.2l-13.3,14.2V221l3.5,3.5c0.8,0,14.2-4.5,14.6-5.5
	c0.1-0.3,0.2-0.6,0.2-0.8l2.2-32C163,184.8,160.7,184.6,159.4,184.4z"/>
<path class="st12" d="M141.8,196.8c0-4.3-3.5-5.8-7.8-3.3l-36.1,20.8c-4.3,2.5-7.8,8-7.8,12.4v37.7c0,4.3,3.5,5.8,7.8,3.3l36.1-20.8
	c4.3-2.5,7.8-8,7.8-12.4V196.8z M104.9,229.1c-2.2,1.3-3.9,0.5-3.9-1.7c0-2.2,1.8-4.9,3.9-6.2c2.2-1.3,3.9-0.5,3.9,1.7
	S107.1,227.8,104.9,229.1z M161.5,185.7c-0.5,0-1.1,0.3-1.5,0.9L145,203.2v21.2l14.9-0.6c0.8,0,1.7-0.9,2.1-1.9
	c0.1-0.3,0.2-0.6,0.2-0.8v-34.5C162.2,186,161.9,185.7,161.5,185.7z"/>
<g>
	<path class="st14" d="M117,213.8c1.7-1,2.7-0.3,2.7,1.1c0,1.2-0.7,2.6-1.7,3.7l1.6,2.4l-1.7,1l-1.5-2.2l-1.8,1.1v3.1l-1.5,0.9v-8.7
		L117,213.8z M114.5,219.3l2.1-1.2c0.9-0.5,1.5-1.4,1.5-2.2c0-0.8-0.6-1-1.4-0.5l-2.2,1.3V219.3z"/>
	<path class="st14" d="M123.1,211.7v2l3.9-2.2v1.4l-3.9,2.2v2.3l4.2-2.4v1.4l-5.8,3.3v-8.7l5.8-3.3v1.4L123.1,211.7z"/>
	<path class="st14" d="M134.8,206.4c-0.2-1-0.9-1.1-2-0.5c-1.7,1-2.5,2.7-2.5,4.6c0,1.9,0.9,2.6,2.5,1.6c1.2-0.7,2-1.8,2.2-3.1
		l1.5-0.6c-0.3,2-1.7,3.9-3.7,5.1c-2.5,1.4-4,0.6-4-2.2c0-2.8,1.5-5.5,4.1-6.9c1.9-1.1,3.3-0.9,3.6,0.7L134.8,206.4z"/>
</g>
<g>
	<g>
		<g>
			<polygon class="st12" points="630.8,275.4 679.6,247.2 631.1,219.2 581.8,247.3 			"/>
		</g>
		<g>
			<g>
				<linearGradient id="SVGID_11_" gradientUnits="userSpaceOnUse" x1="679.5262" y1="247.1306" x2="679.5262" y2="247.1306">
					<stop  offset="0" style="stop-color:#D6219C"/>
					<stop  offset="0" style="stop-color:#871FFF"/>
					<stop  offset="1" style="stop-color:#80C7F5"/>
				</linearGradient>
				<path class="st15" d="M679.5,247.1"/>
			</g>
			<g>
				<linearGradient id="SVGID_12_" gradientUnits="userSpaceOnUse" x1="576.4149" y1="254.4742" x2="677.264" y2="299.0945">
					<stop  offset="0" style="stop-color:#D6219C"/>
					<stop  offset="0" style="stop-color:#871FFF"/>
					<stop  offset="1" style="stop-color:#80C7F5"/>
				</linearGradient>
				<polygon class="st16" points="630.8,275.4 630.7,275.3 630.7,331.4 679.5,303.2 679.5,247.2 				"/>
			</g>
		</g>
		<g>
			<g>
				<linearGradient id="SVGID_13_" gradientUnits="userSpaceOnUse" x1="568.4545" y1="272.4659" x2="669.3036" y2="317.0862">
					<stop  offset="0" style="stop-color:#D6219C"/>
					<stop  offset="0" style="stop-color:#871FFF"/>
					<stop  offset="1" style="stop-color:#80C7F5"/>
				</linearGradient>
				<polygon class="st17" points="630.8,275.4 581.8,247.3 581.8,301.6 631.6,331.5 631.6,274.9 				"/>
			</g>
			<g>
				<linearGradient id="SVGID_14_" gradientUnits="userSpaceOnUse" x1="581.7928" y1="247.2896" x2="581.7928" y2="247.2896">
					<stop  offset="0" style="stop-color:#D6219C"/>
					<stop  offset="0" style="stop-color:#871FFF"/>
					<stop  offset="1" style="stop-color:#80C7F5"/>
				</linearGradient>
				<path class="st18" d="M581.8,247.3"/>
			</g>
		</g>
	</g>
</g>
<g>
	<path class="st19" d="M673.5,259.1c0,0-14.4,19.8-25.7,14.6l17-20.6L673.5,259.1z"/>
</g>
<g>
	<g>
		<path d="M646.8,217.4c0,0-1.6,8.9,0.4,15.6c2,6.8,11.3,13.1,11.3,13.1l10.3-6.3l-13.5-12.2l-5-23.1L646.8,217.4z"/>
	</g>
</g>
<g>
	<path d="M667.6,294.9c0.8-5.7,1.4-13.9,1.7-19.2c0.3-5.8-0.6-11.6-3.8-16.6c-4.8-7.4-13.3-13.9-21.2-17.5c-5.1-2.3-9.6,5.2-4.4,7.6
		l0,0c7,3.1,15.5,9,19.1,16l-5.8,29.6"/>
	<path class="st12" d="M653.1,294.8l-1.2,6.1h18.8c1.7,0,3-1.3,3-3v0c0-1.7-1.3-3-3-3h-3.1"/>
</g>
<g>
	<path class="st12" d="M677.7,284.2c1.8,3.1,3,5.2,3,5.2l13.5-7.3c1.7-0.9,2.3-3.2,1.2-4.8l0,0c-0.9-1.3-2.7-1.8-4.1-1.1l-2.6,1.2"
		/>
	<path d="M688.6,277.5c-4.1-5.7-10.6-14.4-15.1-18.4c-4.4-3.9-7.6-4.7-13.3-3.1c-6.9,2-12.6,2.4-18.9-1.8c-4.7-3.1-9.1,4.4-4.4,7.6
		c5.9,3.9,12.5,5.4,19.4,4.3c2.4-0.4,4.6-1.2,6.9-1.8c1-0.2,0.9-0.3,1.4-0.2c1.5,0.2,8.9,12.7,13.1,20.1"/>
</g>
<g>
	<path class="st8" d="M649.1,237.3c15,9.5,25.9,14.6,24.4,21.8c0,0-7-5-12.9-1.7c-3.1,1.7-4.9,5.9-5.3,8c-1.3,5.7-5.9,9.5-7.5,8.3
		c-5.6-4.2-22-7.1-22.4-20.2c-0.4-11.1,1.2-12.4,1.2-12.4S640.9,247.9,649.1,237.3z"/>
</g>
<g>
	<g>
		<linearGradient id="SVGID_15_" gradientUnits="userSpaceOnUse" x1="638.6832" y1="241.7843" x2="660.9933" y2="254.4358">
			<stop  offset="0" style="stop-color:#D6219C"/>
			<stop  offset="0" style="stop-color:#D03392"/>
			<stop  offset="0.9797" style="stop-color:#FFA68C"/>
		</linearGradient>
		<path class="st20" d="M633.9,252.9l0-0.7l0.9,0.3l0.2-0.4l22.4-12.9c0.3-0.2,0.7-0.1,1.1,0l9.6,5.6v-0.2l1.8,0.7v0.7h0
			c0,0.1-0.1,0.1-0.2,0.2l-23.3,13.4c-0.3,0.2-0.7,0.1-1.1,0l-11.1-6.4C634,253.1,633.9,253,633.9,252.9L633.9,252.9z"/>
	</g>
	<g>
		<path class="st4" d="M646.4,259l23.3-13.4c0.3-0.2,0.2-0.4-0.1-0.6l-11.1-6.4c-0.3-0.2-0.8-0.2-1.1,0l-23.3,13.4
			c-0.3,0.2-0.2,0.4,0.1,0.6l11.1,6.4C645.6,259.1,646.1,259.1,646.4,259z"/>
	</g>
	<g>
		<path class="st2" d="M644.8,250.3l5.6-3.3c0.1,0,0.1-0.1,0-0.1l-2.7-1.6c-0.1,0-0.2,0-0.3,0l-5.6,3.3c-0.1,0-0.1,0.1,0,0.1
			l2.7,1.6C644.6,250.3,644.7,250.3,644.8,250.3z"/>
	</g>
	<g>
		<linearGradient id="SVGID_16_" gradientUnits="userSpaceOnUse" x1="642.5619" y1="234.9444" x2="664.8721" y2="247.5959">
			<stop  offset="0" style="stop-color:#D6219C"/>
			<stop  offset="0" style="stop-color:#D03392"/>
			<stop  offset="0.9797" style="stop-color:#FFA68C"/>
		</linearGradient>
		<path class="st21" d="M647,243.8c0.1-0.6,0.6-1.3,1.1-1.6l23.1-13.1c0.2-0.1,0.4-0.1,0.5-0.1l0,0l0,0c0,0,0.1,0.1,0.1,0.1l0.8,0.8
			l-0.7-0.1l-2.2,14.2c-0.1,0.6-0.6,1.3-1.1,1.6l-21.8,12.4l-0.7,0.8l-0.1,0.2c-0.4,0.1-1.5-0.7-1.5-0.7L647,243.8z"/>
	</g>
	<g>
		<path class="st7" d="M646.3,259.6l23.1-13.1c0.5-0.3,1-1,1.1-1.6l2.2-14.3c0.1-0.6-0.2-0.9-0.7-0.6l-23.1,13.1
			c-0.5,0.3-1,1-1.1,1.6l-2.2,14.3C645.5,259.7,645.8,259.9,646.3,259.6z"/>
	</g>
	<g>
		<path class="st2" d="M658.6,245.8c-0.1,0.8,0.6,0.9,1.5,0.4c1-0.6,1.9-1.6,2-2.4c0.1-0.8-0.6-0.9-1.5-0.4
			C659.6,243.9,658.7,245,658.6,245.8z"/>
	</g>
</g>
<g>
	<g>
		<path d="M614.7,226.2c0,0-2,10.7-1.5,15.6c0.5,4.8,10.5,14.9,16.8,20c3,2.4,7.5,1.5,9.3-1.9l0,0c1.5-2.9,0.6-6.5-2.2-8.2
			c-5.5-3.3-13.6-10.2-13.7-11.5c-0.5-4.5,0.1-9.8,0.1-9.8L614.7,226.2z"/>
	</g>
</g>
<g>
	<polygon class="st22" points="649.2,227.6 645.1,227.7 649.2,230.4 	"/>
</g>
<path class="st2" d="M655.1,220.5c-1-6.8-1.7-11.3-5.1-18.2c-1.3-2.6-4.4-3.8-9.9-1.9c-5.4,1.8-23.7,7.8-24.1,10.2
	c-1.5,9.2-2.5,17-3.9,27.8c-0.3,2,11.7,2.4,11.7,0.7c0-2.8,0-3,0-3l2.7,5c0.7,0.4,1.4,0.8,2.2,1.2c0.2,0.1,0.5,0.2,0.7,0.4
	c0.1,0,0.2,0.1,0.3,0.1c0.4,0.2,0.8,0.3,1.2,0.5c0.1,0,0.1,0,0.2,0.1c0.4,0.1,0.8,0.3,1.1,0.4c0.1,0,0.1,0,0.2,0.1l0,0
	c11.4,3.3,16.7-6.4,16.7-6.4c0.1-0.9,0.2-4.9,0.3-9.4C649.9,227.3,655.6,223.6,655.1,220.5z"/>
<g>
	<linearGradient id="SVGID_17_" gradientUnits="userSpaceOnUse" x1="623.8187" y1="194.5587" x2="648.5667" y2="194.5587">
		<stop  offset="0" style="stop-color:#871FFF"/>
		<stop  offset="0.9821" style="stop-color:#80C7F5"/>
	</linearGradient>
	<path class="st23" d="M647.9,189.2c0.9,2.4,1.1,5.2-0.4,7.2c-0.3,0.4-0.6,0.7-0.9,1c-0.8,0.9-1.3,1.3-1.9,2.4
		c-0.3,0.6,0.2,2.8-0.9,2.8c-0.5,0-1.2-2.5-2.3-2.6c0,0-16.6,7.9-17.4,6.7c-1.1-1.6,2.8-19.7,3.2-21.6c0.5-2.4,12.5,0.7,14.5-0.8
		c0.4-0.3,0.8-0.5,1.1-0.9l0,0c0.5-0.5,0.9-1.6,1.8-1.2c0.7,0.3,0.9,1.5,1.1,2.1C646.4,186,647.3,187.5,647.9,189.2z"/>
</g>
<circle class="st2" cx="637.4" cy="191.8" r="7.7"/>
<linearGradient id="SVGID_18_" gradientUnits="userSpaceOnUse" x1="619.5774" y1="197.7251" x2="646.7903" y2="197.7251">
	<stop  offset="0" style="stop-color:#871FFF"/>
	<stop  offset="0.9821" style="stop-color:#80C7F5"/>
</linearGradient>
<path class="st24" d="M645,182.2L645,182.2c-0.3-0.6-0.7-1.2-1.2-1.8c-1-1.2-2.3-2.2-4.8-3.1c-5.5-2-10.9-0.6-13.1,3.8l0,0
	c0,0,0,0,0,0.1c-0.3,0.6-0.5,1.3-0.7,2c-1.7,4.7-5.9,16.3-5.6,21.9c0.1,2.5,3.6,5.8,8.3,8.9c1.9,1.3,3.5,3,4.8,4.5
	c1,1.2,3,0.4,2.8-1.2c-1-7.5-6.4-10.6-7-15.6c-0.7-5.8,5.8-14.6,6.2-15.2c1.3-1.3,3.1-1,4.9-0.6c6.1,3.9,6.2,6.7,6.2,6.7
	C648.5,186,645,182.2,645,182.2z"/>
<g>
	<g>
		<g>
			<g>
				<g>
					<path class="st4" d="M551.1,328.8c0.1,0,0.1,0.1,0.2,0.1l0,0l17.5,10.2c4.9,2.8,11.5,1.4,14.9-3.2c3.4-4.6,2.1-10.6-2.7-13.5
						l-17.5-10.2l0,0c-0.1,0-0.1-0.1-0.2-0.1c-4.9-2.8-11.5-1.4-14.9,3.2C545,319.9,546.2,325.9,551.1,328.8z"/>
				</g>
			</g>
		</g>
		<g>
			<g>
				<g>
					<polygon class="st8" points="571.7,316.7 650,362.5 644.8,373.1 558.7,323 					"/>
				</g>
			</g>
		</g>
		<g>
			<g>
				<g>
					<path class="st8" d="M644.8,373.1c-3.7,3.7,1.2,4.6-4.8,7.7L564,336.4c-5.4-5.6-8-10.8-5.3-13.4L644.8,373.1z"/>
				</g>
			</g>
		</g>
		<g>
			<g>
				<g>
					<path class="st2" d="M559.3,333.8c0.1,0,0.1,0.1,0.2,0.1l0,0l7.8,4.5c-6.1-3.9,4-21.4,13.4-16.5c0.1,0,0.1,0.1,0.2,0.1l0,0
						l-8.9-5.2l0,0c-0.1,0-0.1-0.1-0.2-0.1C562.6,311.6,550.1,328.6,559.3,333.8z"/>
				</g>
			</g>
		</g>
		<g>
			<g>
				<g>
					<path class="st2" d="M640.7,381.2l26.2,0.8l-15.5-18.9C644,361.5,635.3,378.5,640.7,381.2z"/>
				</g>
			</g>
		</g>
		<g>
			<g>
				<g>
					<path class="st7" d="M668.1,382.8l-12.8-1.1c0,0-1.5-0.4-0.3-2.7c1.2-2.4-0.7-2.1,0.9-4.6c1.6-2.5,2.6-2.6,2.6-2.6L668.1,382.8
						z"/>
				</g>
			</g>
		</g>
	</g>
</g>
</svg>
