<?xml version="1.0" encoding="iso-8859-1"?>
<!-- Generator: Adobe Illustrator 24.0.0, SVG Export Plug-In . SVG Version: 6.00 Build 0)  -->
<svg version="1.1" id="Layer_1" xmlns="http://www.w3.org/2000/svg" xmlns:xlink="http://www.w3.org/1999/xlink" x="0px" y="0px"
	 viewBox="0 0 500 588.81" style="enable-background:new 0 0 500 588.81;" xml:space="preserve">
<linearGradient id="SVGID_1_" gradientUnits="userSpaceOnUse" x1="555.1835" y1="444.6601" x2="269.2147" y2="330.7714">
	<stop  offset="0.2263" style="stop-color:#80C7F5"/>
	<stop  offset="0.9224" style="stop-color:#D6219C"/>
</linearGradient>
<path style="fill:url(#SVGID_1_);" d="M489.866,495.775c-0.758,0-1.491,0.097-2.201,0.254l-1.022-244.668
	c0-2.639-2.152-4.779-4.807-4.779c-2.654,0-4.807,2.14-4.807,4.779v19.571h-4.864V257.97c0-1.771-1.436-3.207-3.208-3.207h-0.504
	c-0.086,0-0.158,0.042-0.242,0.049v-0.049h-4.349v-0.393h-21.572v-33.056h-20.635v49.618h-4.93v-10.695v-9.4v-3.096v-1.586v-6.414
	c0-2.004-1.634-3.628-3.649-3.628h-0.816v-1.017h0.522c0.278,0,0.504-0.226,0.504-0.504v-0.073c0-0.278-0.226-0.504-0.504-0.504
	h-0.349l-0.536-6.058c-0.031-0.349-0.324-0.616-0.676-0.616h-2.168h-1.265h-2.16c-0.351,0-0.645,0.267-0.676,0.616l-0.543,6.059
	h-0.349c-0.278,0-0.504,0.225-0.504,0.504v0.073c0,0.278,0.226,0.504,0.504,0.504h0.522v1.017h-0.816
	c-2.015,0-3.649,1.624-3.649,3.628v31.19H285.193v-19.571c0-2.639-2.152-4.779-4.807-4.779c-2.654,0-4.806,2.14-4.806,4.779
	l-1.283,246.46c0,3.305,1.768,6.175,4.393,7.785c-0.002,0.084-0.024,0.162-0.024,0.247c0,5.565,4.536,10.364,10.133,10.364
	c5.597,0,10.134-4.799,10.134-10.364c0-5.565-4.538-10.077-10.134-10.077c-0.758,0-1.491,0.097-2.201,0.254l-1.404-98.74h191.837
	l-1.666,100.531c0,3.305,1.768,6.175,4.394,7.785c-0.002,0.084-0.025,0.162-0.025,0.247c0,5.565,4.536,10.364,10.133,10.364
	c5.597,0,10.134-4.799,10.134-10.364C500,500.286,495.464,495.775,489.866,495.775z M477.031,374.168h-85.761l2.786-7.388h1.737
	c0.951,0,1.722-0.771,1.722-1.722v-0.25c0-0.951-0.771-1.722-1.722-1.722h-98.906c-0.951,0-1.722,0.771-1.722,1.722v0.25
	c0,0.951,0.771,1.722,1.722,1.722h1.737l2.786,7.388h-16.216v-78.775h191.837V374.168z"/>
<g>
	<path style="fill:#FFFFFF;" d="M110.276,116.196l62.299-1.66c0,0,23.724-60.41,37.183-74.101
		c8.411-8.556,16.524-10.168,28.254-7.643c13.126,2.825,26.104,10.857,32.381,17.603c23.297,25.037,72.797,115.922,72.797,115.922
		l-36.484,8.849l-25.839-39.748l21.947,161.576l-53.486-16.146l-20.403-43.986h-47.773l-20.901,46.972l-35.045,8.989l38.056-136.102
		l-48.365-0.106L110.276,116.196z"/>
	<circle cx="238.012" cy="16.396" r="16.396"/>
	<path d="M75.288,143.324c-3.447-10.442,2.223-21.7,12.664-25.147c0.176-0.058,0.355-0.065,0.532-0.118
		c5.087-1.994,9.927-1.746,9.927-1.746l14.696-0.145l1.792,40.447l-17.719,0.097C86.249,156.941,78.379,152.686,75.288,143.324z"/>
	<path d="M306.706,175.166l12.839,20.345c5.007,8.501,16.014,11.239,24.421,6.076l0,0c8.2-5.037,10.846-15.718,5.947-24.001
		l-6.722-11.269L306.706,175.166z"/>
	<linearGradient id="SVGID_2_" gradientUnits="userSpaceOnUse" x1="222.353" y1="19.3266" x2="254.2368" y2="7.7745">
		<stop  offset="0" style="stop-color:#FFA68C"/>
		<stop  offset="0.2985" style="stop-color:#DE81AB"/>
		<stop  offset="0.9604" style="stop-color:#8C25FA"/>
		<stop  offset="1" style="stop-color:#871FFF"/>
	</linearGradient>
	<path style="fill:url(#SVGID_2_);" d="M237.972,0c9.077,0,16.436,7.358,16.436,16.436c0,2.297-0.478,4.48-1.329,6.466
		C250.431,21.804,247,7.647,247,7.647s-18.783,5.868-24.684,4.041C224.363,4.942,230.558,0,237.972,0z"/>
	<path style="fill:#FA7554;" d="M13.907,507.418c0.279,0,0.54,0.066,0.815,0.082c1.649,0.013,3.435,0.301,5.371,1.032l24.184,11.717
		l101.361-233.723l14.613-2.691l20.901-46.972h47.773l20.403,43.986l39.668,11.975l4.261,86.633L355.37,588.81h-96.639
		c-8.399,0-15.283-6.663-15.558-15.057l0,0c-0.282-8.637,6.525-15.851,15.164-16.07l17.904-0.452l-43.266-166.706l-9.131-126.93
		L93.104,570.506L9.585,534.478c-0.795-0.261-1.551-0.588-2.275-0.982l-0.8-0.345c0,0-0.126-0.098-0.315-0.26
		C2.462,530.397,0,526.151,0,521.325C0,513.644,6.227,507.418,13.907,507.418z"/>
	<polygon points="244.061,47.748 215.306,99.448 218.948,47.561 227.432,55.004 	"/>
	<g>
		<path d="M245.851,128.42l-4.134-1.977l9.371-19.595c1.24-2.596,1.395-5.519,0.437-8.232c-0.959-2.713-2.916-4.89-5.512-6.13
			c-2.596-1.24-5.519-1.396-8.233-0.437c-2.713,0.959-4.89,2.916-6.13,5.512l-9.372,19.595l-4.134-1.977l9.371-19.594
			c1.768-3.7,4.871-6.49,8.738-7.857c3.868-1.366,8.035-1.145,11.735,0.623c3.7,1.768,6.491,4.872,7.857,8.739
			c1.367,3.867,1.145,8.034-0.623,11.735L245.851,128.42z"/>
		<path d="M248.557,92.1l-3.113-3.363c0.111-0.103,11.369-10.797,11.676-27.76c0.226-12.517-9.349-20.094-9.445-20.169l2.809-3.62
			c0.469,0.364,11.485,9.085,11.217,23.872C261.357,80.035,249.079,91.616,248.557,92.1z"/>
		<g>
			<path d="M199.368,60.6l-4.334-1.487c5.379-15.676,14.193-24.218,26.946-26.113l0.673,4.533
				C211.604,39.174,204.205,46.504,199.368,60.6z"/>
			<circle cx="197.201" cy="59.856" r="4.852"/>
			<circle cx="220.211" cy="116.168" r="4.852"/>
			<circle cx="243.804" cy="127.431" r="4.852"/>
		</g>
	</g>
</g>
</svg>
