<?xml version="1.0" encoding="iso-8859-1"?>
<!-- Generator: Adobe Illustrator 24.0.0, SVG Export Plug-In . SVG Version: 6.00 Build 0)  -->
<svg version="1.1" id="Layer_1" xmlns="http://www.w3.org/2000/svg" xmlns:xlink="http://www.w3.org/1999/xlink" x="0px" y="0px"
	 viewBox="0 0 500 547.885" style="enable-background:new 0 0 500 547.885;" xml:space="preserve">
<path style="fill:#FFFFFF;" d="M34.183,130.676c0,0,12.83-43.079,20.26-51.883c6.021-7.135,35.363-17.197,65.222-24.198
	c3.697-0.867,15.22-3.37,23.999,10.92c10.885,17.716,18.932,53.094,18.932,53.094l-14.945,8.322l17.121,85.694
	c-10.567,17.685-78.81,24.07-78.81,24.07s-21.508-33.289-23.739-44.265c-3.103-15.266,6.719-55.021,6.719-55.021L34.183,130.676z"/>
<path d="M438.929,353.619l9.702,88.454l-4.93,1.763c-5.845,2.09-9.078,8.345-7.403,14.322l0,0c1.76,6.28,8.273,9.948,14.555,8.199
	l29.822-8.305l-8.452-104.433H438.929z"/>
<path d="M403.307,336.945l-10.481,77.927l-8.985,3.271c-6.026,2.194-9.397,8.609-7.785,14.817v0
	c1.708,6.575,8.375,10.563,14.976,8.96l28.142-6.837l14.149-96.702L403.307,336.945z"/>
<path d="M162.596,118.609l-14.945,8.322l17.121,85.694l-3.413,26.78c0.871,5.996,5.917,10.505,11.974,10.696
	c7.774,0.246,13.883-6.592,12.765-14.289L162.596,118.609z"/>
<path style="fill:#D6219C;" d="M176.801,485.144l-52.901-2.38l-15.96-191.228L59.978,514.421l15.776,2.504
	c8.213,1.303,13.954,8.829,13.04,17.095l0,0c-0.974,8.811-9.096,15.033-17.857,13.681L0,547.872l45.883-312.509
	c0,0,89.491,4.44,118.89-22.739l5.502,240.027l9.942,1.859c7.84,0.782,13.828,7.351,13.883,15.23v0
	C194.163,479.043,186.034,486.282,176.801,485.144z"/>
<path d="M75.533,268.267c0,0-49.018-48.913-53.616-72.463c-3.121-15.986,12.266-65.128,12.266-65.128l34.759,6.732
	c0,0-8.314,37.8-6.701,49.951c2.341,17.639,29.774,58.809,29.774,58.809S82.042,262.318,75.533,268.267z"/>
<linearGradient id="SVGID_1_" gradientUnits="userSpaceOnUse" x1="357.021" y1="142.0455" x2="161.3173" y2="-107.5476" gradientTransform="matrix(0.997 -0.0768 0.0768 0.997 -14.7382 67.25)">
	<stop  offset="0" style="stop-color:#85C6ED"/>
	<stop  offset="1" style="stop-color:#CF3293"/>
</linearGradient>
<path style="fill:url(#SVGID_1_);" d="M208.405,67.804c7.655-2.78,37.091-7.751,41.087-8.401
	c4.212-0.685,13.627-34.11-13.114-44.143l-28.093-3.81C189.266,29.626,202.82,69.832,208.405,67.804z"/>
<circle cx="231.116" cy="38.102" r="20.715"/>
<circle cx="442.866" cy="65.78" r="21.784"/>
<circle cx="95.226" cy="35.745" r="20.792"/>
<linearGradient id="SVGID_2_" gradientUnits="userSpaceOnUse" x1="363.3763" y1="136.7908" x2="167.8605" y2="-112.5626" gradientTransform="matrix(0.997 -0.0768 0.0768 0.997 -14.7382 67.25)">
	<stop  offset="0" style="stop-color:#80C7F5"/>
	<stop  offset="1" style="stop-color:#D6219C"/>
</linearGradient>
<path style="fill:url(#SVGID_2_);" d="M245.562,21.844c5.852-2.63,1.973-9.127-3.09-13.066c-2.719-2.115-5.918-3.691-11.777-4.5
	c-16.404-2.264-30.069,7.838-28.155,28.573c0,0,3.177,28.261,17.593,28.605C220.133,61.455,207.915,38.766,245.562,21.844z"/>
<linearGradient id="SVGID_3_" gradientUnits="userSpaceOnUse" x1="264.4604" y1="250.0652" x2="68.9446" y2="0.7118">
	<stop  offset="0" style="stop-color:#80C7F5"/>
	<stop  offset="1" style="stop-color:#D6219C"/>
</linearGradient>
<path style="fill:url(#SVGID_3_);" d="M91.966,26.401c6.366,1.827,9.921,1.028,16.068-2.562c6.67-3.896,9.23-18.371-10.778-23.001
	C80.718-2.989,62.172,6.221,62.241,29.871c0.061,20.98,24.657,25.224,24.657,25.224s-8.64-6.469-5.44-10.879
	c0.879-1.212,2.216-2.643,4.195-4.324c2.144-1.82,1.162-4.648,0.385-8.073C85.251,28.352,88.549,25.42,91.966,26.401z"/>
<g>
	<path style="fill:#D6219C;" d="M217.24,320.788c-1.887-7.956-4.013-16.051-6.399-24.548c-1,13.751-1.038,27.156-0.096,39.089
		c21.55,2.971,37.272,0.553,48.455-3.726c-1.405-3.418-2.665-7.121-3.764-11.082C246.178,325.203,233.289,323.64,217.24,320.788z"/>
	<path style="fill:#D6219C;" d="M273.944,169.197c0,0-37.033,20.537-50.791,22.183c-8.801,1.053-34.922-6.124-34.922-6.124
		l-2.688,138.926c-0.28,5.404,1.917,6.398,7.546,7.76c-3.614-33.558-2.274-56.816,5.45-76.436c0,0,0.065,0.025,0.184,0.073
		c2.54-4.941,25.753-22.396,48.706-26.979c9.23-2.225,18.032,10.383,19.026,19.824c2.294,21.798,6.064,53.786,8.1,74.36
		c3.488-2.928,5.811-5.785,7.161-7.955c0.924-1.485,1.403-3.136,1.41-4.836L273.944,169.197z"/>
</g>
<path d="M200.535,500.914l22.598-0.017c3.626-0.003,6.564-2.943,6.564-6.569v0c0-3.617-2.924-6.554-6.541-6.569l-4.674-0.02
	l21.144-112.552l-28.44-0.412L200.535,500.914z"/>
<path d="M176.942,176.04l24.905-22.421l22.228,48.795c4.122,4.909,3.403,12.248-1.594,16.263l0,0
	c-5.112,4.108-12.625,3.083-16.449-2.245L176.942,176.04z"/>
<path d="M246.004,483.745l22.766-0.017c3.626-0.003,6.564-2.943,6.564-6.569v0c0-3.617-2.924-6.554-6.541-6.569l-5.668-0.031
	l-2.944-95.784l-26.992,5.914L246.004,483.745z"/>
<path d="M277.53,340.877l-1.47-10.548l-15.39,12.898c0.649,4.656,4.949,7.904,9.605,7.255h0
	C274.93,349.834,278.179,345.533,277.53,340.877z"/>
<path d="M220.338,249.639c1.139,3.147,15.691,10.044,24.096,7.003c8.405-3.041,1.254-12.891-0.388-15.807
	c-1.757-3.119-5.514-3.963-13.919-0.922C221.721,242.955,219.199,246.493,220.338,249.639z"/>
<path style="fill:#D6219C;" d="M273.807,386.844l-12.102-72.303c0,0-6.269,5.98-20.093,5.892
	c-18.508-0.117-26.088-6.621-26.088-6.621c-2.06,2.438-3.891,5.335-5.538,8.537c0.2,10.725,1.06,20.723,2.615,29.311l-10.878-4.865
	c-5.892,26.432-5.676,55.749-5.676,55.749C206.734,421.584,277.473,417.748,273.807,386.844z"/>
<path d="M212.701,350.995l-18.331-8.198l1.47,10.548c0.649,4.656,4.949,7.904,9.605,7.255h0
	C210.101,359.952,213.35,355.651,212.701,350.995z"/>
<g>
	<path style="fill:#871FFF;" d="M443.399,344.055l3.778-124.151l-34.309-3.582l-10.773,111.729l-7.216-16.057v28.212
		c11.471,27.845,65.258,44.341,105.121,23.929l-0.39-27.621C499.61,336.514,472.101,350.325,443.399,344.055z"/>
</g>
<linearGradient id="SVGID_4_" gradientUnits="userSpaceOnUse" x1="393.5328" y1="225.6838" x2="451.975" y2="173.6171" gradientTransform="matrix(0.9675 0.253 -0.253 0.9675 92.0901 -237.4768)">
	<stop  offset="0" style="stop-color:#D6219C"/>
	<stop  offset="1" style="stop-color:#80C7F5"/>
</linearGradient>
<path style="fill:url(#SVGID_4_);" d="M451.032,87.964c0.733,1.726,1.09,3.386,0.265,5.857c-0.629,1.885-2.165,3.667-2.911,5.596
	c0,0,8.383-5.121,7.918-9.297c-0.126-1.128-0.456-2.17-0.874-3.177c5.956-2.484,9.914-8.874,12.37-14.561
	c0.103-0.015,0.205-0.048,0.308-0.068c0.182,0.011,0.36,0.037,0.544,0.041c8.589,0.22,15.729-6.563,15.95-15.152
	c0.22-8.589-6.563-15.73-15.152-15.95c-0.969-0.025-1.916,0.051-2.84,0.197c-5.366-5.927-14.282-8.837-24.223-7.784
	c-6.512,0.69-10.107,2.321-13.19,4.566c-5.742,4.182-9.642,10.2-3.878,14.35c5.312,3.825,18.541-2.021,22.548,6.834
	c0.185,0.408-1.172,12.432-0.565,17.969c0.324,2.961,1.258,5.257,2.502,7.945c0.059,0.128,0.117,0.244,0.176,0.368"/>
<path style="fill:#871FFF;" d="M378.482,195.316l44.992,9.345c2.539,0.527,4.875-1.526,4.679-4.111l-5.438-71.649
	c-0.132-1.732-1.393-3.168-3.094-3.521l-44.992-9.344c-2.539-0.527-4.875,1.525-4.679,4.111l5.438,71.649
	C375.52,193.527,376.781,194.963,378.482,195.316z"/>
<path d="M425.204,93.752c0,0-3.83,9.079,5.113,12.886c15.097,6.427,31.58-8.44,31.58-8.44
	C441.076,93.752,436.522,95.64,425.204,93.752z"/>
<linearGradient id="SVGID_5_" gradientUnits="userSpaceOnUse" x1="273.8577" y1="165.8197" x2="78.342" y2="-83.5337" gradientTransform="matrix(0.9893 -0.1457 0.1457 0.9893 -36.4774 129.9011)">
	<stop  offset="0" style="stop-color:#80C7F5"/>
	<stop  offset="1" style="stop-color:#D6219C"/>
</linearGradient>
<path style="fill:url(#SVGID_5_);" d="M244.316,191.051c0.002,0,0.018-0.005,0.018-0.005c-0.102-0.113-0.214-0.198-0.317-0.307
	c-0.112-0.114-0.231-0.249-0.341-0.358l-0.017,0.009c-10.783-10.966-27.188-4.841-32.404,0.212c-2.685,2.601-4.43,5.532-5.528,8.541
	l-0.001-0.001c-0.002,0.006-0.004,0.013-0.006,0.019c-0.428,1.178-0.758,2.366-1.001,3.552
	c-4.386,18.955-10.896,44.973-1.142,47.721c10.158,2.862,18.018,18.194,23.793,23.118c3.894,3.319,9.774-0.161,8.741-5.172
	c-1.247-6.053-5.126-18.398-7.079-31.829c5.663-4.125,9.934-4.904,16.677-7.314c1.754-0.706,5.402-0.909,7.208-0.392
	C262.123,219.652,251.816,198.851,244.316,191.051z"/>
<path d="M436.347,170.272c-4.718-4.245-9.714-9.34-13.679-13.543c-4.323-4.582-11.506-4.894-16.235-0.733v0
	c-5.073,4.464-5.331,12.271-0.562,17.058c7.513,7.542,21.653,20.155,30.476,26.628V170.272z"/>
<path d="M236.953,195.804c-3.849,3.816-7.951,10.529-8.928,22.117c-0.357,6.149,0.144,12.574,1.05,18.766
	c1.182,0.028,2.379-0.021,3.589-0.199c11.539-1.699,19.516-12.43,17.817-23.969C249.319,204.629,243.932,198.409,236.953,195.804z"
	/>
<path d="M215.608,72.022c0.267,9.884,29.939,23.834,29.939,23.834s9.05-25.51,3.149-30.342L215.608,72.022z"/>
<path d="M82.689,68.687c0.267,9.884,16.519,17.034,25.348,13.351c7.038-2.936,9.051-17.804,3.15-22.635L82.689,68.687z"/>
<path d="M326.983,126.893c0-6.351-5.148-11.498-11.499-11.498c-0.107,0-0.207,0.029-0.313,0.032c-3.151-0.172-5.761,0.84-5.761,0.84
	l-19.265,6.72l-2.596,25.457l29.852-10.245C322.834,137.282,326.983,132.587,326.983,126.893z"/>
<path d="M326.983,127.72c0-6.351,5.148-11.498,11.498-11.498c0.107,0,0.207,0.029,0.313,0.032c3.151-0.172,5.761,0.84,5.761,0.84
	l15.447,5.067l2.596,25.457l-26.033-8.592C331.132,138.108,326.983,133.414,326.983,127.72z"/>
<polygon style="fill:#D6219C;" points="328.044,101.315 326.245,101.363 325.523,88.335 328.415,88.257 "/>
<polygon style="fill:#D6219C;" points="320.153,102.149 318.915,103.456 309.192,94.753 311.182,92.654 "/>
<polygon style="fill:#D6219C;" points="335.278,103.456 333.972,102.218 342.674,92.495 344.774,94.484 "/>
</svg>
