<?xml version="1.0" encoding="iso-8859-1"?>
<!-- Generator: Adobe Illustrator 24.0.0, SVG Export Plug-In . SVG Version: 6.00 Build 0)  -->
<svg version="1.1" id="Layer_1" xmlns="http://www.w3.org/2000/svg" xmlns:xlink="http://www.w3.org/1999/xlink" x="0px" y="0px"
	 viewBox="0 0 500 269.184" style="enable-background:new 0 0 500 269.184;" xml:space="preserve">
<circle cx="74.732" cy="7.736" r="7.736"/>
<path d="M137.382,60.005c0-5.188-4.206-9.394-9.394-9.394c-0.088,0-0.169,0.023-0.256,0.026c-2.574-0.141-4.706,0.686-4.706,0.686
	l-6.606,2.109l-2.121,20.797l15.255-4.988C133.992,68.492,137.382,64.657,137.382,60.005z"/>
<path d="M40.453,84.086l-7.272,8.716c-2.871,3.664-8.19,4.26-11.8,1.321l0,0c-3.521-2.866-4.094-8.027-1.287-11.596l3.846-4.852
	L40.453,84.086z"/>
<linearGradient id="SVGID_1_" gradientUnits="userSpaceOnUse" x1="141.819" y1="77.6784" x2="74.1942" y2="6.8333">
	<stop  offset="0.2998" style="stop-color:#871FFF"/>
	<stop  offset="0.3275" style="stop-color:#8C25FA"/>
	<stop  offset="0.791" style="stop-color:#DE81AB"/>
	<stop  offset="1" style="stop-color:#FFA68C"/>
</linearGradient>
<path style="fill:url(#SVGID_1_);" d="M74.751,0c-4.283,0-7.755,3.472-7.755,7.755c0,1.084,0.225,2.114,0.627,3.051
	c1.25-0.518,2.868-7.198,2.868-7.198s8.863,2.769,11.647,1.907C81.172,2.332,78.249,0,74.751,0z"/>
<path style="fill:#871FFF;" d="M180.472,239.417c-0.132,0-0.255,0.031-0.384,0.039c-0.778,0.006-1.621,0.142-2.534,0.487
	l-11.411,5.528l-47.826-110.279l-6.895-1.27l-9.862-22.163H79.019l-9.627,20.754l-18.717,5.65l-0.504,10.248L0,178.154
	l23.564,38.894c1.265,2.419,3.46,4.776,6.522,4.776c3.803,0,6.886-3.083,6.886-6.886c0-1.461-0.461-2.81-1.237-3.924l-6.893-13.933
	l49.571-30.944l3.004-41.765l61.688,144.812l39.407-16.999c0.375-0.123,0.732-0.277,1.074-0.463l0.378-0.163
	c0,0,0.059-0.046,0.149-0.123c1.761-1.177,2.922-3.18,2.922-5.457C187.034,242.355,184.096,239.417,180.472,239.417z"/>
<linearGradient id="SVGID_2_" gradientUnits="userSpaceOnUse" x1="141.8925" y1="74.5679" x2="82.0983" y2="11.9262">
	<stop  offset="0.2998" style="stop-color:#871FFF"/>
	<stop  offset="0.3275" style="stop-color:#8C25FA"/>
	<stop  offset="0.791" style="stop-color:#DE81AB"/>
	<stop  offset="1" style="stop-color:#FFA68C"/>
</linearGradient>
<path style="fill:url(#SVGID_2_);" d="M128.074,80.308L128.074,80.308c-5.684-0.707-9.757-5.936-9.051-11.62l1.878-15.105
	c0.707-5.684,5.936-9.757,11.62-9.051l0,0c5.684,0.707,9.757,5.936,9.051,11.62l-1.878,15.105
	C138.987,76.942,133.758,81.015,128.074,80.308z"/>
<ellipse cx="302.059" cy="8.897" rx="8.426" ry="8.897"/>
<path d="M276.772,58.505c0,0-0.657,15.277-1.8,30.373l-10.558,18.482c0,0-3.114,5.355-10.499,1.31c0,0-3.205-4.305-1.01-9.023
	L276.772,58.505z"/>
<path d="M290.32,44.481l10.994,9.879l3.727-6.193l11.495,9.378l-7.237,13.662c-6.878,7.812-13.258,0.004-13.258,0.004
	l-17.704-16.556c-2.525-3.062-2.371-7.526,0.359-10.407l0,0C281.883,40.884,287.272,40.993,290.32,44.481z"/>
<path d="M296.539,142.282l32.19,65.609l-13.004,0.175c-3.132,0.042-5.626,2.635-5.546,5.766v0c0.077,3.05,2.572,5.481,5.622,5.481
	h49.843l-29.798-62.456L296.539,142.282l-33.294,9.615l-13.383,55.598l-11.864-0.233c-3.049-0.06-5.552,2.395-5.552,5.444l0,0
	c0,3.019,2.457,5.462,5.476,5.445l33.206-0.186L296.539,142.282z"/>
<linearGradient id="SVGID_3_" gradientUnits="userSpaceOnUse" x1="313.6872" y1="216.3551" x2="240.0884" y2="-2.0414" gradientTransform="matrix(1 0 0 1 59.152 0)">
	<stop  offset="0" style="stop-color:#D6219C"/>
	<stop  offset="1" style="stop-color:#80C7F5"/>
</linearGradient>
<path style="fill:url(#SVGID_3_);" d="M293.993,6.343c3.033,0.991,5.495,1.823,10.057,1.408c0.697,2.28,4.392,4.082,5.754,4.677
	c0.437-1.077,0.683-2.262,0.683-3.509c0-4.926-3.782-8.919-8.447-8.919C298.228,0,295.045,2.682,293.993,6.343z"/>
<polygon points="71.878,22.529 85.445,46.923 83.727,22.441 79.724,25.953 "/>
<g>
	<path d="M71.033,60.593l-4.422-9.246c-1.722-3.605-0.191-7.938,3.413-9.66c3.605-1.723,7.938-0.191,9.66,3.413l4.422,9.245
		l-1.951,0.933l-4.422-9.246c-1.208-2.528-4.248-3.603-6.777-2.395c-2.529,1.208-3.603,4.248-2.395,6.777l4.422,9.245L71.033,60.593
		z"/>
	<path d="M69.756,43.456c-0.247-0.228-6.04-5.692-6.202-14.646c-0.126-6.977,5.071-11.092,5.293-11.264l1.326,1.708L69.51,18.4
		l0.665,0.852c-0.046,0.036-4.565,3.648-4.459,9.518c0.145,8.004,5.457,13.05,5.51,13.1L69.756,43.456z"/>
	<g>
		<path d="M92.965,28.593c-2.282-6.651-5.773-10.109-10.986-10.884l0.318-2.138c6.017,0.894,10.176,4.924,12.714,12.321
			L92.965,28.593z"/>
		<circle cx="93.988" cy="28.242" r="2.289"/>
		<circle cx="83.131" cy="54.812" r="2.289"/>
		<circle cx="71.999" cy="60.126" r="2.289"/>
	</g>
</g>
<circle cx="401.423" cy="29.414" r="8.584"/>
<linearGradient id="SVGID_4_" gradientUnits="userSpaceOnUse" x1="343.107" y1="113.1337" x2="410.9752" y2="41.2394">
	<stop  offset="0" style="stop-color:#D6219C"/>
	<stop  offset="1" style="stop-color:#FFA68C"/>
</linearGradient>
<path style="fill:url(#SVGID_4_);" d="M343.198,86.826L343.198,86.826c5.944-2.251,12.65,0.77,14.901,6.714l5.983,15.796
	c2.251,5.944-0.77,12.65-6.715,14.901l0,0c-5.944,2.251-12.65-0.77-14.901-6.715l-5.983-15.796
	C334.232,95.783,337.254,89.078,343.198,86.826z"/>
<path style="fill:#D6219C;" d="M408.208,191.385l52.053,45.336l-10.634,4.758c-8.116,3.358-3.358,10.634-3.358,10.634
	c4.478,6.157,13.633,1.437,13.633,1.437L500,236.161l-64.552-61.213l-2-40.672h-62.342l-48.718,106.918l-12.663-6.135
	c-6.236-2.593-9.112,2.445-9.112,2.445c-3.895,6.523,2,10.446,2,10.446l44.53,21.234l53.633-120.912"/>
<linearGradient id="SVGID_5_" gradientUnits="userSpaceOnUse" x1="334.7612" y1="106.9771" x2="410.7587" y2="26.4713">
	<stop  offset="0" style="stop-color:#D6219C"/>
	<stop  offset="1" style="stop-color:#FFA68C"/>
</linearGradient>
<path style="fill:url(#SVGID_5_);" d="M403.988,15.38c-10.464,0.015-12.141,7.174-12.449,12.078l6.157-4.089l11.163,10.322
	c3.472,0,4.674-7.706,4.674-7.706s2.06-0.709,2.609-0.347c1.644,1.084,0.531,6.42,2.118,7.586c1.969,1.448,8.425,1.74,9.773-0.299
	c2.255-3.41-2.142-13.719-5.938-15.238c-2.375-0.951-9.269,4.339-9.269,4.339S410.008,15.372,403.988,15.38z"/>
<path d="M364.256,111.332c-4.694,1.708-10.066-0.137-12.614-4.626c-2.842-5.007-1.086-11.37,3.921-14.211
	c0.085-0.048,0.176-0.07,0.261-0.115c2.407-1.546,4.918-1.915,4.918-1.915l8.108,19.865L364.256,111.332z"/>
<g>
	<path d="M384.885,68.93l-1.291-1.476l6.839-5.983c1.237-2.147,0.55-4.912-1.573-6.223c-2.138-1.319-4.945-0.676-6.298,1.428
		l-3.184,8.194l-1.828-0.71l3.298-8.442c1.903-3.083,5.96-4.042,9.042-2.139c3.082,1.904,4.042,5.96,2.138,9.042l-0.077,0.126
		L384.885,68.93z"/>
	<path d="M390.341,54.587l-1.93-0.343c0.053-0.3,1.376-7.4,8.124-11.918l1.091,1.629C391.593,47.994,390.353,54.522,390.341,54.587z
		"/>
	<g>
		<path d="M415.119,56.404l-1.833-0.697c2.268-5.96,1.84-10.396-1.345-13.96l1.462-1.306
			C417.079,44.554,417.64,49.776,415.119,56.404z"/>
		<circle cx="413.982" cy="56.056" r="2.076"/>
		<circle cx="384.24" cy="68.193" r="2.076"/>
		<circle cx="378.466" cy="64.137" r="2.076"/>
	</g>
</g>
</svg>
