<?xml version="1.0" encoding="utf-8"?>
<!-- Generator: Adobe Illustrator 24.0.1, SVG Export Plug-In . SVG Version: 6.00 Build 0)  -->
<svg version="1.1" id="Layer_1" xmlns="http://www.w3.org/2000/svg" xmlns:xlink="http://www.w3.org/1999/xlink" x="0px" y="0px"
	 viewBox="0 0 500 500" style="enable-background:new 0 0 500 500;" xml:space="preserve">
<style type="text/css">
	.st0{fill:url(#SVGID_1_);}
	.st1{fill:url(#SVGID_2_);}
	.st2{fill:#871FFF;}
	.st3{fill:url(#SVGID_3_);}
	.st4{fill:url(#SVGID_4_);}
	.st5{fill:url(#SVGID_5_);}
	.st6{fill:url(#SVGID_6_);}
	.st7{fill:#362F8F;}
	.st8{fill:#80C7F5;}
	.st9{fill:url(#SVGID_7_);}
	.st10{fill:#FFA68C;}
	.st11{fill:#FFFFFF;}
	.st12{fill:url(#SVGID_8_);}
	.st13{fill:#D6219C;}
	.st14{fill:#2A3B8E;}
	.st15{fill:url(#SVGID_9_);}
	.st16{fill:url(#SVGID_10_);}
	.st17{fill:url(#SVGID_11_);}
	.st18{fill:url(#SVGID_12_);}
	.st19{fill:url(#SVGID_13_);}
	.st20{fill:url(#SVGID_14_);}
	.st21{fill:url(#SVGID_15_);}
	.st22{fill:url(#SVGID_16_);}
	.st23{fill:url(#SVGID_17_);}
	.st24{fill:url(#SVGID_18_);}
	.st25{fill:none;stroke:#FFA68C;stroke-width:24;stroke-miterlimit:10;}
	.st26{fill:none;stroke:#FFFFFF;stroke-width:3;stroke-linecap:round;stroke-miterlimit:10;}
	.st27{fill:none;stroke:#FFFFFF;stroke-width:3;stroke-linecap:round;stroke-miterlimit:10;stroke-dasharray:5.0163,10.0325;}
	.st28{fill:url(#SVGID_19_);}
	.st29{fill:url(#SVGID_20_);}
	.st30{fill:url(#SVGID_21_);}
	.st31{fill:url(#SVGID_22_);}
	.st32{fill:url(#SVGID_23_);}
	.st33{fill:url(#SVGID_24_);}
	.st34{fill:url(#SVGID_25_);}
	.st35{fill:url(#SVGID_26_);}
	.st36{fill:url(#SVGID_27_);}
	.st37{fill:url(#SVGID_28_);}
	.st38{fill:url(#SVGID_29_);}
</style>
<linearGradient id="SVGID_1_" gradientUnits="userSpaceOnUse" x1="76.93" y1="745.4074" x2="76.93" y2="1052.2197" gradientTransform="matrix(1 0 0 -1 0 501)">
	<stop  offset="8.011200e-04" style="stop-color:#871FFF"/>
	<stop  offset="1" style="stop-color:#80C7F5"/>
</linearGradient>
<path class="st0" d="M-197.7-411.8L68-565.1c5.6-3.2,12.3-3.2,17.9,0l265.6,153.3c6.7,3.8,6.7,13.4,0,17.2L85.8-241.2
	c-5.6,3.2-12.3,3.2-17.9,0l-265.6-153.3C-204.3-398.4-204.3-408-197.7-411.8z"/>
<linearGradient id="SVGID_2_" gradientUnits="userSpaceOnUse" x1="-428.7861" y1="817.6605" x2="-428.7861" y2="1147.9808" gradientTransform="matrix(1 0 0 -1 0 501)">
	<stop  offset="8.011200e-04" style="stop-color:#871FFF"/>
	<stop  offset="1" style="stop-color:#80C7F5"/>
</linearGradient>
<path class="st1" d="M-724.4-496.9l286-165.1c6-3.5,13.3-3.5,19.3,0l286,165.1c7.2,4.1,7.2,14.4,0,18.5l-286,165.1
	c-6,3.5-13.3,3.5-19.3,0l-286-165.1C-731.6-482.5-731.6-492.7-724.4-496.9z"/>
<g>
	<g>
		<g>
			<polygon class="st2" points="-3.3,-492.2 68.8,-533.9 -2.9,-575.3 -75.8,-533.7 			"/>
		</g>
		<g>
			<g>
				<linearGradient id="SVGID_3_" gradientUnits="userSpaceOnUse" x1="68.7193" y1="-533.9232" x2="68.7193" y2="-533.9232">
					<stop  offset="0" style="stop-color:#D6219C"/>
					<stop  offset="0" style="stop-color:#871FFF"/>
					<stop  offset="1" style="stop-color:#80C7F5"/>
				</linearGradient>
				<path class="st3" d="M68.7-533.9"/>
			</g>
			<g>
				<linearGradient id="SVGID_4_" gradientUnits="userSpaceOnUse" x1="-83.7241" y1="-523.0661" x2="65.3748" y2="-457.0978">
					<stop  offset="0" style="stop-color:#D6219C"/>
					<stop  offset="0" style="stop-color:#871FFF"/>
					<stop  offset="1" style="stop-color:#80C7F5"/>
				</linearGradient>
				<polygon class="st4" points="-3.3,-492.2 -3.5,-492.3 -3.5,-409.4 68.7,-451 68.7,-533.8 				"/>
			</g>
		</g>
		<g>
			<g>
				<linearGradient id="SVGID_5_" gradientUnits="userSpaceOnUse" x1="-95.493" y1="-496.4665" x2="53.6059" y2="-430.4982">
					<stop  offset="0" style="stop-color:#D6219C"/>
					<stop  offset="0" style="stop-color:#871FFF"/>
					<stop  offset="1" style="stop-color:#80C7F5"/>
				</linearGradient>
				<polygon class="st5" points="-3.3,-492.2 -75.8,-533.7 -75.8,-453.4 -2.1,-409.2 -2.1,-492.9 				"/>
			</g>
			<g>
				<linearGradient id="SVGID_6_" gradientUnits="userSpaceOnUse" x1="-75.7732" y1="-533.688" x2="-75.7732" y2="-533.688">
					<stop  offset="0" style="stop-color:#D6219C"/>
					<stop  offset="0" style="stop-color:#871FFF"/>
					<stop  offset="1" style="stop-color:#80C7F5"/>
				</linearGradient>
				<path class="st6" d="M-75.8-533.7"/>
			</g>
		</g>
	</g>
</g>
<g>
	<path class="st7" d="M59.8-516.3c0,0-21.2,29.3-38,21.6L47-525.1L59.8-516.3z"/>
</g>
<g>
	<g>
		<path d="M20.3-577.8c0,0-2.4,13.1,0.5,23.1c2.9,10,16.8,19.4,16.8,19.4l15.3-9.3l-20-18l-7.4-34.2L20.3-577.8z"/>
	</g>
</g>
<g>
	<path d="M51-463.3c1.1-8.5,2-20.6,2.4-28.3c0.5-8.6-0.8-17.2-5.7-24.5c-7.1-10.9-19.7-20.5-31.4-25.8c-7.5-3.4-14.1,7.8-6.5,11.2
		l0,0c10.3,4.6,22.9,13.3,28.2,23.7l-8.5,43.7"/>
	<path class="st2" d="M29.6-463.4l-1.8,9h27.8c2.5,0,4.4-2,4.4-4.4l0,0c0-2.5-2-4.4-4.4-4.4H51"/>
</g>
<g>
	<path class="st2" d="M66-479.2c2.6,4.5,4.4,7.7,4.4,7.7l19.9-10.7c2.6-1.4,3.4-4.7,1.7-7.1l0,0c-1.4-2-4-2.7-6.1-1.6l-3.8,1.8"/>
	<path d="M82.1-489.1c-6-8.5-15.6-21.3-22.3-27.2c-6.5-5.7-11.2-7-19.7-4.5c-10.2,3-18.7,3.5-28-2.7c-6.9-4.7-13.4,6.6-6.5,11.2
		c8.7,5.8,18.4,8,28.7,6.3c3.5-0.6,6.8-1.8,10.2-2.6c1.4-0.3,1.3-0.4,2-0.3c2.2,0.3,13.2,18.8,19.4,29.7"/>
</g>
<g>
	<path class="st8" d="M23.7-548.5c22.2,14.1,38.3,21.5,36.1,32.2c0,0-10.3-7.4-19.1-2.5c-4.6,2.5-7.2,8.8-7.9,11.9
		c-2,8.4-8.7,14-11,12.2c-8.2-6.2-32.5-10.5-33.1-29.9c-0.5-16.4,1.7-18.4,1.7-18.4S11.6-532.8,23.7-548.5z"/>
</g>
<g>
	<g>
		<linearGradient id="SVGID_7_" gradientUnits="userSpaceOnUse" x1="8.3356" y1="-541.8273" x2="41.3197" y2="-523.1229">
			<stop  offset="0" style="stop-color:#D6219C"/>
			<stop  offset="0" style="stop-color:#D03392"/>
			<stop  offset="0.9797" style="stop-color:#FFA68C"/>
		</linearGradient>
		<path class="st9" d="M1.3-525.4l0-1l1.3,0.5l0.3-0.7l33-19.1c0.4-0.2,1.1-0.2,1.6,0.1l14.2,8.2v-0.2l2.6,1.1v1.1h0
			c0,0.1-0.1,0.2-0.3,0.3l-34.4,19.9c-0.4,0.2-1.1,0.2-1.6-0.1l-16.5-9.5C1.4-525.1,1.3-525.3,1.3-525.4L1.3-525.4z"/>
	</g>
	<g>
		<path class="st10" d="M19.7-516.4l34.4-19.9c0.4-0.2,0.3-0.6-0.1-0.9l-16.5-9.5c-0.5-0.3-1.2-0.3-1.6-0.1L1.6-526.9
			c-0.4,0.2-0.3,0.6,0.1,0.9l16.5,9.5C18.6-516.2,19.3-516.2,19.7-516.4z"/>
	</g>
	<g>
		<path class="st11" d="M17.4-529.2l8.3-4.8c0.1-0.1,0.1-0.2,0-0.2l-4-2.3c-0.1-0.1-0.3-0.1-0.4,0l-8.3,4.8c-0.1,0.1-0.1,0.2,0,0.2
			l4,2.3C17.1-529.2,17.3-529.2,17.4-529.2z"/>
	</g>
	<g>
		<linearGradient id="SVGID_8_" gradientUnits="userSpaceOnUse" x1="14.07" y1="-551.9396" x2="47.0541" y2="-533.2352">
			<stop  offset="0" style="stop-color:#D6219C"/>
			<stop  offset="0" style="stop-color:#D03392"/>
			<stop  offset="0.9797" style="stop-color:#FFA68C"/>
		</linearGradient>
		<path class="st12" d="M20.6-538.8c0.1-0.9,0.8-2,1.6-2.4l34.1-19.4c0.3-0.2,0.6-0.2,0.8-0.1l0,0l0,0c0.1,0,0.1,0.1,0.2,0.1
			l1.1,1.2l-1-0.1l-3.2,21c-0.1,0.9-0.8,2-1.6,2.4l-32.3,18.3l-1,1.2l-0.1,0.3c-0.7,0.1-2.2-1-2.2-1L20.6-538.8z"/>
	</g>
	<g>
		<path class="st13" d="M19.6-515.4l34.1-19.4c0.7-0.4,1.4-1.5,1.6-2.4l3.3-21.2c0.1-0.9-0.3-1.3-1.1-0.9l-34.1,19.4
			c-0.7,0.4-1.4,1.5-1.6,2.4l-3.3,21.2C18.4-515.4,18.9-515,19.6-515.4z"/>
	</g>
	<g>
		<path class="st11" d="M37.7-536c-0.2,1.1,0.8,1.4,2.3,0.6c1.4-0.8,2.7-2.4,2.9-3.5c0.2-1.1-0.8-1.4-2.3-0.6
			C39.2-538.7,37.9-537.1,37.7-536z"/>
	</g>
</g>
<g>
	<g>
		<path d="M-27.2-564.8c0,0-2.9,15.8-2.2,23c0.7,7.1,15.5,22,24.9,29.5c4.5,3.6,11.1,2.2,13.8-2.8h0c2.3-4.3,0.8-9.5-3.3-12.1
			c-8.1-4.9-20.1-15.1-20.3-17c-0.8-6.6,0.2-14.6,0.2-14.6L-27.2-564.8z"/>
	</g>
</g>
<g>
	<polygon class="st14" points="23.9,-562.8 17.8,-562.6 23.9,-558.7 	"/>
</g>
<path class="st11" d="M32.6-573.3c-1.5-10.1-2.6-16.8-7.6-26.9c-1.9-3.8-6.5-5.6-14.7-2.9c-8,2.6-35.1,11.6-35.6,15
	c-2.3,13.7-3.8,25.2-5.7,41.1c-0.4,3,17.3,3.5,17.3,1.1c0-4.2,0-4.4,0-4.4l4,7.3c1.1,0.6,2.1,1.2,3.2,1.7c0.4,0.2,0.7,0.4,1.1,0.5
	c0.2,0.1,0.3,0.1,0.5,0.2c0.6,0.3,1.1,0.5,1.7,0.7c0.1,0,0.2,0.1,0.3,0.1c0.6,0.2,1.1,0.4,1.7,0.6c0.1,0,0.2,0.1,0.3,0.1l0,0
	c16.9,4.9,24.6-9.5,24.6-9.5c0.2-1.3,0.3-7.3,0.5-13.8C24.9-563.2,33.3-568.7,32.6-573.3z"/>
<g>
	<linearGradient id="SVGID_9_" gradientUnits="userSpaceOnUse" x1="-13.6406" y1="-611.6472" x2="22.9477" y2="-611.6472">
		<stop  offset="0" style="stop-color:#871FFF"/>
		<stop  offset="0.9821" style="stop-color:#80C7F5"/>
	</linearGradient>
	<path class="st15" d="M21.9-619.5c1.3,3.5,1.6,7.7-0.6,10.7c-0.4,0.5-0.9,1-1.4,1.5c-1.2,1.3-2,2-2.8,3.6c-0.4,0.9,0.3,4.2-1.4,4.1
		c-0.7,0-1.8-3.7-3.3-3.9c0,0-24.6,11.7-25.8,10c-1.6-2.4,4.1-29.2,4.7-32c0.8-3.6,18.5,1,21.4-1.2c0.6-0.4,1.2-0.8,1.7-1.3l0,0
		c0.7-0.7,1.4-2.3,2.6-1.8c1,0.4,1.3,2.2,1.7,3C19.7-624.3,21-622,21.9-619.5z"/>
</g>
<circle class="st11" cx="6.4" cy="-615.7" r="11.3"/>
<linearGradient id="SVGID_10_" gradientUnits="userSpaceOnUse" x1="-19.9111" y1="-606.9659" x2="20.3214" y2="-606.9659">
	<stop  offset="0" style="stop-color:#871FFF"/>
	<stop  offset="0.9821" style="stop-color:#80C7F5"/>
</linearGradient>
<path class="st16" d="M17.7-629.9L17.7-629.9c-0.5-0.9-1.1-1.8-1.8-2.6c-1.5-1.8-3.3-3.3-7-4.6c-8.1-3-16.1-0.9-19.4,5.6l0,0
	c0,0,0,0,0,0.1c-0.4,0.9-0.8,1.9-1.1,2.9c-2.5,7-8.7,24.2-8.3,32.3c0.2,3.7,5.4,8.5,12.3,13.2c2.8,1.9,5.2,4.4,7,6.7
	c1.4,1.8,4.4,0.6,4.1-1.7C2-589.1-6-593.7-6.8-601c-1-8.6,8.6-21.6,9.2-22.4c1.9-1.9,4.6-1.5,7.2-0.9c9,5.8,9.1,10,9.1,10
	C22.8-624.3,17.7-629.9,17.7-629.9z"/>
<g>
	<g>
		<g>
			<g>
				<g>
					<path class="st10" d="M-94-420.5c0.1,0,0.1,0.1,0.2,0.1l0,0l19.6,13.8c5.5,3.8,13.5,2.8,17.9-2.3c4.4-5.1,3.6-12.4-1.9-16.2
						l-19.6-13.8l0,0c-0.1,0-0.1-0.1-0.2-0.1c-5.5-3.8-13.5-2.8-17.9,2.3C-100.3-431.6-99.5-424.4-94-420.5z"/>
				</g>
			</g>
		</g>
		<g>
			<g>
				<g>
					<polygon class="st8" points="-68.4,-432.7 19.5,-370.8 12.3,-358.9 -84.4,-426.6 					"/>
				</g>
			</g>
		</g>
		<g>
			<g>
				<g>
					<path class="st8" d="M12.3-358.9c-4.7,4,0.9,5.5-6.4,8.6l-85.5-59.9c-5.8-7.1-8.3-13.6-4.9-16.4L12.3-358.9z"/>
				</g>
			</g>
		</g>
		<g>
			<g>
				<g>
					<path class="st11" d="M-84.8-413.8c0.1,0,0.1,0.1,0.2,0.1l0,0l8.8,6.1c-6.8-5.2,6.8-24.9,17.4-18.1c0.1,0,0.1,0.1,0.2,0.1l0,0
						l-10-7.1l0,0c-0.1,0-0.1-0.1-0.2-0.1C-78.7-439.7-95.2-420.8-84.8-413.8z"/>
				</g>
			</g>
		</g>
		<g>
			<g>
				<g>
					<path class="st11" d="M6.6-349.7l30.9,3.5L21.1-370C12.5-372.6,0.5-353.3,6.6-349.7z"/>
				</g>
			</g>
		</g>
		<g>
			<g>
				<g>
					<path class="st13" d="M38.8-345.1l-15-2.6c0,0-1.7-0.6-0.1-3.2c1.6-2.7-0.6-2.5,1.6-5.3c2.2-2.8,3.3-2.8,3.3-2.8L38.8-345.1z"
						/>
				</g>
			</g>
		</g>
	</g>
</g>
<g>
	<g>
		<linearGradient id="SVGID_11_" gradientUnits="userSpaceOnUse" x1="59.3782" y1="-393.4524" x2="257.9507" y2="-393.4524">
			<stop  offset="0" style="stop-color:#D6219C"/>
			<stop  offset="0" style="stop-color:#D03392"/>
			<stop  offset="0.9797" style="stop-color:#FFA68C"/>
		</linearGradient>
		<path class="st17" d="M257.2-406.6c0.1-0.2,0.2-0.3,0.3-0.5c0,0,0.1-0.1,0.1-0.1c0.1-0.2,0.2-0.4,0.2-0.6c0,0,0,0,0,0
			c0.1-0.4,0.2-0.9,0.2-1.3c0,0,0,0,0,0l0-10.1l-12.2,1.1l-53.5-31c-3.8-2.2-10.4-1.9-14.8,0.6L67-385.1c1-2.7,2-5.6,2-5.6l-9.6,2.3
			l0.2,9.5c-0.5,1.7,0.3,3.4,2.4,4.6l63.1,36.6c1.9,1.1,4.5,1.6,7.2,1.5v0c2-0.1,4-0.5,5.9-1.2c0.6-0.2,1.2-0.5,1.7-0.8l114.5-65.9
			c0.3-0.2,0.6-0.3,0.8-0.5c0.1-0.1,0.2-0.1,0.2-0.2c0.2-0.1,0.3-0.3,0.5-0.4c0.1-0.1,0.1-0.1,0.2-0.2c0.1-0.1,0.3-0.3,0.4-0.4
			c0.1-0.1,0.1-0.1,0.2-0.2c0.1-0.1,0.2-0.3,0.3-0.4C257.1-406.5,257.1-406.6,257.2-406.6z"/>
		<path class="st11" d="M125.1-348.3L62-384.9c-3.8-2.2-3.3-6,1.1-8.5l114.5-65.9c4.4-2.5,11-2.8,14.8-0.6l63.1,36.6
			c3.8,2.2,3.3,6-1.1,8.5l-114.5,65.9C135.5-346.4,128.9-346.1,125.1-348.3z"/>
		<path class="st13" d="M125.1-350.3L62-386.9c-3.8-2.2-3.3-6,1.1-8.5l114.5-65.9c4.4-2.5,11-2.8,14.8-0.6l63.1,36.6
			c3.8,2.2,3.3,6-1.1,8.5l-114.5,65.9C135.5-348.4,128.9-348.1,125.1-350.3z"/>
		<path class="st11" d="M181.1-455.5l-96.3,55.4c-2.2,1.3-2.2,4.5,0,5.8l58.3,33.8c1,0.6,2.3,0.6,3.4,0l96.3-55.4
			c2.2-1.3,2.2-4.5,0-5.8l-58.3-33.8C183.4-456.1,182.1-456.1,181.1-455.5z"/>
	</g>
	<g>
		<g>
			<polygon class="st13" points="189.8,-475.6 208.6,-486.5 189.9,-497.3 170.9,-486.5 			"/>
			<linearGradient id="SVGID_12_" gradientUnits="userSpaceOnUse" x1="211.6813" y1="-421.2919" x2="169.5833" y2="-485.2809">
				<stop  offset="0" style="stop-color:#D6219C"/>
				<stop  offset="0" style="stop-color:#D03392"/>
				<stop  offset="0.9797" style="stop-color:#FFA68C"/>
			</linearGradient>
			<polygon class="st18" points="208.6,-486.5 189.8,-475.6 170.9,-486.5 170.9,-422.8 189.8,-411.9 208.6,-422.8 208.6,-462.7 			
				"/>
			<polygon class="st2" points="165.8,-436.9 184.5,-447.8 165.9,-458.6 147.1,-447.7 			"/>
			<linearGradient id="SVGID_13_" gradientUnits="userSpaceOnUse" x1="183.9792" y1="-404.1664" x2="148.3362" y2="-450.4742">
				<stop  offset="0" style="stop-color:#D6219C"/>
				<stop  offset="0" style="stop-color:#871FFF"/>
				<stop  offset="1" style="stop-color:#80C7F5"/>
			</linearGradient>
			<polygon class="st19" points="165.8,-436.9 147.2,-447.7 147.2,-407.8 165.8,-396.9 184.4,-407.8 184.4,-447.7 			"/>
			<polygon class="st8" points="140.6,-406.8 159.4,-417.7 140.8,-428.5 121.8,-417.6 			"/>
			<linearGradient id="SVGID_14_" gradientUnits="userSpaceOnUse" x1="161.282" y1="-389.7074" x2="122.5518" y2="-418.8954">
				<stop  offset="0" style="stop-color:#80C7F5"/>
				<stop  offset="1" style="stop-color:#871FFF"/>
			</linearGradient>
			<polygon class="st20" points="141,-381.7 159.4,-392.3 159.4,-417.7 140.8,-406.9 121.8,-417.6 121.8,-392.9 140.6,-381.6 
				140.6,-381.5 140.8,-381.6 141,-381.4 			"/>
		</g>
	</g>
</g>
<g>
	<linearGradient id="SVGID_15_" gradientUnits="userSpaceOnUse" x1="222.6073" y1="-501.7638" x2="256.5663" y2="-465.6999">
		<stop  offset="0" style="stop-color:#80C7F5"/>
		<stop  offset="1" style="stop-color:#871FFF"/>
	</linearGradient>
	<path class="st21" d="M256.6-473.7c0-10.5-7.4-23.2-16.5-28.5c-4.8-2.8-9.1-2.9-12.1-0.9l0,0l-0.3,0.2c-0.2,0.1-0.4,0.3-0.6,0.4
		l-7.4,5.9l4,6c1,10,7.9,21.3,16.4,26.2c0.5,0.3,1,0.5,1.4,0.7l3.8,5.8l7.3-5.9c0.1-0.1,0.2-0.2,0.4-0.3l0.2-0.2l0,0
		C255.3-466.1,256.6-469.4,256.6-473.7z"/>
	<linearGradient id="SVGID_16_" gradientUnits="userSpaceOnUse" x1="220.0667" y1="-499.3715" x2="254.0257" y2="-463.3075">
		<stop  offset="0" style="stop-color:#80C7F5"/>
		<stop  offset="1" style="stop-color:#871FFF"/>
	</linearGradient>
	<path class="st22" d="M256.6-473.7c0,6.6-2.7,11.1-11.2,15.9c0,0-1.9-4.6-5.3-6.5C231-469.5,256.6-484.1,256.6-473.7z"/>
	
		<ellipse transform="matrix(0.8633 -0.5047 0.5047 0.8633 272.6236 52.1789)" class="st2" cx="232.6" cy="-477.2" rx="13.4" ry="23.3"/>
	<path class="st8" d="M245.3-457.8c2.4-1.9,3.8-5.3,3.8-9.9c0-2.9-0.6-5.9-1.6-8.9l-7.7-3.2l-8.8,3.9v0.5L245.3-457.8z"/>
	<linearGradient id="SVGID_17_" gradientUnits="userSpaceOnUse" x1="238.4819" y1="-486.3357" x2="259.782" y2="-486.3357">
		<stop  offset="0" style="stop-color:#D6219C"/>
		<stop  offset="0" style="stop-color:#D03392"/>
		<stop  offset="0.9797" style="stop-color:#FFA68C"/>
	</linearGradient>
	<path class="st23" d="M259.8-477.2c-1.4-8.4-6.2-17.3-12.4-23.6l-7.4,5.3l2.7,5.1l-4.2,9.2l10,1.9l3.9,7.4L259.8-477.2z"/>
	<path class="st13" d="M231-475.8l21.3,4c-1.4-8.4-6.2-17.3-12.4-23.6L231-475.8z"/>
</g>
<linearGradient id="SVGID_18_" gradientUnits="userSpaceOnUse" x1="239.6106" y1="61.0998" x2="239.6106" y2="487.9042">
	<stop  offset="0" style="stop-color:#D6219C"/>
	<stop  offset="0.9984" style="stop-color:#FFA68C"/>
</linearGradient>
<path class="st24" d="M165.3,396.3l141.4-81.6c2.9-1.7,6.6-1.7,9.5,0l141.3,81.6c3.5,2,3.5,7.1,0,9.2l-141.4,81.6
	c-2.9,1.7-6.6,1.7-9.5,0l-141.3-81.6C161.7,403.4,161.7,398.3,165.3,396.3z M22.3,257.6l130.3,75.2c2.9,1.7,6.6,1.7,9.5,0
	l130.3-75.2c4.2-2.4,4.2-8.6,0-11L162,171.4c-2.9-1.7-6.5-1.7-9.4,0L22.3,246.6C18,249.1,18,255.2,22.3,257.6z M231.3,138.6
	L338,200.2c2.9,1.7,6.6,1.7,9.5,0l106.8-61.6c3.5-2,3.5-7.1,0-9.2L347.5,67.7c-2.9-1.7-6.6-1.7-9.5,0l-106.8,61.6
	C227.7,131.4,227.7,136.5,231.3,138.6z"/>
<path class="st25" d="M110.1,275.7"/>
<g>
	<path class="st25" d="M245.3,361l139.8-80.8c3.5-2,3.5-7.1,0-9.2l-118.7-68.6c-3.3-1.9-7.3-1.9-10.6,0l-94.6,53.7
		c-3.3,1.9-7.3,1.9-10.6,0l-49.7-28.7c-3.5-2-3.5-7.1,0-9.2l59.4-33.5l164.6-95c3.3-1.9,7.3-1.9,10.6,0l16.7,9.6"/>
	<g>
		<line class="st26" x1="245.3" y1="361" x2="247.4" y2="359.7"/>
		<path class="st27" d="M256.1,354.7l129-74.5c3.5-2,3.5-7.1,0-9.2l-118.7-68.6c-3.3-1.9-7.3-1.9-10.6,0l-94.6,53.7
			c-3.3,1.9-7.3,1.9-10.6,0l-49.7-28.7c-3.5-2-3.5-7.1,0-9.2l59.4-33.5l164.6-95c3.3-1.9,7.3-1.9,10.6,0l10.2,5.9"/>
		<line class="st26" x1="350" y1="98.2" x2="352.2" y2="99.4"/>
	</g>
</g>
<polygon class="st11" points="336.5,159.4 374.3,137.6 374.2,134 336.5,155.8 298.8,134 298.8,137.6 "/>
<polygon class="st13" points="374.2,134 374.2,112.2 336.5,134 336.5,155.8 "/>
<path class="st13" d="M298.8,134c0,0,0-21.7,0-21.8c0,0,18.8,0,18.8,0l18.9,25.4v18.2L298.8,134z"/>
<polygon class="st11" points="361.6,126.7 361.6,137.6 352.2,143.1 352.2,132.2 "/>
<polygon class="st11" points="323.9,148.5 323.9,130.3 314.5,124.9 314.5,143 "/>
<polygon class="st10" points="308.2,146.7 311.3,144.9 323.9,152.1 320.8,153.9 "/>
<polygon class="st10" points="317.6,152.1 308.2,157.6 364.8,190.2 358.5,193.9 295.6,157.6 311.3,148.5 "/>
<linearGradient id="SVGID_19_" gradientUnits="userSpaceOnUse" x1="347.5011" y1="88.1751" x2="347.5011" y2="130.4415">
	<stop  offset="8.011200e-04" style="stop-color:#871FFF"/>
	<stop  offset="0.9984" style="stop-color:#FFA68C"/>
</linearGradient>
<polygon class="st28" points="336.5,137.6 380.5,112.2 358.5,88.6 314.5,114 "/>
<linearGradient id="SVGID_20_" gradientUnits="userSpaceOnUse" x1="327.0522" y1="88.1982" x2="327.0522" y2="130.3892">
	<stop  offset="8.011200e-04" style="stop-color:#871FFF"/>
	<stop  offset="0.9984" style="stop-color:#FFA68C"/>
</linearGradient>
<polygon class="st29" points="295.6,114 314.5,114 358.5,88.6 339.6,88.6 "/>
<g>
	<path class="st10" d="M445.1,109.2c0,4.6-7.2,7.3-9.7,11.2c-2.4,3.6-1.3,11.2-5.3,13.8c-3.6,2.4-10.4-1.4-15-0.2
		c-4.2,1.1-7.9,8-12.7,8c-4.7,0-8.5-6.8-12.7-8c-4.6-1.3-11.4,2.6-15,0.2c-4-2.6-3-10.2-5.3-13.8c-2.5-3.9-9.7-6.6-9.7-11.2
		c0-4.6,7.2-7.3,9.7-11.2c2.4-3.6,1.3-11.2,5.3-13.8c3.6-2.4,10.4,1.4,15,0.2c4.2-1.1,7.9-8,12.7-8c4.7,0,8.5,6.8,12.7,8
		c4.6,1.3,11.4-2.6,15-0.2c4,2.6,3,10.2,5.3,13.8C437.9,101.9,445.1,104.6,445.1,109.2z"/>
</g>
<g>
	<path class="st11" d="M395.9,151.7c2-3.6,3-7.2,3.8-10.8c0.4-1.8,0.7-3.6,0.8-5.4l0.5-5.4c0.3-3.6,0.5-7.2,0.7-10.8
		c0.1-3.6,0.2-7.2,0.1-10.8h1c-0.1,3.6,0,7.2,0.1,10.8c0.2,3.6,0.4,7.2,0.7,10.8l0.5,5.4c0.2,1.8,0.5,3.6,0.8,5.4
		c0.8,3.6,1.8,7.2,3.8,10.8H395.9z"/>
</g>
<polygon class="st11" points="345.8,92.2 345.8,85 348.9,86.8 352.1,85 352.1,92.2 349,94 "/>
<polygon class="st10" points="348.9,83.1 352.1,85 348.9,86.8 345.8,85 "/>
<g>
	<polygon class="st10" points="336.6,14.1 336.5,36 327.8,41 324.8,48.3 321.5,44.6 311.4,50.5 311.4,28.7 	"/>
	<g>
		<path class="st11" d="M326.5,37.5c0-1.5-0.9-2.2-2.1-1.6s-2.1,2.4-2.1,4L326.5,37.5z"/>
		<g>
			<path class="st11" d="M324.4,30.2c-1.9,1.1-3.7,3.3-4.9,5.8l0.9,0.7c0.9-2.1,2.4-3.9,4-4.8c1.6-0.9,3-0.8,4,0.2l0.9-1.7
				C328.1,29.2,326.4,29.1,324.4,30.2z"/>
			<path class="st11" d="M324.4,33.1c-1.3,0.8-2.5,2.3-3.3,4.1l0.8,0.6c0.6-1.4,1.5-2.6,2.5-3.2c1-0.6,1.9-0.4,2.5,0.3l0.8-1.5
				C326.9,32.5,325.8,32.4,324.4,33.1z"/>
			<path class="st11" d="M324.4,26.5c-2.7,1.6-5.2,4.6-6.8,8l1.1,0.8c1.4-3,3.5-5.5,5.8-6.8c2.3-1.3,4.4-1.2,5.8,0.2l1.1-2.1
				C329.6,25.1,327.1,24.9,324.4,26.5z"/>
		</g>
	</g>
	<linearGradient id="SVGID_21_" gradientUnits="userSpaceOnUse" x1="342.1463" y1="10.0278" x2="302.5218" y2="49.6524">
		<stop  offset="0" style="stop-color:#D6219C"/>
		<stop  offset="0.9984" style="stop-color:#FFA68C"/>
	</linearGradient>
	<path class="st30" d="M311.4,28.7l-0.1,21.8l-4.2-2.4c-1.3-0.8-2.1-2.2-2.1-3.7l0-15.7c0-2.3,1.2-4.3,3.2-5.5l19.8-11.5
		c1.3-0.8,2.9-0.8,4.2,0l4.2,2.4L311.4,28.7z M321.5,44.6l-1.8,1.1l5.1,2.7L321.5,44.6z"/>
</g>
<g>
	<polygon class="st10" points="289.4,281 289.3,302.8 280.6,307.8 277.6,315.2 274.3,311.4 264.2,317.3 264.2,295.5 	"/>
	<g>
		<g>
			<path class="st11" d="M281.7,294.3c0-1.9-1.2-2.8-2.6-2c-1.1,0.6-2,2.1-2.4,3.6c-0.4-1-1.3-1.4-2.4-0.7c-1.5,0.8-2.6,3.1-2.6,5.1
				c0,0.9,0.3,1.6,0.7,2l0,0l4.4,3.8l4.3-8.7C281.4,296.3,281.7,295.3,281.7,294.3z"/>
		</g>
	</g>
	<linearGradient id="SVGID_22_" gradientUnits="userSpaceOnUse" x1="294.937" y1="276.8589" x2="255.3124" y2="316.4835">
		<stop  offset="0" style="stop-color:#D6219C"/>
		<stop  offset="0.9984" style="stop-color:#FFA68C"/>
	</linearGradient>
	<path class="st31" d="M264.2,295.5l-0.1,21.8l-4.2-2.4c-1.3-0.8-2.1-2.2-2.1-3.7l0-15.7c0-2.3,1.2-4.3,3.2-5.5l19.8-11.5
		c1.3-0.8,2.9-0.8,4.2,0l4.2,2.4L264.2,295.5z M274.3,311.4l-1.7,1l5,2.7L274.3,311.4z"/>
</g>
<path class="st2" d="M348.6,337.4l-15.5-9c-3.9-2.2-8.7-0.2-10.4,4.3l-4.8,12.6c-1.1-0.9-2.9-0.9-5,0.4l-21,12.9
	c-3.4,2.1-6.2,6.7-6.2,10.3l0.4,5.8c0,1.8,0.7,3.3,1.8,4c0.2,0.4,0.7,1.3,1.5,2.2l-4.4,29.8c-0.2,1.3,0.7,2.5,2,2.6l0.3,0
	c1.3,0.2,2.5-0.7,2.6-2l4-27.1l22.9,13.2l-4.4,29.7c-0.2,1.3,0.7,2.6,2.1,2.8h0c1.3,0.2,2.6-0.7,2.8-2.1l4.2-28.6
	c0.8-0.1,1.8-0.4,2.9-1.1l13-7.9l3.4,22.6c0.2,1.2,1.3,2,2.5,1.8l0.6-0.1c1.2-0.2,2-1.3,1.8-2.5l-3.7-24.7l3.5-2.1
	c3.4-2.1,6.3-6.5,6.5-9.7l0.2-3.1c0.1-2.1-0.9-3.3-2.6-3.3l3-23.3C353,342.5,351.4,339,348.6,337.4z"/>
<path class="st11" d="M297,340.1l10.4-3.1c0,0,4-12.6,7.8-16.4c2.4-2.4,4.6-2.8,7.9-2.1c3.7,0.8,7.3,3,9.1,4.9
	c6.5,7,19.2,30.4,19.2,30.4l-9.3,7.9l-6.5-10.5l2.4,19.9l-15.1,11.1l-25.1-13.5l3.9-13.9l-1.7-2.7L297,340.1z"/>
<circle cx="323" cy="313.9" r="4.6"/>
<path d="M342.1,361.7l2.6,3.9c1.7,2.8,5.3,3.7,8.1,2v0c2.7-1.7,3.6-5.2,2-7.9l-3.4-5.9L342.1,361.7z"/>
<linearGradient id="SVGID_23_" gradientUnits="userSpaceOnUse" x1="319.2974" y1="307.6783" x2="325.2643" y2="314.2904">
	<stop  offset="0" style="stop-color:#CE3191"/>
	<stop  offset="1" style="stop-color:#84C5EC"/>
</linearGradient>
<path class="st32" d="M323.3,308.2c3.2-0.1,5.5,2.7,5.1,5.4c-0.2,1.5-0.8,1.9-0.9,2.4c-1.5-0.4-2.1-4.1-2.1-4.1s-5.2,1.7-6.9,1.2
	c-1.1-0.4-0.9-1.7-0.9-1.7C318.8,311.6,319.1,308.3,323.3,308.2z"/>
<path class="st8" d="M312.3,393.8l13.7,41.8h-24.6c-2.1,0-3.9-1.7-4-3.8v0c-0.1-2.2,1.7-4,3.9-4.1l4.5-0.1l-10.6-36.7"/>
<path class="st8" d="M284.8,381.2l13.7,41.8H274c-2.1,0-3.9-1.7-4-3.8l0,0c-0.1-2.2,1.7-4,3.9-4.1l4.5-0.1l-10.6-36.7"/>
<linearGradient id="SVGID_24_" gradientUnits="userSpaceOnUse" x1="323.2254" y1="304.1335" x2="329.1924" y2="310.7455">
	<stop  offset="0" style="stop-color:#CE3191"/>
	<stop  offset="1" style="stop-color:#84C5EC"/>
</linearGradient>
<circle class="st33" cx="325.9" cy="307.1" r="3.1"/>
<path class="st13" d="M371,434.3l-4.4-37.1l1.9-0.6c1.1-0.6,1.7-1.5,1.6-2.2h0v-5.1h0c-0.1-0.5-0.5-1-1.1-1.4l-101-55.9
	c-1.7-1-4.7-0.9-6.6,0.3l-50.5,29.2c-0.9,0.5-1.5,1.2-1.6,1.9l0,0v0c0,0.2,0,0.4,0,0.5v4.3c-0.1,0.7,0.2,1.4,1.1,1.9l6.7,3.9
	l-6.5,43.8c-0.1,0.7,0.3,1.5,1.1,1.6c0.8,0.2,1.5-0.4,1.6-1.1l6.4-42.9l87.4,48.1l-0.6,8.1l0,0l-3.6,42.3c-0.1,0.9,0.5,1.7,1.4,1.9
	c0.9,0.1,1.8-0.6,1.9-1.5l3.5-40.5l0.9-8.3l1,0.6c1.7,1,4.7,0.9,6.6-0.3l45.6-26.7l4.2,35.7c0.1,0.9,1,1.6,1.9,1.5l0,0
	C370.5,436,371.1,435.2,371,434.3z"/>
<path class="st11" d="M311.8,371.8l-27.1-14.2c-0.5-0.3-1.1-0.3-1.6,0l-10.8,5.3c-0.6,0.3-0.7,1.2-0.1,1.5l28,16.2
	c0.5,0.3,1.1,0.3,1.6-0.1l10.1-6.8C312.6,373.2,312.6,372.2,311.8,371.8z"/>
<path class="st11" d="M280.2,387.9c1.2,0.7,2.7-0.2,2.7-1.6l0-33.7c0-1.6-0.9-3.1-2.4-3.9l-40.1-20.4c-0.3-0.1-0.6-0.1-0.8,0.1
	l-1.7,1.3c-0.1,0.1-0.2,0.3-0.2,0.4l-0.1,31.8c0,1.3,0.7,2.5,1.9,3.1l10.2,5.4l-1.7,3c-0.6,1-0.2,2.2,0.8,2.8l7.3,4.1
	c0.5,0.3,1.1,0.3,1.7,0.1l5.4-2L280.2,387.9z"/>
<path d="M325.9,322.5c0,0-3.4,10.3-6.8,9.3c-3-0.9-0.7-11.7-0.7-11.7s0.5,3.4,2.7,4.1C323,324.8,325.9,322.5,325.9,322.5z"/>
<path d="M293.6,341.2l4-1.3l5.8,11.7l-5.7,1.9c-3.2,1.1-6.7-0.5-8.1-3.6v0C288.2,346.4,290,342.4,293.6,341.2z"/>
<linearGradient id="SVGID_25_" gradientUnits="userSpaceOnUse" x1="590.99" y1="151.4434" x2="590.99" y2="285.4594" gradientTransform="matrix(1 0 0 1 -393.9604 0)">
	<stop  offset="8.011200e-04" style="stop-color:#871FFF"/>
	<stop  offset="0.9984" style="stop-color:#FFA68C"/>
</linearGradient>
<polygon class="st34" points="182.1,269.3 182.2,146.4 211.9,163.6 211.9,286.5 "/>
<path class="st13" d="M241.8,146.4l-29.8,17.2l-29.8-17.2l29.8-17.2L241.8,146.4z M211.9,286.5l0-122.9l29.8-17.2l0,122.9
	L211.9,286.5z"/>
<polygon class="st11" points="190.7,274.2 190.6,259.5 203.4,266.8 203.4,281.6 "/>
<polygon class="st11" points="190.7,254.5 194.9,257 194.9,237.3 190.6,234.9 "/>
<polygon class="st11" points="203.4,261.9 199.2,259.5 199.2,239.8 203.4,242.3 "/>
<polygon class="st11" points="199.2,234.9 203.4,237.3 203.4,217.7 199.2,215.2 "/>
<polygon class="st11" points="194.9,232.4 190.6,230 190.6,210.3 194.9,212.8 "/>
<path class="st11" d="M190.6,205.4c0,0,4.3,2.5,4.3,2.5l0-19.7l-4.3-2.5V205.4z"/>
<polygon class="st11" points="203.4,212.8 203.4,193.1 199.2,190.6 199.2,210.3 "/>
<path class="st11" d="M190.6,180.8c0,0,4.3,2.5,4.3,2.5l0-19.7l-4.3-2.5V180.8z"/>
<polygon class="st11" points="203.4,188.2 203.4,168.5 199.2,166 199.2,185.7 "/>
<g>
	<polygon class="st10" points="125.7,98.9 125.7,118.7 133.6,123.2 136.3,129.9 139.3,126.5 148.5,131.8 148.4,112.1 	"/>
	<g>
		<g>
			<polygon class="st11" points="144.8,116.3 127.7,106.5 127.7,105.4 144.7,115.3 			"/>
		</g>
		<g>
			<polygon class="st11" points="144.8,119.6 127.7,109.8 127.7,108.7 144.7,118.6 			"/>
		</g>
		<g>
			<polygon class="st11" points="144.8,122.9 127.7,113.1 127.7,112 144.7,121.9 			"/>
		</g>
		<g>
			<polygon class="st11" points="136.2,121.3 127.7,116.3 127.7,115.3 136.2,120.2 			"/>
		</g>
	</g>
	
		<linearGradient id="SVGID_26_" gradientUnits="userSpaceOnUse" x1="520.3497" y1="100.9532" x2="548.2333" y2="128.8368" gradientTransform="matrix(1 0 0 1 -393.9604 0)">
		<stop  offset="8.011200e-04" style="stop-color:#871FFF"/>
		<stop  offset="0.9984" style="stop-color:#FFA68C"/>
	</linearGradient>
	<path class="st35" d="M125.7,98.9l3.8-2.2c1.2-0.7,2.6-0.7,3.8,0l18,10.4c1.8,1,2.9,2.9,2.9,5l0,14.2c0,1.4-0.7,2.6-1.9,3.3
		l-3.8,2.2l-0.1-19.8L125.7,98.9z M141,127.5l-1.7-1l-3,3.4L141,127.5z"/>
</g>
<g>
	<linearGradient id="SVGID_27_" gradientUnits="userSpaceOnUse" x1="139.6512" y1="226.1684" x2="167.1755" y2="252.3724">
		<stop  offset="0" style="stop-color:#871FFF"/>
		<stop  offset="0.9984" style="stop-color:#80C7F5"/>
	</linearGradient>
	<circle class="st36" cx="143" cy="229.4" r="3.1"/>
	<g>
		<path d="M168.8,253.9L168.8,253.9c-0.8,1.7-2.9,2.5-4.7,1.6l-17.4-8.4l3.1-6.3l17.4,8.4C168.9,250.1,169.7,252.2,168.8,253.9z"/>
		<path class="st8" d="M146.6,267.4v35.5h3.3c1.6,0,2.9,1.3,2.9,2.9l0,0c0,1.6-1.3,2.9-2.9,2.9h-15v-41.2H146.6z M159.6,267.4v28.2
			h3.3c1.6,0,2.9,1.3,2.9,2.9l0,0c0,1.6-1.3,2.9-2.9,2.9h-15v-34H159.6z"/>
		<path class="st11" d="M134.8,267.4c0-16.6,4.5-27.5,8.5-31.6c1.8-1.8,6.1-2,8,0.4c3.6,4.6,7.9,13.5,8.2,31.1H134.8z"/>
		<path d="M154.9,267.9L154.9,267.9c-1.6,1-3.7,0.5-4.7-1.1l-6.3-9.5c-0.4-0.6-0.6-1.2-0.8-1.9l-1.5-7.9l6.8-2.8l1.4,8.9l6.2,9.3
			C157.1,264.7,156.6,266.9,154.9,267.9z"/>
	</g>
	<linearGradient id="SVGID_28_" gradientUnits="userSpaceOnUse" x1="141.7113" y1="228.6848" x2="168.0474" y2="253.7576">
		<stop  offset="0" style="stop-color:#871FFF"/>
		<stop  offset="0.9984" style="stop-color:#80C7F5"/>
	</linearGradient>
	<path class="st37" d="M170.1,259.2l3.4-8.6c0.6-1.4-0.1-3-1.6-3.6l-3.1-1.2c-1.4-0.6-3,0.1-3.6,1.6l-3.4,8.6
		c-0.6,1.4,0.1,3,1.6,3.6l3.1,1.2C167.9,261.4,169.5,260.7,170.1,259.2z"/>
	<circle cx="147.2" cy="229.9" r="3.2"/>
	<linearGradient id="SVGID_29_" gradientUnits="userSpaceOnUse" x1="141.5494" y1="224.1745" x2="169.0738" y2="250.3785">
		<stop  offset="0" style="stop-color:#871FFF"/>
		<stop  offset="0.9984" style="stop-color:#80C7F5"/>
	</linearGradient>
	<path class="st38" d="M150.7,229.1c-0.3-1.6-1.8-2.8-3.5-2.8c-1.9,0-3.5,1.6-3.5,3.5c0,0.5,0.1,0.9,0.3,1.3
		c0.6-0.5,1.1-1.2,1.3-2.1H150.7z"/>
</g>
<g>
	<path class="st2" d="M143.3,200.3c0,7.2-8.9,12-12.8,18.1c-3.7,5.7-3.8,15.7-10,19.8c-5.7,3.7-15.2,0-22.3,2
		c-6.6,1.8-12.7,9.9-20.1,9.9c-7.4,0-13.5-8.1-20.1-9.9c-7.2-1.9-16.7,1.7-22.3-2c-6.3-4.1-6.4-14.1-10-19.8
		c-3.9-6.1-12.8-10.9-12.8-18.1c0-7.2,8.9-12,12.8-18.1c3.7-5.7,3.8-15.7,10-19.8c5.7-3.7,15.2,0,22.3-2c6.6-1.8,12.7-9.9,20.1-9.9
		c7.4,0,13.5,8.1,20.1,9.9c7.2,1.9,16.7-1.7,22.3,2c6.3,4.1,6.4,14.1,10,19.8C134.4,188.3,143.3,193.1,143.3,200.3z"/>
</g>
<g>
	<path class="st11" d="M70.6,266.4c2.3-5.6,3.5-11.2,4.4-16.8c0.4-2.8,0.8-5.6,1-8.4l0.6-8.4c0.3-5.6,0.6-11.2,0.8-16.8
		c0.1-5.6,0.2-11.2,0.1-16.8h1.2c-0.2,5.6-0.1,11.2,0.1,16.8c0.2,5.6,0.4,11.2,0.8,16.8l0.6,8.4c0.2,2.8,0.6,5.6,1,8.4
		c0.9,5.6,2.1,11.2,4.4,16.8H70.6z"/>
</g>
</svg>
