<?xml version="1.0" encoding="utf-8"?>
<!-- Generator: Adobe Illustrator 24.0.1, SVG Export Plug-In . SVG Version: 6.00 Build 0)  -->
<svg version="1.1" id="Layer_1" xmlns="http://www.w3.org/2000/svg" xmlns:xlink="http://www.w3.org/1999/xlink" x="0px" y="0px"
	 viewBox="0 0 600 373.4" style="enable-background:new 0 0 600 373.4;" xml:space="preserve">
<style type="text/css">
	.st0{fill:url(#SVGID_1_);}
	.st1{fill:#CD138C;}
	.st2{fill:#221E20;}
	.st3{fill:url(#SVGID_2_);}
	.st4{fill:#4F4E4E;}
	.st5{fill:#871FFF;}
	.st6{fill:#DDDDDD;}
	.st7{fill:url(#SVGID_3_);}
	.st8{fill:#EAEAEA;}
	.st9{fill:url(#SVGID_4_);}
	.st10{fill:#FFFFFF;}
	.st11{fill:#F2F2F2;}
	.st12{fill:url(#SVGID_5_);}
	.st13{fill:#221F1F;}
</style>
<linearGradient id="SVGID_1_" gradientUnits="userSpaceOnUse" x1="18.5268" y1="175.6976" x2="601.1021" y2="175.6976">
	<stop  offset="0" style="stop-color:#D6219C"/>
	<stop  offset="1" style="stop-color:#80C7F5"/>
</linearGradient>
<path class="st0" d="M515.5,48.8h43.4c0-14.5-12.1-26.3-27.1-26.3c-10.6,0-19.7,5.9-24.2,14.4c-1.7-0.8-3.7-1.3-5.7-1.3
	c-7.5,0-13.5,5.9-13.5,13.2h16.3H515.5z M1.8,134.4h12.4h18h29.1H89h22.2c0-13.8-11.2-24.9-24.9-24.9c-2.1,0-4.2,0.3-6.1,0.8
	C73.3,102.2,63,97,51.6,97c-15.2,0-28.3,9.1-34.2,22.2c-0.2,0-0.3,0-0.5,0C8.6,119.2,1.8,126,1.8,134.4z M142.2,66.3h20.4h29.6h47.8
	h45.5h36.4c0-22.6-18.3-41-41-41c-3.5,0-6.8,0.4-10,1.2c-11.3-13.3-28.1-21.7-46.8-21.7c-25,0-46.6,15-56.1,36.4c-0.2,0-0.5,0-0.7,0
	C153.4,41.3,142.2,52.5,142.2,66.3z M493,114.4h-50.3h-29.6h-23.7c0-14.7,11.9-26.7,26.7-26.7c2.3,0,4.4,0.3,6.5,0.8
	c7.3-8.6,18.3-14.1,30.5-14.1C475.1,74.5,493,92.4,493,114.4z M351.8,228.4h54.9v117.8h-54.9V228.4z M414.7,345.6h54.9V188.4h-54.9
	V345.6z M477.7,346.5h54.9V151.2h-54.9V346.5z M539.5,106.8v239.5h54.9V106.8H539.5z"/>
<path d="M364.3,192.3c0-3.7-3-6.8-6.8-6.8c-0.1,0-0.1,0-0.2,0c-1.9-0.1-5.4-0.4-5.4-0.4l-25.1-1.1l1.5,15l30.2-0.1
	C361.8,198.4,364.3,195.7,364.3,192.3z"/>
<path class="st1" d="M335.7,330.2l-21-0.9l-6.3-85.5l-19.1,88.6l6.3,1c3.3,0.5,5.5,3.5,5.2,6.8l0,0c-0.4,3.5-3.6,6-7.1,5.4
	l-28.2,0.1l18.2-124.2c0,0,35.6,1.8,47.3-9l2.2,104.9l4,0.7c3.1,0.3,5.5,2.9,5.5,6.1v0C342.6,327.8,339.4,330.7,335.7,330.2z"/>
<circle class="st2" cx="303.3" cy="142.1" r="8.3"/>
<linearGradient id="SVGID_2_" gradientUnits="userSpaceOnUse" x1="302.0688" y1="124.7991" x2="298.5153" y2="147.305">
	<stop  offset="0" style="stop-color:#FFA68C"/>
	<stop  offset="1" style="stop-color:#CD138C"/>
</linearGradient>
<path class="st3" d="M302,138.4c2.5,0.7,3.9,0.4,6.4-1c2.7-1.5,3.7-7.3-4.3-9.1c-6.6-1.5-13.9,2.1-13.9,11.5c0,8.3,9.8,10,9.8,10
	s-3.4-2.6-2.2-4.3c0.3-0.5,0.9-1.1,1.7-1.7c0.9-0.7,0.5-1.8,0.2-3.2C299.3,139.2,300.6,138,302,138.4z"/>
<path class="st2" d="M298.3,155.2c0.1,3.9,6.6,6.8,10.1,5.3c2.8-1.2,3.6-7.1,1.3-9L298.3,155.2z"/>
<g>
	<polygon class="st4" points="333.9,353.7 326.1,347.6 362.3,338.5 468,359 	"/>
	<path class="st5" d="M269.4,353.7c0,0.7,14.6,11.6,32.4,11.6s32.1-10.9,32.1-11.6c0-0.7-32.1-23.8-32.1-23.8S269.4,353,269.4,353.7
		z"/>
	<polygon class="st4" points="269.6,353.7 277.4,347.6 241.2,338.5 135.5,359 	"/>
</g>
<path class="st6" d="M301.7,329.2l0.2-25.8c0,0,31.6-37.4,82.4-40.8c50.8-3.5,72.2,37.1,130.6,43.7c0.4,2.8,40.1,24.8,40.1,24.8
	L301.7,329.2z"/>
<linearGradient id="SVGID_3_" gradientUnits="userSpaceOnUse" x1="45.7042" y1="325.488" x2="532.3107" y2="325.488">
	<stop  offset="0" style="stop-color:#FFA68C"/>
	<stop  offset="0.8758" style="stop-color:#D6219C"/>
</linearGradient>
<path class="st7" d="M331.5,351.2c-9.5-2.8-29.7-21.4-29.7-21.4s31.6-39.2,82.4-42.7c50.8-3.5,64.3,39,170.8,43.9
	c0.4,2.8,1.5,9,1.5,9h1.4l2.2,9.9h1.4c0,0,2.5,10.1,3.9,14C383.8,360.9,363.6,336.6,331.5,351.2z"/>
<path class="st8" d="M301.4,329.2l0.1-23.9c0,0-31.5-39.3-82.3-42.9c-50.8-3.6-72.3,36.9-130.7,43.4c-0.4,2.7-40.2,24.6-40.2,24.6
	L301.4,329.2z"/>
<linearGradient id="SVGID_4_" gradientUnits="userSpaceOnUse" x1="45.7042" y1="325.488" x2="532.3107" y2="325.488">
	<stop  offset="0" style="stop-color:#FFA68C"/>
	<stop  offset="0.8758" style="stop-color:#D6219C"/>
</linearGradient>
<path class="st9" d="M272,351.2c9.5-2.8,29.7-21.4,29.7-21.4s-31.6-39.2-82.4-42.7c-50.8-3.5-64.3,39-170.8,43.9
	c-0.4,2.8-1.5,9-1.5,9h-1.4l-2.2,9.9H42c0,0-2.5,10.1-3.9,14C219.7,360.9,239.9,336.6,272,351.2z"/>
<g>
	<path d="M301.8,368c-7.3,0-14.3-1.2-20.4-3.5c-6.1-2.3-11-5.6-14-9.6c-1-1.3-0.8-3.2,0.5-4.2c1.3-1,3.2-0.8,4.2,0.5
		c2.4,3.1,6.3,5.7,11.4,7.7c5.4,2.1,11.7,3.1,18.3,3.1c6.6,0,12.9-1.1,18.3-3.1c5.1-1.9,9-4.6,11.4-7.7c1-1.3,2.9-1.5,4.2-0.5
		c1.3,1,1.5,2.9,0.5,4.2c-3,3.9-7.9,7.3-14,9.6C316.2,366.8,309.1,368,301.8,368z"/>
	<path d="M568.4,368c-0.1,0-0.1,0-0.2,0l-234.4-12c-1.7-0.1-2.9-1.5-2.8-3.1c0.1-1.7,1.5-2.9,3.1-2.8l234.4,12
		c1.7,0.1,2.9,1.5,2.8,3.1C571.3,366.8,570,368,568.4,368z"/>
	<path d="M35.3,368c0.1,0,0.1,0,0.2,0l234.4-12c1.7-0.1,2.9-1.5,2.8-3.1c-0.1-1.7-1.5-2.9-3.1-2.8L35.1,362
		c-1.7,0.1-2.9,1.5-2.8,3.1C32.4,366.8,33.7,368,35.3,368z"/>
</g>
<g>
	<path class="st10" d="M319.1,327.6c21.1-21.3,51.7-35,82-31.1c35.6,4.5,64.1,32.1,100.3,33.9c-35.3-0.2-63.7-25.6-97.7-31.7
		C373.1,293.2,341.3,307.2,319.1,327.6z"/>
	<path class="st10" d="M326.4,336.4c19.3-19.1,46.4-26.6,73.1-23.4c26.4,2.7,48.8,20.8,75.1,24.6c-26.4,1-49-15.4-74.4-19.1
		C373.8,314.8,348.3,321.4,326.4,336.4z"/>
	<path class="st10" d="M331.7,346.2c21.5-15.6,43.9-20.8,70.1-14.9c32,7.2,62.3,15.6,95.3,17.5c-30.4,1.7-59.2-4.4-88.4-12.1
		C380.5,329.3,356.8,331.8,331.7,346.2z"/>
	<path class="st10" d="M284.4,327.6c-21.1-21.3-51.7-35-82-31.1c-35.6,4.5-64.1,32.1-100.3,33.9c35.3-0.2,63.7-25.6,97.7-31.7
		C230.4,293.2,262.2,307.2,284.4,327.6z"/>
	<path class="st10" d="M271.9,346.2c-21.5-15.6-43.9-20.8-70.1-14.9c-32,7.2-62.3,15.6-95.3,17.5c30.4,1.7,59.2-4.4,88.4-12.1
		C223,329.3,246.7,331.8,271.9,346.2z"/>
</g>
<path class="st10" d="M301.7,329.9c-67-102-164.3-38.7-217.6-106.1c13.6-13.6,57-57,63.7-63.7c33.8,64.3,154.5,73,154.1,139.3
	C301.8,308,301.7,317.8,301.7,329.9z"/>
<path class="st11" d="M301.7,303.4c0,12.8-0.2,18.9-0.2,25.7c49.6-57.6,88.9-52.6,132-35.6c32.5,12.8,66.1,30,109,27.9
	c-4.6-3.8-20.2-18.2-27.1-25.5C455.5,293.6,384.7,214.5,301.7,303.4z"/>
<path class="st10" d="M301.8,303.4c24.3-87.1,156.9-68.1,199.6-90.5c13.4,18.1,23.4,27,35.1,42.4c-85.4,39.7-178.6-29.5-234.9,73.8
	C301.7,316.8,301.8,314.4,301.8,303.4z"/>
<path class="st8" d="M400.8,144.5c-33.3,45.8-104.7,77.7-100.4,163.2c0.9,18.1,0.3,8.7,1.2,26.4c15.3-96.1,140.6-131.9,158.6-163.2
	C440.3,161.3,419.3,150.5,400.8,144.5z"/>
<linearGradient id="SVGID_5_" gradientUnits="userSpaceOnUse" x1="271.9979" y1="341.3599" x2="331.6763" y2="341.3599">
	<stop  offset="0" style="stop-color:#6DCFF6"/>
	<stop  offset="1" style="stop-color:#80C7F5"/>
</linearGradient>
<path class="st12" d="M329.3,353.6c-4.7,0-9.5-4.9-14.6-10.1c-4.4-4.5-9.4-9.6-12.9-9.6c-3.6,0-8.7,5.2-13.2,9.8
	c-5.2,5.3-9.8,10-14.3,10c-1.3,0-2.3-1-2.3-2.3c0-1.3,9.4-6.9,13.3-10.9c5.4-5.5,11-11.2,16.5-11.2c5.5,0,11,5.6,16.3,11
	c4,4.1,13.6,9.7,13.6,11C331.7,352.5,330.6,353.6,329.3,353.6z"/>
<path class="st10" d="M281.5,187c0,0,2.6-24.3,5.6-27.8c2.4-2.8,14.1-6.8,25.9-9.6c1.5-0.3,6.1-1.3,9.5,4.3c4.3,7,7.1,19.5,7.1,19.5
	l-5.6,4.9l6.8,34.1c-4.2,8.1-47.2,10.8-47.3,9l0.9-4.3l1.4-12.7l-2-18.2L281.5,187z"/>
<path class="st13" d="M303,202.7c-1.7-4.6-5.2-19.3-5.2-19.3l-13.8,2.9c0,0,1.9,20.4,5.5,25.8c3.9,5.9,32.6,18.9,32.6,18.9
	c2.7,1,5.8-0.4,6.8-3.2C332.4,220.4,305.8,210.1,303,202.7z"/>
<polygon points="332.8,187 329.7,173.5 324.1,178.3 328.4,199.1 "/>
</svg>
