<?xml version="1.0" encoding="iso-8859-1"?>
<!-- Generator: Adobe Illustrator 24.0.0, SVG Export Plug-In . SVG Version: 6.00 Build 0)  -->
<svg version="1.1" id="Layer_1" xmlns="http://www.w3.org/2000/svg" xmlns:xlink="http://www.w3.org/1999/xlink" x="0px" y="0px"
	 viewBox="0 0 500 325.029" style="enable-background:new 0 0 500 325.029;" xml:space="preserve">
<linearGradient id="SVGID_1_" gradientUnits="userSpaceOnUse" x1="250" y1="325.8313" x2="250" y2="36.1529">
	<stop  offset="8.011200e-04" style="stop-color:#871FFF"/>
	<stop  offset="1" style="stop-color:#80C7F5"/>
</linearGradient>
<path style="fill:url(#SVGID_1_);" d="M5.794,187.279l233.75,134.956c6.454,3.726,14.405,3.726,20.858,0l233.803-134.986
	c7.725-4.46,7.725-15.611,0-20.071L260.456,32.222c-6.454-3.726-14.405-3.726-20.858,0L5.794,167.208
	C-1.931,171.668-1.931,182.819,5.794,187.279z"/>
<linearGradient id="SVGID_2_" gradientUnits="userSpaceOnUse" x1="252.2504" y1="133.5725" x2="245.2727" y2="7.9734">
	<stop  offset="0" style="stop-color:#D6219C"/>
	<stop  offset="1" style="stop-color:#FFA68C"/>
</linearGradient>
<path style="fill:url(#SVGID_2_);" d="M253.058,0.195c-1.681-0.956-5.624,1.875-11.826,2.833
	c-6.815,3.095-5.806,12.395-5.806,12.395c3.336-2.397,4.586-7.296,4.586-7.296h14.802c1.299,4.809,4.899,7.296,4.899,7.296
	C259.769,7.642,256.355,1.553,253.058,0.195z M324.231,129.764c-9.001,0.448-16.655-6.496-17.098-15.497
	c-0.637-12.979-3.969-24.019-9.902-32.814c-4.677-6.933-11.103-12.688-19.097-17.103c-2.999-1.656-6.011-3.01-8.908-4.117
	l24.82,77.289h-89.968l21.775-78.365c-6.043,2.316-11.174,5.697-15.456,10.195c-16.092,16.906-15.205,44.403-15.192,44.676
	c0.445,9.001-6.49,16.658-15.491,17.103c-0.274,0.013-0.548,0.02-0.82,0.02c-8.642,0-15.852-6.785-16.283-15.511
	c-0.083-1.685-1.744-41.586,24.148-68.788c12.555-13.191,29.002-21.015,49.002-23.358l0.983-3.538h0.004
	c2.031,3.891,6.1,6.55,10.794,6.55c3.797,0,7.187-1.74,9.419-4.464l0.489,1.522c8.103,1.209,21.397,4.188,35.127,11.497
	c20.302,10.807,44.961,33.044,47.15,77.605C340.17,121.666,333.232,129.322,324.231,129.764z"/>
<path d="M246.014,202.395v20.091c-0.781,1.006-1.251,2.266-1.251,3.639c0,3.283,2.661,5.945,5.945,5.945s5.945-2.661,5.945-5.945
	c0-1.592-0.63-3.035-1.649-4.102v-19.837l29.589,15.573v4.168c-1.073,1.075-1.736,2.559-1.736,4.198
	c0,3.283,2.661,5.945,5.945,5.945c3.283,0,5.945-2.661,5.945-5.945c0-1.787-0.792-3.385-2.04-4.475v-7.674l-37.702-20.991h-8.989
	v0.222l-37.304,20.769v7.484c-1.379,1.089-2.268,2.772-2.268,4.665c0,3.283,2.661,5.945,5.945,5.945
	c3.283,0,5.945-2.661,5.945-5.945c0-1.517-0.573-2.897-1.508-3.947v-4.419L246.014,202.395z"/>
<polyline points="255.003,150.96 255.003,192.985 246.412,192.985 246.412,150.96 "/>
<path d="M206.156,150.96c-2.397,0-4.339-2.958-4.339-6.607l0,0c0-3.649,1.943-6.607,4.339-6.607h87.784
	c2.397,0,4.339,2.958,4.339,6.607l0,0c0,3.649-1.943,6.607-4.339,6.607H206.156z"/>
<path style="fill:#D6219C;" d="M221.131,121.204l-28.342,50.717l3.149,67.457h-5.469c0,0-4.972,0-4.475,5.138
	c0,0,0.331,4.641,5.138,4.641l38.949-2.818l-8.95-70.44l29.441-50.22"/>
<path style="fill:#D6219C;" d="M284.92,131.154l18.974,41.94l-26.623,62.061l5.122,1.92c0,0,4.656,1.745,2.387,6.382
	c0,0-1.939,4.229-6.44,2.542l-35.483-16.308l33.102-62.819l-30.65-37.839"/>
<path style="fill:#FFFFFF;" d="M178.447,86.248v1.647c-2.877,0-5.218,2.341-5.218,5.218c0,2.877,2.341,5.218,5.218,5.218v2.421
	h14.948V86.248H178.447z M174.627,93.114c0-2.106,1.714-3.82,3.82-3.82v7.64C176.34,96.933,174.627,95.22,174.627,93.114z"/>
<path style="fill:#FFFFFF;" d="M374.908,100.752v7.498h-0.022v125.274h-7.498V108.25H141.762v125.274h-7.498V108.25v-7.498H374.908z
	"/>
<rect x="216.435" y="94.159" width="65.77" height="2.961"/>
<path d="M215.493,98.024c0,1.035,1.135,1.874,2.536,1.874h63.09c1.4,0,2.536-0.839,2.536-1.874v-1.236h-68.162V98.024z"/>
<path d="M281.119,54.696h-63.09c-1.4,0-2.536,1.053-2.536,2.351v36.054c0,1.299,1.135,2.351,2.536,2.351h63.09
	c1.4,0,2.536-1.053,2.536-2.351V57.048C283.655,55.749,282.52,54.696,281.119,54.696z"/>
<circle cx="159.391" cy="91.342" r="9.411"/>
<ellipse transform="matrix(0.5502 -0.835 0.835 0.5502 2.3125 162.0417)" style="fill:#D6219C;" cx="151.566" cy="78.874" rx="1.888" ry="10.068"/>
<ellipse transform="matrix(0.866 -0.5 0.5 0.866 -17.2207 87.8867)" style="fill:#D6219C;" cx="155.388" cy="76.078" rx="1.888" ry="10.068"/>
<ellipse transform="matrix(0.8026 -0.5965 0.5965 0.8026 -13.8668 115.8405)" style="fill:#D6219C;" cx="168.112" cy="78.874" rx="9.34" ry="1.82"/>
<ellipse transform="matrix(0.456 -0.89 0.89 0.456 21.8909 187.9669)" style="fill:#D6219C;" cx="164.694" cy="76.078" rx="9.814" ry="1.732"/>
</svg>
