<?xml version="1.0" encoding="iso-8859-1"?>
<!-- Generator: Adobe Illustrator 24.0.0, SVG Export Plug-In . SVG Version: 6.00 Build 0)  -->
<svg version="1.1" id="Layer_1" xmlns="http://www.w3.org/2000/svg" xmlns:xlink="http://www.w3.org/1999/xlink" x="0px" y="0px"
	 viewBox="0 0 500 314.554" style="enable-background:new 0 0 500 314.554;" xml:space="preserve">
<circle cx="231.736" cy="11.04" r="11.04"/>
<path style="fill:#D6219C;" d="M338.644,292.542L338.644,292.542c-0.99-4.809-5.649-7.939-10.475-7.038l-17.178,3.21
	l-37.054-140.418h-77.662l-1.443,49.645l-70.138,43.007l33.477,55.684c2.678,4.455,8.421,5.962,12.941,3.396h0
	c4.561-2.589,6.193-8.365,3.661-12.958l-10.681-19.374l69.996-43.197l2.515-44.272l37.066,134.327l57.888-11.36
	C336.47,302.23,339.653,297.445,338.644,292.542z"/>
<linearGradient id="SVGID_1_" gradientUnits="userSpaceOnUse" x1="272.3516" y1="52.4144" x2="272.3516" y2="-1.1725">
	<stop  offset="0" style="stop-color:#B3008C"/>
	<stop  offset="0.9984" style="stop-color:#ECA694"/>
</linearGradient>
<path style="fill:url(#SVGID_1_);" d="M298.843,110.457l20.515-0.716c2.659-0.093,4.739-2.324,4.646-4.983l-1.417-40.563
	c-0.093-2.659-2.324-4.739-4.983-4.646l-20.515,0.716c-2.659,0.093-4.739,2.324-4.646,4.983l1.416,40.563
	C293.953,108.47,296.184,110.55,298.843,110.457z M229.725,8.38c1.368,0.32,2.792,0.494,4.257,0.494c2.879,0,5.606-0.654,8.04-1.819
	C240.423,2.93,236.426,0,231.736,0c-6.097,0-11.04,4.943-11.04,11.04c0,1.571,0.333,3.063,0.925,4.416
	C224.965,13.937,227.786,11.466,229.725,8.38z"/>
<path d="M239.324,117.761l70.178-22.015c7.06-2.215,10.988-9.733,8.773-16.793l0,0c-2.215-7.06-9.733-10.988-16.793-8.773
	l-58.706,18.416l-2.742-10.087l-23.091,9.236l3.979,19.203C222.65,115.286,231.199,120.309,239.324,117.761z"/>
<g>
	<path d="M166.816,101.11c-4.015,5.082-3.15,12.455,1.932,16.47h0c5.082,4.015,12.455,3.15,16.47-1.932l20.949-26.517
		c0.077-17.504,3.381-34.244,9.345-49.66L166.816,101.11z"/>
</g>
<circle cx="418.017" cy="74.362" r="7.257"/>
<path style="fill:#871FFF;" d="M499.462,246.508c-1.429-3.218-5.237-4.616-8.408-3.086l-10.098,4.872l-40.285-87.62h-44.284
	l-9.617,30.56l-46.916,28.773l21.766,36.595c1.932,3.248,6.129,4.318,9.38,2.391h0c3.184-1.888,4.293-5.964,2.503-9.204
	l-6.908-12.507l45.755-29.159l8.349-27.614l40.387,91.48l35.421-17.352C499.517,253.163,500.823,249.572,499.462,246.508z"/>
<linearGradient id="SVGID_2_" gradientUnits="userSpaceOnUse" x1="408.1171" y1="95.0173" x2="473.0528" y2="95.0173">
	<stop  offset="0" style="stop-color:#80C7F5"/>
	<stop  offset="0.9992" style="stop-color:#871FFF"/>
</linearGradient>
<path style="fill:url(#SVGID_2_);" d="M456.901,129.196l8.646,0.805c2.789,0.259,5.26-1.791,5.519-4.579l1.965-21.113
	c0.259-2.789-1.791-5.26-4.579-5.519l-8.646-0.805c-2.789-0.259-5.26,1.791-5.519,4.579l-1.965,21.113
	C452.062,126.466,454.112,128.937,456.901,129.196z M412.511,68.799c0.343,0,0.676-0.043,0.997-0.118
	c-1.672,1.329-2.748,3.377-2.748,5.68c0,1.033,0.219,2.013,0.608,2.902c2.199-0.999,4.053-2.623,5.328-4.651
	c0.899,0.21,1.835,0.325,2.798,0.325c1.893,0,3.685-0.43,5.285-1.196c-1.052-2.711-3.679-4.637-6.762-4.637
	c-0.846,0-1.655,0.152-2.411,0.419c0.802-0.796,1.299-1.899,1.299-3.118c0-2.427-1.967-4.394-4.394-4.394s-4.394,1.967-4.394,4.394
	C408.117,66.832,410.084,68.799,412.511,68.799z"/>
<path d="M463.265,121.41c4.657-1.467,7.205-6.47,5.652-11.1v0c-1.518-4.529-6.395-6.996-10.944-5.536l-37.431,12.017l-2.536-6.751
	l-15.177,5.301l2.095,12.122c1.016,5.878,6.951,9.538,12.66,7.806L463.265,121.41z"/>
<path style="fill:#FFFFFF;" d="M23.303,180.095c0-57.601,26.715-99.094,26.715-99.094c0.08,0.082,26.936,36.116,28.063,99.094
	H23.303z"/>
<linearGradient id="SVGID_3_" gradientUnits="userSpaceOnUse" x1="69.2333" y1="74.7259" x2="69.2333" y2="134.0757">
	<stop  offset="8.011200e-04" style="stop-color:#643BB6"/>
	<stop  offset="0.9984" style="stop-color:#ECA694"/>
</linearGradient>
<path style="fill:url(#SVGID_3_);" d="M61.62,78.397c-0.858,3.295-4.225,5.271-7.52,4.413c-2.241-0.584-3.869-2.329-4.413-4.422
	c-2.019,1.196-3.588,3.148-4.227,5.603c-0.054,0.208-0.092,0.417-0.13,0.625c0,0.417-0.043,0.839-0.131,1.263
	c-0.015,0.44-0.006,0.877,0.034,1.309c-0.109-0.109-0.215-0.221-0.317-0.336c-1.115,2.881-4.236,4.533-7.298,3.736
	c-3.295-0.858-5.271-4.225-4.413-7.52c0.858-3.295,4.225-5.271,7.52-4.413c1.024,0.267,1.921,0.776,2.645,1.451
	c0.858-2.983,3.485-4.997,6.437-5.192c1.009-3.065,4.235-4.86,7.401-4.036C60.502,71.735,62.477,75.102,61.62,78.397z
	 M87.029,163.914l-3.211-1.485c-4.045-1.87-5.807-6.665-3.937-10.71l6.977-15.088c1.87-4.045,6.665-5.807,10.71-3.937l3.211,1.485
	c4.045,1.87,5.807,6.665,3.937,10.71l-6.977,15.088C95.868,164.022,91.074,165.784,87.029,163.914z"/>
<path style="fill:#FA7554;" d="M52.323,180.095l-2.013,25.673l-24.903,34.372l5.499,4.889c2.626,2.335,2.863,6.357,0.528,8.983h0
	c-2.335,2.626-6.357,2.863-8.983,0.528L0,234.152l23.076-33.741l0.227-20.315H52.323z"/>
<path style="fill:#FA7554;" d="M78.099,180.095l14.49,52.154l7.123-1.845c3.402-0.881,6.874,1.162,7.755,4.564l0,0
	c0.881,3.402-1.162,6.874-4.564,7.755l-32.292,8.367l-21.308-70.995H78.099z"/>
<path d="M55.697,77.019c-4.592-0.461-8.965,2.433-10.164,7.039c-0.251,0.966-0.311,1.93-0.256,2.876
	c1.319,1.488,3.24,2.432,5.385,2.432c3.977,0,7.202-3.224,7.202-7.202C57.864,80.147,57.033,78.326,55.697,77.019z"/>
<path d="M40.848,150.854l34.869,11.168c5.242,1.679,10.82-1.385,12.214-6.71l0,0c1.309-4.997-1.571-10.134-6.517-11.624
	l-25.966-7.823l-4.239-15.735l-15.062,6.025L40.848,150.854z"/>
</svg>
