<?xml version="1.0" encoding="iso-8859-1"?>
<!-- Generator: Adobe Illustrator 24.0.0, SVG Export Plug-In . SVG Version: 6.00 Build 0)  -->
<svg version="1.1" id="Layer_1" xmlns="http://www.w3.org/2000/svg" xmlns:xlink="http://www.w3.org/1999/xlink" x="0px" y="0px"
	 viewBox="0 0 500 308.012" style="enable-background:new 0 0 500 308.012;" xml:space="preserve">
<linearGradient id="SVGID_1_" gradientUnits="userSpaceOnUse" x1="236.9108" y1="-66.7715" x2="236.9108" y2="207.7399" gradientTransform="matrix(1 0 0 -1 0 242)">
	<stop  offset="8.011200e-04" style="stop-color:#6F54A3"/>
	<stop  offset="1" style="stop-color:#85C6ED"/>
</linearGradient>
<path style="fill:url(#SVGID_1_);" d="M5.491,177.474l221.512,127.889c6.116,3.531,13.65,3.531,19.766,0l221.562-127.919
	c7.321-4.227,7.321-14.794,0-19.021L246.818,30.535c-6.116-3.531-13.65-3.531-19.766,0L5.491,158.453
	C-1.83,162.68-1.83,173.246,5.491,177.474z"/>
<linearGradient id="SVGID_2_" gradientUnits="userSpaceOnUse" x1="239.0423" y1="115.4211" x2="232.43" y2="234.4441" gradientTransform="matrix(1 0 0 -1 0 242)">
	<stop  offset="0" style="stop-color:#CF3293"/>
	<stop  offset="1" style="stop-color:#F8A58D"/>
</linearGradient>
<path style="fill:url(#SVGID_2_);" d="M239.809,0.184c-1.594-0.906-5.33,1.777-11.207,2.685c-6.459,2.933-5.502,11.746-5.502,11.746
	c3.16-2.272,4.346-6.914,4.346-6.914h14.027c1.231,4.557,4.642,6.914,4.642,6.914C246.168,7.242,242.932,1.472,239.809,0.184z
	 M307.255,122.969c-8.531,0.424-15.783-6.156-16.202-14.686c-0.604-12.3-3.761-22.762-9.383-31.095
	c-4.432-6.57-10.522-12.024-18.098-16.207c-2.841-1.569-5.697-2.853-8.442-3.901l23.52,73.242h-85.257l20.634-74.262
	c-5.726,2.195-10.589,5.399-14.647,9.661c-15.249,16.022-14.409,42.078-14.396,42.337c0.422,8.529-6.15,15.785-14.68,16.208
	c-0.259,0.013-0.52,0.019-0.776,0.019c-8.189,0-15.021-6.43-15.431-14.699c-0.079-1.597-1.653-39.408,22.884-65.186
	c11.898-12.5,27.484-19.915,46.437-22.135l0.931-3.354h0.004c1.924,3.688,5.781,6.206,10.228,6.206c3.599,0,6.811-1.648,8.926-4.23
	l0.463,1.442c7.679,1.145,20.277,3.969,33.287,10.894c19.239,10.241,42.607,31.314,44.682,73.542
	C322.359,115.296,315.784,122.551,307.255,122.969z"/>
<path style="fill:#010101;" d="M233.134,191.798v19.038c-0.741,0.953-1.186,2.148-1.186,3.449c0,3.111,2.522,5.633,5.633,5.633
	c3.111,0,5.633-2.522,5.633-5.633c0-1.51-0.597-2.876-1.563-3.887v-18.798l28.039,14.757v3.949
	c-1.017,1.019-1.646,2.425-1.646,3.979c0,3.111,2.522,5.633,5.633,5.633c3.111,0,5.633-2.522,5.633-5.633
	c0-1.693-0.751-3.209-1.933-4.24v-7.273L241.65,182.88h-8.518v0.21l-35.351,19.681v7.092c-1.308,1.032-2.149,2.627-2.149,4.421
	c0,3.111,2.522,5.633,5.633,5.633c3.111,0,5.633-2.522,5.633-5.633c0-1.437-0.543-2.745-1.43-3.741v-4.187L233.134,191.798z"/>
<polyline style="fill:#010101;" points="241.651,143.056 241.651,182.881 233.511,182.881 233.511,143.056 "/>
<path style="fill:#010101;" d="M195.362,143.056c-2.271,0-4.112-2.803-4.112-6.261l0,0c0-3.458,1.841-6.261,4.112-6.261h83.188
	c2.271,0,4.112,2.803,4.112,6.261l0,0c0,3.458-1.841,6.261-4.112,6.261H195.362z"/>
<path style="fill:#CF3293;" d="M209.552,114.858l-26.859,48.062l2.984,63.925h-5.183c0,0-4.712,0-4.24,4.87
	c0,0,0.314,4.398,4.87,4.398l36.91-2.67l-8.481-66.752l27.899-47.591"/>
<path style="fill:#CF3293;" d="M270.002,124.287l17.981,39.745l-25.229,58.811l4.853,1.818c0,0,4.412,1.653,2.262,6.047
	c0,0-1.837,4.008-6.102,2.409l-33.625-15.454l31.37-59.529l-29.045-35.858"/>
<path style="fill:#FFFFFF;" d="M169.103,81.732v1.56c-2.727,0-4.944,2.219-4.944,4.944c0,2.727,2.219,4.944,4.944,4.944v2.294
	h14.165V81.732H169.103z M165.484,88.238c0-1.996,1.624-3.62,3.62-3.62v7.239C167.107,91.859,165.484,90.234,165.484,88.238z"/>
<path style="fill:#FFFFFF;" d="M355.278,95.478v7.105h-0.02v118.714h-7.105V102.582H134.339v118.714h-7.105V102.582v-7.105
	C127.235,95.478,355.278,95.478,355.278,95.478z"/>
<rect x="205.103" y="89.229" style="fill:#010101;" width="62.326" height="2.806"/>
<path style="fill:#010101;" d="M204.21,92.892c0,0.981,1.076,1.775,2.403,1.775H266.4c1.327,0,2.403-0.795,2.403-1.775V91.72H204.21
	L204.21,92.892L204.21,92.892z"/>
<path style="fill:#010101;" d="M266.4,51.833h-59.787c-1.327,0-2.403,0.998-2.403,2.228v34.165c0,1.23,1.076,2.228,2.403,2.228
	H266.4c1.327,0,2.403-0.998,2.403-2.228V54.06C268.803,52.83,267.727,51.833,266.4,51.833z"/>
<circle style="fill:#010101;" cx="151.046" cy="86.559" r="8.918"/>
<ellipse transform="matrix(0.5502 -0.835 0.835 0.5502 2.1831 153.5541)" style="fill:#CF3293;" cx="143.628" cy="74.751" rx="1.789" ry="9.541"/>
<ellipse transform="matrix(0.866 -0.5 0.5 0.866 -16.3185 83.2851)" style="fill:#CF3293;" cx="147.249" cy="72.093" rx="1.789" ry="9.541"/>
<ellipse transform="matrix(0.8026 -0.5965 0.5965 0.8026 -13.1352 109.7793)" style="fill:#CF3293;" cx="159.306" cy="74.737" rx="8.851" ry="1.724"/>
<ellipse transform="matrix(0.456 -0.89 0.89 0.456 20.7427 178.1275)" style="fill:#CF3293;" cx="156.077" cy="72.096" rx="9.301" ry="1.641"/>
<g>
	
		<linearGradient id="SVGID_3_" gradientUnits="userSpaceOnUse" x1="376.0606" y1="88.8971" x2="490.0062" y2="88.8971" gradientTransform="matrix(0.9997 -0.0231 -0.0231 -0.9997 7.3687 253.4869)">
		<stop  offset="8.011200e-04" style="stop-color:#6F54A3"/>
		<stop  offset="1" style="stop-color:#85C6ED"/>
	</linearGradient>
	<path style="fill:url(#SVGID_3_);" d="M392.134,115.555l74.27-45.261c3.05-1.857,5.849-1.929,7.931-0.572l0.034-0.011
		l19.153,12.091c0,0-4.979,7.626-8.434,16.544l1.571,67.891c0.2,8.613-4.713,18.738-11.086,22.618l-60.335,36.763
		c-5.491,9.745-12.254,14.874-12.254,14.874l-14.255-9.097c-4.741-3.514-5.778-8.273-5.975-11.066l-1.901-82.15
		C380.653,129.564,385.76,119.435,392.134,115.555z"/>
	<path style="fill:#85C6ED;" d="M402.904,240.616l85.91-44.498c6.374-3.88,11.38-14.007,11.18-22.621l-1.901-82.15
		c-0.2-8.613-5.528-12.452-11.902-8.572l-74.373,45.264c-6.374,3.88-11.38,14.007-11.18,22.621l1.816,78.464l0.085,3.685
		c0.015-0.085,0.193,7.602,0.193,7.602C402.651,240.456,402.904,240.616,402.904,240.616z"/>
</g>
<g>
	<path style="fill:#FFFFFF;" d="M463.582,123.437c-20.454,0-43.031,16.567-50.475,37.021c-7.444,20.454,3.074,37.021,23.528,37.021
		s43.068-16.567,50.513-37.021C494.591,140.003,484.036,123.437,463.582,123.437z M457.701,182.669l-12.223-9.44l-19.096,9.44
		l10.627-17.807l-9.449-11.976l18.78-1.555l13.218-16.789l0.998,16.789l17.648,1.555l-18.168,11.976L457.701,182.669z"/>
</g>
</svg>
