<?xml version="1.0" encoding="iso-8859-1"?>
<!-- Generator: Adobe Illustrator 24.0.0, SVG Export Plug-In . SVG Version: 6.00 Build 0)  -->
<svg version="1.1" id="Layer_1" xmlns="http://www.w3.org/2000/svg" xmlns:xlink="http://www.w3.org/1999/xlink" x="0px" y="0px"
	 viewBox="0 0 500 405.466" style="enable-background:new 0 0 500 405.466;" xml:space="preserve">
<circle style="fill:#010101;" cx="413.709" cy="110.701" r="9.574"/>
<linearGradient id="SVGID_1_" gradientUnits="userSpaceOnUse" x1="261.0369" y1="-88.2123" x2="261.0369" y2="181.5766" gradientTransform="matrix(1 0 0 -1 0 318)">
	<stop  offset="8.011200e-04" style="stop-color:#6F54A3"/>
	<stop  offset="1" style="stop-color:#85C6ED"/>
</linearGradient>
<path style="fill:url(#SVGID_1_);" d="M33.598,277.173L251.3,402.863c6.011,3.47,13.415,3.47,19.426,0l217.75-125.719
	c7.195-4.154,7.195-14.539,0-18.693L270.774,132.762c-6.011-3.47-13.415-3.47-19.426,0L33.598,258.481
	C26.403,262.633,26.403,273.019,33.598,277.173z"/>
<path style="fill:#CF3293;" d="M419.864,243.449l45.305,38.86l-9.353,3.97c-7.135,2.798-3.017,9.011-3.017,9.011
	c3.882,5.259,11.938,1.312,11.938,1.312L500,282.099l-56.15-52.43l-1.472-34.563l-54.636-0.418l-43.434,90.495l-11.055-5.295
	c-5.447-2.244-8.003,2.015-8.003,2.015c-3.459,5.515,1.68,8.887,1.68,8.887l38.879,18.336l47.839-102.349"/>
<linearGradient id="SVGID_2_" gradientUnits="userSpaceOnUse" x1="398.3403" y1="154.6192" x2="398.3581" y2="221.408" gradientTransform="matrix(1 0 0 -1 0 318)">
	<stop  offset="0" style="stop-color:#CF3293"/>
	<stop  offset="1" style="stop-color:#F8A58D"/>
</linearGradient>
<path style="fill:url(#SVGID_2_);" d="M372.016,149.451l9.434-1.044c2.94-0.326,5.621,1.74,5.957,4.59l2.757,23.4
	c0.336,2.849-1.795,5.448-4.735,5.773l-9.434,1.044c-2.94,0.326-5.621-1.74-5.957-4.59l-2.757-23.4
	C366.944,152.375,369.074,149.776,372.016,149.451z M415.756,96.217c-0.008,0.897,0.254,1.729,0.687,2.452
	c-0.445-0.083-0.897-0.141-1.366-0.144c-3.403-0.026-6.262,2.151-7.226,5.143c2.701,0.833,4.894,1.531,8.97,1.223
	c0.607,1.873-3.879,9.532,4.927,16.494c0.397-0.88,12.181-7.047,5.824-11.486c-5.854-4.086-4.853-6.455-2.262-7.102
	C426.777,102.167,415.777,93.544,415.756,96.217z"/>
<path style="fill:#010101;" d="M369.191,171.461c-2.414-4.254-0.923-9.659,3.331-12.073c0.072-0.041,0.15-0.059,0.221-0.098
	c2.044-1.314,4.177-1.627,4.177-1.627l38.418-8.616l-1.491-6.643l16.92-2.603l3.951,12.411c3.304,10.986-7.941,12.973-7.941,12.973
	l-46.872,10.203C375.918,176.842,371.354,175.274,369.191,171.461z"/>
<g>
	<polygon style="fill:#F8A58D;" points="106.832,205.681 106.652,279.677 77.035,296.776 66.98,321.634 55.796,309.037 
		21.312,328.947 21.51,254.941 	"/>
	<g>
		<g>
			<path style="fill:#FFFFFF;" d="M80.791,250.845c0-6.605-4.016-9.641-8.969-6.78c-3.713,2.144-6.899,6.991-8.262,12.066
				c-1.363-3.501-4.549-4.67-8.262-2.526c-4.954,2.86-8.969,10.533-8.969,17.138c0,3.104,0.894,5.406,2.35,6.692l-0.009,0.012
				l14.891,12.912l14.518-29.387C79.75,257.833,80.791,254.201,80.791,250.845z"/>
		</g>
	</g>
	
		<linearGradient id="SVGID_3_" gradientUnits="userSpaceOnUse" x1="125.742" y1="126.293" x2="-8.6676" y2="-8.1166" gradientTransform="matrix(1 0 0 -1 0 318)">
		<stop  offset="0" style="stop-color:#CF3293"/>
		<stop  offset="0.9984" style="stop-color:#F8A58D"/>
	</linearGradient>
	<path style="fill:url(#SVGID_3_);" d="M21.51,254.941l-0.198,74.005l-14.13-8.155C2.727,318.22-0.014,313.461,0,308.316
		l0.146-53.313c0.02-7.664,4.112-14.739,10.744-18.58l67.258-38.957c4.436-2.57,9.908-2.579,14.353-0.024l14.332,8.238
		L21.51,254.941z M55.796,309.037l-5.85,3.318l17.034,9.278L55.796,309.037z"/>
</g>
<g>
	
		<linearGradient id="SVGID_4_" gradientUnits="userSpaceOnUse" x1="141.959" y1="206.1273" x2="258.4641" y2="206.1273" gradientTransform="matrix(1 0 0 -1 0 318)">
		<stop  offset="0" style="stop-color:#CF3293"/>
		<stop  offset="1" style="stop-color:#F8A58D"/>
	</linearGradient>
	<path style="fill:url(#SVGID_4_);" d="M258.464,29.522c-1.653-3.307-55.906-27.973-55.906-27.973v0.11
		C201.384,0.64,199.874,0,198.206,0l-48.843,23.803c-5.184,1.924-6.688,5.176-6.688,8.855l-0.601,139.204
		c0,3.679-1.622,11.349,7.29,18.151l55.943,33.732c4.539-1.786-1.356-7.306-1.356-10.984l0.721-157.407L258.464,29.522z"/>
	<path style="fill:#FFFFFF;" d="M253.629,204.025l-45.018,20.998c-3.639,0-6.618-2.977-6.618-6.618V59.707
		c0-3.639,1.489-6.857,6.618-8.76l45.018-23.551c2.395-1.182,6.618,2.977,6.618,6.618v161.251
		C260.245,198.904,258.119,202.258,253.629,204.025z"/>
	<polygon style="fill:#010101;" points="219.504,192.676 219.504,221.054 247.881,206.866 247.881,178.72 	"/>
	<polygon style="fill:#010101;" points="226.948,175.929 219.504,178.72 219.504,150.808 226.948,148.016 	"/>
	<polygon style="fill:#010101;" points="248.313,164.783 240.87,167.575 240.87,139.662 248.313,136.871 	"/>
	<polygon style="fill:#010101;" points="226.732,134.079 219.288,136.871 219.288,108.958 226.732,106.167 	"/>
	<polygon style="fill:#010101;" points="248.097,122.934 240.654,125.725 240.654,97.813 248.097,95.021 	"/>
	<polygon style="fill:#010101;" points="226.732,90.311 219.288,93.102 219.288,65.19 226.732,62.399 	"/>
	<polygon style="fill:#010101;" points="248.097,79.165 240.654,81.957 240.654,54.044 248.097,51.253 	"/>
</g>
</svg>
