<?xml version="1.0" encoding="utf-8"?>
<!-- Generator: Adobe Illustrator 23.1.1, SVG Export Plug-In . SVG Version: 6.00 Build 0)  -->
<svg version="1.1" xmlns="http://www.w3.org/2000/svg" xmlns:xlink="http://www.w3.org/1999/xlink" x="0px" y="0px"
	 viewBox="0 0 1240 1240" style="enable-background:new 0 0 1240 1240;" xml:space="preserve">
<style type="text/css">
	.st0{fill:url(#SVGID_1_);}
	.st1{clip-path:url(#SVGID_3_);}
	.st2{fill:#D6219C;}
	.st3{fill:url(#SVGID_4_);}
	.st4{fill:#FFFFFF;}
	.st5{fill:url(#SVGID_5_);}
	.st6{fill:url(#SVGID_6_);}
	.st7{fill:#80C7F5;}
	.st8{clip-path:url(#SVGID_8_);}
	.st9{fill:url(#SVGID_9_);}
	.st10{fill:url(#SVGID_10_);}
	.st11{fill:#FFA78C;}
	.st12{clip-path:url(#SVGID_12_);}
	.st13{fill:url(#SVGID_13_);}
	.st14{fill:url(#SVGID_14_);}
	.st15{fill:url(#SVGID_15_);}
	.st16{fill:url(#SVGID_16_);}
	.st17{fill:url(#SVGID_17_);}
	.st18{fill:#871FFF;}
	.st19{fill:url(#SVGID_18_);}
	.st20{fill:url(#SVGID_19_);}
	.st21{fill:url(#SVGID_20_);}
	.st22{fill:url(#SVGID_21_);}
	.st23{fill:url(#SVGID_22_);}
	.st24{fill:url(#SVGID_23_);}
	.st25{fill:none;stroke:url(#SVGID_24_);stroke-miterlimit:10;}
	.st26{fill:none;stroke:url(#SVGID_25_);stroke-miterlimit:10;}
	.st27{fill:none;stroke:url(#SVGID_26_);stroke-miterlimit:10;}
	.st28{fill:url(#SVGID_27_);}
	.st29{fill:url(#SVGID_28_);}
	.st30{fill:url(#SVGID_29_);}
	.st31{clip-path:url(#SVGID_31_);fill:url(#SVGID_32_);}
	.st32{fill:url(#SVGID_33_);}
	.st33{fill:none;stroke:url(#SVGID_34_);stroke-miterlimit:10;}
	.st34{fill:url(#SVGID_35_);}
	.st35{fill:#FFA68C;}
	.st36{fill:url(#SVGID_36_);}
	.st37{fill:url(#SVGID_37_);}
	.st38{fill:url(#SVGID_38_);}
	.st39{fill:url(#SVGID_39_);}
	.st40{fill:url(#SVGID_40_);}
	.st41{fill:url(#SVGID_41_);}
	.st42{fill:url(#SVGID_42_);}
	.st43{fill:url(#SVGID_43_);}
	.st44{fill:url(#SVGID_44_);}
	.st45{fill:url(#SVGID_45_);}
	.st46{fill:url(#SVGID_46_);}
	.st47{fill:url(#SVGID_47_);}
	.st48{fill:none;stroke:#871FFF;stroke-width:2;stroke-linecap:round;stroke-miterlimit:10;}
	.st49{fill:url(#SVGID_48_);}
	.st50{fill:url(#SVGID_49_);}
	.st51{clip-path:url(#SVGID_51_);}
	.st52{fill:none;stroke:url(#SVGID_52_);stroke-miterlimit:10;}
	.st53{clip-path:url(#SVGID_54_);}
	.st54{fill:url(#SVGID_55_);}
	.st55{fill:none;stroke:#FFFFFF;stroke-miterlimit:10;}
	.st56{fill:url(#SVGID_56_);}
	.st57{fill:url(#SVGID_57_);}
	.st58{fill:url(#SVGID_58_);}
	.st59{fill:url(#SVGID_59_);}
	.st60{fill:url(#SVGID_60_);}
	.st61{clip-path:url(#SVGID_62_);}
	.st62{clip-path:url(#SVGID_66_);}
	.st63{clip-path:url(#SVGID_70_);}
	.st64{clip-path:url(#SVGID_74_);}
	.st65{fill:#FA7554;}
	.st66{clip-path:url(#SVGID_78_);}
	.st67{fill:url(#SVGID_79_);}
	.st68{fill:url(#SVGID_80_);}
	.st69{clip-path:url(#SVGID_82_);}
	.st70{fill:url(#SVGID_83_);}
	.st71{fill:url(#SVGID_84_);}
	.st72{fill:url(#SVGID_85_);}
	.st73{clip-path:url(#SVGID_87_);}
	.st74{fill:url(#SVGID_88_);}
	.st75{clip-path:url(#SVGID_90_);}
	.st76{fill:url(#SVGID_91_);}
	.st77{fill:url(#SVGID_92_);}
	.st78{clip-path:url(#SVGID_94_);}
	.st79{fill:url(#SVGID_95_);}
	.st80{fill:url(#SVGID_96_);}
	.st81{clip-path:url(#SVGID_98_);}
	.st82{fill:url(#SVGID_99_);}
	.st83{fill:url(#SVGID_100_);}
	.st84{fill:url(#SVGID_101_);}
	.st85{fill:url(#SVGID_102_);}
	.st86{clip-path:url(#SVGID_104_);}
	.st87{fill:url(#SVGID_105_);}
	.st88{fill:url(#SVGID_106_);}
	.st89{clip-path:url(#SVGID_108_);}
	.st90{fill:url(#SVGID_109_);}
	.st91{fill:url(#SVGID_110_);}
	.st92{clip-path:url(#SVGID_112_);}
	.st93{fill:url(#SVGID_113_);}
	.st94{fill:url(#SVGID_114_);}
	.st95{clip-path:url(#SVGID_116_);}
	.st96{fill:url(#SVGID_117_);}
	.st97{fill:url(#SVGID_118_);}
	.st98{fill:url(#SVGID_119_);}
	.st99{clip-path:url(#SVGID_121_);}
	.st100{fill:url(#SVGID_122_);}
	.st101{fill:url(#SVGID_123_);}
	.st102{fill:url(#SVGID_124_);}
	.st103{fill:url(#SVGID_125_);}
	.st104{clip-path:url(#SVGID_127_);}
	.st105{fill:url(#SVGID_128_);}
	.st106{fill:url(#SVGID_129_);}
	.st107{fill:url(#SVGID_130_);}
	.st108{clip-path:url(#SVGID_132_);}
	.st109{fill:url(#SVGID_133_);}
	.st110{fill:url(#SVGID_134_);}
	.st111{clip-path:url(#SVGID_136_);}
	.st112{fill:url(#SVGID_137_);}
	.st113{fill:url(#SVGID_138_);}
	.st114{clip-path:url(#SVGID_140_);}
	.st115{fill:url(#SVGID_141_);}
	.st116{fill:url(#SVGID_142_);}
	.st117{clip-path:url(#SVGID_144_);}
	.st118{fill:url(#SVGID_145_);}
	.st119{fill:url(#SVGID_146_);}
	.st120{fill:url(#SVGID_147_);}
	.st121{clip-path:url(#SVGID_149_);}
	.st122{fill:url(#SVGID_150_);}
	.st123{clip-path:url(#SVGID_152_);}
	.st124{fill:url(#SVGID_153_);}
	.st125{fill:url(#SVGID_154_);}
	.st126{fill:none;stroke:#80C7F5;stroke-width:10;stroke-miterlimit:10;}
	.st127{fill:none;stroke:#FFFFFF;stroke-width:10;stroke-miterlimit:10;}
	.st128{fill:url(#SVGID_155_);}
	.st129{fill:url(#SVGID_156_);}
	.st130{fill:url(#SVGID_157_);}
	.st131{fill:url(#SVGID_158_);}
	.st132{display:none;}
	.st133{display:inline;opacity:0.5;}
	.st134{fill:none;stroke:#000000;stroke-width:0.25;stroke-miterlimit:10;}
</style>
<g id="illustration">
	<linearGradient id="SVGID_1_" gradientUnits="userSpaceOnUse" x1="427.6292" y1="1132.3281" x2="427.6292" y2="684.9607">
		<stop  offset="8.011200e-04" style="stop-color:#871FFF"/>
		<stop  offset="1" style="stop-color:#80C7F5"/>
	</linearGradient>
	<path class="st0" d="M27.3,888.3l387.4-223.6c8.1-4.7,18-4.7,26.1,0L828,888.2c9.7,5.6,9.7,19.5,0,25.1L440.6,1137
		c-8.1,4.7-18,4.7-26.1,0L27.3,913.4C17.6,907.8,17.6,893.9,27.3,888.3z"/>
	<g>
		<linearGradient id="SVGID_3_" gradientUnits="userSpaceOnUse" x1="282.0618" y1="530.6273" x2="282.0618" y2="315.0764">
			<stop  offset="8.011200e-04" style="stop-color:#871FFF"/>
			<stop  offset="0.9984" style="stop-color:#FFA68C"/>
		</linearGradient>
		<path style="fill:url(#SVGID_3_);" d="M238.1,438.5c0-42.5,34.2-84.6,77.6-84.6c7.3,0,24.3,4.2,34.5,10l25.9-44.8
			c-16.4-7-28.6-9.9-51.6-9.9c-74.5,0-136.1,57.8-136.1,165.2c0,17.9,3.9,56.6,3.9,56.6L238.1,438.5z"/>
		<path class="st18" d="M315.6,353.9c-43.4,0-77.6,42.1-77.6,84.6l-17.4,30.4C220.7,379.6,265.9,347.2,315.6,353.9z"/>
		<g>
			<path class="st4" d="M523.1,895.9c0-35.9-46.4-64.9-103.7-64.9c-57.3,0-103.7,29.1-103.7,64.9c0,3.3,0,6.6,0,9.8
				c0,35.9,46.4,64.9,103.7,64.9c57.3,0,103.7-29.1,103.7-64.9C523.1,902.7,523.1,896.2,523.1,895.9z"/>
		</g>
		<ellipse class="st18" cx="419.4" cy="895.9" rx="103.7" ry="64.9"/>
		<polygon class="st4" points="419.1,911.1 436.4,901.2 419.1,841.5 		"/>
		<linearGradient id="SVGID_4_" gradientUnits="userSpaceOnUse" x1="410.5228" y1="910.3173" x2="410.5228" y2="845.3036">
			<stop  offset="8.011200e-04" style="stop-color:#871FFF"/>
			<stop  offset="0.9984" style="stop-color:#FFA68C"/>
		</linearGradient>
		<polygon class="st3" points="401.9,901.2 419.1,911.1 419.1,841.5 		"/>
		<linearGradient id="SVGID_5_" gradientUnits="userSpaceOnUse" x1="242.3493" y1="781.574" x2="479.5895" y2="781.574">
			<stop  offset="8.011200e-04" style="stop-color:#871FFF"/>
			<stop  offset="0.9984" style="stop-color:#FFA68C"/>
		</linearGradient>
		<path class="st5" d="M242.3,706.4c16.8,67.2,136.3,150.4,227.9,150.4c0,0,6.1-0.1,9.3-0.9l-0.1-29.3
			c-55.5,0-174.2-64.2-196.1-107.5L242.3,706.4z"/>
		<polygon class="st18" points="505.2,841.5 505.2,811.6 479.4,826.6 479.4,856.4 		"/>
		<path class="st18" d="M283.4,719c17.3,55,99.8,107.5,196.1,107.5l-0.1,0l25.9-14.9c-103.8,0-160.8-34.4-193.5-83.4L283.4,719z"/>
		<g>
			<defs>
				<circle id="SVGID_30_" cx="377.5" cy="576.2" r="197.2"/>
			</defs>
			<use xlink:href="#SVGID_30_"  style="overflow:visible;fill:#FFFFFF;"/>
			<clipPath id="SVGID_6_">
				<use xlink:href="#SVGID_30_"  style="overflow:visible;"/>
			</clipPath>
			<linearGradient id="SVGID_8_" gradientUnits="userSpaceOnUse" x1="427.623" y1="761.6436" x2="427.623" y2="389.5794">
				<stop  offset="8.011200e-04" style="stop-color:#871FFF"/>
				<stop  offset="1" style="stop-color:#80C7F5"/>
			</linearGradient>
			<path style="clip-path:url(#SVGID_6_);fill:url(#SVGID_8_);" d="M546.4,684c-4.5-6.5-1.5-16.5,0.5-22.7c2.1-6.1,9.9-20.4,9.9-35
				c0-16.1-5.4-21.1-5.4-29c0-8.1,1.4-10.6,1.4-12.4c0-0.8-0.5-1.3-1.4-1.3c-1.6,0-2,3.1-5.1,3.1c-2.5,0-2.9-6.1-7.7-6.1
				c-3.5,0-3.2,8.4-6.4,8.4c-1.9,0-2.7-2.8-4.9-2.8c-4.5,0-3.8,9.6-11.4,9.6c-15.9,0-26-6.8-26-19.2c0-9.8,2.6-10.5,2.6-20.5
				c0-9.3-11.6-8.2-11.6-22.6c0-12.4,18.2-14.4,18.2-21.4c0-6.5-7.7-4.5-7.7-12.5c0-3.4,2.6-6,7.6-6c8.5,0,6.8-14.9,17.1-14.9
				c4.4,0,6.9,1.9,6.9,6.2c0,4.2,0.6,5.2,1.9,5.2c2.6,0,1.5-3.4,4-3.4c3.2,0,3.3,3.6,6,3.6c2.9,0,4.4-1.4,4.4-3.8c0-2.3-2-3.2-2-5
				c0-1.1,0.8-2.1,2.8-2.1c2.9,0,4-0.7,4-2.4c0-2.5-1.4-2.1-1.4-8l85,65.8L546.4,684z M441.3,389.6c0,5.5,21.7,8.4,21.7,14.6
				c0,0.6-0.3,0.9-1,0.9c-2.7,0-11.5-6.3-16.7-6.3c-3.2,0-4.1,1.2-4.1,2.9c0,6.8,14.7,10.6,14.7,14.4c0,1.9-3.1,1-3.1,2.7
				c0,4.2,7.7,8.9,11.6,8.9c2.6,0,1-4.1,3-4.1c2.7,0,4.3,9.5,8.4,9.5c0.8,0,1.2-0.4,1.2-1.9c0-5.5-5.2-12.5-10.1-12.5
				c-4.5,0-14.2-8-14.2-11.2c0-0.5,0.5-1,1.2-1c2.7,0,10.9,9.6,13.5,9.6c1,0,1.4-0.6,1.4-2.8c0-1.3,0.4-1.8,1.4-1.8
				c6,0,5.9,12.4,9.8,12.4c4.2,0,7.1,1.9,7.1,5.9c0,3.6-1.1,4.7-4.4,4.7c-2.8,0-3.6,1.1-3.6,10c0,6.7-1.1,8-4.2,8
				c-1.8,0-2.9,1.2-2.9,2.7c0,6.7,14.6,5.6,14.6,11.6c0,1.6-1.1,2.7-8.3,2.7c-2.1,0-3.5,1.4-3.5,3.1c0,7.3,10.5,17.5,14.8,17.5
				c2.2,0,3.1-0.8,3.1-2.4c0-1.3,0.9-2.3,2.5-2.3c2.7,0,3.6-1.2,3.6-2.7c0-3.7-4.4-4.2-4.4-9.2c0-6.5,1.2-8.7,3.4-8.7
				c1.4,0,2.1-0.7,2.1-4.3c0-0.9,0.7-1.6,1.9-1.6c6.4,0,7,5.9,9.5,5.9c4.1,0,2.4,5.4,6.9,5.4c0.9,0,1.2-0.5,1.2-1.5
				c0-4.4-1.9-6.7-5-6.7c-2.6,0-4.1-1.6-4.1-3.8c0-1.9,0.8-2.8,2.1-2.8c5.2,0,9.6,13.5,13.7,13.5c1.2,0,1.7-0.6,1.7-2.1
				c0-3.9-9.2-8.7-9.2-12.8c0-2.1,1.5-2,1.5-3.9c0-2.6-6.4-3.7-6.4-8.9c0-2.9,1-3.8,3.6-3.8l-19.4-44L441.3,389.6z M450,429.6
				c0,2.6-2,2.8-2,4.9c0,1.3,0.6,1.8,2.2,1.8c7.4,0,15.8,7.4,15.8,10.6c0,4.5,1,5.2,2.8,5.2c2.9,0,6.3-3.6,6.3-6.2
				c0-2.5-1.3-3.3-3-3.3c-3.8,0-17.7-8.7-17.7-12.2c0-1.5-1.2-2.8-2.5-2.8C450.7,427.6,450,428.5,450,429.6z M453.5,439.8
				c-1,0-1.8,0.9-1.8,2.3c0,3.3,4.1,7.4,7.4,7.4c1.3,0,1.9-0.7,1.9-2C461,444.2,456.2,439.8,453.5,439.8z M421.5,417.8
				c-4.8,0-6.7,1.6-6.7,3.7c0,3.9,3.7,6.6,6.7,6.6c3.7,0,6.7-2.3,6.7-5.2S425.1,417.8,421.5,417.8z M359.6,403.8
				c0,0.8,0.6,1.4,1.7,1.4c2,0,3.6-1.1,5.9-1.1c2.6,0,3.8,1.3,3.8,3c0,2.8,1,3.9,3.2,3.9c2.3,0,4.2,1.7,4.2,4.1
				c0,4.4-7.2,3.9-7.2,7.4c0,1.7,1.2,2.7,2.9,2.7c1.8,0,2.9,1.3,2.9,4c0,3.9,3.4,6.6,7.6,6.6c3.5,0,3,2.9,4.7,2.9
				c0.9,0,1.5-0.7,1.5-2.8c0-4.1,2.8-2.8,2.8-8.3c0-2.7,1.2-4.1,3.3-4.1c3.1,0,4.6-1.2,4.6-2.6c0-2,0.9-3,3.1-3
				c3.2,0,4.9-1.7,4.9-3.2c0-2.9-6.2-2-6.2-4.6c0-2.2,1.9-2.3,1.9-4.5c0-2-2.4-3.6-6.5-3.6c-7.4,0-6-7.7-14-7.7
				C373.5,394.2,359.6,399.4,359.6,403.8z M259.3,407.9c17,0,18.7,2.3,18.7,5.6c0,12.2-25.4,16.7-25.4,32.3
				c0,16.6-25.1,21.3-25.1,35.1c0,10.4,3.4,13.2,3.4,20.6c0,5.4-2.9,8-2.9,14.4c0,9.5,4.7,12.8,4.7,21.4c0,3.6-1.5,5.5-1.5,9.8
				c0,7.4,7.7,13.6,17,13.6c4.5,0,6.7,1.8,6.7,6.3c0,4.3,5,8.3,12.2,8.3c3.5,0,5.4,2,5.4,9.2c0,2.8,1.1,4.3,3,4.3
				c2.6,0,4.3,1.2,4.3,4.6c0,3.7,3.4,7.1,7.4,7.1c1.7,0,2.4-0.7,2.4-2.7c0-2.4,0.9-3.5,2-3.5c2.6,0,2.8,4.5,6,4.5
				c1.4,0,2.4,0.8,2.4,2.5c0,16.2-12.9,17.7-12.9,32c0,24.5,21.2,50.1,36.1,50.1c3.2,0,5.5,1.6,5.5,5.4c0,9.3-1.7,14.9-1.7,22.7
				c0,6.2,2.6,8.8,2.6,12.9s-2.1,8.9-2.1,15.1c0,12.5,11.2,22.2,27.1,22.2c0.8,0,1.6-0.5,1.6-1.6c0-1-0.8-1.5-2.1-1.5
				c-2,0-4.2-3.1-4.2-9.2c0-7.2,4.7-13.6,10.5-13.6c6.8,0,8.5-1.6,8.5-3.4c0-4-7.4-2.2-7.4-7.8c0-1.3,0.9-2.3,2.3-2.3
				c3.5,0,2.6,4.8,9,4.8c10.6,0,20-9.2,20-18.2c0-6.3,4.4-10.1,13.9-10.1c9.3,0,17.3-8.3,17.3-22.7c0-10.9,13.8-14.3,13.8-27.8
				c0-3.5-2.7-5.8-7.4-5.8c-5.9,0-3.5-7.1-9.8-7.1c-3.7,0-6.8,2.6-11.4,2.6c-2,0-3.2-1.1-3.2-2.9c0-3.5-2.4-5.4-6.6-5.4
				c-3.6,0-4.7,1.5-7.7,1.5c-1.9,0-3.2-1.1-3.2-3.6c0-7.3-5.9-7.3-5.9-12.8c0-5-4.6-7.9-18.4-7.9c-4.2,0-5.5-1.2-5.5-3.5
				c0-6.6-8.1-13-15.3-13c-4.7,0-4.4,3.2-8.6,3.2c-6.8,0-8.8-9-18.2-9c-5.4,0-6.9,5.9-12.7,5.9c-4.4,0-3.4,6-6,6s-3.7-7-7.3-7
				c-2.3,0-2.8,1.8-6.5,1.8c-2.7,0-5.4-2.9-5.4-7c0-3.6,2.9-6.1,2.9-10c0-4-2.5-6.1-8.3-6.1c-5.9,0-6.8-1.3-6.8-3.7
				c0-6.1,7.9-8.4,7.9-14.4c0-2.3-2.1-4.1-5.1-4.1c-3.7,0-5.4,2-5.4,4.9c0,3.8-2.3,6.4-5.4,6.4c-5,0-10.5-6.5-10.5-18.2
				c0-13,10.1-22.5,26.4-22.5c11.1,0,18.8,4.4,18.7,9c-0.1,4.7-1.9,5.2-1.9,8.6c0,2.7,1.9,4.1,3.6,4.1c2.7,0,4.1-1.7,4.1-17.6
				c0-8.1,2.3-10.2,6.1-10.2c7,0,10.1-2.5,10.1-8.5c0-10.4,12.5-22.1,23.9-22.1c1.8,0,2.9,0.8,2.9,2.7c0,1.4,1,2,2.4,2
				c6.6,0,14.2-5.2,14.2-8.5c0-0.9-0.8-1.6-1.8-1.6c-1.9,0-2.6,2.2-4.8,2.2c-2,0-3.2-1.1-3.2-3.1c0-1.7,1.1-2.7,1.1-4.1
				c0-1.3-1.1-2-3.4-2c-2.5,0-3.4-0.9-3.4-2.1c0-4.3,13-2.1,21.5-2.1c3.3,0,5.2-1.9,5.2-6.3c0-3.9-2.2-5.8-5.9-5.8
				c-2.9,0-4-1.9-4-6.4c0-4.4-1.8-6.3-3.6-6.3c-3.2,0-3.8,4.2-6.8,4.2c-1.6,0-2.9-1.2-2.9-4.1c0-4.2-2.9-6.7-6.9-6.7
				c-2.4,0-3.7,1.2-3.7,3.6c0,1.8-0.8,2.8-3.1,2.8c-1.5,0-2.4,0.9-2.4,2.5c0,2.4,2,2.9,2,5.5c0,2.7-1.5,4-5,4
				c-1.8,0-3.2,1.4-3.2,4.2c0,3.6-1.3,4.7-3.8,4.7c-5.1,0-12.9-11.6-12.9-21.4c0-5.4,3.3-9,19.2-9c3.1,0,4.8-1.7,4.8-4.6
				c0-3.9,5.2-9.1,11.4-9.1c3.8,0,6.6,2.4,6.6,5.2c0,2.2-4,2.4-4,6.5c0,3.7,3,6.4,7.5,6.4c4.6,0,8.9-4.3,8.9-9.2
				c0-2.5-1.4-3.7-3-3.7c-1.5,0-2.7-0.7-2.7-2.5c0-6.3-6.3-11.1-15.1-11.1c-8.3,0-9.6,3.8-13.5,3.8c-2.1,0-3.3-1.6-3.3-6.3
				c0-2.3-1.6-3.9-3.7-3.9c-2.5,0-5.1,2.8-5.1,6.1c0,2.1-1.7,3.3-4.8,3.3c-1.6,0-3-1.1-3-2.6c0-2.6,3.7-2.2,3.7-4.4
				c0-1-0.8-1.6-1.9-1.6c-2.1,0-2.8,1.9-4.5,1.9c-1.1,0-1.6-0.8-1.6-1.5c0-3.1,6.2-2.7,6.2-6.2c0-1.9-3-3.8-5.6-3.8L259.3,407.9z
				 M318.4,558.6c-4.5,0-5.7,1.1-5.7,2.4c0,1.7-1.9,2-1.9,3.1c0,0.9,0.7,1.6,9.3,1.6c6.4,0,8.6-1.3,8.6-3.1
				C328.6,560.2,326.6,558.6,318.4,558.6z M283.8,547c0,1.4,1,2.3,5.3,2.3c7,0,12.2,3.2,12.2,5.9c0,2,1.2,2.8,4.5,2.8
				c2.7,0,4-0.9,4-2.7c0-4.5-11.5-11.2-22-11.2C285.1,544.1,283.8,545.6,283.8,547z"/>
		</g>
		<polygon class="st18" points="375.9,349 375.9,319.1 350.1,334 350.1,363.9 		"/>
		<g>
			<g>
				<rect x="82.9" y="512.7" class="st7" width="638.3" height="139.5"/>
			</g>
			<g>
				<path class="st4" d="M209.5,582.2l23.2,13.1l-6,10.7l-23.6-13.8l0.2,26.5h-11.7l0.2-26.5L168.2,606l-6-10.7l23.4-13.1
					l-23.4-12.9l6-10.9l23.6,13.8l-0.2-26.3h11.7l-0.2,26.3l23.6-13.8l6,10.9L209.5,582.2z"/>
				<path class="st4" d="M340,582.2l23.2,13.1l-6,10.7l-23.6-13.8l0.2,26.5h-11.7l0.2-26.5L298.7,606l-6-10.7l23.4-13.1l-23.4-12.9
					l6-10.9l23.6,13.8l-0.2-26.3h11.7l-0.2,26.3l23.6-13.8l6,10.9L340,582.2z"/>
				<path class="st4" d="M470.5,582.2l23.2,13.1l-6,10.7l-23.6-13.8l0.2,26.5h-11.7l0.2-26.5L429.2,606l-6-10.7l23.4-13.1
					l-23.4-12.9l6-10.9l23.6,13.8l-0.2-26.3h11.7l-0.2,26.3l23.6-13.8l6,10.9L470.5,582.2z"/>
				<path class="st4" d="M601,582.2l23.2,13.1l-6,10.7l-23.6-13.8l0.2,26.5h-11.7l0.2-26.5L559.7,606l-6-10.7l23.4-13.1l-23.4-12.9
					l6-10.9l23.6,13.8l-0.2-26.3h11.7l-0.2,26.3l23.6-13.8l6,10.9L601,582.2z"/>
			</g>
		</g>
	</g>
	<linearGradient id="SVGID_9_" gradientUnits="userSpaceOnUse" x1="906.2072" y1="577.3951" x2="906.2072" y2="214.9216">
		<stop  offset="8.011200e-04" style="stop-color:#871FFF"/>
		<stop  offset="1" style="stop-color:#80C7F5"/>
	</linearGradient>
	<path class="st9" d="M600.6,404l292.5,168.9c8.1,4.7,18,4.7,26.1,0L1211.8,404c9.7-5.6,9.7-19.5,0-25.1L919.3,210
		c-8.1-4.7-18-4.7-26.1,0L600.6,378.9C591,384.5,591,398.4,600.6,404z"/>
	
		<linearGradient id="SVGID_10_" gradientUnits="userSpaceOnUse" x1="1052.6685" y1="263.5499" x2="1052.6685" y2="110.9815" gradientTransform="matrix(0.9746 0.224 -0.224 0.9746 -405.5681 -129.2503)">
		<stop  offset="8.011200e-04" style="stop-color:#871FFF"/>
		<stop  offset="1" style="stop-color:#80C7F5"/>
	</linearGradient>
	<path style="fill:none;stroke:url(#SVGID_10_);stroke-miterlimit:10;" d="M439.1,335.1C497.9,257.3,607,217.9,718,243.4"/>
	<g>
		<g>
			<linearGradient id="SVGID_12_" gradientUnits="userSpaceOnUse" x1="1037.8525" y1="250.7783" x2="1037.8525" y2="348.5349">
				<stop  offset="0" style="stop-color:#D6219C"/>
				<stop  offset="0.9984" style="stop-color:#FFA68C"/>
			</linearGradient>
			<path style="fill:url(#SVGID_12_);" d="M1060.8,265.7c-2.1-5.8-10.1-6.4-13-1c-8.1,14.7-19.8,42.4-20.4,80.7h49.3
				C1077.5,315.9,1067.3,283.4,1060.8,265.7z M999.1,314l0.8-23.4c0.1-2,1.8-3.6,3.8-3.5l11.1,0.4c2,0.1,3.6,1.8,3.5,3.8l-0.8,23.4
				c-0.1,2-1.8,3.6-3.8,3.5l-11.1-0.4C1000.6,317.8,999,316.1,999.1,314z"/>
			<circle cx="1055.5" cy="257.5" r="6.7"/>
			<g>
				<path class="st2" d="M1055.5,250.7c3.7,0,6.7,3,6.7,6.7c0,1-0.2,1.9-0.6,2.7c-2-0.9-3.8-2.4-5-4.3c-0.8,0.2-1.7,0.3-2.6,0.3
					c-1.8,0-3.4-0.4-4.9-1.1C1050.2,252.5,1052.6,250.7,1055.5,250.7z"/>
			</g>
			<path d="M1050.8,322.7l-42.9-13.5c-4.3-1.4-6.7-6-5.4-10.3l0,0c1.4-4.3,6-6.7,10.3-5.4l35.9,11.3l1.7-6.2l14.1,5.6l-2.4,11.7
				C1061,321.2,1055.8,324.3,1050.8,322.7z"/>
			<g>
				<g>
					<path class="st4" d="M1077.4,380.2l-0.9-34.7h-49.3l-28.8,83.4l-9.9-4.1c-2.8-1.1-6,0.2-7.1,2.9c-1.2,2.8,0.1,6.1,2.9,7.3
						l33.2,14l31.4-84.2l1.5,24.4l29.5,38.2l-5.6,4.6c-2.5,2.1-2.9,5.8-0.7,8.3c2,2.4,5.5,2.7,8,0.8l25.1-19.4L1077.4,380.2z"/>
				</g>
			</g>
		</g>
		<g>
			<g>
				<path class="st2" d="M1055.9,206.4c-15.6,0-29.6,7.1-39,18.2l7.1,7.1c7.5-9.3,19-15.2,31.9-15.2c12.9,0,24.4,6,31.9,15.2
					l7.1-7.1C1085.5,213.4,1071.5,206.4,1055.9,206.4z"/>
				<path class="st2" d="M1055.9,224.1c-10.7,0-20.3,5.1-26.4,13l6.4,6.4c4.4-6.3,11.8-10.5,20.1-10.5c8.3,0,15.6,4.1,20.1,10.5
					l6.4-6.4C1076.2,229.2,1066.6,224.1,1055.9,224.1z"/>
				<path class="st2" d="M1055.9,183.9c-21.8,0-41.4,9.6-54.9,24.7l8.7,8.7c11.3-12.9,27.8-21.1,46.3-21.1c18.4,0,35,8.2,46.3,21.1
					l8.7-8.7C1097.3,193.5,1077.7,183.9,1055.9,183.9z"/>
			</g>
		</g>
	</g>
	<circle class="st35" cx="877.9" cy="193.5" r="7.4"/>
	<path d="M940.9,244.4l-2.3,4.7c-1.4,2.9-4.9,4.1-7.7,2.7l-44-21.2l7.3-15.1l44,21.2C941,238,942.2,241.5,940.9,244.4z"/>
	<linearGradient id="SVGID_13_" gradientUnits="userSpaceOnUse" x1="900.9467" y1="202.9848" x2="900.9467" y2="286.2014">
		<stop  offset="0" style="stop-color:#FFA68C"/>
		<stop  offset="0.7081" style="stop-color:#D6219C"/>
	</linearGradient>
	<path class="st13" d="M943.5,252.6l-1-29.2c-0.1-1.7-1.5-3-3.2-3l-15.1,0.5c-1.7,0.1-3,1.5-3,3.2l1,29.2c0.1,1.7,1.5,3,3.2,3
		l15.1-0.5C942.2,255.8,943.6,254.3,943.5,252.6z M886.4,279v85h7.9c3.8,0,6.9,3.1,6.9,6.9l0,0c0,3.8-3.1,6.9-6.9,6.9h-36V279H886.4
		z M917.5,279v67.6h7.9c3.8,0,6.9,3.1,6.9,6.9v0c0,3.8-3.1,6.9-6.9,6.9h-36V279H917.5z"/>
	<path class="st4" d="M858.4,279c0-39.8,11.8-63.6,20.3-75.6c4.4-6.1,13.4-6.3,18-0.3c8.6,11.1,20,33.7,20.8,75.9H858.4z"/>
	<circle cx="887.9" cy="195" r="7.8"/>
	<path class="st35" d="M895.5,193.4c-0.7-3.5-3.9-6.2-7.6-6.2c-4.3,0-7.8,3.5-7.8,7.8c0,1,0.2,2,0.6,2.9c1.4-1.1,2.4-2.7,2.8-4.5
		H895.5z"/>
	<g>
		<g>
			<path class="st35" d="M886.4,128.6c-20.2,0-38.2,9.1-50.3,23.4l9.2,9.2c9.7-12,24.6-19.7,41.2-19.7c16.6,0,31.4,7.7,41.2,19.7
				l9.2-9.2C924.7,137.7,906.6,128.6,886.4,128.6z"/>
			<path class="st35" d="M886.4,151.5c-13.9,0-26.2,6.6-34.1,16.8l8.2,8.2c5.7-8.2,15.2-13.5,25.9-13.5c10.7,0,20.2,5.4,25.9,13.5
				l8.2-8.2C912.6,158.1,900.3,151.5,886.4,151.5z"/>
			<path class="st35" d="M886.4,99.6c-28.1,0-53.4,12.3-70.8,31.9l11.2,11.2c14.5-16.7,35.9-27.3,59.7-27.3
				c23.8,0,45.1,10.6,59.7,27.3l11.2-11.2C939.9,112,914.6,99.6,886.4,99.6z"/>
		</g>
	</g>
	<path d="M906.3,280.3L906.3,280.3c-3.8,2.3-8.8,1.2-11.2-2.5L880,255c-0.9-1.4-1.5-2.9-1.9-4.5l-3.6-18.9l16.3-6.7l3.4,21.4
		l14.8,22.3C911.6,272.5,910.4,277.9,906.3,280.3z"/>
	<g>
		<path d="M723.5,328.3l4.7,2.3c2.9,1.4,6.4,0.2,7.7-2.7l21.2-44l-15.1-7.3l-21.2,44C719.4,323.4,720.7,326.9,723.5,328.3z"/>
		<g>
			<g>
				<path class="st35" d="M751,206.4c15.6,0,29.6,7.1,39,18.2l-7.1,7.1c-7.5-9.3-19-15.2-31.9-15.2s-24.4,6-31.9,15.2l-7.1-7.1
					C721.4,213.4,735.4,206.4,751,206.4z"/>
				<path class="st35" d="M751,224.1c10.7,0,20.3,5.1,26.4,13l-6.4,6.4c-4.4-6.3-11.8-10.5-20.1-10.5c-8.3,0-15.6,4.1-20.1,10.5
					l-6.4-6.4C730.7,229.2,740.3,224.1,751,224.1z"/>
				<path class="st35" d="M751,183.9c21.8,0,41.4,9.6,54.9,24.7l-8.7,8.7c-11.3-12.9-27.8-21.1-46.3-21.1c-18.4,0-35,8.2-46.3,21.1
					l-8.7-8.7C709.6,193.5,729.2,183.9,751,183.9z"/>
			</g>
		</g>
		<path class="st4" d="M726.9,337.1H744l36.9-0.3l11.8,22.6l16,56.9l10.3-2.7c2.9-0.8,5.9,0.9,6.7,3.8c0.8,3-0.9,6-3.8,6.9l-37.7,11
			l-18.1-68.4l-12-19.4l-13.2,86.6l6.9,2.1c3.1,0.9,4.9,4.2,3.9,7.3c-0.9,3-4,4.7-7,3.9l-33.6-8.1L726.9,337.1z"/>
		
			<linearGradient id="SVGID_14_" gradientUnits="userSpaceOnUse" x1="755.4961" y1="246.8901" x2="755.4961" y2="323.9486" gradientTransform="matrix(-1 0 0 1 1524.0298 0)">
			<stop  offset="0" style="stop-color:#FFA68C"/>
			<stop  offset="0.7081" style="stop-color:#D6219C"/>
		</linearGradient>
		<path class="st14" d="M810.1,308.2l-0.8-23.4c-0.1-2-1.8-3.6-3.8-3.5l-11.1,0.4c-2,0.1-3.6,1.8-3.5,3.8l0.8,23.4
			c0.1,2,1.8,3.6,3.8,3.5l11.1-0.4C808.6,311.9,810.2,310.3,810.1,308.2z M745.6,264.7c2.6-5.6,9.8-6.3,13-1
			c10.2,16.7,23.3,51.6,23.3,73.5h-55.1C726.9,315.2,737,283.2,745.6,264.7z"/>
		<path d="M758.3,310.9l41.9-2.8c4.8-0.3,8.4-4.4,8.1-9.2v0c-0.3-4.9-4.5-8.6-9.4-8.2l-37.1,3l-2.9-9l-14.1,5.6l2.6,12.3
			C748.4,307.7,753.1,311.2,758.3,310.9z"/>
		<circle cx="750.9" cy="256.4" r="6.7"/>
		<g>
			<path class="st35" d="M750.9,249.6c-3.7,0-6.7,3-6.7,6.7c0,1,0.2,1.9,0.6,2.7c2-0.9,3.8-2.4,5-4.3c0.8,0.2,1.7,0.3,2.6,0.3
				c1.8,0,3.4-0.4,4.9-1.1C756.2,251.4,753.8,249.6,750.9,249.6z"/>
		</g>
	</g>
</g>
<g id="GRID" class="st132">
</g>
</svg>
