<?xml version="1.0" encoding="utf-8"?>
<!-- Generator: Adobe Illustrator 24.0.1, SVG Export Plug-In . SVG Version: 6.00 Build 0)  -->
<svg version="1.1" id="Layer_1" xmlns="http://www.w3.org/2000/svg" xmlns:xlink="http://www.w3.org/1999/xlink" x="0px" y="0px"
	 viewBox="0 0 16 16" style="enable-background:new 0 0 16 16;" xml:space="preserve">
<style type="text/css">
	.st0{fill:url(#SVGID_1_);}
</style>
<linearGradient id="SVGID_1_" gradientUnits="userSpaceOnUse" x1="0" y1="8" x2="16" y2="8">
	<stop  offset="0" style="stop-color:#881FFF"/>
	<stop  offset="0.2415" style="stop-color:#A13BE7"/>
	<stop  offset="0.7609" style="stop-color:#E084AA"/>
	<stop  offset="1" style="stop-color:#FFA78C"/>
</linearGradient>
<path class="st0" d="M10,6H8L7.3,4L6.7,6h-2l1.6,1.2L5.7,9.1l1.6-1.2L9,9.1L8.4,7.2L10,6z M10,6H8L7.3,4L6.7,6h-2l1.6,1.2L5.7,9.1
	l1.6-1.2L9,9.1L8.4,7.2L10,6z M15.3,7.3l-3.3,0c-0.4,0-0.7,0.3-0.7,0.7v6c0,0.4,0.3,0.7,0.7,0.7h3.3c0.4,0,0.7-0.3,0.7-0.7V8
	C16,7.6,15.7,7.3,15.3,7.3z M15.3,13.3H12V8.7h3.3V13.3z M13.3,1.3h-12C0.6,1.3,0,1.9,0,2.7v8C0,11.4,0.6,12,1.3,12H6v1.3H4.7v1.3
	H10v-1.3H8.7V12H10v-1.3H1.3v-8h12V6h1.3V2.7C14.7,1.9,14.1,1.3,13.3,1.3z M8,6L7.3,4L6.7,6h-2l1.6,1.2L5.7,9.1l1.6-1.2L9,9.1
	L8.4,7.2L10,6H8z"/>
</svg>
