<?xml version="1.0" encoding="utf-8"?>
<!-- Generator: Adobe Illustrator 24.0.1, SVG Export Plug-In . SVG Version: 6.00 Build 0)  -->
<svg version="1.1" id="Layer_1" xmlns="http://www.w3.org/2000/svg" xmlns:xlink="http://www.w3.org/1999/xlink" x="0px" y="0px"
	 viewBox="0 0 16 16" style="enable-background:new 0 0 16 16;" xml:space="preserve">
<style type="text/css">
	.st0{fill:url(#SVGID_1_);}
</style>
<linearGradient id="SVGID_1_" gradientUnits="userSpaceOnUse" x1="0" y1="8" x2="16" y2="8">
	<stop  offset="0" style="stop-color:#881FFF"/>
	<stop  offset="0.2415" style="stop-color:#A13BE7"/>
	<stop  offset="0.7609" style="stop-color:#E084AA"/>
	<stop  offset="1" style="stop-color:#FFA78C"/>
</linearGradient>
<path class="st0" d="M6,15H2c-0.5,0-1-0.2-1.4-0.6C0.2,14,0,13.5,0,13V2c0-0.5,0.2-1,0.6-1.4S1.5,0,2,0h9c0.5,0,1,0.2,1.4,0.6
	C12.8,1,13,1.5,13,2v3h-1.5V1.5H1.4V12H6V15z M15,7H9C8.7,7,8.5,7.1,8.3,7.3C8.1,7.5,8,7.7,8,8v7c0,0.3,0.1,0.5,0.3,0.7S8.7,16,9,16
	h6c0.3,0,0.5-0.1,0.7-0.3S16,15.3,16,15V8c0-0.3-0.1-0.5-0.3-0.7C15.5,7.1,15.3,7,15,7z M14.9,14.9H9.3V8.1h5.6
	C14.9,8.1,14.9,14.9,14.9,14.9z"/>
</svg>
