<?xml version="1.0" encoding="utf-8"?>
<!-- Generator: Adobe Illustrator 24.0.1, SVG Export Plug-In . SVG Version: 6.00 Build 0)  -->
<svg version="1.1" id="Layer_1" xmlns="http://www.w3.org/2000/svg" xmlns:xlink="http://www.w3.org/1999/xlink" x="0px" y="0px"
	 viewBox="0 0 16 16" style="enable-background:new 0 0 16 16;" xml:space="preserve">
<style type="text/css">
	.st0{fill:url(#SVGID_1_);}
</style>
<linearGradient id="SVGID_1_" gradientUnits="userSpaceOnUse" x1="-0.1416" y1="8" x2="15.8584" y2="8">
	<stop  offset="0" style="stop-color:#881FFF"/>
	<stop  offset="0.2415" style="stop-color:#A13BE7"/>
	<stop  offset="0.7609" style="stop-color:#E084AA"/>
	<stop  offset="1" style="stop-color:#FFA78C"/>
</linearGradient>
<path class="st0" d="M6,16H3.3V6h-3.4l5.3-6l5.3,6H7.1v1.4h-1V5.1h2.2L5.2,1.5L2,5.1h2.2v10H6V16z M10.9,9.3c0-1-0.9-1.9-1.9-1.9
	S7.1,8.3,7.1,9.3c0,1,0.9,1.9,1.9,1.9S10.9,10.4,10.9,9.3z M9.9,9.3c0,0.5-0.4,0.9-0.9,0.9c-0.5,0-0.9-0.4-0.9-0.9
	c0-0.5,0.4-0.9,0.9-0.9C9.5,8.4,9.9,8.8,9.9,9.3z M15.9,14.1c0-1-0.9-1.9-1.9-1.9s-1.9,0.8-1.9,1.9S12.9,16,14,16
	S15.9,15.2,15.9,14.1z M14.9,14.1c0,0.5-0.4,0.9-0.9,0.9c-0.5,0-0.9-0.4-0.9-0.9c0-0.5,0.4-0.9,0.9-0.9
	C14.5,13.3,14.9,13.7,14.9,14.1z M15,8.2l-0.8-0.6L8,15.3l0.8,0.6L15,8.2z"/>
</svg>
