<?xml version="1.0" encoding="UTF-8"?>
<svg xmlns="http://www.w3.org/2000/svg" xmlns:xlink="http://www.w3.org/1999/xlink" width="1240pt" height="1240pt" viewBox="0 0 1240 1240" version="1.1">
<defs>
<linearGradient id="linear0" gradientUnits="userSpaceOnUse" x1="-0.2167" y1="51.9857" x2="100.1411" y2="51.9857" gradientTransform="matrix(12.4,0,0,12.4,0,0)">
<stop offset="0" style="stop-color:rgb(53.333333%,12.156863%,100%);stop-opacity:1;"/>
<stop offset="0.2415" style="stop-color:rgb(63.137255%,23.137255%,90.588235%);stop-opacity:1;"/>
<stop offset="0.7609" style="stop-color:rgb(87.843137%,51.764706%,66.666667%);stop-opacity:1;"/>
<stop offset="1" style="stop-color:rgb(100%,65.490196%,54.901961%);stop-opacity:1;"/>
</linearGradient>
</defs>
<g id="surface1">
<path style=" stroke:none;fill-rule:nonzero;fill:url(#linear0);" d="M 730.855469 223.695312 C 730.980469 223.820312 730.980469 223.820312 731.105469 223.945312 C 731.226562 224.066406 731.476562 224.316406 731.601562 224.441406 C 731.722656 224.5625 731.972656 224.8125 732.097656 224.9375 C 732.21875 225.058594 732.46875 225.308594 732.59375 225.433594 C 732.714844 225.554688 732.964844 225.804688 733.089844 225.929688 C 733.210938 226.050781 733.460938 226.300781 733.585938 226.425781 C 733.707031 226.546875 733.957031 226.796875 734.078125 226.921875 C 734.203125 227.042969 734.453125 227.292969 734.574219 227.414062 C 734.699219 227.539062 734.949219 227.789062 735.070312 227.910156 C 735.195312 228.035156 735.445312 228.285156 735.566406 228.40625 C 735.691406 228.53125 735.941406 228.78125 736.0625 228.902344 C 736.1875 229.027344 736.4375 229.277344 736.558594 229.398438 C 736.683594 229.523438 736.933594 229.773438 737.054688 229.894531 C 737.179688 230.019531 737.429688 230.269531 737.550781 230.390625 C 737.675781 230.515625 737.925781 230.765625 738.046875 230.886719 C 738.171875 231.011719 738.421875 231.261719 738.542969 231.382812 C 738.667969 231.507812 738.914062 231.757812 739.039062 231.878906 C 739.164062 232.003906 739.410156 232.253906 739.535156 232.375 C 739.660156 232.5 739.90625 232.746094 740.03125 232.871094 C 740.15625 232.996094 740.402344 233.242188 740.527344 233.367188 C 740.652344 233.492188 740.898438 233.738281 741.023438 233.863281 C 741.148438 233.988281 741.394531 234.234375 741.519531 234.359375 C 741.644531 234.484375 741.890625 234.730469 742.015625 234.855469 C 742.140625 234.980469 742.386719 235.226562 742.511719 235.351562 C 742.636719 235.476562 742.882812 235.722656 743.007812 235.847656 C 743.132812 235.972656 743.378906 236.21875 743.503906 236.34375 C 743.628906 236.46875 743.875 236.714844 744 236.839844 C 744.125 236.964844 744.371094 237.210938 744.496094 237.335938 C 744.621094 237.460938 744.867188 237.707031 744.992188 237.832031 C 745.117188 237.957031 745.363281 238.203125 745.488281 238.328125 C 745.613281 238.453125 745.859375 238.699219 745.984375 238.824219 C 746.109375 238.949219 746.355469 239.195312 746.480469 239.320312 C 746.605469 239.445312 746.851562 239.691406 746.976562 239.816406 C 747.101562 239.941406 747.347656 240.1875 747.472656 240.3125 C 747.597656 240.4375 747.84375 240.683594 747.96875 240.808594 C 748.09375 240.933594 748.339844 241.179688 748.464844 241.304688 C 748.589844 241.429688 748.835938 241.675781 748.960938 241.800781 C 749.085938 241.925781 749.332031 242.171875 749.457031 242.296875 C 749.578125 242.421875 749.828125 242.667969 749.953125 242.792969 C 750.074219 242.914062 750.324219 243.164062 750.449219 243.289062 C 750.570312 243.410156 750.820312 243.660156 750.945312 243.785156 C 751.066406 243.90625 751.316406 244.15625 751.441406 244.28125 C 751.5625 244.402344 751.8125 244.652344 751.9375 244.777344 C 752.058594 244.898438 752.308594 245.148438 752.433594 245.273438 C 752.554688 245.394531 752.804688 245.644531 752.929688 245.769531 C 753.050781 245.890625 753.300781 246.140625 753.425781 246.265625 C 753.546875 246.386719 753.796875 246.636719 753.921875 246.761719 C 754.042969 246.882812 754.292969 247.132812 754.414062 247.257812 C 754.539062 247.378906 754.789062 247.628906 754.910156 247.753906 C 755.035156 247.875 755.285156 248.125 755.40625 248.246094 C 755.53125 248.371094 755.78125 248.621094 755.902344 248.742188 C 756.027344 248.867188 756.277344 249.117188 756.398438 249.238281 C 756.523438 249.363281 756.773438 249.613281 756.894531 249.734375 C 757.019531 249.859375 757.269531 250.109375 757.390625 250.230469 C 757.515625 250.355469 757.765625 250.605469 757.886719 250.726562 C 758.011719 250.851562 758.261719 251.101562 758.382812 251.222656 C 758.507812 251.347656 758.757812 251.597656 758.878906 251.71875 C 759.003906 251.84375 759.253906 252.09375 759.375 252.214844 C 759.5 252.339844 759.746094 252.589844 759.871094 252.710938 C 759.996094 252.835938 760.242188 253.085938 760.367188 253.207031 C 760.492188 253.332031 760.738281 253.578125 760.863281 253.703125 C 760.988281 253.828125 761.234375 254.074219 761.359375 254.199219 C 761.484375 254.324219 761.730469 254.570312 761.855469 254.695312 C 761.980469 254.820312 762.226562 255.066406 762.351562 255.191406 C 762.476562 255.316406 762.722656 255.5625 762.847656 255.6875 C 762.972656 255.8125 763.21875 256.058594 763.34375 256.183594 C 763.46875 256.308594 763.714844 256.554688 763.839844 256.679688 C 763.964844 256.804688 764.210938 257.050781 764.335938 257.175781 C 764.460938 257.300781 764.707031 257.546875 764.832031 257.671875 C 764.957031 257.796875 765.203125 258.042969 765.328125 258.167969 C 765.453125 258.292969 765.699219 258.539062 765.824219 258.664062 C 765.949219 258.789062 766.195312 259.035156 766.320312 259.160156 C 766.445312 259.285156 766.691406 259.53125 766.816406 259.65625 C 766.941406 259.78125 767.1875 260.027344 767.3125 260.152344 C 767.4375 260.277344 767.683594 260.523438 767.808594 260.648438 C 767.933594 260.773438 768.179688 261.019531 768.304688 261.144531 C 768.429688 261.269531 768.675781 261.515625 768.800781 261.640625 C 768.925781 261.765625 769.171875 262.011719 769.296875 262.136719 C 769.421875 262.261719 769.667969 262.507812 769.792969 262.632812 C 769.914062 262.757812 770.164062 263.003906 770.289062 263.128906 C 770.410156 263.253906 770.660156 263.5 770.785156 263.625 C 770.90625 263.746094 771.15625 263.996094 771.28125 264.121094 C 771.402344 264.242188 771.652344 264.492188 771.777344 264.617188 C 771.898438 264.738281 772.148438 264.988281 772.273438 265.113281 C 772.394531 265.234375 772.644531 265.484375 772.769531 265.609375 C 772.890625 265.730469 773.140625 265.980469 773.265625 266.105469 C 773.386719 266.226562 773.636719 266.476562 773.761719 266.601562 C 773.882812 266.722656 774.132812 266.972656 774.257812 267.097656 C 774.378906 267.21875 774.628906 267.46875 774.753906 267.59375 C 774.875 267.714844 775.125 267.964844 775.246094 268.089844 C 775.371094 268.210938 775.621094 268.460938 775.742188 268.585938 C 775.867188 268.707031 776.117188 268.957031 776.238281 269.078125 C 776.363281 269.203125 776.613281 269.453125 776.734375 269.574219 C 776.859375 269.699219 777.109375 269.949219 777.230469 270.070312 C 777.355469 270.195312 777.605469 270.445312 777.726562 270.566406 C 777.851562 270.691406 778.101562 270.941406 778.222656 271.0625 C 778.347656 271.1875 778.597656 271.4375 778.71875 271.558594 C 778.84375 271.683594 779.09375 271.933594 779.214844 272.054688 C 779.339844 272.179688 779.589844 272.429688 779.710938 272.550781 C 779.835938 272.675781 780.085938 272.925781 780.207031 273.046875 C 780.332031 273.171875 780.578125 273.421875 780.703125 273.542969 C 780.828125 273.667969 781.074219 273.914062 781.199219 274.039062 C 781.324219 274.164062 781.570312 274.410156 781.695312 274.535156 C 781.820312 274.660156 782.066406 274.90625 782.191406 275.03125 C 782.316406 275.15625 782.5625 275.402344 782.6875 275.527344 C 782.8125 275.652344 783.058594 275.898438 783.183594 276.023438 C 783.308594 276.148438 783.554688 276.394531 783.679688 276.519531 C 783.804688 276.644531 784.050781 276.890625 784.175781 277.015625 C 784.300781 277.140625 784.546875 277.386719 784.671875 277.511719 C 784.796875 277.636719 785.042969 277.882812 785.167969 278.007812 C 785.292969 278.132812 785.539062 278.378906 785.664062 278.503906 C 785.789062 278.628906 786.035156 278.875 786.160156 279 C 786.285156 279.125 786.53125 279.371094 786.65625 279.496094 C 786.78125 279.621094 787.027344 279.867188 787.152344 279.992188 C 787.277344 280.117188 787.523438 280.363281 787.648438 280.488281 C 787.773438 280.613281 788.019531 280.859375 788.144531 280.984375 C 788.269531 281.109375 788.515625 281.355469 788.640625 281.480469 C 788.765625 281.605469 789.011719 281.851562 789.136719 281.976562 C 789.261719 282.101562 789.507812 282.347656 789.632812 282.472656 C 789.757812 282.597656 790.003906 282.84375 790.128906 282.96875 C 790.253906 283.09375 790.5 283.339844 790.625 283.464844 C 790.746094 283.589844 790.996094 283.835938 791.121094 283.960938 C 791.242188 284.085938 791.492188 284.332031 791.617188 284.457031 C 791.738281 284.578125 791.988281 284.828125 792.113281 284.953125 C 792.234375 285.074219 792.484375 285.324219 792.609375 285.449219 C 792.730469 285.570312 792.980469 285.820312 793.105469 285.945312 C 793.226562 286.066406 793.476562 286.316406 793.601562 286.441406 C 793.722656 286.5625 793.972656 286.8125 794.097656 286.9375 C 794.21875 287.058594 794.46875 287.308594 794.59375 287.433594 C 794.714844 287.554688 794.964844 287.804688 795.089844 287.929688 C 795.210938 288.050781 795.460938 288.300781 795.585938 288.425781 C 795.707031 288.546875 795.957031 288.796875 796.078125 288.921875 C 796.203125 289.042969 796.453125 289.292969 796.574219 289.414062 C 796.699219 289.539062 796.949219 289.789062 797.070312 289.910156 C 797.195312 290.035156 797.445312 290.285156 797.566406 290.40625 C 797.691406 290.53125 797.941406 290.78125 798.0625 290.902344 C 798.1875 291.027344 798.4375 291.277344 798.558594 291.398438 C 798.683594 291.523438 798.933594 291.773438 799.054688 291.894531 C 799.179688 292.019531 799.429688 292.269531 799.550781 292.390625 C 799.675781 292.515625 799.925781 292.765625 800.046875 292.886719 C 800.171875 293.011719 800.421875 293.261719 800.542969 293.382812 C 800.667969 293.507812 800.914062 293.757812 801.039062 293.878906 C 801.164062 294.003906 801.410156 294.253906 801.535156 294.375 C 801.660156 294.5 801.90625 294.746094 802.03125 294.871094 C 802.15625 294.996094 802.402344 295.242188 802.527344 295.367188 C 802.652344 295.492188 802.898438 295.738281 803.023438 295.863281 C 803.148438 295.988281 803.394531 296.234375 803.519531 296.359375 C 803.644531 296.484375 803.890625 296.730469 804.015625 296.855469 C 804.140625 296.980469 804.386719 297.226562 804.511719 297.351562 C 804.636719 297.476562 804.882812 297.722656 805.007812 297.847656 C 805.132812 297.972656 805.378906 298.21875 805.503906 298.34375 C 805.628906 298.46875 805.875 298.714844 806 298.839844 C 806.125 298.964844 806.371094 299.210938 806.496094 299.335938 C 806.621094 299.460938 806.867188 299.707031 806.992188 299.832031 C 807.117188 299.957031 807.363281 300.203125 807.488281 300.328125 C 807.613281 300.453125 807.859375 300.699219 807.984375 300.824219 C 808.109375 300.949219 808.355469 301.195312 808.480469 301.320312 C 808.605469 301.445312 808.851562 301.691406 808.976562 301.816406 C 809.101562 301.941406 809.347656 302.1875 809.472656 302.3125 C 809.597656 302.4375 809.84375 302.683594 809.96875 302.808594 C 810.09375 302.933594 810.339844 303.179688 810.464844 303.304688 C 810.589844 303.429688 810.835938 303.675781 810.960938 303.800781 C 811.085938 303.925781 811.332031 304.171875 811.457031 304.296875 C 811.578125 304.421875 811.828125 304.667969 811.953125 304.792969 C 812.074219 304.914062 812.324219 305.164062 812.449219 305.289062 C 812.570312 305.410156 812.820312 305.660156 812.945312 305.785156 C 846.425781 339.140625 867.132812 385.269531 867.132812 436.355469 C 867.132812 493.769531 840.84375 544.980469 799.550781 578.832031 C 761.113281 558 717.09375 546.097656 670.34375 546.097656 L 533.570312 546.097656 C 533.449219 545.972656 533.324219 545.847656 533.199219 545.722656 C 533.074219 545.601562 532.828125 545.351562 532.703125 545.226562 C 532.578125 545.105469 532.332031 544.855469 532.207031 544.730469 C 532.085938 544.609375 531.835938 544.359375 531.710938 544.234375 C 531.589844 544.113281 531.339844 543.863281 531.214844 543.738281 C 531.09375 543.617188 530.84375 543.367188 530.71875 543.242188 C 530.597656 543.121094 530.347656 542.871094 530.222656 542.746094 C 530.101562 542.625 529.851562 542.375 529.726562 542.253906 C 529.605469 542.128906 529.355469 541.878906 529.230469 541.757812 C 529.109375 541.632812 528.859375 541.382812 528.734375 541.261719 C 528.613281 541.136719 528.363281 540.886719 528.238281 540.765625 C 528.117188 540.640625 527.867188 540.390625 527.742188 540.269531 C 527.621094 540.144531 527.371094 539.894531 527.246094 539.773438 C 527.125 539.648438 526.875 539.398438 526.753906 539.277344 C 526.628906 539.152344 526.378906 538.902344 526.257812 538.78125 C 526.132812 538.65625 525.882812 538.40625 525.761719 538.285156 C 525.636719 538.160156 525.386719 537.910156 525.265625 537.789062 C 525.140625 537.664062 524.890625 537.414062 524.769531 537.292969 C 524.644531 537.167969 524.394531 536.921875 524.273438 536.796875 C 524.148438 536.671875 523.898438 536.425781 523.777344 536.300781 C 523.652344 536.175781 523.402344 535.929688 523.28125 535.804688 C 523.15625 535.679688 522.90625 535.433594 522.785156 535.308594 C 522.660156 535.183594 522.410156 534.9375 522.289062 534.8125 C 522.164062 534.6875 521.914062 534.441406 521.792969 534.316406 C 521.667969 534.191406 521.421875 533.945312 521.296875 533.820312 C 521.171875 533.695312 520.925781 533.449219 520.800781 533.324219 C 520.675781 533.199219 520.429688 532.953125 520.304688 532.828125 C 520.179688 532.703125 519.933594 532.457031 519.808594 532.332031 C 519.683594 532.207031 519.4375 531.960938 519.3125 531.835938 C 519.1875 531.710938 518.941406 531.464844 518.816406 531.339844 C 518.691406 531.214844 518.445312 530.96875 518.320312 530.84375 C 518.195312 530.71875 517.949219 530.472656 517.824219 530.347656 C 517.699219 530.222656 517.453125 529.976562 517.328125 529.851562 C 517.203125 529.726562 516.957031 529.480469 516.832031 529.355469 C 516.707031 529.230469 516.460938 528.984375 516.335938 528.859375 C 516.210938 528.734375 515.964844 528.488281 515.839844 528.363281 C 515.714844 528.238281 515.46875 527.992188 515.34375 527.867188 C 515.21875 527.742188 514.972656 527.496094 514.847656 527.371094 C 514.722656 527.246094 514.476562 527 514.351562 526.875 C 514.226562 526.753906 513.980469 526.503906 513.855469 526.378906 C 513.730469 526.257812 513.484375 526.007812 513.359375 525.882812 C 513.234375 525.761719 512.988281 525.511719 512.863281 525.386719 C 512.738281 525.265625 512.492188 525.015625 512.367188 524.890625 C 512.242188 524.769531 511.996094 524.519531 511.871094 524.394531 C 511.746094 524.273438 511.5 524.023438 511.375 523.898438 C 511.253906 523.777344 511.003906 523.527344 510.878906 523.402344 C 510.757812 523.28125 510.507812 523.03125 510.382812 522.90625 C 510.261719 522.785156 510.011719 522.535156 509.886719 522.410156 C 509.765625 522.289062 509.515625 522.039062 509.390625 521.914062 C 509.269531 521.792969 509.019531 521.542969 508.894531 521.421875 C 508.773438 521.296875 508.523438 521.046875 508.398438 520.925781 C 508.277344 520.800781 508.027344 520.550781 507.902344 520.429688 C 507.78125 520.304688 507.53125 520.054688 507.40625 519.933594 C 507.285156 519.808594 507.035156 519.558594 506.910156 519.4375 C 506.789062 519.3125 506.539062 519.0625 506.414062 518.941406 C 506.292969 518.816406 506.042969 518.566406 505.921875 518.445312 C 505.796875 518.320312 505.546875 518.070312 505.425781 517.949219 C 505.300781 517.824219 505.050781 517.574219 504.929688 517.453125 C 504.804688 517.328125 504.554688 517.078125 504.433594 516.957031 C 504.308594 516.832031 504.058594 516.585938 503.9375 516.460938 C 503.8125 516.335938 503.5625 516.089844 503.441406 515.964844 C 503.316406 515.839844 503.066406 515.59375 502.945312 515.46875 C 502.820312 515.34375 502.570312 515.097656 502.449219 514.972656 C 502.324219 514.847656 502.074219 514.601562 501.953125 514.476562 C 501.828125 514.351562 501.578125 514.105469 501.457031 513.980469 C 501.332031 513.855469 501.085938 513.609375 500.960938 513.484375 C 500.835938 513.359375 500.589844 513.113281 500.464844 512.988281 C 500.339844 512.863281 500.09375 512.617188 499.96875 512.492188 C 499.84375 512.367188 499.597656 512.121094 499.472656 511.996094 C 499.347656 511.871094 499.101562 511.625 498.976562 511.5 C 498.851562 511.375 498.605469 511.128906 498.480469 511.003906 C 498.355469 510.878906 498.109375 510.632812 497.984375 510.507812 C 497.859375 510.382812 497.613281 510.136719 497.488281 510.011719 C 497.363281 509.886719 497.117188 509.640625 496.992188 509.515625 C 496.867188 509.390625 496.621094 509.144531 496.496094 509.019531 C 496.371094 508.894531 496.125 508.648438 496 508.523438 C 495.875 508.398438 495.628906 508.152344 495.503906 508.027344 C 495.378906 507.902344 495.132812 507.65625 495.007812 507.53125 C 494.882812 507.40625 494.636719 507.160156 494.511719 507.035156 C 494.386719 506.910156 494.140625 506.664062 494.015625 506.539062 C 493.890625 506.414062 493.644531 506.167969 493.519531 506.042969 C 493.394531 505.921875 493.148438 505.671875 493.023438 505.546875 C 492.898438 505.425781 492.652344 505.175781 492.527344 505.050781 C 492.402344 504.929688 492.15625 504.679688 492.03125 504.554688 C 491.90625 504.433594 491.660156 504.183594 491.535156 504.058594 C 491.410156 503.9375 491.164062 503.6875 491.039062 503.5625 C 490.914062 503.441406 490.667969 503.191406 490.542969 503.066406 C 490.421875 502.945312 490.171875 502.695312 490.046875 502.570312 C 489.925781 502.449219 489.675781 502.199219 489.550781 502.074219 C 489.429688 501.953125 489.179688 501.703125 489.054688 501.578125 C 488.933594 501.457031 488.683594 501.207031 488.558594 501.085938 C 488.4375 500.960938 488.1875 500.710938 488.0625 500.589844 C 487.941406 500.464844 487.691406 500.214844 487.566406 500.09375 C 487.445312 499.96875 487.195312 499.71875 487.070312 499.597656 C 486.949219 499.472656 486.699219 499.222656 486.574219 499.101562 C 486.453125 498.976562 486.203125 498.726562 486.078125 498.605469 C 485.957031 498.480469 485.707031 498.230469 485.585938 498.109375 C 485.460938 497.984375 485.210938 497.734375 485.089844 497.613281 C 484.964844 497.488281 484.714844 497.238281 484.59375 497.117188 C 484.46875 496.992188 484.21875 496.742188 484.097656 496.621094 C 483.972656 496.496094 483.722656 496.246094 483.601562 496.125 C 483.476562 496 483.226562 495.753906 483.105469 495.628906 C 482.980469 495.503906 482.730469 495.257812 482.609375 495.132812 C 482.484375 495.007812 482.234375 494.761719 482.113281 494.636719 C 481.988281 494.511719 481.738281 494.265625 481.617188 494.140625 C 481.492188 494.015625 481.242188 493.769531 481.121094 493.644531 C 480.996094 493.519531 480.746094 493.273438 480.625 493.148438 C 480.5 493.023438 480.253906 492.777344 480.128906 492.652344 C 480.003906 492.527344 479.757812 492.28125 479.632812 492.15625 C 479.507812 492.03125 479.261719 491.785156 479.136719 491.660156 C 479.011719 491.535156 478.765625 491.289062 478.640625 491.164062 C 478.515625 491.039062 478.269531 490.792969 478.144531 490.667969 C 478.019531 490.542969 477.773438 490.296875 477.648438 490.171875 C 477.523438 490.046875 477.277344 489.800781 477.152344 489.675781 C 477.027344 489.550781 476.78125 489.304688 476.65625 489.179688 C 476.53125 489.054688 476.285156 488.808594 476.160156 488.683594 C 476.035156 488.558594 475.789062 488.3125 475.664062 488.1875 C 475.539062 488.0625 475.292969 487.816406 475.167969 487.691406 C 475.042969 487.566406 474.796875 487.320312 474.671875 487.195312 C 474.546875 487.070312 474.300781 486.824219 474.175781 486.699219 C 474.050781 486.574219 473.804688 486.328125 473.679688 486.203125 C 473.554688 486.078125 473.308594 485.832031 473.183594 485.707031 C 473.058594 485.585938 472.8125 485.335938 472.6875 485.210938 C 472.5625 485.089844 472.316406 484.839844 472.191406 484.714844 C 472.066406 484.59375 471.820312 484.34375 471.695312 484.21875 C 471.570312 484.097656 471.570312 484.097656 471.449219 483.972656 C 501.207031 503.5625 536.671875 515.097656 574.863281 515.097656 C 678.652344 515.097656 763.097656 430.652344 763.097656 326.863281 C 761.855469 288.921875 750.449219 253.332031 730.855469 223.695312 Z M 380.804688 335.296875 C 380.804688 317.5625 383.40625 300.453125 387.871094 284.085938 C 387.746094 283.960938 387.746094 283.960938 387.625 283.835938 C 387.5 283.710938 387.375 283.589844 387.253906 283.464844 C 387.128906 283.339844 387.003906 283.214844 386.878906 283.09375 C 386.757812 282.96875 386.632812 282.84375 386.382812 282.597656 C 386.261719 282.472656 386.136719 282.347656 386.011719 282.222656 C 385.886719 282.101562 385.765625 281.976562 385.515625 281.726562 C 385.390625 281.605469 385.269531 281.480469 385.144531 281.355469 C 385.019531 281.230469 384.894531 281.109375 384.648438 280.859375 C 384.523438 280.734375 384.398438 280.613281 384.277344 280.488281 C 384.152344 280.363281 384.027344 280.238281 383.902344 280.117188 C 383.78125 279.992188 383.65625 279.867188 383.53125 279.742188 C 383.40625 279.621094 383.285156 279.496094 383.160156 279.371094 C 383.035156 279.246094 382.910156 279.125 382.789062 279 C 382.664062 278.875 382.539062 278.753906 382.414062 278.628906 C 382.292969 278.503906 382.167969 278.378906 382.042969 278.257812 C 381.921875 278.132812 381.796875 278.007812 381.671875 277.882812 C 381.546875 277.761719 381.425781 277.636719 381.300781 277.511719 C 381.175781 277.386719 381.050781 277.265625 380.929688 277.140625 C 380.804688 277.015625 380.679688 276.890625 380.554688 276.769531 C 380.433594 276.644531 380.308594 276.519531 380.183594 276.394531 C 380.058594 276.273438 379.9375 276.148438 379.8125 276.023438 C 379.6875 275.898438 379.5625 275.777344 379.441406 275.652344 C 379.316406 275.527344 379.191406 275.402344 379.066406 275.28125 C 378.945312 275.15625 378.820312 275.03125 378.695312 274.90625 C 378.570312 274.785156 378.449219 274.660156 378.324219 274.535156 C 378.199219 274.410156 378.074219 274.289062 377.953125 274.164062 C 377.828125 274.039062 377.703125 273.914062 377.578125 273.792969 C 377.457031 273.667969 377.332031 273.542969 377.207031 273.421875 C 377.085938 273.296875 376.960938 273.171875 376.835938 273.046875 C 376.710938 272.925781 376.589844 272.800781 376.464844 272.675781 C 376.339844 272.550781 376.214844 272.429688 376.09375 272.304688 C 375.96875 272.179688 375.84375 272.054688 375.71875 271.933594 C 375.597656 271.808594 375.472656 271.683594 375.347656 271.558594 C 375.222656 271.4375 375.101562 271.3125 374.976562 271.1875 C 374.851562 271.0625 374.726562 270.941406 374.605469 270.816406 C 374.480469 270.691406 374.355469 270.566406 374.230469 270.445312 C 374.109375 270.320312 373.984375 270.195312 373.859375 270.070312 C 373.734375 269.949219 373.613281 269.824219 373.488281 269.699219 C 373.363281 269.574219 373.238281 269.453125 373.117188 269.328125 C 372.992188 269.203125 372.867188 269.078125 372.742188 268.957031 C 372.621094 268.832031 372.496094 268.707031 372.371094 268.585938 C 372.246094 268.460938 372.125 268.335938 372 268.210938 C 371.875 268.089844 371.753906 267.964844 371.628906 267.839844 C 371.503906 267.714844 371.378906 267.59375 371.257812 267.46875 C 371.132812 267.34375 371.007812 267.21875 370.761719 266.972656 C 370.636719 266.847656 370.511719 266.722656 370.386719 266.601562 C 370.265625 266.476562 370.140625 266.351562 369.890625 266.105469 C 369.769531 265.980469 369.644531 265.855469 369.519531 265.730469 C 369.394531 265.609375 369.273438 265.484375 369.023438 265.234375 C 368.898438 265.113281 368.777344 264.988281 368.652344 264.863281 C 368.527344 264.738281 368.402344 264.617188 368.15625 264.367188 C 368.03125 264.242188 367.90625 264.121094 367.785156 263.996094 C 367.660156 263.871094 367.535156 263.746094 367.289062 263.5 C 367.164062 263.375 367.039062 263.253906 366.914062 263.128906 C 366.792969 263.003906 366.667969 262.878906 366.421875 262.632812 C 366.296875 262.507812 366.171875 262.382812 366.046875 262.261719 C 365.925781 262.136719 365.800781 262.011719 365.550781 261.765625 C 365.429688 261.640625 365.304688 261.515625 365.179688 261.390625 C 365.054688 261.269531 364.933594 261.144531 364.683594 260.894531 C 364.558594 260.773438 364.4375 260.648438 364.3125 260.523438 C 364.1875 260.398438 364.0625 260.277344 363.941406 260.152344 C 363.816406 260.027344 363.691406 259.902344 363.566406 259.78125 C 363.445312 259.65625 363.320312 259.53125 363.070312 259.285156 C 362.949219 259.160156 362.824219 259.035156 362.699219 258.910156 C 362.574219 258.789062 362.453125 258.664062 362.203125 258.414062 C 362.078125 258.292969 361.957031 258.167969 361.832031 258.042969 C 361.707031 257.921875 361.585938 257.796875 361.335938 257.671875 C 361.210938 257.546875 361.089844 257.425781 360.964844 257.300781 C 360.839844 257.175781 360.714844 257.050781 360.46875 256.804688 C 360.34375 256.679688 360.21875 256.554688 360.097656 256.433594 C 359.972656 256.308594 359.847656 256.183594 359.722656 255.9375 C 359.601562 255.8125 359.476562 255.6875 359.351562 255.5625 C 359.226562 255.441406 359.105469 255.316406 358.855469 255.066406 C 358.730469 254.945312 358.609375 254.820312 358.484375 254.695312 C 358.359375 254.570312 358.234375 254.449219 357.988281 254.199219 C 357.863281 254.074219 357.738281 253.953125 357.617188 253.828125 C 357.492188 253.703125 357.367188 253.578125 357.121094 253.457031 C 356.996094 253.332031 356.871094 253.207031 356.746094 253.085938 C 356.625 252.960938 356.5 252.835938 356.375 252.710938 C 356.253906 252.589844 356.128906 252.464844 356.003906 252.339844 C 355.878906 252.214844 355.757812 252.09375 355.632812 251.96875 C 355.507812 251.84375 355.382812 251.71875 355.261719 251.597656 C 355.136719 251.472656 355.011719 251.347656 354.886719 251.222656 C 354.765625 251.101562 354.640625 250.976562 354.515625 250.851562 C 354.390625 250.726562 354.269531 250.605469 354.144531 250.480469 C 354.019531 250.355469 353.894531 250.230469 353.773438 250.109375 C 353.648438 249.984375 353.523438 249.859375 353.398438 249.734375 C 353.277344 249.613281 353.152344 249.488281 353.027344 249.363281 C 352.902344 249.238281 352.78125 249.117188 352.65625 248.992188 C 352.53125 248.867188 352.40625 248.742188 352.285156 248.621094 C 352.160156 248.496094 352.035156 248.371094 351.910156 248.246094 C 351.789062 248.125 351.664062 248 351.539062 247.875 C 351.414062 247.753906 351.292969 247.628906 351.167969 247.503906 C 351.042969 247.378906 350.921875 247.257812 350.796875 247.132812 C 350.671875 247.007812 350.546875 246.882812 350.425781 246.761719 C 350.300781 246.636719 350.175781 246.511719 350.050781 246.386719 C 349.929688 246.265625 349.804688 246.140625 349.679688 246.015625 C 349.554688 245.890625 349.433594 245.769531 349.308594 245.644531 C 349.183594 245.519531 349.058594 245.394531 348.9375 245.273438 C 348.8125 245.148438 348.6875 245.023438 348.5625 244.898438 C 348.441406 244.777344 348.316406 244.652344 348.191406 244.527344 C 348.066406 244.402344 347.945312 244.28125 347.820312 244.15625 C 347.695312 244.03125 347.570312 243.90625 347.449219 243.785156 C 347.324219 243.660156 347.199219 243.535156 347.074219 243.410156 C 346.953125 243.289062 346.828125 243.164062 346.703125 243.039062 C 346.578125 242.914062 346.457031 242.792969 346.332031 242.667969 C 346.207031 242.542969 346.085938 242.421875 345.960938 242.296875 C 345.835938 242.171875 345.710938 242.046875 345.589844 241.925781 C 345.464844 241.800781 345.339844 241.675781 345.214844 241.550781 C 345.09375 241.429688 344.96875 241.304688 344.84375 241.179688 C 344.71875 241.054688 344.597656 240.933594 344.472656 240.808594 C 344.347656 240.683594 344.222656 240.558594 344.101562 240.4375 C 343.976562 240.3125 343.851562 240.1875 343.726562 240.0625 C 343.605469 239.941406 343.480469 239.816406 343.230469 239.566406 C 343.109375 239.445312 342.984375 239.320312 342.859375 239.195312 C 342.734375 239.070312 342.613281 238.949219 342.363281 238.699219 C 342.238281 238.574219 342.117188 238.453125 341.992188 238.328125 C 341.867188 238.203125 341.742188 238.078125 341.496094 237.832031 C 341.246094 237.585938 341.246094 237.585938 341.125 237.460938 C 341 237.335938 340.875 237.210938 340.628906 236.964844 C 340.503906 236.839844 340.378906 236.714844 340.257812 236.59375 C 340.132812 236.46875 340.007812 236.34375 339.761719 236.097656 C 339.636719 235.972656 339.511719 235.847656 339.386719 235.722656 C 339.265625 235.601562 339.140625 235.476562 338.890625 235.226562 C 338.769531 235.105469 338.644531 234.980469 338.519531 234.855469 C 338.394531 234.730469 338.273438 234.609375 338.023438 234.359375 C 337.898438 234.234375 337.777344 234.113281 337.652344 233.988281 C 337.527344 233.863281 337.402344 233.738281 337.15625 233.492188 C 337.03125 233.367188 336.90625 233.242188 336.785156 233.121094 C 336.660156 232.996094 336.535156 232.871094 336.410156 232.746094 C 336.289062 232.625 336.164062 232.5 336.039062 232.375 C 335.914062 232.253906 335.792969 232.128906 335.542969 231.878906 C 335.421875 231.757812 335.296875 231.632812 335.171875 231.507812 C 335.046875 231.382812 334.925781 231.261719 334.675781 231.011719 C 334.550781 230.886719 334.429688 230.765625 334.304688 230.640625 C 334.179688 230.515625 334.054688 230.390625 333.808594 230.269531 C 333.683594 230.144531 333.558594 230.019531 333.4375 229.894531 C 333.3125 229.773438 333.1875 229.648438 332.941406 229.398438 C 332.816406 229.277344 332.691406 229.152344 332.566406 229.027344 C 332.445312 228.902344 332.320312 228.78125 332.195312 228.53125 C 332.070312 228.40625 331.949219 228.285156 331.824219 228.160156 C 331.699219 228.035156 331.574219 227.910156 331.328125 227.664062 C 331.203125 227.539062 331.078125 227.414062 330.957031 227.292969 C 330.832031 227.167969 330.707031 227.042969 330.460938 226.796875 C 330.335938 226.671875 330.210938 226.546875 330.089844 226.425781 C 329.964844 226.300781 329.839844 226.175781 329.59375 226.050781 C 329.46875 225.929688 329.34375 225.804688 329.21875 225.679688 C 329.097656 225.554688 328.972656 225.433594 328.847656 225.308594 C 328.722656 225.183594 328.601562 225.058594 328.476562 224.9375 C 328.351562 224.8125 328.226562 224.6875 328.105469 224.5625 C 327.980469 224.441406 327.855469 224.316406 327.730469 224.191406 C 327.609375 224.066406 327.484375 223.945312 327.359375 223.820312 C 327.234375 223.695312 327.113281 223.570312 326.988281 223.449219 C 326.863281 223.324219 326.738281 223.199219 326.617188 223.074219 C 326.492188 222.953125 326.367188 222.828125 326.242188 222.703125 C 326.121094 222.578125 325.996094 222.457031 325.871094 222.332031 C 325.746094 222.207031 325.625 222.085938 325.5 221.960938 C 325.375 221.835938 325.253906 221.710938 325.128906 221.589844 C 325.003906 221.464844 324.878906 221.339844 324.757812 221.214844 C 324.632812 221.09375 324.507812 220.96875 324.382812 220.84375 C 324.261719 220.71875 324.136719 220.597656 324.011719 220.472656 C 323.886719 220.347656 323.765625 220.222656 323.640625 220.101562 C 323.515625 219.976562 323.515625 219.976562 323.390625 219.851562 C 340.007812 245.023438 349.804688 275.28125 349.804688 307.644531 C 349.804688 395.683594 278.132812 467.355469 190.09375 467.355469 C 157.726562 467.355469 127.472656 457.683594 102.300781 440.945312 C 102.425781 441.066406 102.425781 441.066406 102.546875 441.191406 C 102.671875 441.316406 102.796875 441.441406 102.921875 441.5625 C 103.042969 441.6875 103.167969 441.8125 103.292969 441.9375 C 103.414062 442.058594 103.539062 442.183594 103.664062 442.308594 C 98.953125 437.347656 99.074219 437.597656 99.199219 437.71875 C 99.324219 437.84375 99.449219 437.96875 99.570312 438.09375 C 99.695312 438.214844 99.820312 438.339844 99.945312 438.464844 C 100.066406 438.589844 100.191406 438.710938 100.316406 438.835938 C 100.441406 438.960938 100.5625 439.085938 100.6875 439.207031 C 100.8125 439.332031 100.9375 439.457031 101.058594 439.578125 C 101.183594 439.703125 101.308594 439.828125 101.433594 439.953125 C 101.554688 440.074219 101.679688 440.199219 101.804688 440.324219 C 101.929688 440.449219 102.050781 440.570312 102.175781 440.695312 C 102.300781 440.820312 102.425781 440.945312 102.546875 441.066406 C 102.671875 441.191406 102.796875 441.316406 102.921875 441.441406 C 103.042969 441.5625 103.167969 441.6875 103.292969 441.8125 C 103.414062 441.9375 103.539062 442.058594 103.664062 442.183594 C 103.789062 442.308594 103.910156 442.433594 104.035156 442.554688 C 104.160156 442.679688 104.285156 442.804688 104.53125 443.050781 C 104.65625 443.175781 104.78125 443.300781 104.902344 443.425781 C 105.027344 443.546875 105.152344 443.671875 105.277344 443.921875 C 105.398438 444.042969 105.523438 444.167969 105.648438 444.292969 C 105.773438 444.414062 105.894531 444.539062 106.144531 444.789062 C 106.269531 444.910156 106.390625 445.035156 106.515625 445.160156 C 106.640625 445.285156 106.765625 445.40625 107.011719 445.65625 C 107.136719 445.78125 107.261719 445.902344 107.382812 446.027344 C 107.507812 446.152344 107.632812 446.277344 107.878906 446.523438 C 108.003906 446.648438 108.128906 446.773438 108.253906 446.894531 C 108.375 447.019531 108.5 447.144531 108.746094 447.390625 C 108.871094 447.515625 108.996094 447.640625 109.121094 447.765625 C 109.242188 447.886719 109.367188 448.011719 109.492188 448.261719 C 109.617188 448.382812 109.738281 448.507812 109.863281 448.632812 C 109.988281 448.757812 110.113281 448.878906 110.359375 449.003906 C 111.351562 449.871094 111.476562 449.996094 111.601562 450.121094 C 111.722656 450.242188 111.847656 450.367188 112.097656 450.617188 C 112.21875 450.738281 112.34375 450.863281 112.46875 450.988281 C 112.59375 451.113281 112.714844 451.234375 112.964844 451.484375 C 113.089844 451.609375 113.210938 451.730469 113.335938 451.855469 C 113.460938 451.980469 113.585938 452.105469 113.832031 452.226562 C 113.957031 452.351562 114.078125 452.476562 114.203125 452.601562 C 114.328125 452.722656 114.453125 452.847656 114.574219 453.097656 C 114.699219 453.21875 114.824219 453.34375 114.949219 453.46875 C 115.070312 453.59375 115.195312 453.714844 115.445312 453.964844 C 115.566406 454.089844 115.691406 454.210938 115.816406 454.335938 C 115.941406 454.460938 116.0625 454.585938 116.3125 454.832031 C 116.4375 454.957031 116.558594 455.078125 116.683594 455.203125 C 116.808594 455.328125 116.933594 455.453125 117.179688 455.699219 C 117.304688 455.824219 117.429688 455.949219 117.550781 456.070312 C 117.675781 456.195312 117.800781 456.320312 118.046875 456.566406 C 118.171875 456.691406 118.296875 456.816406 118.421875 456.941406 C 118.542969 457.0625 118.667969 457.1875 118.914062 457.3125 C 119.039062 457.4375 119.164062 457.558594 119.289062 457.683594 C 119.410156 457.808594 119.535156 457.933594 119.660156 458.054688 C 119.785156 458.179688 119.90625 458.304688 120.03125 458.429688 C 120.15625 458.550781 120.28125 458.675781 120.402344 458.800781 C 120.527344 458.925781 120.652344 459.046875 120.777344 459.171875 C 120.898438 459.296875 121.023438 459.421875 121.148438 459.542969 C 121.273438 459.667969 121.394531 459.792969 121.519531 459.914062 C 121.644531 460.039062 121.769531 460.164062 121.890625 460.289062 C 122.015625 460.410156 122.140625 460.535156 122.265625 460.660156 C 122.386719 460.785156 122.511719 460.90625 122.636719 461.03125 C 122.761719 461.15625 122.882812 461.28125 123.007812 461.402344 C 123.132812 461.527344 123.257812 461.652344 123.378906 461.777344 C 123.503906 461.898438 123.628906 462.023438 123.753906 462.148438 C 123.875 462.273438 124 462.394531 124.125 462.519531 C 124.246094 462.644531 124.371094 462.769531 124.496094 462.890625 C 124.621094 463.015625 124.742188 463.140625 124.867188 463.265625 C 124.992188 463.386719 125.117188 463.511719 125.238281 463.636719 C 125.363281 463.761719 125.488281 463.882812 125.613281 464.007812 C 125.734375 464.132812 125.859375 464.257812 125.984375 464.378906 C 126.109375 464.503906 126.230469 464.628906 126.355469 464.753906 C 126.480469 464.875 126.605469 465 126.726562 465.125 C 126.851562 465.246094 126.976562 465.371094 127.101562 465.496094 C 127.222656 465.621094 127.347656 465.742188 127.472656 465.867188 C 127.597656 465.992188 127.71875 466.117188 127.84375 466.238281 C 127.96875 466.363281 128.09375 466.488281 128.214844 466.613281 C 128.339844 466.734375 128.464844 466.859375 128.589844 466.984375 C 128.710938 467.109375 128.835938 467.230469 128.960938 467.355469 C 129.085938 467.480469 129.207031 467.605469 129.332031 467.726562 C 129.457031 467.851562 129.578125 467.976562 129.703125 468.101562 C 129.828125 468.222656 129.953125 468.347656 130.074219 468.472656 C 130.199219 468.597656 130.324219 468.71875 130.449219 468.84375 C 130.570312 468.96875 130.695312 469.09375 130.820312 469.214844 C 130.945312 469.339844 131.066406 469.464844 131.191406 469.589844 C 131.316406 469.710938 131.441406 469.835938 131.5625 469.960938 C 131.6875 470.085938 131.8125 470.207031 131.9375 470.332031 C 132.058594 470.457031 132.183594 470.578125 132.308594 470.703125 C 132.433594 470.828125 132.554688 470.953125 132.804688 471.199219 C 132.929688 471.324219 133.050781 471.449219 133.175781 471.570312 C 133.300781 471.695312 133.425781 471.820312 133.546875 472.066406 C 133.671875 472.191406 133.796875 472.316406 133.921875 472.441406 C 134.042969 472.5625 134.167969 472.6875 134.414062 472.9375 C 134.539062 473.058594 134.664062 473.183594 134.789062 473.308594 C 134.910156 473.433594 135.035156 473.554688 135.285156 473.804688 C 135.40625 473.929688 135.53125 474.050781 135.65625 474.175781 C 135.78125 474.300781 135.902344 474.425781 136.152344 474.671875 C 136.277344 474.796875 136.398438 474.921875 136.523438 475.042969 C 136.648438 475.167969 136.773438 475.292969 137.019531 475.539062 C 137.144531 475.664062 137.269531 475.789062 137.390625 475.910156 C 137.515625 476.035156 137.640625 476.160156 137.765625 476.40625 C 137.886719 476.53125 138.011719 476.65625 138.136719 476.78125 C 138.261719 476.902344 138.382812 477.027344 138.632812 477.152344 C 138.757812 477.277344 138.878906 477.398438 139.003906 477.523438 C 139.128906 477.648438 139.253906 477.773438 139.5 478.019531 C 139.625 478.144531 139.746094 478.269531 139.871094 478.390625 C 139.996094 478.515625 140.121094 478.640625 140.367188 478.886719 C 140.492188 479.011719 140.617188 479.136719 140.738281 479.261719 C 140.863281 479.382812 140.988281 479.507812 141.234375 479.632812 C 141.359375 479.757812 141.484375 479.878906 141.609375 480.003906 C 141.730469 480.128906 141.855469 480.253906 141.980469 480.5 C 142.105469 480.625 142.226562 480.746094 142.351562 480.871094 C 142.476562 480.996094 142.601562 481.121094 142.847656 481.367188 C 142.972656 481.492188 143.097656 481.617188 143.21875 481.738281 C 143.34375 481.863281 143.46875 481.988281 143.714844 482.234375 C 143.839844 482.359375 143.964844 482.484375 144.089844 482.609375 C 144.210938 482.730469 144.335938 482.855469 144.585938 483.105469 C 144.707031 483.226562 144.832031 483.351562 144.957031 483.476562 C 145.078125 483.601562 145.203125 483.722656 145.453125 483.972656 C 145.574219 484.097656 145.699219 484.21875 145.824219 484.34375 C 145.949219 484.46875 146.070312 484.59375 146.320312 484.714844 C 146.445312 484.839844 146.566406 484.964844 146.691406 485.089844 C 146.816406 485.210938 146.941406 485.335938 147.0625 485.460938 C 147.1875 485.585938 147.3125 485.707031 147.4375 485.832031 C 147.558594 485.957031 147.683594 486.078125 147.808594 486.203125 C 147.933594 486.328125 148.054688 486.453125 148.179688 486.574219 C 148.304688 486.699219 148.429688 486.824219 148.550781 486.949219 L 265.980469 486.949219 C 305.660156 486.949219 342.984375 496.992188 375.71875 514.722656 C 395.558594 498.480469 411.183594 477.277344 421.105469 453.21875 C 396.925781 422.839844 380.804688 380.929688 380.804688 335.296875 Z M 391.59375 594.703125 C 391.714844 594.578125 391.964844 594.332031 392.089844 594.207031 C 392.210938 594.085938 392.460938 593.835938 392.585938 593.710938 C 392.585938 593.589844 392.707031 593.589844 392.832031 593.464844 C 392.707031 593.339844 392.707031 593.339844 392.585938 593.214844 C 392.460938 593.09375 392.335938 592.96875 392.210938 592.84375 C 392.089844 592.71875 391.964844 592.597656 391.839844 592.472656 C 391.714844 592.347656 391.59375 592.222656 391.46875 592.101562 C 391.34375 591.976562 391.21875 591.851562 391.097656 591.726562 C 390.972656 591.605469 390.847656 591.480469 390.722656 591.355469 C 390.601562 591.230469 390.476562 591.109375 390.351562 590.984375 C 390.226562 590.859375 390.105469 590.734375 389.980469 590.613281 C 389.855469 590.488281 389.730469 590.363281 389.484375 590.238281 C 389.359375 590.117188 389.234375 589.992188 389.113281 589.867188 C 388.988281 589.742188 388.863281 589.621094 388.617188 589.371094 C 388.492188 589.246094 388.367188 589.125 388.242188 589 C 388.121094 588.875 387.996094 588.753906 387.746094 588.503906 C 387.625 588.378906 387.5 588.257812 387.375 588.132812 C 387.375 588.132812 387.253906 588.007812 387.253906 588.007812 C 388.988281 590.363281 390.226562 592.84375 391.714844 595.324219 C 391.46875 594.828125 391.59375 594.703125 391.59375 594.703125 Z M 286.5625 829.0625 C 285.449219 824.105469 285.074219 819.019531 284.457031 814.058594 L 43.152344 814.058594 C 26.410156 814.058594 10.789062 809.597656 -2.726562 801.785156 C -2.726562 801.785156 -2.605469 801.90625 -2.605469 801.90625 C -2.480469 802.03125 -2.355469 802.15625 -2.230469 802.28125 C -2.109375 802.402344 -1.984375 802.527344 -1.859375 802.652344 C -1.734375 802.777344 -1.613281 802.898438 -1.488281 803.023438 C -1.363281 803.148438 -1.238281 803.273438 -1.117188 803.394531 C -0.992188 803.519531 -0.867188 803.644531 -0.742188 803.769531 C -0.621094 803.890625 -0.496094 804.015625 -0.246094 804.140625 C -0.125 804.265625 0 804.386719 0.125 804.511719 C 0.246094 804.636719 0.371094 804.761719 0.496094 804.882812 C 0.621094 805.007812 0.742188 805.132812 0.867188 805.257812 C 0.992188 805.378906 1.117188 805.503906 1.238281 805.628906 C 1.363281 805.753906 1.488281 805.875 1.613281 806 C 1.734375 806.125 1.859375 806.246094 1.984375 806.371094 C 2.109375 806.496094 2.230469 806.621094 2.355469 806.742188 C 2.480469 806.867188 2.605469 806.992188 2.726562 807.117188 C 2.851562 807.238281 2.976562 807.363281 3.101562 807.488281 C 3.222656 807.613281 3.347656 807.734375 3.472656 807.859375 C 3.597656 807.984375 3.71875 808.109375 3.84375 808.230469 C 3.96875 808.355469 4.09375 808.480469 4.339844 808.726562 C 4.464844 808.851562 4.589844 808.976562 4.710938 809.101562 C 4.835938 809.222656 4.960938 809.347656 5.085938 809.472656 C 5.207031 809.597656 5.332031 809.71875 5.457031 809.84375 C 5.578125 809.96875 5.703125 810.09375 5.828125 810.214844 C 5.953125 810.339844 6.074219 810.464844 6.199219 810.589844 C 6.324219 810.710938 6.449219 810.835938 6.570312 810.960938 C 6.695312 811.085938 6.820312 811.207031 6.945312 811.332031 C 7.066406 811.457031 7.191406 811.578125 7.316406 811.703125 C 7.441406 811.828125 7.5625 811.953125 7.6875 812.074219 C 7.8125 812.199219 7.9375 812.324219 8.058594 812.449219 C 8.183594 812.570312 8.308594 812.695312 8.433594 812.820312 C 8.554688 812.945312 8.679688 813.066406 8.804688 813.191406 C 8.929688 813.316406 9.050781 813.441406 9.175781 813.5625 C 9.300781 813.6875 9.425781 813.8125 9.546875 813.9375 C 9.671875 814.058594 9.796875 814.183594 9.921875 814.308594 C 10.042969 814.433594 10.167969 814.554688 10.292969 814.679688 C 10.414062 814.804688 10.539062 814.929688 10.664062 815.050781 C 10.789062 815.175781 10.910156 815.300781 11.035156 815.425781 C 11.160156 815.546875 11.285156 815.671875 11.40625 815.796875 C 11.53125 815.921875 11.65625 816.042969 11.78125 816.167969 C 11.902344 816.292969 12.027344 816.414062 12.152344 816.539062 C 12.277344 816.664062 12.398438 816.789062 12.523438 816.910156 C 12.648438 817.035156 12.773438 817.160156 12.894531 817.285156 C 13.019531 817.40625 13.144531 817.53125 13.269531 817.65625 C 13.390625 817.78125 13.515625 817.902344 13.640625 818.027344 C 13.765625 818.152344 13.886719 818.277344 14.011719 818.398438 C 14.136719 818.523438 14.261719 818.648438 14.382812 818.773438 C 14.507812 818.894531 14.632812 819.019531 14.757812 819.144531 C 14.878906 819.269531 15.003906 819.390625 15.128906 819.515625 C 15.253906 819.640625 15.375 819.765625 15.5 819.886719 C 15.625 820.011719 15.746094 820.136719 15.871094 820.261719 C 15.996094 820.382812 16.121094 820.507812 16.242188 820.632812 C 16.367188 820.757812 16.492188 820.878906 16.617188 821.003906 C 16.738281 821.128906 16.863281 821.253906 16.988281 821.375 C 17.113281 821.5 17.234375 821.625 17.359375 821.746094 C 17.484375 821.871094 17.609375 821.996094 17.730469 822.121094 C 17.855469 822.242188 17.980469 822.367188 18.105469 822.492188 C 18.226562 822.617188 18.351562 822.738281 18.476562 822.863281 C 18.601562 822.988281 18.722656 823.113281 18.847656 823.234375 C 18.972656 823.359375 19.097656 823.484375 19.21875 823.609375 C 19.34375 823.730469 19.46875 823.855469 19.59375 823.980469 C 19.714844 824.105469 19.839844 824.226562 19.964844 824.351562 C 20.089844 824.476562 20.210938 824.601562 20.335938 824.847656 C 20.460938 824.972656 20.585938 825.097656 20.707031 825.21875 C 20.832031 825.34375 20.957031 825.46875 21.078125 825.59375 C 21.203125 825.714844 21.328125 825.839844 21.453125 825.964844 C 21.574219 826.089844 21.699219 826.210938 21.949219 826.335938 C 22.070312 826.460938 22.195312 826.585938 22.320312 826.707031 C 22.445312 826.832031 22.566406 826.957031 22.691406 827.203125 C 22.816406 827.328125 22.941406 827.453125 23.0625 827.574219 C 23.1875 827.699219 23.3125 827.824219 23.4375 827.949219 C 23.558594 828.070312 23.683594 828.195312 23.808594 828.320312 C 23.933594 828.445312 24.054688 828.566406 24.179688 828.691406 C 24.304688 828.816406 24.429688 828.941406 24.550781 829.0625 C 24.675781 829.1875 24.800781 829.3125 24.925781 829.4375 C 25.046875 829.558594 25.171875 829.683594 25.296875 829.808594 C 25.421875 829.933594 25.542969 830.054688 25.792969 830.179688 C 25.914062 830.304688 26.039062 830.429688 26.164062 830.550781 C 26.289062 830.675781 26.410156 830.800781 26.535156 830.925781 C 26.660156 831.046875 26.785156 831.171875 26.90625 831.296875 C 27.03125 831.421875 27.15625 831.542969 27.28125 831.667969 C 27.402344 831.792969 27.527344 831.914062 27.652344 832.039062 C 27.777344 832.164062 27.898438 832.289062 28.023438 832.535156 C 28.148438 832.660156 28.273438 832.785156 28.394531 832.90625 C 28.519531 833.03125 28.644531 833.15625 28.769531 833.28125 C 28.890625 833.402344 29.015625 833.527344 29.140625 833.652344 C 29.265625 833.777344 29.386719 833.898438 29.511719 834.023438 C 29.636719 834.148438 29.761719 834.273438 29.882812 834.394531 C 30.007812 834.519531 30.132812 834.644531 30.378906 834.890625 C 30.503906 835.015625 30.628906 835.140625 30.753906 835.265625 C 30.875 835.386719 31 835.511719 31.125 835.636719 C 31.246094 835.761719 31.371094 835.882812 31.496094 836.007812 C 31.621094 836.132812 31.742188 836.257812 31.867188 836.378906 C 31.992188 836.503906 32.117188 836.628906 32.238281 836.753906 C 32.363281 836.875 37.199219 841.710938 37.324219 841.835938 C 37.449219 841.960938 37.570312 842.085938 37.695312 842.207031 C 37.820312 842.332031 37.945312 842.457031 38.066406 842.578125 C 38.191406 842.703125 38.316406 842.828125 38.441406 842.953125 C 38.5625 843.074219 38.6875 843.199219 38.8125 843.324219 C 38.9375 843.449219 39.058594 843.570312 39.183594 843.695312 C 39.308594 843.820312 39.433594 843.945312 39.554688 844.066406 C 39.679688 844.191406 39.804688 844.316406 39.929688 844.441406 C 40.050781 844.5625 40.175781 844.6875 40.300781 844.8125 C 40.425781 844.9375 40.546875 845.058594 40.671875 845.183594 C 40.796875 845.308594 40.921875 845.433594 41.042969 845.554688 C 41.167969 845.679688 41.292969 845.804688 41.414062 845.929688 C 41.539062 846.050781 41.664062 846.175781 41.789062 846.300781 C 41.910156 846.425781 42.035156 846.546875 42.160156 846.671875 C 42.285156 846.796875 42.40625 846.921875 42.53125 847.042969 C 42.65625 847.167969 42.78125 847.292969 42.902344 847.414062 C 43.027344 847.539062 43.152344 847.664062 43.277344 847.789062 C 43.398438 847.910156 43.523438 848.035156 43.648438 848.160156 C 43.773438 848.285156 43.894531 848.40625 44.019531 848.53125 C 44.144531 848.65625 44.269531 848.78125 44.390625 848.902344 C 44.515625 849.027344 44.640625 849.152344 44.765625 849.277344 C 44.886719 849.398438 45.011719 849.523438 45.136719 849.648438 C 45.261719 849.773438 45.382812 849.894531 45.507812 850.019531 C 45.632812 850.144531 45.757812 850.269531 45.878906 850.390625 C 46.003906 850.515625 46.128906 850.640625 46.253906 850.765625 C 46.375 850.886719 46.5 851.011719 46.625 851.136719 C 46.746094 851.261719 46.871094 851.382812 46.996094 851.507812 C 47.121094 851.632812 47.242188 851.757812 47.367188 851.878906 C 47.492188 852.003906 47.617188 852.128906 47.738281 852.253906 C 47.863281 852.375 47.988281 852.5 48.113281 852.625 C 48.234375 852.746094 48.359375 852.871094 48.484375 852.996094 C 48.609375 853.121094 48.730469 853.242188 48.855469 853.367188 C 48.980469 853.492188 49.105469 853.617188 49.226562 853.738281 C 49.351562 853.863281 49.476562 853.988281 49.601562 854.113281 C 49.722656 854.234375 49.847656 854.359375 49.972656 854.484375 C 50.097656 854.609375 50.21875 854.730469 50.34375 854.855469 C 50.46875 854.980469 50.59375 855.105469 50.714844 855.226562 C 50.839844 855.351562 50.964844 855.476562 51.089844 855.722656 C 51.210938 855.847656 51.335938 855.972656 51.460938 856.097656 C 51.585938 856.21875 51.707031 856.34375 51.832031 856.46875 C 51.957031 856.59375 52.078125 856.714844 52.203125 856.839844 C 52.328125 856.964844 52.453125 857.089844 52.699219 857.210938 C 52.824219 857.335938 52.949219 857.460938 53.070312 857.585938 C 53.195312 857.707031 53.320312 857.832031 53.445312 857.957031 C 53.566406 858.078125 53.691406 858.203125 53.816406 858.328125 C 53.941406 858.453125 54.0625 858.574219 54.1875 858.699219 C 54.3125 858.824219 54.4375 858.949219 54.558594 859.070312 C 54.683594 859.195312 54.808594 859.320312 54.933594 859.445312 C 55.054688 859.566406 55.179688 859.691406 55.304688 859.816406 C 55.429688 859.941406 55.550781 860.0625 55.675781 860.1875 C 55.800781 860.3125 55.925781 860.4375 56.046875 860.558594 C 56.171875 860.683594 56.296875 860.808594 56.542969 860.933594 C 56.667969 861.054688 56.792969 861.179688 56.914062 861.304688 C 57.039062 861.429688 57.164062 861.550781 57.289062 861.675781 C 57.410156 861.800781 57.535156 861.925781 57.660156 862.046875 C 57.785156 862.171875 57.90625 862.296875 58.03125 862.421875 C 58.15625 862.542969 58.28125 862.667969 58.402344 862.792969 C 58.527344 862.914062 58.652344 863.039062 58.777344 863.289062 C 58.898438 863.410156 59.023438 863.535156 59.148438 863.660156 C 59.273438 863.785156 59.394531 863.90625 59.519531 864.03125 C 59.644531 864.15625 59.769531 864.28125 59.890625 864.402344 C 63.238281 867.628906 63.363281 867.875 63.488281 868 C 63.613281 868.125 63.734375 868.246094 63.859375 868.371094 C 63.984375 868.496094 64.109375 868.621094 64.355469 868.742188 C 64.480469 868.867188 64.605469 868.992188 64.726562 869.117188 C 64.851562 869.238281 64.976562 869.363281 65.101562 869.488281 C 65.222656 869.613281 65.347656 869.734375 65.472656 869.859375 C 65.597656 869.984375 65.71875 870.109375 65.84375 870.230469 C 65.96875 870.355469 66.09375 870.480469 66.214844 870.605469 C 66.339844 870.726562 66.464844 870.851562 66.589844 870.976562 C 66.710938 871.101562 66.835938 871.222656 66.960938 871.347656 C 67.085938 871.472656 67.207031 871.597656 67.332031 871.71875 C 67.457031 871.84375 67.578125 871.96875 67.703125 872.09375 C 67.828125 872.214844 67.953125 872.339844 68.074219 872.464844 C 68.199219 872.589844 68.324219 872.710938 68.449219 872.835938 C 68.570312 872.960938 68.695312 873.085938 68.820312 873.207031 C 68.945312 873.332031 69.066406 873.457031 69.191406 873.578125 C 69.316406 873.703125 69.441406 873.828125 69.5625 873.953125 C 69.6875 874.074219 69.8125 874.199219 69.9375 874.324219 C 70.058594 874.449219 70.183594 874.570312 70.308594 874.695312 C 70.433594 874.820312 70.554688 874.945312 70.679688 875.066406 C 70.804688 875.191406 70.929688 875.316406 71.050781 875.441406 C 71.175781 875.5625 71.300781 875.6875 71.425781 875.8125 C 71.546875 875.9375 71.671875 876.058594 71.796875 876.183594 C 71.921875 876.308594 72.042969 876.433594 72.167969 876.554688 C 72.292969 876.679688 72.414062 876.804688 72.539062 876.929688 C 88.660156 893.171875 134.664062 926.898438 159.464844 926.898438 L 347.199219 926.898438 C 328.847656 908.921875 292.886719 858.328125 286.5625 829.0625 Z M 1092.066406 292.640625 C 1091.945312 292.515625 1091.820312 292.390625 1091.570312 292.144531 C 1091.449219 292.019531 1091.324219 291.894531 1091.199219 291.773438 C 1091.074219 291.648438 1090.953125 291.523438 1090.703125 291.277344 C 1090.578125 291.152344 1090.457031 291.027344 1090.332031 290.902344 C 1090.207031 290.78125 1090.085938 290.65625 1089.960938 290.40625 C 1089.835938 290.285156 1089.710938 290.160156 1089.589844 290.035156 C 1089.464844 289.910156 1089.339844 289.789062 1089.09375 289.539062 C 1088.96875 289.414062 1088.84375 289.292969 1088.71875 289.167969 C 1088.597656 289.042969 1088.472656 288.921875 1088.222656 288.671875 C 1088.101562 288.546875 1087.976562 288.425781 1087.851562 288.300781 C 1087.726562 288.175781 1087.605469 288.050781 1087.355469 287.804688 C 1087.230469 287.679688 1087.109375 287.554688 1086.984375 287.433594 C 1086.859375 287.308594 1086.734375 287.183594 1086.613281 286.9375 C 1086.488281 286.8125 1086.363281 286.6875 1086.238281 286.5625 C 1086.117188 286.441406 1085.992188 286.316406 1085.867188 286.191406 C 1085.742188 286.066406 1085.621094 285.945312 1085.496094 285.820312 C 1085.371094 285.695312 1085.246094 285.570312 1085.125 285.449219 C 1085 285.324219 1084.875 285.199219 1084.753906 285.074219 C 1084.628906 284.953125 1084.503906 284.828125 1084.378906 284.578125 C 1084.257812 284.457031 1084.132812 284.332031 1084.007812 284.207031 C 1083.882812 284.085938 1083.761719 283.960938 1083.636719 283.835938 C 1083.511719 283.710938 1083.386719 283.589844 1083.265625 283.464844 C 1083.140625 283.339844 1083.015625 283.214844 1082.890625 283.09375 C 1082.769531 282.96875 1082.644531 282.84375 1082.519531 282.71875 C 1082.394531 282.597656 1082.273438 282.472656 1082.148438 282.222656 C 1082.023438 282.101562 1081.898438 281.976562 1081.777344 281.851562 C 1081.652344 281.726562 1081.527344 281.605469 1081.402344 281.480469 C 1081.28125 281.355469 1081.15625 281.230469 1081.03125 281.109375 C 1080.90625 280.984375 1080.785156 280.859375 1080.660156 280.734375 C 1080.535156 280.613281 1080.410156 280.488281 1080.289062 280.363281 C 1080.164062 280.238281 1080.039062 280.117188 1079.914062 279.992188 C 1079.792969 279.867188 1079.667969 279.742188 1079.542969 279.621094 C 1079.421875 279.496094 1079.296875 279.371094 1079.171875 279.246094 C 1079.046875 279.125 1078.925781 279 1078.800781 278.875 C 1078.675781 278.753906 1078.550781 278.628906 1078.429688 278.503906 C 1078.304688 278.378906 1078.179688 278.257812 1078.054688 278.132812 C 1077.933594 278.007812 1077.808594 277.882812 1077.683594 277.761719 C 1077.558594 277.636719 1077.4375 277.511719 1077.3125 277.386719 C 1077.1875 277.265625 1077.0625 277.140625 1076.941406 277.015625 C 1076.816406 276.890625 1076.691406 276.769531 1076.566406 276.644531 C 1076.445312 276.519531 1076.320312 276.394531 1076.195312 276.273438 C 1076.070312 276.148438 1075.949219 276.023438 1075.824219 275.898438 C 1075.699219 275.777344 1075.574219 275.652344 1075.453125 275.527344 C 1075.328125 275.402344 1075.203125 275.28125 1075.078125 275.15625 C 1074.957031 275.03125 1074.832031 274.90625 1074.707031 274.660156 C 1074.585938 274.535156 1074.460938 274.410156 1074.335938 274.289062 C 1074.210938 274.164062 1074.089844 274.039062 1073.964844 273.914062 C 1073.839844 273.792969 1073.714844 273.667969 1073.46875 273.421875 C 1073.34375 273.296875 1073.21875 273.171875 1073.097656 273.046875 C 1072.972656 272.925781 1072.847656 272.800781 1072.601562 272.550781 C 1072.476562 272.429688 1072.351562 272.304688 1072.226562 272.179688 C 1072.105469 272.054688 1071.980469 271.933594 1071.730469 271.683594 C 1071.609375 271.558594 1071.484375 271.4375 1071.359375 271.3125 C 1071.234375 271.1875 1071.113281 271.0625 1070.863281 270.816406 C 1070.738281 270.691406 1070.617188 270.566406 1070.492188 270.445312 C 1070.367188 270.320312 1070.242188 270.195312 1069.996094 269.949219 C 1069.871094 269.824219 1069.746094 269.699219 1069.625 269.574219 C 1069.5 269.453125 1069.375 269.328125 1069.128906 269.078125 C 1069.003906 268.957031 1068.878906 268.832031 1068.757812 268.707031 C 1068.632812 268.585938 1068.507812 268.460938 1068.261719 268.210938 C 1068.136719 268.089844 1068.011719 267.964844 1067.886719 267.839844 C 1067.765625 267.714844 1067.640625 267.59375 1067.390625 267.34375 C 1067.269531 267.21875 1067.144531 267.097656 1067.019531 266.972656 C 1066.894531 266.847656 1066.773438 266.722656 1066.648438 266.476562 C 1066.523438 266.351562 1066.398438 266.226562 1066.277344 266.105469 C 1066.152344 265.980469 1066.027344 265.855469 1065.78125 265.609375 C 1065.65625 265.484375 1065.53125 265.359375 1065.40625 265.234375 C 1065.285156 265.113281 1065.160156 264.988281 1064.910156 264.738281 C 1064.789062 264.617188 1064.664062 264.492188 1064.539062 264.367188 C 1064.414062 264.242188 1064.292969 264.121094 1064.042969 263.996094 C 1063.921875 263.871094 1063.796875 263.746094 1063.671875 263.625 C 1063.546875 263.5 1063.425781 263.375 1063.175781 263.128906 C 1063.050781 263.003906 1062.929688 262.878906 1062.804688 262.757812 C 1062.679688 262.632812 1062.554688 262.507812 1062.433594 262.261719 C 1062.308594 262.136719 1062.183594 262.011719 1062.058594 261.886719 C 1061.9375 261.765625 1061.8125 261.640625 1061.5625 261.390625 C 1061.441406 261.269531 1061.316406 261.144531 1061.191406 261.019531 C 1061.066406 260.894531 1060.945312 260.773438 1060.695312 260.523438 C 1060.570312 260.398438 1060.449219 260.277344 1060.324219 260.152344 C 1060.199219 260.027344 1060.074219 259.902344 1059.828125 259.65625 C 1059.703125 259.53125 1059.578125 259.40625 1059.457031 259.285156 C 1059.332031 259.160156 1059.207031 259.035156 1059.085938 258.910156 C 1058.960938 258.789062 1058.835938 258.664062 1058.710938 258.539062 C 1058.589844 258.414062 1058.464844 258.292969 1058.339844 258.167969 C 1058.214844 258.042969 1058.09375 257.921875 1057.96875 257.796875 C 1057.84375 257.671875 1057.71875 257.546875 1057.597656 257.425781 C 1057.472656 257.300781 1057.347656 257.175781 1057.222656 257.050781 C 1057.101562 256.929688 1056.976562 256.804688 1056.851562 256.679688 C 1056.726562 256.554688 1056.605469 256.433594 1056.480469 256.308594 C 1056.355469 256.183594 1056.230469 256.058594 1056.109375 255.9375 C 1055.984375 255.8125 1055.859375 255.6875 1055.734375 255.5625 C 1055.613281 255.441406 1055.488281 255.316406 1055.363281 255.191406 C 1055.238281 255.066406 1055.117188 254.945312 1054.992188 254.820312 C 1054.867188 254.695312 1054.742188 254.570312 1054.621094 254.449219 C 1054.496094 254.324219 1054.371094 254.199219 1054.246094 254.074219 C 1054.125 253.953125 1054 253.828125 1053.875 253.703125 C 1053.753906 253.578125 1053.628906 253.457031 1053.503906 253.332031 C 1053.378906 253.207031 1053.257812 253.085938 1053.132812 252.960938 C 1053.007812 252.835938 1052.882812 252.710938 1052.761719 252.589844 C 1052.636719 252.464844 1052.511719 252.339844 1052.386719 252.214844 C 1052.265625 252.09375 1052.140625 251.96875 1052.015625 251.84375 C 1051.890625 251.71875 1051.769531 251.597656 1051.644531 251.472656 C 1051.519531 251.347656 1051.394531 251.222656 1051.273438 251.101562 C 1051.148438 250.976562 1051.023438 250.851562 1050.898438 250.605469 C 1050.777344 250.480469 1050.652344 250.355469 1050.527344 250.230469 C 1050.402344 250.109375 1050.28125 249.984375 1050.15625 249.859375 C 1050.03125 249.734375 1049.90625 249.613281 1049.785156 249.488281 C 1049.660156 249.363281 1049.535156 249.238281 1049.410156 249.117188 C 1049.289062 248.992188 1049.164062 248.867188 1049.039062 248.742188 C 1048.914062 248.621094 1048.792969 248.496094 1048.667969 248.371094 C 1048.542969 248.246094 1048.421875 248.125 1048.296875 248 C 1048.171875 247.875 1048.046875 247.753906 1047.925781 247.628906 C 1047.800781 247.503906 1047.675781 247.378906 1047.550781 247.257812 C 1047.429688 247.132812 1047.304688 247.007812 1047.179688 246.882812 C 1047.054688 246.761719 1046.933594 246.636719 1046.808594 246.511719 C 1046.683594 246.386719 1046.558594 246.265625 1046.4375 246.140625 C 1046.3125 246.015625 1046.1875 245.890625 1045.941406 245.769531 C 1045.816406 245.644531 1045.691406 245.519531 1045.566406 245.394531 C 1045.445312 245.273438 1045.320312 245.148438 1045.070312 244.898438 C 1044.949219 244.777344 1044.824219 244.652344 1044.699219 244.527344 C 1044.574219 244.402344 1044.453125 244.28125 1044.203125 244.03125 C 1044.078125 243.90625 1043.957031 243.785156 1043.832031 243.660156 C 1043.707031 243.535156 1043.585938 243.410156 1043.335938 243.164062 C 1043.210938 243.039062 1043.089844 242.914062 1042.964844 242.792969 C 1042.839844 242.667969 1042.714844 242.542969 1042.46875 242.296875 C 1042.34375 242.171875 1042.21875 242.046875 1042.097656 241.925781 C 1041.972656 241.800781 1041.847656 241.675781 1041.601562 241.429688 C 1041.476562 241.304688 1041.351562 241.179688 1041.226562 241.054688 C 1041.105469 240.933594 1040.980469 240.808594 1040.730469 240.558594 C 1040.609375 240.4375 1040.484375 240.3125 1040.359375 240.1875 C 1040.234375 240.0625 1040.113281 239.941406 1039.863281 239.691406 C 1039.738281 239.566406 1039.617188 239.445312 1039.492188 239.320312 C 1039.367188 239.195312 1039.242188 239.070312 1039.121094 238.824219 C 1038.996094 238.699219 1038.871094 238.574219 1038.746094 238.453125 C 1038.625 238.328125 1038.5 238.203125 1038.253906 237.957031 C 1038.128906 237.832031 1038.003906 237.707031 1037.878906 237.585938 C 1037.757812 237.460938 1037.632812 237.335938 1037.382812 237.089844 C 1037.261719 236.964844 1037.136719 236.839844 1037.011719 236.714844 C 1036.886719 236.59375 1036.765625 236.46875 1036.515625 236.21875 C 1036.390625 236.097656 1036.269531 235.972656 1036.144531 235.847656 C 1036.019531 235.722656 1035.894531 235.601562 1035.648438 235.351562 C 1035.523438 235.226562 1035.398438 235.105469 1035.277344 234.980469 C 1035.152344 234.855469 1035.027344 234.730469 1034.902344 234.484375 C 1034.78125 234.359375 1034.65625 234.234375 1034.53125 234.113281 C 1034.40625 233.988281 1034.285156 233.863281 1034.035156 233.617188 C 1033.910156 233.492188 1033.789062 233.367188 1033.664062 233.242188 C 1033.539062 233.121094 1033.414062 232.996094 1033.167969 232.746094 C 1033.042969 232.625 1032.921875 232.5 1032.796875 232.375 C 1032.671875 232.253906 1032.546875 232.128906 1032.300781 231.878906 C 1032.175781 231.757812 1032.050781 231.632812 1031.929688 231.507812 C 1031.804688 231.382812 1031.679688 231.261719 1031.554688 231.136719 C 1031.433594 231.011719 1031.308594 230.886719 1031.183594 230.765625 C 1031.058594 230.640625 1030.9375 230.515625 1030.8125 230.390625 C 1030.6875 230.269531 1030.5625 230.144531 1030.441406 230.019531 C 1030.316406 229.894531 1030.191406 229.773438 1030.066406 229.648438 C 1029.945312 229.523438 1029.820312 229.398438 1029.695312 229.277344 C 1029.570312 229.152344 1029.449219 229.027344 1029.324219 228.902344 C 1029.199219 228.78125 1029.074219 228.65625 1028.953125 228.53125 C 1028.828125 228.40625 1028.703125 228.285156 1028.578125 228.160156 C 1028.457031 228.035156 1028.332031 227.910156 1028.207031 227.789062 C 1028.085938 227.664062 1027.960938 227.539062 1027.835938 227.414062 C 1027.710938 227.292969 1027.589844 227.167969 1027.464844 227.042969 C 1027.339844 226.921875 1027.214844 226.796875 1027.09375 226.671875 C 1026.96875 226.546875 1026.84375 226.425781 1026.71875 226.300781 C 1026.597656 226.175781 1026.472656 226.050781 1026.347656 225.929688 C 1026.222656 225.804688 1026.222656 225.804688 1026.101562 225.679688 C 1042.714844 250.851562 1052.511719 281.109375 1052.511719 313.472656 C 1052.511719 401.511719 980.839844 473.183594 892.800781 473.183594 C 886.226562 473.183594 879.902344 472.5625 873.578125 471.695312 C 871.96875 481.617188 869.734375 491.164062 866.636719 500.464844 L 976.128906 500.464844 C 1015.808594 500.464844 1053.132812 510.507812 1085.867188 528.238281 C 1120.835938 499.597656 1143.15625 456.070312 1143.15625 407.339844 C 1138.070312 360.097656 1120.464844 320.910156 1092.066406 292.640625 Z M 935.332031 755.78125 C 935.207031 755.65625 934.960938 755.40625 934.835938 755.285156 C 934.710938 755.160156 934.464844 754.910156 934.339844 754.789062 C 934.214844 754.664062 933.96875 754.414062 933.84375 754.292969 C 933.71875 754.167969 933.472656 753.921875 933.347656 753.796875 C 933.222656 753.671875 932.976562 753.425781 932.851562 753.300781 C 932.726562 753.175781 932.480469 752.929688 932.355469 752.804688 C 932.230469 752.679688 931.984375 752.433594 931.859375 752.308594 C 931.734375 752.183594 931.488281 751.9375 931.363281 751.8125 C 931.238281 751.6875 930.992188 751.441406 930.867188 751.316406 C 930.742188 751.191406 930.496094 750.945312 930.371094 750.820312 C 930.246094 750.695312 930 750.449219 929.875 750.324219 C 929.753906 750.199219 929.503906 749.953125 929.378906 749.828125 C 929.257812 749.703125 929.007812 749.457031 928.882812 749.332031 C 928.761719 749.207031 928.511719 748.960938 928.386719 748.835938 C 928.265625 748.710938 928.015625 748.464844 927.890625 748.339844 C 927.769531 748.214844 927.519531 747.96875 927.394531 747.84375 C 927.273438 747.71875 927.023438 747.472656 926.898438 747.347656 C 926.777344 747.222656 926.527344 746.976562 926.402344 746.851562 C 926.28125 746.726562 926.03125 746.480469 925.90625 746.355469 C 925.785156 746.230469 925.535156 745.984375 925.410156 745.859375 C 925.289062 745.734375 925.039062 745.488281 924.914062 745.363281 C 924.792969 745.238281 924.542969 744.992188 924.421875 744.867188 C 924.296875 744.742188 924.046875 744.496094 923.925781 744.371094 C 923.800781 744.246094 923.550781 744 923.429688 743.875 C 923.304688 743.753906 923.054688 743.503906 922.933594 743.378906 C 922.808594 743.257812 922.558594 743.007812 922.4375 742.882812 C 922.3125 742.761719 922.0625 742.511719 921.941406 742.386719 C 921.816406 742.265625 921.566406 742.015625 921.445312 741.890625 C 921.320312 741.769531 921.070312 741.519531 920.949219 741.394531 C 920.824219 741.273438 920.574219 741.023438 920.453125 740.898438 C 920.328125 740.777344 920.078125 740.527344 919.957031 740.402344 C 919.832031 740.28125 919.585938 740.03125 919.460938 739.90625 C 919.335938 739.785156 919.089844 739.535156 918.964844 739.410156 C 918.839844 739.289062 918.59375 739.039062 918.46875 738.914062 C 918.34375 738.792969 918.097656 738.542969 917.972656 738.421875 C 917.847656 738.296875 917.601562 738.046875 917.476562 737.925781 C 917.351562 737.800781 917.105469 737.550781 916.980469 737.429688 C 916.855469 737.304688 916.609375 737.054688 916.484375 736.933594 C 916.359375 736.808594 916.113281 736.558594 915.988281 736.4375 C 915.863281 736.3125 915.617188 736.0625 915.492188 735.941406 C 915.367188 735.816406 915.121094 735.566406 914.996094 735.445312 C 914.871094 735.320312 914.625 735.070312 914.5 734.949219 C 914.375 734.824219 914.128906 734.574219 914.003906 734.453125 C 913.878906 734.328125 913.632812 734.078125 913.507812 733.957031 C 913.382812 733.832031 913.136719 733.585938 913.011719 733.460938 C 912.886719 733.335938 912.640625 733.089844 912.515625 732.964844 C 912.390625 732.839844 912.144531 732.59375 912.019531 732.46875 C 911.894531 732.34375 911.648438 732.097656 911.523438 731.972656 C 911.398438 731.847656 911.152344 731.601562 911.027344 731.476562 C 910.902344 731.351562 910.65625 731.105469 910.53125 730.980469 C 910.40625 730.855469 910.160156 730.609375 910.035156 730.484375 C 909.910156 730.359375 909.664062 730.113281 909.539062 729.988281 C 909.414062 729.863281 909.167969 729.617188 909.042969 729.492188 C 908.921875 729.367188 908.671875 729.121094 908.546875 728.996094 C 908.425781 728.871094 908.175781 728.625 908.050781 728.5 C 907.929688 728.375 907.679688 728.128906 907.554688 728.003906 C 907.433594 727.878906 907.183594 727.632812 907.058594 727.507812 C 906.9375 727.382812 906.6875 727.136719 906.5625 727.011719 C 906.441406 726.886719 906.191406 726.640625 906.066406 726.515625 C 905.945312 726.390625 905.695312 726.144531 905.570312 726.019531 C 905.449219 725.894531 905.199219 725.648438 905.074219 725.523438 C 904.953125 725.398438 904.703125 725.152344 904.578125 725.027344 C 904.457031 724.902344 904.207031 724.65625 904.085938 724.53125 C 903.960938 724.40625 903.710938 724.160156 903.589844 724.035156 C 903.464844 723.910156 903.214844 723.664062 903.09375 723.539062 C 902.96875 723.414062 902.71875 723.167969 902.597656 723.042969 C 902.472656 722.921875 902.222656 722.671875 902.101562 722.546875 C 901.976562 722.425781 901.726562 722.175781 901.605469 722.050781 C 901.480469 721.929688 901.230469 721.679688 901.109375 721.554688 C 900.984375 721.433594 900.734375 721.183594 900.613281 721.058594 C 900.488281 720.9375 900.238281 720.6875 900.117188 720.5625 C 899.992188 720.441406 899.742188 720.191406 899.621094 720.066406 C 899.496094 719.945312 899.246094 719.695312 899.125 719.570312 C 899 719.449219 898.753906 719.199219 898.628906 719.074219 C 898.503906 718.953125 898.257812 718.703125 898.132812 718.578125 C 898.007812 718.457031 897.761719 718.207031 897.636719 718.085938 C 897.511719 717.960938 897.265625 717.710938 897.140625 717.589844 C 897.015625 717.464844 896.769531 717.214844 896.644531 717.09375 C 896.519531 716.96875 896.273438 716.71875 896.148438 716.597656 C 896.023438 716.472656 895.777344 716.222656 895.652344 716.101562 C 895.527344 715.976562 895.28125 715.726562 895.15625 715.605469 C 895.03125 715.480469 894.785156 715.230469 894.660156 715.109375 C 894.535156 714.984375 894.289062 714.734375 894.164062 714.613281 C 894.039062 714.488281 893.792969 714.238281 893.667969 714.117188 C 893.542969 713.992188 893.296875 713.742188 893.171875 713.621094 C 893.046875 713.496094 892.800781 713.246094 892.675781 713.125 C 892.550781 713 892.304688 712.753906 892.179688 712.628906 C 892.054688 712.503906 891.808594 712.257812 891.683594 712.132812 C 891.558594 712.007812 891.3125 711.761719 891.1875 711.636719 C 891.0625 711.511719 890.816406 711.265625 890.691406 711.140625 C 890.566406 711.015625 890.320312 710.769531 890.195312 710.644531 C 890.070312 710.519531 889.824219 710.273438 889.699219 710.148438 C 889.574219 710.023438 889.328125 709.777344 889.203125 709.652344 C 889.078125 709.527344 888.832031 709.28125 888.707031 709.15625 C 888.585938 709.03125 888.335938 708.785156 888.210938 708.660156 C 888.089844 708.535156 887.839844 708.289062 887.714844 708.164062 C 887.59375 708.039062 887.34375 707.792969 887.21875 707.667969 C 887.097656 707.542969 886.847656 707.296875 886.722656 707.171875 C 886.601562 707.046875 886.351562 706.800781 886.226562 706.675781 C 886.105469 706.550781 885.855469 706.304688 885.730469 706.179688 C 885.609375 706.054688 885.359375 705.808594 885.234375 705.683594 C 885.113281 705.558594 884.863281 705.3125 884.738281 705.1875 C 884.617188 705.0625 884.367188 704.816406 884.242188 704.691406 C 884.121094 704.566406 883.871094 704.320312 883.746094 704.195312 C 883.625 704.070312 883.375 703.824219 883.253906 703.699219 C 883.128906 703.574219 882.878906 703.328125 882.757812 703.203125 C 882.632812 703.078125 882.382812 702.832031 882.261719 702.707031 C 882.136719 702.585938 881.886719 702.335938 881.765625 702.210938 C 881.640625 702.089844 881.390625 701.839844 881.269531 701.714844 C 881.144531 701.59375 880.894531 701.34375 880.773438 701.21875 C 880.648438 701.097656 880.398438 700.847656 880.277344 700.722656 C 880.152344 700.601562 879.902344 700.351562 879.78125 700.226562 C 879.65625 700.105469 879.40625 699.855469 879.285156 699.730469 C 879.160156 699.609375 878.910156 699.359375 878.789062 699.234375 C 878.664062 699.113281 878.414062 698.863281 878.292969 698.738281 C 878.167969 698.617188 877.921875 698.367188 877.796875 698.242188 C 877.671875 698.121094 877.425781 697.871094 877.300781 697.746094 C 877.175781 697.625 876.929688 697.375 876.804688 697.253906 C 876.679688 697.128906 876.433594 696.878906 876.308594 696.757812 C 876.183594 696.632812 875.9375 696.382812 875.8125 696.261719 C 875.6875 696.136719 875.441406 695.886719 875.316406 695.765625 C 875.191406 695.640625 874.945312 695.390625 874.820312 695.269531 C 874.695312 695.144531 874.449219 694.894531 874.324219 694.773438 C 874.199219 694.648438 873.953125 694.398438 873.828125 694.277344 C 873.703125 694.152344 873.457031 693.902344 873.332031 693.78125 C 873.207031 693.65625 872.960938 693.40625 872.835938 693.285156 C 872.710938 693.160156 872.464844 692.910156 872.339844 692.789062 C 872.214844 692.664062 871.96875 692.414062 871.84375 692.292969 C 871.71875 692.167969 871.472656 691.921875 871.347656 691.796875 C 871.222656 691.671875 870.976562 691.425781 870.851562 691.300781 C 870.726562 691.175781 870.480469 690.929688 870.355469 690.804688 C 870.230469 690.679688 869.984375 690.433594 869.859375 690.308594 C 869.734375 690.183594 869.488281 689.9375 869.363281 689.8125 C 869.238281 689.6875 868.992188 689.441406 868.867188 689.316406 C 868.742188 689.191406 868.496094 688.945312 868.371094 688.820312 C 868.246094 688.695312 868 688.449219 867.875 688.324219 C 867.753906 688.199219 867.503906 687.953125 867.378906 687.828125 C 867.257812 687.703125 867.007812 687.457031 866.882812 687.332031 C 866.761719 687.207031 866.511719 686.960938 866.386719 686.835938 C 866.265625 686.710938 866.015625 686.464844 865.890625 686.339844 C 865.769531 686.214844 865.519531 685.96875 865.394531 685.84375 C 865.273438 685.71875 865.023438 685.472656 864.898438 685.347656 C 864.777344 685.222656 864.527344 684.976562 864.402344 684.851562 C 864.28125 684.726562 864.03125 684.480469 863.90625 684.355469 C 863.785156 684.230469 863.535156 683.984375 863.410156 683.859375 C 863.289062 683.734375 863.039062 683.488281 862.914062 683.363281 C 862.792969 683.238281 862.542969 682.992188 862.421875 682.867188 C 862.296875 682.742188 862.046875 682.496094 861.925781 682.371094 C 861.800781 682.246094 861.550781 682 861.429688 681.875 C 861.304688 681.753906 861.054688 681.503906 860.933594 681.378906 C 860.808594 681.257812 860.558594 681.007812 860.4375 680.882812 C 860.3125 680.761719 860.0625 680.511719 859.941406 680.386719 C 859.816406 680.265625 859.566406 680.015625 859.445312 679.890625 C 859.320312 679.769531 859.070312 679.519531 858.949219 679.394531 C 858.824219 679.273438 858.574219 679.023438 858.453125 678.898438 C 858.453125 678.898438 858.328125 678.777344 858.328125 678.777344 C 890.070312 723.292969 890.566406 777.726562 890.566406 836.503906 C 890.566406 896.644531 841.589844 945.625 781.449219 945.625 L 403.992188 945.625 C 384.277344 945.625 365.925781 940.292969 349.929688 931.117188 C 349.929688 931.117188 350.050781 931.238281 350.050781 931.238281 C 350.175781 931.363281 350.425781 931.613281 350.546875 931.734375 C 350.671875 931.859375 350.921875 932.109375 351.042969 932.230469 C 351.167969 932.355469 351.414062 932.605469 351.539062 932.726562 C 351.664062 932.851562 351.910156 933.101562 352.035156 933.222656 C 352.160156 933.347656 352.40625 933.597656 352.53125 933.71875 C 352.65625 933.84375 352.902344 934.09375 353.027344 934.214844 C 353.152344 934.339844 353.398438 934.589844 353.523438 934.710938 C 353.648438 934.835938 353.894531 935.085938 354.019531 935.207031 C 354.144531 935.332031 354.390625 935.578125 354.515625 935.703125 C 354.640625 935.828125 354.886719 936.074219 355.011719 936.199219 C 355.136719 936.324219 355.382812 936.570312 355.507812 936.695312 C 355.632812 936.820312 355.878906 937.066406 356.003906 937.191406 C 356.128906 937.316406 356.375 937.5625 356.5 937.6875 C 356.625 937.8125 356.871094 938.058594 356.996094 938.183594 C 357.121094 938.308594 357.367188 938.554688 357.492188 938.679688 C 357.617188 938.804688 357.863281 939.050781 357.988281 939.175781 C 358.113281 939.300781 358.359375 939.546875 358.484375 939.671875 C 358.609375 939.796875 358.855469 940.042969 358.980469 940.167969 C 359.105469 940.292969 359.351562 940.539062 359.476562 940.664062 C 359.601562 940.789062 359.847656 941.035156 359.972656 941.160156 C 360.097656 941.285156 360.34375 941.53125 360.46875 941.65625 C 360.59375 941.78125 360.839844 942.027344 360.964844 942.152344 C 361.089844 942.277344 361.335938 942.523438 361.460938 942.648438 C 361.585938 942.773438 361.832031 943.019531 361.957031 943.144531 C 362.078125 943.269531 362.328125 943.515625 362.453125 943.640625 C 362.574219 943.765625 362.824219 944.011719 362.949219 944.136719 C 363.070312 944.261719 363.320312 944.507812 363.445312 944.632812 C 363.566406 944.757812 363.816406 945.003906 363.941406 945.128906 C 364.0625 945.253906 364.3125 945.5 364.4375 945.625 C 364.558594 945.746094 364.808594 945.996094 364.933594 946.121094 C 365.054688 946.242188 365.304688 946.492188 365.429688 946.617188 C 365.550781 946.738281 365.800781 946.988281 365.925781 947.113281 C 366.046875 947.234375 366.296875 947.484375 366.421875 947.609375 C 366.542969 947.730469 366.792969 947.980469 366.914062 948.105469 C 367.039062 948.226562 367.289062 948.476562 367.410156 948.601562 C 367.535156 948.722656 367.785156 948.972656 367.90625 949.097656 C 368.03125 949.21875 368.28125 949.46875 368.402344 949.59375 C 368.527344 949.714844 368.777344 949.964844 368.898438 950.089844 C 369.023438 950.210938 369.273438 950.460938 369.394531 950.585938 C 369.519531 950.707031 369.769531 950.957031 369.890625 951.078125 C 370.015625 951.203125 370.265625 951.453125 370.386719 951.574219 C 370.511719 951.699219 370.761719 951.949219 370.882812 952.070312 C 371.007812 952.195312 371.257812 952.445312 371.378906 952.566406 C 371.503906 952.691406 371.753906 952.941406 371.875 953.0625 C 372 953.1875 372.246094 953.4375 372.371094 953.558594 C 372.496094 953.683594 372.742188 953.933594 372.867188 954.054688 C 372.992188 954.179688 373.238281 954.429688 373.363281 954.550781 C 373.488281 954.675781 373.734375 954.925781 373.859375 955.046875 C 373.984375 955.171875 374.230469 955.421875 374.355469 955.542969 C 374.480469 955.667969 374.726562 955.914062 374.851562 956.039062 C 374.976562 956.164062 375.222656 956.410156 375.347656 956.535156 C 375.472656 956.660156 375.71875 956.90625 375.84375 957.03125 C 375.96875 957.15625 376.214844 957.402344 376.339844 957.527344 C 376.464844 957.652344 376.710938 957.898438 376.835938 958.023438 C 376.960938 958.148438 377.207031 958.394531 377.332031 958.519531 C 377.457031 958.644531 377.703125 958.890625 377.828125 959.015625 C 377.953125 959.140625 378.199219 959.386719 378.324219 959.511719 C 378.449219 959.636719 378.695312 959.882812 378.820312 960.007812 C 378.945312 960.132812 379.191406 960.378906 379.316406 960.503906 C 379.441406 960.628906 379.6875 960.875 379.8125 961 C 379.9375 961.125 380.183594 961.371094 380.308594 961.496094 C 380.433594 961.621094 380.679688 961.867188 380.804688 961.992188 C 380.929688 962.117188 381.175781 962.363281 381.300781 962.488281 C 381.425781 962.613281 381.671875 962.859375 381.796875 962.984375 C 381.921875 963.109375 382.167969 963.355469 382.292969 963.480469 C 382.414062 963.605469 382.664062 963.851562 382.789062 963.976562 C 382.910156 964.101562 383.160156 964.347656 383.285156 964.472656 C 383.40625 964.597656 383.65625 964.84375 383.78125 964.96875 C 383.902344 965.09375 384.152344 965.339844 384.277344 965.464844 C 384.398438 965.589844 384.648438 965.835938 384.773438 965.960938 C 384.894531 966.085938 385.144531 966.332031 385.269531 966.457031 C 385.390625 966.578125 385.640625 966.828125 385.765625 966.953125 C 385.886719 967.074219 386.136719 967.324219 386.261719 967.449219 C 386.382812 967.570312 386.632812 967.820312 386.757812 967.945312 C 386.878906 968.066406 387.128906 968.316406 387.253906 968.441406 C 387.375 968.5625 387.625 968.8125 387.746094 968.9375 C 387.871094 969.058594 388.121094 969.308594 388.242188 969.433594 C 388.367188 969.554688 388.617188 969.804688 388.738281 969.929688 C 388.863281 970.050781 389.113281 970.300781 389.234375 970.425781 C 389.359375 970.546875 389.609375 970.796875 389.730469 970.921875 C 389.855469 971.042969 390.105469 971.292969 390.226562 971.414062 C 390.351562 971.539062 390.601562 971.789062 390.722656 971.910156 C 390.847656 972.035156 391.097656 972.285156 391.21875 972.40625 C 391.34375 972.53125 391.59375 972.78125 391.714844 972.902344 C 391.839844 973.027344 392.089844 973.277344 392.210938 973.398438 C 392.335938 973.523438 392.585938 973.773438 392.707031 973.894531 C 392.832031 974.019531 393.078125 974.269531 393.203125 974.390625 C 393.328125 974.515625 393.574219 974.765625 393.699219 974.886719 C 393.824219 975.011719 394.070312 975.261719 394.195312 975.382812 C 394.320312 975.507812 394.566406 975.757812 394.691406 975.878906 C 394.816406 976.003906 395.0625 976.253906 395.1875 976.375 C 395.3125 976.5 395.558594 976.746094 395.683594 976.871094 C 395.808594 976.996094 396.054688 977.242188 396.179688 977.367188 C 396.304688 977.492188 396.550781 977.738281 396.675781 977.863281 C 396.800781 977.988281 397.046875 978.234375 397.171875 978.359375 C 397.296875 978.484375 397.542969 978.730469 397.667969 978.855469 C 397.792969 978.980469 398.039062 979.226562 398.164062 979.351562 C 398.289062 979.476562 398.535156 979.722656 398.660156 979.847656 C 398.785156 979.972656 399.03125 980.21875 399.15625 980.34375 C 399.28125 980.46875 399.527344 980.714844 399.652344 980.839844 C 399.777344 980.964844 400.023438 981.210938 400.148438 981.335938 C 400.273438 981.460938 400.519531 981.707031 400.644531 981.832031 C 400.769531 981.957031 401.015625 982.203125 401.140625 982.328125 C 401.265625 982.453125 401.511719 982.699219 401.636719 982.824219 C 401.761719 982.949219 402.007812 983.195312 402.132812 983.320312 C 402.257812 983.445312 402.503906 983.691406 402.628906 983.816406 C 402.753906 983.941406 403 984.1875 403.125 984.3125 C 403.246094 984.4375 403.496094 984.683594 403.621094 984.808594 C 403.742188 984.933594 403.992188 985.179688 404.117188 985.304688 C 404.238281 985.429688 404.488281 985.675781 404.613281 985.800781 C 404.734375 985.925781 404.984375 986.171875 405.109375 986.296875 C 405.230469 986.421875 405.480469 986.667969 405.605469 986.792969 C 405.726562 986.914062 405.976562 987.164062 406.101562 987.289062 C 406.222656 987.410156 406.472656 987.660156 406.597656 987.785156 C 406.71875 987.90625 406.96875 988.15625 407.09375 988.28125 C 407.214844 988.402344 407.464844 988.652344 407.589844 988.777344 C 407.710938 988.898438 407.960938 989.148438 408.085938 989.273438 C 408.207031 989.394531 408.457031 989.644531 408.578125 989.769531 C 408.703125 989.890625 408.953125 990.140625 409.074219 990.265625 C 409.199219 990.386719 409.449219 990.636719 409.570312 990.761719 C 409.695312 990.882812 409.945312 991.132812 410.066406 991.257812 C 410.191406 991.378906 410.441406 991.628906 410.5625 991.753906 C 410.6875 991.875 410.9375 992.125 411.058594 992.246094 C 411.183594 992.371094 411.433594 992.621094 411.554688 992.742188 C 411.679688 992.867188 411.929688 993.117188 412.050781 993.238281 C 412.175781 993.363281 412.425781 993.613281 412.546875 993.734375 C 412.671875 993.859375 412.921875 994.109375 413.042969 994.230469 C 413.167969 994.355469 413.414062 994.605469 413.539062 994.726562 C 413.664062 994.851562 413.910156 995.101562 414.035156 995.222656 C 414.160156 995.347656 414.40625 995.597656 414.53125 995.71875 C 414.65625 995.84375 414.902344 996.09375 415.027344 996.214844 C 415.152344 996.339844 415.398438 996.589844 415.523438 996.710938 C 415.648438 996.835938 415.894531 997.085938 416.019531 997.207031 C 416.144531 997.332031 416.390625 997.578125 416.515625 997.703125 C 416.640625 997.828125 416.886719 998.074219 417.011719 998.199219 C 417.136719 998.324219 417.382812 998.570312 417.507812 998.695312 C 417.632812 998.820312 417.878906 999.066406 418.003906 999.191406 C 418.128906 999.316406 418.375 999.5625 418.5 999.6875 C 418.625 999.8125 418.871094 1000.058594 418.996094 1000.183594 C 419.121094 1000.308594 419.367188 1000.554688 419.492188 1000.679688 C 419.617188 1000.804688 419.863281 1001.050781 419.988281 1001.175781 C 420.113281 1001.300781 420.359375 1001.546875 420.484375 1001.671875 C 420.609375 1001.796875 420.855469 1002.042969 420.980469 1002.167969 C 421.105469 1002.292969 421.351562 1002.539062 421.476562 1002.664062 C 421.601562 1002.789062 421.847656 1003.035156 421.972656 1003.160156 C 422.097656 1003.285156 422.34375 1003.53125 422.46875 1003.65625 C 422.59375 1003.78125 422.839844 1004.027344 422.964844 1004.152344 C 423.089844 1004.277344 423.335938 1004.523438 423.460938 1004.648438 C 423.585938 1004.773438 423.832031 1005.019531 423.957031 1005.144531 C 424.078125 1005.269531 424.328125 1005.515625 424.453125 1005.640625 C 424.574219 1005.765625 424.824219 1006.011719 424.949219 1006.136719 C 425.070312 1006.261719 425.320312 1006.507812 425.445312 1006.632812 C 425.566406 1006.757812 425.816406 1007.003906 425.941406 1007.128906 C 426.0625 1007.253906 426.3125 1007.5 426.4375 1007.625 C 426.558594 1007.746094 426.808594 1007.996094 426.933594 1008.121094 C 427.054688 1008.242188 427.304688 1008.492188 427.429688 1008.617188 C 427.550781 1008.738281 427.800781 1008.988281 427.925781 1009.113281 C 428.046875 1009.234375 428.296875 1009.484375 428.421875 1009.609375 C 428.542969 1009.730469 428.792969 1009.980469 428.914062 1010.105469 C 429.039062 1010.226562 429.289062 1010.476562 429.410156 1010.601562 C 429.535156 1010.722656 429.785156 1010.972656 429.90625 1011.097656 C 430.03125 1011.21875 430.28125 1011.46875 430.402344 1011.59375 C 430.527344 1011.714844 430.777344 1011.964844 430.898438 1012.089844 C 431.023438 1012.210938 431.273438 1012.460938 431.394531 1012.585938 C 431.519531 1012.707031 431.769531 1012.957031 431.890625 1013.078125 C 432.015625 1013.203125 432.265625 1013.453125 432.386719 1013.574219 C 432.511719 1013.699219 432.761719 1013.949219 432.882812 1014.070312 C 433.007812 1014.195312 433.257812 1014.445312 433.378906 1014.566406 C 433.503906 1014.691406 433.753906 1014.941406 433.875 1015.0625 C 434 1015.1875 434.246094 1015.4375 434.371094 1015.558594 C 434.496094 1015.683594 434.742188 1015.933594 434.867188 1016.054688 C 434.992188 1016.179688 435.238281 1016.429688 435.363281 1016.550781 C 435.488281 1016.675781 435.734375 1016.925781 435.859375 1017.046875 C 435.984375 1017.171875 436.230469 1017.421875 436.355469 1017.542969 C 436.480469 1017.667969 436.726562 1017.914062 436.851562 1018.039062 C 436.976562 1018.164062 437.222656 1018.410156 437.347656 1018.535156 C 437.472656 1018.660156 437.71875 1018.90625 437.84375 1019.03125 C 437.96875 1019.15625 438.214844 1019.402344 438.339844 1019.527344 C 457.4375 1038.746094 483.847656 1074.210938 512.988281 1074.210938 L 888.957031 1074.210938 C 947.113281 1074.210938 983.691406 994.976562 994.109375 945.375 C 1010.105469 878.910156 984.0625 804.386719 935.332031 755.78125 Z M 1190.398438 656.578125 C 1190.277344 656.457031 1190.152344 656.332031 1190.027344 656.207031 C 1189.902344 656.085938 1189.78125 655.960938 1189.65625 655.835938 C 1189.53125 655.710938 1189.40625 655.589844 1189.285156 655.464844 C 1189.160156 655.339844 1189.035156 655.214844 1188.910156 655.09375 C 1188.789062 654.96875 1188.664062 654.84375 1188.539062 654.71875 C 1188.414062 654.597656 1188.292969 654.472656 1188.167969 654.347656 C 1188.042969 654.222656 1187.921875 654.101562 1187.796875 653.976562 C 1187.671875 653.851562 1187.546875 653.726562 1187.425781 653.480469 C 1187.300781 653.355469 1187.175781 653.230469 1187.050781 653.109375 C 1186.929688 652.984375 1186.804688 652.859375 1186.679688 652.734375 C 1186.554688 652.613281 1186.433594 652.488281 1186.308594 652.363281 C 1186.183594 652.238281 1186.058594 652.117188 1185.8125 651.992188 C 1185.6875 651.867188 1185.5625 651.742188 1185.441406 651.621094 C 1185.316406 651.496094 1185.191406 651.371094 1184.945312 651.246094 C 1184.820312 651.125 1184.695312 651 1184.570312 650.875 C 1184.449219 650.753906 1184.324219 650.628906 1184.074219 650.378906 C 1183.953125 650.257812 1183.828125 650.132812 1183.703125 650.007812 C 1183.578125 649.882812 1183.457031 649.761719 1183.207031 649.511719 C 1183.085938 649.386719 1182.960938 649.265625 1182.835938 649.140625 C 1182.710938 649.015625 1182.589844 648.890625 1182.464844 648.644531 C 1182.339844 648.519531 1182.214844 648.394531 1182.09375 648.273438 C 1181.96875 648.148438 1181.84375 648.023438 1181.597656 647.777344 C 1181.472656 647.652344 1181.347656 647.527344 1181.222656 647.402344 C 1181.101562 647.28125 1180.976562 647.15625 1180.726562 647.03125 C 1180.605469 646.90625 1180.480469 646.785156 1180.355469 646.660156 C 1180.230469 646.535156 1180.109375 646.410156 1179.859375 646.289062 C 1179.734375 646.164062 1179.613281 646.039062 1179.488281 645.914062 C 1179.363281 645.792969 1179.238281 645.667969 1178.992188 645.421875 C 1178.867188 645.296875 1178.742188 645.171875 1178.621094 645.046875 C 1178.496094 644.925781 1178.371094 644.800781 1178.125 644.550781 C 1178 644.429688 1177.875 644.304688 1177.753906 644.179688 C 1177.628906 644.054688 1177.503906 643.933594 1177.257812 643.683594 C 1177.132812 643.558594 1177.007812 643.4375 1176.882812 643.3125 C 1176.761719 643.1875 1176.636719 643.0625 1176.386719 642.816406 C 1176.265625 642.691406 1176.140625 642.566406 1176.015625 642.445312 C 1175.890625 642.320312 1175.769531 642.195312 1175.519531 642.070312 C 1175.394531 641.949219 1175.273438 641.824219 1175.148438 641.699219 C 1175.023438 641.574219 1174.898438 641.453125 1174.652344 641.328125 C 1174.527344 641.203125 1174.402344 641.078125 1174.28125 640.957031 C 1174.15625 640.832031 1174.03125 640.707031 1173.785156 640.460938 C 1173.660156 640.335938 1173.535156 640.210938 1173.410156 640.089844 C 1173.289062 639.964844 1173.164062 639.839844 1173.039062 639.714844 C 1172.914062 639.59375 1172.792969 639.46875 1172.667969 639.34375 C 1172.542969 639.21875 1172.421875 639.097656 1172.296875 638.972656 C 1172.171875 638.847656 1172.046875 638.722656 1171.925781 638.601562 C 1171.800781 638.476562 1171.675781 638.351562 1171.550781 638.226562 C 1171.429688 638.105469 1171.304688 637.980469 1171.179688 637.855469 C 1171.054688 637.730469 1170.933594 637.609375 1170.808594 637.484375 C 1170.683594 637.359375 1170.558594 637.234375 1170.4375 637.113281 C 1170.3125 636.988281 1170.1875 636.863281 1170.0625 636.738281 C 1169.941406 636.617188 1169.816406 636.492188 1169.691406 636.367188 C 1169.566406 636.242188 1169.445312 636.121094 1169.320312 635.996094 C 1169.195312 635.871094 1169.070312 635.746094 1168.949219 635.625 C 1168.824219 635.5 1168.699219 635.375 1168.574219 635.253906 C 1168.453125 635.128906 1168.328125 635.003906 1168.203125 634.878906 C 1168.078125 634.757812 1167.957031 634.632812 1167.832031 634.507812 C 1167.707031 634.382812 1167.585938 634.261719 1167.460938 634.136719 C 1167.335938 634.011719 1167.210938 633.886719 1167.089844 633.765625 C 1166.964844 633.640625 1166.839844 633.515625 1166.714844 633.390625 C 1166.59375 633.269531 1166.46875 633.144531 1166.34375 633.019531 C 1166.21875 632.894531 1166.097656 632.773438 1165.972656 632.648438 C 1165.847656 632.523438 1165.722656 632.398438 1165.601562 632.277344 C 1165.476562 632.152344 1165.351562 632.027344 1165.226562 631.902344 C 1165.105469 631.78125 1164.980469 631.65625 1164.855469 631.53125 C 1164.730469 631.40625 1164.609375 631.285156 1164.484375 631.160156 C 1164.359375 631.035156 1164.234375 630.910156 1164.113281 630.789062 C 1163.988281 630.664062 1163.863281 630.539062 1163.738281 630.292969 C 1163.617188 630.167969 1163.492188 630.042969 1163.367188 629.921875 C 1163.242188 629.796875 1163.121094 629.671875 1162.996094 629.546875 C 1162.871094 629.425781 1162.746094 629.300781 1162.625 629.175781 C 1162.5 629.050781 1162.375 628.929688 1162.253906 628.804688 C 1162.128906 628.679688 1162.003906 628.554688 1161.878906 628.433594 C 1161.757812 628.308594 1161.632812 628.183594 1161.507812 628.058594 C 1161.382812 627.9375 1161.261719 627.8125 1161.136719 627.6875 C 1161.011719 627.5625 1160.886719 627.441406 1160.765625 627.316406 C 1160.640625 627.191406 1160.515625 627.066406 1160.390625 626.945312 C 1160.269531 626.820312 1160.144531 626.695312 1160.019531 626.570312 C 1159.894531 626.449219 1159.773438 626.324219 1159.648438 626.199219 C 1159.523438 626.074219 1159.398438 625.953125 1159.277344 625.828125 C 1159.152344 625.703125 1159.027344 625.578125 1158.902344 625.457031 C 1158.78125 625.332031 1158.65625 625.207031 1158.40625 625.085938 C 1158.285156 624.960938 1158.160156 624.835938 1158.035156 624.710938 C 1157.910156 624.589844 1157.789062 624.464844 1157.539062 624.214844 C 1157.414062 624.09375 1157.292969 623.96875 1157.167969 623.84375 C 1157.042969 623.71875 1156.921875 623.597656 1156.671875 623.347656 C 1156.546875 623.222656 1156.425781 623.101562 1156.300781 622.976562 C 1156.175781 622.851562 1156.050781 622.726562 1155.804688 622.480469 C 1155.679688 622.355469 1155.554688 622.230469 1155.433594 622.109375 C 1155.308594 621.984375 1155.183594 621.859375 1155.058594 621.613281 C 1154.9375 621.488281 1154.8125 621.363281 1154.6875 621.238281 C 1154.5625 621.117188 1154.441406 620.992188 1154.191406 620.867188 C 1154.066406 620.742188 1153.945312 620.621094 1153.820312 620.496094 C 1153.695312 620.371094 1153.570312 620.246094 1153.324219 620 C 1153.199219 619.875 1153.074219 619.753906 1152.953125 619.628906 C 1152.828125 619.503906 1152.703125 619.378906 1152.457031 619.132812 C 1152.332031 619.007812 1152.207031 618.882812 1152.085938 618.761719 C 1151.960938 618.636719 1151.835938 618.511719 1151.589844 618.265625 C 1151.464844 618.140625 1151.339844 618.015625 1151.214844 617.890625 C 1151.09375 617.769531 1150.96875 617.644531 1150.71875 617.394531 C 1150.597656 617.273438 1150.472656 617.148438 1150.347656 617.023438 C 1150.222656 616.898438 1150.101562 616.777344 1149.851562 616.652344 C 1149.726562 616.527344 1149.605469 616.402344 1149.480469 616.28125 C 1149.355469 616.15625 1149.230469 616.03125 1148.984375 615.785156 C 1148.859375 615.660156 1148.734375 615.535156 1148.613281 615.410156 C 1148.488281 615.289062 1148.363281 615.164062 1148.117188 614.914062 C 1147.992188 614.792969 1147.867188 614.667969 1147.742188 614.542969 C 1147.621094 614.421875 1147.496094 614.296875 1147.246094 614.046875 C 1147.125 613.925781 1147 613.800781 1146.875 613.675781 C 1146.753906 613.550781 1146.628906 613.429688 1146.378906 613.179688 C 1146.257812 613.054688 1146.132812 612.933594 1146.007812 612.808594 C 1145.882812 612.683594 1145.761719 612.558594 1145.636719 612.4375 C 1145.511719 612.3125 1145.386719 612.1875 1145.265625 612.0625 C 1145.140625 611.941406 1145.015625 611.816406 1144.890625 611.691406 C 1144.769531 611.566406 1144.644531 611.445312 1144.519531 611.195312 C 1144.394531 611.070312 1144.273438 610.949219 1144.148438 610.824219 C 1144.023438 610.699219 1143.898438 610.574219 1143.777344 610.453125 C 1143.652344 610.328125 1143.527344 610.203125 1143.402344 610.078125 C 1143.28125 609.957031 1143.15625 609.832031 1143.03125 609.707031 C 1142.90625 609.585938 1142.785156 609.460938 1142.660156 609.335938 C 1142.535156 609.210938 1142.410156 609.089844 1142.289062 608.964844 C 1142.164062 608.839844 1142.039062 608.714844 1141.914062 608.59375 C 1141.792969 608.46875 1141.667969 608.34375 1141.542969 608.21875 C 1141.421875 608.097656 1141.296875 607.972656 1141.171875 607.847656 C 1141.046875 607.722656 1140.925781 607.601562 1140.800781 607.476562 C 1140.675781 607.351562 1140.550781 607.226562 1140.429688 607.105469 C 1140.304688 606.980469 1140.179688 606.855469 1140.054688 606.609375 C 1139.933594 606.484375 1139.808594 606.359375 1139.683594 606.234375 C 1139.558594 606.113281 1139.4375 605.988281 1139.3125 605.863281 C 1139.1875 605.738281 1139.0625 605.617188 1138.941406 605.492188 C 1138.816406 605.367188 1138.691406 605.242188 1138.566406 605.121094 C 1138.445312 604.996094 1138.320312 604.871094 1138.195312 604.746094 C 1138.070312 604.625 1137.949219 604.5 1137.824219 604.375 C 1137.699219 604.253906 1137.574219 604.128906 1137.453125 604.003906 C 1137.328125 603.878906 1137.203125 603.757812 1137.078125 603.632812 C 1136.957031 603.507812 1136.832031 603.382812 1136.707031 603.261719 C 1136.585938 603.136719 1136.460938 603.011719 1136.335938 602.886719 C 1136.210938 602.765625 1136.089844 602.640625 1135.964844 602.515625 C 1135.839844 602.390625 1135.714844 602.269531 1135.59375 602.144531 C 1135.46875 602.019531 1135.34375 601.894531 1135.21875 601.773438 C 1135.097656 601.648438 1134.972656 601.523438 1134.847656 601.398438 C 1134.722656 601.277344 1134.601562 601.152344 1134.476562 601.027344 C 1134.351562 600.902344 1134.226562 600.78125 1134.105469 600.65625 C 1133.980469 600.53125 1133.855469 600.40625 1133.730469 600.285156 C 1133.609375 600.160156 1133.484375 600.035156 1133.359375 599.910156 C 1133.234375 599.789062 1133.113281 599.664062 1132.988281 599.539062 C 1132.863281 599.414062 1132.738281 599.292969 1132.617188 599.167969 C 1132.492188 599.042969 1132.367188 598.921875 1132.242188 598.796875 C 1132.121094 598.671875 1131.996094 598.546875 1131.871094 598.425781 C 1131.746094 598.300781 1131.625 598.175781 1131.5 598.050781 C 1131.375 597.929688 1131.253906 597.804688 1131.003906 597.554688 C 1130.878906 597.433594 1130.757812 597.308594 1130.632812 597.183594 C 1130.507812 597.058594 1130.382812 596.9375 1130.136719 596.6875 C 1130.011719 596.5625 1129.886719 596.441406 1129.765625 596.316406 C 1129.640625 596.191406 1129.515625 596.066406 1129.269531 595.820312 C 1129.144531 595.695312 1129.019531 595.570312 1128.894531 595.449219 C 1128.894531 595.449219 1128.773438 595.324219 1128.773438 595.324219 C 1155.804688 633.144531 1156.175781 679.273438 1156.175781 729.242188 C 1156.175781 780.332031 1114.636719 821.871094 1063.546875 821.871094 L 983.691406 821.871094 C 983.816406 822.242188 983.941406 822.617188 984.0625 822.988281 C 1001.050781 858.328125 1008.617188 897.882812 1004.277344 936.074219 L 1157.539062 936.074219 C 1222.390625 924.421875 1246.324219 872.464844 1246.820312 823.234375 C 1242.230469 773.015625 1236.03125 703.949219 1190.398438 656.578125 Z M 1190.398438 656.578125 "/>
</g>
</svg>
