<?xml version="1.0" encoding="UTF-8"?>
<svg xmlns="http://www.w3.org/2000/svg" xmlns:xlink="http://www.w3.org/1999/xlink" width="1240pt" height="1240pt" viewBox="0 0 1240 1240" version="1.1">
<defs>
<linearGradient id="linear0" gradientUnits="userSpaceOnUse" x1="14.0269" y1="47.1962" x2="96.3662" y2="48.7498" gradientTransform="matrix(12.4,0,0,12.4,0,0)">
<stop offset="0" style="stop-color:rgb(53.333333%,12.156863%,100%);stop-opacity:1;"/>
<stop offset="0.2415" style="stop-color:rgb(63.137255%,23.137255%,90.588235%);stop-opacity:1;"/>
<stop offset="0.7609" style="stop-color:rgb(87.843137%,51.764706%,66.666667%);stop-opacity:1;"/>
<stop offset="1" style="stop-color:rgb(100%,65.490196%,54.901961%);stop-opacity:1;"/>
</linearGradient>
</defs>
<g id="surface1">
<path style=" stroke:none;fill-rule:nonzero;fill:url(#linear0);" d="M 1248.183594 275.527344 L 1248.183594 945.253906 C 1248.183594 1051.148438 1162.375 1136.957031 1056.480469 1136.957031 L 240.558594 1136.957031 C 198.398438 1136.957031 160.457031 1119.222656 133.671875 1090.953125 L 16.988281 974.269531 C 39.433594 987.289062 65.472656 994.726562 93.125 994.726562 L 953.1875 994.726562 C 1037.382812 994.726562 1105.832031 926.28125 1105.832031 842.085938 L 1105.832031 128.09375 C 1105.832031 100.316406 1098.390625 74.398438 1085.371094 51.957031 L 1202.054688 168.640625 C 1230.453125 195.546875 1248.183594 233.492188 1248.183594 275.527344 Z M 506.664062 726.390625 C 509.019531 725.773438 511.253906 724.65625 513.113281 722.796875 L 798.1875 487.691406 C 803.644531 482.234375 803.644531 473.433594 798.1875 467.976562 L 513.113281 229.152344 C 511.253906 227.292969 509.019531 226.175781 506.664062 225.554688 L 506.664062 363.941406 L 295.617188 363.941406 L 295.617188 582.429688 L 506.789062 582.429688 L 506.789062 726.390625 Z M 506.664062 726.390625 "/>
</g>
</svg>
