<?xml version="1.0" encoding="UTF-8"?>
<svg xmlns="http://www.w3.org/2000/svg" xmlns:xlink="http://www.w3.org/1999/xlink" width="1240pt" height="1240pt" viewBox="0 0 1240 1240" version="1.1">
<defs>
<linearGradient id="linear0" gradientUnits="userSpaceOnUse" x1="11.9813" y1="18.2545" x2="87.7336" y2="84.1838" gradientTransform="matrix(12.4,0,0,12.4,0,0)">
<stop offset="0" style="stop-color:rgb(53.333333%,12.156863%,100%);stop-opacity:1;"/>
<stop offset="0.2415" style="stop-color:rgb(63.137255%,23.137255%,90.588235%);stop-opacity:1;"/>
<stop offset="0.7609" style="stop-color:rgb(87.843137%,51.764706%,66.666667%);stop-opacity:1;"/>
<stop offset="1" style="stop-color:rgb(100%,65.490196%,54.901961%);stop-opacity:1;"/>
</linearGradient>
</defs>
<g id="surface1">
<path style=" stroke:none;fill-rule:nonzero;fill:url(#linear0);" d="M 700.972656 199.886719 C 710.890625 193.441406 722.546875 189.84375 734.824219 189.84375 C 758.632812 189.84375 780.332031 203.359375 790.871094 224.6875 L 891.0625 427.675781 L 807.363281 415.523438 Z M 635.5 944.382812 L 412.050781 1061.8125 C 414.035156 1078.925781 422.964844 1094.796875 437.347656 1105.335938 C 456.566406 1119.347656 482.113281 1121.207031 503.191406 1110.046875 L 726.886719 992.496094 Z M 1216.191406 539.523438 C 1208.875 516.957031 1189.285156 500.464844 1165.722656 496.992188 L 1114.386719 489.550781 C 1115.257812 491.535156 1116.125 493.519531 1116.867188 495.628906 C 1124.183594 518.195312 1118.109375 543.121094 1100.996094 559.734375 L 913.632812 742.386719 L 957.898438 1000.308594 C 961.867188 1023.742188 952.320312 1047.429688 933.101562 1061.441406 C 922.3125 1069.253906 909.539062 1073.21875 896.769531 1073.34375 L 966.703125 1110.046875 C 975.878906 1114.882812 985.800781 1117.238281 995.71875 1117.238281 C 1008.617188 1117.238281 1021.511719 1113.273438 1032.425781 1105.335938 C 1051.644531 1091.324219 1061.316406 1067.640625 1057.222656 1044.203125 L 1012.957031 786.285156 L 1200.320312 603.632812 C 1217.433594 587.015625 1223.507812 562.09375 1216.191406 539.523438 Z M 173.972656 561.597656 C 156.734375 544.730469 150.535156 519.558594 157.976562 496.742188 C 165.414062 473.929688 185.257812 457.0625 209.0625 453.714844 L 471.449219 415.648438 L 492.28125 373.488281 C 488.0625 370.386719 483.226562 368.03125 477.773438 367.289062 L 345.09375 348.066406 L 285.695312 227.789062 C 280.363281 216.875 269.203125 209.933594 256.929688 209.933594 C 244.777344 209.933594 233.617188 216.875 228.160156 227.789062 L 168.765625 348.066406 L 36.457031 367.039062 C 24.429688 368.777344 14.382812 377.207031 10.664062 388.863281 C 6.820312 400.394531 9.921875 413.167969 18.601562 421.601562 L 114.574219 515.21875 L 92.007812 647.402344 C 89.898438 659.433594 94.859375 671.585938 104.78125 678.652344 C 114.574219 685.84375 127.71875 686.710938 138.507812 681.132812 L 241.304688 627.066406 Z M 173.972656 561.597656 "/>
</g>
</svg>
