<?xml version="1.0" encoding="UTF-8"?>
<svg xmlns="http://www.w3.org/2000/svg" xmlns:xlink="http://www.w3.org/1999/xlink" width="1240pt" height="1240pt" viewBox="0 0 1240 1240" version="1.1">
<defs>
<linearGradient id="linear0" gradientUnits="userSpaceOnUse" x1="-0.000437808" y1="53.2956" x2="99.7272" y2="53.2956" gradientTransform="matrix(12.4,0,0,12.4,0,0)">
<stop offset="0" style="stop-color:rgb(53.333333%,12.156863%,100%);stop-opacity:1;"/>
<stop offset="0.2415" style="stop-color:rgb(63.137255%,23.137255%,90.588235%);stop-opacity:1;"/>
<stop offset="0.7609" style="stop-color:rgb(87.843137%,51.764706%,66.666667%);stop-opacity:1;"/>
<stop offset="1" style="stop-color:rgb(100%,65.490196%,54.901961%);stop-opacity:1;"/>
</linearGradient>
</defs>
<g id="surface1">
<path style=" stroke:none;fill-rule:nonzero;fill:url(#linear0);" d="M 427.550781 802.28125 L 427.550781 1206.644531 L 366.792969 1206.644531 L 366.792969 846.300781 C 366.792969 810.339844 337.527344 781.074219 301.566406 781.074219 L 268.460938 781.074219 C 256.554688 781.074219 245.519531 784.300781 235.847656 789.878906 L 285.695312 740.03125 C 297.226562 727.878906 313.347656 720.316406 331.453125 720.316406 L 345.589844 720.316406 C 390.847656 720.316406 427.550781 757.019531 427.550781 802.28125 Z M 1103.105469 615.660156 L 1088.96875 615.660156 C 1070.988281 615.660156 1054.742188 623.222656 1043.210938 635.375 L 993.363281 685.222656 C 1002.910156 679.644531 1014.070312 676.421875 1025.976562 676.421875 L 1059.085938 676.421875 C 1095.042969 676.421875 1124.308594 705.683594 1124.308594 741.644531 L 1124.308594 1210.238281 L 1185.066406 1210.238281 L 1185.066406 697.625 C 1185.066406 652.363281 1148.363281 615.660156 1103.105469 615.660156 Z M 857.210938 756.027344 L 843.074219 756.027344 C 825.097656 756.027344 808.851562 763.59375 797.320312 775.742188 L 747.472656 825.59375 C 757.019531 820.011719 768.179688 816.789062 780.085938 816.789062 L 813.191406 816.789062 C 849.152344 816.789062 878.414062 846.050781 878.414062 882.011719 L 878.414062 1207.761719 L 939.175781 1207.761719 L 939.175781 837.992188 C 939.175781 792.730469 902.472656 756.027344 857.210938 756.027344 Z M 611.195312 846.175781 L 597.058594 846.175781 C 579.078125 846.175781 562.835938 853.738281 551.304688 865.769531 L 501.457031 915.617188 C 511.003906 910.035156 522.164062 906.8125 534.066406 906.8125 L 567.175781 906.8125 C 603.136719 906.8125 632.398438 936.074219 632.398438 972.035156 L 632.398438 1210.117188 L 693.160156 1210.117188 L 693.160156 928.140625 C 693.160156 882.878906 656.457031 846.175781 611.195312 846.175781 Z M 884.242188 263.5 L 954.304688 193.6875 L 869.984375 193.316406 C 855.226562 193.191406 841.710938 187.984375 830.800781 179.550781 C 828.816406 185.753906 829.558594 194.183594 831.046875 200.878906 C 838.734375 233.863281 875.6875 263.5 884.242188 263.5 Z M 1236.402344 163.308594 C 1238.265625 148.925781 1219.910156 136.894531 1209 132.679688 L 1167.832031 111.351562 C 1173.90625 114.824219 1178.125 121.394531 1177.132812 129.085938 L 1175.148438 367.410156 L 1175.273438 367.535156 C 1174.15625 402.378906 1145.636719 430.28125 1110.542969 430.28125 C 1094.050781 430.28125 1079.046875 423.832031 1067.640625 413.664062 L 1067.640625 436.480469 C 1067.640625 472.316406 1096.78125 496.371094 1132.492188 496.371094 C 1186.183594 496.371094 1234.046875 447.019531 1236.652344 384.648438 Z M 564.945312 766.816406 C 590.238281 791.738281 631.160156 791.617188 656.332031 766.566406 L 1046.933594 377.457031 C 1046.1875 373.613281 1045.691406 369.519531 1045.691406 365.429688 L 1045.691406 285.820312 L 656.578125 673.445312 C 631.40625 698.492188 590.488281 698.617188 565.191406 673.691406 L 346.332031 457.683594 L 88.535156 712.257812 C 76.261719 724.285156 60.140625 730.980469 43.027344 730.980469 C 28.394531 730.980469 14.757812 726.019531 3.472656 717.214844 C 1.363281 723.414062 0 729.863281 0 736.558594 C -0.125 753.921875 6.570312 770.289062 18.722656 782.5625 C 31 794.964844 47.367188 801.90625 64.976562 801.90625 C 82.089844 801.90625 98.332031 795.210938 110.484375 783.183594 L 346.085938 550.933594 Z M 564.945312 766.816406 "/>
</g>
</svg>
