<?xml version="1.0" encoding="UTF-8"?>
<svg xmlns="http://www.w3.org/2000/svg" xmlns:xlink="http://www.w3.org/1999/xlink" width="1240pt" height="1240pt" viewBox="0 0 1240 1240" version="1.1">
<defs>
<linearGradient id="linear0" gradientUnits="userSpaceOnUse" x1="2.5173" y1="49.9744" x2="94.199" y2="49.9744" gradientTransform="matrix(12.4,0,0,12.4,0,0)">
<stop offset="0" style="stop-color:rgb(53.333333%,12.156863%,100%);stop-opacity:1;"/>
<stop offset="0.2415" style="stop-color:rgb(63.137255%,23.137255%,90.588235%);stop-opacity:1;"/>
<stop offset="0.7609" style="stop-color:rgb(87.843137%,51.764706%,66.666667%);stop-opacity:1;"/>
<stop offset="1" style="stop-color:rgb(100%,65.490196%,54.901961%);stop-opacity:1;"/>
</linearGradient>
</defs>
<g id="surface1">
<path style=" stroke:none;fill-rule:nonzero;fill:url(#linear0);" d="M 359.351562 80.722656 C 416.269531 34.96875 490.421875 15.996094 570.523438 7.191406 C 752.058594 -12.773438 948.226562 116.808594 948.226562 316.324219 L 948.226562 415.027344 L 824.226562 415.027344 L 824.226562 317.316406 C 824.226562 160.703125 690.058594 33.726562 524.519531 33.726562 C 463.511719 33.726562 406.71875 51.089844 359.351562 80.722656 Z M 386.382812 350.175781 C 386.382812 254.570312 388.121094 171.738281 462.148438 130.074219 C 374.480469 158.597656 310.621094 245.519531 310.621094 348.441406 L 310.621094 415.027344 L 386.382812 415.027344 Z M 660.921875 670.839844 C 660.921875 621.859375 621.238281 582.304688 572.382812 582.304688 C 523.402344 582.304688 483.722656 621.984375 483.722656 670.839844 C 483.722656 704.691406 502.945312 733.832031 530.96875 748.710938 L 530.96875 907.058594 C 530.96875 929.753906 549.566406 948.351562 572.261719 948.351562 C 594.953125 948.351562 613.550781 929.753906 613.550781 907.058594 L 613.550781 748.710938 C 641.699219 733.832031 660.921875 704.816406 660.921875 670.839844 Z M 1006.878906 416.765625 C 1019.777344 439.085938 1027.09375 464.875 1027.09375 492.402344 L 1027.09375 941.40625 C 1027.09375 1025.109375 959.015625 1093.308594 875.191406 1093.308594 L 106.765625 1093.308594 C 79.234375 1093.308594 53.445312 1085.867188 31.125 1073.097656 L 146.445312 1188.414062 C 173.226562 1216.6875 211.046875 1234.421875 252.960938 1234.421875 L 977.367188 1234.421875 C 1082.644531 1234.421875 1167.957031 1149.109375 1167.957031 1043.832031 L 1167.957031 638.601562 C 1167.957031 596.5625 1150.222656 558.742188 1121.953125 532.085938 Z M 1006.878906 416.765625 "/>
</g>
</svg>
