<?xml version="1.0" encoding="UTF-8"?>
<svg xmlns="http://www.w3.org/2000/svg" xmlns:xlink="http://www.w3.org/1999/xlink" width="1240pt" height="1240pt" viewBox="0 0 1240 1240" version="1.1">
<defs>
<linearGradient id="linear0" gradientUnits="userSpaceOnUse" x1="0.6029" y1="49.6166" x2="100" y2="49.6166" gradientTransform="matrix(12.4,0,0,12.4,0,0)">
<stop offset="0" style="stop-color:rgb(53.333333%,12.156863%,100%);stop-opacity:1;"/>
<stop offset="0.2415" style="stop-color:rgb(63.137255%,23.137255%,90.588235%);stop-opacity:1;"/>
<stop offset="0.7609" style="stop-color:rgb(87.843137%,51.764706%,66.666667%);stop-opacity:1;"/>
<stop offset="1" style="stop-color:rgb(100%,65.490196%,54.901961%);stop-opacity:1;"/>
</linearGradient>
</defs>
<g id="surface1">
<path style=" stroke:none;fill-rule:nonzero;fill:url(#linear0);" d="M 836.628906 159.214844 C 769.914062 225.308594 703.699219 291.894531 637.234375 358.359375 C 610.203125 385.390625 583.046875 412.050781 556.386719 439.332031 C 506.292969 490.421875 497.238281 562.710938 535.929688 622.976562 C 546.839844 639.964844 543.617188 631.40625 558.621094 645.792969 C 562.339844 649.386719 567.425781 651.621094 573.5 655.589844 C 555.519531 673.566406 538.285156 690.804688 521.046875 708.039062 C 503.6875 725.398438 486.453125 742.882812 467.355469 761.980469 C 450.121094 746.605469 452.601562 754.539062 438.339844 737.675781 C 417.757812 713.496094 398.164062 667.988281 402.378906 671.832031 C 421.476562 652.734375 438.710938 635.253906 456.070312 617.890625 C 473.308594 600.65625 490.542969 583.421875 508.523438 565.441406 C 502.324219 561.472656 497.363281 559.238281 493.644531 555.644531 C 478.640625 541.382812 460.660156 528.734375 449.746094 511.746094 C 411.058594 451.484375 420.113281 379.191406 470.207031 328.105469 C 496.867188 300.824219 524.023438 274.039062 551.054688 247.132812 C 617.519531 180.667969 683.613281 114.078125 750.449219 47.988281 C 789.507812 9.425781 836.753906 -5.085938 890.320312 7.316406 C 946.863281 20.335938 984.808594 55.925781 1000.804688 111.601562 C 1002.414062 117.054688 1003.40625 122.511719 1004.523438 127.96875 C 995.71875 124.246094 986.542969 121.023438 976.625 118.792969 C 922.933594 106.269531 875.6875 120.652344 836.628906 159.214844 Z M 1232.0625 202.492188 C 1218.796875 134.789062 1180.355469 75.019531 1127.53125 32.984375 C 1135.714844 51.460938 1142.039062 70.929688 1145.882812 91.140625 C 1148.859375 106.269531 1151.214844 121.519531 1153.820312 136.773438 C 1153.820312 147.4375 1153.820312 158.101562 1153.820312 168.765625 C 1150.347656 187.613281 1147.742188 206.585938 1143.28125 225.183594 C 1131.253906 275.28125 1107.566406 319.425781 1071.730469 356.253906 C 1023.742188 405.605469 975.261719 454.460938 926.898438 503.441406 C 948.105469 553.535156 956.660156 606.113281 955.421875 660.300781 C 955.296875 663.648438 955.792969 667.121094 956.039062 671.335938 C 958.148438 669.722656 959.265625 669.105469 960.132812 668.234375 C 1026.101562 601.398438 1092.441406 534.8125 1157.910156 467.605469 C 1193.871094 430.777344 1217.554688 386.632812 1229.460938 336.535156 C 1233.925781 317.9375 1236.527344 298.964844 1240 280.117188 C 1240 269.453125 1240 258.789062 1240 248.125 C 1237.394531 232.871094 1235.039062 217.621094 1232.0625 202.492188 Z M 83.078125 709.777344 C 42.53125 751.6875 29.015625 802.03125 45.261719 857.957031 C 59.023438 905.324219 88.535156 937.9375 131.8125 954.925781 C 123.007812 906.441406 137.390625 862.542969 173.351562 825.34375 C 211.296875 786.160156 300.453125 700.601562 339.511719 662.40625 C 347.324219 654.84375 351.292969 646.90625 344.101562 639.097656 C 281.976562 572.757812 292.765625 516.832031 292.765625 500.835938 C 289.664062 503.441406 288.050781 504.554688 286.6875 505.921875 C 268.335938 524.273438 121.273438 670.34375 83.078125 709.777344 Z M 796.203125 473.554688 C 781.820312 454.585938 765.699219 438.214844 748.464844 424.328125 C 764.832031 466.117188 770.410156 510.878906 766.445312 558.125 C 760.121094 631.53125 728.003906 694.523438 677.039062 746.480469 C 584.289062 841.09375 490.171875 934.339844 396.179688 1027.710938 C 345.710938 1077.683594 284.578125 1105.585938 213.652344 1111.785156 C 210.054688 1112.15625 206.585938 1113.644531 203.113281 1114.636719 C 192.324219 1114.636719 181.660156 1114.636719 170.871094 1114.636719 C 160.457031 1112.777344 150.039062 1110.792969 139.5 1109.304688 C 90.769531 1101.988281 45.757812 1082.148438 7.5625 1053.257812 C 47.492188 1141.792969 131.316406 1207.636719 229.523438 1222.269531 C 239.941406 1223.878906 250.230469 1225.863281 260.648438 1227.601562 C 271.3125 1227.601562 281.976562 1227.601562 292.640625 1227.601562 C 296.113281 1226.609375 299.585938 1225.121094 303.179688 1224.746094 C 373.613281 1218.671875 434.496094 1190.894531 484.59375 1141.171875 C 578.089844 1048.421875 671.585938 955.792969 763.714844 861.800781 C 814.433594 810.09375 846.300781 747.597656 852.625 674.558594 C 858.699219 601.027344 841.589844 533.449219 796.203125 473.554688 Z M 796.203125 473.554688 "/>
</g>
</svg>
