<?xml version="1.0" encoding="UTF-8"?>
<svg xmlns="http://www.w3.org/2000/svg" xmlns:xlink="http://www.w3.org/1999/xlink" width="1240pt" height="1240pt" viewBox="0 0 1240 1240" version="1.1">
<defs>
<linearGradient id="linear0" gradientUnits="userSpaceOnUse" x1="0.0889" y1="52.4489" x2="99.3348" y2="52.4489" gradientTransform="matrix(12.4,0,0,12.4,0,0)">
<stop offset="0" style="stop-color:rgb(53.333333%,12.156863%,100%);stop-opacity:1;"/>
<stop offset="0.2415" style="stop-color:rgb(63.137255%,23.137255%,90.588235%);stop-opacity:1;"/>
<stop offset="0.7609" style="stop-color:rgb(87.843137%,51.764706%,66.666667%);stop-opacity:1;"/>
<stop offset="1" style="stop-color:rgb(100%,65.490196%,54.901961%);stop-opacity:1;"/>
</linearGradient>
</defs>
<g id="surface1">
<path style=" stroke:none;fill-rule:nonzero;fill:url(#linear0);" d="M 1231.691406 603.382812 L 1231.691406 871.71875 C 1231.691406 874.199219 1230.699219 876.554688 1228.964844 878.292969 L 1142.785156 965.589844 C 1136.957031 971.539062 1126.910156 967.449219 1126.789062 959.140625 L 1123.8125 656.332031 C 1123.6875 647.898438 1120.960938 639.59375 1116 632.773438 L 972.78125 434.621094 C 964.96875 423.957031 952.566406 417.632812 939.300781 417.757812 L 687.703125 419.617188 L 687.703125 326.367188 C 687.703125 306.898438 671.832031 291.027344 652.363281 291.027344 L 17.484375 291.027344 C 7.6875 291.027344 4.339844 278.007812 12.894531 273.296875 L 155.246094 194.554688 C 166.53125 188.355469 179.179688 185.132812 191.953125 185.132812 L 811.828125 185.132812 C 831.296875 185.132812 847.167969 201.003906 847.167969 220.472656 L 847.167969 353.277344 L 850.640625 351.789062 L 1033.789062 351.789062 C 1046.683594 351.789062 1058.835938 357.863281 1066.523438 368.28125 L 1223.507812 579.078125 C 1228.964844 586.023438 1231.691406 594.578125 1231.691406 603.382812 Z M 904.953125 513.609375 C 901.976562 508.894531 896.644531 505.921875 891.0625 505.921875 L 731.847656 505.921875 C 727.878906 505.921875 724.65625 509.144531 724.65625 513.113281 L 724.65625 641.699219 C 724.65625 645.667969 727.878906 648.890625 731.847656 648.890625 L 965.835938 648.890625 C 976.5 648.890625 983.070312 637.113281 977.367188 628.058594 Z M 880.894531 959.511719 C 880.894531 1045.816406 810.960938 1115.753906 724.65625 1115.753906 C 638.351562 1115.753906 568.414062 1045.816406 568.414062 959.511719 C 568.414062 873.207031 638.351562 803.273438 724.65625 803.273438 C 810.960938 803.148438 880.894531 873.207031 880.894531 959.511719 Z M 789.011719 959.511719 C 789.011719 924.046875 760.121094 895.15625 724.65625 895.15625 C 689.191406 895.15625 660.300781 924.046875 660.300781 959.511719 C 660.300781 994.976562 689.191406 1023.867188 724.65625 1023.867188 C 760.121094 1023.742188 789.011719 994.851562 789.011719 959.511719 Z M 313.597656 959.511719 C 313.597656 1045.816406 243.660156 1115.753906 157.355469 1115.753906 C 71.050781 1115.753906 1.117188 1045.816406 1.117188 959.511719 C 1.117188 873.207031 71.050781 803.273438 157.355469 803.273438 C 243.660156 803.148438 313.597656 873.207031 313.597656 959.511719 Z M 221.710938 959.511719 C 221.710938 924.046875 192.820312 895.15625 157.355469 895.15625 C 121.890625 895.15625 93 924.046875 93 959.511719 C 93 994.976562 121.890625 1023.867188 157.355469 1023.867188 C 192.820312 1023.867188 221.710938 994.851562 221.710938 959.511719 Z M 221.710938 959.511719 "/>
</g>
</svg>
