<?xml version="1.0" encoding="UTF-8"?>
<svg xmlns="http://www.w3.org/2000/svg" xmlns:xlink="http://www.w3.org/1999/xlink" width="1240pt" height="1240pt" viewBox="0 0 1240 1240" version="1.1">
<defs>
<linearGradient id="linear0" gradientUnits="userSpaceOnUse" x1="12.4974" y1="48.3953" x2="88.2155" y2="48.3953" gradientTransform="matrix(12.4,0,0,12.4,0,0)">
<stop offset="0" style="stop-color:rgb(53.333333%,12.156863%,100%);stop-opacity:1;"/>
<stop offset="0.2415" style="stop-color:rgb(63.137255%,23.137255%,90.588235%);stop-opacity:1;"/>
<stop offset="0.7609" style="stop-color:rgb(87.843137%,51.764706%,66.666667%);stop-opacity:1;"/>
<stop offset="1" style="stop-color:rgb(100%,65.490196%,54.901961%);stop-opacity:1;"/>
</linearGradient>
</defs>
<g id="surface1">
<path style=" stroke:none;fill-rule:nonzero;fill:url(#linear0);" d="M 1093.929688 707.171875 C 1093.929688 751.191406 1093.929688 795.210938 1093.929688 839.230469 C 1093.058594 842.828125 1091.449219 846.300781 1091.199219 849.894531 C 1082.644531 1002.042969 983.070312 1132.492188 837.992188 1179.613281 C 810.589844 1188.539062 781.820312 1192.878906 753.546875 1199.328125 C 652.238281 1199.328125 550.933594 1199.328125 449.625 1199.328125 C 429.410156 1194.988281 408.828125 1191.640625 388.863281 1186.308594 C 332.941406 1171.429688 284.578125 1143.03125 243.289062 1102.484375 C 213.898438 1073.59375 184.761719 1044.453125 154.753906 1014.566406 C 184.265625 1028.703125 211.296875 1046.0625 240.808594 1054.742188 C 276.769531 1065.40625 314.710938 1073.59375 352.035156 1074.460938 C 450.988281 1076.816406 550.1875 1076.691406 649.140625 1073.839844 C 807.613281 1069.253906 949.34375 938.058594 964.347656 779.960938 C 972.40625 695.765625 973.894531 610.699219 961.246094 526.503906 C 954.179688 479.136719 933.222656 436.726562 907.804688 395.683594 C 911.894531 399.402344 916.113281 403 920.078125 406.84375 C 943.886719 430.527344 967.570312 454.335938 991.257812 478.019531 C 1052.015625 538.902344 1085.742188 612.0625 1090.828125 698.242188 C 1091.449219 701.34375 1092.9375 704.195312 1093.929688 707.171875 Z M 875.316406 0.992188 C 685.84375 -2.976562 577.46875 103.414062 585.652344 292.144531 C 777.480469 297.847656 882.011719 186.371094 875.316406 0.992188 Z M 542.253906 279.371094 C 542.253906 232.128906 542.375 184.882812 542.253906 137.640625 C 542.128906 111.847656 527.125 95.851562 503.8125 96.101562 C 481.367188 96.472656 466.984375 112.34375 466.984375 137.640625 C 466.859375 179.925781 466.984375 222.207031 466.984375 264.492188 C 466.984375 273.667969 466.984375 282.84375 466.984375 292.886719 C 492.898438 292.886719 516.707031 292.886719 541.507812 292.886719 C 541.757812 287.804688 542.253906 283.589844 542.253906 279.371094 Z M 542.253906 279.371094 "/>
</g>
</svg>
