<?xml version="1.0" encoding="UTF-8"?>
<svg xmlns="http://www.w3.org/2000/svg" xmlns:xlink="http://www.w3.org/1999/xlink" width="1240pt" height="1240pt" viewBox="0 0 1240 1240" version="1.1">
<defs>
<linearGradient id="linear0" gradientUnits="userSpaceOnUse" x1="0.1282" y1="51.1021" x2="99.4153" y2="51.1021" gradientTransform="matrix(12.4,0,0,12.4,0,0)">
<stop offset="0" style="stop-color:rgb(53.333333%,12.156863%,100%);stop-opacity:1;"/>
<stop offset="0.2415" style="stop-color:rgb(63.137255%,23.137255%,90.588235%);stop-opacity:1;"/>
<stop offset="0.7609" style="stop-color:rgb(87.843137%,51.764706%,66.666667%);stop-opacity:1;"/>
<stop offset="1" style="stop-color:rgb(100%,65.490196%,54.901961%);stop-opacity:1;"/>
</linearGradient>
</defs>
<g id="surface1">
<path style=" stroke:none;fill-rule:nonzero;fill:url(#linear0);" d="M 266.105469 932.726562 C 280.488281 932.726562 292.144531 944.382812 292.144531 958.769531 C 292.144531 973.152344 280.488281 984.808594 266.105469 984.808594 C 251.71875 984.808594 240.0625 973.152344 240.0625 958.769531 C 240.1875 944.261719 251.84375 932.726562 266.105469 932.726562 Z M 85.0625 604.5 C 85.1875 604.5 85.4375 604.375 85.558594 604.375 C 131.191406 598.671875 186.742188 568.910156 234.609375 531.710938 C 234.609375 531.710938 303.800781 479.757812 340.628906 413.664062 C 371.007812 359.226562 399.777344 284.828125 396.550781 230.515625 L 396.550781 229.894531 C 394.195312 204.847656 329.21875 166.53125 328.601562 166.160156 C 321.160156 161.945312 313.71875 160.578125 307.148438 161.199219 C 297.972656 162.066406 290.40625 166.78125 286.6875 173.226562 C 282.71875 180.046875 242.667969 254.324219 238.078125 263.375 C 236.097656 267.34375 235.476562 271.933594 235.972656 277.015625 C 236.59375 283.464844 239.070312 290.285156 243.410156 296.855469 C 247.628906 303.304688 270.070312 320.664062 267.839844 332.070312 C 265.484375 343.605469 261.515625 375.101562 231.878906 410.6875 C 202.492188 446.027344 173.351562 455.328125 161.820312 459.421875 C 150.90625 463.265625 129.703125 444.910156 122.636719 442.058594 C 115.195312 438.960938 108.003906 437.84375 101.679688 438.339844 C 96.597656 438.835938 92.132812 440.449219 88.535156 443.175781 C 80.972656 449.003906 15.625 501.828125 9.425781 507.285156 C 3.597656 512.492188 0.867188 520.800781 1.734375 529.605469 C 2.355469 536.546875 5.207031 543.617188 10.167969 549.566406 C 10.664062 550.1875 59.644531 606.855469 85.0625 604.5 Z M 1123.9375 301.816406 C 1141.914062 321.53125 1141.421875 359.351562 1141.421875 387.996094 L 1141.421875 698.242188 C 1141.421875 759.375 1091.449219 809.347656 1030.316406 809.347656 L 493.023438 809.347656 L 493.023438 603.261719 C 493.023438 583.296875 484.59375 565.191406 471.199219 552.421875 L 415.773438 496.992188 C 421.972656 507.65625 425.445312 520.054688 425.445312 533.199219 L 425.445312 966.085938 C 425.445312 1006.011719 392.957031 1038.625 352.902344 1038.625 L 133.671875 1038.625 C 120.527344 1038.625 108.128906 1035.027344 97.464844 1028.953125 L 152.890625 1084.378906 C 165.664062 1097.773438 183.644531 1106.203125 203.730469 1106.203125 L 402.007812 1106.203125 C 452.351562 1106.203125 493.023438 1065.40625 493.023438 1015.1875 L 493.023438 908.546875 L 852.625 908.546875 L 887.097656 976.253906 C 891.558594 984.933594 891.0625 995.222656 885.980469 1003.53125 C 880.894531 1011.839844 871.84375 1016.925781 862.171875 1016.925781 L 657.449219 1016.925781 L 657.449219 1017.046875 L 617.890625 1017.046875 C 604.128906 1016.304688 592.597656 1015.558594 584.785156 1012.957031 C 594.332031 1025.605469 644.429688 1094.796875 682.621094 1094.300781 L 963.480469 1094.300781 L 962.859375 1093.554688 L 974.390625 1093.554688 C 984.1875 1093.554688 993.117188 1088.472656 998.199219 1080.164062 C 1003.285156 1071.855469 1003.65625 1061.5625 999.316406 1052.882812 L 926.03125 908.425781 L 1097.152344 908.425781 C 1160.886719 908.425781 1232.683594 856.21875 1232.683594 792.484375 L 1232.683594 428.296875 C 1232.808594 369.644531 1159.398438 333.683594 1123.9375 301.816406 Z M 1123.9375 301.816406 "/>
</g>
</svg>
