<?xml version="1.0" encoding="utf-8"?>
<!-- Generator: Adobe Illustrator 24.0.1, SVG Export Plug-In . SVG Version: 6.00 Build 0)  -->
<svg version="1.1" id="Layer_1" xmlns="http://www.w3.org/2000/svg" xmlns:xlink="http://www.w3.org/1999/xlink" x="0px" y="0px"
	 viewBox="0 0 800 800" style="enable-background:new 0 0 800 800;" xml:space="preserve">
<style type="text/css">
	.st0{display:none;}
	.st1{display:inline;fill:#871FFF;}
	.st2{fill:url(#SVGID_1_);}
	.st3{fill:url(#SVGID_2_);}
	.st4{fill:url(#SVGID_3_);}
	.st5{fill:url(#SVGID_4_);}
	.st6{fill:#FFFFFF;}
	.st7{fill:#871FFF;}
	.st8{fill:url(#SVGID_5_);}
	.st9{opacity:0.3;fill:#FFFFFF;enable-background:new    ;}
	.st10{fill:none;stroke:#80C7F5;stroke-width:10.1271;stroke-miterlimit:10;}
</style>
<g id="Layer_1_1_" class="st0">
	<rect x="-7.2" y="-7.2" class="st1" width="814.5" height="814.5"/>
</g>
<g id="Layer_2_1_">
	
		<linearGradient id="SVGID_1_" gradientUnits="userSpaceOnUse" x1="-31.163" y1="601.0534" x2="641.27" y2="260.9274" gradientTransform="matrix(1 0 0 -1 0 800)">
		<stop  offset="0" style="stop-color:#85C6ED"/>
		<stop  offset="1" style="stop-color:#D6219C"/>
	</linearGradient>
	<path class="st2" d="M344.5,239.4c-6.3-1-35.9-1.5-42.5-1.5c-63.6,0-117.9,47-139.9,113.4c-6.2-2.5-12.8-3.9-19.6-3.9
		c-29.8,0-54.6,25.1-60.3,58.5h262.4L344.5,239.4L344.5,239.4z"/>
	
		<linearGradient id="SVGID_2_" gradientUnits="userSpaceOnUse" x1="7.718" y1="677.9218" x2="680.151" y2="337.7958" gradientTransform="matrix(1 0 0 -1 0 800)">
		<stop  offset="0" style="stop-color:#85C6ED"/>
		<stop  offset="1" style="stop-color:#D6219C"/>
	</linearGradient>
	<path class="st3" d="M82.1,203.5c0-26.9,21.8-48.7,48.7-48.7c18.8,0,35,10.6,43.1,26.2c3.7-2,8-3.2,12.5-3.2
		c9.7,0,18.2,5.3,22.6,13.2c2.8-2.3,6.3-3.8,10.2-3.8c8.9,0,16.1,7.2,16.1,16.1L82.1,203.5z"/>
	
		<linearGradient id="SVGID_3_" gradientUnits="userSpaceOnUse" x1="117.3034" y1="894.5734" x2="789.7366" y2="554.4474" gradientTransform="matrix(1 0 0 -1 0 800)">
		<stop  offset="0" style="stop-color:#85C6ED"/>
		<stop  offset="1" style="stop-color:#D6219C"/>
	</linearGradient>
	<path class="st4" d="M590.6,127.7c0-9.4-7.6-17-17-17c-2.6,0-5,0.6-7.2,1.7c-5.6-11-17-18.6-30.3-18.6c-18.7,0-33.9,15.2-33.9,33.9
		H590.6z"/>
	
		<linearGradient id="SVGID_4_" gradientUnits="userSpaceOnUse" x1="115.025" y1="890.069" x2="787.458" y2="549.9429" gradientTransform="matrix(1 0 0 -1 0 800)">
		<stop  offset="0" style="stop-color:#85C6ED"/>
		<stop  offset="1" style="stop-color:#D6219C"/>
	</linearGradient>
	<path class="st5" d="M759.3,203.5c0-36.6-29.6-66.2-66.2-66.2c-25.5,0-47.6,14.4-58.7,35.6c-5-2.8-10.8-4.3-17-4.3
		c-13.2,0-24.7,7.2-30.8,18c-3.8-3.2-8.6-5.1-13.9-5.1c-12.1,0-21.9,9.8-21.9,21.9L759.3,203.5z"/>
	<g>
		<path class="st6" d="M450.5,750.2H201.3l119.6-220.6l233.9-250.9c73,52,70,226.7,18,299.7L450.5,750.2z"/>
		<path class="st7" d="M534.4,583.4H335.2c-9.9,0-17.9-8.1-17.9-17.9V468c0-9.9,8.1-17.9,17.9-17.9h199.3c9.9,0,17.9,8.1,17.9,17.9
			v97.5C552.3,575.3,544.3,583.4,534.4,583.4z"/>
		<path class="st6" d="M536.7,569H332.8c-10,0-18.1-8.1-18.1-18.1V167.1c0-10,8.1-18.1,18.1-18.1h203.9c10,0,18.1,8.1,18.1,18.1
			v383.8C554.8,560.9,546.7,569,536.7,569z"/>
		
			<linearGradient id="SVGID_5_" gradientUnits="userSpaceOnUse" x1="432.9995" y1="225.9604" x2="436.0193" y2="604.9501" gradientTransform="matrix(1 0 0 -1 0 800)">
			<stop  offset="0" style="stop-color:#80C7F5"/>
			<stop  offset="1" style="stop-color:#871FFF"/>
		</linearGradient>
		<path class="st8" d="M535.9,179.1H333.7v350.5h202.1L535.9,179.1L535.9,179.1z"/>
		<path class="st6" d="M201.3,750.2H71.6l204.3-340.9c13.9-26.2,47.1-45.9,75-30.1l0,0c23.9,15.7,26.6,53.5,9.9,76.8L201.3,750.2z"
			/>
		<path class="st6" d="M510.6,345c-23.1-13-31.2-40.7-17.6-59.8l0,0c13.2-18.4,41.2-22.6,61.8-7.5l-6.7,90.9L510.6,345z"/>
		<path class="st6" d="M509.6,418.2c-21.1-9.5-29.5-35-18.1-55.1l0,0c11-19.4,36-25.8,54.9-14l-1.6,88.7L509.6,418.2z"/>
		<path class="st6" d="M600.2,378.6c21.1,9.5,29.5,35,18.1,55.1l0,0c-11,19.4-36,25.8-54.9,14L565,359L600.2,378.6z"/>
		<path class="st6" d="M610.2,443.7c0,0,14.5,29.9,7.1,56.7c-6.5,23.6-40.2,71.4-40.2,71.4l-12.3-156.7L610.2,443.7z"/>
		<path class="st6" d="M605.5,387.4L605.5,387.4c-13.4,15-36.5,15.8-50.9,1.8l0.2-110.5C554.8,278.7,629.4,330.5,605.5,387.4z"/>
		<path class="st6" d="M541.6,510c-20.6,2.5-38.9-13.3-39.5-34l0,0c-0.6-20,15.7-36.5,35.7-36.2l31.7,16.4L541.6,510z"/>
		<path class="st9" d="M508.5,253.4H361.1c-2.9,0-5.2,2.3-5.2,5.2v89.5c0,2.9,2.3,5.2,5.2,5.2l62.5-0.4l11.2,15.8l10.3-15.4h63.4
			c2.9,0,5.2-2.3,5.2-5.2v-89.5C513.7,255.7,511.4,253.4,508.5,253.4z"/>
		<circle class="st6" cx="432" cy="256.8" r="43.7"/>
		<g>
			<polyline class="st10" points="479.4,217.9 431.6,272.4 413,254.2 			"/>
		</g>
	</g>
</g>
</svg>
