<?xml version="1.0" encoding="utf-8"?>
<!-- Generator: Adobe Illustrator 24.0.0, SVG Export Plug-In . SVG Version: 6.00 Build 0)  -->
<svg version="1.1" id="Layer_1" xmlns="http://www.w3.org/2000/svg" xmlns:xlink="http://www.w3.org/1999/xlink" x="0px" y="0px"
	 viewBox="0 0 500 423.7" style="enable-background:new 0 0 500 423.7;" xml:space="preserve">
<style type="text/css">
	.st0{fill:#FFFFFF;}
	.st1{fill:url(#SVGID_1_);}
	.st2{fill:url(#SVGID_2_);}
</style>
<path d="M202.9,155.4c0,0-24.8,19.2-20.8,69.6c0,0,4.7,30.2,5.6,35.1c0,0,7.2,30-15.7,55c0,0-89.2,91.7-138.2,108.5h153.7
	c0,0,22.1-75.2,77.2-113.4c0,0,26.8-17.1,27.5-33.1L202.9,155.4z"/>
<path class="st0" d="M300.5,295.5h-93.3c-4.6,0-8.4-3.8-8.4-8.4v-45.6c0-4.6,3.8-8.4,8.4-8.4h93.3c4.6,0,8.4,3.8,8.4,8.4v45.6
	C308.9,291.7,305.1,295.5,300.5,295.5z"/>
<path d="M300.5,288.8h-93.3c-4.6,0-8.4-3.8-8.4-8.4V100.6c0-4.6,3.8-8.4,8.4-8.4h93.3c4.6,0,8.4,3.8,8.4,8.4v179.8
	C308.9,285,305.1,288.8,300.5,288.8z"/>
<linearGradient id="SVGID_1_" gradientUnits="userSpaceOnUse" x1="-1139.2271" y1="-766.324" x2="-639.225" y2="-766.324" gradientTransform="matrix(1 0 0 1 1139.2271 901.5009)">
	<stop  offset="0" style="stop-color:#D6219C"/>
	<stop  offset="1" style="stop-color:#80C7F5"/>
</linearGradient>
<path class="st1" d="M146,42.4H74.4c-4.5,0-8.3,3.7-8.3,8.3v49.6c0,4.5,3.7,8.3,8.3,8.3H115l22.7,15.1v-15.1h8.3
	c4.5,0,8.3-3.7,8.3-8.3V50.6C154.3,46.1,150.6,42.4,146,42.4z M491.7,122.2h-71.6c-4.5,0-8.3,3.7-8.3,8.3v49.6
	c0,4.5,3.7,8.3,8.3,8.3h8.3v15.1l22.7-15.1h40.6c4.5,0,8.3-3.7,8.3-8.3v-49.6C500,126,496.3,122.2,491.7,122.2z M308.2,151.8
	c3.9-0.6,8-0.9,12-0.9c39.6,0,73.5,29.3,87.2,70.6c3.8-1.5,8-2.4,12.2-2.4c18.5,0,34,15.6,37.6,36.5H308.2L308.2,151.8L308.2,151.8z
	 M301.2,110.6h-94.6v159.7h94.6V110.6z M395.3,96.5h-48.7c0-16.7,13.6-30.3,30.3-30.3c11.7,0,21.8,6.6,26.9,16.3c2.3-1.3,5-2,7.8-2
	c6.1,0,11.3,3.3,14.1,8.2c1.7-1.4,3.9-2.3,6.4-2.3c5.5,0,10,4.5,10,10h-14.3c0,0.1,0,0.2,0,0.3h-32.5
	C395.3,96.6,395.3,96.6,395.3,96.5z M38,156.7H25.2c0-5.8,4.7-10.6,10.6-10.6c1.6,0,3.1,0.4,4.5,1c3.5-6.9,10.6-11.6,18.9-11.6
	c11.7,0,21.2,9.5,21.2,21.2H46.4H38z M66.3,229H0c0-22.8,18.5-41.2,41.2-41.2c15.9,0,29.7,9,36.6,22.2c3.1-1.7,6.7-2.7,10.6-2.7
	c8.2,0,15.4,4.5,19.2,11.2c2.4-2,5.4-3.2,8.7-3.2c7.5,0,13.7,6.1,13.7,13.7h-19.5c0,0.1,0,0.3,0,0.4H66.3
	C66.3,229.2,66.3,229.1,66.3,229z M317.2,26.2c-34.9-34.9-91.8-34.9-126.7,0L203.3,39c27.9-27.9,73.3-27.9,101.2,0L317.2,26.2z
	 M297.2,48.4c-23-23-60.4-23-83.4,0l12.8,12.8c16-16,41.9-16,57.9,0L297.2,48.4z M276,70.4c-5.9-5.9-13.8-9.2-22.1-9.2
	c-8.4,0-16.2,3.3-22.1,9.2l12.8,12.8c2.5-2.5,5.8-3.9,9.3-3.9c3.5,0,6.8,1.4,9.3,3.9L276,70.4z"/>
<path class="st0" d="M303.5,228.1c0,0-23.3,4.1-23.7,12c0,0-2.7,10.1,19.9,7.2c0,0,21.5-3.4,24.8-6.5c0,0,6-6,0-13.9
	C324.5,226.8,319.4,224.2,303.5,228.1z"/>
<path class="st0" d="M303.5,205.4c0,0-23.3,4.1-23.7,12c0,0-2.7,10.1,19.9,7.2c0,0,21.5-3.4,24.8-6.5c0,0,6-6,0-13.9
	C324.5,204.1,319.4,201.5,303.5,205.4z"/>
<path class="st0" d="M302.2,182.7c0,0-24.1,5-24.3,12.8c0,0-2.5,10.2,21,6.4c0,0,22.4-4.1,25.7-7.4c0,0,6.1-6.3-0.5-13.9
	C324.1,180.7,318.6,178.2,302.2,182.7z"/>
<path class="st0" d="M301.7,158.9c0,0-23.9,6-23.8,13.9c0,0-2,10.3,21.3,5.5c0,0,22.2-5.1,25.4-8.5c0,0,5.8-6.5-1.1-13.8
	C323.5,155.9,318,153.7,301.7,158.9z"/>
<linearGradient id="SVGID_2_" gradientUnits="userSpaceOnUse" x1="-990.9191" y1="-596.8066" x2="-988.769" y2="-596.8066" gradientTransform="matrix(1 0 0 1 1139.2271 901.5009)">
	<stop  offset="0" style="stop-color:#D6219C"/>
	<stop  offset="1" style="stop-color:#80C7F5"/>
</linearGradient>
<path class="st2" d="M148.3,305.7c0.3-0.7,0.6-1.3,1-2c0.4,0.7,0.8,1.3,1.2,2C149.7,305.7,149,305.7,148.3,305.7z"/>
<path d="M260.3,145.7h-15.2c-2.3,0-4.1-1.9-4.1-4.1v-15.2c0-2.3,1.9-4.1,4.1-4.1h15.2c2.3,0,4.1,1.9,4.1,4.1v15.1
	C264.5,143.8,262.6,145.7,260.3,145.7z"/>
<path class="st0" d="M123.9,74.1C123.9,74.1,123.9,74.1,123.9,74.1"/>
<path d="M108.8,53.4c-5.9,0-10.6,4.8-10.6,10.6c0,5.9,4.8,10.6,10.6,10.6c5.9,0,10.6-4.8,10.6-10.6
	C119.4,58.1,114.7,53.4,108.8,53.4z M100.9,77.7c0,0-9.8,1.9-12.3,11.2c0,0-2.1,8.6,6.5,8.6h30.2c0,0,5.3-1.1,3.4-9.3
	c0,0-1.8-6.9-11.5-10.3C117.3,77.9,110.6,75.4,100.9,77.7z"/>
<path d="M439.4,162.2c-1.2-2.3-1.7-4.7-1.7-7.2c0-8.8,7.2-15.9,15.9-15.9c8.8,0,15.9,7.1,15.9,15.9c0,6.8-4.3,12.8-10.7,15.1
	c-1.3-1.1-3.3-1.7-5.6-1.7c-4.1,0-7.2,2.1-7.2,4.9s3.1,4.9,7.2,4.9c2.6,0,4.8-0.8,6.1-2.2c6.1-1.7,11.2-6,13.9-11.7h0.7
	c3,0,5.4-2.2,5.4-4.9v-7.6c0-2.7-2.4-4.9-5.4-4.9l-0.3,0c-3.3-8.1-11.3-13.5-20.1-13.5c-8.7,0-16.4,5.1-19.9,13
	c-2.9,0-5.3,2.2-5.3,4.9v7.6c0,2.7,2.4,4.9,5.4,4.9h6.4L439.4,162.2z"/>
</svg>
