<?xml version="1.0" encoding="utf-8"?>
<!-- Generator: Adobe Illustrator 24.0.1, SVG Export Plug-In . SVG Version: 6.00 Build 0)  -->
<svg version="1.1" xmlns="http://www.w3.org/2000/svg" xmlns:xlink="http://www.w3.org/1999/xlink" x="0px" y="0px"
	 viewBox="0 0 800 800" style="enable-background:new 0 0 800 800;" xml:space="preserve">
<style type="text/css">
	.st0{display:none;}
	.st1{display:inline;fill:#871FFF;}
	.st2{fill:url(#SVGID_1_);}
	.st3{fill:#FFFFFF;}
	.st4{fill:none;stroke:#FFFFFF;stroke-width:0.6809;stroke-miterlimit:10;}
	.st5{fill:url(#SVGID_2_);}
	.st6{fill:url(#SVGID_3_);}
	.st7{fill:url(#SVGID_4_);}
	.st8{fill:#F8A58D;}
	.st9{fill:#6F54A3;}
	.st10{fill:url(#SVGID_5_);}
	.st11{clip-path:url(#SVGID_7_);}
	.st12{fill:#871FFF;}
	.st13{fill:url(#SVGID_8_);}
	.st14{fill:#19171C;}
	.st15{fill:#CF3393;}
	.st16{fill:#F69F87;}
	.st17{fill:url(#SVGID_9_);}
	.st18{fill:url(#SVGID_10_);}
	.st19{fill:none;stroke:#FFFFFF;stroke-width:0.2945;stroke-miterlimit:10;}
	.st20{fill:#80C7F5;}
	.st21{fill:url(#SVGID_11_);}
	.st22{fill:none;stroke:url(#SVGID_12_);stroke-width:0.5168;stroke-miterlimit:10;}
	.st23{fill:url(#SVGID_13_);}
	.st24{fill:url(#SVGID_14_);}
	.st25{fill:url(#SVGID_15_);}
	.st26{fill:url(#SVGID_16_);}
	.st27{fill:url(#SVGID_17_);}
	.st28{fill:url(#SVGID_18_);}
	.st29{fill:url(#SVGID_19_);}
	.st30{fill:url(#SVGID_20_);}
	.st31{fill:url(#SVGID_21_);}
	.st32{fill:url(#SVGID_22_);}
	.st33{fill:url(#SVGID_23_);}
	.st34{fill:url(#SVGID_24_);}
	.st35{fill:url(#SVGID_25_);}
	.st36{fill:url(#SVGID_26_);}
	.st37{fill:url(#SVGID_27_);}
	.st38{fill:url(#SVGID_28_);}
	.st39{fill:url(#SVGID_29_);}
	.st40{fill:url(#SVGID_30_);}
	.st41{fill:url(#SVGID_31_);}
	.st42{fill:url(#SVGID_32_);}
	.st43{fill:url(#SVGID_33_);}
	.st44{fill:url(#SVGID_34_);}
	.st45{fill:url(#SVGID_35_);}
	.st46{fill:url(#SVGID_36_);}
	.st47{fill:url(#SVGID_37_);}
	.st48{fill:url(#SVGID_38_);}
	.st49{fill:url(#SVGID_39_);}
	.st50{fill:url(#SVGID_40_);}
	.st51{fill:url(#SVGID_41_);}
	.st52{fill:url(#SVGID_42_);}
	.st53{fill:url(#SVGID_43_);}
	.st54{fill:url(#SVGID_44_);}
	.st55{fill:url(#SVGID_45_);}
	.st56{fill:url(#SVGID_46_);}
	.st57{fill:url(#SVGID_47_);}
	.st58{fill:url(#SVGID_48_);}
	.st59{fill:url(#SVGID_49_);}
	.st60{fill-rule:evenodd;clip-rule:evenodd;fill:#FFFFFF;}
</style>
<g id="Layer_1" class="st0">
	<rect x="-7.2" y="-7.2" class="st1" width="814.5" height="814.5"/>
</g>
<g id="Layer_2">
	<linearGradient id="SVGID_1_" gradientUnits="userSpaceOnUse" x1="439.1187" y1="628.6268" x2="439.1187" y2="487.4596">
		<stop  offset="8.011200e-04" style="stop-color:#871FFF"/>
		<stop  offset="1" style="stop-color:#80C7F5"/>
	</linearGradient>
	<path class="st2" d="M320.1,561.1L434,626.9c3.1,1.8,7,1.8,10.2,0l113.9-65.8c3.8-2.2,3.8-7.6,0-9.8l-113.9-65.8
		c-3.1-1.8-7-1.8-10.2,0l-113.9,65.8C316.3,553.5,316.3,558.9,320.1,561.1z"/>
	<path class="st3" d="M461.6,536.9c-0.5,3.3-1.1,13.5-1.1,13.5h15.3c0,0,0.1-14.2-7-21.4C464.4,524.6,462,534.2,461.6,536.9z"/>
	<path class="st4" d="M247.6,197.2c23.3-17.6,76.9-19.6,103.8,9.6"/>
	<path class="st4" d="M460.5,208.4c59.5-24.9,118,21.5,126.6,49.3"/>
	<linearGradient id="SVGID_2_" gradientUnits="userSpaceOnUse" x1="267.9911" y1="529.6996" x2="267.9911" y2="307.1039">
		<stop  offset="8.011200e-04" style="stop-color:#871FFF"/>
		<stop  offset="1" style="stop-color:#80C7F5"/>
	</linearGradient>
	<path class="st5" d="M80.3,423.2L260,526.9c5,2.9,11.1,2.9,16,0l179.7-103.7c5.9-3.4,5.9-12,0-15.4L276,304.1c-5-2.9-11.1-2.9-16,0
		L80.3,407.8C74.4,411.2,74.4,419.8,80.3,423.2z"/>
	<path class="st3" d="M380.9,238c33.3,19.2,60.2,65.8,60.1,104c0,0.8,0,1.6-0.1,2.3c1.6,0.7,3.3,1.5,5,2.5
		c19.9,11.5,36,39.4,36,62.3c-0.1,22.1-15.2,31.5-34.2,21.7l-133.9-77.8c-22.5-12.9-40.6-44.3-40.5-70.2c0.1-26.1,18.3-36.7,41-23.6
		c2.3,1.3,4.6,2.9,6.8,4.6C324.9,232.1,350.2,220.4,380.9,238z"/>
	<linearGradient id="SVGID_3_" gradientUnits="userSpaceOnUse" x1="285.1642" y1="316.3187" x2="532.6889" y2="316.3187">
		<stop  offset="8.011200e-04" style="stop-color:#871FFF"/>
		<stop  offset="1" style="stop-color:#80C7F5"/>
	</linearGradient>
	<path class="st6" d="M532.6,381.7c0,0.2,0,0.4,0,0.6c0,0.3,0,0.7-0.1,1c0,0.1,0,0.2,0,0.3c0,0.3-0.1,0.5-0.1,0.7
		c0,0.2,0,0.5-0.1,0.7c0,0.1,0,0.3-0.1,0.4c0,0.3-0.1,0.5-0.1,0.8c0,0.2,0,0.4-0.1,0.5c0,0.2-0.1,0.3-0.1,0.4
		c-0.1,0.3-0.1,0.6-0.2,0.8c0,0.2-0.1,0.3-0.1,0.5c0,0.1-0.1,0.3-0.1,0.4c-0.1,0.3-0.2,0.7-0.3,1c0,0.1-0.1,0.3-0.1,0.4
		c0,0.1-0.1,0.2-0.1,0.3c-0.1,0.4-0.3,0.8-0.4,1.2c-0.1,0.1-0.1,0.3-0.1,0.4c0,0.1,0,0.1-0.1,0.2c-0.2,0.6-0.5,1.3-0.8,1.8
		c0,0,0,0.1,0,0.1c0,0.1-0.1,0.1-0.1,0.1c-0.4,0.8-0.8,1.5-1.2,2.2c0,0,0,0.1-0.1,0.1c0,0,0,0,0,0c-0.4,0.6-0.8,1.1-1.2,1.6
		c-0.1,0.1-0.2,0.2-0.3,0.4c-0.4,0.5-0.8,0.9-1.3,1.4c0,0,0,0.1-0.1,0.1c-0.5,0.4-0.9,0.9-1.4,1.2c-0.1,0.1-0.2,0.2-0.4,0.3
		c-0.5,0.4-1,0.7-1.6,1.1l-50.8,29.5c0.1-0.1,0.2-0.1,0.3-0.2c0.2-0.1,0.4-0.3,0.6-0.4c0.2-0.1,0.4-0.3,0.6-0.4
		c0.1-0.1,0.2-0.2,0.4-0.3c0.1-0.1,0.3-0.2,0.4-0.3c0.2-0.2,0.4-0.4,0.6-0.5c0.1-0.1,0.3-0.2,0.4-0.4c0,0,0-0.1,0.1-0.1
		c0.3-0.3,0.6-0.6,0.9-1c0.2-0.2,0.3-0.3,0.5-0.5c0.1-0.1,0.2-0.2,0.2-0.3c0.4-0.5,0.8-1.1,1.2-1.6c0,0,0.1-0.1,0.1-0.1c0,0,0,0,0,0
		c0.2-0.3,0.3-0.6,0.5-0.9c0.2-0.4,0.5-0.8,0.7-1.2c0-0.1,0.1-0.1,0.1-0.2c0-0.1,0.1-0.2,0.1-0.2c0.1-0.2,0.2-0.4,0.3-0.6
		c0.1-0.3,0.3-0.6,0.4-1c0.1-0.2,0.1-0.4,0.2-0.6c0.1-0.2,0.2-0.5,0.2-0.7c0.1-0.2,0.1-0.3,0.2-0.5c0.1-0.2,0.1-0.5,0.2-0.7
		c0.1-0.3,0.2-0.7,0.3-1c0.1-0.3,0.1-0.6,0.2-0.9c0-0.1,0.1-0.3,0.1-0.4c0-0.1,0.1-0.3,0.1-0.4c0,0,0,0,0,0c0.1-0.3,0.1-0.7,0.2-1
		c0-0.3,0.1-0.5,0.1-0.8c0-0.4,0.1-0.7,0.1-1.1c0-0.2,0-0.3,0.1-0.5c0-0.1,0-0.1,0-0.1c0,0,0-0.1,0-0.1c0-0.4,0.1-0.9,0.1-1.3
		c0-0.2,0-0.4,0-0.6c0-0.6,0.1-1.2,0.1-1.9l0,0c0,0,0-0.1,0-0.1c0-0.4-0.1-0.8-0.1-1.1c0-0.1,0-0.1,0-0.2h0c0,0,0-0.4,0-0.5
		c0-0.2,0-0.6,0-0.9c0-0.5,0-0.9-0.1-1.4c0-0.1,0-0.1,0-0.2c0-0.1,0-0.2,0-0.4c0,0,0-0.1,0-0.1c0-0.5-0.1-1-0.1-1.5
		c0-0.2,0-0.4-0.1-0.6c-0.1-0.7-0.2-1.4-0.3-2c0,0,0,0,0,0c0,0,0,0,0-0.1c0-0.1,0-0.1,0-0.2c-0.1-0.6-0.2-1.2-0.3-1.8
		c0-0.2-0.1-0.5-0.1-0.7c-0.1-0.5-0.2-0.9-0.3-1.4c0-0.1,0-0.1,0-0.2c0-0.1-0.1-0.3-0.1-0.4c0-0.1,0-0.1-0.1-0.2
		c-0.1-0.4-0.2-0.9-0.3-1.3c-0.1-0.3-0.1-0.5-0.2-0.8c-0.1-0.5-0.3-1-0.4-1.4c0-0.1-0.1-0.2-0.1-0.3c0-0.1,0-0.2-0.1-0.3
		c0,0,0,0,0-0.1c-0.2-0.7-0.4-1.4-0.7-2.1c0,0,0-0.1,0-0.1c-0.2-0.6-0.4-1.3-0.7-1.9c0,0,0-0.1,0-0.1c0-0.1-0.1-0.2-0.1-0.3
		c0-0.1-0.1-0.2-0.1-0.3c-0.2-0.5-0.4-1-0.6-1.5c-0.1-0.2-0.2-0.5-0.3-0.7c-0.2-0.5-0.4-1-0.6-1.5c0-0.1-0.1-0.2-0.1-0.3
		c0-0.1-0.1-0.2-0.1-0.2c0,0,0,0,0-0.1c-0.3-0.7-0.6-1.3-0.9-2c-0.1-0.2-0.2-0.3-0.2-0.5c-0.3-0.5-0.5-1-0.8-1.6c0,0,0-0.1,0-0.1
		c-0.1-0.1-0.1-0.2-0.2-0.4c-0.1-0.2-0.2-0.4-0.3-0.6c-0.2-0.3-0.4-0.7-0.5-1c-0.3-0.6-0.6-1.1-0.9-1.7c-0.2-0.3-0.4-0.6-0.5-1
		c0,0,0-0.1-0.1-0.1c-0.1-0.2-0.2-0.3-0.3-0.5c-0.3-0.4-0.6-0.9-0.8-1.3c-0.5-0.8-1-1.6-1.5-2.3c0-0.1-0.1-0.1-0.1-0.2
		c-0.1-0.2-0.2-0.4-0.4-0.5c-0.7-1-1.3-1.9-2-2.9c0,0,0,0,0,0c0,0,0,0,0,0c-0.5-0.7-1-1.3-1.5-2c-0.4-0.5-0.8-1-1.2-1.5
		c-0.1-0.1-0.1-0.1-0.2-0.2c0,0,0,0,0,0c0,0,0,0,0,0c-0.5-0.6-1-1.2-1.5-1.7c-0.1-0.2-0.3-0.3-0.4-0.5c-0.4-0.4-0.7-0.8-1.1-1.2
		c0,0,0,0-0.1-0.1c-0.1-0.1-0.2-0.2-0.2-0.3c-0.1-0.1-0.2-0.2-0.3-0.3c-0.3-0.3-0.6-0.7-0.9-1c-0.2-0.2-0.5-0.4-0.7-0.7
		c-0.3-0.3-0.6-0.6-0.9-0.9c0,0-0.1-0.1-0.1-0.1c-0.1-0.1-0.2-0.2-0.4-0.3c-0.1-0.1-0.2-0.1-0.2-0.2c-0.3-0.3-0.6-0.6-0.9-0.8
		c-0.2-0.2-0.5-0.4-0.7-0.6c-0.3-0.3-0.6-0.5-1-0.8c-0.1-0.1-0.1-0.1-0.2-0.2c-0.1-0.1-0.2-0.2-0.4-0.3c-0.1,0-0.1-0.1-0.2-0.1
		c-0.3-0.3-0.7-0.5-1-0.8c-0.2-0.2-0.5-0.4-0.7-0.5c-0.4-0.3-0.7-0.5-1.1-0.8c-0.1-0.1-0.2-0.2-0.3-0.2c-0.1,0-0.1-0.1-0.2-0.2
		c0,0,0,0-0.1,0c-0.6-0.4-1.1-0.8-1.7-1.1c0,0-0.1,0-0.1-0.1c-0.6-0.4-1.2-0.7-1.8-1.1c-1.7-1-3.4-1.8-5-2.5c0-0.8,0.1-1.5,0.1-2.3
		c0-2.6-0.1-5.2-0.3-7.8v0c0-0.6-0.1-1.1-0.2-1.7c-0.2-1.8-0.4-3.7-0.7-5.5c0,0,0,0,0,0c-0.2-1-0.3-2-0.5-3c0,0,0,0,0,0
		c-0.1-0.4-0.2-0.8-0.2-1.2c0,0,0,0,0,0c-0.1-0.5-0.2-0.9-0.3-1.4c-0.2-0.7-0.3-1.5-0.5-2.2c0,0,0,0,0,0c-0.2-0.7-0.4-1.5-0.6-2.2
		c0,0,0,0,0,0c-0.2-0.8-0.4-1.6-0.6-2.3c-0.1-0.5-0.3-0.9-0.4-1.4c0,0,0,0,0,0c-0.1-0.4-0.2-0.7-0.3-1.1c0,0,0,0,0,0
		c-0.4-1.2-0.7-2.3-1.1-3.5c0,0,0,0,0,0c0-0.1-0.1-0.2-0.1-0.2c0,0,0,0,0-0.1c-0.4-1.1-0.7-2.1-1.1-3.2c0,0,0,0,0,0
		c-0.6-1.7-1.3-3.5-2-5.2c-0.3-0.6-0.5-1.3-0.8-1.9c0,0,0,0,0,0c-0.1-0.3-0.2-0.6-0.4-0.9c0,0,0,0,0,0c-0.5-1.1-1-2.2-1.5-3.3
		c0,0,0,0,0,0c-0.2-0.4-0.4-0.7-0.5-1.1c-0.4-0.8-0.7-1.5-1.1-2.3c0,0,0,0,0,0c-0.3-0.6-0.6-1.2-0.9-1.8c0,0,0,0,0,0
		c-0.3-0.6-0.6-1.1-0.9-1.7c0,0,0,0,0,0c-0.8-1.6-1.7-3.1-2.6-4.6c0,0,0,0,0,0c-0.3-0.5-0.6-1-0.9-1.5c0,0,0,0,0,0
		c-0.4-0.6-0.7-1.2-1.1-1.9c0,0,0,0,0,0c-0.3-0.6-0.7-1.1-1-1.7c0,0,0,0,0,0c-0.4-0.6-0.8-1.2-1.2-1.8c0,0,0,0,0,0
		c-0.3-0.4-0.5-0.8-0.8-1.2c0,0,0,0,0,0c-1.1-1.6-2.2-3.3-3.4-4.9c0,0,0,0,0,0c0,0-0.1-0.1-0.1-0.1c-0.8-1.1-1.6-2.2-2.5-3.2
		c0,0,0,0,0,0c-0.7-0.8-1.3-1.7-2-2.5c0,0-0.1-0.1-0.1-0.1c-0.1-0.1-0.2-0.2-0.3-0.3c0,0,0,0,0,0c-0.8-1-1.6-1.9-2.5-2.9
		c0,0,0,0,0,0c-0.2-0.3-0.5-0.5-0.7-0.8c0,0,0,0,0,0c-0.6-0.7-1.2-1.3-1.8-2c0,0,0,0,0,0c-0.3-0.4-0.7-0.7-1-1.1c0,0,0,0,0,0
		c-0.5-0.5-0.9-1-1.4-1.4c-1.3-1.3-2.7-2.7-4.1-3.9c0,0,0,0,0,0c-0.5-0.5-1-0.9-1.5-1.4c0,0,0,0,0,0c-0.4-0.4-0.8-0.7-1.2-1.1
		c0,0,0,0,0,0c-0.5-0.5-1.1-0.9-1.6-1.3c0,0,0,0,0,0c-0.4-0.3-0.8-0.7-1.2-1c0,0,0,0,0,0c-0.6-0.4-1.1-0.9-1.7-1.3c0,0,0,0,0,0
		c-0.4-0.3-0.8-0.6-1.1-0.9c0,0,0,0,0,0c-0.6-0.5-1.2-0.9-1.9-1.4c0,0,0,0,0,0c-0.3-0.2-0.6-0.4-0.9-0.6c0,0,0,0,0,0
		c-0.9-0.6-1.9-1.3-2.8-1.9c-0.1,0-0.1-0.1-0.2-0.1c-1-0.6-1.9-1.2-2.9-1.8c-0.9-0.5-1.8-1-2.6-1.5c-0.3-0.2-0.7-0.4-1-0.5
		c-0.7-0.3-1.3-0.7-2-1c-0.3-0.1-0.6-0.3-0.9-0.5c-0.4-0.2-1.7-0.7-3-1.2c-26.3-10.4-46.9,2-50.4,30.4c-1.1-0.8-2.2-1.6-3.2-2.3
		c0,0,0,0,0,0c-0.1-0.1-0.2-0.1-0.3-0.2h0c0,0,0,0,0,0c-1.1-0.7-2.1-1.4-3.2-2c0,0,0,0,0,0c-0.6-0.3-1.2-0.7-1.8-1
		c-0.2-0.1-0.4-0.2-0.7-0.3c-0.4-0.2-0.9-0.4-1.3-0.7c-0.1,0-0.2-0.1-0.2-0.1c-0.1,0-0.2-0.1-0.3-0.1c0,0-0.1,0-0.1,0
		c-0.6-0.3-1.2-0.5-1.8-0.8c0,0-0.1,0-0.1,0c-0.6-0.3-1.2-0.5-1.9-0.7c0,0,0,0-0.1,0c-0.1,0-0.2-0.1-0.2-0.1c-0.1,0-0.2-0.1-0.3-0.1
		c-0.4-0.1-0.8-0.3-1.3-0.4c-0.2-0.1-0.5-0.1-0.7-0.2c-0.4-0.1-0.8-0.2-1.1-0.3c-0.1,0-0.1,0-0.2,0c-0.1,0-0.2-0.1-0.4-0.1
		c-0.1,0-0.1,0-0.2,0c-0.4-0.1-0.7-0.1-1-0.2c-0.3,0-0.6-0.1-0.8-0.1c-0.3,0-0.6-0.1-1-0.1c-0.1,0-0.2,0-0.4,0c-0.1,0-0.3,0-0.4,0
		c0,0-0.1,0-0.1,0c-0.3,0-0.6,0-0.8,0c-0.3,0-0.7,0-1,0c-0.2,0-0.5,0-0.7,0c-0.1,0-0.2,0-0.3,0c-0.2,0-0.4,0-0.6,0
		c-0.1,0-0.2,0-0.3,0c-0.2,0-0.4,0-0.7,0.1c-0.6,0.1-1.3,0.2-1.9,0.3c-0.1,0-0.1,0-0.2,0c0,0,0,0-0.1,0c-0.1,0-0.2,0.1-0.3,0.1
		c-0.4,0.1-0.8,0.2-1.2,0.3c-0.2,0.1-0.4,0.1-0.5,0.2c-0.3,0.1-0.6,0.2-0.9,0.3c0,0,0,0-0.1,0c-0.1,0-0.2,0.1-0.3,0.1
		c-0.2,0.1-0.5,0.2-0.7,0.3c-0.2,0.1-0.3,0.1-0.5,0.2c-0.5,0.2-1,0.5-1.4,0.8c0,0,0,0,0,0l50.8-29.5c0.5-0.3,1-0.5,1.5-0.8
		c0.2-0.1,0.3-0.1,0.5-0.2c0.4-0.2,0.7-0.3,1.1-0.4c0.1,0,0.1-0.1,0.2-0.1c0.2-0.1,0.5-0.2,0.7-0.2c0.2-0.1,0.4-0.1,0.5-0.2
		c0.4-0.1,0.8-0.2,1.2-0.3c0.1,0,0.2-0.1,0.4-0.1c0,0,0,0,0,0c0.1,0,0.1,0,0.2,0c0.6-0.1,1.3-0.2,1.9-0.3c0.1,0,0.2,0,0.3,0
		c0.1,0,0.3,0,0.4,0c0.4,0,0.8-0.1,1.3-0.1c0.1,0,0.3,0,0.4,0c0.1,0,0.2,0,0.3,0c0.3,0,0.7,0,1,0c0.2,0,0.4,0,0.6,0
		c0.1,0,0.2,0,0.3,0c0.3,0,0.6,0.1,0.9,0.1c0.2,0,0.4,0,0.7,0.1c0.1,0,0.2,0,0.3,0c0.3,0,0.5,0.1,0.8,0.1c0.2,0,0.4,0.1,0.7,0.1
		c0.1,0,0.3,0.1,0.4,0.1c0.2,0,0.5,0.1,0.7,0.2c0,0,0.1,0,0.1,0l35.6-20.7c0.7-0.4,1.5-0.8,2.3-1.2c0.3-0.1,0.5-0.2,0.8-0.3
		c0.5-0.2,1.1-0.5,1.6-0.7c0.1,0,0.2-0.1,0.3-0.1c0.3-0.1,0.7-0.2,1-0.3c0.3-0.1,0.6-0.2,0.9-0.3c0.5-0.1,1-0.3,1.6-0.4
		c0.2-0.1,0.5-0.1,0.7-0.2c0,0,0.1,0,0.1,0c0.7-0.1,1.4-0.2,2.1-0.3c0.2,0,0.4,0,0.6-0.1c0.3,0,0.5-0.1,0.8-0.1c0.2,0,0.4,0,0.6,0
		c0.6,0,1.2-0.1,1.8-0.1c0.2,0,0.4,0,0.7,0c0.1,0,0.3,0,0.4,0c0.5,0,1,0,1.6,0.1c0.3,0,0.6,0,0.9,0c0.1,0,0.3,0,0.4,0
		c0.5,0,0.9,0.1,1.4,0.1c0.3,0,0.7,0.1,1,0.1c0.1,0,0.3,0,0.4,0.1c0.4,0.1,0.8,0.1,1.1,0.2c0.3,0.1,0.7,0.1,1,0.2
		c0.2,0,0.4,0.1,0.6,0.1c0.4,0.1,0.7,0.2,1.1,0.2c0.3,0.1,0.6,0.1,0.8,0.2c0.3,0.1,0.5,0.2,0.8,0.2c0.3,0.1,0.7,0.2,1,0.3
		c0.2,0.1,0.4,0.1,0.6,0.2c0.4,0.1,0.8,0.3,1.2,0.4c0.3,0.1,0.6,0.2,0.9,0.3c0.1,0,0.2,0.1,0.3,0.1c0.8,0.3,1.6,0.6,2.4,0.9
		c0.8,0.3,1.6,0.7,2.4,1c0.1,0.1,0.2,0.1,0.4,0.2c0.3,0.1,0.6,0.3,0.9,0.4c0.4,0.2,0.8,0.4,1.2,0.6c0.3,0.1,0.5,0.3,0.8,0.4
		c0.3,0.2,0.7,0.3,1,0.5c0.2,0.1,0.5,0.2,0.7,0.4c0.6,0.3,1.3,0.7,1.9,1.1c0.2,0.1,0.4,0.2,0.6,0.3c0.8,0.5,1.6,0.9,2.3,1.4
		c0.1,0,0.1,0.1,0.2,0.1c0,0,0,0,0,0c0.9,0.5,1.7,1.1,2.6,1.7c0.1,0.1,0.2,0.1,0.2,0.2c0.3,0.2,0.6,0.5,1,0.7c0.5,0.3,0.9,0.7,1.4,1
		c0.2,0.1,0.3,0.2,0.5,0.4c0.4,0.3,0.8,0.6,1.1,0.9c0.3,0.3,0.7,0.5,1,0.8c0.2,0.2,0.4,0.3,0.6,0.5c0.4,0.3,0.8,0.7,1.2,1
		c0.3,0.2,0.6,0.4,0.8,0.7c0.3,0.2,0.5,0.4,0.8,0.7c0.4,0.4,0.8,0.7,1.2,1.1c0.2,0.2,0.5,0.4,0.7,0.6c0.3,0.3,0.6,0.5,0.9,0.8
		c0.4,0.4,0.8,0.8,1.2,1.1c0.2,0.2,0.4,0.3,0.6,0.5c0.3,0.3,0.7,0.6,1,1c0.4,0.4,0.8,0.7,1.1,1.1c0.1,0.1,0.3,0.3,0.4,0.4
		c0.4,0.4,0.8,0.8,1.1,1.2c0.3,0.4,0.7,0.7,1,1.1c0.1,0.1,0.2,0.2,0.3,0.3c0.5,0.5,1,1.1,1.5,1.7c0.2,0.3,0.5,0.5,0.7,0.8
		c0,0,0.1,0.1,0.1,0.1c0.8,0.9,1.6,1.8,2.3,2.7c0,0,0,0,0,0c0.1,0.1,0.2,0.3,0.3,0.4c0.7,0.8,1.3,1.6,1.9,2.4c0,0,0,0.1,0,0.1
		c0.9,1.1,1.6,2.2,2.4,3.3c0,0-0.3,0-0.3,0c0,0,0,0,0,0c1,1.6,2.6,3.2,3.7,4.9c0.1,0.2,0.6,0.4,0.7,0.6c0.1,0.2,0.3,0.4,0.4,0.6
		c0.4,0.6,0.8,1.2,1.2,1.8c0.4,0.6,0.7,1.1,1.1,1.7c0.4,0.6,0.8,1.2,1.1,1.9c0.2,0.4,0.5,0.8,0.7,1.2c0.1,0.1,0.1,0.3,0.2,0.4
		c0.9,1.5,1.8,3.1,2.6,4.6c0,0.1,0.1,0.2,0.1,0.3c0.3,0.5,0.5,1,0.8,1.5c0.3,0.6,0.6,1.2,0.9,1.8c0.1,0.1,0.1,0.2,0.2,0.3
		c0.4,0.7,0.7,1.5,1.1,2.2c0.1,0.3,0.3,0.6,0.4,0.8c0,0,0,0.1,0.1,0.1c0.5,1,0.9,1.9,1.3,2.9c0,0.1,0.1,0.2,0.1,0.3
		c0.1,0.3,0.3,0.6,0.4,0.9c0.2,0.6,0.5,1.1,0.7,1.7c0.1,0.3,0.2,0.6,0.3,0.8c0.2,0.4,0.3,0.8,0.5,1.2c0.1,0.3,0.3,0.6,0.4,0.9
		c0.2,0.5,0.4,1,0.6,1.5c0.1,0.3,0.3,0.7,0.4,1c0.1,0.1,0.1,0.3,0.2,0.4c0.3,0.9,0.6,1.8,1,2.7c0,0.1,0.1,0.2,0.1,0.3c0,0,0,0,0,0
		c0.3,1,0.7,2.1,1,3.1c0,0.1,0.1,0.2,0.1,0.3c0.1,0.4,0.2,0.8,0.3,1.1c0.2,0.6,0.3,1.2,0.5,1.7c0.1,0.2,0.1,0.4,0.2,0.6
		c0.1,0.4,0.2,0.9,0.3,1.3c0.1,0.4,0.2,0.8,0.3,1.2c0.1,0.3,0.2,0.7,0.2,1c0.1,0.4,0.2,0.9,0.3,1.3c0.1,0.3,0.1,0.5,0.2,0.8
		c0.1,0.5,0.2,1,0.3,1.5c0.1,0.4,0.2,0.8,0.2,1.2c0,0.2,0.1,0.3,0.1,0.5c0.2,0.8,0.3,1.7,0.4,2.5c0,0.1,0.1,0.3,0.1,0.4
		c0,0,0,0,0,0.1c0.2,1,0.3,2,0.4,3c0,0.1,0,0.2,0,0.3c0,0.3,0.1,0.6,0.1,1c0.1,0.6,0.1,1.1,0.2,1.7c0,0.3,0.1,0.5,0.1,0.8
		c0,0.4,0.1,0.8,0.1,1.2c0,0.3,0.1,0.7,0.2,1c0,0.4,0.2,0.9,0.2,1.3c0,0.4,0.3,6.3,0.1,6.8c0.2,0.1,0.4,0.2,0.6,0.3
		c0.5,0.2,1,0.4,1.4,0.7c0,0,0,0,0,0c0,0,0.1,0,0.1,0c0.4,0.2,0.9,0.4,1.3,0.7c0.4,0.2,0.8,0.4,1.1,0.6c0.1,0.1,0.2,0.1,0.4,0.2
		c0.5,0.3,0.9,0.6,1.4,0.9c0,0,0.1,0,0.1,0.1c0,0,0,0,0,0c0.5,0.3,1,0.7,1.5,1c0,0,0.1,0.1,0.1,0.1c0.2,0.1,0.4,0.3,0.6,0.4
		c0.3,0.2,0.6,0.4,0.8,0.6c0.1,0.1,0.2,0.1,0.3,0.2c0.2,0.2,0.5,0.3,0.7,0.5c0.2,0.2,0.4,0.3,0.6,0.5c0.1,0.1,0.3,0.2,0.4,0.3
		c0.2,0.2,0.5,0.4,0.7,0.6c0.2,0.1,0.3,0.3,0.5,0.4c0.2,0.1,0.3,0.3,0.5,0.4c0.2,0.2,0.5,0.4,0.7,0.6c0.1,0.1,0.3,0.2,0.4,0.4
		c0.2,0.2,0.3,0.3,0.5,0.5c0.2,0.2,0.5,0.5,0.7,0.7c0.1,0.1,0.2,0.2,0.3,0.3c0.2,0.2,0.4,0.4,0.6,0.6c0.2,0.2,0.5,0.4,0.7,0.7
		c0.1,0.1,0.2,0.2,0.3,0.3c0.2,0.2,0.5,0.5,0.7,0.7c0.2,0.2,0.4,0.4,0.6,0.6c0.1,0.1,0.1,0.1,0.2,0.2c0.3,0.3,0.6,0.7,0.9,1
		c0.1,0.2,0.3,0.3,0.4,0.5c0,0,0,0.1,0.1,0.1c0.5,0.5,0.9,1.1,1.4,1.6c0,0,0,0,0,0c0.1,0.1,0.1,0.2,0.2,0.2c0.4,0.5,0.8,1,1.2,1.5
		c0,0,0,0.1,0.1,0.1c0.5,0.7,1,1.3,1.5,2c0,0,0,0,0,0v0c0.7,1,1.4,1.9,2,2.9c0.1,0.1,0.2,0.2,0.2,0.3c0,0.1,0.1,0.1,0.1,0.2
		c0.8,1.2,1.6,2.5,2.4,3.8c0.1,0.1,0.1,0.2,0.2,0.3c0,0.1,0.1,0.2,0.1,0.2c0.5,0.9,1.1,1.8,1.6,2.8c0,0.1,0.1,0.1,0.1,0.2
		c0.2,0.3,0.3,0.6,0.5,0.9c0.2,0.4,0.4,0.7,0.6,1.1c0,0.1,0.1,0.1,0.1,0.2c0.2,0.5,0.4,0.9,0.7,1.4c0.1,0.2,0.1,0.3,0.2,0.5
		c0,0,0,0,0,0.1c0.3,0.6,0.5,1.2,0.8,1.7c0,0.1,0.1,0.1,0.1,0.2c0.1,0.2,0.2,0.4,0.2,0.5c0.1,0.3,0.3,0.7,0.4,1
		c0.1,0.2,0.1,0.3,0.2,0.5c0.1,0.2,0.2,0.5,0.3,0.7c0.1,0.2,0.2,0.4,0.2,0.6c0.1,0.3,0.2,0.6,0.3,0.9c0.1,0.2,0.2,0.4,0.2,0.6
		c0,0.1,0.1,0.2,0.1,0.3c0.2,0.6,0.4,1.1,0.6,1.7c0,0.1,0,0.1,0.1,0.2c0,0,0,0,0,0c0.2,0.6,0.4,1.2,0.6,1.9c0,0.1,0,0.1,0.1,0.2
		c0.1,0.2,0.1,0.5,0.2,0.7c0.1,0.3,0.2,0.7,0.3,1c0,0.1,0.1,0.3,0.1,0.4c0.1,0.3,0.1,0.5,0.2,0.8c0.1,0.2,0.1,0.5,0.2,0.7
		c0.1,0.2,0.1,0.4,0.1,0.6c0.1,0.3,0.1,0.5,0.2,0.8c0,0.2,0.1,0.3,0.1,0.5c0.1,0.3,0.1,0.6,0.2,0.9c0,0.2,0.1,0.5,0.1,0.7
		c0,0.1,0,0.2,0.1,0.3c0.1,0.5,0.2,1,0.3,1.5c0,0.1,0,0.2,0,0.3c0,0,0,0,0,0c0.1,0.6,0.2,1.2,0.3,1.8c0,0.1,0,0.1,0,0.2
		c0,0.2,0,0.4,0.1,0.6c0,0.3,0.1,0.7,0.1,1c0,0.2,0,0.3,0,0.5c0,0.2,0,0.5,0.1,0.7c0,0.2,0.1,0.4,0.1,0.6c0,0.3,0.1,0.5,0.1,0.8
		C532.7,377.3,532.6,381.6,532.6,381.7z M285.2,256.4C285.2,256.4,285.2,256.4,285.2,256.4L285.2,256.4
		C285.2,256.4,285.2,256.4,285.2,256.4z"/>
	<linearGradient id="SVGID_4_" gradientUnits="userSpaceOnUse" x1="604.6542" y1="537.6262" x2="604.6542" y2="396.4591">
		<stop  offset="8.011200e-04" style="stop-color:#871FFF"/>
		<stop  offset="1" style="stop-color:#80C7F5"/>
	</linearGradient>
	<path class="st7" d="M485.6,470.1l113.9,65.8c3.1,1.8,7,1.8,10.2,0l113.9-65.8c3.8-2.2,3.8-7.6,0-9.8l-113.9-65.8
		c-3.1-1.8-7-1.8-10.2,0l-113.9,65.8C481.9,462.5,481.9,467.9,485.6,470.1z"/>
	<path class="st8" d="M171.6,405.2l24.2,13.9l60.3-34.8c0,0-24.1-13.9-24.1-13.9L171.6,405.2z"/>
	<path class="st3" d="M256,384.3l0,4.6c0,1.5-0.8,2.8-2,3.5l-54.2,31.3c-2.5,1.4-5.6,1.4-8.1,0l-18.1-10.4c-1.3-0.7-2-2.1-2-3.5
		v-4.6l24.2,13.9L256,384.3z"/>
	<polygon class="st8" points="207.8,363.4 207.8,377.3 183.7,391.3 183.7,377.3 	"/>
	<polygon class="st3" points="147.5,398.2 232,349.5 231.9,279.8 147.5,328.6 	"/>
	<path class="st9" d="M147.5,398.2l-4-2.3c-1.3-0.7-2-2.1-2-3.5l0-63.8c0-2.2,1.2-4.2,3-5.3l78.4-45.2c1.9-1.1,4.2-1.1,6.1,0
		l2.9,1.7l-84.4,48.7L147.5,398.2z"/>
	<linearGradient id="SVGID_5_" gradientUnits="userSpaceOnUse" x1="189.7258" y1="292.6142" x2="189.7258" y2="390.4137">
		<stop  offset="0" style="stop-color:#CF3393"/>
		<stop  offset="0.9984" style="stop-color:#F8A58D"/>
	</linearGradient>
	<path class="st10" d="M158.1,385.1l63.8-36.8c2.5-1.5,4.1-4.1,4.1-7l0-45.8c0-2.3-2.5-3.8-4.6-2.6l-63.8,36.9
		c-2.5,1.5-4.1,4.1-4.1,7v45.7C153.5,384.8,156,386.3,158.1,385.1z"/>
	<g>
		<defs>
			<path id="SVGID_6_" d="M157.6,385.3l63.8-36.8c2.5-1.5,4.1-4.1,4.1-7l0-45.8c0-2.3-2.5-3.8-4.6-2.6L157,329.9
				c-2.5,1.5-4.1,4.1-4.1,7v45.7C153,385,155.5,386.5,157.6,385.3z"/>
		</defs>
		<clipPath id="SVGID_7_">
			<use xlink:href="#SVGID_6_"  style="overflow:visible;"/>
		</clipPath>
		<g class="st11">
			<path class="st12" d="M161,347.8l16.6-9.6c4.1-2.4,9.3-0.3,11.1,4.6l5.1,13.4c1.2-1,3.1-0.9,5.3,0.4l22.4,13.7
				c3.6,2.2,6.6,7.2,6.6,11l-0.4,6.2c0,2-0.7,3.5-1.9,4.2c-0.2,0.4-0.8,1.4-1.6,2.4l4.7,31.8c0.2,1.4-0.7,2.6-2.1,2.8l-0.3,0
				c-1.4,0.2-2.6-0.7-2.8-2.1l-4.3-28.9L194.9,412l4.7,31.7c0.2,1.4-0.8,2.8-2.2,3h0c-1.4,0.2-2.8-0.8-3-2.2l-4.5-30.6
				c-0.9-0.1-1.9-0.5-3.1-1.1l-13.8-8.5l-3.6,24.1c-0.2,1.3-1.4,2.1-2.6,2l-0.6-0.1c-1.3-0.2-2.1-1.4-2-2.6l3.9-26.4l-3.7-2.3
				c-3.6-2.2-6.8-6.9-7-10.4l-0.2-3.4c-0.1-2.2,1-3.5,2.8-3.5l-3.2-24.8C156.4,353.2,158.1,349.5,161,347.8z"/>
			<g>
				<path class="st3" d="M208.6,352.4l-1.5-2.4c0,0-6.2-16.1-10.3-20.2c-2.5-2.6-4.9-3-8.4-2.3c-3.9,0.8-7.8,3.2-9.7,5.3
					c-7,7.5-21.8,34.7-21.8,34.7l10.9,2.6l7.7-11.9l-3.1,25.5l16.1,11.9l26.8-14.4l-4.1-14.8l6.9-6.5L208.6,352.4z"/>
				<circle cx="188.4" cy="322.7" r="4.9"/>
				<path d="M167.9,370.2l-3.8,6.1c-1.5,2.5-4.8,3.4-7.3,1.8l0,0c-2.5-1.5-3.2-4.7-1.8-7.2l2-3.4L167.9,370.2z"/>
				<path class="st12" d="M188.4,317.8c-2.7,0-4.9,2.2-4.9,4.9c0,0.7,0.1,1.3,0.4,1.9c0.8-0.3,1.8-4.6,1.8-4.6s5.6,1.8,7.4,1.2
					C192.5,319.3,190.6,317.8,188.4,317.8z"/>
				<polygon points="186.6,332.1 195.2,347.5 194.1,332 191.6,334.2 				"/>
			</g>
			
				<linearGradient id="SVGID_8_" gradientUnits="userSpaceOnUse" x1="-974.0392" y1="420.9063" x2="-795.0579" y2="420.9063" gradientTransform="matrix(-1 0 0 1 -655.7872 0)">
				<stop  offset="0" style="stop-color:#73BAE7"/>
				<stop  offset="1" style="stop-color:#86C5EC"/>
			</linearGradient>
			<path class="st13" d="M139.3,449.4l4.7-39.6l-2-0.7c-1.2-0.7-1.8-1.6-1.7-2.4h0v-5.4h0c0.1-0.6,0.5-1.1,1.2-1.5l114-50.9
				c1.8-1,5-0.9,7.1,0.3l53.9,31.1c1,0.6,1.6,1.3,1.7,2l0,0v0c0,0.2,0,0.4,0,0.6v4.6c0.1,0.8-0.3,1.5-1.2,2.1l-7.1,4.1l6.9,46.8
				c0.1,0.8-0.4,1.6-1.1,1.7c-0.8,0.2-1.6-0.4-1.7-1.2l-6.8-45.7l-99.5,42.5l0.7,8.6l0,0l3.9,45.1c0.1,1-0.6,1.9-1.5,2
				c-1,0.1-1.9-0.6-2-1.6l-3.7-43.2l-0.9-8.8l-1.1,0.6c-1.8,1-5,0.9-7.1-0.3l-48.6-28.5l-4.5,38.1c-0.1,1-1,1.7-2,1.6l0,0
				C139.8,451.2,139.2,450.4,139.3,449.4z"/>
			<path class="st12" d="M193.1,388.3l34.1-14.9c0.2-0.1,0.4-0.1,0.7,0l11.7,6.6c0.5,0.3,0.5,0.9,0.1,1.1l-0.2,0.1l0.2,0.1
				c0.4,0.2,0.4,0.8,0,1.1l-34,14.8c-0.2,0.1-0.4,0.1-0.6,0l-10.3-6c-0.4-0.2-0.4-0.8,0-1l-1.5-0.8
				C192.8,389.2,192.7,388.5,193.1,388.3z"/>
			<path class="st12" d="M231.6,410.4l1.5-31.5l0-0.1c0-0.4,0.4-0.7,0.7-0.9l0.2,0.1l39-18.1l0.4-0.3c0.3-0.2,0.5-0.1,0.9,0.3l1.3,1
				c0.2,0,0.3,0.1,0.3,0.4l-1.6,28.1c0,0.1-0.1,0.2-0.1,0.4l-0.2,4.3c0,0.4-0.3,0.8-0.6,1l-9.1,4.5l2.3,3.9c0.1,0.8-0.3,1.6-1,2
				l-6.6,2.8c-0.3,0.2-0.7,0.2-1,0.2c-0.5,0.1-1.1,0-1.5-0.3l-4.8-2.7l-17.7,7.7c-0.2,0.1-0.4,0.1-0.5,0c-0.6,0.1-1.1-0.3-1.4-0.7
				c-0.2-0.3-0.4-0.6-0.3-1L231.6,410.4C231.7,410.4,231.6,410.4,231.6,410.4z"/>
		</g>
	</g>
	<g>
		<circle class="st14" cx="251.6" cy="350.9" r="3.6"/>
		<path class="st15" d="M249.6,437h2.3v-44.9h10.7V437h0v4h-13c-1.1,0-2-0.9-2-2S248.5,437,249.6,437z M234.5,434.1c0,1.1,0.9,2,2,2
			h13V433h0v-42.2h-10.7v41.3h-2.3C235.3,432.1,234.5,433,234.5,434.1z"/>
		<path class="st3" d="M237.6,393.8h26.1c0,0-2.8-40.2-12.1-40.2C243.5,353.6,237.6,393.8,237.6,393.8z"/>
		<g>
			<path d="M258.8,368.9l-2,9.4c-0.5,2.3-2.8,3.8-5.1,3.3c-0.1,0-0.3-0.1-0.4-0.1l-0.1,0l-23-7.4c-2.1-0.7-3.3-3-2.6-5.1
				c0.7-2.1,2.9-3.3,5-2.7l23.2,6.8l-5.6,3.1l2.7-9.2c0.6-2.2,2.9-3.4,5.1-2.8C258,364.7,259.2,366.8,258.8,368.9z"/>
		</g>
		<polygon class="st3" points="260.8,372.4 248.2,367.7 248.2,359.2 256.9,361.1 		"/>
		<path class="st16" d="M253.1,350.5l-5-0.1c0,0.1,0,0.1,0,0.2c0.2-1.8,1.7-3.3,3.6-3.3c2,0,3.6,1.6,3.6,3.6c0,0.5-0.1,1-0.3,1.4
			C253.3,351.6,253.1,350.5,253.1,350.5z"/>
	</g>
	<g>
		<path class="st15" d="M471.7,488.4c0,4.8-4.6,8.3-7.2,12.4c-2.4,3.8-3.5,9.5-7.6,12.2c-3.7,2.4-9.5,1.3-14.2,2.6
			c-4.4,1.2-8.6,5.2-13.5,5.2c-4.9,0-9.1-4-13.5-5.2c-4.8-1.3-10.5-0.1-14.2-2.6c-4.2-2.7-5.2-8.4-7.6-12.2c-2.6-4-7.2-7.6-7.2-12.4
			c0-4.8,4.6-8.3,7.2-12.4c2.4-3.8,3.5-9.5,7.6-12.2c3.7-2.4,9.5-1.3,14.2-2.6c4.4-1.2,8.6-5.2,13.5-5.2c4.9,0,9.1,4,13.5,5.2
			c4.8,1.3,10.5,0.1,14.2,2.6c4.2,2.7,5.2,8.4,7.6,12.2C467.1,480.1,471.7,483.6,471.7,488.4z"/>
	</g>
	<g>
		<path class="st3" d="M425.7,532.2c0.6-1.9,1-3.7,1.3-5.6c0.3-1.9,0.6-3.7,0.8-5.6c0.4-3.7,0.6-7.4,0.7-11.2
			c0.3-7.4,0.5-14.9,0.4-22.3h0.6c-0.1,7.4,0.1,14.9,0.4,22.3c0.2,3.7,0.3,7.4,0.7,11.2c0.2,1.9,0.5,3.7,0.8,5.6
			c0.3,1.9,0.7,3.7,1.3,5.6H425.7z"/>
	</g>
	<g>
		<circle cx="468.4" cy="524.6" r="2.1"/>
		
			<linearGradient id="SVGID_9_" gradientUnits="userSpaceOnUse" x1="-11110.7607" y1="520.9835" x2="-11127.7676" y2="542.7875" gradientTransform="matrix(-1 0 0 1 -10646.4551 0)">
			<stop  offset="0" style="stop-color:#CF3393"/>
			<stop  offset="0.9984" style="stop-color:#F8A58D"/>
		</linearGradient>
		<path class="st17" d="M467.9,524.3c-0.2,0.5-0.7,3.3-2.7,2.8c-0.1-0.3,1.1-0.6,0.9-1.9c-0.1-0.8,0.2-1.7,0.7-2
			c-0.8,0-1.4-0.6-1.4-1.4c0-0.8,0.6-1.4,1.4-1.4c0.8,0,1.4,0.6,1.4,1.4c0,0.3-0.1,0.5-0.2,0.7c0.1,0,0.3,0,0.4,0c1,0,1.8,0.6,2,1.5
			C469.6,524.2,469,524.4,467.9,524.3z"/>
		
			<linearGradient id="SVGID_10_" gradientUnits="userSpaceOnUse" x1="-11113.335" y1="518.975" x2="-11130.3428" y2="540.7791" gradientTransform="matrix(-1 0 0 1 -10646.4551 0)">
			<stop  offset="0" style="stop-color:#CF3393"/>
			<stop  offset="0.9984" style="stop-color:#F8A58D"/>
		</linearGradient>
		<path class="st18" d="M483.3,541c-0.1,0.8-0.9,1.4-1.7,1.2l-2.6-0.4c-0.8-0.1-1.4-0.9-1.2-1.7l1.1-6.7c0.1-0.8,0.9-1.4,1.7-1.2
			l2.6,0.4c0.8,0.1,1.4,0.9,1.2,1.7L483.3,541z"/>
		<path class="st8" d="M460,560.3l0.5-10h15.3l12,26.3l3.1-1.5c1.5-0.6,2.2,0.6,2.2,0.6c1,1.6-0.5,2.6-0.5,2.6l-10.9,5.2l-13.2-29.7
			l-0.8,11.4l-13.5,8.4l2,4c0.8,1.6-0.6,2.5-0.6,2.5c-1.8,1-2.9-0.4-2.9-0.4l-6.4-11.2L460,560.3z"/>
		<path d="M483.8,536.2c0-1.4-1.1-2.6-2.6-2.6c0,0,0,0-0.1,0c-0.7,0-1.3,0.2-1.3,0.2l-10.9,3.3l-0.6-1.9l-4.6,1.8l0.8,3.7
			c0.7,3.2,3.9,2.1,3.9,2.1l13.3-4.1C482.9,538.5,483.8,537.5,483.8,536.2z"/>
		<path class="st19" d="M476.9,532c0,0,1.4-3.7,5.2-2.5"/>
		<path class="st19" d="M474.1,531.3c0,0,1.7-6.8,9.6-4.6"/>
		<path class="st19" d="M482.1,544.6c0,0,3.6,0.1,3.6-3.1"/>
		<path class="st19" d="M488.3,541.4c0,0,1.6,5.6-5.8,6.4"/>
	</g>
	<g>
		<polygon class="st20" points="208.4,197.2 208.5,237.6 224.7,246.9 230.2,260.5 236.3,253.6 255.1,264.5 255,224.1 		"/>
		<g>
			<g>
				<path class="st3" d="M241.4,232.7c0-3.6-2.2-7.8-4.9-9.3c-2-1.2-3.8-0.5-4.5,1.4c-0.7-2.8-2.5-5.4-4.5-6.6
					c-2.7-1.6-4.9,0.1-4.9,3.7c0,1.8,0.6,3.8,1.5,5.5l7.9,16l8.1-7l0,0C240.9,235.7,241.4,234.4,241.4,232.7z"/>
			</g>
		</g>
		
			<linearGradient id="SVGID_11_" gradientUnits="userSpaceOnUse" x1="1960.817" y1="189.6149" x2="1887.5022" y2="262.9297" gradientTransform="matrix(-1 0 0 1 2158.9294 0)">
			<stop  offset="8.011200e-04" style="stop-color:#871FFF"/>
			<stop  offset="1" style="stop-color:#80C7F5"/>
		</linearGradient>
		<path class="st21" d="M255,224.1l0.1,40.4l7.7-4.4c2.4-1.4,3.9-4,3.9-6.8l-0.1-29.1c0-4.2-2.2-8-5.9-10.1l-36.7-21.2
			c-2.4-1.4-5.4-1.4-7.8,0l-7.8,4.5L255,224.1z M230.2,260.5l6.1-6.9l3.2,1.8L230.2,260.5z"/>
	</g>
	<g>
		<polygon class="st3" points="479.3,487.9 479.4,513.6 489.7,519.6 493.1,528.2 497,523.8 509,530.7 508.9,505 		"/>
		
			<ellipse transform="matrix(0.9202 -0.3916 0.3916 0.9202 -160.9942 236.6152)" class="st15" cx="499.7" cy="513.1" rx="1.6" ry="2.8"/>
		
			<ellipse transform="matrix(0.9202 -0.3916 0.3916 0.9202 -160.0126 233.7056)" class="st15" cx="493" cy="509.2" rx="1.6" ry="2.8"/>
		
			<ellipse transform="matrix(0.9202 -0.3916 0.3916 0.9202 -159.0415 230.7982)" class="st15" cx="486.4" cy="505.4" rx="1.6" ry="2.8"/>
		<path class="st15" d="M508.9,505l0.1,25.7l4.9-2.8c1.5-0.9,2.5-2.5,2.5-4.3l-0.1-18.5c0-2.7-1.4-5.1-3.7-6.5l-23.4-13.5
			c-1.5-0.9-3.4-0.9-5,0l-5,2.9L508.9,505z M493.1,528.2l3.9-4.4l2,1.2L493.1,528.2z"/>
	</g>
	
		<linearGradient id="SVGID_12_" gradientUnits="userSpaceOnUse" x1="1074.3171" y1="418.3934" x2="1080.9147" y2="418.3934" gradientTransform="matrix(-1 0 0 1 1714.6313 0)">
		<stop  offset="8.011200e-04" style="stop-color:#6A5CA7"/>
		<stop  offset="1" style="stop-color:#73BFE9"/>
	</linearGradient>
	<path class="st22" d="M640.1,428.6c-1.8-6.9-3.8-13.7-6.1-20.4"/>
	<path class="st15" d="M625.8,397.3l0,110.4l51.5-29.7l0-110.4L625.8,397.3z M629.5,497.1l0-97.6l3.7-2.1l0,4.2l36.8-21.2l0-4.2
		l3.7-2.1l0,97.6L629.5,497.1z"/>
	<linearGradient id="SVGID_13_" gradientUnits="userSpaceOnUse" x1="647.8612" y1="505.7689" x2="647.8612" y2="363.3531">
		<stop  offset="0" style="stop-color:#CF3293"/>
		<stop  offset="1" style="stop-color:#F8A58D"/>
	</linearGradient>
	<path class="st23" d="M677.3,367.6l-6.1-3.5c-0.8-0.4-1.7-0.4-2.5,0l-47.8,27.6c-1.5,0.9-2.5,2.5-2.5,4.3l0,107.5l7.4,4.2l0-110.4
		L677.3,367.6z"/>
	<polygon class="st3" points="629.5,497.1 629.5,399.5 633.2,397.3 633.2,401.6 669.9,380.4 669.9,376.1 673.6,374 673.6,471.6 	"/>
	<linearGradient id="SVGID_14_" gradientUnits="userSpaceOnUse" x1="647.8612" y1="422.9316" x2="689.0028" y2="422.9316">
		<stop  offset="0" style="stop-color:#CF3293"/>
		<stop  offset="1" style="stop-color:#F8A58D"/>
	</linearGradient>
	<polygon class="st24" points="647.9,448 647.9,416.7 684,395.9 689,397.9 652.9,450 	"/>
	<polygon class="st3" points="652.9,450 652.9,418.7 689,397.9 689,429.1 	"/>
	<polygon class="st15" points="689,397.9 676.9,425.7 652.9,418.7 	"/>
	<g>
		<polygon class="st3" points="547.5,414.4 547.6,448.7 561.3,456.6 566,468 571.1,462.2 587.1,471.4 587,437.2 		"/>
		<g>
			<g>
				<polygon class="st15" points="580.6,444.6 551,427.5 551,425.8 580.6,442.8 				"/>
			</g>
			<g>
				<polygon class="st15" points="580.6,450.4 551,433.3 551,431.5 580.6,448.6 				"/>
			</g>
			<g>
				<polygon class="st15" points="580.6,456 551,438.9 551,437.1 580.6,454.2 				"/>
			</g>
			<g>
				<polygon class="st15" points="565.8,453.2 551,444.6 551,442.8 565.8,451.4 				"/>
			</g>
		</g>
		<linearGradient id="SVGID_15_" gradientUnits="userSpaceOnUse" x1="548.8111" y1="417.9922" x2="597.0735" y2="466.2546">
			<stop  offset="0" style="stop-color:#CF3393"/>
			<stop  offset="0.9984" style="stop-color:#F8A58D"/>
		</linearGradient>
		<path class="st25" d="M547.5,414.4l6.6-3.8c2.1-1.2,4.6-1.2,6.6,0l31.1,18c3.1,1.8,5,5,5,8.6l0.1,24.6c0,2.4-1.3,4.6-3.3,5.8
			l-6.5,3.8l-0.1-34.2L547.5,414.4z M574.1,464l-3-1.8L566,468L574.1,464z"/>
	</g>
	<g>
		<linearGradient id="SVGID_16_" gradientUnits="userSpaceOnUse" x1="337.7124" y1="499.9586" x2="403.9301" y2="499.9586">
			<stop  offset="0" style="stop-color:#CF3293"/>
			<stop  offset="1" style="stop-color:#F8A58D"/>
		</linearGradient>
		<path class="st26" d="M403.9,452.5c-0.9-1.9-32-16-32-16v0.1c-0.7-0.6-1.5-0.9-2.5-0.9l-27.9,13.6c-3,1.1-3.8,3-3.8,5.1v88.8
			c0,2.1,0,5.7,3.8,6.8l33.9,14.5c2.6-1-2.7-4.9-2.7-7l0.4-90L403.9,452.5z"/>
		<path class="st3" d="M401.2,552.3l-25.7,12c-2.1,0-3.8-1.7-3.8-3.8v-90.8c0-2.1,0.9-3.9,3.8-5l25.7-13.5c1.4-0.7,3.8,1.7,3.8,3.8
			v92.2C404.9,549.4,403.7,551.3,401.2,552.3z"/>
		<polygon points="381.6,545.8 381.6,562 397.9,553.9 397.9,537.8 		"/>
		<polygon points="385.9,536.2 381.6,537.8 381.6,521.9 385.9,520.3 		"/>
		<polygon points="398.1,529.9 393.9,531.4 393.9,515.5 398.1,513.9 		"/>
		<polygon points="385.8,512.3 381.5,513.9 381.5,497.9 385.8,496.3 		"/>
		<polygon points="398,505.9 393.7,507.5 393.7,491.6 398,490 		"/>
		<polygon points="385.8,487.3 381.5,488.9 381.5,472.9 385.8,471.3 		"/>
		<polygon points="398,480.9 393.7,482.5 393.7,466.5 398,464.9 		"/>
	</g>
	<g>
		<linearGradient id="SVGID_17_" gradientUnits="userSpaceOnUse" x1="418.6942" y1="347.327" x2="326.7774" y2="330.4562">
			<stop  offset="8.011200e-04" style="stop-color:#871FFF"/>
			<stop  offset="1" style="stop-color:#80C7F5"/>
		</linearGradient>
		<path class="st27" d="M316.7,335.5l-0.8-8.1c-0.3-4.1,1.5-4.4,4.8-4.3c4.3,0.1,5.6-1.6,6.1-3.9c0.5-2.4,0.2-0.7,1.1-5.3
			c1-4.7-0.6-6.7-2.9-9.6c-2.3-2.9-2.2-5.2-0.7-7.2c1.5-1.9,1.5-2,4-4.5c2.5-2.5,4.3-1.6,8,2.1c1.8,1.9,3.5,2.5,5,2.6
			c1.3-0.8,2.6-1.5,4.1-2.1l10.2,15.5c-10.3,2.4-16.1,13.7-13,27.3c3.5,15.3,16.8,27.8,29.7,27.8s20.5-12.5,17.1-27.8
			c-2.4-10.4-9.3-19.5-17.5-24.2l-0.5,10.4l-15.3-23.4c-1.5-2.4-1.4-5.3,0.3-6.5l17-11.9l-0.7,15c13,6.4,24.3,19.5,29.4,35.1
			c1.1,2.2,2.8,4,6.8,5.2c3.4,1,5.3,2,5.9,6.1l0.8,8.1c0.3,4.1-1.5,4.4-4.8,4.3c-4.3-0.1-5.6,1.6-6.1,4c-0.5,2.4-0.2,0.7-1.1,5.3
			c-1,4.7,0.6,6.7,2.9,9.6c2.3,2.9,2.2,5.2,0.7,7.2c-1.5,1.9-1.5,2-4,4.5c-2.5,2.5-4.3,1.6-8-2.1c-3.7-3.7-7-2.5-8-2.2
			c-1.1,0.3-3.7,1.1-5.1,1.9c-1.4,0.8-2.8,1.5-2.3,7c0.5,5.5-2.7,4.8-4.3,4.5l-8-1.3c-1.5-0.3-4.8-0.6-5.4-6.1
			c-0.6-5.5-2.2-6.7-3.8-8c-1.6-1.3-4.5-3-5.7-3.6c-1.2-0.7-4.8-3-7.8-0.4c-3,2.6-4.7,2.9-7.8-0.5c-3.1-3.4-3.1-3.5-5-6
			c-1.9-2.5-2.5-5-0.7-7.2c1.8-2.2,3-3.8,1-9c-2-5.2-1.3-3.3-2.3-5.9c-1-2.6-2.7-4.8-7.2-6.2C319.1,340.6,317.3,339.6,316.7,335.5z"
			/>
		<linearGradient id="SVGID_18_" gradientUnits="userSpaceOnUse" x1="418.5269" y1="347.6123" x2="326.6101" y2="330.7415">
			<stop  offset="8.011200e-04" style="stop-color:#871FFF"/>
			<stop  offset="1" style="stop-color:#80C7F5"/>
		</linearGradient>
		<path class="st28" d="M316.2,335.7l-0.8-8.1c-0.3-4.1,1.5-4.4,4.8-4.3c4.3,0.1,5.6-1.6,6.1-3.9c0.5-2.4,0.2-0.7,1.1-5.3
			c1-4.7-0.6-6.7-2.9-9.6c-2.3-2.9-2.2-5.2-0.7-7.2c1.5-1.9,1.5-2,4-4.5c2.5-2.5,4.3-1.6,8,2.1c1.8,1.9,3.5,2.5,5,2.6
			c1.3-0.8,2.6-1.5,4.1-2.1l10.2,15.5c-10.3,2.4-16.1,13.7-13,27.3c3.5,15.3,16.8,27.8,29.7,27.8c12.9,0,20.5-12.5,17.1-27.8
			c-2.4-10.4-9.3-19.5-17.5-24.2l-0.5,10.4l-15.3-23.4c-1.5-2.4-1.4-5.3,0.3-6.5l17-11.9l-0.7,15c13,6.4,24.3,19.5,29.4,35.1
			c1.1,2.2,2.8,4,6.8,5.2c3.4,1,5.3,2,5.9,6.1l0.8,8.1c0.3,4.1-1.5,4.4-4.8,4.3c-4.3-0.1-5.6,1.6-6.1,4c-0.5,2.4-0.2,0.7-1.1,5.3
			c-1,4.7,0.6,6.7,2.9,9.6c2.3,2.9,2.2,5.2,0.7,7.2c-1.5,1.9-1.5,2-4,4.5c-2.5,2.5-4.3,1.6-8-2.1c-3.7-3.7-7-2.5-8-2.2
			c-1.1,0.3-3.7,1.1-5.1,1.9c-1.4,0.8-2.8,1.5-2.3,7c0.5,5.5-2.7,4.8-4.3,4.5l-8-1.3c-1.5-0.3-4.8-0.6-5.4-6.1
			c-0.6-5.5-2.2-6.7-3.8-8c-1.6-1.3-4.5-3-5.7-3.6c-1.2-0.7-4.8-3-7.8-0.4c-3,2.6-4.7,2.9-7.8-0.5c-3.1-3.4-3.1-3.5-5-6
			c-1.9-2.5-2.5-5-0.7-7.2c1.8-2.2,3-3.8,1-9c-2-5.2-1.3-3.3-2.3-5.9c-1-2.6-2.7-4.8-7.2-6.2C318.7,340.8,316.8,339.9,316.2,335.7z"
			/>
		<linearGradient id="SVGID_19_" gradientUnits="userSpaceOnUse" x1="418.3596" y1="347.8976" x2="326.4427" y2="331.0268">
			<stop  offset="8.011200e-04" style="stop-color:#871FFF"/>
			<stop  offset="1" style="stop-color:#80C7F5"/>
		</linearGradient>
		<path class="st29" d="M315.7,335.9l-0.8-8.1c-0.3-4.1,1.5-4.4,4.8-4.3c4.3,0.1,5.6-1.6,6.1-3.9c0.5-2.4,0.2-0.7,1.1-5.3
			c1-4.7-0.6-6.7-2.9-9.6c-2.3-2.9-2.2-5.2-0.7-7.2c1.5-1.9,1.5-2,4-4.5c2.5-2.5,4.3-1.6,8,2.1c1.8,1.9,3.5,2.5,5,2.6
			c1.3-0.8,2.6-1.5,4.1-2.1l10.2,15.5c-10.3,2.4-16.1,13.7-13,27.3c3.5,15.3,16.8,27.8,29.7,27.8c12.9,0,20.5-12.5,17.1-27.8
			c-2.4-10.4-9.3-19.5-17.5-24.2l-0.5,10.4l-15.3-23.4c-1.5-2.4-1.4-5.3,0.3-6.5l17-11.9l-0.7,15c13,6.4,24.3,19.5,29.4,35.1
			c1.1,2.2,2.8,4,6.8,5.2c3.4,1,5.3,2,5.9,6.1l0.8,8.1c0.3,4.1-1.5,4.4-4.8,4.3c-4.3-0.1-5.6,1.6-6.1,4c-0.5,2.4-0.2,0.7-1.1,5.3
			c-1,4.7,0.6,6.7,2.9,9.6c2.3,2.9,2.2,5.2,0.7,7.2c-1.5,1.9-1.5,2-4,4.5c-2.5,2.5-4.3,1.6-8-2.1c-3.7-3.7-7-2.5-8-2.2
			c-1.1,0.3-3.7,1.1-5.1,1.9c-1.4,0.8-2.8,1.5-2.3,7c0.5,5.5-2.7,4.8-4.3,4.5l-8-1.3c-1.5-0.3-4.8-0.6-5.4-6.1
			c-0.6-5.5-2.2-6.7-3.8-8c-1.6-1.3-4.5-3-5.7-3.6c-1.2-0.7-4.8-3-7.8-0.4c-3,2.6-4.7,2.9-7.8-0.5c-3.1-3.4-3.1-3.5-5-6
			c-1.9-2.5-2.5-5-0.7-7.2c1.8-2.2,3-3.8,1-9c-2-5.2-1.3-3.3-2.3-5.9c-1-2.6-2.7-4.8-7.2-6.2C318.2,341,316.3,340.1,315.7,335.9z"/>
		<linearGradient id="SVGID_20_" gradientUnits="userSpaceOnUse" x1="418.1923" y1="348.1829" x2="326.2754" y2="331.3121">
			<stop  offset="8.011200e-04" style="stop-color:#871FFF"/>
			<stop  offset="1" style="stop-color:#80C7F5"/>
		</linearGradient>
		<path class="st30" d="M315.3,336.2l-0.8-8.1c-0.3-4.1,1.5-4.4,4.8-4.3c4.3,0.1,5.6-1.6,6.1-3.9c0.5-2.4,0.2-0.7,1.1-5.3
			c1-4.7-0.6-6.7-2.9-9.6c-2.3-2.9-2.2-5.2-0.7-7.2c1.5-1.9,1.5-2,4-4.5c2.5-2.5,4.3-1.6,8,2.1c1.8,1.9,3.5,2.5,5,2.6
			c1.3-0.8,2.6-1.5,4.1-2.1l10.2,15.5c-10.3,2.4-16.1,13.7-13,27.3c3.5,15.3,16.8,27.8,29.7,27.8c12.9,0,20.5-12.5,17.1-27.8
			c-2.4-10.4-9.3-19.5-17.5-24.2l-0.5,10.4l-15.3-23.4c-1.5-2.4-1.4-5.3,0.3-6.5l17-11.9l-0.7,15c13,6.4,24.3,19.5,29.4,35.1
			c1.1,2.2,2.8,4,6.8,5.2c3.4,1,5.3,2,5.9,6.1l0.8,8.1c0.3,4.1-1.5,4.4-4.8,4.3c-4.3-0.1-5.6,1.6-6.1,4c-0.5,2.4-0.2,0.7-1.1,5.3
			c-1,4.7,0.6,6.7,2.9,9.6c2.3,2.9,2.2,5.2,0.7,7.2c-1.5,1.9-1.5,2-4,4.5c-2.5,2.5-4.3,1.6-8-2.1c-3.7-3.7-7-2.5-8-2.2
			c-1.1,0.3-3.7,1.1-5.1,1.9c-1.4,0.8-2.8,1.5-2.3,7c0.5,5.5-2.7,4.8-4.3,4.5l-8-1.3c-1.5-0.3-4.8-0.6-5.4-6.1
			c-0.6-5.5-2.2-6.7-3.8-8c-1.6-1.3-4.5-3-5.7-3.6c-1.2-0.7-4.8-3-7.8-0.4c-3,2.6-4.7,2.9-7.8-0.5c-3.1-3.4-3.1-3.5-5-6
			c-1.9-2.5-2.5-5-0.7-7.2c1.8-2.2,3-3.8,1-9c-2-5.2-1.3-3.3-2.3-5.9c-1-2.6-2.7-4.8-7.2-6.2C317.8,341.3,315.9,340.3,315.3,336.2z"
			/>
		<linearGradient id="SVGID_21_" gradientUnits="userSpaceOnUse" x1="418.025" y1="348.4682" x2="326.1081" y2="331.5974">
			<stop  offset="8.011200e-04" style="stop-color:#871FFF"/>
			<stop  offset="1" style="stop-color:#80C7F5"/>
		</linearGradient>
		<path class="st31" d="M314.8,336.4l-0.8-8.1c-0.3-4.1,1.5-4.4,4.8-4.3c4.3,0.1,5.6-1.6,6.1-3.9c0.5-2.4,0.2-0.7,1.1-5.3
			c1-4.7-0.6-6.7-2.9-9.6c-2.3-2.9-2.2-5.2-0.7-7.2c1.5-1.9,1.5-2,4-4.5c2.5-2.5,4.3-1.6,8,2.1c1.8,1.9,3.5,2.5,5,2.6
			c1.3-0.8,2.6-1.5,4.1-2.1l10.2,15.5c-10.3,2.4-16.1,13.7-13,27.3c3.5,15.3,16.8,27.8,29.7,27.8c12.9,0,20.5-12.5,17.1-27.8
			c-2.4-10.4-9.3-19.5-17.5-24.2l-0.5,10.4L354,301.6c-1.5-2.4-1.4-5.3,0.3-6.5l17-11.9l-0.7,15c13,6.4,24.3,19.5,29.4,35.1
			c1.1,2.2,2.8,4,6.8,5.2c3.4,1,5.3,2,5.9,6.1l0.8,8.1c0.3,4.1-1.5,4.4-4.8,4.3c-4.3-0.1-5.6,1.6-6.1,4c-0.5,2.4-0.2,0.7-1.1,5.3
			c-1,4.7,0.6,6.7,2.9,9.6c2.3,2.9,2.2,5.2,0.7,7.2c-1.5,1.9-1.5,2-4,4.5c-2.5,2.5-4.3,1.6-8-2.1c-3.7-3.7-7-2.5-8-2.2
			c-1.1,0.3-3.7,1.1-5.1,1.9c-1.4,0.8-2.8,1.5-2.3,7c0.5,5.5-2.7,4.8-4.3,4.5l-8-1.3c-1.5-0.3-4.8-0.6-5.4-6.1
			c-0.6-5.5-2.2-6.7-3.8-8c-1.6-1.3-4.5-3-5.7-3.6c-1.2-0.7-4.8-3-7.8-0.4c-3,2.6-4.7,2.9-7.8-0.5c-3.1-3.4-3.1-3.5-5-6
			c-1.9-2.5-2.5-5-0.7-7.2c1.8-2.2,3-3.8,1-9c-2-5.2-1.3-3.3-2.3-5.9c-1-2.6-2.7-4.8-7.2-6.2C317.3,341.5,315.4,340.6,314.8,336.4z"
			/>
		<linearGradient id="SVGID_22_" gradientUnits="userSpaceOnUse" x1="417.8576" y1="348.7535" x2="325.9408" y2="331.8827">
			<stop  offset="8.011200e-04" style="stop-color:#871FFF"/>
			<stop  offset="1" style="stop-color:#80C7F5"/>
		</linearGradient>
		<path class="st32" d="M314.4,336.6l-0.8-8.1c-0.3-4.1,1.5-4.4,4.8-4.3c4.3,0.1,5.6-1.6,6.1-3.9c0.5-2.4,0.2-0.7,1.1-5.3
			c1-4.7-0.6-6.7-2.9-9.6c-2.3-2.9-2.2-5.2-0.7-7.2c1.5-1.9,1.5-2,4-4.5c2.5-2.5,4.3-1.6,8,2.1c1.8,1.9,3.5,2.5,5,2.6
			c1.3-0.8,2.6-1.5,4.1-2.1l10.2,15.5c-10.3,2.4-16.1,13.7-13,27.3c3.5,15.3,16.8,27.8,29.7,27.8s20.5-12.5,17.1-27.8
			c-2.4-10.4-9.3-19.5-17.5-24.2l-0.5,10.4l-15.3-23.4c-1.5-2.4-1.4-5.3,0.3-6.5l17-11.9l-0.7,15c13,6.4,24.3,19.5,29.4,35.1
			c1.1,2.2,2.8,4,6.8,5.2c3.4,1,5.3,2,5.9,6.1l0.8,8.1c0.3,4.1-1.5,4.4-4.8,4.3c-4.3-0.1-5.6,1.6-6.1,4c-0.5,2.4-0.2,0.7-1.1,5.3
			c-1,4.7,0.6,6.7,2.9,9.6c2.3,2.9,2.2,5.2,0.7,7.2c-1.5,1.9-1.5,2-4,4.5c-2.5,2.5-4.3,1.6-8-2.1c-3.7-3.7-7-2.5-8-2.2
			c-1.1,0.3-3.7,1.1-5.1,1.9c-1.4,0.8-2.8,1.5-2.3,7c0.5,5.5-2.7,4.8-4.3,4.5l-8-1.3c-1.5-0.3-4.8-0.6-5.4-6.1
			c-0.6-5.5-2.2-6.7-3.8-8c-1.6-1.3-4.5-3-5.7-3.6c-1.2-0.7-4.8-3-7.8-0.4c-3,2.6-4.7,2.9-7.8-0.5c-3.1-3.4-3.1-3.5-5-6
			c-1.9-2.5-2.5-5-0.7-7.2c1.8-2.2,3-3.8,1-9c-2-5.2-1.3-3.3-2.3-5.9c-1-2.6-2.7-4.8-7.2-6.2C316.8,341.7,315,340.8,314.4,336.6z"/>
		<linearGradient id="SVGID_23_" gradientUnits="userSpaceOnUse" x1="417.6903" y1="349.0388" x2="325.7735" y2="332.168">
			<stop  offset="8.011200e-04" style="stop-color:#871FFF"/>
			<stop  offset="1" style="stop-color:#80C7F5"/>
		</linearGradient>
		<path class="st33" d="M313.9,336.9l-0.8-8.1c-0.3-4.1,1.5-4.4,4.8-4.3c4.3,0.1,5.6-1.6,6.1-3.9c0.5-2.4,0.2-0.7,1.1-5.3
			c1-4.7-0.6-6.7-2.9-9.6c-2.3-2.9-2.2-5.2-0.7-7.2c1.5-1.9,1.5-2,4-4.5c2.5-2.5,4.3-1.6,8,2.1c1.8,1.9,3.5,2.5,5,2.6
			c1.3-0.8,2.6-1.5,4.1-2.1l10.2,15.5c-10.3,2.4-16.1,13.7-13,27.3c3.5,15.3,16.8,27.8,29.7,27.8s20.5-12.5,17.1-27.8
			c-2.4-10.4-9.3-19.5-17.5-24.2l-0.5,10.4l-15.3-23.4c-1.5-2.4-1.4-5.3,0.3-6.5l17-11.9l-0.7,15c13,6.4,24.3,19.5,29.4,35.1
			c1.1,2.2,2.8,4,6.8,5.2c3.4,1,5.3,2,5.9,6.1l0.8,8.1c0.3,4.1-1.5,4.4-4.8,4.3c-4.3-0.1-5.6,1.6-6.1,4c-0.5,2.4-0.2,0.7-1.1,5.3
			c-1,4.7,0.6,6.7,2.9,9.6c2.3,2.9,2.2,5.2,0.7,7.2c-1.5,1.9-1.5,2-4,4.5c-2.5,2.5-4.3,1.6-8-2.1c-3.7-3.7-7-2.5-8-2.2
			c-1.1,0.3-3.7,1.1-5.1,1.9c-1.4,0.8-2.8,1.5-2.3,7c0.5,5.5-2.7,4.8-4.3,4.5l-8-1.3c-1.5-0.3-4.8-0.6-5.4-6.1
			c-0.6-5.5-2.2-6.7-3.8-8c-1.6-1.3-4.5-3-5.7-3.6c-1.2-0.7-4.8-3-7.8-0.4c-3,2.6-4.7,2.9-7.8-0.5c-3.1-3.4-3.1-3.5-5-6
			c-1.9-2.5-2.5-5-0.7-7.2c1.8-2.2,3-3.8,1-9c-2-5.2-1.3-3.3-2.3-5.9c-1-2.6-2.7-4.8-7.2-6.2C316.4,342,314.5,341,313.9,336.9z"/>
		<linearGradient id="SVGID_24_" gradientUnits="userSpaceOnUse" x1="417.523" y1="349.3241" x2="325.6061" y2="332.4533">
			<stop  offset="8.011200e-04" style="stop-color:#871FFF"/>
			<stop  offset="1" style="stop-color:#80C7F5"/>
		</linearGradient>
		<path class="st34" d="M313.5,337.1l-0.8-8.1c-0.3-4.1,1.5-4.4,4.8-4.3c4.3,0.1,5.6-1.6,6.1-3.9c0.5-2.4,0.2-0.7,1.1-5.3
			c1-4.7-0.6-6.7-2.9-9.6c-2.3-2.9-2.2-5.2-0.7-7.2c1.5-1.9,1.5-2,4-4.5c2.5-2.5,4.3-1.6,8,2.1c1.8,1.9,3.5,2.5,5,2.6
			c1.3-0.8,2.6-1.5,4.1-2.1l10.2,15.5c-10.3,2.4-16.1,13.7-13,27.3c3.5,15.3,16.8,27.8,29.7,27.8c12.9,0,20.5-12.5,17.1-27.8
			c-2.4-10.4-9.3-19.5-17.5-24.2l-0.5,10.4l-15.3-23.4c-1.5-2.4-1.4-5.3,0.3-6.5l17-11.9l-0.7,15c13,6.4,24.3,19.5,29.4,35.1
			c1.1,2.2,2.8,4,6.8,5.2c3.4,1,5.3,2,5.9,6.1l0.8,8.1c0.3,4.1-1.5,4.4-4.8,4.3c-4.3-0.1-5.6,1.6-6.1,4c-0.5,2.4-0.2,0.7-1.1,5.3
			c-1,4.7,0.6,6.7,2.9,9.6c2.3,2.9,2.2,5.2,0.7,7.2c-1.5,1.9-1.5,2-4,4.5c-2.5,2.5-4.3,1.6-8-2.1c-3.7-3.7-7-2.5-8-2.2
			c-1.1,0.3-3.7,1.1-5.1,1.9c-1.4,0.8-2.8,1.5-2.3,7c0.5,5.5-2.7,4.8-4.3,4.5l-8-1.3c-1.5-0.3-4.8-0.6-5.4-6.1
			c-0.6-5.5-2.2-6.7-3.8-8c-1.6-1.3-4.5-3-5.7-3.6c-1.2-0.7-4.8-3-7.8-0.4c-3,2.6-4.7,2.9-7.8-0.5c-3.1-3.4-3.1-3.5-5-6
			c-1.9-2.5-2.5-5-0.7-7.2c1.8-2.2,3-3.8,1-9c-2-5.2-1.3-3.3-2.3-5.9c-1-2.6-2.7-4.8-7.2-6.2C315.9,342.2,314,341.3,313.5,337.1z"/>
		<linearGradient id="SVGID_25_" gradientUnits="userSpaceOnUse" x1="417.3557" y1="349.6094" x2="325.4388" y2="332.7386">
			<stop  offset="8.011200e-04" style="stop-color:#871FFF"/>
			<stop  offset="1" style="stop-color:#80C7F5"/>
		</linearGradient>
		<path class="st35" d="M313,337.3l-0.8-8.1c-0.3-4.1,1.5-4.4,4.8-4.3c4.3,0.1,5.6-1.6,6.1-3.9c0.5-2.4,0.2-0.7,1.1-5.3
			c1-4.7-0.6-6.7-2.9-9.6c-2.3-2.9-2.2-5.2-0.7-7.2c1.5-1.9,1.5-2,4-4.5c2.5-2.5,4.3-1.6,8,2.1c1.8,1.9,3.5,2.5,5,2.6
			c1.3-0.8,2.6-1.5,4.1-2.1l10.2,15.5c-10.3,2.4-16.1,13.7-13,27.3c3.5,15.3,16.8,27.8,29.7,27.8c12.9,0,20.5-12.5,17.1-27.8
			c-2.4-10.4-9.3-19.5-17.5-24.2l-0.5,10.4l-15.3-23.4c-1.5-2.4-1.4-5.3,0.3-6.5l17-11.9l-0.7,15c13,6.4,24.3,19.5,29.4,35.1
			c1.1,2.2,2.8,4,6.8,5.2c3.4,1,5.3,2,5.9,6.1l0.8,8.1c0.3,4.1-1.5,4.4-4.8,4.3c-4.3-0.1-5.6,1.6-6.1,4c-0.5,2.4-0.2,0.7-1.1,5.3
			c-1,4.7,0.6,6.7,2.9,9.6c2.3,2.9,2.2,5.2,0.7,7.2c-1.5,1.9-1.5,2-4,4.5c-2.5,2.5-4.3,1.6-8-2.1c-3.7-3.7-7-2.5-8-2.2
			c-1.1,0.3-3.7,1.1-5.1,1.9c-1.4,0.8-2.8,1.5-2.3,7c0.5,5.5-2.7,4.8-4.3,4.5l-8-1.3c-1.5-0.3-4.8-0.6-5.4-6.1
			c-0.6-5.5-2.2-6.7-3.8-8c-1.6-1.3-4.5-3-5.7-3.6c-1.2-0.7-4.8-3-7.8-0.4c-3,2.6-4.7,2.9-7.8-0.5c-3.1-3.4-3.1-3.5-5-6
			c-1.9-2.5-2.5-5-0.7-7.2c1.8-2.2,3-3.8,1-9c-2-5.2-1.3-3.3-2.3-5.9c-1-2.6-2.7-4.8-7.2-6.2C315.5,342.4,313.6,341.5,313,337.3z"/>
		<linearGradient id="SVGID_26_" gradientUnits="userSpaceOnUse" x1="417.1884" y1="349.8947" x2="325.2715" y2="333.0239">
			<stop  offset="8.011200e-04" style="stop-color:#871FFF"/>
			<stop  offset="1" style="stop-color:#80C7F5"/>
		</linearGradient>
		<path class="st36" d="M312.5,337.6l-0.8-8.1c-0.3-4.1,1.5-4.4,4.8-4.3c4.3,0.1,5.6-1.6,6.1-3.9c0.5-2.4,0.2-0.7,1.1-5.3
			c1-4.7-0.6-6.7-2.9-9.6c-2.3-2.9-2.2-5.2-0.7-7.2c1.5-1.9,1.5-2,4-4.5c2.5-2.5,4.3-1.6,8,2.1c1.8,1.9,3.5,2.5,5,2.6
			c1.3-0.8,2.6-1.5,4.1-2.1l10.2,15.5c-10.3,2.4-16.1,13.7-13,27.3c3.5,15.3,16.8,27.8,29.7,27.8c12.9,0,20.5-12.5,17.1-27.8
			c-2.4-10.4-9.3-19.5-17.5-24.2l-0.5,10.4l-15.3-23.4c-1.5-2.4-1.4-5.3,0.3-6.5l17-11.9l-0.7,15c13,6.4,24.3,19.5,29.4,35.1
			c1.1,2.2,2.8,4,6.8,5.2c3.4,1,5.3,2,5.9,6.1l0.8,8.1c0.3,4.1-1.5,4.4-4.8,4.3c-4.3-0.1-5.6,1.6-6.1,4c-0.5,2.4-0.2,0.7-1.1,5.3
			c-1,4.7,0.6,6.7,2.9,9.6c2.3,2.9,2.2,5.2,0.7,7.2c-1.5,1.9-1.5,2-4,4.5c-2.5,2.5-4.3,1.6-8-2.1c-3.7-3.7-7-2.5-8-2.2
			c-1.1,0.3-3.7,1.1-5.1,1.9c-1.4,0.8-2.8,1.5-2.3,7c0.5,5.5-2.7,4.8-4.3,4.5l-8-1.3c-1.5-0.3-4.8-0.6-5.4-6.1
			c-0.6-5.5-2.2-6.7-3.8-8c-1.6-1.3-4.5-3-5.7-3.6c-1.2-0.7-4.8-3-7.8-0.4c-3,2.6-4.7,2.9-7.8-0.5c-3.1-3.4-3.1-3.5-5-6
			c-1.9-2.5-2.5-5-0.7-7.2c1.8-2.2,3-3.8,1-9c-2-5.2-1.3-3.3-2.3-5.9c-1-2.6-2.7-4.8-7.2-6.2C315,342.6,313.1,341.7,312.5,337.6z"/>
		<linearGradient id="SVGID_27_" gradientUnits="userSpaceOnUse" x1="417.0211" y1="350.18" x2="325.1042" y2="333.3092">
			<stop  offset="8.011200e-04" style="stop-color:#871FFF"/>
			<stop  offset="1" style="stop-color:#80C7F5"/>
		</linearGradient>
		<path class="st37" d="M312.1,337.8l-0.8-8.1c-0.3-4.1,1.5-4.4,4.8-4.3c4.3,0.1,5.6-1.6,6.1-3.9c0.5-2.4,0.2-0.7,1.1-5.3
			c1-4.7-0.6-6.7-2.9-9.6c-2.3-2.9-2.2-5.2-0.7-7.2c1.5-1.9,1.5-2,4-4.5c2.5-2.5,4.3-1.6,8,2.1c1.8,1.9,3.5,2.5,5,2.6
			c1.3-0.8,2.6-1.5,4.1-2.1l10.2,15.5c-10.3,2.4-16.1,13.7-13,27.3c3.5,15.3,16.8,27.8,29.7,27.8c12.9,0,20.5-12.5,17.1-27.8
			c-2.4-10.4-9.3-19.5-17.5-24.2l-0.5,10.4L351.2,303c-1.5-2.4-1.4-5.3,0.3-6.5l17-11.9l-0.7,15c13,6.4,24.3,19.5,29.4,35.1
			c1.1,2.2,2.8,4,6.8,5.2c3.4,1,5.3,2,5.9,6.1l0.8,8.1c0.3,4.1-1.5,4.4-4.8,4.3c-4.3-0.1-5.6,1.6-6.1,4c-0.5,2.4-0.2,0.7-1.1,5.3
			c-1,4.7,0.6,6.7,2.9,9.6c2.3,2.9,2.2,5.2,0.7,7.2c-1.5,1.9-1.5,2-4,4.5c-2.5,2.5-4.3,1.6-8-2.1c-3.7-3.7-7-2.5-8-2.2
			c-1.1,0.3-3.7,1.1-5.1,1.9c-1.4,0.8-2.8,1.5-2.3,7c0.5,5.5-2.7,4.8-4.3,4.5l-8-1.3c-1.5-0.3-4.8-0.6-5.4-6.1
			c-0.6-5.5-2.2-6.7-3.8-8c-1.6-1.3-4.5-3-5.7-3.6c-1.2-0.7-4.8-3-7.8-0.4c-3,2.6-4.7,2.9-7.8-0.5c-3.1-3.4-3.1-3.5-5-6
			c-1.9-2.5-2.5-5-0.7-7.2c1.8-2.2,3-3.8,1-9c-2-5.2-1.3-3.3-2.3-5.9c-1-2.6-2.7-4.8-7.2-6.2C314.5,342.9,312.7,342,312.1,337.8z"/>
		<linearGradient id="SVGID_28_" gradientUnits="userSpaceOnUse" x1="416.8537" y1="350.4653" x2="324.9369" y2="333.5945">
			<stop  offset="8.011200e-04" style="stop-color:#871FFF"/>
			<stop  offset="1" style="stop-color:#80C7F5"/>
		</linearGradient>
		<path class="st38" d="M311.6,338l-0.8-8.1c-0.3-4.1,1.5-4.4,4.8-4.3c4.3,0.1,5.6-1.6,6.1-3.9c0.5-2.4,0.2-0.7,1.1-5.3
			c1-4.7-0.6-6.7-2.9-9.6c-2.3-2.9-2.2-5.2-0.7-7.2c1.5-1.9,1.5-2,4-4.5c2.5-2.5,4.3-1.6,8,2.1c1.8,1.9,3.5,2.5,5,2.6
			c1.3-0.8,2.6-1.5,4.1-2.1l10.2,15.5c-10.3,2.4-16.1,13.7-13,27.3c3.5,15.3,16.8,27.8,29.7,27.8s20.5-12.5,17.1-27.8
			c-2.4-10.4-9.3-19.5-17.5-24.2l-0.5,10.4l-15.3-23.4c-1.5-2.4-1.4-5.3,0.3-6.5l17-11.9l-0.7,15c13,6.4,24.3,19.5,29.4,35.1
			c1.1,2.2,2.8,4,6.8,5.2c3.4,1,5.3,2,5.9,6.1l0.8,8.1c0.3,4.1-1.5,4.4-4.8,4.3c-4.3-0.1-5.6,1.6-6.1,4c-0.5,2.4-0.2,0.7-1.1,5.3
			c-1,4.7,0.6,6.7,2.9,9.6c2.3,2.9,2.2,5.2,0.7,7.2c-1.5,1.9-1.5,2-4,4.5c-2.5,2.5-4.3,1.6-8-2.1c-3.7-3.7-7-2.5-8-2.2
			c-1.1,0.3-3.7,1.1-5.1,1.9c-1.4,0.8-2.8,1.5-2.3,7c0.5,5.5-2.7,4.8-4.3,4.5l-8-1.3c-1.5-0.3-4.8-0.6-5.4-6.1
			c-0.6-5.5-2.2-6.7-3.8-8c-1.6-1.3-4.5-3-5.7-3.6c-1.2-0.7-4.8-3-7.8-0.4c-3,2.6-4.7,2.9-7.8-0.5c-3.1-3.4-3.1-3.5-5-6
			c-1.9-2.5-2.5-5-0.7-7.2c1.8-2.2,3-3.8,1-9c-2-5.2-1.3-3.3-2.3-5.9c-1-2.6-2.7-4.8-7.2-6.2C314.1,343.1,312.2,342.2,311.6,338z"/>
		<linearGradient id="SVGID_29_" gradientUnits="userSpaceOnUse" x1="416.6864" y1="350.7506" x2="324.7696" y2="333.8798">
			<stop  offset="8.011200e-04" style="stop-color:#871FFF"/>
			<stop  offset="1" style="stop-color:#80C7F5"/>
		</linearGradient>
		<path class="st39" d="M311.2,338.3l-0.8-8.1c-0.3-4.1,1.5-4.4,4.8-4.3c4.3,0.1,5.6-1.6,6.1-3.9c0.5-2.4,0.2-0.7,1.1-5.3
			c1-4.7-0.6-6.7-2.9-9.6c-2.3-2.9-2.2-5.2-0.7-7.2c1.5-1.9,1.5-2,4-4.5c2.5-2.5,4.3-1.6,8,2.1c1.8,1.9,3.5,2.5,5,2.6
			c1.3-0.8,2.6-1.5,4.1-2.1l10.2,15.5c-10.3,2.4-16.1,13.7-13,27.3c3.5,15.3,16.8,27.8,29.7,27.8s20.5-12.5,17.1-27.8
			c-2.4-10.4-9.3-19.5-17.5-24.2l-0.5,10.4l-15.3-23.4c-1.5-2.4-1.4-5.3,0.3-6.5l17-11.9l-0.7,15c13,6.4,24.3,19.5,29.4,35.1
			c1.1,2.2,2.8,4,6.8,5.2c3.4,1,5.3,2,5.9,6.1l0.8,8.1c0.3,4.1-1.5,4.4-4.8,4.3c-4.3-0.1-5.6,1.6-6.1,4c-0.5,2.4-0.2,0.7-1.1,5.3
			c-1,4.7,0.6,6.7,2.9,9.6c2.3,2.9,2.2,5.2,0.7,7.2c-1.5,1.9-1.5,2-4,4.5c-2.5,2.5-4.3,1.6-8-2.1c-3.7-3.7-7-2.5-8-2.2
			c-1.1,0.3-3.7,1.1-5.1,1.9c-1.4,0.8-2.8,1.5-2.3,7c0.5,5.5-2.7,4.8-4.3,4.5l-8-1.3c-1.5-0.3-4.8-0.6-5.4-6.1
			c-0.6-5.5-2.2-6.7-3.8-8c-1.6-1.3-4.5-3-5.7-3.6c-1.2-0.7-4.8-3-7.8-0.4c-3,2.6-4.7,2.9-7.8-0.5c-3.1-3.4-3.1-3.5-5-6
			c-1.9-2.5-2.5-5-0.7-7.2c1.8-2.2,3-3.8,1-9c-2-5.2-1.3-3.3-2.3-5.9c-1-2.6-2.7-4.8-7.2-6.2C313.6,343.3,311.7,342.4,311.2,338.3z"
			/>
		<linearGradient id="SVGID_30_" gradientUnits="userSpaceOnUse" x1="416.5191" y1="351.0359" x2="324.6022" y2="334.1651">
			<stop  offset="8.011200e-04" style="stop-color:#871FFF"/>
			<stop  offset="1" style="stop-color:#80C7F5"/>
		</linearGradient>
		<path class="st40" d="M310.7,338.5l-0.8-8.1c-0.3-4.1,1.5-4.4,4.8-4.3c4.3,0.1,5.6-1.6,6.1-3.9c0.5-2.4,0.2-0.7,1.1-5.3
			c1-4.7-0.6-6.7-2.9-9.6c-2.3-2.9-2.2-5.2-0.7-7.2c1.5-1.9,1.5-2,4-4.5c2.5-2.5,4.3-1.6,8,2.1c1.8,1.9,3.5,2.5,5,2.6
			c1.3-0.8,2.6-1.5,4.1-2.1l10.2,15.5c-10.3,2.4-16.1,13.7-13,27.3c3.5,15.3,16.8,27.8,29.7,27.8c12.9,0,20.5-12.5,17.1-27.8
			c-2.4-10.4-9.3-19.5-17.5-24.2l-0.5,10.4l-15.3-23.4c-1.5-2.4-1.4-5.3,0.3-6.5l17-11.9l-0.7,15c13,6.4,24.3,19.5,29.4,35.1
			c1.1,2.2,2.8,4,6.8,5.2c3.4,1,5.3,2,5.9,6.1l0.8,8.1c0.3,4.1-1.5,4.4-4.8,4.3c-4.3-0.1-5.6,1.6-6.1,4c-0.5,2.4-0.2,0.7-1.1,5.3
			c-1,4.7,0.6,6.7,2.9,9.6c2.3,2.9,2.2,5.2,0.7,7.2c-1.5,1.9-1.5,2-4,4.5c-2.5,2.5-4.3,1.6-8-2.1c-3.7-3.7-7-2.5-8-2.2
			c-1.1,0.3-3.7,1.1-5.1,1.9c-1.4,0.8-2.8,1.5-2.3,7c0.5,5.5-2.7,4.8-4.3,4.5l-8-1.3c-1.5-0.3-4.8-0.6-5.4-6.1
			c-0.6-5.5-2.2-6.7-3.8-8c-1.6-1.3-4.5-3-5.7-3.6c-1.2-0.7-4.8-3-7.8-0.4c-3,2.6-4.7,2.9-7.8-0.5c-3.1-3.4-3.1-3.5-5-6
			c-1.9-2.5-2.5-5-0.7-7.2c1.8-2.2,3-3.8,1-9c-2-5.2-1.3-3.3-2.3-5.9c-1-2.6-2.7-4.8-7.2-6.2C313.2,343.6,311.3,342.7,310.7,338.5z"
			/>
		<linearGradient id="SVGID_31_" gradientUnits="userSpaceOnUse" x1="416.3518" y1="351.3212" x2="324.4349" y2="334.4504">
			<stop  offset="8.011200e-04" style="stop-color:#871FFF"/>
			<stop  offset="1" style="stop-color:#80C7F5"/>
		</linearGradient>
		<path class="st41" d="M310.2,338.7l-0.8-8.1c-0.3-4.1,1.5-4.4,4.8-4.3c4.3,0.1,5.6-1.6,6.1-3.9c0.5-2.4,0.2-0.7,1.1-5.3
			c1-4.7-0.6-6.7-2.9-9.6c-2.3-2.9-2.2-5.2-0.7-7.2c1.5-1.9,1.5-2,4-4.5c2.5-2.5,4.3-1.6,8,2.1c1.8,1.9,3.5,2.5,5,2.6
			c1.3-0.8,2.6-1.5,4.1-2.1l10.2,15.5c-10.3,2.4-16.1,13.7-13,27.3c3.5,15.3,16.8,27.8,29.7,27.8c12.9,0,20.5-12.5,17.1-27.8
			c-2.4-10.4-9.3-19.5-17.5-24.2l-0.5,10.4l-15.3-23.4c-1.5-2.4-1.4-5.3,0.3-6.5l17-11.9l-0.7,15c13,6.4,24.3,19.5,29.4,35.1
			c1.1,2.2,2.8,4,6.8,5.2c3.4,1,5.3,2,5.9,6.1l0.8,8.1c0.3,4.1-1.5,4.4-4.8,4.3c-4.3-0.1-5.6,1.6-6.1,4c-0.5,2.4-0.2,0.7-1.1,5.3
			c-1,4.7,0.6,6.7,2.9,9.6c2.3,2.9,2.2,5.2,0.7,7.2c-1.5,1.9-1.5,2-4,4.5c-2.5,2.5-4.3,1.6-8-2.1c-3.7-3.7-7-2.5-8-2.2
			c-1.1,0.3-3.7,1.1-5.1,1.9c-1.4,0.8-2.8,1.5-2.3,7c0.5,5.5-2.7,4.8-4.3,4.5l-8-1.3c-1.5-0.3-4.8-0.6-5.4-6.1
			c-0.6-5.5-2.2-6.7-3.8-8c-1.6-1.3-4.5-3-5.7-3.6c-1.2-0.7-4.8-3-7.8-0.4c-3,2.6-4.7,2.9-7.8-0.5c-3.1-3.4-3.1-3.5-5-6
			c-1.9-2.5-2.5-5-0.7-7.2c1.8-2.2,3-3.8,1-9c-2-5.2-1.3-3.3-2.3-5.9c-1-2.6-2.7-4.8-7.2-6.2C312.7,343.8,310.8,342.9,310.2,338.7z"
			/>
		<linearGradient id="SVGID_32_" gradientUnits="userSpaceOnUse" x1="416.1844" y1="351.6065" x2="324.2676" y2="334.7357">
			<stop  offset="8.011200e-04" style="stop-color:#871FFF"/>
			<stop  offset="1" style="stop-color:#80C7F5"/>
		</linearGradient>
		<path class="st42" d="M309.8,339l-0.8-8.1c-0.3-4.1,1.5-4.4,4.8-4.3c4.3,0.1,5.6-1.6,6.1-3.9c0.5-2.4,0.2-0.7,1.1-5.3
			c1-4.7-0.6-6.7-2.9-9.6c-2.3-2.9-2.2-5.2-0.7-7.2c1.5-1.9,1.5-2,4-4.5c2.5-2.5,4.3-1.6,8,2.1c1.8,1.9,3.5,2.5,5,2.6
			c1.3-0.8,2.6-1.5,4.1-2.1l10.2,15.5c-10.3,2.4-16.1,13.7-13,27.3c3.5,15.3,16.8,27.8,29.7,27.8c12.9,0,20.5-12.5,17.1-27.8
			c-2.4-10.4-9.3-19.5-17.5-24.2l-0.5,10.4l-15.3-23.4c-1.5-2.4-1.4-5.3,0.3-6.5l17-11.9l-0.7,15c13,6.4,24.3,19.5,29.4,35.1
			c1.1,2.2,2.8,4,6.8,5.2c3.4,1,5.3,2,5.9,6.1l0.8,8.1c0.3,4.1-1.5,4.4-4.8,4.3c-4.3-0.1-5.6,1.6-6.1,4c-0.5,2.4-0.2,0.7-1.1,5.3
			c-1,4.7,0.6,6.7,2.9,9.6c2.3,2.9,2.2,5.2,0.7,7.2c-1.5,1.9-1.5,2-4,4.5c-2.5,2.5-4.3,1.6-8-2.1c-3.7-3.7-7-2.5-8-2.2
			c-1.1,0.3-3.7,1.1-5.1,1.9c-1.4,0.8-2.8,1.5-2.3,7c0.5,5.5-2.7,4.8-4.3,4.5l-8-1.3c-1.5-0.3-4.8-0.6-5.4-6.1
			c-0.6-5.5-2.2-6.7-3.8-8c-1.6-1.3-4.5-3-5.7-3.6c-1.2-0.7-4.8-3-7.8-0.4c-3,2.6-4.7,2.9-7.8-0.5c-3.1-3.4-3.1-3.5-5-6
			c-1.9-2.5-2.5-5-0.7-7.2c1.8-2.2,3-3.8,1-9c-2-5.2-1.3-3.3-2.3-5.9c-1-2.6-2.7-4.8-7.2-6.2C312.3,344,310.4,343.1,309.8,339z"/>
		<linearGradient id="SVGID_33_" gradientUnits="userSpaceOnUse" x1="416.0171" y1="351.8918" x2="324.1003" y2="335.021">
			<stop  offset="8.011200e-04" style="stop-color:#871FFF"/>
			<stop  offset="1" style="stop-color:#80C7F5"/>
		</linearGradient>
		<path class="st43" d="M309.3,339.2l-0.8-8.1c-0.3-4.1,1.5-4.4,4.8-4.3c4.3,0.1,5.6-1.6,6.1-3.9c0.5-2.4,0.2-0.7,1.1-5.3
			c1-4.7-0.6-6.7-2.9-9.6c-2.3-2.9-2.2-5.2-0.7-7.2c1.5-1.9,1.5-2,4-4.5c2.5-2.5,4.3-1.6,8,2.1c1.8,1.9,3.5,2.5,5,2.6
			c1.3-0.8,2.6-1.5,4.1-2.1l10.2,15.5c-10.3,2.4-16.1,13.7-13,27.3c3.5,15.3,16.8,27.8,29.7,27.8s20.5-12.5,17.1-27.8
			c-2.4-10.4-9.3-19.5-17.5-24.2l-0.5,10.4l-15.3-23.4c-1.5-2.4-1.4-5.3,0.3-6.5l17-11.9l-0.7,15c13,6.4,24.3,19.5,29.4,35.1
			c1.1,2.2,2.8,4,6.8,5.2c3.4,1,5.3,2,5.9,6.1l0.8,8.1c0.3,4.1-1.5,4.4-4.8,4.3c-4.3-0.1-5.6,1.6-6.1,4c-0.5,2.4-0.2,0.7-1.1,5.3
			c-1,4.7,0.6,6.7,2.9,9.6c2.3,2.9,2.2,5.2,0.7,7.2c-1.5,1.9-1.5,2-4,4.5c-2.5,2.5-4.3,1.6-8-2.1c-3.7-3.7-7-2.5-8-2.2
			c-1.1,0.3-3.7,1.1-5.1,1.9c-1.4,0.8-2.8,1.5-2.3,7c0.5,5.5-2.7,4.8-4.3,4.5l-8-1.3c-1.5-0.3-4.8-0.6-5.4-6.1
			c-0.6-5.5-2.2-6.7-3.8-8c-1.6-1.3-4.5-3-5.7-3.6c-1.2-0.7-4.8-3-7.8-0.4c-3,2.6-4.7,2.9-7.8-0.5c-3.1-3.4-3.1-3.5-5-6
			c-1.9-2.5-2.5-5-0.7-7.2c1.8-2.2,3-3.8,1-9c-2-5.2-1.3-3.3-2.3-5.9c-1-2.6-2.7-4.8-7.2-6.2C311.8,344.3,309.9,343.4,309.3,339.2z"
			/>
		<linearGradient id="SVGID_34_" gradientUnits="userSpaceOnUse" x1="415.8498" y1="352.1771" x2="323.933" y2="335.3063">
			<stop  offset="8.011200e-04" style="stop-color:#871FFF"/>
			<stop  offset="1" style="stop-color:#80C7F5"/>
		</linearGradient>
		<path class="st44" d="M308.9,339.4l-0.8-8.1c-0.3-4.1,1.5-4.4,4.8-4.3c4.3,0.1,5.6-1.6,6.1-3.9c0.5-2.4,0.2-0.7,1.1-5.3
			c1-4.7-0.6-6.7-2.9-9.6c-2.3-2.9-2.2-5.2-0.7-7.2c1.5-1.9,1.5-2,4-4.5c2.5-2.5,4.3-1.6,8,2.1c1.8,1.9,3.5,2.5,5,2.6
			c1.3-0.8,2.6-1.5,4.1-2.1l10.2,15.5c-10.3,2.4-16.1,13.7-13,27.3c3.5,15.3,16.8,27.8,29.7,27.8s20.5-12.5,17.1-27.8
			c-2.4-10.4-9.3-19.5-17.5-24.2l-0.5,10.4L348,304.6c-1.5-2.4-1.4-5.3,0.3-6.5l17-11.9l-0.7,15c13,6.4,24.3,19.5,29.4,35.1
			c1.1,2.2,2.8,4,6.8,5.2c3.4,1,5.3,2,5.9,6.1l0.8,8.1c0.3,4.1-1.5,4.4-4.8,4.3c-4.3-0.1-5.6,1.6-6.1,4c-0.5,2.4-0.2,0.7-1.1,5.3
			c-1,4.7,0.6,6.7,2.9,9.6c2.3,2.9,2.2,5.2,0.7,7.2c-1.5,1.9-1.5,2-4,4.5c-2.5,2.5-4.3,1.6-8-2.1c-3.7-3.7-7-2.5-8-2.2
			c-1.1,0.3-3.7,1.1-5.1,1.9c-1.4,0.8-2.8,1.5-2.3,7c0.5,5.5-2.7,4.8-4.3,4.5l-8-1.3c-1.5-0.3-4.8-0.6-5.4-6.1
			c-0.6-5.5-2.2-6.7-3.8-8c-1.6-1.3-4.5-3-5.7-3.6c-1.2-0.7-4.8-3-7.8-0.4c-3,2.6-4.7,2.9-7.8-0.5c-3.1-3.4-3.1-3.5-5-6
			c-1.9-2.5-2.5-5-0.7-7.2c1.8-2.2,3-3.8,1-9c-2-5.2-1.3-3.3-2.3-5.9c-1-2.6-2.7-4.8-7.2-6.2C311.3,344.5,309.4,343.6,308.9,339.4z"
			/>
		<linearGradient id="SVGID_35_" gradientUnits="userSpaceOnUse" x1="415.6825" y1="352.4624" x2="323.7656" y2="335.5916">
			<stop  offset="8.011200e-04" style="stop-color:#871FFF"/>
			<stop  offset="1" style="stop-color:#80C7F5"/>
		</linearGradient>
		<path class="st45" d="M308.4,339.6l-0.8-8.1c-0.3-4.1,1.5-4.4,4.8-4.3c4.3,0.1,5.6-1.6,6.1-3.9c0.5-2.4,0.2-0.7,1.1-5.3
			c1-4.7-0.6-6.7-2.9-9.6c-2.3-2.9-2.2-5.2-0.7-7.2c1.5-1.9,1.5-2,4-4.5c2.5-2.5,4.3-1.6,8,2.1c1.8,1.9,3.5,2.5,5,2.6
			c1.3-0.8,2.6-1.5,4.1-2.1l10.2,15.5c-10.3,2.4-16.1,13.7-13,27.3c3.5,15.3,16.8,27.8,29.7,27.8s20.5-12.5,17.1-27.8
			c-2.4-10.4-9.3-19.5-17.5-24.2l-0.5,10.4l-15.3-23.4c-1.5-2.4-1.4-5.3,0.3-6.5l17-11.9l-0.7,15c13,6.4,24.3,19.5,29.4,35.1
			c1.1,2.2,2.8,4,6.8,5.2c3.4,1,5.3,2,5.9,6.1l0.8,8.1c0.3,4.1-1.5,4.4-4.8,4.3c-4.3-0.1-5.6,1.6-6.1,4c-0.5,2.4-0.2,0.7-1.1,5.3
			c-1,4.7,0.6,6.7,2.9,9.6c2.3,2.9,2.2,5.2,0.7,7.2c-1.5,1.9-1.5,2-4,4.5c-2.5,2.5-4.3,1.6-8-2.1c-3.7-3.7-7-2.5-8-2.2
			c-1.1,0.3-3.7,1.1-5.1,1.9c-1.4,0.8-2.8,1.5-2.3,7c0.5,5.5-2.7,4.8-4.3,4.5l-8-1.3c-1.5-0.3-4.8-0.6-5.4-6.1
			c-0.6-5.5-2.2-6.7-3.8-8c-1.6-1.3-4.5-3-5.7-3.6c-1.2-0.7-4.8-3-7.8-0.4c-3,2.6-4.7,2.9-7.8-0.5c-3.1-3.4-3.1-3.5-5-6
			c-1.9-2.5-2.5-5-0.7-7.2c1.8-2.2,3-3.8,1-9c-2-5.2-1.3-3.3-2.3-5.9c-1-2.6-2.7-4.8-7.2-6.2C310.9,344.7,309,343.8,308.4,339.6z"/>
		<linearGradient id="SVGID_36_" gradientUnits="userSpaceOnUse" x1="415.5152" y1="352.7477" x2="323.5983" y2="335.8769">
			<stop  offset="8.011200e-04" style="stop-color:#871FFF"/>
			<stop  offset="1" style="stop-color:#80C7F5"/>
		</linearGradient>
		<path class="st46" d="M307.9,339.9l-0.8-8.1c-0.3-4.1,1.5-4.4,4.8-4.3c4.3,0.1,5.6-1.6,6.1-3.9c0.5-2.4,0.2-0.7,1.1-5.3
			c1-4.7-0.6-6.7-2.9-9.6c-2.3-2.9-2.2-5.2-0.7-7.2c1.5-1.9,1.5-2,4-4.5c2.5-2.5,4.3-1.6,8,2.1c1.8,1.9,3.5,2.5,5,2.6
			c1.3-0.8,2.6-1.5,4.1-2.1l10.2,15.5c-10.3,2.4-16.1,13.7-13,27.3c3.5,15.3,16.8,27.8,29.7,27.8c12.9,0,20.5-12.5,17.1-27.8
			c-2.4-10.4-9.3-19.5-17.5-24.2l-0.5,10.4l-15.3-23.4c-1.5-2.4-1.4-5.3,0.3-6.5l17-11.9l-0.7,15c13,6.4,24.3,19.5,29.4,35.1
			c1.1,2.2,2.8,4,6.8,5.2c3.4,1,5.3,2,5.9,6.1l0.8,8.1c0.3,4.1-1.5,4.4-4.8,4.3c-4.3-0.1-5.6,1.6-6.1,4c-0.5,2.4-0.2,0.7-1.1,5.3
			c-1,4.7,0.6,6.7,2.9,9.6c2.3,2.9,2.2,5.2,0.7,7.2c-1.5,1.9-1.5,2-4,4.5c-2.5,2.5-4.3,1.6-8-2.1c-3.7-3.7-7-2.5-8-2.2
			c-1.1,0.3-3.7,1.1-5.1,1.9c-1.4,0.8-2.8,1.5-2.3,7c0.5,5.5-2.7,4.8-4.3,4.5l-8-1.3c-1.5-0.3-4.8-0.6-5.4-6.1
			c-0.6-5.5-2.2-6.7-3.8-8c-1.6-1.3-4.5-3-5.7-3.6c-1.2-0.7-4.8-3-7.8-0.4c-3,2.6-4.7,2.9-7.8-0.5c-3.1-3.4-3.1-3.5-5-6
			c-1.9-2.5-2.5-5-0.7-7.2c1.8-2.2,3-3.8,1-9c-2-5.2-1.3-3.3-2.3-5.9c-1-2.6-2.7-4.8-7.2-6.2C310.4,345,308.5,344,307.9,339.9z"/>
		<linearGradient id="SVGID_37_" gradientUnits="userSpaceOnUse" x1="415.3478" y1="353.033" x2="323.431" y2="336.1622">
			<stop  offset="8.011200e-04" style="stop-color:#871FFF"/>
			<stop  offset="1" style="stop-color:#80C7F5"/>
		</linearGradient>
		<path class="st47" d="M307.5,340.1l-0.8-8.1c-0.3-4.1,1.5-4.4,4.8-4.3c4.3,0.1,5.6-1.6,6.1-3.9c0.5-2.4,0.2-0.7,1.1-5.3
			c1-4.7-0.6-6.7-2.9-9.6c-2.3-2.9-2.2-5.2-0.7-7.2c1.5-1.9,1.5-2,4-4.5c2.5-2.5,4.3-1.6,8,2.1c1.8,1.9,3.5,2.5,5,2.6
			c1.3-0.8,2.6-1.5,4.1-2.1l10.2,15.5c-10.3,2.4-16.1,13.7-13,27.3c3.5,15.3,16.8,27.8,29.7,27.8c12.9,0,20.5-12.5,17.1-27.8
			c-2.4-10.4-9.3-19.5-17.5-24.2l-0.5,10.4l-15.3-23.4c-1.5-2.4-1.4-5.3,0.3-6.5l17-11.9l-0.7,15c13,6.4,24.3,19.5,29.4,35.1
			c1.1,2.2,2.8,4,6.8,5.2c3.4,1,5.3,2,5.9,6.1l0.8,8.1c0.3,4.1-1.5,4.4-4.8,4.3c-4.3-0.1-5.6,1.6-6.1,4c-0.5,2.4-0.2,0.7-1.1,5.3
			c-1,4.7,0.6,6.7,2.9,9.6c2.3,2.9,2.2,5.2,0.7,7.2c-1.5,1.9-1.5,2-4,4.5c-2.5,2.5-4.3,1.6-8-2.1c-3.7-3.7-7-2.5-8-2.2
			c-1.1,0.3-3.7,1.1-5.1,1.9c-1.4,0.8-2.8,1.5-2.3,7c0.5,5.5-2.7,4.8-4.3,4.5l-8-1.3c-1.5-0.3-4.8-0.6-5.4-6.1
			c-0.6-5.5-2.2-6.7-3.8-8c-1.6-1.3-4.5-3-5.7-3.6c-1.2-0.7-4.8-3-7.8-0.4c-3,2.6-4.7,2.9-7.8-0.5c-3.1-3.4-3.1-3.5-5-6
			c-1.9-2.5-2.5-5-0.7-7.2c1.8-2.2,3-3.8,1-9c-2-5.2-1.3-3.3-2.3-5.9c-1-2.6-2.7-4.8-7.2-6.2C310,345.2,308.1,344.3,307.5,340.1z"/>
		<linearGradient id="SVGID_38_" gradientUnits="userSpaceOnUse" x1="415.1805" y1="353.3183" x2="323.2637" y2="336.4475">
			<stop  offset="8.011200e-04" style="stop-color:#871FFF"/>
			<stop  offset="1" style="stop-color:#80C7F5"/>
		</linearGradient>
		<path class="st48" d="M307,340.3l-0.8-8.1c-0.3-4.1,1.5-4.4,4.8-4.3c4.3,0.1,5.6-1.6,6.1-3.9c0.5-2.4,0.2-0.7,1.1-5.3
			c1-4.7-0.6-6.7-2.9-9.6c-2.3-2.9-2.2-5.2-0.7-7.2c1.5-1.9,1.5-2,4-4.5c2.5-2.5,4.3-1.6,8,2.1c1.8,1.9,3.5,2.5,5,2.6
			c1.3-0.8,2.6-1.5,4.1-2.1l10.2,15.5c-10.3,2.4-16.1,13.7-13,27.3c3.5,15.3,16.8,27.8,29.7,27.8c12.9,0,20.5-12.5,17.1-27.8
			c-2.4-10.4-9.3-19.5-17.5-24.2l-0.5,10.4l-15.3-23.4c-1.5-2.4-1.4-5.3,0.3-6.5l17-11.9l-0.7,15c13,6.4,24.3,19.5,29.4,35.1
			c1.1,2.2,2.8,4,6.8,5.2c3.4,1,5.3,2,5.9,6.1l0.8,8.1c0.3,4.1-1.5,4.4-4.8,4.3c-4.3-0.1-5.6,1.6-6.1,4c-0.5,2.4-0.2,0.7-1.1,5.3
			c-1,4.7,0.6,6.7,2.9,9.6c2.3,2.9,2.2,5.2,0.7,7.2c-1.5,1.9-1.5,2-4,4.5c-2.5,2.5-4.3,1.6-8-2.1c-3.7-3.7-7-2.5-8-2.2
			c-1.1,0.3-3.7,1.1-5.1,1.9c-1.4,0.8-2.8,1.5-2.3,7c0.5,5.5-2.7,4.8-4.3,4.5l-8-1.3c-1.5-0.3-4.8-0.6-5.4-6.1
			c-0.6-5.5-2.2-6.7-3.8-8c-1.6-1.3-4.5-3-5.7-3.6c-1.2-0.7-4.8-3-7.8-0.4c-3,2.6-4.7,2.9-7.8-0.5c-3.1-3.4-3.1-3.5-5-6
			c-1.9-2.5-2.5-5-0.7-7.2c1.8-2.2,3-3.8,1-9c-2-5.2-1.3-3.3-2.3-5.9c-1-2.6-2.7-4.8-7.2-6.2C309.5,345.4,307.6,344.5,307,340.3z"/>
		<linearGradient id="SVGID_39_" gradientUnits="userSpaceOnUse" x1="415.0132" y1="353.6036" x2="323.0963" y2="336.7328">
			<stop  offset="8.011200e-04" style="stop-color:#871FFF"/>
			<stop  offset="1" style="stop-color:#80C7F5"/>
		</linearGradient>
		<path class="st49" d="M306.6,340.6l-0.8-8.1c-0.3-4.1,1.5-4.4,4.8-4.3c4.3,0.1,5.6-1.6,6.1-3.9c0.5-2.4,0.2-0.7,1.1-5.3
			c1-4.7-0.6-6.7-2.9-9.6c-2.3-2.9-2.2-5.2-0.7-7.2c1.5-1.9,1.5-2,4-4.5c2.5-2.5,4.3-1.6,8,2.1c1.8,1.9,3.5,2.5,5,2.6
			c1.3-0.8,2.6-1.5,4.1-2.1l10.2,15.5c-10.3,2.4-16.1,13.7-13,27.3c3.5,15.3,16.8,27.8,29.7,27.8s20.5-12.5,17.1-27.8
			c-2.4-10.4-9.3-19.5-17.5-24.2l-0.5,10.4l-15.3-23.4c-1.5-2.4-1.4-5.3,0.3-6.5l17-11.9l-0.7,15c13,6.4,24.3,19.5,29.4,35.1
			c1.1,2.2,2.8,4,6.8,5.2c3.4,1,5.3,2,5.9,6.1l0.8,8.1c0.3,4.1-1.5,4.4-4.8,4.3c-4.3-0.1-5.6,1.6-6.1,4c-0.5,2.4-0.2,0.7-1.1,5.3
			c-1,4.7,0.6,6.7,2.9,9.6c2.3,2.9,2.2,5.2,0.7,7.2c-1.5,1.9-1.5,2-4,4.5c-2.5,2.5-4.3,1.6-8-2.1c-3.7-3.7-7-2.5-8-2.2
			c-1.1,0.3-3.7,1.1-5.1,1.9c-1.4,0.8-2.8,1.5-2.3,7c0.5,5.5-2.7,4.8-4.3,4.5l-8-1.3c-1.5-0.3-4.8-0.6-5.4-6.1
			c-0.6-5.5-2.2-6.7-3.8-8c-1.6-1.3-4.5-3-5.7-3.6c-1.2-0.7-4.8-3-7.8-0.4c-3,2.6-4.7,2.9-7.8-0.5c-3.1-3.4-3.1-3.5-5-6
			c-1.9-2.5-2.5-5-0.7-7.2c1.8-2.2,3-3.8,1-9c-2-5.2-1.3-3.3-2.3-5.9c-1-2.6-2.7-4.8-7.2-6.2C309,345.7,307.1,344.7,306.6,340.6z"/>
		<linearGradient id="SVGID_40_" gradientUnits="userSpaceOnUse" x1="414.8459" y1="353.8889" x2="322.929" y2="337.0181">
			<stop  offset="8.011200e-04" style="stop-color:#871FFF"/>
			<stop  offset="1" style="stop-color:#80C7F5"/>
		</linearGradient>
		<path class="st50" d="M306.1,340.8l-0.8-8.1c-0.3-4.1,1.5-4.4,4.8-4.3c4.3,0.1,5.6-1.6,6.1-3.9c0.5-2.4,0.2-0.7,1.1-5.3
			c1-4.7-0.6-6.7-2.9-9.6c-2.3-2.9-2.2-5.2-0.7-7.2c1.5-1.9,1.5-2,4-4.5c2.5-2.5,4.3-1.6,8,2.1c1.8,1.9,3.5,2.5,5,2.6
			c1.3-0.8,2.6-1.5,4.1-2.1l10.2,15.5c-10.3,2.4-16.1,13.7-13,27.3c3.5,15.3,16.8,27.8,29.7,27.8s20.5-12.5,17.1-27.8
			c-2.4-10.4-9.3-19.5-17.5-24.2l-0.5,10.4L345.3,306c-1.5-2.4-1.4-5.3,0.3-6.5l17-11.9l-0.7,15c13,6.4,24.3,19.5,29.4,35.1
			c1.1,2.2,2.8,4,6.8,5.2c3.4,1,5.3,2,5.9,6.1l0.8,8.1c0.3,4.1-1.5,4.4-4.8,4.3c-4.3-0.1-5.6,1.6-6.1,4c-0.5,2.4-0.2,0.7-1.1,5.3
			c-1,4.7,0.6,6.7,2.9,9.6c2.3,2.9,2.2,5.2,0.7,7.2c-1.5,1.9-1.5,2-4,4.5c-2.5,2.5-4.3,1.6-8-2.1c-3.7-3.7-7-2.5-8-2.2
			c-1.1,0.3-3.7,1.1-5.1,1.9c-1.4,0.8-2.8,1.5-2.3,7c0.5,5.5-2.7,4.8-4.3,4.5l-8-1.3c-1.5-0.3-4.8-0.6-5.4-6.1
			c-0.6-5.5-2.2-6.7-3.8-8c-1.6-1.3-4.5-3-5.7-3.6c-1.2-0.7-4.8-3-7.8-0.4c-3,2.6-4.7,2.9-7.8-0.5c-3.1-3.4-3.1-3.5-5-6
			c-1.9-2.5-2.5-5-0.7-7.2c1.8-2.2,3-3.8,1-9c-2-5.2-1.3-3.3-2.3-5.9c-1-2.6-2.7-4.8-7.2-6.2C308.6,345.9,306.7,345,306.1,340.8z"/>
		<linearGradient id="SVGID_41_" gradientUnits="userSpaceOnUse" x1="414.6786" y1="354.1742" x2="322.7617" y2="337.3034">
			<stop  offset="8.011200e-04" style="stop-color:#871FFF"/>
			<stop  offset="1" style="stop-color:#80C7F5"/>
		</linearGradient>
		<path class="st51" d="M305.6,341l-0.8-8.1c-0.3-4.1,1.5-4.4,4.8-4.3c4.3,0.1,5.6-1.6,6.1-3.9c0.5-2.4,0.2-0.7,1.1-5.3
			c1-4.7-0.6-6.7-2.9-9.6c-2.3-2.9-2.2-5.2-0.7-7.2c1.5-1.9,1.5-2,4-4.5c2.5-2.5,4.3-1.6,8,2.1c1.8,1.9,3.5,2.5,5,2.6
			c1.3-0.8,2.6-1.5,4.1-2.1l10.2,15.5c-10.3,2.4-16.1,13.7-13,27.3c3.5,15.3,16.8,27.8,29.7,27.8c12.9,0,20.5-12.5,17.1-27.8
			c-2.4-10.4-9.3-19.5-17.5-24.2l-0.5,10.4l-15.3-23.4c-1.5-2.4-1.4-5.3,0.3-6.5l17-11.9l-0.7,15c13,6.4,24.3,19.5,29.4,35.1
			c1.1,2.2,2.8,4,6.8,5.2c3.4,1,5.3,2,5.9,6.1l0.8,8.1c0.3,4.1-1.5,4.4-4.8,4.3c-4.3-0.1-5.6,1.6-6.1,4c-0.5,2.4-0.2,0.7-1.1,5.3
			c-1,4.7,0.6,6.7,2.9,9.6c2.3,2.9,2.2,5.2,0.7,7.2c-1.5,1.9-1.5,2-4,4.5c-2.5,2.5-4.3,1.6-8-2.1c-3.7-3.7-7-2.5-8-2.2
			c-1.1,0.3-3.7,1.1-5.1,1.9c-1.4,0.8-2.8,1.5-2.3,7c0.5,5.5-2.7,4.8-4.3,4.5l-8-1.3c-1.5-0.3-4.8-0.6-5.4-6.1
			c-0.6-5.5-2.2-6.7-3.8-8c-1.6-1.3-4.5-3-5.7-3.6c-1.2-0.7-4.8-3-7.8-0.4c-3,2.6-4.7,2.9-7.8-0.5c-3.1-3.4-3.1-3.5-5-6
			c-1.9-2.5-2.5-5-0.7-7.2c1.8-2.2,3-3.8,1-9c-2-5.2-1.3-3.3-2.3-5.9c-1-2.6-2.7-4.8-7.2-6.2C308.1,346.1,306.2,345.2,305.6,341z"/>
		<linearGradient id="SVGID_42_" gradientUnits="userSpaceOnUse" x1="414.5113" y1="354.4595" x2="322.5944" y2="337.5887">
			<stop  offset="8.011200e-04" style="stop-color:#871FFF"/>
			<stop  offset="1" style="stop-color:#80C7F5"/>
		</linearGradient>
		<path class="st52" d="M305.2,341.3l-0.8-8.1c-0.3-4.1,1.5-4.4,4.8-4.3c4.3,0.1,5.6-1.6,6.1-3.9c0.5-2.4,0.2-0.7,1.1-5.3
			c1-4.7-0.6-6.7-2.9-9.6c-2.3-2.9-2.2-5.2-0.7-7.2c1.5-1.9,1.5-2,4-4.5c2.5-2.5,4.3-1.6,8,2.1c1.8,1.9,3.5,2.5,5,2.6
			c1.3-0.8,2.6-1.5,4.1-2.1l10.2,15.5c-10.3,2.4-16.1,13.7-13,27.3c3.5,15.3,16.8,27.8,29.7,27.8c12.9,0,20.5-12.5,17.1-27.8
			c-2.4-10.4-9.3-19.5-17.5-24.2l-0.5,10.4l-15.3-23.4c-1.5-2.4-1.4-5.3,0.3-6.5l17-11.9l-0.7,15c13,6.4,24.3,19.5,29.4,35.1
			c1.1,2.2,2.8,4,6.8,5.2c3.4,1,5.3,2,5.9,6.1l0.8,8.1c0.3,4.1-1.5,4.4-4.8,4.3c-4.3-0.1-5.6,1.6-6.1,4c-0.5,2.4-0.2,0.7-1.1,5.3
			c-1,4.7,0.6,6.7,2.9,9.6c2.3,2.9,2.2,5.2,0.7,7.2c-1.5,1.9-1.5,2-4,4.5c-2.5,2.5-4.3,1.6-8-2.1c-3.7-3.7-7-2.5-8-2.2
			c-1.1,0.3-3.7,1.1-5.1,1.9c-1.4,0.8-2.8,1.5-2.3,7c0.5,5.5-2.7,4.8-4.3,4.5l-8-1.3c-1.5-0.3-4.8-0.6-5.4-6.1
			c-0.6-5.5-2.2-6.7-3.8-8c-1.6-1.3-4.5-3-5.7-3.6c-1.2-0.7-4.8-3-7.8-0.4c-3,2.6-4.7,2.9-7.8-0.5c-3.1-3.4-3.1-3.5-5-6
			c-1.9-2.5-2.5-5-0.7-7.2c1.8-2.2,3-3.8,1-9c-2-5.2-1.3-3.3-2.3-5.9c-1-2.6-2.7-4.8-7.2-6.2C307.7,346.4,305.8,345.4,305.2,341.3z"
			/>
		<linearGradient id="SVGID_43_" gradientUnits="userSpaceOnUse" x1="414.3439" y1="354.7448" x2="322.4271" y2="337.874">
			<stop  offset="8.011200e-04" style="stop-color:#871FFF"/>
			<stop  offset="1" style="stop-color:#80C7F5"/>
		</linearGradient>
		<path class="st53" d="M304.7,341.5l-0.8-8.1c-0.3-4.1,1.5-4.4,4.8-4.3c4.3,0.1,5.6-1.6,6.1-3.9c0.5-2.4,0.2-0.7,1.1-5.3
			c1-4.7-0.6-6.7-2.9-9.6c-2.3-2.9-2.2-5.2-0.7-7.2c1.5-1.9,1.5-2,4-4.5c2.5-2.5,4.3-1.6,8,2.1c1.8,1.9,3.5,2.5,5,2.6
			c1.3-0.8,2.6-1.5,4.1-2.1l10.2,15.5c-10.3,2.4-16.1,13.7-13,27.3c3.5,15.3,16.8,27.8,29.7,27.8c12.9,0,20.5-12.5,17.1-27.8
			c-2.4-10.4-9.3-19.5-17.5-24.2l-0.5,10.4l-15.3-23.4c-1.5-2.4-1.4-5.3,0.3-6.5l17-11.9l-0.7,15c13,6.4,24.3,19.5,29.4,35.1
			c1.1,2.2,2.8,4,6.8,5.2c3.4,1,5.3,2,5.9,6.1l0.8,8.1c0.3,4.1-1.5,4.4-4.8,4.3c-4.3-0.1-5.6,1.6-6.1,4c-0.5,2.4-0.2,0.7-1.1,5.3
			c-1,4.7,0.6,6.7,2.9,9.6c2.3,2.9,2.2,5.2,0.7,7.2c-1.5,1.9-1.5,2-4,4.5c-2.5,2.5-4.3,1.6-8-2.1c-3.7-3.7-7-2.5-8-2.2
			c-1.1,0.3-3.7,1.1-5.1,1.9c-1.4,0.8-2.8,1.5-2.3,7c0.5,5.5-2.7,4.8-4.3,4.5l-8-1.3c-1.5-0.3-4.8-0.6-5.4-6.1
			c-0.6-5.5-2.2-6.7-3.8-8c-1.6-1.3-4.5-3-5.7-3.6c-1.2-0.7-4.8-3-7.8-0.4c-3,2.6-4.7,2.9-7.8-0.5c-3.1-3.4-3.1-3.5-5-6
			c-1.9-2.5-2.5-5-0.7-7.2c1.8-2.2,3-3.8,1-9c-2-5.2-1.3-3.3-2.3-5.9c-1-2.6-2.7-4.8-7.2-6.2C307.2,346.6,305.3,345.7,304.7,341.5z"
			/>
		<linearGradient id="SVGID_44_" gradientUnits="userSpaceOnUse" x1="414.1766" y1="355.0301" x2="322.2598" y2="338.1593">
			<stop  offset="8.011200e-04" style="stop-color:#871FFF"/>
			<stop  offset="1" style="stop-color:#80C7F5"/>
		</linearGradient>
		<path class="st54" d="M304.3,341.7l-0.8-8.1c-0.3-4.1,1.5-4.4,4.8-4.3c4.3,0.1,5.6-1.6,6.1-3.9c0.5-2.4,0.2-0.7,1.1-5.3
			c1-4.7-0.6-6.7-2.9-9.6c-2.3-2.9-2.2-5.2-0.7-7.2c1.5-1.9,1.5-2,4-4.5c2.5-2.5,4.3-1.6,8,2.1c1.8,1.9,3.5,2.5,5,2.6
			c1.3-0.8,2.6-1.5,4.1-2.1l10.2,15.5c-10.3,2.4-16.1,13.7-13,27.3c3.5,15.3,16.8,27.8,29.7,27.8c12.9,0,20.5-12.5,17.1-27.8
			c-2.4-10.4-9.3-19.5-17.5-24.2l-0.5,10.4l-15.3-23.4c-1.5-2.4-1.4-5.3,0.3-6.5l17-11.9l-0.7,15c13,6.4,24.3,19.5,29.4,35.1
			c1.1,2.2,2.8,4,6.8,5.2c3.4,1,5.3,2,5.9,6.1l0.8,8.1c0.3,4.1-1.5,4.4-4.8,4.3c-4.3-0.1-5.6,1.6-6.1,4c-0.5,2.4-0.2,0.7-1.1,5.3
			c-1,4.7,0.6,6.7,2.9,9.6c2.3,2.9,2.2,5.2,0.7,7.2c-1.5,1.9-1.5,2-4,4.5c-2.5,2.5-4.3,1.6-8-2.1c-3.7-3.7-7-2.5-8-2.2
			c-1.1,0.3-3.7,1.1-5.1,1.9c-1.4,0.8-2.8,1.5-2.3,7c0.5,5.5-2.7,4.8-4.3,4.5l-8-1.3c-1.5-0.3-4.8-0.6-5.4-6.1
			c-0.6-5.5-2.2-6.7-3.8-8c-1.6-1.3-4.5-3-5.7-3.6c-1.2-0.7-4.8-3-7.8-0.4c-3,2.6-4.7,2.9-7.8-0.5c-3.1-3.4-3.1-3.5-5-6
			c-1.9-2.5-2.5-5-0.7-7.2c1.8-2.2,3-3.8,1-9c-2-5.2-1.3-3.3-2.3-5.9c-1-2.6-2.7-4.8-7.2-6.2C306.7,346.8,304.9,345.9,304.3,341.7z"
			/>
		<linearGradient id="SVGID_45_" gradientUnits="userSpaceOnUse" x1="414.0093" y1="355.3154" x2="322.0924" y2="338.4446">
			<stop  offset="8.011200e-04" style="stop-color:#871FFF"/>
			<stop  offset="1" style="stop-color:#80C7F5"/>
		</linearGradient>
		<path class="st55" d="M303.8,342l-0.8-8.1c-0.3-4.1,1.5-4.4,4.8-4.3c4.3,0.1,5.6-1.6,6.1-3.9c0.5-2.4,0.2-0.7,1.1-5.3
			c1-4.7-0.6-6.7-2.9-9.6c-2.3-2.9-2.2-5.2-0.7-7.2c1.5-1.9,1.5-2,4-4.5c2.5-2.5,4.3-1.6,8,2.1c1.8,1.9,3.5,2.5,5,2.6
			c1.3-0.8,2.6-1.5,4.1-2.1l10.2,15.5c-10.3,2.4-16.1,13.7-13,27.3c3.5,15.3,16.8,27.8,29.7,27.8s20.5-12.5,17.1-27.8
			c-2.4-10.4-9.3-19.5-17.5-24.2l-0.5,10.4L343,307.2c-1.5-2.4-1.4-5.3,0.3-6.5l17-11.9l-0.7,15c13,6.4,24.3,19.5,29.4,35.1
			c1.1,2.2,2.8,4,6.8,5.2c3.4,1,5.3,2,5.9,6.1l0.8,8.1c0.3,4.1-1.5,4.4-4.8,4.3c-4.3-0.1-5.6,1.6-6.1,4c-0.5,2.4-0.2,0.7-1.1,5.3
			c-1,4.7,0.6,6.7,2.9,9.6c2.3,2.9,2.2,5.2,0.7,7.2c-1.5,1.9-1.5,2-4,4.5c-2.5,2.5-4.3,1.6-8-2.1c-3.7-3.7-7-2.5-8-2.2
			c-1.1,0.3-3.7,1.1-5.1,1.9c-1.4,0.8-2.8,1.5-2.3,7c0.5,5.5-2.7,4.8-4.3,4.5l-8-1.3c-1.5-0.3-4.8-0.6-5.4-6.1
			c-0.6-5.5-2.2-6.7-3.8-8c-1.6-1.3-4.5-3-5.7-3.6c-1.2-0.7-4.8-3-7.8-0.4c-3,2.6-4.7,2.9-7.8-0.5c-3.1-3.4-3.1-3.5-5-6
			c-1.9-2.5-2.5-5-0.7-7.2c1.8-2.2,3-3.8,1-9c-2-5.2-1.3-3.3-2.3-5.9c-1-2.6-2.7-4.8-7.2-6.2C306.3,347,304.4,346.1,303.8,342z"/>
		<linearGradient id="SVGID_46_" gradientUnits="userSpaceOnUse" x1="413.842" y1="355.6007" x2="321.9251" y2="338.7299">
			<stop  offset="8.011200e-04" style="stop-color:#871FFF"/>
			<stop  offset="1" style="stop-color:#80C7F5"/>
		</linearGradient>
		<path class="st56" d="M303.3,342.2l-0.8-8.1c-0.3-4.1,1.5-4.4,4.8-4.3c4.3,0.1,5.6-1.6,6.1-3.9c0.5-2.4,0.2-0.7,1.1-5.3
			c1-4.7-0.6-6.7-2.9-9.6c-2.3-2.9-2.2-5.2-0.7-7.2c1.5-1.9,1.5-2,4-4.5c2.5-2.5,4.3-1.6,8,2.1c1.8,1.9,3.5,2.5,5,2.6
			c1.3-0.8,2.6-1.5,4.1-2.1l10.2,15.5c-10.3,2.4-16.1,13.7-13,27.3c3.5,15.3,16.8,27.8,29.7,27.8s20.5-12.5,17.1-27.8
			c-2.4-10.4-9.3-19.5-17.5-24.2l-0.5,10.4l-15.3-23.4c-1.5-2.4-1.4-5.3,0.3-6.5l17-11.9l-0.7,15c13,6.4,24.3,19.5,29.4,35.1
			c1.1,2.2,2.8,4,6.8,5.2c3.4,1,5.3,2,5.9,6.1l0.8,8.1c0.3,4.1-1.5,4.4-4.8,4.3c-4.3-0.1-5.6,1.6-6.1,4c-0.5,2.4-0.2,0.7-1.1,5.3
			c-1,4.7,0.6,6.7,2.9,9.6c2.3,2.9,2.2,5.2,0.7,7.2c-1.5,1.9-1.5,2-4,4.5c-2.5,2.5-4.3,1.6-8-2.1c-3.7-3.7-7-2.5-8-2.2
			c-1.1,0.3-3.7,1.1-5.1,1.9c-1.4,0.8-2.8,1.5-2.3,7c0.5,5.5-2.7,4.8-4.3,4.5l-8-1.3c-1.5-0.3-4.8-0.6-5.4-6.1
			c-0.6-5.5-2.2-6.7-3.8-8c-1.6-1.3-4.5-3-5.7-3.6c-1.2-0.7-4.8-3-7.8-0.4c-3,2.6-4.7,2.9-7.8-0.5c-3.1-3.4-3.1-3.5-5-6
			c-1.9-2.5-2.5-5-0.7-7.2c1.8-2.2,3-3.8,1-9c-2-5.2-1.3-3.3-2.3-5.9c-1-2.6-2.7-4.8-7.2-6.2C305.8,347.3,303.9,346.4,303.3,342.2z"
			/>
		<linearGradient id="SVGID_47_" gradientUnits="userSpaceOnUse" x1="413.6747" y1="355.886" x2="321.7578" y2="339.0152">
			<stop  offset="8.011200e-04" style="stop-color:#871FFF"/>
			<stop  offset="1" style="stop-color:#80C7F5"/>
		</linearGradient>
		<path class="st57" d="M302.9,342.4l-0.8-8.1c-0.3-4.1,1.5-4.4,4.8-4.3c4.3,0.1,5.6-1.6,6.1-3.9c0.5-2.4,0.2-0.7,1.1-5.3
			c1-4.7-0.6-6.7-2.9-9.6c-2.3-2.9-2.2-5.2-0.7-7.2c1.5-1.9,1.5-2,4-4.5c2.5-2.5,4.3-1.6,8,2.1c1.8,1.9,3.5,2.5,5,2.6
			c1.3-0.8,2.6-1.5,4.1-2.1l10.2,15.5c-10.3,2.4-16.1,13.7-13,27.3c3.5,15.3,16.8,27.8,29.7,27.8c12.9,0,20.5-12.5,17.1-27.8
			c-2.4-10.4-9.3-19.5-17.5-24.2l-0.5,10.4l-15.3-23.4c-1.5-2.4-1.4-5.3,0.3-6.5l17-11.9l-0.7,15c13,6.4,24.3,19.5,29.4,35.1
			c1.1,2.2,2.8,4,6.8,5.2c3.4,1,5.3,2,5.9,6.1l0.8,8.1c0.3,4.1-1.5,4.4-4.8,4.3c-4.3-0.1-5.6,1.6-6.1,4c-0.5,2.4-0.2,0.7-1.1,5.3
			c-1,4.7,0.6,6.7,2.9,9.6c2.3,2.9,2.2,5.2,0.7,7.2c-1.5,1.9-1.5,2-4,4.5c-2.5,2.5-4.3,1.6-8-2.1c-3.7-3.7-7-2.5-8-2.2
			c-1.1,0.3-3.7,1.1-5.1,1.9c-1.4,0.8-2.8,1.5-2.3,7c0.5,5.5-2.7,4.8-4.3,4.5l-8-1.3c-1.5-0.3-4.8-0.6-5.4-6.1
			c-0.6-5.5-2.2-6.7-3.8-8c-1.6-1.3-4.5-3-5.7-3.6c-1.2-0.7-4.8-3-7.8-0.4c-3,2.6-4.7,2.9-7.8-0.5c-3.1-3.4-3.1-3.5-5-6
			c-1.9-2.5-2.5-5-0.7-7.2c1.8-2.2,3-3.8,1-9c-2-5.2-1.3-3.3-2.3-5.9c-1-2.6-2.7-4.8-7.2-6.2C305.4,347.5,303.5,346.6,302.9,342.4z"
			/>
		<linearGradient id="SVGID_48_" gradientUnits="userSpaceOnUse" x1="413.5073" y1="356.1713" x2="321.5905" y2="339.3005">
			<stop  offset="8.011200e-04" style="stop-color:#871FFF"/>
			<stop  offset="1" style="stop-color:#80C7F5"/>
		</linearGradient>
		<path class="st58" d="M302.4,342.7l-0.8-8.1c-0.3-4.1,1.5-4.4,4.8-4.3c4.3,0.1,5.6-1.6,6.1-3.9c0.5-2.4,0.2-0.7,1.1-5.3
			c1-4.7-0.6-6.7-2.9-9.6c-2.3-2.9-2.2-5.2-0.7-7.2c1.5-1.9,1.5-2,4-4.5c2.5-2.5,4.3-1.6,8,2.1c1.8,1.9,3.5,2.5,5,2.6
			c1.3-0.8,2.6-1.5,4.1-2.1l10.2,15.5c-10.3,2.4-16.1,13.7-13,27.3c3.5,15.3,16.8,27.8,29.7,27.8c12.9,0,20.5-12.5,17.1-27.8
			c-2.4-10.4-9.3-19.5-17.5-24.2l-0.5,10.4l-15.3-23.4c-1.5-2.4-1.4-5.3,0.3-6.5l17-11.9l-0.7,15c13,6.4,24.3,19.5,29.4,35.1
			c1.1,2.2,2.8,4,6.8,5.2c3.4,1,5.3,2,5.9,6.1l0.8,8.1c0.3,4.1-1.5,4.4-4.8,4.3c-4.3-0.1-5.6,1.6-6.1,4c-0.5,2.4-0.2,0.7-1.1,5.3
			c-1,4.7,0.6,6.7,2.9,9.6c2.3,2.9,2.2,5.2,0.7,7.2c-1.5,1.9-1.5,2-4,4.5c-2.5,2.5-4.3,1.6-8-2.1c-3.7-3.7-7-2.5-8-2.2
			c-1.1,0.3-3.7,1.1-5.1,1.9c-1.4,0.8-2.8,1.5-2.3,7c0.5,5.5-2.7,4.8-4.3,4.5l-8-1.3c-1.5-0.3-4.8-0.6-5.4-6.1
			c-0.6-5.5-2.2-6.7-3.8-8c-1.6-1.3-4.5-3-5.7-3.6c-1.2-0.7-4.8-3-7.8-0.4c-3,2.6-4.7,2.9-7.8-0.5c-3.1-3.4-3.1-3.5-5-6
			c-1.9-2.5-2.5-5-0.7-7.2c1.8-2.2,3-3.8,1-9c-2-5.2-1.3-3.3-2.3-5.9c-1-2.6-2.7-4.8-7.2-6.2C304.9,347.7,303,346.8,302.4,342.7z"/>
	</g>
	<path class="st3" d="M302.3,342.7l-0.8-8.1c-0.3-4.1,1.5-4.4,4.8-4.3c4.3,0.1,5.6-1.6,6.1-3.9c0.5-2.4,0.2-0.7,1.1-5.3
		c1-4.7-0.6-6.7-2.9-9.6c-2.3-2.9-2.2-5.2-0.7-7.2c1.5-1.9,1.5-2,4-4.5c2.5-2.5,4.3-1.6,8,2.1c1.8,1.9,3.5,2.5,5,2.6
		c1.3-0.8,2.6-1.5,4.1-2.1l10.2,15.5c-10.3,2.4-16.1,13.7-13,27.3c3.5,15.3,16.8,27.8,29.7,27.8s20.5-12.5,17.1-27.8
		c-2.4-10.4-9.3-19.5-17.5-24.2l-0.5,10.4l-15.3-23.4c-1.5-2.4-1.4-5.3,0.3-6.5l17-11.9l-0.7,15c13,6.4,24.3,19.5,29.4,35.1
		c1.1,2.2,2.8,4,6.8,5.2c3.4,1,5.3,2,5.9,6.1l0.8,8.1c0.3,4.1-1.5,4.4-4.8,4.3c-4.3-0.1-5.6,1.6-6.1,4c-0.5,2.4-0.2,0.7-1.1,5.3
		c-1,4.7,0.6,6.7,2.9,9.6c2.3,2.9,2.2,5.2,0.7,7.2c-1.5,1.9-1.5,2-4,4.5c-2.5,2.5-4.3,1.6-8-2.1c-3.7-3.7-7-2.5-8-2.2
		c-1.1,0.3-3.7,1.1-5.1,1.9c-1.4,0.8-2.8,1.5-2.3,7c0.5,5.5-2.7,4.8-4.3,4.5l-8-1.3c-1.5-0.3-4.8-0.6-5.4-6.1
		c-0.6-5.5-2.2-6.7-3.8-8c-1.6-1.3-4.5-3-5.7-3.6c-1.2-0.7-4.8-3-7.8-0.4c-3,2.6-4.7,2.9-7.8-0.5c-3.1-3.4-3.1-3.5-5-6
		c-1.9-2.5-2.5-5-0.7-7.2c1.8-2.2,3-3.8,1-9c-2-5.2-1.3-3.3-2.3-5.9c-1-2.6-2.7-4.8-7.2-6.2C304.8,347.8,302.9,346.9,302.3,342.7z"
		/>
	<g>
		
			<linearGradient id="SVGID_49_" gradientUnits="userSpaceOnUse" x1="565.7688" y1="299.5253" x2="618.5897" y2="299.5253" gradientTransform="matrix(0.9997 -2.313016e-02 2.313016e-02 0.9997 -3.0363 11.6978)">
			<stop  offset="0" style="stop-color:#871FFF"/>
			<stop  offset="1" style="stop-color:#80C7F5"/>
		</linearGradient>
		<path class="st59" d="M574.5,279.3l34.4-21c1.4-0.9,2.7-0.9,3.7-0.3l0,0l8.9,5.6c0,0-2.3,3.5-3.9,7.7l0.7,31.5
			c0.1,4-2.2,8.7-5.1,10.5l-28,17c-2.5,4.5-5.7,6.9-5.7,6.9L573,333c-2.2-1.6-2.7-3.8-2.8-5.1l-0.9-38.1
			C569.2,285.8,571.6,281.1,574.5,279.3z"/>
		<path class="st20" d="M579.5,337.3l39.8-20.6c3-1.8,5.3-6.5,5.2-10.5l-0.9-38.1c-0.1-4-2.6-5.8-5.5-4l-34.5,21
			c-3,1.8-5.3,6.5-5.2,10.5l0.8,36.4l0,1.7C579.4,333.7,579.5,337.2,579.5,337.3C579.4,337.2,579.5,337.3,579.5,337.3z"/>
		<g>
			<path class="st3" d="M600.6,295c-0.5,0.8-0.7,1.8-0.5,2.7c0.9,0.1,1.8,0.3,2.6,0.8c2.6,1.6,3.4,5.1,1.7,7.7l-4.4,7.1
				c-1.6,2.6-5.1,3.4-7.7,1.7c-2.6-1.6-3.4-5.1-1.7-7.7l3.3-5.2c-0.8-1.5-1.2-3.1-1.3-4.8c-0.2,0.3-0.5,0.6-0.7,0.9l-4.4,7.1
				c-2.7,4.3-1.4,10.1,2.9,12.8c4.3,2.7,10.1,1.4,12.8-2.9l4.4-7.1c2.7-4.3,1.4-10.1-2.9-12.8c-1.1-0.7-2.3-1.1-3.6-1.3L600.6,295z"
				/>
			<path class="st3" d="M600.3,285l-4.4,7.1c-2.7,4.3-1.4,10.1,2.9,12.8c1.1,0.7,2.3,1.1,3.6,1.3l0.6-0.9c0.5-0.8,0.7-1.8,0.5-2.7
				c-0.9-0.1-1.8-0.3-2.6-0.8c-2.6-1.6-3.4-5.1-1.7-7.7l4.4-7.1c1.6-2.6,5.1-3.4,7.7-1.7c2.6,1.6,3.4,5.1,1.7,7.7l-3.3,5.2
				c0.8,1.5,1.2,3.1,1.3,4.8c0.2-0.3,0.5-0.6,0.7-0.9l4.4-7.1c2.7-4.3,1.4-10.1-2.9-12.8C608.8,279.4,603,280.7,600.3,285z"/>
		</g>
	</g>
	<path class="st60" d="M636.9,623.6c1.5,0.9,2.8,0.2,2.8-1.6c0-1.8-1.3-4-2.8-4.9c-1.5-0.9-2.8-0.2-2.8,1.6
		C634.1,620.5,635.4,622.7,636.9,623.6z"/>
</g>
</svg>
