<?xml version="1.0" encoding="utf-8"?>
<!-- Generator: Adobe Illustrator 24.0.1, SVG Export Plug-In . SVG Version: 6.00 Build 0)  -->
<svg version="1.1" xmlns="http://www.w3.org/2000/svg" xmlns:xlink="http://www.w3.org/1999/xlink" x="0px" y="0px"
	 viewBox="0 0 800 800" style="enable-background:new 0 0 800 800;" xml:space="preserve">
<style type="text/css">
	.st0{display:none;}
	.st1{display:inline;fill:#871FFF;}
	.st2{fill:url(#SVGID_1_);}
	.st3{clip-path:url(#SVGID_3_);fill:#FFFFFF;}
	.st4{clip-path:url(#SVGID_5_);fill:#FFFFFF;}
	.st5{clip-path:url(#SVGID_7_);fill:#FFFFFF;}
	.st6{clip-path:url(#SVGID_9_);fill:#FFFFFF;}
	.st7{clip-path:url(#SVGID_11_);fill:#FFFFFF;}
	.st8{clip-path:url(#SVGID_13_);fill:#FFFFFF;}
	.st9{clip-path:url(#SVGID_15_);fill:#FFFFFF;}
	.st10{clip-path:url(#SVGID_17_);fill:#FFFFFF;}
	.st11{clip-path:url(#SVGID_19_);fill:#FFFFFF;}
	.st12{fill:none;stroke:#FFFFFF;stroke-width:4;stroke-miterlimit:10;}
	.st13{fill:#FFFFFF;}
</style>
<g id="Layer_1" class="st0">
	<rect x="-7.2" y="-7.2" class="st1" width="814.5" height="814.5"/>
</g>
<g id="Layer_2">
	<linearGradient id="SVGID_1_" gradientUnits="userSpaceOnUse" x1="651.1406" y1="580.617" x2="156.5895" y2="224.853">
		<stop  offset="0" style="stop-color:#D6219C"/>
		<stop  offset="1" style="stop-color:#80C7F5"/>
	</linearGradient>
	<circle class="st2" cx="395.4" cy="396.7" r="286.7"/>
	<g id="Layer_1_2_">
		<g id="Layer_2_2_">
			<g>
				<g>
					<g>
						<g>
							<g>
								<g>
									<g>
										<defs>
											<circle id="SVGID_2_" cx="396.6" cy="396.7" r="286.7"/>
										</defs>
										<clipPath id="SVGID_3_">
											<use xlink:href="#SVGID_2_"  style="overflow:visible;"/>
										</clipPath>
										<path class="st3" d="M642.2,553.3c-6.6-9.5-2.2-24.1,0.8-33c3-8.9,14.4-29.6,14.4-50.8c0-23.4-7.8-30.7-7.8-42.1
											c0-11.8,2-15.4,2-17.9c0-1.1-0.8-1.9-2-1.9c-2.4,0-2.9,4.4-7.5,4.4c-3.7,0-4.2-8.9-11.2-8.9c-5.2,0-4.6,12.2-9.3,12.2
											c-2.7,0-3.8-4.1-7.1-4.1c-6.5,0-5.5,14-16.6,14c-23.2,0-37.7-9.8-37.7-27.9c0-14.2,3.8-15.3,3.8-29.8
											c0-13.5-16.8-11.9-16.8-32.9c0-18,26.5-21,26.5-31.1c0-9.5-11.2-6.5-11.2-18.1c0-4.9,3.7-8.7,11-8.7
											c12.4,0,9.9-21.7,24.9-21.7c6.5,0,10,2.7,10,9c0,6.2,0.9,7.5,2.9,7.5c3.7,0,2.2-5.1,5.7-5.1c4.6,0,4.7,5.3,8.8,5.3
											c4.2,0,6.4-2.1,6.4-5.5s-3-4.6-3-7.3c0-1.6,1.2-3.1,4.1-3.1c4.2,0,5.8-1,5.8-3.4c0-3.6-2.1-3.1-2.1-11.7l123.6,95.7
											L642.2,553.3z"/>
									</g>
								</g>
							</g>
						</g>
						<g>
							<g>
								<g>
									<g>
										<defs>
											<circle id="SVGID_4_" cx="396.6" cy="396.7" r="286.7"/>
										</defs>
										<clipPath id="SVGID_5_">
											<use xlink:href="#SVGID_4_"  style="overflow:visible;"/>
										</clipPath>
										<path class="st4" d="M489.5,125.3c0,7.9,31.6,12.3,31.6,21.2c0,0.8-0.5,1.2-1.5,1.2c-4,0-16.7-9.1-24.2-9.1
											c-4.6,0-5.9,1.8-5.9,4.3c0,9.9,21.3,15.4,21.3,20.9c0,2.7-4.4,1.4-4.4,4c0,6.2,11.2,13,16.9,13c3.8,0,1.5-6,4.4-6
											c4,0,6.3,13.9,12.2,13.9c1.2,0,1.8-0.5,1.8-2.9c0-7.9-7.5-18.1-14.6-18.1c-6.6,0-20.7-11.5-20.7-16.3
											c0-0.7,0.7-1.4,1.6-1.4c4,0,15.8,13.9,19.6,13.9c1.5,0,2.1-0.9,2.1-4.2c0-2,0.7-2.6,2.1-2.6c8.7,0,8.6,18,14.2,18
											c6.2,0,10.2,2.7,10.2,8.6c0,5.2-1.5,6.9-6.4,6.9c-4.1,0-5.3,1.5-5.3,14.5c0,9.8-1.6,11.5-6.2,11.5c-2.6,0-4.2,1.8-4.2,4
											c0,9.8,21.2,8.1,21.2,16.8c0,2.4-1.5,4-12,4c-3.1,0-5.2,2-5.2,4.4c0,10.7,15.3,25.5,21.4,25.5c3.3,0,4.4-1.2,4.4-3.5
											c0-1.9,1.3-3.3,3.6-3.3c3.8,0,5.3-1.8,5.3-4c0-5.4-6.4-6.2-6.4-13.3c0-9.5,1.9-12.6,4.8-12.6c2,0,3.1-1,3.1-6.2
											c0-1.2,1-2.3,2.7-2.3c9.2,0,10.2,8.5,13.9,8.5c6,0,3.4,7.8,10.1,7.8c1.3,0,1.8-0.7,1.8-2.2c0-6.5-2.7-9.8-7.3-9.8
											c-3.7,0-6-2.4-6-5.5c0-2.7,1.1-4.1,3.1-4.1c7.6,0,14.1,19.7,19.9,19.7c1.8,0,2.4-0.9,2.4-3.1c0-5.6-13.4-12.6-13.4-18.7
											c0-3.1,2.2-2.9,2.2-5.7c0-3.7-9.2-5.4-9.2-12.9c0-4.2,1.5-5.6,5.2-5.6l-28.2-64L489.5,125.3z"/>
									</g>
								</g>
							</g>
						</g>
						<g>
							<g>
								<g>
									<g>
										<defs>
											<circle id="SVGID_6_" cx="396.6" cy="396.7" r="286.7"/>
										</defs>
										<clipPath id="SVGID_7_">
											<use xlink:href="#SVGID_6_"  style="overflow:visible;"/>
										</clipPath>
										<path class="st5" d="M502.1,183.6c0,3.8-2.9,4.1-2.9,7c0,1.9,0.9,2.6,3.3,2.6c10.8,0,22.9,10.7,22.9,15.4
											c0,6.5,1.5,7.6,4.1,7.6c4.2,0,9.1-5.3,9.1-9c0-3.5-1.9-4.8-4.4-4.8c-5.5,0-25.6-12.6-25.6-17.7c0-2.2-1.8-4.1-3.6-4.1
											C503.1,180.6,502.1,181.8,502.1,183.6z"/>
									</g>
								</g>
							</g>
						</g>
						<g>
							<g>
								<g>
									<g>
										<defs>
											<circle id="SVGID_8_" cx="396.6" cy="396.7" r="286.7"/>
										</defs>
										<clipPath id="SVGID_9_">
											<use xlink:href="#SVGID_8_"  style="overflow:visible;"/>
										</clipPath>
										<path class="st6" d="M507.2,198.3c-1.5,0-2.6,1.2-2.6,3.4c0,4.7,5.9,10.8,10.7,10.8c2,0,2.9-1,2.9-2.9
											C518,204.7,511.2,198.3,507.2,198.3z"/>
									</g>
								</g>
							</g>
						</g>
						<g>
							<g>
								<g>
									<g>
										<defs>
											<circle id="SVGID_10_" cx="396.6" cy="396.7" r="286.7"/>
										</defs>
										<clipPath id="SVGID_11_">
											<use xlink:href="#SVGID_10_"  style="overflow:visible;"/>
										</clipPath>
										<path class="st7" d="M460.6,166.3c-6.9,0-9.7,2.3-9.7,5.4c0,5.7,5.4,9.7,9.7,9.7c5.4,0,9.7-3.4,9.7-7.6
											C470.3,169.6,466,166.3,460.6,166.3z"/>
									</g>
								</g>
							</g>
						</g>
						<g>
							<g>
								<g>
									<g>
										<defs>
											<circle id="SVGID_12_" cx="396.6" cy="396.7" r="286.7"/>
										</defs>
										<clipPath id="SVGID_13_">
											<use xlink:href="#SVGID_12_"  style="overflow:visible;"/>
										</clipPath>
										<path class="st8" d="M370.7,146c0,1.1,0.9,2,2.4,2c2.9,0,5.3-1.5,8.6-1.5c3.8,0,5.5,2,5.5,4.4c0,4.1,1.4,5.6,4.6,5.6
											c3.3,0,6,2.4,6,5.9c0,6.4-10.4,5.6-10.4,10.8c0,2.4,1.6,4,4.3,4s4.2,2,4.2,5.7c0,5.7,4.9,9.6,11,9.6
											c5.1,0,4.3,4.2,6.8,4.2c1.3,0,2.2-1,2.2-4.1c0-5.9,4.2-4.1,4.2-12c0-4,1.8-5.9,4.8-5.9c4.5,0,6.7-1.8,6.7-3.7
											c0-3,1.3-4.4,4.5-4.4c4.6,0,7.1-2.5,7.1-4.6c0-4.3-9-2.9-9-6.7c0-3.2,2.7-3.4,2.7-6.6c0-3-3.4-5.2-9.5-5.2
											c-10.7,0-8.8-11.2-20.3-11.2C390.8,132,370.7,139.6,370.7,146z"/>
									</g>
								</g>
							</g>
						</g>
						<g>
							<g>
								<g>
									<g>
										<defs>
											<circle id="SVGID_14_" cx="396.6" cy="396.7" r="286.7"/>
										</defs>
										<clipPath id="SVGID_15_">
											<use xlink:href="#SVGID_14_"  style="overflow:visible;"/>
										</clipPath>
										<path class="st9" d="M224.9,151.9c24.7,0,27.2,3.3,27.2,8.1c0,17.7-37,24.3-37,47c0,24.1-36.4,30.9-36.4,51
											c0,15.1,4.9,19.1,4.9,29.9c0,7.9-4.2,11.5-4.2,20.9c0,13.7,6.8,18.7,6.8,31.1c0,5.3-2.2,7.9-2.2,14.2
											c0,10.7,11.2,19.8,24.7,19.8c6.6,0,9.8,2.5,9.8,9.1c0,6.3,7.3,12.1,17.7,12.1c5.1,0,7.9,2.9,7.9,13.3
											c0,4.1,1.5,6.2,4.4,6.2c3.7,0,6.3,1.8,6.3,6.7c0,5.4,4.8,10.3,10.8,10.3c2.4,0,3.5-1,3.5-3.8c0-3.5,1.3-5.2,2.9-5.2
											c3.7,0,4,6.5,8.8,6.5c2,0,3.5,1.2,3.5,3.6c0,23.5-18.7,25.7-18.7,46.5c0,35.6,30.8,72.8,52.5,72.8c4.6,0,7.9,2.4,7.9,7.8
											c0,13.5-2.4,21.7-2.4,33c0,9,3.7,12.8,3.7,18.8c0,6-3.1,13-3.1,21.9c0,18.3,16.4,32.2,39.5,32.2c1.1,0,2.3-0.8,2.3-2.3
											c0-1.4-1.1-2.2-3.1-2.2c-3,0-6.2-4.4-6.2-13.4c0-10.4,6.8-19.8,15.3-19.8c9.9,0,12.4-2.3,12.4-4.8
											c0-5.8-10.8-3.2-10.8-11.3c0-1.9,1.3-3.4,3.4-3.4c5.1,0,3.8,7,13.1,7c15.4,0,29-13.3,29-26.5c0-9.2,6.4-14.7,20.2-14.7
											c13.4,0,25.2-12.1,25.2-33c0-15.8,20.1-20.7,20.1-40.5c0-5.2-4-8.4-10.8-8.4c-8.6,0-5.1-10.2-14.3-10.2
											c-5.4,0-9.9,3.7-16.5,3.7c-3,0-4.6-1.5-4.6-4.3c0-5.1-3.5-7.8-9.7-7.8c-5.3,0-6.9,2.2-11.1,2.2c-2.7,0-4.6-1.5-4.6-5.2
											c0-10.7-8.6-10.6-8.6-18.7c0-7.3-6.6-11.4-26.8-11.4c-6,0-8-1.8-8-5.2c0-9.6-11.9-18.8-22.2-18.8c-6.8,0-6.4,4.6-12.4,4.6
											c-9.9,0-12.9-13.1-26.5-13.1c-7.9,0-10.1,8.6-18.5,8.6c-6.4,0-4.9,8.8-8.8,8.8c-3.8,0-5.3-10.1-10.7-10.1
											c-3.3,0-4.1,2.5-9.5,2.5c-4,0-7.9-4.2-7.9-10.2c0-5.3,4.2-8.9,4.2-14.6c0-5.8-3.6-8.9-12.1-8.9c-8.6,0-9.9-1.9-9.9-5.4
											c0-8.9,11.4-12.2,11.4-20.9c0-3.3-3.1-5.9-7.5-5.9c-5.4,0-7.8,2.9-7.8,7.1c0,5.5-3.3,9.2-7.9,9.2
											c-7.3,0-15.2-9.5-15.2-26.5c0-18.9,14.7-32.7,38.4-32.7c16.1,0,27.4,6.4,27.3,13.1c-0.2,6.8-2.7,7.5-2.7,12.5
											c0,4,2.7,5.9,5.3,5.9c3.8,0,5.9-2.5,5.9-25.6c0-11.8,3.3-14.8,8.9-14.8c10.2,0,14.7-3.6,14.7-12.4
											c0-15.1,18.1-32.1,34.6-32.1c2.6,0,4.2,1.2,4.2,4c0,2.1,1.5,3,3.5,3c9.6,0,20.7-7.5,20.7-12.3c0-1.3-1.1-2.4-2.6-2.4
											c-2.7,0-3.7,3.2-6.9,3.2c-2.9,0-4.6-1.6-4.6-4.5c0-2.4,1.6-4,1.6-5.9c0-1.9-1.6-2.9-4.9-2.9c-3.5,0-4.9-1.3-4.9-3
											c0-6.3,18.9-3,31.2-3c4.7,0,7.6-2.7,7.6-9.1c0-5.6-3.2-8.5-8.6-8.5c-4.2,0-5.8-2.7-5.8-9.3c0-6.4-2.6-9.2-5.3-9.2
											c-4.6,0-5.5,6-9.9,6c-2.3,0-4.2-1.8-4.2-6c0-6.2-4.3-9.7-10-9.7c-3.5,0-5.4,1.8-5.4,5.2c0,2.6-1.2,4.1-4.5,4.1
											c-2.1,0-3.5,1.3-3.5,3.6c0,3.5,3,4.2,3,7.9c0,4-2.2,5.8-7.4,5.8c-2.6,0-4.6,2.1-4.6,6c0,5.3-1.9,6.8-5.6,6.8
											c-7.4,0-18.8-16.8-18.8-31c0-7.9,4.7-13.1,27.8-13.1c4.5,0,6.9-2.5,6.9-6.7c0-5.7,7.6-13.2,16.6-13.2
											c5.5,0,9.6,3.5,9.6,7.5c0,3.3-5.8,3.5-5.8,9.5c0,5.4,4.4,9.3,10.9,9.3c6.7,0,13-6.3,13-13.4c0-3.6-2.1-5.4-4.3-5.4
											s-4-1.1-4-3.5c0-9.1-9.2-16.1-21.9-16.1c-12,0-14,5.5-19.6,5.5c-3.1,0-4.7-2.3-4.7-9.1c0-3.4-2.3-5.6-5.3-5.6
											c-3.5,0-7.5,4.1-7.5,8.8c0,3.1-2.4,4.8-6.9,4.8c-2.4,0-4.4-1.6-4.4-3.7c0-3.8,5.4-3.2,5.4-6.4c0-1.4-1.2-2.3-2.7-2.3
											c-3,0-4.1,2.7-6.5,2.7c-1.6,0-2.3-1.2-2.3-2.2c0-4.6,9-3.8,9-9c0-2.9-4.4-5.6-8.2-5.6L224.9,151.9z"/>
									</g>
								</g>
							</g>
						</g>
						<g>
							<g>
								<g>
									<g>
										<defs>
											<circle id="SVGID_16_" cx="396.6" cy="396.7" r="286.7"/>
										</defs>
										<clipPath id="SVGID_17_">
											<use xlink:href="#SVGID_16_"  style="overflow:visible;"/>
										</clipPath>
										<path class="st10" d="M310.7,371c-6.5,0-8.2,1.6-8.2,3.4c0,2.5-2.7,2.9-2.7,4.4c0,1.3,1,2.3,13.5,2.3
											c9.2,0,12.4-1.9,12.4-4.5C325.7,373.3,322.7,371,310.7,371z"/>
									</g>
								</g>
							</g>
						</g>
						<g>
							<g>
								<g>
									<g>
										<defs>
											<circle id="SVGID_18_" cx="396.6" cy="396.7" r="286.7"/>
										</defs>
										<clipPath id="SVGID_19_">
											<use xlink:href="#SVGID_18_"  style="overflow:visible;"/>
										</clipPath>
										<path class="st11" d="M260.6,354.1c0,2.1,1.4,3.3,7.7,3.3c10.1,0,17.7,4.6,17.7,8.7c0,3,1.6,4.1,6.5,4.1
											c3.8,0,5.8-1.3,5.8-3.8c0-6.6-16.7-16.3-32-16.3C262.3,349.9,260.6,352.2,260.6,354.1z"/>
									</g>
								</g>
							</g>
						</g>
					</g>
				</g>
			</g>
		</g>
	</g>
	<path class="st12" d="M326.3,687.7c-0.1,18.8,14.9,63.7,38,64c44.2,0.5,105-146.5,139.6-369.7C540,148.8,480,28.5,454.1,29.4
		c-30.5,1.1-57.6,55.6-60.9,64.8"/>
	<path class="st12" d="M119.3,505.8c-14.8,11.5-41,50.9-27.1,69.3c26.8,35.2,180.1-7.2,377.4-117.2
		c206.1-114.9,264.1-236.2,247.5-256c-19.6-23.4-79.2-11.3-88.5-8.2"/>
	<path class="st12" d="M237,123.1c-13.8-12.7-57.1-31.9-72.8-15.1C134,140.3,201.5,284.3,343,460.4
		c147.8,183.9,277.1,220.8,293.9,201.1c19.8-23.3-2.2-80-6.7-88.6"/>
	<path class="st12" d="M116.1,283.5c-18.8-0.3-63.8,14.2-64.3,37.3c-1,44.2,145.4,106.6,368.2,143.5c232.8,38.6,353.7-20.2,353.1-46
		c-0.8-30.5-55-58.2-64.1-61.6"/>
	<circle class="st13" cx="626.3" cy="197.2" r="9.5"/>
	<circle class="st13" cx="632.8" cy="580.6" r="9.5"/>
	<circle class="st13" cx="116.5" cy="283.5" r="9.5"/>
	<circle class="st13" cx="394.5" cy="91.9" r="9.5"/>
</g>
</svg>
