<?xml version="1.0" encoding="iso-8859-1"?>
<!-- Generator: Adobe Illustrator 24.0.0, SVG Export Plug-In . SVG Version: 6.00 Build 0)  -->
<svg version="1.1" id="Layer_1" xmlns="http://www.w3.org/2000/svg" xmlns:xlink="http://www.w3.org/1999/xlink" x="0px" y="0px"
	 viewBox="0 0 500 519.555" style="enable-background:new 0 0 500 519.555;" xml:space="preserve">
<linearGradient id="SVGID_1_" gradientUnits="userSpaceOnUse" x1="257.8501" y1="520.3322" x2="257.8501" y2="239.7498">
	<stop  offset="8.011200e-04" style="stop-color:#871FFF"/>
	<stop  offset="1" style="stop-color:#80C7F5"/>
</linearGradient>
<path style="fill:url(#SVGID_1_);" d="M21.312,386.13l226.411,130.718c6.251,3.609,13.952,3.609,20.203,0l226.462-130.748
	c7.483-4.32,7.483-15.121,0-19.441L267.977,235.942c-6.251-3.609-13.952-3.609-20.203,0L21.312,366.69
	C13.83,371.01,13.83,381.81,21.312,386.13z"/>
<polygon style="fill:#80C7F5;" points="436.275,243.025 436.325,202.591 389.602,175.615 389.543,216.045 "/>
<polygon style="fill:#871FFF;" points="389.602,175.615 405.191,211.591 436.325,202.591 "/>
<g>
	<polygon style="fill:#FFFFFF;" points="250.753,7.366 250.622,61.076 229.124,73.488 221.827,91.532 213.708,82.389 188.678,96.84 
		188.822,43.123 	"/>
	
		<ellipse transform="matrix(0.3916 -0.9202 0.9202 0.3916 71.5397 228.0023)" style="fill:#80C7F5;" cx="208.174" cy="59.906" rx="5.829" ry="3.298"/>
	
		<ellipse transform="matrix(0.3916 -0.9202 0.9202 0.3916 87.4067 235.8641)" style="fill:#80C7F5;" cx="222.052" cy="51.84" rx="5.829" ry="3.298"/>
	
		<ellipse transform="matrix(0.3916 -0.9202 0.9202 0.3916 103.2222 243.76)" style="fill:#80C7F5;" cx="235.93" cy="43.829" rx="5.829" ry="3.298"/>
	<path style="fill:#80C7F5;" d="M250.753,7.366l-10.403-5.98c-3.227-1.855-7.198-1.848-10.419,0.017l-48.82,28.277
		c-4.814,2.788-7.783,7.924-7.798,13.486l-0.106,38.698c-0.01,3.735,1.978,7.189,5.213,9.056l10.257,5.919l0.144-53.717
		L250.753,7.366z M209.489,84.873l4.22-2.484l8.118,9.143L209.489,84.873z"/>
</g>
<linearGradient id="SVGID_2_" gradientUnits="userSpaceOnUse" x1="15.7957" y1="188.135" x2="182.4091" y2="188.135" gradientTransform="matrix(1.3538 0.3304 -0.2371 0.9715 33.3515 1.088)">
	<stop  offset="8.011200e-04" style="stop-color:#643BB6"/>
	<stop  offset="1" style="stop-color:#86BCE8"/>
</linearGradient>
<path style="fill:url(#SVGID_2_);" d="M221.093,300.761c-1.29-33.596-18.339-68.072-48.006-97.076
	c-30.089-29.416-71.823-51.758-117.516-62.911c-10.619-2.592-21.427-4.583-32.123-5.916l0.095-0.763
	c10.725,1.337,21.562,3.333,32.21,5.932c45.825,11.186,87.685,33.598,117.871,63.109c29.809,29.143,46.94,63.803,48.237,97.597
	L221.093,300.761z"/>
<linearGradient id="SVGID_3_" gradientUnits="userSpaceOnUse" x1="144.4334" y1="157.0102" x2="263.639" y2="157.0102" gradientTransform="matrix(0.9541 0.2995 -0.2481 0.7904 168.413 -4.6148)">
	<stop  offset="8.011200e-04" style="stop-color:#643BB6"/>
	<stop  offset="1" style="stop-color:#86BCE8"/>
</linearGradient>
<path style="fill:url(#SVGID_3_);" d="M236.543,262.549l-0.546-0.232c31.1-73.127,93.573-131.226,175.909-163.594l0.217,0.552
	C329.936,131.584,267.581,189.569,236.543,262.549z"/>
<g>
	<polygon style="fill:#80C7F5;" points="412.566,54.414 412.652,89.564 426.721,97.687 431.497,109.495 436.81,103.511 
		453.191,112.969 453.097,77.814 	"/>
	<g>
		<g>
			<path style="fill:#FFFFFF;" d="M441.307,85.319c0-3.137-1.907-6.782-4.26-8.141c-1.764-1.018-3.277-0.463-3.925,1.2
				c-0.647-2.411-2.161-4.714-3.924-5.732c-2.353-1.359-4.261,0.083-4.261,3.221c0,1.586,0.49,3.299,1.275,4.783l6.91,13.986
				l7.074-6.134l-0.004-0.005C440.882,87.887,441.307,86.794,441.307,85.319z"/>
		</g>
	</g>
	
		<linearGradient id="SVGID_4_" gradientUnits="userSpaceOnUse" x1="1471.8019" y1="47.7764" x2="1407.9539" y2="111.6243" gradientTransform="matrix(-1 0 0 1 1875.3855 0)">
		<stop  offset="8.011200e-04" style="stop-color:#871FFF"/>
		<stop  offset="1" style="stop-color:#80C7F5"/>
	</linearGradient>
	<path style="fill:url(#SVGID_4_);" d="M453.097,77.814l0.094,35.154l6.712-3.874c2.117-1.222,3.418-3.483,3.412-5.927
		l-0.069-25.325c-0.01-3.64-1.953-7.001-5.103-8.826l-31.949-18.505c-2.108-1.221-4.706-1.225-6.818-0.011l-6.808,3.913
		L453.097,77.814z M431.497,109.495l5.313-5.984l2.774,1.611L431.497,109.495z"/>
</g>
<g>
	<polygon style="fill:#80C7F5;" points="89.549,270.246 89.651,312.105 106.406,321.779 112.093,335.841 118.42,328.715 
		137.928,339.978 137.816,298.113 	"/>
	
		<linearGradient id="SVGID_5_" gradientUnits="userSpaceOnUse" x1="1796.5339" y1="262.3409" x2="1720.4977" y2="338.3772" gradientTransform="matrix(-1 0 0 1 1875.3855 0)">
		<stop  offset="8.011200e-04" style="stop-color:#871FFF"/>
		<stop  offset="1" style="stop-color:#80C7F5"/>
	</linearGradient>
	<path style="fill:url(#SVGID_5_);" d="M137.816,298.113l0.112,41.865l7.994-4.613c2.521-1.455,4.071-4.147,4.063-7.058
		l-0.082-30.159c-0.012-4.335-2.326-8.338-6.078-10.511l-38.048-22.038c-2.51-1.454-5.605-1.459-8.12-0.013l-8.108,4.66
		L137.816,298.113z M112.093,335.841l6.327-7.126l3.304,1.919L112.093,335.841z"/>
</g>
<ellipse transform="matrix(0.6753 -0.7375 0.7375 0.6753 -181.6258 179.9304)" style="fill:#FFFFFF;" cx="113.551" cy="296.255" rx="5.809" ry="6.928"/>
<path style="fill:#FFFFFF;" d="M103.244,313.567l15.118,6.389c2.059,0.87,4.168-0.005,4.686-1.945l0.045-0.169
	c0.92-3.445-1.806-9.584-8.966-13.106l-0.613-0.259c-5.386-2.189-11.799-0.782-13.071,3.981
	C99.924,310.398,101.185,312.697,103.244,313.567z"/>
<linearGradient id="SVGID_6_" gradientUnits="userSpaceOnUse" x1="311.9616" y1="269.3795" x2="388.9427" y2="269.3795">
	<stop  offset="8.011200e-04" style="stop-color:#643BB6"/>
	<stop  offset="1" style="stop-color:#86BCE8"/>
</linearGradient>
<path style="fill:url(#SVGID_6_);" d="M312.463,322.786l-0.502-0.211c18.529-44.043,45.029-80.906,76.638-106.601l0.343,0.422
	C357.404,242.035,330.957,278.824,312.463,322.786z"/>
<linearGradient id="SVGID_7_" gradientUnits="userSpaceOnUse" x1="1180.5131" y1="307.6509" x2="1191.166" y2="307.6509" gradientTransform="matrix(-1 0 0 1 1431.0874 0)">
	<stop  offset="8.011200e-04" style="stop-color:#6F54A2"/>
	<stop  offset="1" style="stop-color:#84C5EC"/>
</linearGradient>
<path style="fill:url(#SVGID_7_);" d="M249.766,324.238c-2.84-11.044-6.152-22.115-9.845-32.905l0.789-0.27
	c3.699,10.81,7.018,21.903,9.864,32.967L249.766,324.238z"/>
<path style="fill:#D6219C;" d="M227.147,273.646l-0.031,178.208l83.111-47.984l0.05-178.228L227.147,273.646z M233.054,434.718
	l0.028-157.646l5.936-3.427l-0.001,6.854l59.365-34.274l0.001-6.854l5.953-3.418l-0.044,157.636L233.054,434.718z"/>
<linearGradient id="SVGID_8_" gradientUnits="userSpaceOnUse" x1="262.7607" y1="448.7378" x2="262.7607" y2="218.7761">
	<stop  offset="0" style="stop-color:#D6219C"/>
	<stop  offset="1" style="stop-color:#FFA68C"/>
</linearGradient>
<path style="fill:url(#SVGID_8_);" d="M310.276,225.642l-9.894-5.687c-1.235-0.71-2.755-0.708-3.989,0.004l-77.122,44.527
	c-2.472,1.427-3.995,4.065-3.996,6.919L215.245,445l11.871,6.853l0.031-178.208L310.276,225.642z"/>
<polygon style="fill:#FFFFFF;" points="233.054,434.718 233.082,277.072 239.018,273.645 239.017,280.499 298.382,246.225 
	298.383,239.371 304.336,235.953 304.292,393.589 "/>
<path style="fill:#871FFF;" d="M256.563,369.34L256.563,369.34c-1.538,0-2.797-1.259-2.797-2.797v-48.17
	c0-1.538,1.259-2.797,2.797-2.797l0,0c1.538,0,2.797,1.259,2.797,2.797v48.17C259.361,368.081,258.102,369.34,256.563,369.34z"/>
<path style="fill:#871FFF;" d="M266.313,355.169L266.313,355.169c-1.538,0-2.797-1.259-2.797-2.797v-26.82
	c0-1.538,1.259-2.797,2.797-2.797l0,0c1.538,0,2.797,1.259,2.797,2.797v26.82C269.11,353.911,267.851,355.169,266.313,355.169z"/>
<path style="fill:#871FFF;" d="M276.144,360.502L276.144,360.502c-1.538,0-2.797-1.259-2.797-2.797V301.1
	c0-1.538,1.259-2.797,2.797-2.797l0,0c1.538,0,2.797,1.259,2.797,2.797v56.605C278.941,359.243,277.682,360.502,276.144,360.502z"/>
<path style="fill:#871FFF;" d="M285.137,351.217L285.137,351.217c-1.538,0-2.797-1.259-2.797-2.797v-38.462
	c0-1.538,1.259-2.797,2.797-2.797l0,0c1.538,0,2.797,1.259,2.797,2.797v38.462C287.935,349.958,286.676,351.217,285.137,351.217z"/>
<path style="fill:#871FFF;" d="M294.285,335.571L294.285,335.571c-1.538,0-2.797-1.259-2.797-2.797v-16.079
	c0-1.538,1.259-2.797,2.797-2.797l0,0c1.538,0,2.797,1.259,2.797,2.797v16.079C297.082,334.312,295.823,335.571,294.285,335.571z"/>
<path style="fill:#871FFF;" d="M246.732,365.755L246.732,365.755c-1.538,0-2.797-1.259-2.797-2.797v-24.672
	c0-1.538,1.259-2.797,2.797-2.797h0c1.538,0,2.797,1.259,2.797,2.797v24.672C249.53,364.496,248.271,365.755,246.732,365.755z"/>
<g>
	<polygon style="fill:#FFFFFF;" points="0,102.199 0.106,145.701 17.518,155.754 23.429,170.369 30.005,162.963 50.278,174.668 
		50.162,131.16 	"/>
	<g>
		<g>
			<polygon style="fill:#80C7F5;" points="42.025,140.582 4.404,118.861 4.397,116.586 42.018,138.307 			"/>
		</g>
		<g>
			<polygon style="fill:#80C7F5;" points="42.025,147.864 4.404,126.144 4.397,123.868 42.018,145.589 			"/>
		</g>
		<g>
			<polygon style="fill:#80C7F5;" points="42.025,155.068 4.404,133.348 4.397,131.073 42.018,152.793 			"/>
		</g>
		<g>
			<polygon style="fill:#80C7F5;" points="23.211,151.445 4.404,140.596 4.397,138.321 23.203,149.17 			"/>
		</g>
	</g>
	<linearGradient id="SVGID_9_" gradientUnits="userSpaceOnUse" x1="1.611" y1="106.7121" x2="62.9849" y2="168.086">
		<stop  offset="8.011200e-04" style="stop-color:#871FFF"/>
		<stop  offset="1" style="stop-color:#80C7F5"/>
	</linearGradient>
	<path style="fill:url(#SVGID_9_);" d="M0,102.199l8.426-4.843c2.614-1.502,5.83-1.497,8.438,0.014l39.541,22.903
		c3.899,2.258,6.304,6.418,6.316,10.923l0.086,31.343c0.008,3.025-1.602,5.823-4.222,7.335l-8.307,4.794l-0.116-43.509L0,102.199z
		 M33.785,165.193l-3.78-2.23l-6.575,7.406L33.785,165.193z"/>
</g>
</svg>
