<?xml version="1.0" encoding="utf-8"?>
<!-- Generator: Adobe Illustrator 24.0.3, SVG Export Plug-In . SVG Version: 6.00 Build 0)  -->
<svg version="1.1" id="Layer_1" xmlns="http://www.w3.org/2000/svg" xmlns:xlink="http://www.w3.org/1999/xlink" x="0px" y="0px"
	 viewBox="0 0 16 16" style="enable-background:new 0 0 16 16;" xml:space="preserve">
<style type="text/css">
	.st0{fill-rule:evenodd;clip-rule:evenodd;fill:#760BFC;}
</style>
<path class="st0" d="M4,0.5C4,0.2,4.2,0,4.5,0h11C15.8,0,16,0.2,16,0.5v13c0,0.3-0.2,0.5-0.5,0.5S15,13.8,15,13.5V1H4.5
	C4.2,1,4,0.8,4,0.5z M2,3.5C2,3.2,2.2,3,2.5,3h10C12.8,3,13,3.2,13,3.5v12c0,0.3-0.2,0.5-0.5,0.5h-10C2.2,16,2,15.8,2,15.5V3.5z
	 M3,4v11h9V4H3z M5.5,6C5.2,6,5,6.2,5,6.5S5.2,7,5.5,7h4C9.8,7,10,6.8,10,6.5S9.8,6,9.5,6H5.5z M5,9.5C5,9.2,5.2,9,5.5,9h4
	C9.8,9,10,9.2,10,9.5S9.8,10,9.5,10h-4C5.2,10,5,9.8,5,9.5z M5.5,12C5.2,12,5,12.2,5,12.5S5.2,13,5.5,13h4c0.3,0,0.5-0.2,0.5-0.5
	S9.8,12,9.5,12H5.5z"/>
</svg>
