<?xml version="1.0" encoding="utf-8"?>
<!-- Generator: Adobe Illustrator 24.0.3, SVG Export Plug-In . SVG Version: 6.00 Build 0)  -->
<svg version="1.1" id="Layer_1" xmlns="http://www.w3.org/2000/svg" xmlns:xlink="http://www.w3.org/1999/xlink" x="0px" y="0px"
	 viewBox="0 0 16 16" style="enable-background:new 0 0 16 16;" xml:space="preserve">
<style type="text/css">
	.st0{fill-rule:evenodd;clip-rule:evenodd;fill:#760BFC;}
</style>
<path class="st0" d="M7.1,1.1C7.2,1.1,7.4,1,7.5,1h7c0.1,0,0.3,0.1,0.4,0.1C14.9,1.2,15,1.4,15,1.5v4c0,0.1-0.1,0.3-0.1,0.4
	C14.8,5.9,14.6,6,14.5,6h-5C9.4,6,9.3,6,9.2,6.1L7,7.6V1.5C7,1.4,7.1,1.2,7.1,1.1z M7.5,0C7.1,0,6.7,0.2,6.4,0.4
	C6.2,0.7,6,1.1,6,1.5v7c0,0.2,0.1,0.4,0.3,0.4C6.4,9,6.6,9,6.8,8.9L9.7,7h4.8c0.4,0,0.8-0.2,1.1-0.4C15.8,6.3,16,5.9,16,5.5v-4
	c0-0.4-0.2-0.8-0.4-1.1C15.3,0.2,14.9,0,14.5,0H7.5z M2.1,2.1C2.2,2.1,2.4,2,2.5,2h2C4.8,2,5,1.8,5,1.5S4.8,1,4.5,1h-2
	C2.1,1,1.7,1.2,1.4,1.4S1,2.1,1,2.5v12c0,0.4,0.2,0.8,0.4,1.1C1.7,15.8,2.1,16,2.5,16h8c0.4,0,0.8-0.2,1.1-0.4
	c0.3-0.3,0.4-0.7,0.4-1.1v-6C12,8.2,11.8,8,11.5,8S11,8.2,11,8.5v6c0,0.1-0.1,0.3-0.1,0.4c-0.1,0.1-0.2,0.1-0.4,0.1h-8
	c-0.1,0-0.3-0.1-0.4-0.1C2.1,14.8,2,14.6,2,14.5v-12C2,2.4,2.1,2.2,2.1,2.1z"/>
</svg>
