<?xml version="1.0" encoding="utf-8"?>
<!-- Generator: Adobe Illustrator 24.0.1, SVG Export Plug-In . SVG Version: 6.00 Build 0)  -->
<svg version="1.1" id="Layer_1" xmlns="http://www.w3.org/2000/svg" xmlns:xlink="http://www.w3.org/1999/xlink" x="0px" y="0px"
	 viewBox="0 0 16 17" style="enable-background:new 0 0 16 17;" xml:space="preserve">
<style type="text/css">
	.st0{fill:url(#SVGID_1_);}
</style>
<linearGradient id="SVGID_1_" gradientUnits="userSpaceOnUse" x1="0" y1="8.5" x2="16" y2="8.5">
	<stop  offset="0" style="stop-color:#881FFF"/>
	<stop  offset="0.2415" style="stop-color:#A13BE7"/>
	<stop  offset="0.7609" style="stop-color:#E084AA"/>
	<stop  offset="1" style="stop-color:#FFA78C"/>
</linearGradient>
<path class="st0" d="M0,4c0-0.8,0.7-1.5,1.5-1.5H2v1H1.5C1.2,3.5,1,3.7,1,4v11c0,0.3,0.2,0.5,0.5,0.5h13c0.3,0,0.5-0.2,0.5-0.5V4
	c0-0.3-0.2-0.5-0.5-0.5H7v-1h7.5C15.3,2.5,16,3.2,16,4v11c0,0.8-0.7,1.5-1.5,1.5h-13C0.7,16.5,0,15.8,0,15V4z M2,2
	c0-0.8,0.7-1.5,1.5-1.5h1C5.3,0.5,6,1.2,6,2v11c0,0.8-0.7,1.5-1.5,1.5h-1C2.7,14.5,2,13.8,2,13V2z M3.5,1.5C3.2,1.5,3,1.7,3,2v11
	c0,0.3,0.2,0.5,0.5,0.5h1C4.8,13.5,5,13.3,5,13V2c0-0.3-0.2-0.5-0.5-0.5H3.5z M7.2,9H9v1H7.2V9z M7.2,11.1H9v1H7.2V11.1z M7.2,13.2
	H9v1H7.2V13.2z M9.7,9h1.8v1H9.7V9z M9.7,11.1h1.8v1H9.7V11.1z M9.7,13.2h1.8v1H9.7V13.2z M12.2,9H14v1h-1.8V9z M12.2,11.1H14v1
	h-1.8V11.1z M12.2,13.2H14v1h-1.8V13.2z M13,4.5H8.2c-0.6,0-1,0.4-1,1V7c0,0.6,0.4,1,1,1H13c0.6,0,1-0.4,1-1V5.5
	C14,4.9,13.6,4.5,13,4.5z M13,7H8.2V5.5H13V7z"/>
</svg>
